<svg viewBox="0 0 16 16"  xmlns="http://www.w3.org/2000/svg">
<path fill-rule="evenodd" clip-rule="evenodd" d="M6.95399 8.72665L9.81399 5.85998C9.9389 5.73581 10.1079 5.66612 10.284 5.66612C10.4601 5.66612 10.6291 5.73581 10.754 5.85998C10.8165 5.92196 10.8661 5.99569 10.8999 6.07693C10.9338 6.15817 10.9512 6.24531 10.9512 6.33331C10.9512 6.42132 10.9338 6.50846 10.8999 6.5897C10.8661 6.67094 10.8165 6.74467 10.754 6.80665L7.42065 10.14C7.29648 10.2631 7.12888 10.3326 6.95399 10.3333C6.86625 10.3338 6.77927 10.317 6.69805 10.2838C6.61682 10.2507 6.54295 10.2018 6.48065 10.14L4.91399 8.56665C4.8442 8.50688 4.78752 8.43334 4.7475 8.35063C4.70749 8.26792 4.685 8.17783 4.68146 8.08602C4.67791 7.9942 4.69338 7.90265 4.7269 7.8171C4.76041 7.73155 4.81125 7.65385 4.87622 7.58888C4.94119 7.52391 5.01889 7.47307 5.10444 7.43956C5.18999 7.40604 5.28154 7.39057 5.37336 7.39411C5.46517 7.39766 5.55526 7.42015 5.63797 7.46016C5.72068 7.50018 5.79422 7.55686 5.85399 7.62665L6.95399 8.72665ZM4.29685 2.45685C5.39318 1.72431 6.68211 1.33331 8.00065 1.33331C8.87613 1.33331 9.74304 1.50575 10.5519 1.84078C11.3607 2.17581 12.0956 2.66688 12.7147 3.28593C13.3338 3.90499 13.8248 4.63992 14.1599 5.44876C14.4949 6.25759 14.6673 7.1245 14.6673 7.99998C14.6673 9.31852 14.2763 10.6075 13.5438 11.7038C12.8112 12.8001 11.7701 13.6546 10.5519 14.1592C9.3337 14.6638 7.99326 14.7958 6.70005 14.5385C5.40685 14.2813 4.21896 13.6464 3.28661 12.714C2.35426 11.7817 1.71932 10.5938 1.46209 9.30058C1.20485 8.00738 1.33687 6.66693 1.84146 5.44876C2.34604 4.23058 3.20052 3.18939 4.29685 2.45685Z"/>
</svg>
