<svg width="24" height="24" viewBox="0 0 24 24"  xmlns="http://www.w3.org/2000/svg">
<path fill-rule="evenodd" clip-rule="evenodd" d="M11.9774 15.6184C11.7986 15.6184 11.6239 15.671 11.4753 15.7695C11.3266 15.8681 11.2108 16.0082 11.1424 16.1721C11.074 16.3359 11.0561 16.5163 11.091 16.6903C11.1258 16.8643 11.2119 17.0241 11.3383 17.1495C11.4647 17.2749 11.6257 17.3604 11.8011 17.395C11.9764 17.4296 12.1581 17.4118 12.3232 17.3439C12.4884 17.276 12.6295 17.1611 12.7289 17.0136C12.8282 16.8661 12.8812 16.6927 12.8812 16.5153C12.8812 16.2774 12.786 16.0493 12.6165 15.8811C12.447 15.7129 12.2171 15.6184 11.9774 15.6184ZM21.6208 16.9368L14.3453 4.38002C14.1102 3.96162 13.7667 3.61312 13.3504 3.37052C12.9341 3.12791 12.4601 3 11.9774 3C11.4946 3 11.0206 3.12791 10.6044 3.37052C10.1881 3.61312 9.84462 3.96162 9.60946 4.38002L2.37916 16.9368C2.13585 17.3441 2.00512 17.8078 2.00015 18.2812C1.99518 18.7545 2.11615 19.2209 2.35085 19.633C2.58556 20.0452 2.92568 20.3886 3.33689 20.6286C3.74809 20.8686 4.21582 20.9966 4.69285 20.9999H19.2619C19.7428 21.0046 20.2163 20.8823 20.6338 20.6455C21.0513 20.4088 21.3979 20.066 21.638 19.6525C21.878 19.239 22.003 18.7696 21.9999 18.2924C21.9969 17.8152 21.8661 17.3473 21.6208 16.9368ZM11.3383 8.70575C11.5078 8.53755 11.7377 8.44305 11.9774 8.44305C12.2171 8.44305 12.447 8.53755 12.6165 8.70575C12.786 8.87395 12.8812 9.10209 12.8812 9.33997V12.9276C12.8812 13.1655 12.786 13.3936 12.6165 13.5618C12.447 13.73 12.2171 13.8245 11.9774 13.8245C11.7377 13.8245 11.5078 13.73 11.3383 13.5618C11.1688 13.3936 11.0736 13.1655 11.0736 12.9276V9.33997C11.0736 9.10209 11.1688 8.87395 11.3383 8.70575Z"/>
</svg>
