<svg width="24" height="24" viewBox="0 0 24 24" fill="none" xmlns="http://www.w3.org/2000/svg">
<path d="M17 7H4C3.46957 7 2.96086 7.21071 2.58579 7.58579C2.21071 7.96086 2 8.46957 2 9V15C2 15.5304 2.21071 16.0391 2.58579 16.4142C2.96086 16.7893 3.46957 17 4 17H17C17.5304 17 18.0391 16.7893 18.4142 16.4142C18.7893 16.0391 19 15.5304 19 15V9C19 8.46957 18.7893 7.96086 18.4142 7.58579C18.0391 7.21071 17.5304 7 17 7ZM17 15H4V9H17V15ZM21 10C20.7348 10 20.4804 10.1054 20.2929 10.2929C20.1054 10.4804 20 10.7348 20 11V13C20 13.2652 20.1054 13.5196 20.2929 13.7071C20.4804 13.8946 20.7348 14 21 14C21.2652 14 21.5196 13.8946 21.7071 13.7071C21.8946 13.5196 22 13.2652 22 13V11C22 10.7348 21.8946 10.4804 21.7071 10.2929C21.5196 10.1054 21.2652 10 21 10Z" fill="#5C5C5C"/>
<path d="M5.29289 9.79289C5.48043 9.60536 5.73478 9.5 6 9.5C6.26522 9.5 6.51957 9.60536 6.70711 9.79289C6.89464 9.98043 7 10.2348 7 10.5V13.5C7 13.7652 6.89464 14.0196 6.70711 14.2071C6.51957 14.3946 6.26522 14.5 6 14.5C5.73478 14.5 5.48043 14.3946 5.29289 14.2071C5.10536 14.0196 5 13.7652 5 13.5V10.5C5 10.2348 5.10536 9.98043 5.29289 9.79289Z" fill="#5C5C5C"/>
<path d="M8.29289 9.79289C8.48043 9.60536 8.73478 9.5 9 9.5C9.26522 9.5 9.51957 9.60536 9.70711 9.79289C9.89464 9.98043 10 10.2348 10 10.5V13.5C10 13.7652 9.89464 14.0196 9.70711 14.2071C9.51957 14.3946 9.26522 14.5 9 14.5C8.73478 14.5 8.48043 14.3946 8.29289 14.2071C8.10536 14.0196 8 13.7652 8 13.5V10.5C8 10.2348 8.10536 9.98043 8.29289 9.79289Z" fill="#5C5C5C"/>
<path d="M11.2929 9.79289C11.4804 9.60536 11.7348 9.5 12 9.5C12.2652 9.5 12.5196 9.60536 12.7071 9.79289C12.8946 9.98043 13 10.2348 13 10.5V13.5C13 13.7652 12.8946 14.0196 12.7071 14.2071C12.5196 14.3946 12.2652 14.5 12 14.5C11.7348 14.5 11.4804 14.3946 11.2929 14.2071C11.1054 14.0196 11 13.7652 11 13.5V10.5C11 10.2348 11.1054 9.98043 11.2929 9.79289Z" fill="#5C5C5C"/>
<path d="M14.2929 9.79289C14.4804 9.60536 14.7348 9.5 15 9.5C15.2652 9.5 15.5196 9.60536 15.7071 9.79289C15.8946 9.98043 16 10.2348 16 10.5V13.5C16 13.7652 15.8946 14.0196 15.7071 14.2071C15.5196 14.3946 15.2652 14.5 15 14.5C14.7348 14.5 14.4804 14.3946 14.2929 14.2071C14.1054 14.0196 14 13.7652 14 13.5V10.5C14 10.2348 14.1054 9.98043 14.2929 9.79289Z" fill="#5C5C5C"/>
</svg>
