<svg width="24" height="24" viewBox="0 0 24 24" fill="none" xmlns="http://www.w3.org/2000/svg">
<path d="M17 7H4C3.46957 7 2.96086 7.21071 2.58579 7.58579C2.21071 7.96086 2 8.46957 2 9V15C2 15.5304 2.21071 16.0391 2.58579 16.4142C2.96086 16.7893 3.46957 17 4 17H17C17.5304 17 18.0391 16.7893 18.4142 16.4142C18.7893 16.0391 19 15.5304 19 15V9C19 8.46957 18.7893 7.96086 18.4142 7.58579C18.0391 7.21071 17.5304 7 17 7ZM17 15H4V9H17V15ZM21 10C20.7348 10 20.4804 10.1054 20.2929 10.2929C20.1054 10.4804 20 10.7348 20 11V13C20 13.2652 20.1054 13.5196 20.2929 13.7071C20.4804 13.8946 20.7348 14 21 14C21.2652 14 21.5196 13.8946 21.7071 13.7071C21.8946 13.5196 22 13.2652 22 13V11C22 10.7348 21.8946 10.4804 21.7071 10.2929C21.5196 10.1054 21.2652 10 21 10Z" fill="#5C5C5C"/>
<path d="M5.29289 9.79289C5.48043 9.60536 5.73478 9.5 6 9.5C6.26522 9.5 6.51957 9.60536 6.70711 9.79289C6.89464 9.98043 7 10.2348 7 10.5V13.5C7 13.7652 6.89464 14.0196 6.70711 14.2071C6.51957 14.3946 6.26522 14.5 6 14.5C5.73478 14.5 5.48043 14.3946 5.29289 14.2071C5.10536 14.0196 5 13.7652 5 13.5V10.5C5 10.2348 5.10536 9.98043 5.29289 9.79289Z" fill="#5C5C5C"/>
</svg>
