<svg width="24" height="24" viewBox="0 0 24 24" fill="none" xmlns="http://www.w3.org/2000/svg">
<path d="M17 7H4C3.46957 7 2.96086 7.21071 2.58579 7.58579C2.21071 7.96086 2 8.46957 2 9V15C2 15.5304 2.21071 16.0391 2.58579 16.4142C2.96086 16.7893 3.46957 17 4 17H17C17.5304 17 18.0391 16.7893 18.4142 16.4142C18.7893 16.0391 19 15.5304 19 15V9C19 8.46957 18.7893 7.96086 18.4142 7.58579C18.0391 7.21071 17.5304 7 17 7ZM17 15H4V9H17V15ZM21 10C20.7348 10 20.4804 10.1054 20.2929 10.2929C20.1054 10.4804 20 10.7348 20 11V13C20 13.2652 20.1054 13.5196 20.2929 13.7071C20.4804 13.8946 20.7348 14 21 14C21.2652 14 21.5196 13.8946 21.7071 13.7071C21.8946 13.5196 22 13.2652 22 13V11C22 10.7348 21.8946 10.4804 21.7071 10.2929C21.5196 10.1054 21.2652 10 21 10Z" fill="#5C5C5C"/>
<path d="M10.5 12.5C10.7121 12.5 10.9156 12.421 11.0656 12.2803C11.2157 12.1397 11.3 11.9489 11.3 11.75V10.25C11.3 10.0511 11.2157 9.86032 11.0656 9.71967C10.9156 9.57902 10.7121 9.5 10.5 9.5C10.2878 9.5 10.0843 9.57902 9.93427 9.71967C9.78424 9.86032 9.69995 10.0511 9.69995 10.25V11.75C9.69995 11.9489 9.78424 12.1397 9.93427 12.2803C10.0843 12.421 10.2878 12.5 10.5 12.5Z" fill="#5C5C5C"/>
<path d="M9.69995 13.8C9.69995 13.3582 10.0581 13 10.5 13C10.9418 13 11.3 13.3582 11.3 13.8C11.3 14.2418 10.9418 14.6 10.5 14.6C10.0581 14.6 9.69995 14.2418 9.69995 13.8Z" fill="#5C5C5C"/>
</svg>
