<svg width="24" height="24" viewBox="0 0 24 24" fill="none" xmlns="http://www.w3.org/2000/svg">
<path d="M17 7H4C3.46957 7 2.96086 7.21071 2.58579 7.58579C2.21071 7.96086 2 8.46957 2 9V15C2 15.5304 2.21071 16.0391 2.58579 16.4142C2.96086 16.7893 3.46957 17 4 17H17C17.5304 17 18.0391 16.7893 18.4142 16.4142C18.7893 16.0391 19 15.5304 19 15V9C19 8.46957 18.7893 7.96086 18.4142 7.58579C18.0391 7.21071 17.5304 7 17 7ZM17 15H4V9H17V15ZM21 10C20.7348 10 20.4804 10.1054 20.2929 10.2929C20.1054 10.4804 20 10.7348 20 11V13C20 13.2652 20.1054 13.5196 20.2929 13.7071C20.4804 13.8946 20.7348 14 21 14C21.2652 14 21.5196 13.8946 21.7071 13.7071C21.8946 13.5196 22 13.2652 22 13V11C22 10.7348 21.8946 10.4804 21.7071 10.2929C21.5196 10.1054 21.2652 10 21 10Z" fill="#5C5C5C"/>
<path d="M10.6465 9.64645C10.8417 9.45118 11.1583 9.45118 11.3535 9.64645C11.5488 9.84171 11.5488 10.1582 11.3535 10.3535L10.207 11.5H12C12.2022 11.5 12.3845 11.6218 12.4619 11.8086C12.5393 11.9954 12.4965 12.2105 12.3535 12.3535L10.3535 14.3536C10.1583 14.5488 9.84174 14.5488 9.64648 14.3536C9.45121 14.1583 9.45121 13.8418 9.64648 13.6465L10.793 12.5H8.99999C8.79778 12.5 8.61548 12.3782 8.53807 12.1914C8.46068 12.0046 8.50347 11.7895 8.64647 11.6465L10.6465 9.64645Z" fill="#5C5C5C"/>
</svg>
