<svg width="24" height="24" viewBox="0 0 24 24" fill="none" xmlns="http://www.w3.org/2000/svg">
<path d="M19.6625 19.186C19.7558 19.2905 19.8282 19.4133 19.8757 19.5472C19.9231 19.6811 19.9446 19.8235 19.9389 19.9662C19.9332 20.1088 19.9004 20.2489 19.8424 20.3782C19.7844 20.5075 19.7023 20.6235 19.601 20.7196C19.4997 20.8156 19.3812 20.8897 19.2522 20.9375C19.1232 20.9854 18.9864 21.0061 18.8497 20.9984C18.713 20.9908 18.5792 20.9549 18.4559 20.8929C18.3326 20.8308 18.2223 20.7439 18.1315 20.6371L13.7057 15.5602C12.9568 15.2659 12.1496 15.1702 11.3565 15.2816C10.5634 15.393 9.80925 15.7081 9.16174 16.1985C8.93997 16.3671 8.66307 16.4369 8.39195 16.3926C8.12083 16.3482 7.87771 16.1934 7.71607 15.9621C7.55443 15.7308 7.4875 15.442 7.53002 15.1593C7.57254 14.8765 7.72102 14.623 7.94279 14.4544C8.99814 13.6506 10.2522 13.1788 11.5565 13.095L9.88932 11.1819C8.63007 11.501 7.45197 12.1006 6.43591 12.9395C6.2204 13.1113 5.94881 13.1879 5.67966 13.1529C5.4105 13.1178 5.1653 12.9739 4.99688 12.7522C4.82846 12.5305 4.75028 12.2486 4.77919 11.9673C4.8081 11.6861 4.94178 11.4279 5.15145 11.2484C6.11169 10.4562 7.19127 9.8355 8.34623 9.41166L6.85401 7.70347C5.71401 8.21091 4.64927 8.88539 3.69198 9.70654C3.47958 9.88811 3.20672 9.97426 2.93342 9.94602C2.66012 9.91777 2.40877 9.77746 2.23467 9.55595C2.06057 9.33444 1.97797 9.04987 2.00505 8.76485C2.03213 8.47982 2.16667 8.21769 2.37907 8.03612C3.30488 7.24323 4.31771 6.56782 5.39627 6.02406L4.33852 4.81395C4.24525 4.70946 4.17279 4.58669 4.12534 4.45278C4.0779 4.31886 4.05641 4.17646 4.06212 4.03382C4.06784 3.89117 4.10064 3.75114 4.15863 3.62181C4.21663 3.49249 4.29865 3.37646 4.39996 3.28044C4.50127 3.18443 4.61984 3.11034 4.74881 3.06246C4.87777 3.01459 5.01457 2.99389 5.15126 3.00156C5.28796 3.00923 5.42183 3.04512 5.54513 3.10714C5.66843 3.16917 5.77869 3.2561 5.86954 3.3629L19.6625 19.186ZM12.0005 17.3943C11.7277 17.3943 11.461 17.4786 11.2342 17.6367C11.0074 17.7947 10.8306 18.0194 10.7262 18.2822C10.6218 18.5451 10.5945 18.8343 10.6477 19.1134C10.7009 19.3924 10.8323 19.6487 11.0252 19.8499C11.2181 20.0511 11.4639 20.1881 11.7314 20.2436C11.999 20.2991 12.2763 20.2706 12.5283 20.1617C12.7804 20.0528 12.9958 19.8685 13.1473 19.6319C13.2989 19.3953 13.3798 19.1172 13.3798 18.8327C13.3798 18.4512 13.2345 18.0853 12.9758 17.8156C12.7171 17.5458 12.3663 17.3943 12.0005 17.3943ZM17.5651 12.9395C17.7806 13.1113 18.0522 13.1879 18.3213 13.1529C18.5905 13.1178 18.8357 12.9739 19.0041 12.7522C19.1725 12.5305 19.2507 12.2486 19.2218 11.9673C19.1929 11.6861 19.0592 11.4279 18.8496 11.2484C17.8812 10.446 16.7896 9.82012 15.6211 9.39727C15.3632 9.30847 15.0821 9.32902 14.8386 9.4545C14.5951 9.57998 14.4087 9.80031 14.3196 10.0679C14.2305 10.3355 14.2459 10.6289 14.3625 10.8848C14.4791 11.1407 14.6875 11.3384 14.9427 11.4354C15.8917 11.7794 16.7783 12.2879 17.5651 12.9395ZM21.6219 8.03612C18.9079 5.71806 15.5086 4.45037 12.0005 4.44804C11.6608 4.44804 11.3169 4.45973 10.9781 4.4831C10.8422 4.49249 10.7095 4.52969 10.5874 4.59258C10.4654 4.65547 10.3564 4.74281 10.2667 4.84963C10.177 4.95645 10.1084 5.08065 10.0647 5.21513C10.021 5.34961 10.0032 5.49175 10.0122 5.63343C10.0212 5.77511 10.0568 5.91355 10.1171 6.04085C10.1774 6.16815 10.2612 6.28181 10.3636 6.37536C10.466 6.4689 10.5851 6.54049 10.7141 6.58604C10.843 6.63158 10.9793 6.65019 11.1152 6.64081C11.4083 6.62013 11.7065 6.61024 12.0005 6.61024C15.0299 6.61194 17.9654 7.70654 20.309 9.70834C20.414 9.79825 20.535 9.8657 20.665 9.90686C20.795 9.94802 20.9315 9.96207 21.0667 9.94821C21.2019 9.93435 21.3331 9.89285 21.453 9.82609C21.5728 9.75933 21.6788 9.6686 21.765 9.5591C21.8512 9.44959 21.9159 9.32345 21.9554 9.18788C21.9949 9.05231 22.0083 8.90995 21.995 8.76895C21.9818 8.62794 21.942 8.49105 21.8779 8.36608C21.8139 8.24112 21.7269 8.13052 21.6219 8.04062V8.03612Z" fill="#5C5C5C"/>
</svg>
