<svg width="24" height="24" viewBox="0 0 24 24" fill="none" xmlns="http://www.w3.org/2000/svg">
<path d="M13.3794 18.6364C13.3794 18.9061 13.2985 19.1697 13.1469 19.394C12.9954 19.6182 12.7799 19.793 12.5279 19.8962C12.2758 19.9994 11.9985 20.0264 11.7309 19.9738C11.4634 19.9212 11.2176 19.7913 11.0247 19.6006C10.8318 19.4099 10.7004 19.1669 10.6472 18.9024C10.5939 18.6379 10.6213 18.3637 10.7257 18.1146C10.8301 17.8654 11.0069 17.6524 11.2337 17.5026C11.4605 17.3528 11.7272 17.2728 12 17.2728C12.3659 17.2728 12.7167 17.4165 12.9754 17.6722C13.2341 17.9279 13.3794 18.2747 13.3794 18.6364ZM18.8494 11.4468C16.9 9.92112 14.4864 9.091 12 9.091C9.51362 9.091 7.10009 9.92112 5.15063 11.4468C4.94096 11.6169 4.80727 11.8617 4.77836 12.1283C4.74945 12.3949 4.82763 12.6621 4.99606 12.8723C5.16449 13.0825 5.4097 13.2189 5.67887 13.2521C5.94804 13.2853 6.21964 13.2127 6.43516 13.0499C8.01905 11.8104 9.97994 11.136 12 11.136C14.0201 11.136 15.981 11.8104 17.5649 13.0499C17.7804 13.2127 18.052 13.2853 18.3212 13.2521C18.5904 13.2189 18.8356 13.0825 19.004 12.8723C19.1724 12.6621 19.2506 12.3949 19.2217 12.1283C19.1928 11.8617 19.0591 11.6169 18.8494 11.4468ZM16.0579 14.4859C14.8786 13.6384 13.4581 13.1819 12 13.1819C10.542 13.1819 9.12145 13.6384 7.94212 14.4859C7.72033 14.6457 7.57185 14.8861 7.52933 15.1541C7.48681 15.4221 7.55373 15.6959 7.71538 15.9152C7.87703 16.1344 8.12017 16.2812 8.3913 16.3232C8.66243 16.3653 8.93934 16.2991 9.16113 16.1393C9.98617 15.5463 10.98 15.2269 12 15.2269C13.0201 15.2269 14.0139 15.5463 14.8389 16.1393C14.9487 16.2184 15.0733 16.2754 15.2053 16.3069C15.3374 16.3385 15.4745 16.344 15.6088 16.3232C15.743 16.3024 15.8718 16.2557 15.9878 16.1856C16.1037 16.1156 16.2046 16.0237 16.2847 15.9152C16.3647 15.8066 16.4223 15.6835 16.4543 15.5529C16.4862 15.4223 16.4918 15.2868 16.4707 15.1541C16.4497 15.0214 16.4024 14.8941 16.3316 14.7794C16.2607 14.6648 16.1678 14.5651 16.0579 14.4859Z" fill="#5C5C5C"/>
</svg>
