<svg width="24" height="24" viewBox="0 0 24 24" fill="none" xmlns="http://www.w3.org/2000/svg">
<path d="M13.3794 18.6364C13.3794 18.9061 13.2985 19.1697 13.1469 19.394C12.9953 19.6182 12.7799 19.793 12.5279 19.8962C12.2758 19.9994 11.9985 20.0264 11.7309 19.9738C11.4633 19.9212 11.2176 19.7913 11.0246 19.6006C10.8317 19.4099 10.7004 19.1669 10.6471 18.9024C10.5939 18.6379 10.6212 18.3637 10.7256 18.1146C10.83 17.8654 11.0068 17.6524 11.2337 17.5026C11.4605 17.3528 11.7272 17.2728 12 17.2728C12.3658 17.2728 12.7167 17.4165 12.9754 17.6722C13.234 17.9279 13.3794 18.2748 13.3794 18.6364ZM21.6219 8.40173C18.909 6.20213 15.5087 5 12 5C8.4913 5 5.09105 6.20213 2.37808 8.40173C2.27308 8.48696 2.18608 8.59179 2.12206 8.71026C2.05804 8.82872 2.01825 8.95849 2.00496 9.09215C1.99167 9.22582 2.00514 9.36076 2.04461 9.48928C2.08408 9.6178 2.14876 9.73738 2.23497 9.84118C2.32118 9.94499 2.42723 10.031 2.54707 10.0943C2.6669 10.1576 2.79817 10.1969 2.93338 10.21C3.06859 10.2232 3.20509 10.2099 3.3351 10.1708C3.4651 10.1318 3.58606 10.0679 3.69106 9.98265C6.03394 8.08345 8.97016 7.04553 12 7.04553C15.0298 7.04553 17.9661 8.08345 20.3089 9.98265C20.4139 10.0679 20.5349 10.1318 20.6649 10.1708C20.7949 10.2099 20.9314 10.2232 21.0666 10.21C21.2018 10.1969 21.3331 10.1576 21.4529 10.0943C21.5728 10.031 21.6788 9.94499 21.765 9.84118C21.8512 9.73738 21.9159 9.6178 21.9554 9.48928C21.9949 9.36076 22.0083 9.22582 21.995 9.09215C21.9818 8.95849 21.942 8.82872 21.8779 8.71026C21.8139 8.59179 21.7269 8.48696 21.6219 8.40173ZM18.8494 11.4468C16.8999 9.92114 14.4864 9.09102 12 9.09102C9.51359 9.09102 7.10006 9.92114 5.1506 11.4468C4.94093 11.617 4.80724 11.8617 4.77833 12.1283C4.74942 12.395 4.8276 12.6621 4.99603 12.8723C5.16446 13.0826 5.40967 13.2189 5.67884 13.2522C5.94801 13.2854 6.21961 13.2127 6.43513 13.0499C8.01902 11.8104 9.97991 11.136 12 11.136C14.0201 11.136 15.981 11.8104 17.5649 13.0499C17.7804 13.2127 18.052 13.2854 18.3212 13.2522C18.5903 13.2189 18.8355 13.0826 19.004 12.8723C19.1724 12.6621 19.2506 12.395 19.2217 12.1283C19.1928 11.8617 19.0591 11.617 18.8494 11.4468ZM16.0579 14.4859C14.8786 13.6384 13.458 13.1819 12 13.1819C10.542 13.1819 9.12142 13.6384 7.94209 14.4859C7.7203 14.6457 7.57182 14.8861 7.5293 15.1541C7.48678 15.4222 7.5537 15.6959 7.71535 15.9152C7.87701 16.1344 8.12014 16.2812 8.39127 16.3232C8.6624 16.3653 8.93931 16.2991 9.1611 16.1393C9.98614 15.5463 10.98 15.227 12 15.227C13.02 15.227 14.0139 15.5463 14.8389 16.1393C14.9487 16.2184 15.0732 16.2754 15.2053 16.307C15.3374 16.3385 15.4745 16.3441 15.6087 16.3232C15.743 16.3024 15.8718 16.2557 15.9877 16.1857C16.1037 16.1156 16.2046 16.0237 16.2846 15.9152C16.3647 15.8066 16.4223 15.6835 16.4542 15.5529C16.4862 15.4224 16.4918 15.2868 16.4707 15.1541C16.4496 15.0214 16.4024 14.8941 16.3315 14.7795C16.2607 14.6648 16.1677 14.5651 16.0579 14.4859Z" fill="#5C5C5C"/>
</svg>
