<svg width="24" height="24" viewBox="0 0 24 24" fill="none" xmlns="http://www.w3.org/2000/svg">
<path d="M13.3794 18.6364C13.3794 18.9061 13.2985 19.1697 13.1469 19.394C12.9954 19.6182 12.78 19.793 12.5279 19.8962C12.2759 19.9994 11.9985 20.0264 11.7309 19.9738C11.4634 19.9212 11.2176 19.7913 11.0247 19.6006C10.8318 19.4099 10.7004 19.1669 10.6472 18.9024C10.594 18.6379 10.6213 18.3637 10.7257 18.1146C10.8301 17.8654 11.0069 17.6525 11.2337 17.5026C11.4606 17.3528 11.7272 17.2728 12 17.2728C12.3659 17.2728 12.7167 17.4165 12.9754 17.6722C13.2341 17.9279 13.3794 18.2748 13.3794 18.6364ZM16.058 14.486C14.8786 13.6384 13.4581 13.1819 12 13.1819C10.542 13.1819 9.12146 13.6384 7.94214 14.486C7.72035 14.6458 7.57187 14.8861 7.52935 15.1541C7.48682 15.4222 7.55375 15.6959 7.7154 15.9152C7.87705 16.1344 8.12019 16.2812 8.39132 16.3232C8.66245 16.3653 8.93936 16.2991 9.16115 16.1393C9.98619 15.5464 10.98 15.227 12 15.227C13.0201 15.227 14.0139 15.5464 14.8389 16.1393C14.9488 16.2184 15.0733 16.2754 15.2054 16.307C15.3374 16.3385 15.4745 16.3441 15.6088 16.3232C15.743 16.3024 15.8718 16.2557 15.9878 16.1857C16.1038 16.1157 16.2047 16.0237 16.2847 15.9152C16.3647 15.8066 16.4224 15.6835 16.4543 15.553C16.4862 15.4224 16.4918 15.2869 16.4708 15.1541C16.4497 15.0214 16.4024 14.8941 16.3316 14.7795C16.2608 14.6648 16.1678 14.5651 16.058 14.486Z" fill="#5C5C5C"/>
</svg>
