<svg width="24" height="24" viewBox="0 0 24 24" fill="none" xmlns="http://www.w3.org/2000/svg">
<path d="M13.3793 18.6364C13.3793 18.9061 13.2984 19.1697 13.1469 19.394C12.9953 19.6182 12.7799 19.793 12.5278 19.8962C12.2758 19.9994 11.9984 20.0264 11.7309 19.9738C11.4633 19.9212 11.2175 19.7913 11.0246 19.6006C10.8317 19.4099 10.7003 19.1669 10.6471 18.9024C10.5939 18.6379 10.6212 18.3637 10.7256 18.1146C10.83 17.8654 11.0068 17.6524 11.2336 17.5026C11.4605 17.3528 11.7272 17.2728 12 17.2728C12.3658 17.2728 12.7166 17.4165 12.9753 17.6722C13.234 17.9279 13.3793 18.2747 13.3793 18.6364Z" fill="#5C5C5C"/>
</svg>
