<svg width="24" height="24" viewBox="0 0 24 24" fill="none" xmlns="http://www.w3.org/2000/svg">
<path d="M13.1942 18.6366C13.1942 18.9063 13.1147 19.1699 12.9656 19.3941C12.8165 19.6183 12.6045 19.793 12.3566 19.8962C12.1086 19.9994 11.8358 20.0264 11.5726 19.9738C11.3094 19.9212 11.0676 19.7913 10.8778 19.6007C10.6881 19.41 10.5588 19.1671 10.5065 18.9026C10.4541 18.6381 10.481 18.364 10.5837 18.1149C10.6864 17.8657 10.8603 17.6528 11.0834 17.503C11.3066 17.3532 11.5689 17.2732 11.8373 17.2732C12.1972 17.2732 12.5423 17.4168 12.7968 17.6725C13.0513 17.9282 13.1942 18.275 13.1942 18.6366ZM19.3852 8.07027L20.7014 6.74863C20.8926 6.55653 21 6.29599 21 6.02432C21 5.75266 20.8926 5.49211 20.7014 5.30002C20.5102 5.10792 20.2509 5 19.9805 5C19.7102 5 19.4509 5.10792 19.2597 5.30002L17.9435 6.62166L16.6281 5.30172C16.4369 5.10962 16.1776 5.0017 15.9072 5.0017C15.6369 5.0017 15.3776 5.10962 15.1864 5.30172C14.9952 5.49382 14.8878 5.75436 14.8878 6.02603C14.8878 6.29769 14.9952 6.55823 15.1864 6.75033L16.5017 8.07027L15.1881 9.39191C14.9969 9.58401 14.8895 9.84455 14.8895 10.1162C14.8895 10.3879 14.9969 10.6484 15.1881 10.8405C15.3792 11.0326 15.6385 11.1405 15.9089 11.1405C16.1793 11.1405 16.4386 11.0326 16.6298 10.8405L17.9435 9.51888L19.2588 10.8414C19.3535 10.9365 19.4659 11.0119 19.5896 11.0634C19.7133 11.1149 19.8458 11.1414 19.9797 11.1414C20.1136 11.1414 20.2461 11.1149 20.3698 11.0634C20.4935 11.0119 20.6059 10.9365 20.7006 10.8414C20.7952 10.7463 20.8703 10.6333 20.9216 10.5091C20.9728 10.3848 20.9992 10.2516 20.9992 10.1171C20.9992 9.98255 20.9728 9.84936 20.9216 9.72508C20.8703 9.6008 20.7952 9.48788 20.7006 9.39277L19.3852 8.07027ZM15.8318 14.4868C14.6719 13.6389 13.2746 13.1822 11.8403 13.1822C10.406 13.1822 9.00862 13.6389 7.84881 14.4868C7.63063 14.6464 7.48452 14.8866 7.44261 15.1546C7.4007 15.4225 7.46643 15.6961 7.62534 15.9153C7.78425 16.1346 8.02332 16.2814 8.28996 16.3235C8.5566 16.3656 8.82896 16.2995 9.04714 16.1399C9.85884 15.5468 10.8367 15.2274 11.8403 15.2274C12.8439 15.2274 13.8217 15.5468 14.6334 16.1399C14.8516 16.2995 15.124 16.3656 15.3906 16.3235C15.6572 16.2814 15.8963 16.1346 16.0552 15.9153C16.2141 15.6961 16.2799 15.4225 16.238 15.1546C16.196 14.8866 16.0499 14.6464 15.8318 14.4868ZM12.855 6.02517C12.855 5.75398 12.7478 5.49389 12.5569 5.30212C12.3661 5.11036 12.1072 5.00263 11.8373 5.00263C8.38607 5.00441 5.04176 6.20599 2.37193 8.40345C2.26863 8.48866 2.18305 8.59349 2.12007 8.71193C2.0571 8.83038 2.01795 8.96013 2.00488 9.09377C1.99181 9.22742 2.00506 9.36234 2.04388 9.49084C2.08271 9.61934 2.14634 9.7389 2.23115 9.84269C2.31596 9.94648 2.42028 10.0325 2.53817 10.0957C2.65605 10.159 2.78518 10.1984 2.91819 10.2115C3.0512 10.2246 3.18549 10.2113 3.31338 10.1723C3.44126 10.1333 3.56025 10.0694 3.66355 9.98414C5.96919 8.08681 8.85709 7.04933 11.8373 7.04772C12.1072 7.04772 12.3661 6.93999 12.5569 6.74822C12.7478 6.55646 12.855 6.29637 12.855 6.02517ZM12.855 10.1154C12.855 9.84417 12.7478 9.58408 12.5569 9.39232C12.3661 9.20055 12.1072 9.09282 11.8373 9.09282C9.38986 9.08371 7.0127 9.91465 5.09934 11.4481C4.89308 11.6182 4.76157 11.8629 4.73313 12.1295C4.70469 12.3961 4.78159 12.6632 4.94729 12.8734C5.11298 13.0836 5.3542 13.2199 5.61899 13.2532C5.88378 13.2864 6.15096 13.2137 6.36298 13.0509C7.91752 11.8052 9.8489 11.1302 11.8373 11.1379C12.1072 11.1379 12.3661 11.0302 12.5569 10.8384C12.7478 10.6467 12.855 10.3866 12.855 10.1154Z" fill="#5C5C5C"/>
</svg>
