<svg viewBox="0 0 24 24" xmlns="http://www.w3.org/2000/svg">
<path d="M11 21V19C11 18.4477 11.4477 18 12 18C12.5523 18 13 18.4477 13 19V21C13 21.5523 12.5523 22 12 22C11.4477 22 11 21.5523 11 21ZM6.34277 16.2422C6.7333 15.8517 7.3673 15.8517 7.75781 16.2422C8.14832 16.6327 8.1483 17.2667 7.75781 17.6572L6.34277 19.0713C5.95223 19.4615 5.31914 19.4617 4.92871 19.0713C4.53829 18.6809 4.53848 18.0478 4.92871 17.6572L6.34277 16.2422ZM16.2422 16.2422C16.6327 15.8517 17.2667 15.8517 17.6572 16.2422L19.0713 17.6572C19.4615 18.0478 19.4617 18.6809 19.0713 19.0713C18.6809 19.4617 18.0478 19.4615 17.6572 19.0713L16.2422 17.6572C15.8517 17.2667 15.8517 16.6327 16.2422 16.2422ZM5 11C5.55228 11 6 11.4477 6 12C6 12.5523 5.55228 13 5 13H3C2.44772 13 2 12.5523 2 12C2 11.4477 2.44772 11 3 11H5ZM21 11C21.5523 11 22 11.4477 22 12C22 12.5523 21.5523 13 21 13H19C18.4477 13 18 12.5523 18 12C18 11.4477 18.4477 11 19 11H21ZM4.92871 4.92871C5.31914 4.53829 5.95223 4.53848 6.34277 4.92871L7.75781 6.34277C8.1483 6.7333 8.14832 7.3673 7.75781 7.75781C7.3673 8.14832 6.7333 8.1483 6.34277 7.75781L4.92871 6.34277C4.53848 5.95223 4.53829 5.31914 4.92871 4.92871ZM17.6572 4.92871C18.0478 4.53848 18.6809 4.53829 19.0713 4.92871C19.4617 5.31914 19.4615 5.95223 19.0713 6.34277L17.6572 7.75781C17.2667 8.1483 16.6327 8.14832 16.2422 7.75781C15.8517 7.3673 15.8517 6.7333 16.2422 6.34277L17.6572 4.92871ZM11 5V3C11 2.44772 11.4477 2 12 2C12.5523 2 13 2.44772 13 3V5C13 5.55228 12.5523 6 12 6C11.4477 6 11 5.55228 11 5Z" />
<path d="M15 12C15 10.3431 13.6569 9 12 9C10.3431 9 9 10.3431 9 12C9 13.6569 10.3431 15 12 15C13.6569 15 15 13.6569 15 12ZM17 12C17 14.7614 14.7614 17 12 17C9.23858 17 7 14.7614 7 12C7 9.23858 9.23858 7 12 7C14.7614 7 17 9.23858 17 12Z" />
</svg>