<svg viewBox="0 0 24 24" xmlns="http://www.w3.org/2000/svg">
<path d="M2.46563 7.76621L18.96 2.70371L18.975 2.69902C19.2545 2.6175 19.5492 2.60219 19.8356 2.65431C20.1221 2.70643 20.3925 2.82455 20.6254 2.9993C20.8583 3.17406 21.0473 3.40065 21.1774 3.66113C21.3075 3.9216 21.3751 4.2088 21.375 4.49996V18C21.375 18.4963 21.1782 18.9723 20.8278 19.3238C20.4774 19.6753 20.0019 19.8735 19.5056 19.875C19.3261 19.8747 19.1474 19.8491 18.975 19.799H18.96L11.625 17.549V18.375C11.625 18.8722 11.4275 19.3492 11.0758 19.7008C10.7242 20.0524 10.2473 20.25 9.75 20.25H6.75C6.25272 20.25 5.77581 20.0524 5.42418 19.7008C5.07254 19.3492 4.875 18.8722 4.875 18.375V15.4743L2.46563 14.7346C2.07915 14.6182 1.74029 14.3807 1.49894 14.0571C1.25759 13.7336 1.12651 13.3411 1.125 12.9375V9.56246C1.12671 9.15898 1.25788 8.7667 1.49921 8.44334C1.74055 8.11999 2.0793 7.88264 2.46563 7.76621ZM19.125 17.4918V5.00902L11.625 7.31246V15.1875L19.125 17.4918ZM7.125 18H9.375V16.8543L7.125 16.1643V18ZM3.375 12.6609L9.375 14.5012V7.99965L3.375 9.84371V12.6609Z" />
</svg>