<svg viewBox="0 0 24 24" xmlns="http://www.w3.org/2000/svg">
<path fill-rule="evenodd" clip-rule="evenodd" d="M13.8787 2.70705C15.0503 1.53548 16.9497 1.53547 18.1213 2.70705L19.2929 3.87862C20.4645 5.05019 20.4645 6.94969 19.2929 8.12126L9.85355 17.5606C9.57225 17.8419 9.19072 17.9999 8.79289 17.9999H5.5C4.67157 17.9999 4 17.3284 4 16.4999V13.207C4 12.8092 4.15804 12.4277 4.43934 12.1464L13.8787 2.70705ZM16.7071 4.12126C16.3166 3.73074 15.6834 3.73074 15.2929 4.12126L14.4142 4.99994L17 7.58573L17.8787 6.70705C18.2692 6.31652 18.2692 5.68336 17.8787 5.29283L16.7071 4.12126ZM15.5858 8.99994L13 6.41416L6 13.4142V15.9999H8.58579L15.5858 8.99994ZM22 20.9999C22 21.5522 21.5523 21.9999 21 21.9999H3C2.44772 21.9999 2 21.5522 2 20.9999C2 20.4477 2.44772 19.9999 3 19.9999H21C21.5523 19.9999 22 20.4477 22 20.9999Z" />
</svg>