<svg viewBox="0 0 24 24" xmlns="http://www.w3.org/2000/svg">
<path fill-rule="evenodd" clip-rule="evenodd" d="M5.5 14.449C5.5 14.4789 5.50002 14.5086 5.50004 14.538L5.5 14.449Z" />
<path fill-rule="evenodd" clip-rule="evenodd" d="M9.6476 18.5C9.64759 18.5 9.6476 18.5 9.6476 18.5V18.5Z" />
<path fill-rule="evenodd" clip-rule="evenodd" d="M16.5 9.7002V16.5H9.7002C9.12364 16.5 8.75111 16.4987 8.46777 16.4756C8.19619 16.4534 8.09534 16.4158 8.0459 16.3906C7.85793 16.2948 7.70521 16.1421 7.60938 15.9541C7.58419 15.9047 7.54661 15.8038 7.52441 15.5322C7.50126 15.2489 7.5 14.8764 7.5 14.2998V7.5H14.2998C14.8764 7.5 15.2489 7.50126 15.5322 7.52441C15.8038 7.54661 15.9047 7.58419 15.9541 7.60938C16.1421 7.70521 16.2948 7.85793 16.3906 8.0459C16.4158 8.09534 16.4534 8.19619 16.4756 8.46777C16.4987 8.75111 16.5 9.12364 16.5 9.7002ZM16.5 18.5H9.7002L9.6476 18.5C9.12641 18.5 8.67592 18.5001 8.30469 18.4697C7.90943 18.4374 7.51599 18.3656 7.1377 18.1729C6.57347 17.8853 6.11472 17.4265 5.82715 16.8623C5.6344 16.484 5.56258 16.0906 5.53027 15.6953C5.50182 15.3471 5.50008 14.9296 5.5 14.449L5.5 14.3521L5.5 14.2998V7.5H3C2.44771 7.5 2 7.05228 2 6.5C2 5.94772 2.44771 5.5 3 5.5H5.5V3C5.5 2.44772 5.94772 2 6.5 2C7.05228 2 7.5 2.44772 7.5 3V5.5H14.2998L14.3521 5.5C14.8734 5.49996 15.324 5.49994 15.6953 5.53027C16.0906 5.56258 16.484 5.6344 16.8623 5.82715C17.4265 6.11472 17.8853 6.57347 18.1729 7.1377C18.3656 7.51599 18.4374 7.90943 18.4697 8.30469C18.5001 8.67594 18.5 9.12642 18.5 9.64765L18.5 9.7002V16.5H21C21.5523 16.5 22 16.9477 22 17.5C22 18.0523 21.5523 18.5 21 18.5H18.5V21C18.5 21.5523 18.0523 22 17.5 22C16.9477 22 16.5 21.5523 16.5 21V18.5Z" />
</svg>