<svg viewBox="0 0 24 24" xmlns="http://www.w3.org/2000/svg">
<path d="M13.0004 9C13.0004 8.44772 12.5526 8 12.0004 8C11.4481 8 11.0004 8.44772 11.0004 9C11.0004 9.55228 11.4481 10 12.0004 10C12.5526 10 13.0004 9.55228 13.0004 9ZM15.0004 9C15.0004 10.6569 13.6572 12 12.0004 12C10.3435 12 9.00035 10.6569 9.00035 9C9.00035 7.34315 10.3435 6 12.0004 6C13.6572 6 15.0004 7.34315 15.0004 9Z" />
<path fill-rule="evenodd" clip-rule="evenodd" d="M17.0765 13.0008C17.8722 11.6841 18.5004 10.1598 18.5004 8.59961C18.5003 6.85506 17.8198 5.17843 16.6029 3.93945C15.3853 2.6998 13.7301 2 12.0004 2C10.2706 2 8.61536 2.6998 7.39781 3.93945C6.18094 5.17843 5.50043 6.85506 5.50035 8.59961C5.50035 10.1597 6.12879 11.6837 6.92467 13.0003C6.35055 13.0043 5.83628 13.034 5.37438 13.2227C4.89316 13.4192 4.47096 13.7378 4.14977 14.1465C3.78205 14.6146 3.61121 15.2159 3.41642 15.9016L3.37535 16.0459L3.20445 16.6465L3.19241 16.6886C3.00495 17.3447 2.84612 17.9005 2.75817 18.3594C2.66716 18.8343 2.62595 19.3245 2.76598 19.8184C2.97016 20.5381 3.43574 21.1557 4.07164 21.5498C4.50816 21.8203 4.9912 21.916 5.47301 21.959C5.93395 22.0001 6.5054 22 7.17924 22L7.24254 22H16.7582L16.8216 22C17.4954 22 18.0668 22.0001 18.5277 21.959C19.0095 21.916 19.4925 21.8203 19.9291 21.5498C20.565 21.1557 21.0306 20.5381 21.2347 19.8184C21.3748 19.3245 21.3335 18.8343 21.2425 18.3594C21.1546 17.9005 20.9957 17.3446 20.8083 16.6886L20.7963 16.6465L20.6254 16.0459L20.5843 15.9016C20.3895 15.2159 20.2187 14.6146 19.8509 14.1465C19.5297 13.7378 19.1075 13.4192 18.6263 13.2227C18.1842 13.0421 17.6942 13.0072 17.1498 13.001L17.0765 13.0008ZM9.32802 13C9.30497 12.9685 9.28201 12.937 9.25914 12.9053C8.2348 11.4853 7.50035 9.96517 7.50035 8.59961C7.50042 7.37401 7.9787 6.20207 8.82457 5.34082C9.66993 4.48011 10.8127 4 12.0004 4C13.188 4 14.3308 4.48011 15.1761 5.34082C16.022 6.20207 16.5003 7.37401 16.5004 8.59961C16.5004 9.96528 15.7658 11.4853 14.7416 12.9053C14.7187 12.937 14.6957 12.9686 14.6727 13C14.1183 13.7567 13.515 14.4398 12.9759 15C12.6087 15.3816 12.2713 15.7061 11.9994 15.958C11.7276 15.7061 11.3905 15.3815 11.0238 15C10.4851 14.4396 9.88227 13.7564 9.32802 13ZM17.1703 15.0039L16.5863 15H15.6519C14.7341 16.1228 13.8039 17.0239 13.2308 17.5469C13.2114 17.5646 13.191 17.5815 13.1703 17.5977C12.8363 17.8574 12.4253 18 12.0004 18C11.5754 18 11.1645 17.8574 10.8304 17.5977C10.8097 17.5815 10.7893 17.5646 10.7699 17.5469C10.1973 17.024 9.26752 16.1229 8.3498 15H7.41442L6.83043 15.0039C6.36774 15.0116 6.23433 15.0322 6.13121 15.0742C5.97091 15.1397 5.83006 15.2457 5.72301 15.3818C5.63122 15.4986 5.56147 15.6777 5.29918 16.5957L5.12731 17.1953C4.9244 17.9055 4.79116 18.3747 4.72203 18.7354C4.65431 19.0887 4.67458 19.2185 4.68981 19.2725C4.75787 19.5124 4.91336 19.7183 5.12535 19.8496C5.17282 19.879 5.29149 19.9348 5.65074 19.9668C6.01645 19.9994 6.50397 20 7.24254 20H16.7582C17.4967 20 17.9843 19.9994 18.35 19.9668C18.7092 19.9348 18.8279 19.879 18.8754 19.8496C19.0873 19.7183 19.2428 19.5124 19.3109 19.2725C19.3261 19.2185 19.3464 19.0887 19.2787 18.7354C19.2095 18.3747 19.0763 17.9055 18.8734 17.1953L18.7015 16.5957C18.4392 15.6777 18.3695 15.4986 18.2777 15.3818C18.1707 15.2457 18.0298 15.1397 17.8695 15.0742C17.7664 15.0322 17.633 15.0116 17.1703 15.0039Z" />
</svg>