<svg viewBox="0 0 24 24" xmlns="http://www.w3.org/2000/svg">
<path d="M14.6582 4.16508C15.8269 3.88644 17.0547 3.96283 18.1787 4.3848C19.3029 4.80685 20.2731 5.55506 20.957 6.53422C21.6401 7.51224 22.0047 8.6731 22 9.86234L21.9951 10.0938C21.8959 12.4556 20.2909 14.1614 19 15.4258C18.9961 15.4297 18.9913 15.4328 18.9873 15.4366L14.0654 20.1006C13.8106 20.3757 13.5032 20.5971 13.1611 20.751C12.8016 20.9127 12.4116 20.9975 12.0176 21C11.6235 21.0025 11.2326 20.9228 10.8711 20.7657C10.5269 20.616 10.2165 20.398 9.95801 20.126L5.01172 15.4366C5.00788 15.4329 5.00378 15.4295 5 15.4258C3.70987 14.1622 2.10386 12.464 2.00488 10.0938L2 9.86234C2.00009 8.67442 2.36808 7.51631 3.05273 6.54105C3.73732 5.56596 4.70576 4.82044 5.82715 4.39945C6.94833 3.97857 8.17246 3.90062 9.33887 4.17582C10.3344 4.41071 11.2498 4.8943 11.998 5.57719C12.7449 4.8897 13.6611 4.40287 14.6582 4.16508ZM12.7412 16.7745C12.6256 17.179 12.2693 17.4677 11.8496 17.4971C11.4301 17.5264 11.0371 17.2906 10.8662 16.9063L9.55664 13.96C9.46799 13.9856 9.3753 14 9.28027 14H6.40332L11.3457 18.6856L11.3965 18.7373C11.4708 18.8188 11.5628 18.8859 11.668 18.9317C11.7732 18.9774 11.8883 19.0008 12.0049 19C12.1215 18.9993 12.2362 18.9738 12.3408 18.9268C12.4451 18.8799 12.5363 18.8126 12.6094 18.7305L12.6689 18.669L17.5967 14H15.2803C14.8802 14 14.5189 13.7613 14.3613 13.3936L13.9688 12.4776L12.7412 16.7745ZM4.01172 10.1524C4.06657 10.8139 4.30824 11.4175 4.67871 12H8.66211L8.88574 11.5528L8.95898 11.4297C9.14857 11.1567 9.46416 10.9923 9.80273 11C10.1895 11.0088 10.5361 11.2403 10.6934 11.5938L11.5742 13.5772L12.8184 9.22562L12.873 9.07816C13.0256 8.74994 13.3474 8.5254 13.7168 8.50199C14.1391 8.47525 14.5325 8.71758 14.6992 9.10648L15.9395 12H19.3193C19.7443 11.3316 20 10.6359 20 9.86234V9.85746C20.0037 9.08253 19.7666 8.32292 19.3174 7.67973C18.8678 7.03609 18.2259 6.53854 17.4756 6.25687C16.7252 5.97522 15.9038 5.92401 15.1221 6.11039C14.3405 6.29679 13.6388 6.71122 13.1084 7.29496C13.103 7.30092 13.0974 7.30671 13.0918 7.31254C12.95 7.46106 12.7793 7.57855 12.5918 7.65824C12.4044 7.7379 12.203 7.77835 12 7.77836C11.797 7.77836 11.5956 7.73789 11.4082 7.65824C11.2207 7.57855 11.05 7.46106 10.9082 7.31254C10.9037 7.30784 10.8989 7.30268 10.8945 7.29789C10.3622 6.71779 9.66037 6.3063 8.87988 6.12211C8.09913 5.9379 7.27932 5.99041 6.53027 6.27152C5.7813 6.55269 5.13983 7.04897 4.68945 7.69047C4.2395 8.3315 4.00009 9.08878 4 9.86234L4.01172 10.1524Z" />
</svg>