<svg viewBox="0 0 24 24" xmlns="http://www.w3.org/2000/svg">
<path fill-rule="evenodd" clip-rule="evenodd" d="M6 15C6 14.4477 5.55228 14 5 14H3C2.44772 14 2 14.4477 2 15C2 15.5523 2.44772 16 3 16H5C5.55228 16 6 15.5523 6 15ZM22 15C22 14.4477 21.5523 14 21 14H19C18.4477 14 18 14.4477 18 15C18 15.5523 18.4477 16 19 16H21C21.5523 16 22 15.5523 22 15ZM6.34277 7.92871C5.95223 7.53848 5.31914 7.53829 4.92871 7.92871C4.53829 8.31914 4.53848 8.95223 4.92871 9.34277L6.34277 10.7578C6.7333 11.1483 7.3673 11.1483 7.75781 10.7578C8.14832 10.3673 8.1483 9.7333 7.75781 9.34277L6.34277 7.92871ZM19.0713 7.92871C18.6809 7.53829 18.0478 7.53848 17.6572 7.92871L16.2422 9.34277C15.8517 9.7333 15.8517 10.3673 16.2422 10.7578C16.6327 11.1483 17.2667 11.1483 17.6572 10.7578L19.0713 9.34277C19.4615 8.95223 19.4617 8.31914 19.0713 7.92871ZM11 6V8C11 8.55228 11.4477 9 12 9C12.5523 9 13 8.55228 13 8V6C13 5.44772 12.5523 5 12 5C11.4477 5 11 5.44772 11 6Z" />
<path fill-rule="evenodd" clip-rule="evenodd" d="M15 15C15 13.3431 13.6569 12 12 12C10.3431 12 9 13.3431 9 15C9 15.7684 9.28886 16.4692 9.7639 17H7.41605C7.14845 16.3875 7 15.7111 7 15C7 12.2386 9.23858 10 12 10C14.7614 10 17 12.2386 17 15C17 15.7111 16.8516 16.3875 16.584 17H14.2361C14.7111 16.4692 15 15.7684 15 15Z" />
<path fill-rule="evenodd" clip-rule="evenodd" d="M3 19H6.73503H7.36558H8.99952H15.0005H16.6344H17.265H21C21.5523 19 22 18.5523 22 18C22 17.4477 21.5523 17 21 17H16.584H14.2361H9.7639H7.41605H3C2.44772 17 2 17.4477 2 18C2 18.5523 2.44772 19 3 19Z" />
</svg>