<svg viewBox="0 0 24 24" xmlns="http://www.w3.org/2000/svg">
<path d="M20 4.7998C19.9999 4.5877 19.9156 4.38436 19.7656 4.23438C19.6156 4.08439 19.4123 4.00005 19.2002 4H8.40039C8.18822 4 7.98401 4.08435 7.83398 4.23438C7.68412 4.38434 7.59966 4.58779 7.59961 4.7998V19.2002C7.59959 19.4736 7.55918 19.7427 7.48242 20H19.2002C19.4123 19.9999 19.6156 19.9156 19.7656 19.7656C19.9156 19.6156 19.9999 19.4123 20 19.2002V4.7998ZM15 16C15.5523 16 16 16.4477 16 17C16 17.5523 15.5523 18 15 18H10C9.44772 18 9 17.5523 9 17C9 16.4477 9.44772 16 10 16H15ZM17 13C17.5523 13 18 13.4477 18 14C18 14.5523 17.5523 15 17 15H10C9.44772 15 9 14.5523 9 14C9 13.4477 9.44772 13 10 13H17ZM11 9H16V8H11V9ZM4 19.2002C4.00005 19.4123 4.08439 19.6156 4.23438 19.7656C4.38436 19.9156 4.5877 19.9999 4.7998 20C5.01188 20 5.21522 19.9155 5.36523 19.7656C5.51522 19.6156 5.59956 19.4123 5.59961 19.2002V10.2998H4.7998C4.58775 10.2999 4.38435 10.3843 4.23438 10.5342C4.08444 10.6841 4.0001 10.8876 4 11.0996V19.2002ZM18 9.25C18 10.3556 17.0104 11 16.125 11H10.875C9.98964 11 9 10.3556 9 9.25V7.75C9 6.64444 9.98964 6 10.875 6H16.125C17.0104 6 18 6.64444 18 7.75V9.25ZM22 19.2002C21.9999 19.9427 21.7047 20.6546 21.1797 21.1797C20.6546 21.7047 19.9427 21.9999 19.2002 22H4.7998C4.05727 21.9999 3.34537 21.7047 2.82031 21.1797C2.29526 20.6546 2.00005 19.9427 2 19.2002V11.0996C2.0001 10.3571 2.2953 9.64513 2.82031 9.12012C3.34536 8.59512 4.05731 8.29986 4.7998 8.2998H5.59961V4.7998C5.59966 4.05736 5.89499 3.34535 6.41992 2.82031C6.94502 2.29521 7.65778 2 8.40039 2H19.2002C19.9427 2.00005 20.6546 2.29526 21.1797 2.82031C21.7047 3.34537 21.9999 4.05727 22 4.7998V19.2002Z" />
</svg>