<svg viewBox="0 0 24 24" xmlns="http://www.w3.org/2000/svg">
<path d="M8 9C7.44772 9 7 9.44772 7 10C7 11.3261 7.52716 12.5975 8.46484 13.5352C9.40253 14.4728 10.6739 15 12 15L12.248 14.9941C13.4838 14.9328 14.6561 14.4142 15.5352 13.5352C16.4728 12.5975 17 11.3261 17 10C17 9.44772 16.5523 9 16 9C15.4477 9 15 9.44772 15 10C15 10.7956 14.6837 11.5585 14.1211 12.1211C13.6289 12.6133 12.9835 12.9171 12.2969 12.9854L12 13C11.2044 13 10.4415 12.6837 9.87891 12.1211C9.3163 11.5585 9 10.7956 9 10C9 9.44772 8.55228 9 8 9Z" />
<path fill-rule="evenodd" clip-rule="evenodd" d="M21 19.2002C20.9999 19.9388 20.7099 20.6498 20.1904 21.1758C19.6706 21.7019 18.9631 21.9999 18.2227 22H5.77734C5.0369 21.9999 4.32939 21.7019 3.80957 21.1758C3.35503 20.7156 3.07627 20.1136 3.01367 19.4756L3 19.2002V7.2002C3.00002 6.59759 3.19295 6.00993 3.55176 5.52539L5.33008 3.125C5.5877 2.77721 5.92223 2.49349 6.30859 2.29785C6.69509 2.10219 7.12233 2 7.55566 2H16.4443C16.8777 2 17.3049 2.10219 17.6914 2.29785C18.0778 2.49348 18.4123 2.77721 18.6699 3.125L20.4482 5.52539C20.8071 6.00993 21 6.59759 21 7.2002V19.2002ZM17.0635 4.31543L17.9406 5.5L6.05942 5.5L6.93652 4.31543C7.01002 4.21621 7.1047 4.13633 7.21191 4.08203C7.31912 4.02776 7.43701 4 7.55566 4H16.4443C16.563 4 16.6809 4.02776 16.7881 4.08203C16.8953 4.13633 16.99 4.21622 17.0635 4.31543ZM5 7.5L19 7.5V19.2002C18.9999 19.4163 18.9148 19.6215 18.7676 19.7705C18.6209 19.9189 18.4246 19.9999 18.2227 20H5.77734C5.5754 19.9999 5.37913 19.9189 5.23242 19.7705C5.10353 19.64 5.02214 19.4664 5.00391 19.2803L5 19.2002L5 7.5Z" />
</svg>