<svg viewBox="0 0 24 24" xmlns="http://www.w3.org/2000/svg">
<path d="M17 4H16C16 3.46957 15.7893 2.96086 15.4142 2.58579C15.0391 2.21071 14.5304 2 14 2H10C9.46957 2 8.96086 2.21071 8.58579 2.58579C8.21071 2.96086 8 3.46957 8 4H7C6.20435 4 5.44129 4.31607 4.87868 4.87868C4.31607 5.44129 4 6.20435 4 7V19C4 19.7956 4.31607 20.5587 4.87868 21.1213C5.44129 21.6839 6.20435 22 7 22H17C17.7956 22 18.5587 21.6839 19.1213 21.1213C19.6839 20.5587 20 19.7956 20 19V7C20 6.20435 19.6839 5.44129 19.1213 4.87868C18.5587 4.31607 17.7956 4 17 4ZM10 4H14V5V6H10V4ZM18 19C18 19.2652 17.8946 19.5196 17.7071 19.7071C17.5196 19.8946 17.2652 20 17 20H7C6.73478 20 6.48043 19.8946 6.29289 19.7071C6.10536 19.5196 6 19.2652 6 19V7C6 6.73478 6.10536 6.48043 6.29289 6.29289C6.48043 6.10536 6.73478 6 7 6H8C8 6.53043 8.21071 7.03914 8.58579 7.41421C8.96086 7.78929 9.46957 8 10 8H14C14.5304 8 15.0391 7.78929 15.4142 7.41421C15.7893 7.03914 16 6.53043 16 6H17C17.2652 6 17.5196 6.10536 17.7071 6.29289C17.8946 6.48043 18 6.73478 18 7V19Z" />
<path d="M8 17C8 16.4477 8.44772 16 9 16H15C15.5523 16 16 16.4477 16 17C16 17.5523 15.5523 18 15 18H9C8.44772 18 8 17.5523 8 17Z" />
<path d="M10.9999 12.5941L14.2899 9.29409C14.4782 9.10579 14.7336 9 14.9999 9C15.2662 9 15.5216 9.10579 15.7099 9.29409C15.8982 9.4824 16.004 9.73779 16.004 10.0041C16.004 10.2704 15.8982 10.5258 15.7099 10.7141L11.7099 14.7141C11.617 14.8078 11.5064 14.8822 11.3845 14.933C11.2627 14.9838 11.132 15.0099 10.9999 15.0099C10.8679 15.0099 10.7372 14.9838 10.6154 14.933C10.4935 14.8822 10.3829 14.8078 10.2899 14.7141L8.28994 12.7141C8.10164 12.5258 7.99585 12.2704 7.99585 12.0041C7.99585 11.7378 8.10164 11.4824 8.28994 11.2941C8.47824 11.1058 8.73364 11 8.99994 11C9.26624 11 9.52164 11.1058 9.70994 11.2941L10.9999 12.5941Z" />
</svg>