<svg viewBox="0 0 24 24" xmlns="http://www.w3.org/2000/svg">
<path d="M20.0794 2.08074C20.3335 1.99219 20.6067 1.97529 20.8695 2.03386C21.1376 2.09365 21.3832 2.22828 21.5775 2.42253C21.7232 2.56827 21.8353 2.74288 21.9076 2.93425L21.9662 3.13054L21.9974 3.33269C22.0129 3.53099 21.9851 3.73048 21.9193 3.9196L21.9212 3.92058L16.0716 21.0182C15.9757 21.2979 15.7963 21.5425 15.558 21.7175C15.3194 21.8925 15.0324 21.9911 14.7367 21.9987C14.441 22.0062 14.1498 21.9229 13.9027 21.7604C13.6865 21.6182 13.5126 21.421 13.3988 21.1901L13.3539 21.0885L10.4925 13.9518L10.4593 13.8786C10.4218 13.807 10.3732 13.7415 10.3158 13.6843C10.2394 13.608 10.1484 13.5476 10.0482 13.5075L2.91148 10.6462C2.63695 10.536 2.40218 10.3445 2.2396 10.0973C2.07708 9.85025 1.99381 9.559 2.00132 9.26335L2.00913 9.153C2.03529 8.89669 2.12937 8.65085 2.28257 8.44206C2.45757 8.20373 2.70209 8.02431 2.98179 7.92839L20.0794 2.07878V2.08074ZM5.03062 9.3405L10.7923 11.651C11.1433 11.7916 11.4613 12.0022 11.7289 12.2692C11.9962 12.5362 12.2069 12.8543 12.348 13.2048L12.349 13.2057L14.6585 18.9684L19.6654 4.33366L5.03062 9.3405Z" />
<path d="M20.2943 2.29167C20.6848 1.90115 21.3178 1.90115 21.7084 2.29167C22.0989 2.6822 22.0989 3.31521 21.7084 3.70573L11.7084 13.7057C11.3178 14.0963 10.6848 14.0963 10.2943 13.7057C9.90377 13.3152 9.90377 12.6822 10.2943 12.2917L20.2943 2.29167Z" />
</svg>