<svg viewBox="0 0 24 24" xmlns="http://www.w3.org/2000/svg">
<path fill-rule="evenodd" clip-rule="evenodd" d="M12 4C16.4183 4 20 7.58172 20 12C20 16.4183 16.4183 20 12 20C7.58172 20 4 16.4183 4 12C4 7.58172 7.58172 4 12 4ZM15.1946 13.4061C15.1973 13.4025 15.1995 13.3995 15.2012 13.3975L15.1946 13.4061ZM16.7247 14.5433L16.7998 14.5996C16.7998 14.5994 16.7971 14.5974 16.7403 14.5549L16.5449 14.4085L16.7247 14.5433ZM16.7329 14.6848C16.7228 14.6969 16.7116 14.7102 16.6995 14.7247C16.6409 14.7946 16.5547 14.8938 16.4482 15.0049C16.2362 15.2261 15.926 15.5172 15.5254 15.8086C14.7275 16.3889 13.5255 17 12 17C10.4745 17 9.27255 16.3889 8.47461 15.8086C8.07396 15.5172 7.76382 15.2261 7.55176 15.0049C7.44531 14.8938 7.36236 14.7984 7.30371 14.7285C7.30367 14.7285 7.30375 14.7286 7.30371 14.7285C7.28549 14.7068 7.26622 14.6839 7.25266 14.6674C7.24554 14.6587 7.23911 14.6508 7.2334 14.6436L7.21191 14.6162C7.21039 14.6142 7.21312 14.618 7.21191 14.6162C7.21094 14.6147 7.20598 14.6076 7.20508 14.6064C6.87385 14.1646 6.95861 13.5315 7.40039 13.2002C7.8419 12.8692 8.46731 12.9584 8.79883 13.3994C8.80478 13.4069 8.81842 13.4236 8.83496 13.4434C8.86805 13.4828 8.92208 13.5439 8.99512 13.6201C9.1424 13.7738 9.36384 13.983 9.65039 14.1914C10.2275 14.6111 11.0255 15 12 15C12.9745 15 13.7725 14.6111 14.3496 14.1914C14.6362 13.983 14.8576 13.7738 15.0049 13.6201C15.0779 13.5439 15.1319 13.4828 15.165 13.4434C15.177 13.4291 15.1874 13.4154 15.1946 13.4061M10.0098 9C10.0098 8.44772 9.56205 8 9.00977 8C8.45748 8 8 8.44772 8 9C8 9.55228 8.45748 10 9.00977 10C9.56205 10 10.0098 9.55228 10.0098 9ZM16.0098 9C16.0098 8.44772 15.5621 8 15.0098 8C14.4575 8 14 8.44772 14 9C14 9.55228 14.4575 10 15.0098 10C15.5621 10 16.0098 9.55228 16.0098 9ZM12 22C17.5228 22 22 17.5228 22 12C22 6.47715 17.5228 2 12 2C6.47715 2 2 6.47715 2 12C2 17.5228 6.47715 22 12 22ZM15.2012 13.3975L15.1946 13.4061L15.2012 13.3975Z" />
<path d="M16.5996 13.2002C16.1585 12.8695 15.5329 12.9576 15.2012 13.3975L15.1946 13.4061C15.1874 13.4154 15.177 13.4291 15.165 13.4434C15.1319 13.4828 15.0779 13.5439 15.0049 13.6201C14.8576 13.7738 14.6362 13.983 14.3496 14.1914C13.7725 14.6111 12.9745 15 12 15C11.0255 15 10.2275 14.6111 9.65039 14.1914C9.36384 13.983 9.1424 13.7738 8.99512 13.6201C8.92208 13.5439 8.86805 13.4828 8.83496 13.4434C8.81842 13.4236 8.80478 13.4069 8.79883 13.3994C8.46731 12.9584 7.8419 12.8692 7.40039 13.2002C6.95861 13.5315 6.87385 14.1646 7.20508 14.6064L7.21191 14.6162C7.21039 14.6142 7.21312 14.618 7.21191 14.6162L7.2334 14.6436C7.24999 14.6645 7.27593 14.6954 7.30371 14.7285C7.36236 14.7984 7.44531 14.8938 7.55176 15.0049C7.76382 15.2261 8.07396 15.5172 8.47461 15.8086C9.27255 16.3889 10.4745 17 12 17C13.5255 17 14.7275 16.3889 15.5254 15.8086C15.926 15.5172 16.2362 15.2261 16.4482 15.0049C16.5547 14.8938 16.6409 14.7946 16.6995 14.7247C16.7273 14.6916 16.75 14.6645 16.7666 14.6436L16.7881 14.6162C16.7896 14.6142 16.7973 14.6033 16.7998 14.5996C16.7989 14.6008 16.8018 14.5967 16.7998 14.5996C17.131 14.1578 17.0414 13.5315 16.5996 13.2002ZM16.7998 14.5996L16.5449 14.4085L16.7403 14.5549C16.7971 14.5974 16.7998 14.5994 16.7998 14.5996Z" />
</svg>