<svg width="24" height="24" viewBox="0 0 24 24" fill="none" xmlns="http://www.w3.org/2000/svg">
<path d="M18 19H19V18C19 17.7348 19.1054 17.4804 19.2929 17.2929C19.4804 17.1054 19.7348 17 20 17C20.2652 17 20.5196 17.1054 20.7071 17.2929C20.8946 17.4804 21 17.7348 21 18V19H22C22.2652 19 22.5196 19.1054 22.7071 19.2929C22.8946 19.4804 23 19.7348 23 20C23 20.2652 22.8946 20.5196 22.7071 20.7071C22.5196 20.8947 22.2652 21 22 21H21V22C21 22.2652 20.8946 22.5196 20.7071 22.7071C20.5196 22.8947 20.2652 23 20 23C19.7348 23 19.4804 22.8947 19.2929 22.7071C19.1054 22.5196 19 22.2652 19 22V21H18C17.7348 21 17.4804 20.8947 17.2929 20.7071C17.1054 20.5196 17 20.2652 17 20C17 19.7348 17.1054 19.4804 17.2929 19.2929C17.4804 19.1054 17.7348 19 18 19ZM21.6 15C21.4713 14.9738 21.349 14.9224 21.2402 14.8489C21.1313 14.7754 21.038 14.6812 20.9656 14.5716C20.8931 14.462 20.843 14.3392 20.818 14.2103C20.793 14.0813 20.7937 13.9487 20.82 13.82C21.2104 11.9238 20.979 9.95224 20.1601 8.19798C19.3412 6.44372 17.9785 5.00029 16.2741 4.08194C14.5698 3.16359 12.6148 2.81929 10.6993 3.10014C8.78381 3.38099 7.00992 4.27203 5.64097 5.64097C4.27202 7.00992 3.38099 8.78381 3.10014 10.6993C2.81929 12.6148 3.16359 14.5698 4.08194 16.2741C5.00028 17.9785 6.44372 19.3412 8.19798 20.1601C9.95224 20.979 11.9238 21.2104 13.82 20.82C14.0852 20.767 14.3606 20.8215 14.5857 20.9715C14.8107 21.1215 14.967 21.3548 15.02 21.62C15.073 21.8852 15.0186 22.1606 14.8685 22.3857C14.7185 22.6107 14.4852 22.767 14.22 22.82C13.4882 22.9564 12.7442 23.0167 12 23C9.82441 23 7.69767 22.3549 5.88873 21.1462C4.07979 19.9375 2.66989 18.2195 1.83733 16.2095C1.00477 14.1995 0.786929 11.9878 1.21137 9.85401C1.6358 7.72022 2.68345 5.76021 4.22183 4.22183C5.76021 2.68345 7.72022 1.63581 9.85401 1.21137C11.9878 0.786934 14.1995 1.00477 16.2095 1.83733C18.2195 2.6699 19.9375 4.07979 21.1462 5.88873C22.3549 7.69768 23 9.82441 23 12C23.0021 12.7389 22.9284 13.4761 22.78 14.2C22.7561 14.3305 22.7064 14.4549 22.6338 14.5661C22.5613 14.6772 22.4674 14.7727 22.3576 14.8472C22.2478 14.9217 22.1242 14.9735 21.9942 14.9997C21.8641 15.026 21.7301 15.0261 21.6 15Z" fill="#5C5C5C"/>
<path d="M13 11.4226L15.0981 12.6336C15.212 12.6992 15.3117 12.7866 15.3918 12.8908C15.4718 12.995 15.5305 13.1139 15.5646 13.2408C15.5986 13.3677 15.6073 13.5001 15.5902 13.6304C15.5731 13.7606 15.5305 13.8863 15.4648 14C15.3991 14.1138 15.3117 14.2136 15.2074 14.2935C15.1032 14.3735 14.9842 14.4322 14.8573 14.4662C14.7304 14.5001 14.598 14.5088 14.4677 14.4916C14.3375 14.4744 14.2119 14.4317 14.0981 14.366L11.5 12.866C11.3479 12.7782 11.2217 12.652 11.1339 12.4999C11.0461 12.3478 11 12.1754 11 11.9998V6.99979C11 6.73457 11.1054 6.48022 11.2929 6.29268C11.4804 6.10514 11.7348 5.99979 12 5.99979C12.2652 5.99979 12.5196 6.10514 12.7071 6.29268C12.8946 6.48022 13 6.73457 13 6.99979V11.4226Z" fill="#5C5C5C"/>
</svg>
