<svg width="24" height="24" viewBox="0 0 24 24" fill="none" xmlns="http://www.w3.org/2000/svg">
<path d="M7.20515 20.241L14.4321 11.9412C14.717 11.6139 15.1785 11.5193 15.6002 11.6215C16.1753 11.7608 16.7752 11.7825 17.3635 11.6823C18.1921 11.5412 18.9625 11.1642 19.5822 10.5964C20.202 10.0287 20.6448 9.29429 20.8576 8.48133C21.0704 7.66836 21.0442 6.81128 20.7821 6.01283L18.7318 8.06346C18.3413 8.454 17.7082 8.45407 17.3177 8.06362L15.9364 6.68281C15.5452 6.29175 15.5458 5.6574 15.9377 5.26707L17.9953 3.21782C17.1966 2.9558 16.3392 2.92959 15.526 3.14235C14.7128 3.3551 13.9782 3.79778 13.4103 4.41734C12.8424 5.03689 12.4652 5.80703 12.324 6.63544C12.2239 7.2232 12.2455 7.8226 12.3847 8.39718C12.4869 8.8193 12.3921 9.28119 12.0643 9.56614L3.75371 16.7906C3.31777 17.1917 3.05066 17.7434 3.0065 18.334C2.96234 18.9246 3.14444 19.5098 3.5159 19.9712C3.66097 20.171 3.83667 20.3466 4.03651 20.4916L4.06607 20.5109C4.52746 20.8681 5.10583 21.0398 5.68744 20.9922C6.26905 20.9447 6.81182 20.6813 7.20901 20.2539L7.20515 20.241ZM4.63424 17.8701C4.78206 17.7225 4.97033 17.622 5.17528 17.5813C5.38022 17.5406 5.59263 17.5616 5.78565 17.6415C5.97867 17.7215 6.14364 17.8569 6.2597 18.0306C6.37577 18.2043 6.43771 18.4085 6.43771 18.6174C6.43771 18.8262 6.37577 19.0304 6.2597 19.2041C6.14364 19.3778 5.97867 19.5132 5.78565 19.5932C5.59263 19.6732 5.38022 19.6941 5.17528 19.6535C4.97033 19.6128 4.78206 19.5123 4.63424 19.3646C4.5354 19.267 4.45687 19.1507 4.4032 19.0225C4.34953 18.8944 4.32177 18.7568 4.32153 18.6179C4.32129 18.479 4.34858 18.3413 4.40181 18.213C4.45504 18.0847 4.53316 17.9681 4.63167 17.8701H4.63424Z" fill="#5C5C5C"/>
</svg>
