<svg width="24" height="24" viewBox="0 0 24 24" fill="none" xmlns="http://www.w3.org/2000/svg">
<path d="M16.626 16.626C17.0164 16.2356 17.6495 16.2358 18.04 16.626L20.707 19.293C21.0976 19.6835 21.0976 20.3165 20.707 20.707C20.3165 21.0976 19.6835 21.0976 19.293 20.707L16.626 18.04C16.2358 17.6495 16.2356 17.0164 16.626 16.626ZM16.333 10.667C16.333 7.53749 13.7965 5.00018 10.667 5C7.53738 5 5 7.53738 5 10.667C5.00018 13.7965 7.53749 16.333 10.667 16.333C13.7963 16.3328 16.3328 13.7963 16.333 10.667ZM18.333 10.667C18.3328 14.9009 14.9009 18.3328 10.667 18.333C6.43292 18.333 3.00018 14.901 3 10.667C3 6.43281 6.43281 3 10.667 3C14.901 3.00018 18.333 6.43292 18.333 10.667Z" fill="#5C5C5C"/>
</svg>
