<svg width="24" height="24" viewBox="0 0 24 24" fill="none" xmlns="http://www.w3.org/2000/svg">
<path d="M9.93222 23.746L6.42555 20.0154C6.34437 19.9313 6.27975 19.831 6.23545 19.7202C6.19114 19.6093 6.16805 19.4902 6.16751 19.3698C6.16638 19.3626 6.16638 19.3552 6.16751 19.3479C6.16636 19.3402 6.16636 19.3323 6.16751 19.3246C6.16841 19.2043 6.19166 19.0853 6.23594 18.9745C6.28022 18.8637 6.34466 18.7633 6.42555 18.6791L9.93222 14.9526C10.0111 14.8639 10.1059 14.7929 10.211 14.7438C10.3162 14.6947 10.4295 14.6685 10.5444 14.6668C10.6592 14.665 10.7732 14.6877 10.8797 14.7336C10.9861 14.7794 11.0828 14.8474 11.1641 14.9337C11.2453 15.0199 11.3095 15.1226 11.3528 15.2356C11.396 15.3486 11.4175 15.4697 11.416 15.5917C11.4144 15.7137 11.3899 15.8341 11.3438 15.9459C11.2977 16.0576 11.231 16.1584 11.1476 16.2423L9.07297 18.4392H15.9728C16.201 18.4392 16.4199 18.5356 16.5813 18.707C16.7426 18.8784 16.8333 19.1109 16.8333 19.3534C16.8333 19.5958 16.7426 19.8284 16.5813 19.9998C16.4199 20.1712 16.201 20.2675 15.9728 20.2675H9.09103L11.1476 22.4604C11.3012 22.6332 11.3854 22.8628 11.3821 23.1004C11.3789 23.3381 11.2885 23.565 11.1302 23.733C10.9719 23.901 10.7582 23.9967 10.5345 23.9999C10.3108 24.0031 10.0947 23.9135 9.93222 23.7501V23.746Z" fill="#5C5C5C"/>
<path fill-rule="evenodd" clip-rule="evenodd" d="M6.83331 0H16.8333C17.1869 0 17.5261 0.140476 17.7761 0.390524C18.0262 0.640573 18.1666 0.979711 18.1666 1.33333V3.33333C18.1666 3.68696 18.0262 4.02609 17.7761 4.27614C17.5261 4.52619 17.1869 4.66667 16.8333 4.66667H16.1666C15.7985 4.66667 15.5 4.96514 15.5 5.33333V6.66667C15.5 7.37391 15.219 8.05219 14.7189 8.55228C14.2188 9.05238 13.5406 9.33333 12.8333 9.33333H8.83331C8.12607 9.33333 7.44779 9.05238 6.94769 8.55228C6.4476 8.05219 6.16665 7.37391 6.16665 6.66667V0.666667C6.16665 0.489856 6.23688 0.320286 6.36191 0.195262C6.48693 0.0702379 6.6565 0 6.83331 0ZM15.5 2.66667V2C15.5 1.63181 15.7985 1.33333 16.1666 1.33333C16.5348 1.33333 16.8333 1.63181 16.8333 2V2.66667C16.8333 3.03486 16.5348 3.33333 16.1666 3.33333C15.7985 3.33333 15.5 3.03486 15.5 2.66667Z" fill="#5C5C5C"/>
<path d="M5.49998 10.6667H16.1666C16.5348 10.6667 16.8333 10.9651 16.8333 11.3333C16.8333 11.7015 16.5348 12 16.1666 12H5.49998C5.13179 12 4.83331 11.7015 4.83331 11.3333C4.83331 10.9651 5.13179 10.6667 5.49998 10.6667Z" fill="#5C5C5C"/>
</svg>
