<svg width="24" height="24" viewBox="0 0 24 24" fill="none" xmlns="http://www.w3.org/2000/svg">
<path fill-rule="evenodd" clip-rule="evenodd" d="M6.25 5H17.5C17.8978 5 18.2794 5.16389 18.5607 5.45561C18.842 5.74733 19 6.143 19 6.55556V8.88889C19 9.30145 18.842 9.69711 18.5607 9.98883C18.2794 10.2806 17.8978 10.4444 17.5 10.4444H16.75C16.3358 10.4444 16 10.7927 16 11.2222V12.7778C16 13.6029 15.6839 14.3942 15.1213 14.9777C14.5587 15.5611 13.7956 15.8889 13 15.8889H8.5C7.70435 15.8889 6.94129 15.5611 6.37868 14.9777C5.81607 14.3942 5.5 13.6029 5.5 12.7778V5.77778C5.5 5.5715 5.57902 5.37367 5.71967 5.22781C5.86032 5.08194 6.05109 5 6.25 5ZM16 8.11111V7.33333C16 6.90378 16.3358 6.55556 16.75 6.55556C17.1642 6.55556 17.5 6.90378 17.5 7.33333V8.11111C17.5 8.54067 17.1642 8.88889 16.75 8.88889C16.3358 8.88889 16 8.54067 16 8.11111Z" fill="#5C5C5C"/>
<path d="M4.75 17.4444H16.75C17.1642 17.4444 17.5 17.7927 17.5 18.2222C17.5 18.6518 17.1642 19 16.75 19H4.75C4.33579 19 4 18.6518 4 18.2222C4 17.7927 4.33579 17.4444 4.75 17.4444Z" fill="#5C5C5C"/>
</svg>
