<svg width="24" height="24" viewBox="0 0 24 24" fill="none" xmlns="http://www.w3.org/2000/svg">
<path fill-rule="evenodd" clip-rule="evenodd" d="M6.83334 0H16.8333C17.187 0 17.5261 0.140476 17.7762 0.390524C18.0262 0.640573 18.1667 0.979711 18.1667 1.33333V3.33333C18.1667 3.68696 18.0262 4.02609 17.7762 4.27614C17.5261 4.52619 17.187 4.66667 16.8333 4.66667H16.1667C15.7985 4.66667 15.5 4.96514 15.5 5.33333V6.66667C15.5 7.37391 15.2191 8.05219 14.719 8.55228C14.2189 9.05238 13.5406 9.33333 12.8333 9.33333H8.83334C8.1261 9.33333 7.44782 9.05238 6.94773 8.55228C6.44763 8.05219 6.16668 7.37391 6.16668 6.66667V0.666667C6.16668 0.489856 6.23691 0.320286 6.36194 0.195262C6.48696 0.0702379 6.65653 0 6.83334 0ZM15.5 2.66667V2C15.5 1.63181 15.7985 1.33333 16.1667 1.33333C16.5349 1.33333 16.8333 1.63181 16.8333 2V2.66667C16.8333 3.03486 16.5349 3.33333 16.1667 3.33333C15.7985 3.33333 15.5 3.03486 15.5 2.66667Z" fill="#5C5C5C"/>
<path d="M5.50001 10.6667H16.1667C16.5349 10.6667 16.8333 10.9651 16.8333 11.3333C16.8333 11.7015 16.5349 12 16.1667 12H5.50001C5.13182 12 4.83334 11.7015 4.83334 11.3333C4.83334 10.9651 5.13182 10.6667 5.50001 10.6667Z" fill="#5C5C5C"/>
<path d="M13.0678 23.746L16.5744 20.0154C16.6556 19.9313 16.7202 19.831 16.7645 19.7202C16.8088 19.6093 16.8319 19.4902 16.8325 19.3698C16.8336 19.3626 16.8336 19.3552 16.8325 19.3479C16.8336 19.3402 16.8336 19.3323 16.8325 19.3246C16.8316 19.2043 16.8083 19.0853 16.764 18.9745C16.7198 18.8637 16.6553 18.7633 16.5744 18.6791L13.0678 14.9526C12.9889 14.8639 12.8941 14.7929 12.7889 14.7438C12.6838 14.6947 12.5705 14.6685 12.4556 14.6668C12.3408 14.665 12.2268 14.6877 12.1203 14.7336C12.0139 14.7794 11.9172 14.8474 11.8359 14.9337C11.7547 15.0199 11.6905 15.1226 11.6472 15.2356C11.604 15.3486 11.5825 15.4697 11.584 15.5917C11.5855 15.7137 11.6101 15.8341 11.6562 15.9459C11.7023 16.0576 11.769 16.1584 11.8524 16.2423L13.927 18.4392H7.02722C6.79899 18.4392 6.58011 18.5356 6.41872 18.707C6.25734 18.8784 6.16668 19.1109 6.16668 19.3534C6.16668 19.5958 6.25734 19.8284 6.41872 19.9998C6.58011 20.1712 6.79899 20.2675 7.02722 20.2675H13.909L11.8524 22.4604C11.6988 22.6332 11.6146 22.8628 11.6179 23.1004C11.6211 23.3381 11.7115 23.565 11.8698 23.733C12.0281 23.901 12.2418 23.9967 12.4655 23.9999C12.6892 24.0031 12.9053 23.9135 13.0678 23.7501V23.746Z" fill="#5C5C5C"/>
</svg>
