<svg width="24" height="24" viewBox="0 0 24 24" fill="none" xmlns="http://www.w3.org/2000/svg">
<path fill-rule="evenodd" clip-rule="evenodd" d="M15.2 18.05C14.7858 18.05 14.45 17.7142 14.45 17.3V14.8C14.45 14.3858 14.7858 14.05 15.2 14.05C15.6142 14.05 15.95 14.3858 15.95 14.8V17.3C15.95 17.7142 15.6142 18.05 15.2 18.05Z" fill="#5C5C5C"/>
<path fill-rule="evenodd" clip-rule="evenodd" d="M15.2 20C14.7858 20 14.45 19.6642 14.45 19.25C14.45 18.8358 14.7858 18.5 15.2 18.5C15.6142 18.5 15.95 18.8358 15.95 19.25C15.95 19.6642 15.6142 20 15.2 20Z" fill="#5C5C5C"/>
<path fill-rule="evenodd" clip-rule="evenodd" d="M9.95001 10.75V6.25C9.95001 5.83579 10.2858 5.5 10.7 5.5C11.1142 5.5 11.45 5.83579 11.45 6.25V11C11.45 11.6904 10.8904 12.25 10.2 12.25H7.45001C7.0358 12.25 6.70001 11.9142 6.70001 11.5C6.70001 11.0858 7.0358 10.75 7.45001 10.75H9.95001Z" fill="#5C5C5C"/>
<path fill-rule="evenodd" clip-rule="evenodd" d="M7.97287 19.2201C8.11524 19.2565 8.25859 19.2894 8.40278 19.3187L7.84536 20.1947C7.20989 21.1933 7.92721 22.5 9.11085 22.5H21.2892C22.4728 22.5 23.1901 21.1933 22.5547 20.1947L18.5393 13.8848C18.7524 13.3598 18.9144 12.8184 19.0247 12.2677C19.2684 11.0513 19.2593 9.79033 18.9895 8.56462C18.574 6.6778 17.5624 4.97476 16.1042 3.70732C14.646 2.43988 12.8187 1.67531 10.8924 1.52668C8.9661 1.37805 7.04311 1.85324 5.40775 2.88199C3.7724 3.91074 2.51151 5.43843 1.81151 7.23918C1.11151 9.03993 1.00957 11.0181 1.52076 12.8813C2.03195 14.7445 3.12914 16.3937 4.65008 17.5851C5.63811 18.359 6.77089 18.9131 7.97287 19.2201ZM9.58768 17.4567C8.24413 17.3385 6.96011 16.8332 5.8935 15.9977C4.71331 15.0733 3.86194 13.7935 3.46527 12.3478C3.06861 10.9021 3.14771 9.36705 3.69088 7.96974C4.23405 6.57243 5.21245 5.38701 6.48142 4.58874C7.75038 3.79047 9.24255 3.42174 10.7373 3.53708C12.232 3.65241 13.6499 4.24568 14.7814 5.22916C15.9129 6.21265 16.6979 7.53414 17.0203 8.99823C17.2107 9.86304 17.2337 10.7505 17.0942 11.614L16.4655 10.626C15.8761 9.69975 14.5239 9.69976 13.9345 10.626L9.58768 17.4567ZM10.0217 20.5L15.2 12.3626L20.3783 20.5H10.0217Z" fill="#5C5C5C"/>
</svg>
