<svg width="24" height="24" viewBox="0 0 24 24" fill="none" xmlns="http://www.w3.org/2000/svg">
<path fill-rule="evenodd" clip-rule="evenodd" d="M10.9992 11.1198C10.9973 11.1178 11.001 11.1217 10.9992 11.1198V11.1198Z" fill="#5C5C5C"/>
<path fill-rule="evenodd" clip-rule="evenodd" d="M8.5 8.5L10.9992 11.1198C11.1756 11.3055 11.275 11.5528 11.275 11.8093V12.2015C11.275 12.4578 11.1766 12.7043 11 12.8902L7.53 16.2534C7.31813 16.4764 7.2 16.7722 7.2 17.0799V18.6C7.2 19.2627 7.73726 19.8 8.4 19.8L11 19.8L13 19.8L15.6 19.8C16.2627 19.8 16.8 19.2627 16.8 18.6V17.0799C16.8 16.7722 16.6819 16.4764 16.47 16.2534L13 12.8902C12.8234 12.7043 12.725 12.4578 12.725 12.2014V11.7284C12.725 11.4718 12.8237 11.2253 13 11.0397C13.0059 11.0335 13.0118 11.0274 13.0179 11.0213L15.5 8.5C16.193 7.80704 15.7386 6.9 14.7586 6.9H13H11H9.23593C8.26461 6.9 7.82452 7.802 8.5 8.5Z" fill="#5C5C5C"/>
<path fill-rule="evenodd" clip-rule="evenodd" d="M8 2C6.34315 2 5 3.34315 5 5V7.17157C5 7.96722 5.31607 8.73028 5.87868 9.29289L8.58579 12L5.87868 14.7071C5.31607 15.2697 5 16.0328 5 16.8284V19C5 20.6569 6.34315 22 8 22H12H16C17.6569 22 19 20.6569 19 19V16.8284C19 16.0328 18.6839 15.2697 18.1213 14.7071L15.4142 12L18.1213 9.29289C18.6839 8.73028 19 7.96722 19 7.17157V5C19 3.34315 17.6569 2 16 2H12H8ZM8 4H12H16C16.5523 4 17 4.44772 17 5V7.17157C17 7.43679 16.8946 7.69114 16.7071 7.87868L13.6464 10.9393C13.0607 11.5251 13.0607 12.4749 13.6464 13.0607L16.7071 16.1213C16.8946 16.3089 17 16.5632 17 16.8284V19C17 19.5523 16.5523 20 16 20H12H8C7.44772 20 7 19.5523 7 19V16.8284C7 16.5632 7.10536 16.3089 7.29289 16.1213L10.3536 13.0607C10.9393 12.4749 10.9393 11.5251 10.3536 10.9393L7.29289 7.87868C7.10536 7.69114 7 7.43679 7 7.17157V5C7 4.44772 7.44772 4 8 4Z" fill="#5C5C5C"/>
</svg>
