<svg width="24" height="24" viewBox="0 0 24 24" fill="none" xmlns="http://www.w3.org/2000/svg">
<path d="M6.83658 19.6135C6.69051 19.4709 6.57866 19.297 6.50943 19.105C6.4402 18.9129 6.4154 18.7076 6.43687 18.5046L7.14105 11.0932C7.14301 11.0725 7.13191 11.0527 7.1133 11.0434C6.50297 10.7375 5.99493 10.26 5.65185 9.66921C5.30297 9.06843 5.14038 8.37757 5.1847 7.68425C5.1847 5.69456 6.40504 4.002 7.95434 4.002C9.50365 4.002 10.7081 5.69456 10.7081 7.68425C10.7542 8.37636 10.594 9.06661 10.2477 9.66762C9.90711 10.2587 9.40161 10.7373 8.7934 11.0451C8.7749 11.0545 8.76388 11.0742 8.76582 11.0948L9.46297 18.5046C9.48412 18.7068 9.45942 18.9112 9.3907 19.1026C9.32199 19.2939 9.21103 19.4674 9.06608 19.6099C8.92112 19.7525 8.7459 19.8606 8.55342 19.9261C8.36296 19.991 8.16046 20.0125 7.96067 19.9892C7.95647 19.9887 7.95222 19.9888 7.94803 19.9893C7.89148 19.9965 7.83449 19.9998 7.77748 19.9991C7.42568 19.9976 7.08826 19.8593 6.83658 19.6135ZM14.2953 19.6122C14.2956 19.6124 14.2963 19.6116 14.2961 19.6113C14.1521 19.4685 14.0419 19.2953 13.9737 19.1043C13.9051 18.9123 13.8806 18.7073 13.9022 18.5046L14.5915 11.109C14.5938 11.0843 14.5775 11.0616 14.5534 11.0553C14.0566 10.9258 13.6248 10.6164 13.3425 10.1864C13.0522 9.74424 12.9418 9.20791 13.0338 8.68705L13.4441 4.39286C13.4689 4.14526 13.5997 4.00377 13.8332 4.00377C13.8857 3.9982 13.9387 4.00443 13.9885 4.02202C14.0382 4.0396 14.0834 4.06809 14.1207 4.10539C14.158 4.1427 14.1865 4.18787 14.2041 4.23761C14.2216 4.28736 14.2279 4.3404 14.2223 4.39286V7.98137C14.2184 8.03681 14.2264 8.09244 14.2458 8.14452C14.2652 8.1966 14.2955 8.24392 14.3347 8.2833C14.3739 8.32268 14.4211 8.3532 14.4731 8.37281C14.5251 8.39243 14.5807 8.40067 14.6362 8.397C14.6913 8.39935 14.7464 8.39019 14.7979 8.3701C14.8493 8.35 14.8961 8.31941 14.9351 8.28027C14.9733 8.24093 15.0028 8.19399 15.0217 8.14249C15.0406 8.091 15.0484 8.0361 15.0447 7.98137V4.39286C15.0447 4.28967 15.0857 4.1907 15.1587 4.11773C15.2316 4.04476 15.3306 4.00377 15.4338 4.00377C15.537 4.00377 15.636 4.04476 15.7089 4.11773C15.7819 4.1907 15.8229 4.28967 15.8229 4.39286V7.98137C15.8187 8.03614 15.8263 8.09116 15.8453 8.14273C15.8642 8.19429 15.8939 8.2412 15.9325 8.28027C15.9711 8.31945 16.0175 8.35009 16.0687 8.37019C16.1199 8.3903 16.1747 8.39943 16.2297 8.397C16.285 8.40086 16.3405 8.39274 16.3924 8.37321C16.4442 8.35368 16.4913 8.32318 16.5303 8.28381C16.5697 8.24432 16.6003 8.19698 16.6201 8.14486C16.6399 8.09275 16.6485 8.03704 16.6453 7.98137V4.39286C16.6394 4.34026 16.6455 4.28702 16.6629 4.23705C16.6804 4.18709 16.7088 4.14168 16.7462 4.10417C16.7835 4.06666 16.8288 4.03801 16.8787 4.02033C16.927 4.00318 16.9785 3.99677 17.0296 4.00152C17.0328 4.00182 17.036 4.00185 17.0392 4.00162C17.0895 3.998 17.14 4.00518 17.1874 4.02271C17.2362 4.04079 17.2805 4.06944 17.317 4.10661C17.3535 4.14379 17.3813 4.18856 17.3985 4.23774C17.4152 4.28541 17.4214 4.33607 17.4169 4.38633C17.4166 4.3895 17.4166 4.39269 17.4168 4.39586L17.7914 8.68174C17.8831 9.20536 17.7702 9.74423 17.4759 10.1869C17.1898 10.6175 16.7534 10.9251 16.2529 11.0503C16.2286 11.0564 16.212 11.0792 16.2144 11.1042L16.9177 18.5064C16.937 18.6949 16.9165 18.8854 16.8575 19.0656C16.7986 19.2457 16.7025 19.4115 16.5755 19.5522C16.4485 19.6929 16.2934 19.8054 16.1202 19.8823C15.947 19.9593 15.7595 19.9991 15.57 19.9991C15.5176 19.9993 15.4652 19.9966 15.4131 19.9909C15.4092 19.9905 15.4053 19.9905 15.4015 19.9909C15.201 20.0142 14.9978 19.9925 14.8068 19.9273C14.6149 19.8618 14.4401 19.7541 14.2953 19.6122C14.2951 19.612 14.295 19.612 14.2953 19.6122Z" fill="#5C5C5C"/>
</svg>
