<svg width="24" height="24" viewBox="0 0 24 24" fill="none" xmlns="http://www.w3.org/2000/svg">
<path d="M9.93235 23.746L6.42588 20.0156C6.3447 19.9316 6.28009 19.8312 6.23579 19.7204C6.19149 19.6096 6.1684 19.4905 6.16786 19.3701C6.16673 19.3628 6.16673 19.3554 6.16786 19.3482C6.1667 19.3405 6.1667 19.3326 6.16786 19.3249C6.16875 19.2045 6.19201 19.0856 6.23628 18.9748C6.28056 18.864 6.34499 18.7636 6.42588 18.6794L9.93235 14.9531C10.0112 14.8644 10.106 14.7934 10.2112 14.7444C10.3163 14.6953 10.4296 14.6691 10.5445 14.6673C10.6593 14.6655 10.7733 14.6882 10.8798 14.7341C10.9862 14.7799 11.0829 14.848 11.1641 14.9342C11.2454 15.0204 11.3095 15.1231 11.3528 15.2361C11.3961 15.3491 11.4176 15.4702 11.416 15.5922C11.4145 15.7141 11.39 15.8346 11.3438 15.9463C11.2977 16.0581 11.231 16.1588 11.1476 16.2427L9.07315 18.4396H15.9726C16.2008 18.4396 16.4197 18.5359 16.581 18.7073C16.7424 18.8787 16.8331 19.1112 16.8331 19.3537C16.8331 19.5961 16.7424 19.8286 16.581 20C16.4197 20.1714 16.2008 20.2677 15.9726 20.2677H9.09121L11.1476 22.4605C11.3013 22.6332 11.3854 22.8628 11.3822 23.1005C11.3789 23.3381 11.2886 23.565 11.1303 23.733C10.972 23.901 10.7583 23.9967 10.5346 23.9999C10.3109 24.0031 10.0948 23.9135 9.93235 23.7501V23.746Z" fill="#5C5C5C"/>
<path d="M7.56639 13.0119C7.44318 12.893 7.34883 12.7481 7.29044 12.5881C7.23205 12.4281 7.21112 12.257 7.22924 12.0878L7.78152 6.34549C7.80823 6.06774 7.6546 5.80862 7.42532 5.64958C7.07641 5.40755 6.783 5.09277 6.56706 4.72543C6.27278 4.2248 6.13563 3.64912 6.17302 3.07138C6.17302 1.4134 7.20238 0.00301646 8.50923 0.00301646C9.81608 0.00301646 10.832 1.4134 10.832 3.07138C10.8709 3.64811 10.7358 4.22329 10.4437 4.7241C10.2291 5.09207 9.93677 5.40774 9.58873 5.65084C9.36095 5.80993 9.20845 6.06802 9.23479 6.34461L9.78176 12.0878C9.7996 12.2564 9.77877 12.4267 9.72081 12.5861C9.66285 12.7456 9.56926 12.8901 9.44699 13.0089C9.32471 13.1277 9.17691 13.2178 9.01456 13.2724C8.87874 13.3181 8.73565 13.338 8.59283 13.3313C8.53717 13.3287 8.48134 13.3291 8.4257 13.3319C8.40384 13.333 8.38195 13.3335 8.36005 13.3332C8.0633 13.3319 7.77868 13.2167 7.56639 13.0119Z" fill="#5C5C5C"/>
<path d="M13.8579 13.0108C13.7364 12.8919 13.6441 12.7467 13.5866 12.5876C13.5287 12.4276 13.5081 12.2568 13.5263 12.0878L14.0565 6.46749C14.0878 6.13605 13.8594 5.84332 13.5776 5.66615C13.3704 5.53588 13.1914 5.36282 13.0542 5.15639C12.8093 4.78795 12.7162 4.34103 12.7938 3.90701L13.1399 0.328717C13.1608 0.122391 13.2712 0.00449022 13.4681 0.00449022C13.5123 -0.000151718 13.5571 0.0050439 13.599 0.0196965C13.641 0.0343491 13.6791 0.0580877 13.7106 0.0891733C13.742 0.120259 13.7661 0.157905 13.7809 0.199353C13.7957 0.240801 13.801 0.285001 13.7963 0.328717V3.31898C13.793 3.36517 13.7997 3.41152 13.8161 3.45492C13.8325 3.49832 13.858 3.53775 13.8911 3.57057C13.9242 3.60338 13.964 3.62881 14.0079 3.64516C14.0517 3.6615 14.0986 3.66837 14.1454 3.66531C14.1919 3.66727 14.2384 3.65964 14.2818 3.64289C14.3252 3.62615 14.3646 3.60066 14.3975 3.56804C14.4297 3.53526 14.4546 3.49615 14.4706 3.45323C14.4865 3.41032 14.4931 3.36458 14.49 3.31898V0.328717C14.49 0.242727 14.5246 0.160259 14.5861 0.0994542C14.6477 0.0386498 14.7312 0.00449022 14.8182 0.00449022C14.9052 0.00449022 14.9887 0.0386498 15.0503 0.0994542C15.1118 0.160259 15.1464 0.242727 15.1464 0.328717V3.31898C15.1429 3.36461 15.1493 3.41046 15.1653 3.45343C15.1812 3.4964 15.2063 3.53548 15.2389 3.56804C15.2714 3.60069 15.3106 3.62622 15.3537 3.64297C15.3969 3.65973 15.4432 3.66734 15.4895 3.66531C15.5362 3.66853 15.583 3.66176 15.6267 3.64549C15.6705 3.62921 15.7102 3.6038 15.7431 3.57099C15.7763 3.53809 15.8021 3.49863 15.8188 3.45521C15.8356 3.41178 15.8428 3.36536 15.8401 3.31898V0.328717C15.8352 0.284886 15.8402 0.240518 15.855 0.198884C15.8697 0.15725 15.8937 0.119411 15.9252 0.0881555C15.9567 0.0568999 15.9949 0.0330248 16.0369 0.0182898C16.059 0.0105545 16.0819 0.00544162 16.1051 0.00300668C16.147 -0.0014001 16.1897 -0.000960111 16.2315 0.00430931C16.254 0.00713429 16.276 0.0124746 16.2974 0.0202718C16.3386 0.0353415 16.3759 0.0592168 16.4067 0.0901917C16.4375 0.121166 16.4609 0.158476 16.4754 0.199455C16.4827 0.220011 16.4876 0.241235 16.4902 0.262735C16.4952 0.305436 16.4924 0.348807 16.4962 0.391634L16.8068 3.90259C16.8842 4.33891 16.789 4.78794 16.5407 5.15685C16.4024 5.36242 16.2225 5.53436 16.0146 5.66335C15.7292 5.84046 15.4972 6.13552 15.5294 6.46987L16.0698 12.0893C16.0861 12.2464 16.0688 12.4052 16.0191 12.5553C15.9694 12.7054 15.8884 12.8436 15.7812 12.9608C15.6741 13.078 15.5432 13.1717 15.3971 13.2359C15.251 13.3 15.0929 13.3332 14.9331 13.3332C14.9129 13.3333 14.8928 13.3328 14.8726 13.3319C14.8215 13.3295 14.7702 13.3297 14.719 13.3324C14.5735 13.3399 14.4276 13.32 14.2893 13.2734C14.1274 13.2188 13.98 13.1291 13.8579 13.0108Z" fill="#5C5C5C"/>
</svg>
