<svg width="24" height="24" viewBox="0 0 24 24" fill="none" xmlns="http://www.w3.org/2000/svg">
<path d="M13.1168 23.746L16.733 20.0156C16.8167 19.9316 16.8834 19.8312 16.9291 19.7204C16.9747 19.6096 16.9986 19.4905 16.9991 19.3701C17.0003 19.3628 17.0003 19.3554 16.9991 19.3482C17.0003 19.3405 17.0003 19.3326 16.9991 19.3249C16.9982 19.2045 16.9742 19.0856 16.9285 18.9748C16.8829 18.864 16.8164 18.7636 16.733 18.6794L13.1168 14.9531C13.0354 14.8644 12.9376 14.7934 12.8292 14.7444C12.7208 14.6953 12.6039 14.6691 12.4855 14.6673C12.367 14.6655 12.2495 14.6882 12.1397 14.7341C12.0299 14.7799 11.9302 14.848 11.8464 14.9342C11.7626 15.0204 11.6964 15.1231 11.6518 15.2361C11.6072 15.3491 11.585 15.4702 11.5866 15.5922C11.5882 15.7141 11.6135 15.8346 11.6611 15.9463C11.7086 16.0581 11.7774 16.1588 11.8634 16.2427L14.0029 18.4396H6.88743C6.65207 18.4396 6.42635 18.5359 6.25992 18.7073C6.0935 18.8787 6 19.1112 6 19.3537C6 19.5961 6.0935 19.8286 6.25992 20C6.42635 20.1714 6.65207 20.2677 6.88743 20.2677H13.9842L11.8634 22.4605C11.705 22.6332 11.6182 22.8628 11.6215 23.1005C11.6249 23.3381 11.7181 23.565 11.8813 23.733C12.0446 23.901 12.265 23.9967 12.4957 23.9999C12.7264 24.0031 12.9492 23.9135 13.1168 23.7501V23.746Z" fill="#5C5C5C"/>
<path d="M13.9317 13.0108C13.8064 12.8919 13.7112 12.7467 13.6519 12.5876C13.5922 12.4276 13.5709 12.2568 13.5897 12.0878L14.1365 6.46749C14.1688 6.13605 13.9333 5.84332 13.6426 5.66615C13.4289 5.53588 13.2443 5.36282 13.1028 5.15639C12.8503 4.78795 12.7542 4.34103 12.8343 3.90701L13.1912 0.328717C13.2127 0.122391 13.3266 0.00449022 13.5297 0.00449022C13.5753 -0.000151718 13.6215 0.0050439 13.6647 0.0196965C13.708 0.0343491 13.7473 0.0580877 13.7797 0.0891733C13.8122 0.120259 13.837 0.157905 13.8523 0.199353C13.8676 0.240801 13.873 0.285001 13.8682 0.328717V3.31898C13.8648 3.36517 13.8717 3.41152 13.8886 3.45492C13.9055 3.49832 13.9318 3.53775 13.9659 3.57057C14.0001 3.60338 14.0411 3.62881 14.0863 3.64516C14.1316 3.6615 14.1799 3.66837 14.2282 3.66531C14.2762 3.66727 14.3241 3.65964 14.3689 3.64289C14.4136 3.62615 14.4543 3.60066 14.4882 3.56804C14.5214 3.53526 14.5471 3.49615 14.5636 3.45323C14.58 3.41032 14.5868 3.36458 14.5836 3.31898V0.328717C14.5836 0.242727 14.6192 0.160259 14.6827 0.0994542C14.7462 0.0386498 14.8323 0.00449022 14.9221 0.00449022C15.0118 0.00449022 15.0979 0.0386498 15.1614 0.0994542C15.2249 0.160259 15.2605 0.242727 15.2605 0.328717V3.31898C15.2569 3.36461 15.2635 3.41046 15.28 3.45343C15.2965 3.4964 15.3223 3.53548 15.3559 3.56804C15.3895 3.60069 15.4298 3.62622 15.4744 3.64297C15.5189 3.65973 15.5666 3.66734 15.6144 3.66531C15.6625 3.66853 15.7108 3.66176 15.7559 3.64549C15.8011 3.62921 15.842 3.6038 15.8759 3.57099C15.9102 3.53809 15.9368 3.49863 15.954 3.45521C15.9713 3.41178 15.9787 3.36536 15.976 3.31898V0.328717C15.9709 0.284886 15.9761 0.240518 15.9913 0.198884C16.0065 0.15725 16.0312 0.119411 16.0637 0.0881555C16.0962 0.0568999 16.1356 0.0330248 16.179 0.0182898C16.2017 0.0105545 16.2253 0.00544162 16.2492 0.00300668C16.2924 -0.0014001 16.3365 -0.000960112 16.3796 0.00430931C16.4028 0.00713429 16.4255 0.0124746 16.4475 0.0202718C16.49 0.0353415 16.5285 0.0592168 16.5603 0.0901917C16.592 0.121166 16.6162 0.158476 16.6312 0.199455C16.6387 0.220011 16.6438 0.241235 16.6464 0.262735C16.6492 0.28592 16.6496 0.309303 16.6501 0.332689C16.6505 0.352374 16.6508 0.372061 16.6526 0.391634L16.9729 3.90259C17.0528 4.33891 16.9545 4.78794 16.6985 5.15685C16.5559 5.36242 16.3703 5.53436 16.156 5.66335C15.8616 5.84046 15.6223 6.13552 15.6555 6.46987L16.2129 12.0893C16.2297 12.2464 16.2119 12.4052 16.1606 12.5553C16.1093 12.7054 16.0257 12.8436 15.9152 12.9608C15.8047 13.078 15.6698 13.1717 15.5191 13.2359C15.3685 13.3 15.2054 13.3332 15.0405 13.3332C15.0197 13.3333 14.999 13.3328 14.9782 13.3319C14.9254 13.3295 14.8725 13.3297 14.8198 13.3324C14.6697 13.3399 14.5193 13.32 14.3766 13.2734C14.2097 13.2188 14.0576 13.1291 13.9317 13.0108Z" fill="#5C5C5C"/>
<path d="M7.44321 13.0119C7.31614 12.893 7.21884 12.7481 7.15862 12.5881C7.0984 12.4281 7.07682 12.257 7.0955 12.0878L7.66508 6.34549C7.69263 6.06774 7.53418 5.80862 7.29773 5.64958C6.93789 5.40755 6.6353 5.09277 6.4126 4.72543C6.1091 4.2248 5.96766 3.64912 6.00622 3.07138C6.00622 1.4134 7.06781 0.00301646 8.41557 0.00301646C9.76333 0.00301646 10.8111 1.4134 10.8111 3.07138C10.8512 3.64811 10.7119 4.22329 10.4106 4.7241C10.1892 5.09207 9.88781 5.40774 9.52887 5.65084C9.29395 5.80993 9.13668 6.06802 9.16385 6.34461L9.72794 12.0878C9.74634 12.2564 9.72485 12.4267 9.66508 12.5861C9.60531 12.7456 9.50878 12.8901 9.38268 13.0089C9.25658 13.1277 9.10415 13.2178 8.93672 13.2724C8.79664 13.3181 8.64908 13.338 8.50178 13.3313C8.44439 13.3287 8.38681 13.3291 8.32942 13.3319C8.30688 13.333 8.2843 13.3335 8.26172 13.3332C7.95568 13.3319 7.66215 13.2167 7.44321 13.0119Z" fill="#5C5C5C"/>
</svg>
