<svg width="24" height="24" viewBox="0 0 24 24" fill="none" xmlns="http://www.w3.org/2000/svg">
<path fill-rule="evenodd" clip-rule="evenodd" d="M12 2.5C10.1211 2.5 8.28435 3.05717 6.72209 4.10104C5.15982 5.14491 3.94218 6.62861 3.22315 8.36451C2.50412 10.1004 2.31598 12.0105 2.68254 13.8534C3.0491 15.6962 3.95389 17.3889 5.28249 18.7175C6.61109 20.0461 8.30383 20.9509 10.1466 21.3175C11.9895 21.684 13.8996 21.4959 15.6355 20.7769C17.3714 20.0578 18.8551 18.8402 19.899 17.2779C20.9428 15.7156 21.5 13.8789 21.5 12C21.4972 9.4813 20.4954 7.06657 18.7144 5.28558C16.9334 3.50459 14.5187 2.5028 12 2.5ZM12.95 11.4517L14.9432 12.6021C15.0514 12.6644 15.1462 12.7475 15.2222 12.8465C15.2982 12.9455 15.354 13.0585 15.3863 13.179C15.4187 13.2996 15.427 13.4253 15.4107 13.5491C15.3944 13.6728 15.354 13.7921 15.2916 13.9002C15.2292 14.0083 15.1461 14.1031 15.047 14.1791C14.948 14.255 14.835 14.3108 14.7144 14.3431C14.5939 14.3753 14.4681 14.3836 14.3444 14.3672C14.2206 14.3509 14.1013 14.3103 13.9932 14.2479L11.525 12.8229C11.3805 12.7395 11.2606 12.6196 11.1772 12.4751C11.0938 12.3307 11.05 12.1668 11.05 12V7.25C11.05 6.99804 11.1501 6.75641 11.3283 6.57825C11.5064 6.40009 11.748 6.3 12 6.3C12.252 6.3 12.4936 6.40009 12.6718 6.57825C12.8499 6.75641 12.95 6.99804 12.95 7.25V11.4517Z" fill="#5C5C5C"/>
</svg>
