<svg width="24" height="24" viewBox="0 0 24 24" fill="none" xmlns="http://www.w3.org/2000/svg">
<path d="M13.9011 23.7458L17.4078 20.0152C17.4889 19.9312 17.5536 19.8308 17.5979 19.72C17.6422 19.6092 17.6653 19.4901 17.6658 19.3697C17.6669 19.3624 17.6669 19.355 17.6658 19.3477C17.667 19.34 17.667 19.3322 17.6658 19.3244C17.6649 19.2041 17.6417 19.0851 17.5974 18.9744C17.5531 18.8636 17.4887 18.7632 17.4078 18.6789L13.9011 14.9524C13.8222 14.8638 13.7274 14.7928 13.6223 14.7437C13.5171 14.6946 13.4038 14.6684 13.2889 14.6666C13.1741 14.6648 13.0601 14.6875 12.9536 14.7334C12.8472 14.7792 12.7505 14.8473 12.6692 14.9335C12.588 15.0197 12.5238 15.1224 12.4806 15.2354C12.4373 15.3484 12.4158 15.4695 12.4173 15.5915C12.4189 15.7135 12.4434 15.834 12.4895 15.9457C12.5356 16.0574 12.6024 16.1582 12.6858 16.2421L14.7603 18.4391H7.86054C7.63231 18.4391 7.41343 18.5354 7.25205 18.7068C7.09066 18.8783 7 19.1108 7 19.3532C7 19.5957 7.09066 19.8282 7.25205 19.9996C7.41343 20.1711 7.63231 20.2674 7.86054 20.2674H14.7423L12.6858 22.4602C12.5321 22.633 12.448 22.8626 12.4512 23.1003C12.4544 23.3379 12.5448 23.5649 12.7031 23.7328C12.8614 23.9008 13.0751 23.9966 13.2988 23.9998C13.5226 24.0029 13.7386 23.9133 13.9011 23.7499V23.7458Z" fill="#5C5C5C"/>
<path fill-rule="evenodd" clip-rule="evenodd" d="M12.6 5.65371L13.8589 6.38027C13.9272 6.41965 13.987 6.47209 14.0351 6.53461C14.0831 6.59713 14.1183 6.6685 14.1387 6.74463C14.1592 6.82077 14.1644 6.90019 14.1541 6.97835C14.1439 7.05651 14.1183 7.13188 14.0789 7.20015C14.0395 7.26842 13.987 7.32827 13.9244 7.37625C13.8619 7.42424 13.7905 7.45943 13.7144 7.47983C13.6382 7.50022 13.5588 7.5054 13.4806 7.49509C13.4025 7.48478 13.3271 7.45917 13.2589 7.41972L11.7 6.51972C11.6088 6.46706 11.533 6.3913 11.4803 6.30007C11.4277 6.20883 11.4 6.10534 11.4 6V3C11.4 2.84087 11.4632 2.68826 11.5757 2.57574C11.6883 2.46321 11.8409 2.4 12 2.4C12.1591 2.4 12.3117 2.46321 12.4243 2.57574C12.5368 2.68826 12.6 2.84087 12.6 3V5.65371ZM8.66658 1.01118C9.65328 0.351894 10.8133 0 12 0C13.5908 0.00176915 15.1159 0.634478 16.2407 1.75931C17.3655 2.88415 17.9982 4.40924 18 6C18 7.18669 17.6481 8.34672 16.9888 9.33342C16.3295 10.3201 15.3925 11.0891 14.2961 11.5433C13.1997 11.9974 11.9933 12.1162 10.8295 11.8847C9.66557 11.6532 8.59648 11.0818 7.75736 10.2426C6.91825 9.40352 6.3468 8.33443 6.11529 7.17054C5.88378 6.00665 6.0026 4.80025 6.45673 3.7039C6.91085 2.60754 7.67989 1.67047 8.66658 1.01118Z" fill="#5C5C5C"/>
</svg>
