<svg width="24" height="24" viewBox="0 0 24 24" fill="none" xmlns="http://www.w3.org/2000/svg">
<path d="M10.7656 23.7458L7.2589 20.0152C7.17772 19.9312 7.1131 19.8308 7.0688 19.72C7.0245 19.6092 7.00141 19.4901 7.00087 19.3697C6.99974 19.3624 6.99974 19.355 7.00087 19.3477C6.99971 19.34 6.99971 19.3322 7.00087 19.3244C7.00176 19.2041 7.02501 19.0851 7.06929 18.9744C7.11357 18.8636 7.17801 18.7632 7.2589 18.6789L10.7656 14.9524C10.8444 14.8638 10.9393 14.7928 11.0444 14.7437C11.1495 14.6946 11.2629 14.6684 11.3777 14.6666C11.4926 14.6648 11.6066 14.6875 11.713 14.7334C11.8195 14.7792 11.9162 14.8473 11.9974 14.9335C12.0787 15.0197 12.1428 15.1224 12.1861 15.2354C12.2294 15.3484 12.2509 15.4695 12.2493 15.5915C12.2478 15.7135 12.2233 15.834 12.1771 15.9457C12.131 16.0574 12.0643 16.1582 11.9809 16.2421L9.90632 18.4391H16.8061C17.0344 18.4391 17.2532 18.5354 17.4146 18.7068C17.576 18.8783 17.6667 19.1108 17.6667 19.3532C17.6667 19.5957 17.576 19.8282 17.4146 19.9996C17.2532 20.1711 17.0344 20.2674 16.8061 20.2674H9.92438L11.9809 22.4602C12.1346 22.633 12.2187 22.8626 12.2155 23.1003C12.2122 23.3379 12.1219 23.5649 11.9636 23.7328C11.8053 23.9008 11.5916 23.9966 11.3678 23.9998C11.1441 24.0029 10.928 23.9133 10.7656 23.7499V23.7458Z" fill="#5C5C5C"/>
<path fill-rule="evenodd" clip-rule="evenodd" d="M12.6 5.65371L13.8589 6.38027C13.9272 6.41965 13.987 6.47209 14.0351 6.53461C14.0831 6.59713 14.1183 6.6685 14.1387 6.74463C14.1592 6.82077 14.1644 6.90019 14.1541 6.97835C14.1439 7.05651 14.1183 7.13188 14.0789 7.20015C14.0395 7.26842 13.987 7.32827 13.9244 7.37625C13.8619 7.42424 13.7905 7.45943 13.7144 7.47983C13.6382 7.50022 13.5588 7.5054 13.4806 7.49509C13.4025 7.48478 13.3271 7.45917 13.2589 7.41972L11.7 6.51972C11.6088 6.46706 11.533 6.3913 11.4803 6.30007C11.4277 6.20883 11.4 6.10534 11.4 6V3C11.4 2.84087 11.4632 2.68826 11.5757 2.57574C11.6883 2.46321 11.8409 2.4 12 2.4C12.1591 2.4 12.3117 2.46321 12.4243 2.57574C12.5368 2.68826 12.6 2.84087 12.6 3V5.65371ZM8.66658 1.01118C9.65328 0.351894 10.8133 0 12 0C13.5908 0.00176915 15.1159 0.634478 16.2407 1.75931C17.3655 2.88415 17.9982 4.40924 18 6C18 7.18669 17.6481 8.34672 16.9888 9.33342C16.3295 10.3201 15.3925 11.0891 14.2961 11.5433C13.1997 11.9974 11.9933 12.1162 10.8295 11.8847C9.66557 11.6532 8.59648 11.0818 7.75736 10.2426C6.91825 9.40352 6.3468 8.33443 6.11529 7.17054C5.88378 6.00665 6.0026 4.80025 6.45673 3.7039C6.91085 2.60754 7.67989 1.67047 8.66658 1.01118Z" fill="#5C5C5C"/>
</svg>
