<svg width="24" height="24" viewBox="0 0 24 24" fill="none" xmlns="http://www.w3.org/2000/svg">
<path fill-rule="evenodd" clip-rule="evenodd" d="M3 5.63529C3 4.17986 4.17985 3 5.63527 3H18.2612C19.7167 3 20.8965 4.17986 20.8965 5.63529V12.0746C20.8965 12.5338 20.5242 12.9062 20.0649 12.9062C19.6057 12.9062 19.2334 12.5338 19.2334 12.0746V5.63529C19.2334 5.09839 18.7981 4.66314 18.2612 4.66314H5.63527C5.09837 4.66314 4.66313 5.09839 4.66313 5.63529V18.2614C4.66313 18.7983 5.09837 19.2335 5.63527 19.2335H11.9482C12.4075 19.2335 12.7798 19.6058 12.7798 20.0651C12.7798 20.5243 12.4075 20.8967 11.9482 20.8967H5.63527C4.17985 20.8967 3 19.7168 3 18.2614V5.63529ZM5.63527 3.31035C4.35125 3.31035 3.31034 4.35126 3.31034 5.63529V18.2614C3.31034 19.5454 4.35125 20.5863 5.63527 20.5863H11.9482C12.2361 20.5863 12.4695 20.3529 12.4695 20.0651C12.4695 19.7772 12.2361 19.5439 11.9482 19.5439H5.63527C4.92697 19.5439 4.35278 18.9697 4.35278 18.2614V5.63529C4.35278 4.92699 4.92697 4.35279 5.63527 4.35279H18.2612C18.9695 4.35279 19.5437 4.92699 19.5437 5.63529V12.0746C19.5437 12.3624 19.7771 12.5958 20.0649 12.5958C20.3528 12.5958 20.5862 12.3624 20.5862 12.0746V5.63529C20.5862 4.35126 19.5452 3.31035 18.2612 3.31035H5.63527ZM6.60742 8.34088C6.60742 7.88162 6.97972 7.50931 7.43898 7.50931H16.4575C16.9168 7.50931 17.2891 7.88162 17.2891 8.34088C17.2891 8.80014 16.9168 9.17245 16.4575 9.17245H7.43898C6.97972 9.17245 6.60742 8.80014 6.60742 8.34088ZM7.43898 7.81966C7.15112 7.81966 6.91776 8.05302 6.91776 8.34088C6.91776 8.62874 7.15112 8.8621 7.43898 8.8621H16.4575C16.7454 8.8621 16.9787 8.62874 16.9787 8.34088C16.9787 8.05301 16.7454 7.81966 16.4575 7.81966H7.43898ZM6.60742 11.9483C6.60742 11.4891 6.97972 11.1168 7.43898 11.1168H11.5383C11.9976 11.1168 12.3699 11.4891 12.3699 11.9483C12.3699 12.4076 11.9976 12.7799 11.5383 12.7799H7.43898C6.97972 12.7799 6.60742 12.4076 6.60742 11.9483ZM7.43898 11.4271C7.15112 11.4271 6.91776 11.6605 6.91776 11.9483C6.91776 12.2362 7.15112 12.4696 7.43898 12.4696H11.5383C11.8262 12.4696 12.0595 12.2362 12.0595 11.9483C12.0595 11.6605 11.8262 11.4271 11.5383 11.4271H7.43898Z" fill="#5C5C5C"/>
<path d="M3.31034 5.63529C3.31034 4.35126 4.35125 3.31035 5.63527 3.31035H18.2612C19.5452 3.31035 20.5862 4.35126 20.5862 5.63529V12.0746C20.5862 12.3624 20.3528 12.5958 20.0649 12.5958C19.7771 12.5958 19.5437 12.3624 19.5437 12.0746V5.63529C19.5437 4.92699 18.9695 4.35279 18.2612 4.35279H5.63527C4.92697 4.35279 4.35278 4.92699 4.35278 5.63529V18.2614C4.35278 18.9697 4.92697 19.5439 5.63527 19.5439H11.9482C12.2361 19.5439 12.4695 19.7772 12.4695 20.0651C12.4695 20.3529 12.2361 20.5863 11.9482 20.5863H5.63527C4.35125 20.5863 3.31034 19.5454 3.31034 18.2614V5.63529Z" fill="#5C5C5C"/>
<path d="M6.91776 8.34088C6.91776 8.05302 7.15112 7.81966 7.43898 7.81966H16.4575C16.7454 7.81966 16.9787 8.05301 16.9787 8.34088C16.9787 8.62874 16.7454 8.8621 16.4575 8.8621H7.43898C7.15112 8.8621 6.91776 8.62874 6.91776 8.34088Z" fill="#5C5C5C"/>
<path d="M6.91776 11.9483C6.91776 11.6605 7.15112 11.4271 7.43898 11.4271H11.5383C11.8262 11.4271 12.0595 11.6605 12.0595 11.9483C12.0595 12.2362 11.8262 12.4696 11.5383 12.4696H7.43898C7.15112 12.4696 6.91776 12.2362 6.91776 11.9483Z" fill="#5C5C5C"/>
<path fill-rule="evenodd" clip-rule="evenodd" d="M13.2414 17.1207C13.2414 14.9782 14.9782 13.2413 17.1207 13.2413C18.1279 13.2413 19.046 13.6255 19.7354 14.2549L19.7377 14.2554C19.7427 14.2561 19.7505 14.2556 19.7584 14.2526C19.7674 13.9926 19.9815 13.7844 20.2437 13.7844H20.3793C20.7221 13.7844 21 14.0623 21 14.4051V15.6982C21 16.1267 20.6526 16.4741 20.2241 16.4741H18.931C18.5882 16.4741 18.3103 16.1962 18.3103 15.8534V15.8188C18.3103 15.4951 18.5728 15.2327 18.8965 15.2328C18.9138 15.2328 18.9246 15.2283 18.9309 15.2243C18.937 15.2205 18.9405 15.2162 18.9422 15.2132C18.9422 15.2132 18.9396 15.21 18.9373 15.2079C18.464 14.7582 17.8248 14.4827 17.1207 14.4827C15.6638 14.4827 14.4828 15.6638 14.4828 17.1207C14.4828 18.5776 15.6638 19.7586 17.1207 19.7586C18.466 19.7586 19.5763 18.7514 19.7383 17.4501C19.7766 17.1424 20.0294 16.862 20.3793 16.862C20.7145 16.862 21.0174 17.1395 20.9809 17.5077C20.7865 19.4686 19.1326 21 17.1207 21C14.9782 21 13.2414 19.2631 13.2414 17.1207ZM17.1207 13.7586C15.2639 13.7586 13.7586 15.2638 13.7586 17.1207C13.7586 18.9775 15.2639 20.4828 17.1207 20.4828C18.864 20.4828 20.2978 19.1556 20.4662 17.4567C20.4681 17.4379 20.4623 17.4214 20.4482 17.4069C20.433 17.3912 20.4088 17.3793 20.3793 17.3793C20.3293 17.3793 20.2627 17.4247 20.2516 17.514C20.0578 19.071 18.7302 20.2759 17.1207 20.2759C15.3781 20.2759 13.9655 18.8632 13.9655 17.1207C13.9655 15.3781 15.3781 13.9655 17.1207 13.9655C17.9626 13.9655 18.728 14.2956 19.2935 14.8329C19.4742 15.0045 19.5011 15.2445 19.4092 15.4358C19.3204 15.6207 19.1272 15.75 18.8964 15.75C18.8584 15.75 18.8276 15.7808 18.8276 15.8188V15.8534C18.8276 15.9106 18.8739 15.9569 18.931 15.9569H20.2241C20.367 15.9569 20.4828 15.8411 20.4828 15.6982V14.4051C20.4828 14.348 20.4364 14.3017 20.3793 14.3017H20.2749C20.2609 14.5254 20.1022 14.6757 19.941 14.7366C19.7741 14.7996 19.5527 14.7885 19.3873 14.6375C18.7894 14.0913 17.9942 13.7586 17.1207 13.7586Z" fill="#5C5C5C"/>
<path d="M13.7586 17.1207C13.7586 15.2638 15.2639 13.7586 17.1207 13.7586C17.9942 13.7586 18.7894 14.0913 19.3873 14.6375C19.5527 14.7885 19.7741 14.7996 19.941 14.7366C20.1022 14.6757 20.2609 14.5254 20.2749 14.3017H20.3793C20.4364 14.3017 20.4828 14.348 20.4828 14.4051V15.6982C20.4828 15.8411 20.367 15.9569 20.2241 15.9569H18.931C18.8739 15.9569 18.8276 15.9106 18.8276 15.8534V15.8188C18.8276 15.7808 18.8584 15.75 18.8964 15.75C19.1272 15.75 19.3204 15.6207 19.4092 15.4358C19.5011 15.2445 19.4742 15.0045 19.2935 14.8329C18.728 14.2956 17.9626 13.9655 17.1207 13.9655C15.3781 13.9655 13.9655 15.3781 13.9655 17.1207C13.9655 18.8632 15.3781 20.2759 17.1207 20.2759C18.7302 20.2759 20.0578 19.071 20.2516 17.514C20.2627 17.4247 20.3293 17.3793 20.3793 17.3793C20.4088 17.3793 20.433 17.3912 20.4482 17.4069C20.4623 17.4214 20.4681 17.4379 20.4662 17.4567C20.2978 19.1556 18.864 20.4828 17.1207 20.4828C15.2639 20.4828 13.7586 18.9775 13.7586 17.1207Z" fill="#5C5C5C"/>
</svg>
