<svg width="24" height="24" viewBox="0 0 24 24" fill="none" xmlns="http://www.w3.org/2000/svg">
<path d="M6.064 12.9605V14.6438C6.064 15.2138 5.60196 15.6758 5.032 15.6758C4.46204 15.6758 4 15.2138 4 14.6438V10.4242C4 10.1457 4.10873 9.87864 4.30227 9.68172C4.4958 9.48481 4.7583 9.37419 5.032 9.37419H9.1436C9.7235 9.37419 10.1936 9.84429 10.1936 10.4242C10.1936 11.0041 9.7235 11.4742 9.1436 11.4742H7.52L12.7406 16.7858C13.1379 17.19 13.1384 17.8379 12.7418 18.2428C12.3344 18.6586 11.665 18.6592 11.257 18.244L6.064 12.9605ZM14.8564 14.6258C14.2765 14.6258 13.8064 14.1557 13.8064 13.5758C13.8064 12.9959 14.2765 12.5258 14.8564 12.5258H16.48L11.2574 7.21643C10.8588 6.8112 10.8587 6.16123 11.2571 5.75584C11.6653 5.34053 12.3347 5.34053 12.7429 5.75584L17.936 11.0395V9.35619C17.936 8.78623 18.398 8.32419 18.968 8.32419C19.538 8.32419 20 8.78623 20 9.35619V13.5758C20 13.8543 19.8913 14.1214 19.6977 14.3183C19.5042 14.5152 19.2417 14.6258 18.968 14.6258H14.8564Z" fill="#5C5C5C"/>
</svg>
