<svg width="24" height="24" viewBox="0 0 24 24" fill="none" xmlns="http://www.w3.org/2000/svg">
<path d="M7.11111 3.81818C6.75749 3.81818 6.41845 3.96195 6.1684 4.21768C5.91835 4.47342 5.77778 4.82016 5.77778 5.18182V15.9435C6.19062 15.7433 6.64545 15.6364 7.11111 15.6364H18.2222V3.81818H7.11111ZM5.77778 18.8182C5.77778 19.1798 5.91835 19.5266 6.1684 19.7823C6.41845 20.038 6.75749 20.1818 7.11111 20.1818H18.2222V17.4545H7.11111C6.75749 17.4545 6.41845 17.5983 6.1684 17.854C5.91835 18.1098 5.77778 18.4565 5.77778 18.8182ZM20 20.1818C20 20.664 19.8126 21.1264 19.4792 21.4673C19.1458 21.8083 18.6937 22 18.2222 22H7.11111C6.28599 22 5.4949 21.6645 4.91146 21.0678C4.32801 20.4711 4 19.6621 4 18.8182V5.18182C4 4.33795 4.32801 3.52888 4.91146 2.93217C5.4949 2.33547 6.28599 2 7.11111 2H18.2222C18.6937 2 19.1458 2.19169 19.4792 2.53267C19.8126 2.87365 20 3.33597 20 3.81818V20.1818Z" fill="#5C5C5C"/>
<path d="M12 5.63636C12.319 5.63636 12.6134 5.81121 12.7717 6.09446L16.3273 12.4581L16.3681 12.5407C16.5513 12.9619 16.3963 13.4647 15.9965 13.6983C15.5968 13.9319 15.0943 13.8134 14.8325 13.4382L14.7839 13.3601L12 8.37695L9.21615 13.3601C8.97258 13.796 8.42971 13.9474 8.00347 13.6983C7.57723 13.4492 7.42918 12.894 7.67274 12.4581L11.2283 6.09446L11.2934 5.99325C11.4602 5.77 11.7209 5.63636 12 5.63636Z" fill="#5C5C5C"/>
<path d="M14.4891 10.1818L14.5793 10.1863C15.0278 10.2326 15.378 10.6201 15.378 11.0909C15.378 11.5618 15.0278 11.9492 14.5793 11.9956L14.4891 12H9.42222C8.9313 12 8.53333 11.593 8.53333 11.0909C8.53333 10.5888 8.9313 10.1818 9.42222 10.1818H14.4891Z" fill="#5C5C5C"/>
</svg>
