<svg width="24" height="24" viewBox="0 0 24 24" fill="none" xmlns="http://www.w3.org/2000/svg">
<path d="M11.1111 12.9091V7.45455C11.1111 6.95247 11.5091 6.54545 12 6.54545C12.4909 6.54545 12.8889 6.95247 12.8889 7.45455V12.9091C12.8889 13.4112 12.4909 13.8182 12 13.8182C11.5091 13.8182 11.1111 13.4112 11.1111 12.9091Z" fill="#5C5C5C"/>
<path d="M7.11111 3.81818C6.75749 3.81818 6.41845 3.96195 6.1684 4.21768C5.91835 4.47342 5.77778 4.82016 5.77778 5.18182V15.9435C6.19062 15.7433 6.64545 15.6364 7.11111 15.6364H18.2222V3.81818H7.11111ZM5.77778 18.8182C5.77778 19.1798 5.91835 19.5266 6.1684 19.7823C6.41845 20.038 6.75749 20.1818 7.11111 20.1818H18.2222V17.4545H7.11111C6.75749 17.4545 6.41845 17.5983 6.1684 17.854C5.91835 18.1098 5.77778 18.4565 5.77778 18.8182ZM20 20.1818C20 20.664 19.8126 21.1264 19.4792 21.4673C19.1458 21.8083 18.6937 22 18.2222 22H7.11111C6.28599 22 5.4949 21.6645 4.91146 21.0678C4.32801 20.4711 4 19.6621 4 18.8182V5.18182C4 4.33795 4.32801 3.52888 4.91146 2.93217C5.4949 2.33547 6.28599 2 7.11111 2H18.2222C18.6937 2 19.1458 2.19169 19.4792 2.53267C19.8126 2.87365 20 3.33597 20 3.81818V20.1818Z" fill="#5C5C5C"/>
<path d="M14.6667 9.27273C15.1576 9.27273 15.5556 9.67974 15.5556 10.1818C15.5556 10.6839 15.1576 11.0909 14.6667 11.0909H9.33333C8.84241 11.0909 8.44444 10.6839 8.44444 10.1818C8.44444 9.67974 8.84241 9.27273 9.33333 9.27273H14.6667Z" fill="#5C5C5C"/>
</svg>
