<svg width="24" height="24" viewBox="0 0 24 24" fill="none" xmlns="http://www.w3.org/2000/svg">
<path d="M13.7778 12C14.2687 12 14.6667 12.407 14.6667 12.9091C14.6667 13.4112 14.2687 13.8182 13.7778 13.8182H10.2222C9.7313 13.8182 9.33333 13.4112 9.33333 12.9091C9.33333 12.407 9.7313 12 10.2222 12H13.7778Z" fill="#5C5C5C"/>
<path d="M11.1111 12.9091V6.54545C11.1111 6.04338 11.5091 5.63636 12 5.63636C12.4909 5.63636 12.8889 6.04338 12.8889 6.54545V12.9091C12.8889 13.4112 12.4909 13.8182 12 13.8182C11.5091 13.8182 11.1111 13.4112 11.1111 12.9091Z" fill="#5C5C5C"/>
<path d="M14.6667 8.36364V7.45455H9.33333V8.36364C9.33333 8.86571 8.93536 9.27273 8.44444 9.27273C7.95352 9.27273 7.55556 8.86571 7.55556 8.36364V6.54545C7.55556 6.04338 7.95352 5.63636 8.44444 5.63636H15.5556C16.0465 5.63636 16.4444 6.04338 16.4444 6.54545V8.36364C16.4444 8.86571 16.0465 9.27273 15.5556 9.27273C15.0646 9.27273 14.6667 8.86571 14.6667 8.36364Z" fill="#5C5C5C"/>
<path d="M7.11111 3.81818C6.75749 3.81818 6.41845 3.96195 6.1684 4.21768C5.91835 4.47342 5.77778 4.82016 5.77778 5.18182V15.9435C6.19062 15.7433 6.64545 15.6364 7.11111 15.6364H18.2222V3.81818H7.11111ZM5.77778 18.8182C5.77778 19.1798 5.91835 19.5266 6.1684 19.7823C6.41845 20.038 6.75749 20.1818 7.11111 20.1818H18.2222V17.4545H7.11111C6.75749 17.4545 6.41845 17.5983 6.1684 17.854C5.91835 18.1098 5.77778 18.4565 5.77778 18.8182ZM20 20.1818C20 20.664 19.8126 21.1264 19.4792 21.4673C19.1458 21.8083 18.6937 22 18.2222 22H7.11111C6.28599 22 5.4949 21.6645 4.91146 21.0678C4.32801 20.4711 4 19.6621 4 18.8182V5.18182C4 4.33795 4.32801 3.52888 4.91146 2.93217C5.4949 2.33547 6.28599 2 7.11111 2H18.2222C18.6937 2 19.1458 2.19169 19.4792 2.53267C19.8126 2.87365 20 3.33597 20 3.81818V20.1818Z" fill="#5C5C5C"/>
</svg>
