<svg width="24" height="24" viewBox="0 0 24 24" fill="none" xmlns="http://www.w3.org/2000/svg">
<path d="M7.11111 3.81818C6.75749 3.81818 6.41845 3.96195 6.1684 4.21768C5.91835 4.47342 5.77778 4.82016 5.77778 5.18182V15.9435C6.19062 15.7433 6.64545 15.6364 7.11111 15.6364H18.2222V3.81818H7.11111ZM5.77778 18.8182C5.77778 19.1798 5.91835 19.5266 6.1684 19.7823C6.41845 20.038 6.75749 20.1818 7.11111 20.1818H18.2222V17.4545H7.11111C6.75749 17.4545 6.41845 17.5983 6.1684 17.854C5.91835 18.1098 5.77778 18.4565 5.77778 18.8182ZM20 20.1818C20 20.664 19.8126 21.1264 19.4792 21.4673C19.1458 21.8083 18.6937 22 18.2222 22H7.11111C6.28599 22 5.4949 21.6645 4.91146 21.0678C4.32801 20.4711 4 19.6621 4 18.8182V5.18182C4 4.33795 4.32801 3.52888 4.91146 2.93217C5.4949 2.33547 6.28599 2 7.11111 2H18.2222C18.6937 2 19.1458 2.19169 19.4792 2.53267C19.8126 2.87365 20 3.33597 20 3.81818V20.1818Z" fill="#5C5C5C"/>
<path d="M14.0382 7.26634C14.3853 6.91131 14.948 6.91131 15.2951 7.26634C15.6423 7.62136 15.6423 8.19682 15.2951 8.55185L11.7396 12.1882C11.3925 12.5432 10.8298 12.5432 10.4826 12.1882L8.70486 10.37C8.35773 10.015 8.35773 9.43954 8.70486 9.08452C9.0303 8.75168 9.54496 8.73114 9.8941 9.02237L9.96181 9.08452L11.1111 10.2599L14.0382 7.26634Z" fill="#5C5C5C"/>
</svg>
