<svg width="24" height="24" viewBox="0 0 24 24" fill="none" xmlns="http://www.w3.org/2000/svg">
<path d="M8 7V4C8 3.44772 8.44772 3 9 3C9.55228 3 10 3.44772 10 4V7C10 7.79565 9.6837 8.55848 9.12109 9.12109C8.55848 9.6837 7.79565 10 7 10H4C3.44772 10 3 9.55228 3 9C3 8.44772 3.44772 8 4 8H7L7.09863 7.99512C7.32763 7.97243 7.54289 7.87117 7.70703 7.70703C7.87117 7.54289 7.97243 7.32763 7.99512 7.09863L8 7Z" fill="#5C5C5C"/>
<path d="M14 7V4C14 3.44772 14.4477 3 15 3C15.5523 3 16 3.44772 16 4V7C16 7.26522 16.1054 7.51949 16.293 7.70703C16.4805 7.89457 16.7348 8 17 8H20C20.5523 8 21 8.44772 21 9C21 9.55228 20.5523 10 20 10H17C16.2044 10 15.4415 9.6837 14.8789 9.12109C14.3867 8.6289 14.0829 7.98351 14.0146 7.29688L14 7Z" fill="#5C5C5C"/>
<path d="M8 20V17C8 16.7348 7.89457 16.4805 7.70703 16.293C7.51949 16.1054 7.26522 16 7 16H4C3.44772 16 3 15.5523 3 15C3 14.4477 3.44772 14 4 14H7L7.29688 14.0146C7.98351 14.0829 8.6289 14.3867 9.12109 14.8789C9.6837 15.4415 10 16.2044 10 17V20C10 20.5523 9.55228 21 9 21C8.44772 21 8 20.5523 8 20Z" fill="#5C5C5C"/>
<path d="M14 20V17C14 16.2043 14.3163 15.4415 14.8789 14.8789C15.4415 14.3163 16.2043 14 17 14H20C20.5523 14 21 14.4477 21 15C21 15.5523 20.5523 16 20 16H17C16.7348 16 16.4805 16.1054 16.293 16.293C16.1054 16.4805 16 16.7348 16 17V20C16 20.5523 15.5523 21 15 21C14.4477 21 14 20.5523 14 20Z" fill="#5C5C5C"/>
</svg>
