<svg width="24" height="24" viewBox="0 0 24 24" fill="none" xmlns="http://www.w3.org/2000/svg">
<path d="M9.2998 2C9.53159 2 9.75817 2.06563 9.95312 2.18848L10.0352 2.24512L10.1113 2.30762C10.2595 2.43861 10.3738 2.60336 10.4443 2.78809L10.4756 2.88184L10.4785 2.8916L14.6992 17.9111L16.0684 13.043C16.2337 12.4543 16.5875 11.9363 17.0752 11.5674C17.5625 11.1988 18.1566 10.9993 18.7676 11H21C21.5523 11 22 11.4477 22 12C22 12.5523 21.5523 13 21 13H18.7656C18.5909 12.9997 18.4206 13.0567 18.2812 13.1621C18.142 13.2675 18.0413 13.4158 17.9941 13.584V13.585L15.8789 21.1084L15.876 21.1182C15.8017 21.3725 15.6466 21.5959 15.4346 21.7549C15.2226 21.9138 14.9651 22 14.7002 22C14.4352 22 14.1769 21.9139 13.9648 21.7549C13.7529 21.5959 13.5986 21.3724 13.5244 21.1182L13.5215 21.1084L9.2998 6.08789L7.93164 10.957C7.76698 11.5434 7.41548 12.06 6.93066 12.4287C6.44561 12.7976 5.85349 12.9982 5.24414 13H3C2.44772 13 2 12.5523 2 12C2 11.4477 2.44772 11 3 11H5.23828C5.41224 10.9995 5.58121 10.9421 5.71973 10.8369C5.85833 10.7315 5.95885 10.5827 6.00586 10.415L8.12109 2.8916L8.12402 2.88184C8.19826 2.62745 8.35343 2.40412 8.56543 2.24512L8.64648 2.18848C8.84145 2.06555 9.06798 2.00004 9.2998 2Z" fill="#5C5C5C"/>
</svg>
