<svg width="24" height="24" viewBox="0 0 24 24" fill="none" xmlns="http://www.w3.org/2000/svg">
<path d="M11.2639 19.1069L5.61385 13.4469C5.52012 13.354 5.44573 13.2434 5.39496 13.1215C5.34419 12.9996 5.31805 12.8689 5.31805 12.7369C5.31805 12.6049 5.34419 12.4742 5.39496 12.3524C5.44573 12.2305 5.52012 12.1199 5.61385 12.0269C5.80122 11.8407 6.05467 11.7361 6.31885 11.7361C6.58304 11.7361 6.83649 11.8407 7.02385 12.0269L12.0239 16.9769L16.9739 12.0269C17.1612 11.8407 17.4147 11.7361 17.6789 11.7361C17.943 11.7361 18.1965 11.8407 18.3839 12.0269C18.4783 12.1195 18.5535 12.23 18.605 12.3519C18.6565 12.4737 18.6833 12.6046 18.6839 12.7369C18.6833 12.8692 18.6565 13.0001 18.605 13.122C18.5535 13.2439 18.4783 13.3543 18.3839 13.4469L12.7339 19.1069C12.6402 19.2084 12.5266 19.2894 12.4001 19.3448C12.2736 19.4003 12.137 19.4289 11.9989 19.4289C11.8608 19.4289 11.7241 19.4003 11.5976 19.3448C11.4711 19.2894 11.3575 19.2084 11.2639 19.1069Z" fill="#5C5C5C"/>
<path d="M11.2639 11.9377L5.61385 6.27772C5.52012 6.18476 5.44573 6.07416 5.39496 5.9523C5.34419 5.83044 5.31805 5.69974 5.31805 5.56772C5.31805 5.43571 5.34419 5.30501 5.39496 5.18315C5.44573 5.06129 5.52012 4.95069 5.61385 4.85772C5.80121 4.67147 6.05467 4.56693 6.31885 4.56693C6.58304 4.56693 6.83649 4.67147 7.02385 4.85772L12.0239 9.80772L16.9739 4.85772C17.1612 4.67147 17.4147 4.56693 17.6789 4.56693C17.943 4.56693 18.1965 4.67147 18.3839 4.85772C18.4783 4.95034 18.5535 5.06078 18.605 5.18266C18.6565 5.30453 18.6833 5.43542 18.6839 5.56772C18.6833 5.70003 18.6565 5.83091 18.605 5.95279C18.5535 6.07466 18.4783 6.18511 18.3839 6.27772L12.7339 11.9377C12.6402 12.0392 12.5266 12.1202 12.4001 12.1756C12.2736 12.2311 12.137 12.2597 11.9989 12.2597C11.8608 12.2597 11.7241 12.2311 11.5976 12.1756C11.4711 12.1202 11.3575 12.0392 11.2639 11.9377Z" fill="#5C5C5C"/>
</svg>
