<svg width="24" height="24" viewBox="0 0 24 24" fill="none" xmlns="http://www.w3.org/2000/svg">
<path d="M19.11 11.2608L13.45 5.6108C13.357 5.51707 13.2464 5.44267 13.1246 5.39191C13.0027 5.34114 12.872 5.315 12.74 5.315C12.608 5.315 12.4773 5.34114 12.3554 5.39191C12.2336 5.44267 12.123 5.51707 12.03 5.6108C11.8438 5.79816 11.7392 6.05161 11.7392 6.3158C11.7392 6.57998 11.8438 6.83343 12.03 7.0208L16.98 12.0208L12.03 16.9708C11.8438 17.1582 11.7392 17.4116 11.7392 17.6758C11.7392 17.94 11.8438 18.1934 12.03 18.3808C12.1226 18.4753 12.2331 18.5505 12.3549 18.602C12.4768 18.6534 12.6077 18.6802 12.74 18.6808C12.8723 18.6802 13.0032 18.6534 13.1251 18.602C13.2469 18.5505 13.3574 18.4753 13.45 18.3808L19.11 12.7308C19.2115 12.6372 19.2925 12.5235 19.3479 12.397C19.4033 12.2705 19.4319 12.1339 19.4319 11.9958C19.4319 11.8577 19.4033 11.7211 19.3479 11.5946C19.2925 11.4681 19.2115 11.3544 19.11 11.2608Z" fill="#5C5C5C"/>
<path d="M11.9408 11.2608L6.2808 5.6108C6.18784 5.51707 6.07724 5.44267 5.95538 5.39191C5.83352 5.34114 5.70281 5.315 5.5708 5.315C5.43879 5.315 5.30808 5.34114 5.18622 5.39191C5.06436 5.44267 4.95376 5.51707 4.8608 5.6108C4.67455 5.79816 4.57001 6.05161 4.57001 6.3158C4.57001 6.57998 4.67455 6.83343 4.8608 7.0208L9.8108 12.0208L4.8608 16.9708C4.67455 17.1582 4.57001 17.4116 4.57001 17.6758C4.57001 17.94 4.67455 18.1934 4.8608 18.3808C4.95341 18.4753 5.06386 18.5505 5.18573 18.602C5.30761 18.6534 5.43849 18.6802 5.5708 18.6808C5.70311 18.6802 5.83399 18.6534 5.95586 18.602C6.07774 18.5505 6.18819 18.4753 6.2808 18.3808L11.9408 12.7308C12.0423 12.6372 12.1233 12.5235 12.1787 12.397C12.2341 12.2705 12.2627 12.1339 12.2627 11.9958C12.2627 11.8577 12.2341 11.7211 12.1787 11.5946C12.1233 11.4681 12.0423 11.3544 11.9408 11.2608Z" fill="#5C5C5C"/>
</svg>
