<svg width="24" height="24" viewBox="0 0 24 24" fill="none" xmlns="http://www.w3.org/2000/svg">
<path d="M15.5206 8.29C15.7089 8.09639 15.9664 7.98552 16.2364 7.98176C16.5065 7.97801 16.767 8.0817 16.9606 8.27C17.1542 8.4583 17.2651 8.7158 17.2688 8.98586C17.2726 9.25591 17.1689 9.51639 16.9806 9.71L14.6406 12L16.9806 14.29C17.0743 14.383 17.1487 14.4936 17.1995 14.6154C17.2502 14.7373 17.2764 14.868 17.2764 15C17.2764 15.132 17.2502 15.2627 17.1995 15.3846C17.1487 15.5064 17.0743 15.617 16.9806 15.71C16.8876 15.8037 16.777 15.8781 16.6552 15.9289C16.5333 15.9797 16.4026 16.0058 16.2706 16.0058C16.1386 16.0058 16.0079 15.9797 15.886 15.9289C15.7641 15.8781 15.6535 15.8037 15.5606 15.71L12.5606 12.71C12.4669 12.617 12.3925 12.5064 12.3417 12.3846C12.2909 12.2627 12.2648 12.132 12.2648 12C12.2648 11.868 12.2909 11.7373 12.3417 11.6154C12.3925 11.4936 12.4669 11.383 12.5606 11.29L15.5206 8.29ZM7.02059 11.29L10.0206 8.29C10.2089 8.10169 10.4643 7.99591 10.7306 7.99591C10.9969 7.99591 11.2523 8.10169 11.4406 8.29C11.6289 8.4783 11.7347 8.7337 11.7347 9C11.7347 9.2663 11.6289 9.5217 11.4406 9.71L9.14058 12L11.4406 14.29C11.5343 14.383 11.6087 14.4936 11.6595 14.6154C11.7102 14.7373 11.7364 14.868 11.7364 15C11.7364 15.132 11.7102 15.2627 11.6595 15.3846C11.6087 15.5064 11.5343 15.617 11.4406 15.71C11.3476 15.8037 11.237 15.8781 11.1152 15.9289C10.9933 15.9797 10.8626 16.0058 10.7306 16.0058C10.5986 16.0058 10.4679 15.9797 10.346 15.9289C10.2241 15.8781 10.1135 15.8037 10.0206 15.71L7.02059 12.71C6.92419 12.6197 6.84664 12.5112 6.79241 12.3908C6.73818 12.2703 6.70834 12.1404 6.70462 12.0083C6.7009 11.8763 6.72337 11.7449 6.77074 11.6216C6.8181 11.4983 6.88943 11.3856 6.98058 11.29H7.02059Z" fill="#5C5C5C"/>
</svg>
