<svg width="24" height="24" viewBox="0 0 24 24" fill="none" xmlns="http://www.w3.org/2000/svg">
<path d="M12.7381 4.88887L18.3881 10.5489C18.4818 10.6418 18.5562 10.7524 18.6069 10.8743C18.6577 10.9961 18.6839 11.1269 18.6839 11.2589C18.6839 11.3909 18.6577 11.5216 18.6069 11.6434C18.5562 11.7653 18.4818 11.8759 18.3881 11.9689C18.2007 12.1551 17.9472 12.2597 17.6831 12.2597C17.4189 12.2597 17.1654 12.1551 16.9781 11.9689L11.9781 7.01887L7.02805 11.9689C6.84069 12.1551 6.58724 12.2597 6.32305 12.2597C6.05887 12.2597 5.80542 12.1551 5.61805 11.9689C5.52357 11.8763 5.4484 11.7658 5.3969 11.6439C5.3454 11.5221 5.3186 11.3912 5.31805 11.2589C5.3186 11.1266 5.3454 10.9957 5.3969 10.8738C5.4484 10.7519 5.52357 10.6415 5.61805 10.5489L11.2681 4.88887C11.3617 4.78736 11.4753 4.70635 11.6018 4.65094C11.7283 4.59554 11.865 4.56693 12.0031 4.56693C12.1412 4.56693 12.2778 4.59554 12.4043 4.65094C12.5308 4.70635 12.6444 4.78736 12.7381 4.88887Z" fill="#5C5C5C"/>
<path d="M12.7381 12.0581L18.3881 17.7181C18.4818 17.811 18.5562 17.9216 18.6069 18.0435C18.6577 18.1654 18.6839 18.2961 18.6839 18.4281C18.6839 18.5601 18.6577 18.6908 18.6069 18.8126C18.5562 18.9345 18.4818 19.0451 18.3881 19.1381C18.2007 19.3243 17.9472 19.4289 17.6831 19.4289C17.4189 19.4289 17.1654 19.3243 16.9781 19.1381L11.9781 14.1881L7.02805 19.1381C6.84069 19.3243 6.58724 19.4289 6.32305 19.4289C6.05887 19.4289 5.80542 19.3243 5.61805 19.1381C5.52357 19.0455 5.44839 18.935 5.3969 18.8131C5.3454 18.6913 5.3186 18.5604 5.31805 18.4281C5.3186 18.2958 5.3454 18.1649 5.3969 18.043C5.44839 17.9211 5.52357 17.8107 5.61805 17.7181L11.2681 12.0581C11.3617 11.9566 11.4753 11.8756 11.6018 11.8201C11.7283 11.7647 11.865 11.7361 12.0031 11.7361C12.1412 11.7361 12.2778 11.7647 12.4043 11.8201C12.5308 11.8756 12.6444 11.9566 12.7381 12.0581Z" fill="#5C5C5C"/>
</svg>
