<svg width="24" height="24" viewBox="0 0 24 24" fill="none" xmlns="http://www.w3.org/2000/svg">
<path d="M4.89194 11.2608L10.5519 5.6108C10.6449 5.51707 10.7555 5.44268 10.8774 5.39191C10.9992 5.34114 11.1299 5.315 11.2619 5.315C11.394 5.315 11.5247 5.34114 11.6465 5.39191C11.7684 5.44268 11.879 5.51707 11.9719 5.6108C12.1582 5.79816 12.2627 6.05161 12.2627 6.3158C12.2627 6.57998 12.1582 6.83344 11.9719 7.0208L7.02194 12.0208L11.9719 16.9708C12.1582 17.1582 12.2627 17.4116 12.2627 17.6758C12.2627 17.94 12.1582 18.1934 11.9719 18.3808C11.8793 18.4753 11.7689 18.5505 11.647 18.602C11.5251 18.6534 11.3942 18.6802 11.2619 18.6808C11.1296 18.6802 10.9988 18.6534 10.8769 18.602C10.755 18.5505 10.6446 18.4753 10.5519 18.3808L4.89194 12.7308C4.79044 12.6372 4.70943 12.5235 4.65402 12.397C4.59861 12.2705 4.57001 12.1339 4.57001 11.9958C4.57001 11.8577 4.59861 11.7211 4.65402 11.5946C4.70943 11.4681 4.79044 11.3544 4.89194 11.2608Z" fill="#5C5C5C"/>
<path d="M12.0611 11.2608L17.7211 5.6108C17.8141 5.51707 17.9247 5.44268 18.0466 5.39191C18.1684 5.34114 18.2991 5.315 18.4311 5.315C18.5632 5.315 18.6939 5.34114 18.8157 5.39191C18.9376 5.44268 19.0482 5.51707 19.1411 5.6108C19.3274 5.79816 19.4319 6.05161 19.4319 6.3158C19.4319 6.57998 19.3274 6.83344 19.1411 7.0208L14.1911 12.0208L19.1411 16.9708C19.3274 17.1582 19.4319 17.4116 19.4319 17.6758C19.4319 17.94 19.3274 18.1934 19.1411 18.3808C19.0485 18.4753 18.9381 18.5505 18.8162 18.602C18.6943 18.6534 18.5635 18.6802 18.4311 18.6808C18.2988 18.6802 18.168 18.6534 18.0461 18.602C17.9242 18.5505 17.8138 18.4753 17.7211 18.3808L12.0611 12.7308C11.9596 12.6372 11.8786 12.5235 11.8232 12.397C11.7678 12.2705 11.7392 12.1339 11.7392 11.9958C11.7392 11.8577 11.7678 11.7211 11.8232 11.5946C11.8786 11.4681 11.9596 11.3544 12.0611 11.2608Z" fill="#5C5C5C"/>
</svg>
