<svg width="24" height="24" viewBox="0 0 24 24" fill="none" xmlns="http://www.w3.org/2000/svg">
<path d="M20 12C20 7.58172 16.4183 4 12 4C7.58172 4 4 7.58172 4 12C4 16.4183 7.58172 20 12 20V22C6.47715 22 2 17.5228 2 12C2 6.47715 6.47715 2 12 2C17.5228 2 22 6.47715 22 12C22 17.5228 17.5228 22 12 22V20C16.4183 20 20 16.4183 20 12Z" fill="#5C5C5C"/>
<path fill-rule="evenodd" clip-rule="evenodd" d="M10.9778 14.5945L7.21078 10.9862C6.82328 10.6151 6.82328 9.99578 7.21078 9.62461C7.57539 9.27538 8.1504 9.27538 8.515 9.62461L12 12.9627L15.485 9.62461C15.8496 9.27538 16.4246 9.27538 16.7892 9.62461C17.1767 9.99578 17.1767 10.6151 16.7892 10.9862L13.0222 14.5945C12.4576 15.1352 11.5424 15.1352 10.9778 14.5945Z" fill="#5C5C5C"/>
</svg>
