<svg viewBox="0 0 16 18" fill="none" xmlns="http://www.w3.org/2000/svg">
<path d="M2.28448 0.284979C2.19429 0.375142 2.12274 0.48218 2.07393 0.599998C2.02512 0.717815 2 0.8441 2 0.971629C2 1.09916 2.02512 1.22544 2.07393 1.34326C2.12274 1.46108 2.19429 1.56812 2.28448 1.65828L7.32262 6.69441C7.50457 6.87631 7.75132 6.97851 8.00861 6.97851C8.26589 6.97851 8.51264 6.87631 8.69459 6.69441L13.7327 1.65628C13.9072 1.47279 14.0031 1.22841 13.9999 0.97525C13.9968 0.722088 13.8949 0.480178 13.716 0.301064C13.537 0.121951 13.2952 0.0198091 13.042 0.0164303C12.7889 0.0130515 12.5444 0.108687 12.3608 0.282961L8.00861 4.63646L3.65645 0.284307C3.4745 0.102403 3.22775 0.000202334 2.97047 0.000202401C2.71318 0.000202469 2.46643 0.102403 2.28448 0.284307L2.28448 0.284979Z" />
<path d="M2.28448 17.6721C2.19429 17.5819 2.12275 17.4749 2.07393 17.357C2.02512 17.2392 2 17.1129 2 16.9854C2 16.8579 2.02512 16.7316 2.07393 16.6138C2.12275 16.496 2.19429 16.3889 2.28448 16.2988L7.32262 11.2626C7.50457 11.0807 7.75132 10.9785 8.00861 10.9785C8.26589 10.9785 8.51264 11.0807 8.69459 11.2626L13.7327 16.3007C13.9072 16.4842 14.0031 16.7286 13.9999 16.9818C13.9968 17.2349 13.8949 17.4769 13.716 17.656C13.537 17.8351 13.2952 17.9372 13.042 17.9406C12.7889 17.944 12.5444 17.8483 12.3608 17.6741L8.00861 13.3206L3.65646 17.6727C3.4745 17.8546 3.22775 17.9568 2.97047 17.9568C2.71318 17.9568 2.46643 17.8546 2.28448 17.6727L2.28448 17.6721Z" />
</svg>
