<svg viewBox="0 0 16 18" xmlns="http://www.w3.org/2000/svg">
<path d="M2.28448 6.69354C2.19429 6.60337 2.12274 6.49634 2.07393 6.37852C2.02512 6.2607 2 6.13442 2 6.00689C2 5.87936 2.02512 5.75307 2.07393 5.63526C2.12274 5.51744 2.19429 5.4104 2.28448 5.32024L7.32262 0.284106C7.50457 0.102202 7.75132 1.50839e-06 8.00861 1.57587e-06C8.26589 1.64335e-06 8.51264 0.102202 8.69459 0.284106L13.7327 5.32224C13.9072 5.50572 14.0031 5.7501 13.9999 6.00327C13.9968 6.25643 13.8949 6.49834 13.716 6.67745C13.537 6.85656 13.2952 6.95871 13.042 6.96209C12.7889 6.96546 12.5444 6.86983 12.3608 6.69556L8.00861 2.34206L3.65645 6.69421C3.4745 6.87611 3.22775 6.97831 2.97047 6.97831C2.71318 6.97831 2.46643 6.87611 2.28448 6.69421L2.28448 6.69354Z" />
<path d="M13.7155 11.2635C13.8057 11.3537 13.8773 11.4607 13.9261 11.5785C13.9749 11.6963 14 11.8226 14 11.9501C14 12.0777 13.9749 12.204 13.9261 12.3218C13.8773 12.4396 13.8057 12.5466 13.7155 12.6368L8.67738 17.6729C8.49543 17.8548 8.24868 17.957 7.99139 17.957C7.73411 17.957 7.48736 17.8548 7.30541 17.6729L2.26727 12.6348C2.09281 12.4513 1.99694 12.2069 2.00007 11.9538C2.00321 11.7006 2.1051 11.4587 2.28404 11.2796C2.46298 11.1005 2.70481 10.9983 2.95797 10.9949C3.21113 10.9916 3.45558 11.0872 3.63924 11.2615L7.99139 15.615L12.3435 11.2628C12.5255 11.0809 12.7722 10.9787 13.0295 10.9787C13.2868 10.9787 13.5336 11.0809 13.7155 11.2628L13.7155 11.2635Z" />
</svg>
