<svg viewBox="0 0 18 18" xmlns="http://www.w3.org/2000/svg">
<path fill-rule="evenodd" clip-rule="evenodd" d="M8.53596 10.786C8.79224 10.5297 9.20776 10.5297 9.46404 10.786L13.214 14.536C13.4703 14.7922 13.4703 15.2078 13.214 15.464C12.9578 15.7203 12.5422 15.7203 12.286 15.464L9 12.1781L5.71404 15.464C5.45776 15.7203 5.04224 15.7203 4.78596 15.464C4.52968 15.2078 4.52968 14.7922 4.78596 14.536L8.53596 10.786Z" />
<path fill-rule="evenodd" clip-rule="evenodd" d="M4.78596 2.53596C5.04224 2.27968 5.45776 2.27968 5.71404 2.53596L9 5.82192L12.286 2.53596C12.5422 2.27968 12.9578 2.27968 13.214 2.53596C13.4703 2.79224 13.4703 3.20776 13.214 3.46404L9.46404 7.21404C9.20776 7.47032 8.79224 7.47032 8.53596 7.21404L4.78596 3.46404C4.52968 3.20776 4.52968 2.79224 4.78596 2.53596Z" />
</svg>
