<svg width="24" height="24" viewBox="0 0 24 24" fill="none" xmlns="http://www.w3.org/2000/svg">
<path d="M12 4C7.58172 4 4 7.58172 4 12C4 16.4183 7.58172 20 12 20C16.4183 20 20 16.4183 20 12H22C22 17.5228 17.5228 22 12 22C6.47715 22 2 17.5228 2 12C2 6.47715 6.47715 2 12 2C17.5228 2 22 6.47715 22 12H20C20 7.58172 16.4183 4 12 4Z" fill="#5C5C5C"/>
<path fill-rule="evenodd" clip-rule="evenodd" d="M14.5945 13.0222L10.9862 16.7892C10.6151 17.1767 9.99578 17.1767 9.62461 16.7892C9.27538 16.4246 9.27538 15.8496 9.62461 15.485L12.9627 12L9.62461 8.515C9.27538 8.1504 9.27538 7.57539 9.62461 7.21078C9.99578 6.82328 10.6151 6.82328 10.9862 7.21078L14.5945 10.9778C15.1352 11.5424 15.1352 12.4576 14.5945 13.0222Z" fill="#5C5C5C"/>
</svg>
