<svg width="24" height="24" viewBox="0 0 24 24" fill="none" xmlns="http://www.w3.org/2000/svg">
<path fill-rule="evenodd" clip-rule="evenodd" d="M12 2C6.47715 2 2 6.47715 2 12C2 17.5228 6.47715 22 12 22C17.5228 22 22 17.5228 22 12C22 6.47715 17.5228 2 12 2ZM10.9778 9.40554L7.21078 13.0138C6.82328 13.3849 6.82328 14.0042 7.21078 14.3754C7.57539 14.7246 8.1504 14.7246 8.515 14.3754L12 11.0373L15.485 14.3754C15.8496 14.7246 16.4246 14.7246 16.7892 14.3754C17.1767 14.0042 17.1767 13.3849 16.7892 13.0138L13.0222 9.40554C12.4576 8.86482 11.5424 8.86482 10.9778 9.40554Z" fill="#5C5C5C"/>
</svg>
