<svg width="24" height="24" viewBox="0 0 24 24" fill="none" xmlns="http://www.w3.org/2000/svg">
<path d="M12.7526 8.46193L18.4026 14.1219C18.4964 14.2149 18.5707 14.3255 18.6215 14.4473C18.6723 14.5692 18.6984 14.6999 18.6984 14.8319C18.6984 14.9639 18.6723 15.0946 18.6215 15.2165C18.5707 15.3384 18.4964 15.449 18.4026 15.5419C18.2153 15.7282 17.9618 15.8327 17.6976 15.8327C17.4334 15.8327 17.18 15.7282 16.9926 15.5419L11.9926 10.5919L7.04263 15.5419C6.85526 15.7282 6.60181 15.8327 6.33763 15.8327C6.07344 15.8327 5.81999 15.7282 5.63263 15.5419C5.53814 15.4493 5.46297 15.3389 5.41147 15.217C5.35998 15.0951 5.33318 14.9642 5.33263 14.8319C5.33318 14.6996 5.35998 14.5687 5.41147 14.4469C5.46297 14.325 5.53814 14.2145 5.63263 14.1219L11.2826 8.46193C11.3763 8.36042 11.4899 8.27941 11.6164 8.22401C11.7429 8.1686 11.8795 8.13999 12.0176 8.13999C12.1557 8.13999 12.2923 8.1686 12.4188 8.22401C12.5453 8.27941 12.659 8.36042 12.7526 8.46193Z" fill="#5C5C5C"/>
</svg>
