<svg width="24" height="24" viewBox="0 0 24 24" fill="none" xmlns="http://www.w3.org/2000/svg">
<path d="M12 4C16.4183 4 20 7.58172 20 12C20 16.4183 16.4183 20 12 20C7.58172 20 4 16.4183 4 12H2C2 17.5228 6.47715 22 12 22C17.5228 22 22 17.5228 22 12C22 6.47715 17.5228 2 12 2C6.47715 2 2 6.47715 2 12H4C4 7.58172 7.58172 4 12 4Z" fill="#5C5C5C"/>
<path fill-rule="evenodd" clip-rule="evenodd" d="M9.40554 13.0222L13.0138 16.7892C13.3849 17.1767 14.0042 17.1767 14.3754 16.7892C14.7246 16.4246 14.7246 15.8496 14.3754 15.485L11.0373 12L14.3754 8.515C14.7246 8.1504 14.7246 7.57539 14.3754 7.21078C14.0042 6.82328 13.3849 6.82328 13.0138 7.21078L9.40554 10.9778C8.86482 11.5424 8.86482 12.4576 9.40554 13.0222Z" fill="#5C5C5C"/>
</svg>
