<svg viewBox="0 0 14 14" xmlns="http://www.w3.org/2000/svg">
<path fill-rule="evenodd" clip-rule="evenodd" d="M7 0.65625C3.49644 0.65625 0.65625 3.49644 0.65625 7C0.65625 10.5036 3.49644 13.3438 7 13.3438C10.5036 13.3438 13.3438 10.5036 13.3438 7C13.3438 3.49644 10.5036 0.65625 7 0.65625ZM5.47241 4.30575C5.67174 4.10642 5.99492 4.10642 6.19425 4.30575L8.52759 6.63908C8.72692 6.83841 8.72692 7.16159 8.52759 7.36092L6.19425 9.69425C5.99492 9.89358 5.67174 9.89358 5.47241 9.69425C5.27308 9.49492 5.27308 9.17174 5.47241 8.97241L7.44483 7L5.47241 5.02759C5.27308 4.82826 5.27308 4.50508 5.47241 4.30575Z" />
</svg>
