<svg width="24" height="24" viewBox="0 0 24 24" fill="none" xmlns="http://www.w3.org/2000/svg">
<path d="M8.29297 3.29297C8.68349 2.90245 9.31651 2.90245 9.70703 3.29297C10.0976 3.68349 10.0976 4.31651 9.70703 4.70703L5.41406 9L9.70703 13.293C10.0976 13.6835 10.0976 14.3165 9.70703 14.707C9.31651 15.0976 8.68349 15.0976 8.29297 14.707L3.29297 9.70703C2.90244 9.31651 2.90244 8.68349 3.29297 8.29297L8.29297 3.29297Z" fill="#5C5C5C"/>
<path d="M19 14.5C19 13.9091 18.8833 13.3242 18.6572 12.7783C18.4311 12.2324 18.0995 11.7362 17.6816 11.3184C17.2638 10.9005 16.7676 10.5689 16.2217 10.3428C15.6758 10.1167 15.0909 10 14.5 10H4C3.44772 10 3 9.55229 3 9C3 8.44772 3.44772 8 4 8H14.5C15.3536 8 16.1987 8.16846 16.9873 8.49512C17.7759 8.82177 18.4931 9.29974 19.0967 9.90332C19.7003 10.5069 20.1782 11.2241 20.5049 12.0127C20.8315 12.8013 21 13.6464 21 14.5L20.9922 14.8193C20.9556 15.5638 20.7907 16.2972 20.5049 16.9873C20.1782 17.7759 19.7003 18.4931 19.0967 19.0967C18.4931 19.7003 17.7759 20.1782 16.9873 20.5049C16.1987 20.8315 15.3536 21 14.5 21H11C10.4477 21 10 20.5523 10 20C10 19.4477 10.4477 19 11 19H14.5C15.0909 19 15.6758 18.8833 16.2217 18.6572C16.7676 18.4311 17.2638 18.0995 17.6816 17.6816C18.0995 17.2638 18.4311 16.7676 18.6572 16.2217C18.855 15.7442 18.9687 15.2368 18.9941 14.7217L19 14.5Z" fill="#5C5C5C"/>
</svg>
