<svg width="24" height="24" viewBox="0 0 24 24" fill="none" xmlns="http://www.w3.org/2000/svg">
<path d="M20 19V5C20 4.44772 20.4477 4 21 4C21.5523 4 22 4.44772 22 5V19C22 19.5523 21.5523 20 21 20C20.4477 20 20 19.5523 20 19ZM8.29295 5.29297C8.68348 4.90244 9.31649 4.90244 9.70702 5.29297C10.0975 5.68349 10.0975 6.31651 9.70702 6.70703L5.41405 11H17C17.5523 11 18 11.4477 18 12C18 12.5523 17.5523 13 17 13H5.41405L9.70702 17.293C10.0975 17.6835 10.0975 18.3165 9.70702 18.707C9.31649 19.0976 8.68348 19.0976 8.29295 18.707L2.29295 12.707C1.90243 12.3165 1.90243 11.6835 2.29295 11.293L8.29295 5.29297Z" fill="#5C5C5C"/>
</svg>
