<svg width="24" height="24" viewBox="0 0 24 24" fill="none" xmlns="http://www.w3.org/2000/svg">
<path fill-rule="evenodd" clip-rule="evenodd" d="M11.3572 2.26634C11.3792 2.2444 11.4024 2.2238 11.4265 2.20419L11.3572 2.26634ZM11.5331 2.1293C11.7984 1.97006 12.1274 1.95812 12.4022 2.09363C12.2809 2.03369 12.1444 2 12 2C11.8292 2 11.6695 2.04729 11.5331 2.1293ZM12.386 21.9142C12.1421 22.0285 11.8579 22.0285 11.614 21.9142C11.7312 21.9692 11.862 22 12 22C12.138 22 12.2688 21.9692 12.386 21.9142Z" fill="#5C5C5C"/>
<path fill-rule="evenodd" clip-rule="evenodd" d="M21.9142 12.386C21.9692 12.2688 22 12.138 22 12C22 11.862 21.9692 11.7312 21.9142 11.614C22.0285 11.8579 22.0285 12.1421 21.9142 12.386Z" fill="#5C5C5C"/>
<path d="M11.3478 2.27577L8.62997 4.99361C8.27495 5.34863 8.27495 5.9241 8.62997 6.27912C8.98499 6.63414 9.56046 6.63414 9.91548 6.27912L11.0909 5.10369V11.0909H5.10369L6.27912 9.91548C6.63414 9.56046 6.63414 8.98499 6.27912 8.62997C5.9241 8.27495 5.34863 8.27495 4.99361 8.62997L2.27577 11.3478C2.10568 11.513 2 11.7442 2 12C2 12.2558 2.10567 12.487 2.27574 12.6522L4.99361 15.37L5.06286 15.4322C5.41992 15.7234 5.94629 15.7029 6.27912 15.37C6.61195 15.0372 6.63249 14.5108 6.34126 14.1538L6.27912 14.0845L5.10369 12.9091H11.0909V18.8963L9.91548 17.7209C9.56046 17.3659 8.98499 17.3659 8.62997 17.7209C8.27495 18.0759 8.27495 18.6514 8.62997 19.0064L11.3478 21.7242L11.3572 21.7337C11.7123 22.0887 12.2877 22.0887 12.6428 21.7337L12.6521 21.7243L15.37 19.0064C15.7251 18.6514 15.7251 18.0759 15.37 17.7209C15.015 17.3659 14.4395 17.3659 14.0845 17.7209L12.9091 18.8963V12.9091H18.8963L17.7209 14.0845C17.3659 14.4395 17.3659 15.015 17.7209 15.37C18.0759 15.7251 18.6514 15.7251 19.0064 15.37L21.7243 12.6521L21.7337 12.6428C22.0887 12.2877 22.0887 11.7123 21.7337 11.3572L21.7242 11.3478L19.0064 8.62997C18.6514 8.27495 18.0759 8.27495 17.7209 8.62997C17.3659 8.98499 17.3659 9.56046 17.7209 9.91548L18.8963 11.0909H12.9091V5.10369L14.0845 6.27912L14.1538 6.34126C14.5108 6.63249 15.0372 6.61195 15.37 6.27912C15.7029 5.94629 15.7234 5.41992 15.4322 5.06286L15.37 4.99361L12.6522 2.27574L12.6428 2.26634C12.3099 1.9335 11.7836 1.91296 11.4265 2.20419L11.3572 2.26634L11.3478 2.27577Z" fill="#5C5C5C"/>
</svg>
