<svg width="24" height="24" viewBox="0 0 24 24" fill="none" xmlns="http://www.w3.org/2000/svg">
<path d="M2 19V5C2 4.44772 2.44772 4 3 4C3.55228 4 4 4.44772 4 5V19C4 19.5523 3.55228 20 3 20C2.44772 20 2 19.5523 2 19ZM14.293 5.29297C14.6835 4.90244 15.3165 4.90244 15.707 5.29297L21.707 11.293C22.0976 11.6835 22.0976 12.3165 21.707 12.707L15.707 18.707C15.3165 19.0976 14.6835 19.0976 14.293 18.707C13.9024 18.3165 13.9024 17.6835 14.293 17.293L18.5859 13H7C6.44772 13 6 12.5523 6 12C6 11.4477 6.44772 11 7 11H18.5859L14.293 6.70703C13.9024 6.31651 13.9024 5.68349 14.293 5.29297Z" fill="#5C5C5C"/>
</svg>
