<svg width="24" height="24" viewBox="0 0 24 24" fill="none" xmlns="http://www.w3.org/2000/svg">
<path d="M10.3333 9.60365C10.4567 9.52654 10.6017 9.48538 10.75 9.48538C10.9489 9.48538 11.1397 9.55931 11.2803 9.69092C11.421 9.82252 11.5 10.001 11.5 10.1871C11.5 10.3259 11.456 10.4616 11.3736 10.577C11.2912 10.6924 11.1741 10.7824 11.037 10.8355C10.9 10.8886 10.7492 10.9025 10.6037 10.8754C10.4582 10.8483 10.3246 10.7815 10.2197 10.6833C10.1148 10.5852 10.0433 10.4602 10.0144 10.324C9.98547 10.1879 10.0003 10.0468 10.0571 9.91858C10.1139 9.79036 10.21 9.68076 10.3333 9.60365ZM14.3333 9.60365C14.4567 9.52654 14.6017 9.48538 14.75 9.48538C14.9489 9.48538 15.1397 9.55931 15.2803 9.69092C15.421 9.82252 15.5 10.001 15.5 10.1871C15.5 10.3259 15.456 10.4616 15.3736 10.577C15.2912 10.6924 15.1741 10.7824 15.037 10.8355C14.9 10.8886 14.7492 10.9025 14.6037 10.8754C14.4582 10.8483 14.3246 10.7815 14.2197 10.6833C14.1148 10.5852 14.0433 10.4602 14.0144 10.324C13.9855 10.1879 14.0003 10.0468 14.0571 9.91858C14.1139 9.79036 14.21 9.68076 14.3333 9.60365Z" fill="#5C5C5C"/>
<path d="M10.3333 20.7148C10.4567 20.6376 10.6017 20.5965 10.75 20.5965C10.9489 20.5965 11.1397 20.6704 11.2803 20.802C11.421 20.9336 11.5 21.1121 11.5 21.2982C11.5 21.437 11.456 21.5727 11.3736 21.6881C11.2912 21.8035 11.1741 21.8935 11.037 21.9466C10.9 21.9997 10.7492 22.0136 10.6037 21.9865C10.4582 21.9594 10.3246 21.8926 10.2197 21.7945C10.1148 21.6963 10.0433 21.5713 10.0144 21.4352C9.98547 21.299 10.0003 21.1579 10.0571 21.0297C10.1139 20.9015 10.21 20.7919 10.3333 20.7148ZM14.3333 20.7148C14.4567 20.6376 14.6017 20.5965 14.75 20.5965C14.9489 20.5965 15.1397 20.6704 15.2803 20.802C15.421 20.9336 15.5 21.1121 15.5 21.2982C15.5 21.437 15.456 21.5727 15.3736 21.6881C15.2912 21.8035 15.1741 21.8935 15.037 21.9466C14.9 21.9997 14.7492 22.0136 14.6037 21.9865C14.4582 21.9594 14.3246 21.8926 14.2197 21.7945C14.1148 21.6963 14.0433 21.5713 14.0144 21.4352C13.9855 21.299 14.0003 21.1579 14.0571 21.0297C14.1139 20.9015 14.21 20.7919 14.3333 20.7148Z" fill="#5C5C5C"/>
<path d="M16 8.08187H10C9.86739 8.08187 9.74021 8.03258 9.64645 7.94485C9.55268 7.85711 9.5 7.73811 9.5 7.61403C9.5 7.48996 9.55268 7.37096 9.64645 7.28322C9.74021 7.19549 9.86739 7.1462 10 7.1462H14.2456C14.5713 7.14522 14.8879 7.0455 15.148 6.86198C15.408 6.67847 15.5975 6.42104 15.688 6.12829L16.4807 3.53212C16.502 3.46249 16.5057 3.38919 16.4915 3.318C16.4774 3.24681 16.4458 3.17966 16.3992 3.12184C16.3526 3.06402 16.2923 3.01711 16.223 2.98481C16.1537 2.9525 16.0774 2.93568 16 2.93567H9.86953C9.76603 2.66309 9.57522 2.427 9.32311 2.25956C9.071 2.09213 8.76985 2.00149 8.4607 2H8C7.86739 2 7.74021 2.04929 7.64645 2.13703C7.55268 2.22476 7.5 2.34376 7.5 2.46784C7.5 2.59191 7.55268 2.71091 7.64645 2.79865C7.74021 2.88638 7.86739 2.93567 8 2.93567H8.4607C8.56924 2.93603 8.67473 2.96927 8.76139 3.03042C8.84805 3.09158 8.91121 3.17735 8.94141 3.2749L9.01917 3.52975L9.8396 6.21852C9.45788 6.25694 9.10644 6.43085 8.85763 6.70443C8.60883 6.97802 8.48161 7.33045 8.50216 7.68916C8.52272 8.04787 8.68949 8.38555 8.96813 8.63267C9.24677 8.87979 9.61608 9.01753 10 9.01754H16C16.1326 9.01754 16.2598 8.96825 16.3536 8.88052C16.4473 8.79278 16.5 8.67378 16.5 8.54971C16.5 8.42563 16.4473 8.30663 16.3536 8.2189C16.2598 8.13116 16.1326 8.08187 16 8.08187Z" fill="#5C5C5C"/>
<path d="M16 19.193H10C9.86739 19.193 9.74021 19.1437 9.64645 19.056C9.55268 18.9682 9.5 18.8492 9.5 18.7251C9.5 18.6011 9.55268 18.4821 9.64645 18.3943C9.74021 18.3066 9.86739 18.2573 10 18.2573H14.2456C14.5713 18.2563 14.8879 18.1566 15.148 17.9731C15.408 17.7896 15.5975 17.5322 15.688 17.2394L16.4807 14.6432C16.502 14.5736 16.5057 14.5003 16.4915 14.4291C16.4774 14.3579 16.4458 14.2908 16.3992 14.2329C16.3526 14.1751 16.2923 14.1282 16.223 14.0959C16.1537 14.0636 16.0774 14.0468 16 14.0468H9.86953C9.76603 13.7742 9.57522 13.5381 9.32311 13.3707C9.071 13.2032 8.76985 13.1126 8.4607 13.1111H8C7.86739 13.1111 7.74021 13.1604 7.64645 13.2481C7.55268 13.3359 7.5 13.4549 7.5 13.5789C7.5 13.703 7.55268 13.822 7.64645 13.9098C7.74021 13.9975 7.86739 14.0468 8 14.0468H8.4607C8.56924 14.0471 8.67473 14.0804 8.76139 14.1415C8.84805 14.2027 8.91121 14.2885 8.94141 14.386L9.01917 14.6409L9.8396 17.3296C9.45788 17.3681 9.10644 17.542 8.85763 17.8155C8.60883 18.0891 8.48161 18.4416 8.50216 18.8003C8.52272 19.159 8.68949 19.4967 8.96813 19.7438C9.24677 19.9909 9.61608 20.1286 10 20.1287H16C16.1326 20.1287 16.2598 20.0794 16.3536 19.9916C16.4473 19.9039 16.5 19.7849 16.5 19.6608C16.5 19.5367 16.4473 19.4177 16.3536 19.33C16.2598 19.2423 16.1326 19.193 16 19.193Z" fill="#5C5C5C"/>
</svg>
