<svg width="24" height="24" viewBox="0 0 24 24" fill="none" xmlns="http://www.w3.org/2000/svg">
<path d="M20.0728 10.9935C19.7467 10.9935 19.4821 10.7229 19.4821 10.3896C19.4821 8.07707 18.6017 5.90391 17.0028 4.26858C16.7721 4.03269 16.7721 3.65024 17.0028 3.41434C17.2335 3.17845 17.6076 3.17845 17.8385 3.41434C19.6602 5.27749 20.6635 7.75509 20.6635 10.3896C20.6635 10.7229 20.3988 10.9935 20.0728 10.9935ZM3.92723 10.9935C3.60117 10.9935 3.33654 10.7229 3.33654 10.3896C3.33654 7.75512 4.33998 5.27749 6.16237 3.4151C6.39311 3.1792 6.76735 3.1792 6.99809 3.4151C7.22883 3.65099 7.22883 4.03359 6.99809 4.26948C5.3985 5.90391 4.51792 8.07707 4.51792 10.3896C4.51792 10.7229 4.25329 10.9935 3.92723 10.9935ZM12.0001 21.6622C10.3714 21.6622 9.04661 20.3079 9.04661 18.6428C9.04661 18.3094 9.31124 18.0389 9.6373 18.0389C9.96337 18.0389 10.228 18.3094 10.228 18.6428C10.228 19.6421 11.0226 20.4544 12.0001 20.4544C12.9774 20.4544 13.7722 19.6421 13.7722 18.6428C13.7722 18.3094 14.0368 18.0389 14.3628 18.0389C14.6889 18.0389 14.9535 18.3094 14.9535 18.6428C14.9535 20.3079 13.6288 21.6622 12.0001 21.6622Z" fill="#5C5C5C"/>
<path d="M18.4977 19.2467H5.50246C4.74231 19.2467 4.12408 18.6146 4.12408 17.8376C4.12395 17.6341 4.16699 17.433 4.25022 17.2481C4.33345 17.0632 4.45489 16.899 4.60619 16.7667C5.80401 15.732 6.48685 14.228 6.48685 12.6346V10.3896C6.48685 7.28168 8.95993 4.75335 12.0001 4.75335C15.0401 4.75335 17.5132 7.28168 17.5132 10.3896V12.6345C17.5132 14.228 18.196 15.732 19.386 16.7611C19.7003 17.0348 19.8759 17.4253 19.8759 17.8376C19.8759 18.6146 19.2577 19.2467 18.4977 19.2467ZM12.0001 5.96112C9.6112 5.96112 7.66823 7.9475 7.66823 10.3896V12.6345C7.66823 14.5838 6.83266 16.4245 5.37642 17.683C5.34888 17.7071 5.30546 17.7571 5.30546 17.8376C5.30546 17.947 5.39532 18.0389 5.50246 18.0389H18.4977C18.6047 18.0389 18.6945 17.947 18.6945 17.8376C18.6945 17.7571 18.6513 17.7072 18.6252 17.6846C17.1673 16.4245 16.3318 14.5838 16.3318 12.6346V10.3896C16.3318 7.9475 14.3888 5.96112 12.0001 5.96112Z" fill="#5C5C5C"/>
<path d="M12.0001 5.96112C11.674 5.96112 11.4094 5.69058 11.4094 5.35724V2.94169C11.4094 2.60834 11.674 2.3378 12.0001 2.3378C12.3261 2.3378 12.5908 2.60834 12.5908 2.94169V5.35724C12.5908 5.69058 12.3261 5.96112 12.0001 5.96112Z" fill="#5C5C5C"/>
<path d="M9.89148 18.6428C9.89148 18.4904 9.77171 18.3769 9.63766 18.3767C9.50347 18.3767 9.38385 18.4903 9.38385 18.6428C9.38385 18.7326 9.38857 18.8213 9.39701 18.9088H9.90934C9.8987 18.8215 9.89148 18.7329 9.89148 18.6428ZM9.554 19.5844C9.92795 20.6014 10.8847 21.3244 12 21.3244C13.1154 21.3244 14.073 20.6016 14.4469 19.5844H13.8933C13.551 20.2971 12.835 20.7922 12 20.7922C11.1649 20.7922 10.4489 20.2971 10.1067 19.5844H9.554ZM10.8973 19.5844C11.1617 19.9099 11.5593 20.1166 12 20.1166C12.4406 20.1166 12.8382 19.9099 13.1027 19.5844H10.8973ZM4.1807 10.3893C4.18076 7.98928 5.09539 5.73071 6.75736 4.03246C6.85943 3.92811 6.85943 3.75655 6.75736 3.6522C6.65868 3.55138 6.50163 3.55134 6.40297 3.6522C4.64318 5.4506 3.67314 7.84263 3.67307 10.3893C3.67307 10.5416 3.79283 10.6552 3.92689 10.6554C4.06108 10.6554 4.1807 10.5418 4.1807 10.3893ZM20.3269 10.3893C20.3269 8.00181 19.4745 5.75027 17.9185 3.99566L17.598 3.65125C17.4992 3.55043 17.3422 3.55063 17.2436 3.65125C17.1415 3.7556 17.1415 3.92717 17.2436 4.03152C18.9048 5.73063 19.8192 7.98924 19.8193 10.3893C19.8193 10.5418 19.9389 10.6554 20.0731 10.6554C20.2072 10.6552 20.3269 10.5416 20.3269 10.3893ZM10.5645 18.6428C10.5645 18.7338 10.5746 18.8225 10.5899 18.9088H13.4101C13.4254 18.8225 13.4355 18.7338 13.4355 18.6428C13.4355 18.5505 13.4494 18.4614 13.474 18.3767H10.5269C10.5515 18.4613 10.5645 18.5506 10.5645 18.6428ZM14.1095 18.6428C14.1095 18.7329 14.1013 18.8215 14.0907 18.9088H14.603C14.6114 18.8213 14.6171 18.7326 14.6171 18.6428C14.6171 18.4905 14.4973 18.3769 14.3633 18.3767C14.2291 18.3767 14.1095 18.4903 14.1095 18.6428ZM15.9952 10.3893C15.9951 8.12825 14.1968 6.29892 12 6.29892C9.80311 6.29896 8.00494 8.12828 8.0048 10.3893V12.6341C8.0048 14.5613 7.22649 16.3892 5.8568 17.7011H18.1432C16.7732 16.3881 15.9953 14.5614 15.9952 12.635V10.3893ZM4.85471 10.3893C4.85471 10.9036 4.44482 11.3319 3.92689 11.3319C3.40911 11.3318 3 10.9034 3 10.3893C3.00007 7.66747 4.03701 5.10473 5.92166 3.17852C6.28446 2.80763 6.87587 2.80763 7.23867 3.17852C7.59775 3.54591 7.59777 4.13876 7.23867 4.50613C5.70168 6.07658 4.85478 8.16461 4.85471 10.3893ZM11.0722 5.17796C8.66326 5.62655 6.82423 7.7878 6.82411 10.3893V12.635C6.82398 14.3252 6.09838 15.9214 4.82651 17.0208L4.82745 17.0217C4.71313 17.1217 4.62107 17.2462 4.55766 17.3869C4.49428 17.5276 4.4608 17.6815 4.46083 17.837C4.46097 18.4329 4.93421 18.9088 5.5024 18.9088H8.72112C8.71433 18.821 8.70984 18.7323 8.70984 18.6428C8.70984 18.5505 8.72377 18.4614 8.74838 18.3767H5.5024C5.24102 18.3766 5.02796 18.1866 4.9788 17.9445L4.96846 17.8379L4.9741 17.7605C4.99112 17.638 5.0458 17.5465 5.09724 17.4859L5.15647 17.4265C6.53745 16.2331 7.33173 14.4861 7.33173 12.6341V10.3893C7.33186 8.06592 8.97006 6.11979 11.138 5.70542C11.0956 5.59735 11.0722 5.47972 11.0722 5.35724V5.17796ZM12.2538 2.94169C12.2538 2.78924 12.1342 2.6756 12 2.6756C11.8658 2.67564 11.7462 2.78926 11.7462 2.94169V4.42121C11.8303 4.41753 11.915 4.41555 12 4.41555C12.085 4.41555 12.1697 4.41753 12.2538 4.42121V2.94169ZM21 10.3893C21 10.9034 20.5909 11.3318 20.0731 11.3319C19.5552 11.3319 19.1453 10.9036 19.1453 10.3893C19.1452 8.1646 18.2986 6.07659 16.7623 4.50519C16.4031 4.13778 16.4031 3.54496 16.7623 3.17758C17.1251 2.80665 17.7164 2.80679 18.0793 3.17758C19.9632 5.10453 20.9999 7.66737 21 10.3893ZM11.7462 5.35724C11.7462 5.49045 11.8376 5.59371 11.9502 5.61766L12 5.62333L12.0498 5.61766C12.1625 5.59377 12.2538 5.4905 12.2538 5.35724V5.09775C12.1697 5.09357 12.0851 5.09115 12 5.09115C11.9149 5.09115 11.8303 5.09357 11.7462 5.09775V5.35724ZM12.9278 5.35724C12.9278 5.47986 12.9036 5.59725 12.8611 5.70542C15.0294 6.11938 16.6681 8.06557 16.6683 10.3893V12.635C16.6684 14.4867 17.4629 16.2334 18.8454 17.4284C18.9141 17.4878 19.0315 17.6237 19.0315 17.8379C19.0314 18.1281 18.7964 18.3767 18.4976 18.3767H15.2516C15.2762 18.4614 15.2902 18.5505 15.2902 18.6428C15.2902 18.7323 15.2857 18.821 15.2789 18.9088H18.4976C19.0656 18.9088 19.539 18.4339 19.5392 17.8379C19.5392 17.5235 19.4058 17.2263 19.166 17.017C17.9009 15.9229 17.1759 14.3248 17.1759 12.6341V10.3893C17.1758 7.78776 15.3367 5.62651 12.9278 5.17796V5.35724ZM12.9278 4.49104C15.7183 4.94662 17.8498 7.42198 17.8499 10.3893V12.6341C17.8499 14.1303 18.4911 15.5405 19.6059 16.5046L19.6069 16.5056C19.9951 16.8438 20.2132 17.3279 20.2132 17.8379C20.213 18.7956 19.4494 19.5844 18.4976 19.5844H15.1576C14.7584 20.9761 13.4985 22 12 22C10.5016 22 9.24163 20.9761 8.84239 19.5844H5.5024C4.55052 19.5844 3.78696 18.7957 3.78682 17.8379C3.78666 17.5864 3.83984 17.3374 3.94287 17.1085C4.0459 16.8797 4.19661 16.6757 4.38469 16.5112L4.38657 16.5103C5.50915 15.5405 6.14996 14.1307 6.15009 12.635V10.3893C6.15022 7.42201 8.2816 4.94666 11.0722 4.49104V2.94169C11.0722 2.42747 11.4821 2.00004 12 2C12.5179 2 12.9278 2.42745 12.9278 2.94169V4.49104Z" fill="#5C5C5C"/>
</svg>
