<svg width="24" height="24" viewBox="0 0 24 24" fill="none" xmlns="http://www.w3.org/2000/svg">
<path fill-rule="evenodd" clip-rule="evenodd" d="M10 3C10 2.44772 10.4477 2 11 2H21C21.5523 2 22 2.44772 22 3V7C22 7.55228 21.5523 8 21 8H11C10.4477 8 10 7.55228 10 7V3ZM12.25 4C12.1119 4 12 4.11193 12 4.25V5.75C12 5.88807 12.1119 6 12.25 6H19.75C19.8881 6 20 5.88807 20 5.75V4.25C20 4.11193 19.8881 4 19.75 4H12.25Z" fill="#5C5C5C"/>
<path fill-rule="evenodd" clip-rule="evenodd" d="M10 17C10 16.4477 10.4477 16 11 16H21C21.5523 16 22 16.4477 22 17V21C22 21.5523 21.5523 22 21 22H11C10.4477 22 10 21.5523 10 21V17ZM12.25 18C12.1119 18 12 18.1119 12 18.25V19.75C12 19.8881 12.1119 20 12.25 20H19.75C19.8881 20 20 19.8881 20 19.75V18.25C20 18.1119 19.8881 18 19.75 18H12.25Z" fill="#5C5C5C"/>
<path fill-rule="evenodd" clip-rule="evenodd" d="M6 10C6 9.44772 6.44772 9 7 9H17C17.5523 9 18 9.44772 18 10V14C18 14.5523 17.5523 15 17 15H7C6.44772 15 6 14.5523 6 14V10ZM8.25 11C8.11193 11 8 11.1119 8 11.25V12.75C8 12.8881 8.11193 13 8.25 13H15.75C15.8881 13 16 12.8881 16 12.75V11.25C16 11.1119 15.8881 11 15.75 11H8.25Z" fill="#5C5C5C"/>
<path fill-rule="evenodd" clip-rule="evenodd" d="M2 4.5C2 3.94772 2.44772 3.5 3 3.5H7V5.5H4.25C4.11193 5.5 4 5.61193 4 5.75V18.25C4 18.3881 4.11193 18.5 4.25 18.5H7C7.55228 18.5 8 18.9477 8 19.5C8 20.0523 7.55228 20.5 7 20.5H3C2.44772 20.5 2 20.0523 2 19.5V4.5Z" fill="#5C5C5C"/>
<path fill-rule="evenodd" clip-rule="evenodd" d="M6.2045 5.26517C6.61034 4.85933 6.61034 4.20133 6.2045 3.7955L6 3.59099C5.70711 3.2981 5.70711 2.82322 6 2.53033C6.29289 2.23744 6.76777 2.23744 7.06066 2.53033L8.70711 4.17678C8.90237 4.37204 8.90237 4.68862 8.70711 4.88388L7.06066 6.53033C6.76777 6.82322 6.29289 6.82322 6 6.53033C5.70711 6.23744 5.70711 5.76256 6 5.46967L6.2045 5.26517Z" fill="#5C5C5C"/>
</svg>
