<svg width="24" height="24" viewBox="0 0 24 24" fill="none" xmlns="http://www.w3.org/2000/svg">
<path d="M8.86111 18.8421C8.54796 18.8421 8.24184 18.9347 7.98146 19.1082C7.72108 19.2817 7.51814 19.5283 7.3983 19.8168C7.27846 20.1053 7.24711 20.4228 7.3082 20.7291C7.36929 21.0354 7.52009 21.3167 7.74153 21.5375C7.96296 21.7584 8.24508 21.9087 8.55222 21.9697C8.85935 22.0306 9.17771 21.9993 9.46703 21.8798C9.75634 21.7603 10.0036 21.5579 10.1776 21.2983C10.3516 21.0386 10.4444 20.7333 10.4444 20.4211C10.4444 20.0023 10.2776 19.6007 9.9807 19.3046C9.68376 19.0085 9.28104 18.8421 8.86111 18.8421ZM19.9444 15.6842H7.27778C6.99783 15.6842 6.72934 15.5733 6.53139 15.3759C6.33343 15.1785 6.22222 14.9108 6.22222 14.6316C6.22222 14.3524 6.33343 14.0847 6.53139 13.8873C6.72934 13.6898 6.99783 13.5789 7.27778 13.5789H16.2407C16.9283 13.5767 17.5967 13.3524 18.1457 12.9395C18.6947 12.5266 19.0947 11.9474 19.2858 11.2887L20.9593 5.44726C21.0042 5.2906 21.012 5.12569 20.9821 4.9655C20.9523 4.80531 20.8855 4.65423 20.7871 4.52414C20.6887 4.39405 20.5614 4.28851 20.4152 4.21582C20.269 4.14314 20.1078 4.10529 19.9444 4.10526H7.00235C6.78384 3.49196 6.38102 2.96075 5.84879 2.58401C5.31656 2.20728 4.6808 2.00335 4.02813 2H3.05556C2.7756 2 2.50712 2.1109 2.30917 2.30831C2.11121 2.50572 2 2.77346 2 3.05263C2 3.33181 2.11121 3.59955 2.30917 3.79695C2.50712 3.99436 2.7756 4.10526 3.05556 4.10526H4.02813C4.25728 4.10606 4.48 4.18086 4.66294 4.31845C4.84589 4.45605 4.97922 4.64904 5.04297 4.86853L5.20713 5.44194L5.20738 5.44726L6.93916 11.4917C6.1333 11.5781 5.39137 11.9694 4.86611 12.585C4.34086 13.2005 4.07228 13.9935 4.11568 14.8006C4.15907 15.6077 4.51114 16.3675 5.09939 16.9235C5.68763 17.4795 6.46728 17.7895 7.27778 17.7895H19.9444C20.2244 17.7895 20.4929 17.6786 20.6908 17.4812C20.8888 17.2838 21 17.016 21 16.7368C21 16.4577 20.8888 16.1899 20.6908 15.9925C20.4929 15.7951 20.2244 15.6842 19.9444 15.6842ZM18.5451 6.21053L17.2561 10.7099C17.1924 10.9296 17.059 11.1227 16.876 11.2604C16.6929 11.3981 16.47 11.473 16.2407 11.4737H9.12963L8.86053 10.5345L7.62233 6.21053H18.5451ZM17.3056 18.8421C16.9924 18.8421 16.6863 18.9347 16.4259 19.1082C16.1655 19.2817 15.9626 19.5283 15.8427 19.8168C15.7229 20.1053 15.6916 20.4228 15.7526 20.7291C15.8137 21.0354 15.9645 21.3167 16.186 21.5375C16.4074 21.7584 16.6895 21.9087 16.9967 21.9697C17.3038 22.0306 17.6222 21.9993 17.9115 21.8798C18.2008 21.7603 18.4481 21.5579 18.622 21.2983C18.796 21.0386 18.8889 20.7333 18.8889 20.4211C18.8889 20.0023 18.7221 19.6007 18.4251 19.3046C18.1282 19.0085 17.7255 18.8421 17.3056 18.8421Z" fill="#5C5C5C"/>
</svg>
