<svg width="24" height="24" viewBox="0 0 24 24" fill="none" xmlns="http://www.w3.org/2000/svg">
<path d="M19 17H7C6.73478 17 6.48043 16.8946 6.29289 16.7071C6.10536 16.5196 6 16.2652 6 16C6 15.7348 6.10536 15.4804 6.29289 15.2929C6.48043 15.1054 6.73478 15 7 15H15.4912C16.1426 14.9979 16.7758 14.7847 17.2959 14.3925C17.816 14.0002 18.195 13.45 18.376 12.8242L19.9614 7.2749C20.004 7.12607 20.0114 6.9694 19.9831 6.81722C19.9548 6.66505 19.8915 6.52152 19.7983 6.39793C19.7051 6.27435 19.5845 6.17408 19.446 6.10503C19.3075 6.03598 19.1548 6.00003 19 6H6.73907C6.53206 5.41736 6.15044 4.91271 5.64622 4.55481C5.14201 4.19692 4.53971 4.00318 3.92139 4H3C2.73478 4 2.48043 4.10536 2.29289 4.29289C2.10536 4.48043 2 4.73478 2 5C2 5.26522 2.10536 5.51957 2.29289 5.70711C2.48043 5.89464 2.73478 6 3 6H3.92139C4.13847 6.00076 4.34947 6.07182 4.52279 6.20253C4.6961 6.33325 4.82242 6.51659 4.88281 6.7251L5.03833 7.26984L6.6792 13.0171C5.91576 13.0992 5.21287 13.4709 4.71527 14.0557C4.21766 14.6405 3.96321 15.3938 4.00433 16.1606C4.04544 16.9273 4.37898 17.6491 4.93626 18.1773C5.49355 18.7055 6.23216 19 7 19H19C19.2652 19 19.5196 18.8946 19.7071 18.7071C19.8946 18.5196 20 18.2652 20 18C20 17.7348 19.8946 17.4804 19.7071 17.2929C19.5196 17.1054 19.2652 17 19 17Z" fill="#5C5C5C"/>
</svg>
