<svg width="24" height="24" viewBox="0 0 24 24" fill="none" xmlns="http://www.w3.org/2000/svg">
<path fill-rule="evenodd" clip-rule="evenodd" d="M10.4291 11.9098C10.1792 11.602 9.86694 11.3603 9.5 11.2C9.86268 11.3585 10.1805 11.6085 10.4291 11.9098Z" fill="#5C5C5C"/>
<path fill-rule="evenodd" clip-rule="evenodd" d="M19.5 4C19.7761 4 20 3.77614 20 3.5C20 3.22386 19.7761 3 19.5 3C19.2239 3 19 3.22386 19 3.5C19 3.77614 19.2239 4 19.5 4ZM19.5 5C20.3284 5 21 4.32843 21 3.5C21 2.67157 20.3284 2 19.5 2C18.6716 2 18 2.67157 18 3.5C18 4.32843 18.6716 5 19.5 5Z" fill="#5C5C5C"/>
<path d="M13 6C13 6.55228 12.5523 7 12 7C11.4477 7 11 6.55228 11 6C11 5.44772 11.4477 5 12 5C12.5523 5 13 5.44772 13 6ZM11.8 6C11.8 6.11046 11.8895 6.2 12 6.2C12.1105 6.2 12.2 6.11046 12.2 6C12.2 5.88954 12.1105 5.8 12 5.8C11.8895 5.8 11.8 5.88954 11.8 6Z" fill="#5C5C5C"/>
<path d="M5 11C5 11.5523 4.55228 12 4 12C3.44772 12 3 11.5523 3 11C3 10.4477 3.44772 10 4 10C4.55228 10 5 10.4477 5 11ZM3.8 11C3.8 11.1105 3.88954 11.2 4 11.2C4.11046 11.2 4.2 11.1105 4.2 11C4.2 10.8895 4.11046 10.8 4 10.8C3.88954 10.8 3.8 10.8895 3.8 11Z" fill="#5C5C5C"/>
<path fill-rule="evenodd" clip-rule="evenodd" d="M9.5 11.2C9.86694 11.3603 10.1792 11.602 10.4291 11.9098C10.6806 12.2169 10.8674 12.5965 10.95 13C10.9828 13.1616 11 13.3288 11 13.5V14H11.25V13.5C11.25 13.3293 11.2344 13.1621 11.2047 13C11.1153 12.5133 10.8977 12.0714 10.5883 11.7107C10.3557 11.4394 10.0711 11.214 9.75 11.0499V8H20C21.1046 8 22 8.89543 22 10V11C22 11.7729 21.5616 12.4434 20.9199 12.7764L20.0927 20.2209C19.9802 21.2337 19.1241 22 18.105 22H12H11.105H5C4.44772 22 4 21.5523 4 21L4 19C2.89543 19 2 18.1046 2 17V16C2 14.8954 2.89543 14 4 14H5.75H6V13.5C6 12.4748 6.61705 11.5938 7.5 11.208V10.9375V3C7.5 2.44772 7.94772 2 8.5 2C9.05228 2 9.5 2.44772 9.5 3V8V10.9375V11.2ZM13 14H12.2284L12.1173 13H18.8827L18.105 20H13V19C14.1046 19 15 18.1046 15 17V16C15 14.8954 14.1046 14 13 14ZM9 14V13.5C9 13.2239 8.77614 13 8.5 13C8.22386 13 8 13.2239 8 13.5V14H8.25H8.75H9ZM4 17H10.5494H12.5617H13V16H12.4506H10.4383H4V17ZM10.7716 19H6V20H10.8827H11V19H10.7716ZM20 11V10H11V11H12.1173H20Z" fill="#5C5C5C"/>
</svg>
