<svg width="24" height="24" viewBox="0 0 24 24" fill="none" xmlns="http://www.w3.org/2000/svg">
<path fill-rule="evenodd" clip-rule="evenodd" d="M11.5 4.5V11.0224C11.6647 11.0076 11.8315 11 12 11C12.1685 11 12.3353 11.0076 12.5 11.0224V4.5C12.5 4.22386 12.2761 4 12 4C11.7239 4 11.5 4.22386 11.5 4.5ZM9.5 4.5V11.5997C7.71916 12.5101 6.5 14.3627 6.5 16.5V21C6.5 21.5523 6.94772 22 7.5 22H16.5C17.0523 22 17.5 21.5523 17.5 21V16.5C17.5 14.3627 16.2808 12.5101 14.5 11.5997V4.5C14.5 3.11929 13.3807 2 12 2C10.6193 2 9.5 3.11929 9.5 4.5ZM8.5 19.75V16.5H15.5V19.75C15.5 19.8881 15.3881 20 15.25 20H14.25V19C14.25 18.5858 13.9142 18.25 13.5 18.25C13.0858 18.25 12.75 18.5858 12.75 19V20H11.25V19C11.25 18.5858 10.9142 18.25 10.5 18.25C10.0858 18.25 9.75 18.5858 9.75 19V20H8.75C8.61193 20 8.5 19.8881 8.5 19.75ZM9.12734 14.5C9.75982 13.5933 10.8106 13 12 13C13.1894 13 14.2402 13.5933 14.8727 14.5H9.12734Z" fill="#5C5C5C"/>
</svg>
