<svg width="24" height="24" viewBox="0 0 24 24" fill="none" xmlns="http://www.w3.org/2000/svg">
<path d="M3 17.4999V15.4999C3 14.1738 3.52716 12.9025 4.46484 11.9648C5.40253 11.0271 6.67392 10.4999 8 10.4999H17.5859L14.293 7.20696C13.9024 6.81643 13.9024 6.18342 14.293 5.79289C14.6835 5.40237 15.3165 5.40237 15.707 5.79289L20.707 10.7929C21.0976 11.1834 21.0976 11.8164 20.707 12.207L15.707 17.207C15.3165 17.5975 14.6835 17.5975 14.293 17.207C13.9024 16.8164 13.9024 16.1834 14.293 15.7929L17.5859 12.4999H8C7.20435 12.4999 6.44152 12.8162 5.87891 13.3788C5.3163 13.9414 5 14.7043 5 15.4999V17.4999C5 18.0522 4.55228 18.4999 4 18.4999C3.44772 18.4999 3 18.0522 3 17.4999Z" fill="#5C5C5C"/>
</svg>
