<svg width="24" height="24" viewBox="0 0 24 24" fill="none" xmlns="http://www.w3.org/2000/svg">
<path fill-rule="evenodd" clip-rule="evenodd" d="M5.47811 6.81716L6.34588 3.5106C6.63112 2.42371 7.72533 1.7787 8.78987 2.06993L15.2055 3.82509C15.9723 4.03487 16.6261 4.54707 17.023 5.24902L21.5985 13.3404C22.425 14.8022 21.9345 16.6713 20.5029 17.5152L13.5902 21.59C12.1586 22.434 10.3279 21.9331 9.50134 20.4714L4.92585 12.38C4.52892 11.678 4.42136 10.8439 4.62682 10.0609L4.92042 8.9422C4.84288 8.88878 4.76599 8.83393 4.68967 8.77777C3.28163 7.74172 2.4276 6.29165 2.05864 5.23925C1.87293 4.70955 2.14296 4.12642 2.66177 3.93681C3.18058 3.7472 3.7517 4.0229 3.93741 4.55261C4.16172 5.1924 4.67282 6.09611 5.47811 6.81716ZM11 8.52016C10.921 8.21385 10.7136 7.97699 10.4523 7.854C10.8077 7.65583 11.255 7.78268 11.4586 8.14274C11.6653 8.50817 11.5426 8.97545 11.1847 9.18643C11.095 9.23932 10.999 9.27107 10.9023 9.28322C11.0268 9.0598 11.0691 8.78839 11 8.52016ZM7.26799 7.86893C7.66491 7.98526 8.10742 8.03743 8.62529 7.99979C8.76227 7.40592 9.12975 6.86887 9.6881 6.53974C10.7618 5.90679 12.1348 6.28241 12.7548 7.37871C13.3747 8.475 13.0068 9.87683 11.933 10.5098C10.9753 11.0743 9.7795 10.8365 9.09237 10.0005C8.20958 10.1063 7.44273 10.0352 6.75173 9.83613L6.55434 10.5883C6.48585 10.8492 6.5217 11.1273 6.65401 11.3613L11.2295 19.4527C11.505 19.94 12.1152 20.1069 12.5925 19.8256L19.5051 15.7507C19.9823 15.4694 20.1458 14.8464 19.8703 14.3592L15.2948 6.26773C15.1625 6.03375 14.9446 5.86301 14.689 5.79308L8.27339 4.03793L7.26799 7.86893Z" fill="#5C5C5C"/>
</svg>
