<svg width="24" height="24" viewBox="0 0 24 24" fill="none" xmlns="http://www.w3.org/2000/svg">
<path d="M2.46563 7.76625L18.96 2.70375L18.975 2.69906C19.2545 2.61754 19.5492 2.60223 19.8356 2.65435C20.1221 2.70647 20.3925 2.82459 20.6254 2.99934C20.8583 3.1741 21.0473 3.40069 21.1774 3.66117C21.3075 3.92164 21.3751 4.20884 21.375 4.5V18C21.375 18.4963 21.1782 18.9724 20.8278 19.3238C20.4774 19.6753 20.0019 19.8735 19.5056 19.875C19.3261 19.8747 19.1474 19.8492 18.975 19.7991H18.96L11.625 17.5491V18.375C11.625 18.8723 11.4275 19.3492 11.0758 19.7008C10.7242 20.0525 10.2473 20.25 9.75 20.25H6.75C6.25272 20.25 5.77581 20.0525 5.42418 19.7008C5.07254 19.3492 4.875 18.8723 4.875 18.375V15.4744L2.46563 14.7347C2.07915 14.6182 1.74029 14.3807 1.49894 14.0572C1.25759 13.7336 1.12651 13.3411 1.125 12.9375V9.5625C1.12671 9.15902 1.25788 8.76674 1.49921 8.44338C1.74055 8.12003 2.0793 7.88267 2.46563 7.76625ZM19.125 17.4919V5.00906L11.625 7.3125V15.1875L19.125 17.4919ZM7.125 18H9.375V16.8544L7.125 16.1644V18ZM3.375 12.6609L9.375 14.5012V7.99969L3.375 9.84375V12.6609Z" fill="#5C5C5C"/>
</svg>
