<svg width="24" height="24" viewBox="0 0 24 24" fill="none" xmlns="http://www.w3.org/2000/svg">
<path d="M20.7572 15.512C19.9759 14.1296 19.561 12.1454 19.561 9.77778C19.561 7.71498 18.7644 5.73667 17.3465 4.27806C15.9286 2.81944 14.0055 2 12.0002 2C9.99499 2 8.07188 2.81944 6.65396 4.27806C5.23605 5.73667 4.43947 7.71498 4.43947 9.77778C4.43947 12.1463 4.02633 14.1296 3.24505 15.512C3.08562 15.794 3.00112 16.1141 3.00001 16.4403C2.99891 16.7665 3.08124 17.0873 3.23875 17.3704C3.39526 17.6536 3.62242 17.8888 3.89679 18.0515C4.17116 18.2143 4.48279 18.2988 4.7995 18.2963H19.201C19.5172 18.2983 19.8283 18.2136 20.1021 18.0508C20.376 17.8881 20.6027 17.6532 20.759 17.3704C20.9172 17.0877 21.0003 16.7671 21 16.441C20.9997 16.1148 20.916 15.7944 20.7572 15.512ZM5.39896 16.0741C6.19554 14.4074 6.59969 12.2907 6.59969 9.77778C6.59969 8.30435 7.16867 6.89128 8.18147 5.84941C9.19427 4.80754 10.5679 4.22222 12.0002 4.22222C13.4325 4.22222 14.8062 4.80754 15.819 5.84941C16.8318 6.89128 17.4008 8.30435 17.4008 9.77778C17.4008 12.2898 17.804 14.4074 18.6006 16.0741H5.39896ZM15.9606 20.8889C15.9606 21.1836 15.8468 21.4662 15.6443 21.6746C15.4417 21.8829 15.167 22 14.8805 22H9.11994C8.83348 22 8.55875 21.8829 8.35619 21.6746C8.15363 21.4662 8.03983 21.1836 8.03983 20.8889C8.03983 20.5942 8.15363 20.3116 8.35619 20.1032C8.55875 19.8948 8.83348 19.7778 9.11994 19.7778H14.8805C15.167 19.7778 15.4417 19.8948 15.6443 20.1032C15.8468 20.3116 15.9606 20.5942 15.9606 20.8889Z" fill="#5C5C5C"/>
</svg>
