<svg width="24" height="24" viewBox="0 0 24 24" fill="none" xmlns="http://www.w3.org/2000/svg">
<path d="M20.3325 19.4934L5.3325 2.99344C5.2337 2.88207 5.11379 2.79142 4.9797 2.72674C4.84561 2.66206 4.70002 2.62464 4.55136 2.61664C4.4027 2.60864 4.25394 2.63023 4.11369 2.68015C3.97343 2.73007 3.84448 2.80733 3.73431 2.90746C3.62414 3.00758 3.53493 3.12858 3.47186 3.26343C3.4088 3.39828 3.37312 3.54431 3.36691 3.69306C3.36069 3.8418 3.38406 3.99029 3.43566 4.12994C3.48726 4.26958 3.56606 4.3976 3.6675 4.50656L5.055 6.03375C4.44229 7.17647 4.12275 8.45338 4.125 9.75C4.125 12.1481 3.69469 14.1562 2.88094 15.5559C2.71517 15.8416 2.62748 16.1658 2.62665 16.4961C2.62583 16.8264 2.71191 17.151 2.87625 17.4375C3.03896 17.7241 3.27524 17.9622 3.56068 18.127C3.84613 18.2918 4.1704 18.3774 4.5 18.375H16.275L18.6675 21.0066C18.8692 21.2232 19.1482 21.3517 19.444 21.364C19.7397 21.3764 20.0285 21.2717 20.2475 21.0726C20.4666 20.8735 20.5984 20.5961 20.6143 20.3005C20.6302 20.0048 20.529 19.7149 20.3325 19.4934ZM5.12625 16.125C5.955 14.4375 6.375 12.2944 6.375 9.75C6.37425 9.10163 6.4859 8.45804 6.705 7.84781L14.2294 16.125H5.12625ZM16.125 21C16.125 21.2984 16.0065 21.5845 15.7955 21.7955C15.5845 22.0065 15.2984 22.125 15 22.125H9C8.70163 22.125 8.41548 22.0065 8.2045 21.7955C7.99352 21.5845 7.875 21.2984 7.875 21C7.875 20.7016 7.99352 20.4155 8.2045 20.2045C8.41548 19.9935 8.70163 19.875 9 19.875H15C15.2984 19.875 15.5845 19.9935 15.7955 20.2045C16.0065 20.4155 16.125 20.7016 16.125 21ZM8.33344 3.97031C8.27582 3.83427 8.24556 3.68821 8.24438 3.54048C8.24321 3.39274 8.27115 3.24622 8.3266 3.10928C8.38206 2.97235 8.46394 2.84767 8.56758 2.74238C8.67122 2.63709 8.79458 2.55324 8.93062 2.49562C10.1281 1.9888 11.4325 1.7864 12.7273 1.90649C14.0221 2.02659 15.267 2.46544 16.3509 3.18387C17.4347 3.9023 18.3238 4.87795 18.9388 6.0237C19.5537 7.16945 19.8754 8.44965 19.875 9.75C19.875 11.5013 20.0981 13.0247 20.5378 14.2762C20.5871 14.4156 20.6084 14.5633 20.6005 14.7109C20.5927 14.8585 20.5559 15.0031 20.4921 15.1365C20.4284 15.2699 20.3391 15.3894 20.2291 15.4882C20.1192 15.587 19.9909 15.6633 19.8516 15.7125C19.7122 15.7617 19.5645 15.7831 19.4169 15.7752C19.2693 15.7674 19.1247 15.7306 18.9913 15.6668C18.8579 15.6031 18.7384 15.5137 18.6396 15.4038C18.5408 15.2939 18.4646 15.1656 18.4153 15.0262C17.8903 13.53 17.625 11.7563 17.625 9.75C17.6253 8.82118 17.3957 7.90673 16.9565 7.08829C16.5174 6.26985 15.8824 5.57289 15.1082 5.05965C14.3341 4.54641 13.4449 4.23285 12.5201 4.14697C11.5952 4.06109 10.6635 4.20557 9.80812 4.5675C9.67208 4.62512 9.52602 4.65538 9.37829 4.65655C9.23055 4.65772 9.08403 4.62979 8.9471 4.57433C8.81016 4.51888 8.68548 4.43699 8.58019 4.33335C8.4749 4.22972 8.39105 4.10635 8.33344 3.97031Z" fill="#5C5C5C"/>
</svg>
