<svg width="24" height="24" viewBox="0 0 24 24" fill="none" xmlns="http://www.w3.org/2000/svg">
<path d="M5.00975 3C5.56203 3 6.00975 3.44772 6.00975 4C6.00975 4.55228 5.56203 5 5.00975 5C4.45746 5 3.99998 4.55228 3.99998 4C3.99998 3.44772 4.45746 3 5.00975 3Z" fill="#5C5C5C"/>
<path d="M21.0097 7C21.562 7 22.0097 7.44772 22.0097 8C22.0097 8.55228 21.562 9 21.0097 9C20.4575 9 20 8.55228 20 8C20 7.44772 20.4575 7 21.0097 7Z" fill="#5C5C5C"/>
<path d="M15.0097 2C15.562 2 16.0097 2.44772 16.0097 3C16.0097 3.55228 15.562 4 15.0097 4C14.4575 4 14 3.55228 14 3C14 2.44772 14.4575 2 15.0097 2Z" fill="#5C5C5C"/>
<path d="M19.0097 18C19.562 18 20.0097 18.4477 20.0097 19C20.0097 19.5523 19.562 20 19.0097 20C18.4575 20 18 19.5523 18 19C18 18.4477 18.4575 18 19.0097 18Z" fill="#5C5C5C"/>
<path d="M20.6826 2.05176C21.2063 1.87648 21.7729 2.15894 21.9482 2.68262C22.1235 3.2063 21.841 3.7729 21.3174 3.94824L19.3574 4.60449C19.0194 4.71709 18.7296 4.94438 18.54 5.24609C18.3506 5.54766 18.2712 5.90557 18.3164 6.25879L18.3183 6.27051L18.334 6.51953C18.3429 7.75471 17.3466 8.81229 16.0566 8.8125H15.7236C15.4394 8.81255 15.2139 9.00808 15.166 9.25977L14.9805 10.1943C14.8731 10.736 14.3474 11.0878 13.8056 10.9805C13.2639 10.8731 12.9122 10.3474 13.0195 9.80566L13.2031 8.87793C13.4381 7.66369 14.5055 6.81255 15.7236 6.8125H16.0566C16.2 6.8123 16.3179 6.70165 16.332 6.5625V6.50098C16.2312 5.69183 16.4128 4.87232 16.8467 4.18164C17.2827 3.48766 17.946 2.96609 18.7236 2.70703L20.6826 2.05176Z" fill="#5C5C5C"/>
<path d="M17.7744 13.8281C17.9975 12.5249 19.3238 11.6796 20.5976 12.1123L20.7207 12.1582L21.3818 12.4316C21.8922 12.6427 22.1349 13.2279 21.9238 13.7383C21.7257 14.2165 21.1993 14.46 20.7139 14.3145L20.6181 14.2793L19.9658 14.0098C19.926 13.9942 19.8851 13.9965 19.8418 14.0215C19.7965 14.0476 19.7582 14.0953 19.7461 14.166C19.579 15.2035 18.6899 15.9999 17.6162 16H17C16.4477 16 16 15.5523 16 15C16 14.4477 16.4477 14 17 14H17.6162C17.6725 13.9999 17.7554 13.9507 17.7715 13.8457C17.7724 13.8399 17.7734 13.8339 17.7744 13.8281Z" fill="#5C5C5C"/>
<path d="M7.99998 8V7.23047C7.99998 6.2104 8.61799 5.04993 9.79393 4.82324C9.79689 4.82261 9.81174 4.81795 9.83787 4.79492C9.86605 4.77001 9.90373 4.72435 9.93651 4.65332C10.0039 4.50718 10.0231 4.31423 9.9658 4.13379L9.6953 3.31445L9.66795 3.21582C9.55794 2.72094 9.83849 2.21354 10.3301 2.05078C10.8217 1.8881 11.3497 2.12798 11.5566 2.59082L11.5937 2.68555L11.8652 3.50586C12.0856 4.18397 12.0239 4.90365 11.7529 5.49121C11.4837 6.07466 10.9623 6.61785 10.2119 6.77832C10.2013 6.78059 10.1904 6.78128 10.1797 6.7832C10.1902 6.78028 10.1566 6.78505 10.1055 6.8584C10.0487 6.93975 9.99998 7.07141 9.99998 7.23047V8C9.99998 8.55228 9.55227 9 8.99998 9C8.4477 9 7.99998 8.55228 7.99998 8Z" fill="#5C5C5C"/>
<path fill-rule="evenodd" clip-rule="evenodd" d="M7.41502 16.585C6.93649 16.1064 6.51283 15.6009 6.15942 15.0921L4.64451 19.3564L8.91363 17.8445C8.40289 17.4903 7.89534 17.0653 7.41502 16.585ZM11.6698 18.9898L3.33397 21.9424C2.97057 22.0711 2.56554 21.9796 2.29295 21.707C2.02037 21.4342 1.92854 21.0285 2.0576 20.665L5.01164 12.3479C5.00345 12.2543 4.99942 12.161 4.99998 12.0684C5.00308 11.5636 5.14725 11.007 5.57713 10.5771C5.62156 10.5327 5.66735 10.4913 5.71428 10.4529C6.02881 10.195 6.39526 10.0669 6.75433 10.0208C6.86015 10.0071 6.96532 10.0006 7.06834 10C7.56689 9.99699 8.08375 10.1268 8.5742 10.3232C9.55885 10.7177 10.6261 11.4562 11.5849 12.415C12.5438 13.3738 13.2823 14.4411 13.6767 15.4258C13.8732 15.9162 14.003 16.4331 14 16.9316C13.9993 17.0367 13.9926 17.144 13.9784 17.2519C13.9305 17.6166 13.798 17.9886 13.5304 18.3058C13.4968 18.3457 13.4609 18.3848 13.4228 18.4229C12.993 18.8527 12.4364 18.9969 11.9316 19C11.8448 19.0005 11.7575 18.997 11.6698 18.9898ZM11.8203 16.1699C11.9164 16.41 11.9668 16.606 11.9878 16.7558C11.9966 16.8187 12.0003 16.8735 12 16.9199C11.9998 16.9503 11.9967 16.9739 11.9944 16.992L11.9798 16.9941C11.9633 16.9967 11.9429 16.9999 11.9199 17C11.8174 17.0006 11.6744 16.982 11.4928 16.9311C11.396 16.904 11.2883 16.8677 11.1699 16.8203C10.4915 16.5486 9.64362 15.9854 8.82908 15.1709C8.01455 14.3564 7.45142 13.5085 7.17967 12.8301C7.13449 12.7173 7.09943 12.6142 7.07277 12.521C7.01889 12.3328 6.99934 12.1852 6.99998 12.0801C7.00019 12.048 7.00245 12.0234 7.00487 12.0049C7.02334 12.0025 7.04796 12.0002 7.08006 12C7.12871 11.9997 7.18644 12.0037 7.25308 12.0135C7.40174 12.0352 7.59472 12.0854 7.83006 12.1797C8.5085 12.4514 9.35634 13.0146 10.1709 13.8291C10.9854 14.6436 11.5485 15.4915 11.8203 16.1699Z" fill="#5C5C5C"/>
</svg>
