<svg width="24" height="24" viewBox="0 0 24 24" fill="none" xmlns="http://www.w3.org/2000/svg">
<path d="M12 2C9.43639 2.00731 6.97349 2.99891 5.12 4.77V3C5.12 2.73478 5.01464 2.48043 4.82711 2.29289C4.63957 2.10536 4.38522 2 4.12 2C3.85478 2 3.60043 2.10536 3.41289 2.29289C3.22536 2.48043 3.12 2.73478 3.12 3V7.5C3.12 7.76522 3.22536 8.01957 3.41289 8.20711C3.60043 8.39464 3.85478 8.5 4.12 8.5H8.62C8.88522 8.5 9.13957 8.39464 9.32711 8.20711C9.51464 8.01957 9.62 7.76522 9.62 7.5C9.62 7.23478 9.51464 6.98043 9.32711 6.79289C9.13957 6.60536 8.88522 6.5 8.62 6.5H6.22C7.50578 5.15636 9.21951 4.30265 11.0665 4.08567C12.9136 3.86868 14.7785 4.30198 16.3407 5.31104C17.9028 6.32011 19.0646 7.84191 19.6263 9.61479C20.188 11.3877 20.1145 13.3009 19.4184 15.0254C18.7223 16.7499 17.4472 18.1781 15.8122 19.0643C14.1772 19.9505 12.2845 20.2394 10.4596 19.8813C8.63463 19.5232 6.99147 18.5405 5.81259 17.1022C4.63372 15.6638 3.99279 13.8597 4 12C4 11.7348 3.89464 11.4804 3.70711 11.2929C3.51957 11.1054 3.26522 11 3 11C2.73478 11 2.48043 11.1054 2.29289 11.2929C2.10536 11.4804 2 11.7348 2 12C2 13.9778 2.58649 15.9112 3.6853 17.5557C4.78412 19.2002 6.3459 20.4819 8.17317 21.2388C10.0004 21.9957 12.0111 22.1937 13.9509 21.8079C15.8907 21.422 17.6725 20.4696 19.0711 19.0711C20.4696 17.6725 21.422 15.8907 21.8079 13.9509C22.1937 12.0111 21.9957 10.0004 21.2388 8.17317C20.4819 6.3459 19.2002 4.78412 17.5557 3.6853C15.9112 2.58649 13.9778 2 12 2Z" fill="#5C5C5C"/>
<path d="M16.7709 9.20257C16.7048 9.13838 16.6261 9.08744 16.5394 9.05267C16.4527 9.0179 16.3597 9 16.2657 9C16.1718 9 16.0788 9.0179 15.9921 9.05267C15.9054 9.08744 15.8267 9.13838 15.7605 9.20257L10.4595 14.3114L8.23235 12.161C8.16367 12.0972 8.08259 12.047 7.99375 12.0133C7.90491 11.9796 7.81005 11.963 7.71457 11.9646C7.61909 11.9662 7.52488 11.9859 7.4373 12.0225C7.34972 12.0592 7.2705 12.112 7.20416 12.1781C7.13782 12.2442 7.08565 12.3223 7.05064 12.4078C7.01563 12.4933 6.99846 12.5846 7.00011 12.6765C7.00176 12.7684 7.0222 12.859 7.06027 12.9433C7.09833 13.0276 7.15327 13.1039 7.22195 13.1677L9.95429 15.7974C10.0204 15.8616 10.0991 15.9126 10.1858 15.9473C10.2726 15.9821 10.3656 16 10.4595 16C10.5534 16 10.6464 15.9821 10.7331 15.9473C10.8198 15.9126 10.8985 15.8616 10.9647 15.7974L16.7709 10.2093C16.8432 10.1451 16.9008 10.0673 16.9402 9.98067C16.9796 9.89404 17 9.80049 17 9.70592C17 9.61134 16.9796 9.51779 16.9402 9.43116C16.9008 9.34453 16.8432 9.2667 16.7709 9.20257Z" fill="#5C5C5C"/>
</svg>
