<svg width="24" height="24" viewBox="0 0 24 24" fill="none" xmlns="http://www.w3.org/2000/svg">
<path d="M19 17.4999V15.4999C19 14.7043 18.6837 13.9414 18.1211 13.3788C17.6289 12.8866 16.9835 12.5828 16.2969 12.5146L16 12.4999H6.41405L9.70702 15.7929C10.0975 16.1834 10.0975 16.8164 9.70702 17.207C9.31649 17.5975 8.68348 17.5975 8.29295 17.207L3.29295 12.207C2.90243 11.8164 2.90243 11.1834 3.29295 10.7929L8.29295 5.79289C8.68348 5.40237 9.31649 5.40237 9.70702 5.79289C10.0975 6.18342 10.0975 6.81643 9.70702 7.20696L6.41405 10.4999H16C17.3261 10.4999 18.5975 11.0271 19.5351 11.9648C20.4728 12.9025 21 14.1738 21 15.4999V17.4999C21 18.0522 20.5523 18.4999 20 18.4999C19.4477 18.4999 19 18.0522 19 17.4999Z" fill="#5C5C5C"/>
</svg>
