<svg width="24" height="24" viewBox="0 0 24 24" fill="none" xmlns="http://www.w3.org/2000/svg">
<path d="M12 2C9.43639 2.00731 6.97349 2.99891 5.12 4.77V3C5.12 2.73478 5.01464 2.48043 4.82711 2.29289C4.63957 2.10536 4.38522 2 4.12 2C3.85478 2 3.60043 2.10536 3.41289 2.29289C3.22536 2.48043 3.12 2.73478 3.12 3V7.5C3.12 7.76522 3.22536 8.01957 3.41289 8.20711C3.60043 8.39464 3.85478 8.5 4.12 8.5H8.62C8.88522 8.5 9.13957 8.39464 9.32711 8.20711C9.51464 8.01957 9.62 7.76522 9.62 7.5C9.62 7.23478 9.51464 6.98043 9.32711 6.79289C9.13957 6.60536 8.88522 6.5 8.62 6.5H6.22C7.50578 5.15636 9.21951 4.30265 11.0665 4.08567C12.9136 3.86868 14.7785 4.30198 16.3407 5.31104C17.9028 6.32011 19.0646 7.84191 19.6263 9.61479C20.188 11.3877 20.1145 13.3009 19.4184 15.0254C18.7223 16.7499 17.4472 18.1781 15.8122 19.0643C14.1772 19.9505 12.2845 20.2394 10.4596 19.8813C8.63463 19.5232 6.99147 18.5405 5.81259 17.1022C4.63372 15.6638 3.99279 13.8597 4 12C4 11.7348 3.89464 11.4804 3.70711 11.2929C3.51957 11.1054 3.26522 11 3 11C2.73478 11 2.48043 11.1054 2.29289 11.2929C2.10536 11.4804 2 11.7348 2 12C2 13.9778 2.58649 15.9112 3.6853 17.5557C4.78412 19.2002 6.3459 20.4819 8.17317 21.2388C10.0004 21.9957 12.0111 22.1937 13.9509 21.8079C15.8907 21.422 17.6725 20.4696 19.0711 19.0711C20.4696 17.6725 21.422 15.8907 21.8079 13.9509C22.1937 12.0111 21.9957 10.0004 21.2388 8.17317C20.4819 6.3459 19.2002 4.78412 17.5557 3.6853C15.9112 2.58649 13.9778 2 12 2Z" fill="#5C5C5C"/>
</svg>
