<svg width="24" height="24" viewBox="0 0 24 24" fill="none" xmlns="http://www.w3.org/2000/svg">
<path d="M16.9126 2.12862C16.7908 2.04479 16.6471 2 16.5 2C16.3529 2 16.2092 2.04479 16.0874 2.12862C15.9621 2.2186 13 4.30334 13 7.43795C13 8.38266 13.3687 9.28868 14.0251 9.9567C14.6815 10.6247 15.5717 11 16.5 11C17.4283 11 18.3185 10.6247 18.9749 9.9567C19.6313 9.28868 20 8.38266 20 7.43795C20 4.25085 17.0526 2.2111 16.9126 2.12862ZM16.5 9.50019C16.2339 9.50019 15.9704 9.44685 15.7246 9.34321C15.4787 9.23957 15.2553 9.08767 15.0672 8.89617C14.879 8.70468 14.7298 8.47734 14.6279 8.22713C14.5261 7.97693 14.4737 7.70877 14.4737 7.43795C14.4737 5.70567 15.8074 4.31084 16.5074 3.68842C17.2 4.28084 18.5263 5.66067 18.5263 7.43795C18.5263 7.70877 18.4739 7.97693 18.3721 8.22713C18.2702 8.47734 18.121 8.70468 17.9328 8.89617C17.7447 9.08767 17.5213 9.23957 17.2754 9.34321C17.0296 9.44685 16.7661 9.50019 16.5 9.50019Z" fill="#5C5C5C"/>
<path fill-rule="evenodd" clip-rule="evenodd" d="M14.7899 16.2151C15.3118 16.0441 15.6913 15.6454 15.8523 15.1688L20.3081 14.5762C20.385 14.566 20.4585 14.611 20.483 14.6834C20.5093 14.761 20.4714 14.8456 20.3954 14.8788L12.495 18.3309C12.3343 18.4012 12.1603 18.4374 11.9845 18.4374H8.70136L6.28378 16.0606L8.80222 14.6458C8.99214 14.5391 9.2071 14.4829 9.42585 14.4829H14.2592C14.3323 14.4829 14.3972 14.5289 14.4203 14.5971C14.45 14.6846 14.4019 14.7791 14.3129 14.8083L12.4824 15.4081C12.3542 15.4501 12.22 15.4716 12.0849 15.4716H9.76437C9.34785 15.4716 9.01019 15.8035 9.01019 16.213C9.01019 16.6225 9.34785 16.9545 9.76437 16.9545H12.0849C12.3821 16.9545 12.6774 16.9074 12.9594 16.815L14.7899 16.2151ZM15.6326 13.7016C15.3241 13.2697 14.8157 13 14.2592 13H9.42585C8.9446 13 8.47169 13.1235 8.05386 13.3582L5.17424 14.976C4.97713 14.8279 4.69415 14.8425 4.51394 15.0197L2.14726 17.3464C1.95091 17.5395 1.95091 17.8525 2.14726 18.0455L6.0223 21.8552C6.21865 22.0483 6.53699 22.0483 6.73335 21.8552L8.70136 19.9204H11.9845C12.3714 19.9204 12.754 19.8405 13.1076 19.6861L21.008 16.234C21.7938 15.8906 22.1859 15.0166 21.914 14.2145C21.6603 13.4661 20.901 13.0009 20.1059 13.1067L15.6326 13.7016ZM7.14463 19.0041L5.04722 16.9421C4.94905 16.8456 4.78987 16.8456 4.6917 16.9421L4.10265 17.5212C4.00447 17.6177 4.00447 17.7742 4.10265 17.8707L6.20006 19.9328C6.29823 20.0293 6.45741 20.0293 6.55558 19.9328L7.14463 19.3537C7.24281 19.2572 7.24281 19.1007 7.14463 19.0041Z" fill="#5C5C5C"/>
</svg>
