<svg width="24" height="24" viewBox="0 0 24 24" fill="none" xmlns="http://www.w3.org/2000/svg">
<path fill-rule="evenodd" clip-rule="evenodd" d="M2.08087 5.10608C2.29842 4.59845 2.8863 4.3633 3.39393 4.58086L7.2398 6.22908L11.2282 14.5685C11.4665 15.0668 11.2558 15.6638 10.7576 15.9021C10.2593 16.1404 9.66225 15.9297 9.42396 15.4315L5.76023 7.77092L2.60609 6.41915C2.09846 6.20159 1.86331 5.61371 2.08087 5.10608ZM21.9138 14.0939C22.1381 14.5985 21.9108 15.1895 21.4062 15.4138L15.6417 17.9758C15.137 18.2001 14.546 17.9728 14.3217 17.4681C14.0974 16.9634 14.3247 16.3725 14.8294 16.1482L20.5939 13.5862C21.0986 13.3619 21.6895 13.5892 21.9138 14.0939Z" fill="#5C5C5C"/>
<path fill-rule="evenodd" clip-rule="evenodd" d="M12 22C14.2092 22 16 20.2091 16 18C16 15.7909 14.2092 14 12 14C9.79087 14 8.00001 15.7909 8.00001 18C8.00001 20.2091 9.79087 22 12 22ZM12 20C13.1046 20 14 19.1046 14 18C14 16.8954 13.1046 16 12 16C10.8954 16 10 16.8954 10 18C10 19.1046 10.8954 20 12 20Z" fill="#5C5C5C"/>
<path d="M9.41773 4.08286L13.1601 2.38178C13.6345 2.16614 14.195 2.35096 14.4481 2.8065L15.98 5.56395C16.2613 6.07024 16.0549 6.70885 15.5306 6.95488L11.6026 8.7981C11.1012 9.03339 10.504 8.81629 10.2708 8.31392L8.92452 5.41434C8.69063 4.91056 8.91209 4.3127 9.41773 4.08286Z" fill="#5C5C5C"/>
<path fill-rule="evenodd" clip-rule="evenodd" d="M18.6569 6.89026L12.1187 9.9168C11.6171 10.149 11.399 10.7441 11.6318 11.2454L12.456 13.0205C13.4935 13.1143 14.4396 13.5251 15.1967 14.1552L21.0242 11.4526C21.5512 11.2081 21.7598 10.5676 21.4776 10.0597L19.9512 7.3121C19.6968 6.85425 19.1323 6.67024 18.6569 6.89026Z" fill="#5C5C5C"/>
</svg>
