<svg width="22" height="22" viewBox="0 0 22 22" xmlns="http://www.w3.org/2000/svg">
<path fill-rule="evenodd" clip-rule="evenodd" d="M18.333 9.16658H3.66634V7.33325H18.333V9.16658Z"/>
<path fill-rule="evenodd" clip-rule="evenodd" d="M15.583 1.83325C16.0893 1.83325 16.4997 2.24366 16.4997 2.74992V3.66659C16.4997 4.17285 16.0893 4.58325 15.583 4.58325C15.0767 4.58325 14.6663 4.17285 14.6663 3.66659V2.74992C14.6663 2.24366 15.0767 1.83325 15.583 1.83325Z"/>
<path fill-rule="evenodd" clip-rule="evenodd" d="M7.33301 2.74992C7.33301 2.24366 6.9226 1.83325 6.41634 1.83325C5.91008 1.83325 5.49967 2.24366 5.49967 2.74992V3.66659H4.58301C3.06422 3.66659 1.83301 4.8978 1.83301 6.41658V17.4166C1.83301 18.9354 3.06422 20.1666 4.58301 20.1666H17.4163C18.9351 20.1666 20.1663 18.9354 20.1663 17.4166V6.41658C20.1663 4.8978 18.9351 3.66659 17.4163 3.66659H7.33301V2.74992ZM7.33301 3.66659C7.33301 4.17285 6.9226 4.58325 6.41634 4.58325C5.91008 4.58325 5.49967 4.17285 5.49967 3.66659H7.33301ZM3.66634 6.41658C3.66634 5.91032 4.07675 5.49992 4.58301 5.49992H17.4163C17.9226 5.49992 18.333 5.91032 18.333 6.41658V17.4166C18.333 17.9228 17.9226 18.3333 17.4163 18.3333H4.58301C4.07675 18.3333 3.66634 17.9228 3.66634 17.4166V6.41658Z"/>
<path d="M7.33301 3.66659H5.49967C5.49967 4.17285 5.91008 4.58325 6.41634 4.58325C6.9226 4.58325 7.33301 4.17285 7.33301 3.66659Z"/>
</svg>
