<svg width="18" height="19" viewBox="0 0 18 19" xmlns="http://www.w3.org/2000/svg">
<path fill-rule="evenodd" clip-rule="evenodd" d="M14.0303 17.2802C13.9347 17.5237 13.7892 17.7462 13.6004 17.9351C13.2388 18.2967 12.7478 18.5 12.2367 18.5H1.95103C1.43996 18.5 0.948977 18.2967 0.587373 17.9351C0.225768 17.5735 0.0224609 17.0833 0.0224609 16.5714V2.42857C0.0224609 1.91669 0.225764 1.42652 0.587373 1.06491C0.948977 0.703307 1.43996 0.5 1.95103 0.5H12.2367C12.7478 0.5 13.2388 0.703303 13.6004 1.06491C13.962 1.42652 14.1653 1.91669 14.1653 2.42857V5.6445C13.0909 4.83611 11.7546 4.35718 10.3082 4.35718C9.42585 4.35718 8.58451 4.53558 7.81862 4.85781C7.96487 4.73969 8.05809 4.55969 8.05809 4.35718C8.05809 4.002 7.76962 3.71433 7.41524 3.71433H3.23677C2.88238 3.71433 2.59391 4.002 2.59391 4.35718C2.59391 4.71237 2.88238 5.00004 3.23677 5.00004H7.41524C7.4522 5.00004 7.48836 4.99683 7.52372 4.9912C6.8479 5.31664 6.238 5.75701 5.7189 6.28576H3.23675C2.88237 6.28576 2.5939 6.57343 2.5939 6.92862C2.5939 7.28381 2.88237 7.57148 3.23675 7.57148H4.74104C4.50721 7.97486 4.31675 8.40559 4.17452 8.85719H3.23675C2.88237 8.85719 2.5939 9.14486 2.5939 9.50005C2.5939 9.85523 2.88237 10.1429 3.23675 10.1429H3.91094C3.89005 10.3542 3.8796 10.5688 3.8796 10.7858C3.8796 11.0027 3.89005 11.2173 3.91094 11.4286H3.23675C2.88237 11.4286 2.5939 11.7163 2.5939 12.0715C2.5939 12.4267 2.88237 12.7143 3.23675 12.7143H4.17452C4.31676 13.1659 4.50721 13.5967 4.74104 14H3.23675C2.88237 14 2.5939 14.2877 2.5939 14.6429C2.5939 14.9981 2.88237 15.2858 3.23675 15.2858H5.7189C6.88569 16.4759 8.51127 17.2143 10.3082 17.2143C11.3689 17.2143 12.3694 16.9572 13.2517 16.5016L14.0303 17.2802ZM15.2646 14.8774L17.7901 17.4022C18.0409 17.6529 18.0409 18.0611 17.7901 18.3118C17.5386 18.5625 17.1312 18.5625 16.8805 18.3118L14.3508 15.7821C14.6851 15.5121 14.9914 15.2085 15.2646 14.8774ZM10.3081 5.64271C13.1464 5.64271 15.451 7.94733 15.451 10.7856C15.451 13.6238 13.1464 15.9284 10.3081 15.9284C7.46987 15.9284 5.16526 13.6238 5.16526 10.7856C5.16526 7.94733 7.46987 5.64271 10.3081 5.64271ZM8.16663 11.5216L9.57207 12.9279C9.70064 13.0564 9.87743 13.1239 10.059 13.1151C10.2406 13.1063 10.4094 13.0211 10.5243 12.8797L13.0556 9.78674C13.2806 9.51192 13.2396 9.10611 12.9656 8.88192C12.6908 8.65691 12.285 8.69791 12.0608 8.97192L9.97959 11.5168L9.07477 10.612C8.82405 10.3613 8.41745 10.3613 8.16673 10.612C7.9152 10.8635 7.9151 11.2701 8.16663 11.5216Z"/>
</svg>
