<svg width="18" height="19" viewBox="0 0 18 19" xmlns="http://www.w3.org/2000/svg">
<path d="M12.771 0.5H5.229C1.953 0.5 0 2.453 0 5.729V13.271C0 16.547 1.953 18.5 5.229 18.5H12.771C16.047 18.5 18 16.547 18 13.271V5.729C18 2.453 16.047 0.5 12.771 0.5ZM7.173 12.11L5.148 14.135C5.013 14.27 4.842 14.333 4.671 14.333C4.5 14.333 4.32 14.27 4.194 14.135L3.519 13.46C3.249 13.199 3.249 12.767 3.519 12.506C3.78 12.245 4.203 12.245 4.473 12.506L4.671 12.704L6.219 11.156C6.48 10.895 6.903 10.895 7.173 11.156C7.434 11.417 7.434 11.849 7.173 12.11ZM7.173 5.81L5.148 7.835C5.013 7.97 4.842 8.033 4.671 8.033C4.5 8.033 4.32 7.97 4.194 7.835L3.519 7.16C3.249 6.899 3.249 6.467 3.519 6.206C3.78 5.945 4.203 5.945 4.473 6.206L4.671 6.404L6.219 4.856C6.48 4.595 6.903 4.595 7.173 4.856C7.434 5.117 7.434 5.549 7.173 5.81ZM14.004 13.658H9.279C8.91 13.658 8.604 13.352 8.604 12.983C8.604 12.614 8.91 12.308 9.279 12.308H14.004C14.183 12.308 14.3547 12.3791 14.4813 12.5057C14.6079 12.6323 14.679 12.804 14.679 12.983C14.679 13.162 14.6079 13.3337 14.4813 13.4603C14.3547 13.5869 14.183 13.658 14.004 13.658ZM14.004 7.358H9.279C8.91 7.358 8.604 7.052 8.604 6.683C8.604 6.314 8.91 6.008 9.279 6.008H14.004C14.183 6.008 14.3547 6.07912 14.4813 6.2057C14.6079 6.33229 14.679 6.50398 14.679 6.683C14.679 6.86202 14.6079 7.03371 14.4813 7.1603C14.3547 7.28688 14.183 7.358 14.004 7.358Z"/>
</svg>
