<svg width="22" height="22" viewBox="0 0 22 22" xmlns="http://www.w3.org/2000/svg">
<path d="M15.5837 3.66659H14.667C14.667 3.18035 14.4738 2.71404 14.13 2.37022C13.7862 2.02641 13.3199 1.83325 12.8337 1.83325H9.16699C8.68076 1.83325 8.21445 2.02641 7.87063 2.37022C7.52681 2.71404 7.33366 3.18035 7.33366 3.66659H6.41699C5.68765 3.66659 4.98817 3.95632 4.47245 4.47204C3.95672 4.98777 3.66699 5.68724 3.66699 6.41658V17.4166C3.66699 18.1459 3.95672 18.8454 4.47245 19.3611C4.98817 19.8769 5.68765 20.1666 6.41699 20.1666H15.5837C16.313 20.1666 17.0125 19.8769 17.5282 19.3611C18.0439 18.8454 18.3337 18.1459 18.3337 17.4166V6.41658C18.3337 5.68724 18.0439 4.98777 17.5282 4.47204C17.0125 3.95632 16.313 3.66659 15.5837 3.66659ZM9.16699 3.66659H12.8337V4.58325V5.49992H9.16699V3.66659ZM16.5003 17.4166C16.5003 17.6597 16.4037 17.8929 16.2318 18.0648C16.0599 18.2367 15.8268 18.3333 15.5837 18.3333H6.41699C6.17388 18.3333 5.94072 18.2367 5.76881 18.0648C5.5969 17.8929 5.50033 17.6597 5.50033 17.4166V6.41658C5.50033 6.17347 5.5969 5.94031 5.76881 5.7684C5.94072 5.5965 6.17388 5.49992 6.41699 5.49992H7.33366C7.33366 5.98615 7.52681 6.45246 7.87063 6.79628C8.21445 7.1401 8.68076 7.33325 9.16699 7.33325H12.8337C13.3199 7.33325 13.7862 7.1401 14.13 6.79628C14.4738 6.45246 14.667 5.98615 14.667 5.49992H15.5837C15.8268 5.49992 16.0599 5.5965 16.2318 5.7684C16.4037 5.94031 16.5003 6.17347 16.5003 6.41658V17.4166Z"/>
<path d="M7.33366 10.0833C7.33366 9.57699 7.74406 9.16658 8.25033 9.16658C8.75659 9.16658 9.16699 9.57699 9.16699 10.0833C9.16699 10.5895 8.75659 10.9999 8.25033 10.9999C7.74406 10.9999 7.33366 10.5895 7.33366 10.0833Z"/>
<path d="M10.0837 10.0833C10.0837 9.57699 10.4941 9.16658 11.0003 9.16658H13.7503C14.2566 9.16658 14.667 9.57699 14.667 10.0833C14.667 10.5895 14.2566 10.9999 13.7503 10.9999H11.0003C10.4941 10.9999 10.0837 10.5895 10.0837 10.0833Z"/>
<path d="M7.33366 12.8333C7.33366 12.327 7.74406 11.9166 8.25033 11.9166C8.75659 11.9166 9.16699 12.327 9.16699 12.8333C9.16699 13.3395 8.75659 13.7499 8.25033 13.7499C7.74406 13.7499 7.33366 13.3395 7.33366 12.8333Z"/>
<path d="M10.0837 12.8333C10.0837 12.327 10.4941 11.9166 11.0003 11.9166H13.7503C14.2566 11.9166 14.667 12.327 14.667 12.8333C14.667 13.3395 14.2566 13.7499 13.7503 13.7499H11.0003C10.4941 13.7499 10.0837 13.3395 10.0837 12.8333Z"/>
<path d="M7.33366 15.5833C7.33366 15.077 7.74406 14.6666 8.25033 14.6666C8.75659 14.6666 9.16699 15.077 9.16699 15.5833C9.16699 16.0895 8.75659 16.4999 8.25033 16.4999C7.74406 16.4999 7.33366 16.0895 7.33366 15.5833Z"/>
<path d="M10.0837 15.5833C10.0837 15.077 10.4941 14.6666 11.0003 14.6666H13.7503C14.2566 14.6666 14.667 15.077 14.667 15.5833C14.667 16.0895 14.2566 16.4999 13.7503 16.4999H11.0003C10.4941 16.4999 10.0837 16.0895 10.0837 15.5833Z"/>
</svg>
