<svg width="22" height="22" viewBox="0 0 22 22" xmlns="http://www.w3.org/2000/svg">
<path d="M11.9163 10.0833H6.41634C6.17323 10.0833 5.94007 10.1798 5.76816 10.3517C5.59625 10.5236 5.49967 10.7568 5.49967 10.9999C5.49967 11.243 5.59625 11.4762 5.76816 11.6481C5.94007 11.82 6.17323 11.9166 6.41634 11.9166H11.9163C12.1595 11.9166 12.3926 11.82 12.5645 11.6481C12.7364 11.4762 12.833 11.243 12.833 10.9999C12.833 10.7568 12.7364 10.5236 12.5645 10.3517C12.3926 10.1798 12.1595 10.0833 11.9163 10.0833ZM15.583 6.41658H6.41634C6.17323 6.41658 5.94007 6.51316 5.76816 6.68507C5.59625 6.85698 5.49967 7.09014 5.49967 7.33325C5.49967 7.57637 5.59625 7.80952 5.76816 7.98143C5.94007 8.15334 6.17323 8.24992 6.41634 8.24992H15.583C15.8261 8.24992 16.0593 8.15334 16.2312 7.98143C16.4031 7.80952 16.4997 7.57637 16.4997 7.33325C16.4997 7.09014 16.4031 6.85698 16.2312 6.68507C16.0593 6.51316 15.8261 6.41658 15.583 6.41658ZM17.4163 1.83325H4.58301C3.85366 1.83325 3.15419 2.12298 2.63846 2.63871C2.12274 3.15443 1.83301 3.85391 1.83301 4.58325V13.7499C1.83301 14.4793 2.12274 15.1787 2.63846 15.6945C3.15419 16.2102 3.85366 16.4999 4.58301 16.4999H15.2072L18.5988 19.9008C18.6845 19.9857 18.7861 20.0529 18.8978 20.0985C19.0094 20.1442 19.129 20.1673 19.2497 20.1666C19.3699 20.1697 19.4892 20.1446 19.598 20.0933C19.7654 20.0245 19.9087 19.9077 20.0098 19.7576C20.111 19.6075 20.1654 19.4309 20.1663 19.2499V4.58325C20.1663 3.85391 19.8766 3.15443 19.3609 2.63871C18.8452 2.12298 18.1457 1.83325 17.4163 1.83325ZM18.333 17.0408L16.2338 14.9324C16.1482 14.8475 16.0466 14.7802 15.9349 14.7346C15.8232 14.689 15.7036 14.6659 15.583 14.6666H4.58301C4.33989 14.6666 4.10673 14.57 3.93483 14.3981C3.76292 14.2262 3.66634 13.993 3.66634 13.7499V4.58325C3.66634 4.34014 3.76292 4.10698 3.93483 3.93507C4.10673 3.76316 4.33989 3.66659 4.58301 3.66659H17.4163C17.6595 3.66659 17.8926 3.76316 18.0645 3.93507C18.2364 4.10698 18.333 4.34014 18.333 4.58325V17.0408Z"/>
</svg>
