<svg width="25" height="24" viewBox="0 0 25 24" xmlns="http://www.w3.org/2000/svg">
<path d="M5.17864 19.3405C4.3021 19.3405 3.63516 19.1146 3.17783 18.6627C2.72594 18.2108 2.5 17.5521 2.5 16.6864V7.65414C2.5 6.78304 2.71778 6.12427 3.15333 5.67783C3.58888 5.22594 4.19593 5 4.97448 5H19.8132C20.6952 5 21.3621 5.22594 21.814 5.67783C22.2713 6.12427 22.5 6.78304 22.5 7.65414V16.6864C22.5 17.5521 22.2822 18.2108 21.8467 18.6627C21.4111 19.1146 20.8041 19.3405 20.0255 19.3405H5.17864ZM5.17864 17.8297H19.8132C20.1889 17.8297 20.4801 17.729 20.687 17.5276C20.8939 17.3261 20.9973 17.0321 20.9973 16.6456V7.69498C20.9973 7.30843 20.8939 7.01443 20.687 6.81298C20.4801 6.61154 20.1889 6.51082 19.8132 6.51082H5.17864C4.80298 6.51082 4.51171 6.61154 4.30482 6.81298C4.10338 7.01443 4.00265 7.3057 4.00265 7.68681V16.6374C4.00265 17.0294 4.10338 17.3261 4.30482 17.5276C4.51171 17.729 4.80298 17.8297 5.17864 17.8297ZM12.4959 14.3998C12.2183 14.3998 11.9488 14.348 11.6874 14.2446C11.4315 14.1411 11.1784 13.9751 10.9279 13.7464L3.29216 6.87832L4.27215 5.89016L11.7609 12.6439C11.995 12.8563 12.24 12.9624 12.4959 12.9624C12.7518 12.9624 12.9968 12.8563 13.2309 12.6439L20.7197 5.89016L21.6997 6.87832L14.0639 13.7464C13.8135 13.9751 13.5576 14.1411 13.2962 14.2446C13.0404 14.348 12.7736 14.3998 12.4959 14.3998ZM4.41098 18.1646L3.43099 17.1764L9.20478 11.4026L10.1848 12.3744L4.41098 18.1646ZM20.5972 18.1727L14.8071 12.3744L15.7952 11.4026L21.5772 17.1846L20.5972 18.1727Z"/>
</svg>
