<svg width="22" height="22" viewBox="0 0 22 22" xmlns="http://www.w3.org/2000/svg">
<path d="M2.75 6.41659C2.75 5.91033 3.16041 5.49992 3.66667 5.49992H18.3333C18.8396 5.49992 19.25 5.91033 19.25 6.41659C19.25 6.92285 18.8396 7.33325 18.3333 7.33325H3.66667C3.16041 7.33325 2.75 6.92285 2.75 6.41659Z" />
<path fill-rule="evenodd" clip-rule="evenodd" d="M4.58333 7.33325H6.41667V16.3166C6.41667 16.8451 6.41738 17.1863 6.4386 17.4461C6.45895 17.6951 6.49348 17.7874 6.51658 17.8327C6.60446 18.0052 6.74469 18.1455 6.91718 18.2333C6.9625 18.2564 7.05482 18.291 7.30385 18.3113C7.56358 18.3325 7.90483 18.3333 8.43333 18.3333H13.5667C14.0952 18.3333 14.4364 18.3325 14.6962 18.3113C14.9452 18.291 15.0375 18.2564 15.0828 18.2333C15.2553 18.1455 15.3955 18.0052 15.4834 17.8327C15.5065 17.7874 15.5411 17.6951 15.5614 17.4461C15.5826 17.1863 15.5833 16.8451 15.5833 16.3166V7.33325H17.4167V16.3519C17.4167 16.8351 17.4167 17.252 17.3886 17.5954C17.359 17.9578 17.2937 18.3182 17.1169 18.6651C16.8533 19.1825 16.4326 19.6032 15.9151 19.8669C15.5683 20.0436 15.2078 20.109 14.8454 20.1386C14.5021 20.1666 14.0852 20.1666 13.602 20.1666H8.39802C7.91479 20.1666 7.49792 20.1666 7.15456 20.1386C6.79216 20.109 6.43171 20.0436 6.08486 19.8669C5.56741 19.6032 5.14672 19.1825 4.88307 18.6651C4.70634 18.3182 4.64096 17.9578 4.61136 17.5954C4.5833 17.252 4.58332 16.8351 4.58333 16.3519L4.58333 7.33325Z" />
<path d="M8.25 10.0833C8.25 9.57699 8.66041 9.16659 9.16667 9.16659C9.67293 9.16659 10.0833 9.57699 10.0833 10.0833V15.5833C10.0833 16.0895 9.67293 16.4999 9.16667 16.4999C8.66041 16.4999 8.25 16.0895 8.25 15.5833V10.0833Z" />
<path d="M11.9167 10.0833C11.9167 9.57699 12.3271 9.16659 12.8333 9.16659C13.3396 9.16659 13.75 9.57699 13.75 10.0833V15.5833C13.75 16.0895 13.3396 16.4999 12.8333 16.4999C12.3271 16.4999 11.9167 16.0895 11.9167 15.5833V10.0833Z" />
<path fill-rule="evenodd" clip-rule="evenodd" d="M10.054 1.83325H11.946C12.3481 1.83324 12.695 1.83323 12.9822 1.85282C13.2845 1.87345 13.5869 1.91883 13.8857 2.04258C14.5595 2.32169 15.0949 2.85705 15.374 3.53087C15.4978 3.82964 15.5431 4.13206 15.5638 4.4344C15.5834 4.72155 15.5833 5.0685 15.5833 5.4706V5.49992H13.75C13.75 5.06026 13.7495 4.77643 13.7347 4.5592C13.7204 4.3502 13.696 4.27061 13.6802 4.23246C13.5872 4.00785 13.4087 3.8294 13.1841 3.73636C13.146 3.72056 13.0664 3.69616 12.8574 3.6819C12.6402 3.66708 12.3563 3.66659 11.9167 3.66659H10.0833C9.64368 3.66659 9.35985 3.66708 9.14261 3.6819C8.93361 3.69616 8.85402 3.72056 8.81587 3.73636C8.59126 3.8294 8.41281 4.00785 8.31978 4.23246C8.30398 4.27061 8.27958 4.3502 8.26532 4.5592C8.2505 4.77643 8.25 5.06026 8.25 5.49992H6.41667L6.41667 5.4706C6.41665 5.0685 6.41664 4.72156 6.43624 4.4344C6.45687 4.13206 6.50224 3.82964 6.626 3.53087C6.90511 2.85705 7.44046 2.32169 8.11429 2.04258C8.41305 1.91883 8.71547 1.87345 9.01782 1.85282C9.30497 1.83323 9.65192 1.83324 10.054 1.83325Z" />
</svg>
