<svg width="24" height="24" viewBox="0 0 24 24" xmlns="http://www.w3.org/2000/svg">
<path fill-rule="evenodd" clip-rule="evenodd" d="M11.5755 15.9056C11.7043 15.9662 11.8482 16 12 16C12.1518 16 12.2957 15.9662 12.4245 15.9056C12.1563 16.0314 11.8437 16.0314 11.5755 15.9056Z" />
<path d="M2 19V15C2 14.4477 2.44772 14 3 14C3.55228 14 4 14.4477 4 15V19L4.00488 19.0986C4.02757 19.3276 4.12883 19.5429 4.29297 19.707C4.48051 19.8946 4.73478 20 5 20H19C19.2652 20 19.5195 19.8946 19.707 19.707C19.8946 19.5195 20 19.2652 20 19V15C20 14.4477 20.4477 14 21 14C21.5523 14 22 14.4477 22 15V19C22 19.7957 21.6837 20.5585 21.1211 21.1211C20.5585 21.6837 19.7957 22 19 22H5C4.20435 22 3.44151 21.6837 2.87891 21.1211C2.38671 20.6289 2.08291 19.9835 2.01465 19.2969L2 19Z" />
<path d="M11 3V12.5859L7.70703 9.29297L7.63086 9.22461C7.23809 8.90426 6.65908 8.92685 6.29297 9.29297C5.92685 9.65908 5.90426 10.2381 6.22461 10.6309L6.29297 10.707L11.2826 15.6967L11.293 15.707C11.6835 16.0976 12.3165 16.0976 12.707 15.707L12.7174 15.6967L17.707 10.707L17.7754 10.6309C18.0957 10.2381 18.0731 9.65908 17.707 9.29297C17.3409 8.92685 16.7619 8.90426 16.3691 9.22461L16.293 9.29297L13 12.5859V3C13 2.44772 12.5523 2 12 2C11.4477 2 11 2.44772 11 3Z" />
</svg>
