<svg width="25" height="8" viewBox="0 0 25 8" xmlns="http://www.w3.org/2000/svg">
<path d="M22.1445 17.7743C21.9173 17.2212 21.5717 16.7274 21.1371 16.3126C20.9001 16.0756 20.6235 15.878 20.3371 15.7101C20.6433 15.3447 20.8507 14.9102 20.9495 14.446C21.0482 13.9226 20.989 13.3892 20.7816 12.8954C20.5742 12.4115 20.2285 11.9967 19.7841 11.7004C18.9051 11.1079 17.6903 11.1079 16.8015 11.7004C16.3669 11.9967 16.0213 12.4016 15.8139 12.8954C15.6065 13.3892 15.5472 13.9226 15.646 14.446C15.7348 14.9201 15.9521 15.3546 16.2681 15.7101C15.6163 16.1052 15.0731 16.6583 14.6978 17.32C14.283 18.0212 14.0757 18.8211 14.0855 19.631V20.4902C14.0855 20.8853 14.2337 21.2605 14.5003 21.5371C14.7769 21.8235 15.1522 21.9815 15.5373 21.9914H21.0482C21.4433 21.9914 21.8087 21.8235 22.0852 21.547C22.3519 21.2704 22.5 20.8951 22.5 20.5001V19.5223C22.5 18.9199 22.3815 18.3372 22.1445 17.7743ZM18.2928 12.7374H18.3026C18.5397 12.7374 18.7668 12.8066 18.9643 12.9349C19.1717 13.0732 19.3199 13.2609 19.4186 13.4781C19.5075 13.7053 19.5372 13.9423 19.4878 14.1793C19.4384 14.4164 19.3199 14.6336 19.152 14.8015C18.9841 14.9694 18.7668 15.0879 18.5298 15.1373C18.3026 15.1867 18.0557 15.1571 17.8286 15.0682C17.6113 14.9793 17.4237 14.8213 17.2854 14.6238C17.157 14.4164 17.0879 14.1892 17.0879 13.9423C17.0879 13.6263 17.2064 13.3201 17.4335 13.093C17.6607 12.8559 17.9669 12.7374 18.2928 12.7374ZM19.2211 16.8064C19.5569 16.9348 19.8532 17.1224 20.11 17.3792C20.4063 17.6557 20.6235 17.9915 20.7816 18.357C20.9396 18.7224 21.0186 19.1174 21.0186 19.5223V20.51H15.5768V19.6409C15.5571 18.9001 15.804 18.1891 16.2879 17.6261C16.7718 17.0731 17.4434 16.7274 18.1743 16.6385C18.5298 16.6286 18.8853 16.678 19.2211 16.8064Z"/>
<path d="M12.8403 18.5154C12.8403 18.6931 12.7811 18.8709 12.6626 19.0092L11.2108 20.5894C11.0626 20.7177 10.8948 20.7869 10.7071 20.7869C10.5293 20.7968 10.3516 20.7177 10.2133 20.5894C10.075 20.4708 9.99602 20.3029 9.97626 20.1252C9.95651 19.9375 10.0059 19.7598 10.1047 19.6116L10.4306 19.2561C9.20592 19.2166 8.02078 18.782 7.07267 17.9919C6.67763 17.6068 6.38134 17.1623 6.17394 16.6586C5.97642 16.1648 5.87766 15.6315 5.89741 15.0883C5.89741 14.9007 5.97642 14.713 6.11469 14.5748C6.39122 14.2982 6.88502 14.2982 7.16155 14.5748C7.29982 14.713 7.37883 14.9007 7.37883 15.0982C7.35908 15.434 7.41834 15.7698 7.53685 16.0858C7.65537 16.392 7.84302 16.6784 8.08004 16.9154C8.77138 17.4487 9.62072 17.7549 10.5096 17.7845L10.0948 17.2907C10.0256 17.2216 9.97626 17.1327 9.93675 17.0339C9.90712 16.9451 9.89725 16.8463 9.89725 16.7475C9.90713 16.6488 9.93676 16.55 9.97626 16.4611C10.0256 16.3722 10.0849 16.2932 10.1639 16.2241C10.2429 16.1648 10.3318 16.1155 10.4306 16.0858C10.5194 16.0562 10.6182 16.0463 10.717 16.0562C10.8157 16.0562 10.9145 16.0957 11.0034 16.1451C11.0923 16.1945 11.1713 16.2636 11.2305 16.3426L12.6626 18.0216C12.7811 18.1598 12.8403 18.3277 12.8403 18.5154Z"/>
<path d="M19.1028 8.86603C19.1028 9.06356 19.0238 9.2512 18.8855 9.38947C18.7473 9.52773 18.5498 9.60674 18.3621 9.60674C18.1646 9.60674 17.9769 9.52773 17.8387 9.38947C17.7004 9.2512 17.6214 9.05368 17.6214 8.86603C17.6412 8.53024 17.5819 8.18458 17.4634 7.86854C17.3449 7.56238 17.1671 7.27598 16.9202 7.04882C16.2289 6.51551 15.3795 6.20935 14.4906 6.16985L14.9153 6.67353C15.0338 6.82167 15.103 7.01919 15.0832 7.21672C15.0635 7.41424 14.9746 7.59201 14.8264 7.7204C14.6684 7.83892 14.4808 7.89817 14.2833 7.87842C14.0956 7.85867 13.9178 7.76978 13.7894 7.62164L12.3475 5.90319C12.229 5.76492 12.1698 5.58715 12.1698 5.40938C12.1698 5.23161 12.229 5.05384 12.3475 4.91557L13.7993 3.36502C13.8685 3.28601 13.9475 3.22675 14.0462 3.18725C14.303 3.06873 14.6289 3.11811 14.8363 3.31563C14.9054 3.38477 14.9647 3.46378 15.0042 3.55267C15.0437 3.63168 15.0733 3.73044 15.0733 3.8292C15.0832 3.92796 15.0635 4.02672 15.0338 4.11561C14.9943 4.21437 14.945 4.29338 14.8857 4.36251L14.5697 4.6983C15.7943 4.7378 16.9794 5.18223 17.9276 5.96244C18.3226 6.34761 18.6288 6.79204 18.8263 7.29573C19.0238 7.79941 19.1226 8.32284 19.1028 8.86603Z"/>
<path d="M10.5593 8.52073C10.3321 7.96767 9.98645 7.47386 9.5519 7.04919C9.31487 6.82204 9.04821 6.61464 8.75193 6.44674C9.05809 6.0912 9.27538 5.65665 9.36426 5.19247C9.46302 4.66903 9.40375 4.12584 9.19635 3.64191C8.98895 3.1481 8.65316 2.7333 8.20874 2.43702C7.31988 1.85433 6.115 1.85433 5.22615 2.43702C4.78172 2.7333 4.43605 3.1481 4.22865 3.64191C4.02125 4.12584 3.97188 4.66903 4.07064 5.19247C4.15953 5.65665 4.36692 6.0912 4.68296 6.45661C4.03113 6.85166 3.48795 7.40473 3.11265 8.06643C2.70773 8.76764 2.49045 9.56761 2.50032 10.3873V11.2466C2.50032 11.6416 2.64847 12.007 2.925 12.2835C3.19166 12.5601 3.56695 12.728 3.95212 12.728H9.46301C9.85806 12.728 10.2235 12.57 10.4901 12.2835C10.7667 12.007 10.9148 11.6416 10.9148 11.2466V10.2688C10.9148 9.66636 10.7963 9.0738 10.5593 8.52073ZM5.4928 4.68879C5.4928 4.36288 5.62119 4.05671 5.84834 3.82956C6.07549 3.60241 6.39154 3.47402 6.70757 3.47402C6.9446 3.47402 7.18162 3.54315 7.37914 3.68142C7.58654 3.80981 7.73469 4.00733 7.83345 4.22461C7.92234 4.44188 7.94209 4.68879 7.89271 4.92581C7.8532 5.16284 7.73469 5.38011 7.56679 5.54801C7.3989 5.7159 7.18162 5.83442 6.94459 5.87392C6.70756 5.92331 6.46067 5.90356 6.24339 5.81467C6.02612 5.71591 5.82859 5.55789 5.7002 5.36037C5.56194 5.16284 5.4928 4.92582 5.4928 4.68879ZM9.42352 11.2466H3.98175V10.3774C3.96199 9.64661 4.21878 8.92565 4.70272 8.37259C5.18665 7.80965 5.85821 7.46398 6.58905 7.38497H6.69769C7.01372 7.38497 7.32976 7.43435 7.62605 7.55287C7.96184 7.68126 8.268 7.8689 8.52478 8.11581C8.81119 8.39234 9.03834 8.72814 9.19635 9.09355C9.3445 9.46885 9.42352 9.85402 9.42352 10.2589V11.2466Z"/>
</svg>
