<svg width="90" height="88" viewBox="0 0 90 88" xmlns="http://www.w3.org/2000/svg">
<path d="M57.1107 19.8805H32.9107C32.3593 19.8813 31.8307 20.1007 31.4408 20.4906C31.0509 20.8805 30.8315 21.4091 30.8307 21.9605V75.7465L30.5537 75.8315L24.6167 77.6495C24.3354 77.7353 24.0316 77.706 23.772 77.568C23.5123 77.43 23.318 77.1946 23.2317 76.9135L5.57272 19.2305C5.48693 18.9492 5.51621 18.6454 5.6542 18.3858C5.79219 18.1261 6.0276 17.9318 6.30871 17.8455L15.4577 15.0455L41.9797 6.9275L51.1287 4.1275C51.2679 4.08472 51.4142 4.0698 51.5591 4.0836C51.7041 4.09739 51.8449 4.13963 51.9736 4.20789C52.1022 4.27616 52.2161 4.3691 52.3088 4.48142C52.4015 4.59375 52.4711 4.72324 52.5137 4.8625L57.0277 19.6065L57.1107 19.8805Z" fill="#E7E7E7"/>
<path d="M62.3903 19.6036L56.9503 1.83357C56.8597 1.53756 56.7117 1.26228 56.5147 1.02347C56.3177 0.784661 56.0756 0.586994 55.8023 0.441759C55.5289 0.296524 55.2296 0.206564 54.9214 0.177019C54.6133 0.147475 54.3023 0.178918 54.0063 0.269564L41.1443 4.20656L14.6233 12.3266L1.76131 16.2646C1.16394 16.4482 0.663798 16.8613 0.370595 17.4132C0.0773932 17.9651 0.0150487 18.6108 0.197286 19.2086L18.7913 79.9396C18.9395 80.4221 19.2384 80.8445 19.6442 81.1447C20.0501 81.4449 20.5415 81.6071 21.0463 81.6076C21.2797 81.6089 21.512 81.5752 21.7353 81.5076L30.5523 78.8076L30.8293 78.7216V78.4316L30.5523 78.5166L21.6523 81.2416C21.1245 81.4032 20.5542 81.3486 20.0666 81.0898C19.5791 80.8311 19.2142 80.3893 19.0523 79.8616L0.45931 19.1286C0.378602 18.8673 0.350302 18.5926 0.376027 18.3203C0.401753 18.048 0.480991 17.7835 0.609212 17.5419C0.737434 17.3003 0.912097 17.0865 1.12319 16.9126C1.33428 16.7387 1.57763 16.6082 1.83928 16.5286L14.7013 12.5906L41.2223 4.47257L54.0843 0.534563C54.3456 0.453993 54.6203 0.425798 54.8925 0.451586C55.1647 0.477374 55.4292 0.556643 55.6708 0.684847C55.9123 0.813051 56.1262 0.987665 56.3001 1.19869C56.474 1.40971 56.6046 1.65299 56.6843 1.91457L62.0993 19.6046L62.1853 19.8816H62.4733L62.3903 19.6036Z" fill="#4F4F4F"/>
<path d="M17.1061 17.8935C16.8388 17.8933 16.5786 17.8075 16.3637 17.6486C16.1488 17.4896 15.9905 17.266 15.9121 17.0105L14.126 11.1765C14.078 11.0198 14.0613 10.8552 14.077 10.692C14.0926 10.5288 14.1402 10.3703 14.2171 10.2255C14.294 10.0807 14.3986 9.95252 14.5251 9.84821C14.6515 9.74389 14.7973 9.66551 14.954 9.61754L39.354 2.14754C39.6706 2.05082 40.0126 2.08369 40.3049 2.23894C40.5972 2.39419 40.8159 2.65913 40.913 2.97554L42.699 8.80954C42.7955 9.12608 42.7625 9.46794 42.6073 9.76018C42.4521 10.0524 42.1873 10.2712 41.871 10.3685L17.471 17.8385C17.3528 17.8749 17.2298 17.8934 17.1061 17.8935Z" fill="#0A68DB"/>
<path d="M26.4635 6.39956C27.9955 6.39956 29.2375 5.1576 29.2375 3.62556C29.2375 2.09352 27.9955 0.851562 26.4635 0.851562C24.9314 0.851562 23.6895 2.09352 23.6895 3.62556C23.6895 5.1576 24.9314 6.39956 26.4635 6.39956Z" fill="#0A68DB"/>
<path d="M26.463 5.38163C27.4328 5.38163 28.219 4.59544 28.219 3.62563C28.219 2.65582 27.4328 1.86963 26.463 1.86963C25.4932 1.86963 24.707 2.65582 24.707 3.62563C24.707 4.59544 25.4932 5.38163 26.463 5.38163Z" fill="#E7E7E7"/>
<path d="M83.6652 80.8997H36.7952C36.4826 80.8994 36.1829 80.7751 35.9619 80.5541C35.7408 80.333 35.6165 80.0333 35.6162 79.7207V23.5567C35.6165 23.2441 35.7408 22.9443 35.9619 22.7233C36.1829 22.5022 36.4826 22.378 36.7952 22.3777H83.6652C83.9778 22.378 84.2775 22.5022 84.4986 22.7233C84.7196 22.9443 84.844 23.2441 84.8442 23.5567V79.7207C84.844 80.0333 84.7196 80.333 84.4986 80.5541C84.2775 80.7751 83.9778 80.8994 83.6652 80.8997Z" fill="#E7E7E7"/>
<path d="M62.1018 19.6035H32.9098C32.2846 19.6043 31.6853 19.853 31.2433 20.295C30.8012 20.7371 30.5526 21.3364 30.5518 21.9615V78.5165L30.8288 78.4315V21.9615C30.8296 21.4101 31.049 20.8815 31.4389 20.4916C31.8288 20.1017 32.3574 19.8823 32.9088 19.8815H62.1868L62.1018 19.6035ZM87.5488 19.6035H32.9098C32.2846 19.6043 31.6853 19.853 31.2433 20.295C30.8012 20.7371 30.5526 21.3364 30.5518 21.9615V85.4755C30.5526 86.1007 30.8012 86.7 31.2433 87.142C31.6853 87.584 32.2846 87.8327 32.9098 87.8335H87.5488C88.1738 87.8324 88.7728 87.5836 89.2146 87.1416C89.6565 86.6996 89.905 86.1005 89.9058 85.4755V21.9615C89.905 21.3367 89.6565 20.7377 89.2149 20.2957C88.7733 19.8538 88.1736 19.6048 87.5488 19.6035ZM89.6288 85.4755C89.628 86.0269 89.4086 86.5555 89.0187 86.9454C88.6288 87.3353 88.1002 87.5547 87.5488 87.5555H32.9098C32.3584 87.5547 31.8298 87.3353 31.4399 86.9454C31.05 86.5555 30.8306 86.0269 30.8298 85.4755V21.9615C30.8306 21.4101 31.05 20.8815 31.4399 20.4916C31.8298 20.1017 32.3574 19.8823 32.9088 19.8815H87.5488C88.1002 19.8823 88.6288 20.1017 89.0187 20.4916C89.4086 20.8815 89.628 21.4101 89.6288 21.9615V85.4755Z" fill="#4F4F4F"/>
<path d="M72.9877 25.7056H47.4706C47.1398 25.7051 46.8227 25.5734 46.5888 25.3395C46.3549 25.1056 46.2232 24.7885 46.2227 24.4576V18.3576C46.2229 18.0267 46.3545 17.7095 46.5885 17.4755C46.8225 17.2415 47.1397 17.1099 47.4706 17.1096H72.9877C73.3185 17.1101 73.6356 17.2418 73.8696 17.4757C74.1035 17.7097 74.2351 18.0268 74.2357 18.3576V24.4576C74.2351 24.7885 74.1035 25.1056 73.8696 25.3395C73.6356 25.5734 73.3185 25.7051 72.9877 25.7056Z" fill="#0A68DB"/>
<path d="M60.2291 17.5246C61.7611 17.5246 63.0031 16.2826 63.0031 14.7506C63.0031 13.2185 61.7611 11.9766 60.2291 11.9766C58.697 11.9766 57.4551 13.2185 57.4551 14.7506C57.4551 16.2826 58.697 17.5246 60.2291 17.5246Z" fill="#0A68DB"/>
<path d="M60.2281 16.4385C61.1609 16.4385 61.9171 15.6824 61.9171 14.7495C61.9171 13.8167 61.1609 13.0605 60.2281 13.0605C59.2953 13.0605 58.5391 13.8167 58.5391 14.7495C58.5391 15.6824 59.2953 16.4385 60.2281 16.4385Z" fill="#E7E7E7"/>
</svg>
