<svg width="18" height="18" viewBox="0 0 18 18" xmlns="http://www.w3.org/2000/svg">
<path d="M13.4996 7.4999C13.4996 7.30098 13.4206 7.11022 13.2799 6.96957C13.1393 6.82891 12.9485 6.7499 12.7496 6.7499H4.05712L5.78212 5.0324C5.92334 4.89117 6.00269 4.69962 6.00269 4.4999C6.00269 4.30017 5.92334 4.10862 5.78212 3.96739C5.64089 3.82617 5.44934 3.74683 5.24962 3.74683C5.04989 3.74683 4.85834 3.82617 4.71712 3.96739L1.71712 6.9674C1.61305 7.07286 1.54255 7.20679 1.51452 7.35229C1.48649 7.49778 1.50218 7.64831 1.55962 7.7849C1.61588 7.92186 1.71143 8.0391 1.83422 8.12185C1.95701 8.2046 2.10155 8.24916 2.24962 8.2499H12.7496C12.9485 8.2499 13.1393 8.17088 13.2799 8.03023C13.4206 7.88957 13.4996 7.69881 13.4996 7.4999ZM16.4396 10.2149C16.3834 10.0779 16.2878 9.96069 16.165 9.87794C16.0422 9.79519 15.8977 9.75063 15.7496 9.7499H5.24962C5.0507 9.7499 4.85994 9.82891 4.71929 9.96957C4.57863 10.1102 4.49962 10.301 4.49962 10.4999C4.49962 10.6988 4.57863 10.8896 4.71929 11.0302C4.85994 11.1709 5.0507 11.2499 5.24962 11.2499H13.9421L12.2171 12.9674C12.1468 13.0371 12.091 13.1201 12.0529 13.2115C12.0149 13.3029 11.9953 13.4009 11.9953 13.4999C11.9953 13.5989 12.0149 13.6969 12.0529 13.7883C12.091 13.8797 12.1468 13.9627 12.2171 14.0324C12.2868 14.1027 12.3698 14.1585 12.4612 14.1966C12.5526 14.2346 12.6506 14.2542 12.7496 14.2542C12.8486 14.2542 12.9467 14.2346 13.038 14.1966C13.1294 14.1585 13.2124 14.1027 13.2821 14.0324L16.2821 11.0324C16.3862 10.9269 16.4567 10.793 16.4847 10.6475C16.5127 10.502 16.4971 10.3515 16.4396 10.2149Z"/>
</svg>
