<svg width="20" height="20" viewBox="0 0 20 20" xmlns="http://www.w3.org/2000/svg">
<path fill-rule="evenodd" clip-rule="evenodd" d="M7.04034 3.33911C6.90194 3.26541 6.74727 3.22759 6.59048 3.22913L6.58333 3.2292L3.33333 3.22917C3.08469 3.22917 2.84624 3.32794 2.67042 3.50375C2.49461 3.67957 2.39583 3.91802 2.39583 4.16667V7.5C2.39583 7.90271 2.06937 8.22917 1.66667 8.22917C1.26396 8.22917 0.9375 7.90271 0.9375 7.5V4.16667C0.9375 3.53125 1.18992 2.92186 1.63922 2.47256C2.08853 2.02325 2.69792 1.77083 3.33333 1.77083H6.58008C6.97943 1.76757 7.37329 1.86418 7.72582 2.05192C8.07817 2.23956 8.37802 2.51225 8.59816 2.8452L9.27568 3.84893C9.36104 3.97855 9.47721 4.08498 9.61384 4.15861C9.75044 4.23223 9.90317 4.27079 10.0583 4.27083H16.6667C17.3021 4.27083 17.9115 4.52325 18.3608 4.97256C18.8101 5.42186 19.0625 6.03125 19.0625 6.66667V15C19.0625 15.6354 18.8101 16.2448 18.3608 16.6941C17.9115 17.1434 17.3021 17.3958 16.6667 17.3958H3.33333C2.69792 17.3958 2.08853 17.1434 1.63922 16.6941C1.18992 16.2448 0.9375 15.6354 0.9375 15V14.1667C0.9375 13.764 1.26396 13.4375 1.66667 13.4375C2.06937 13.4375 2.39583 13.764 2.39583 14.1667V15C2.39583 15.2486 2.4946 15.4871 2.67042 15.6629C2.84624 15.8387 3.08469 15.9375 3.33333 15.9375H16.6667C16.9153 15.9375 17.1538 15.8387 17.3296 15.6629C17.5054 15.4871 17.6042 15.2486 17.6042 15V6.66667C17.6042 6.41803 17.5054 6.17957 17.3296 6.00375C17.1538 5.82794 16.9153 5.72917 16.6667 5.72917H10.0583C9.66169 5.7291 9.27115 5.63056 8.92199 5.44239C8.57415 5.25493 8.2781 4.98436 8.06018 4.65481L7.38263 3.65103C7.2964 3.52007 7.17874 3.41281 7.04034 3.33911Z" />
<path fill-rule="evenodd" clip-rule="evenodd" d="M0.9375 10.8333C0.9375 10.4306 1.26396 10.1042 1.66667 10.1042H10C10.4027 10.1042 10.7292 10.4306 10.7292 10.8333C10.7292 11.236 10.4027 11.5625 10 11.5625H1.66667C1.26396 11.5625 0.9375 11.236 0.9375 10.8333Z"/>
<path fill-rule="evenodd" clip-rule="evenodd" d="M6.9844 7.81773C7.26916 7.53298 7.73084 7.53298 8.0156 7.81773L10.5156 10.3177C10.8004 10.6025 10.8004 11.0642 10.5156 11.3489L8.0156 13.8489C7.73084 14.1337 7.26916 14.1337 6.9844 13.8489C6.69964 13.5642 6.69964 13.1025 6.9844 12.8177L8.9688 10.8333L6.9844 8.84893C6.69964 8.56417 6.69964 8.10249 6.9844 7.81773Z"/>
</svg>
