<svg width="24" height="24" viewBox="0 0 24 24" xmlns="http://www.w3.org/2000/svg">
<path d="M21.41 8.64C21.41 8.64 21.41 8.64 21.41 8.59C20.7054 6.66623 19.4269 5.00529 17.7475 3.83187C16.0681 2.65845 14.0688 2.02917 12.02 2.02917C9.97126 2.02917 7.97195 2.65845 6.29252 3.83187C4.6131 5.00529 3.33461 6.66623 2.63001 8.59C2.63001 8.59 2.63001 8.59 2.63001 8.64C1.84314 10.8109 1.84314 13.1891 2.63001 15.36C2.63001 15.36 2.63001 15.36 2.63001 15.41C3.33461 17.3338 4.6131 18.9947 6.29252 20.1681C7.97195 21.3416 9.97126 21.9708 12.02 21.9708C14.0688 21.9708 16.0681 21.3416 17.7475 20.1681C19.4269 18.9947 20.7054 17.3338 21.41 15.41C21.41 15.41 21.41 15.41 21.41 15.36C22.1969 13.1891 22.1969 10.8109 21.41 8.64ZM4.26001 14C3.91324 12.6892 3.91324 11.3108 4.26001 10H6.12001C5.96004 11.3285 5.96004 12.6715 6.12001 14H4.26001ZM5.08001 16H6.48001C6.71473 16.8918 7.05022 17.7541 7.48001 18.57C6.49931 17.9019 5.67951 17.0241 5.08001 16ZM6.48001 8H5.08001C5.67088 6.97909 6.4802 6.10147 7.45001 5.43C7.03057 6.24725 6.70515 7.10942 6.48001 8ZM11 19.7C9.77178 18.7987 8.90916 17.4852 8.57001 16H11V19.7ZM11 14H8.14001C7.9534 12.6732 7.9534 11.3268 8.14001 10H11V14ZM11 8H8.57001C8.90916 6.51477 9.77178 5.20132 11 4.3V8ZM18.92 8H17.52C17.2853 7.10816 16.9498 6.24594 16.52 5.43C17.5007 6.09807 18.3205 6.97594 18.92 8ZM13 4.3C14.2282 5.20132 15.0909 6.51477 15.43 8H13V4.3ZM13 19.7V16H15.43C15.0909 17.4852 14.2282 18.7987 13 19.7ZM15.86 14H13V10H15.86C16.0466 11.3268 16.0466 12.6732 15.86 14ZM16.55 18.57C16.9798 17.7541 17.3153 16.8918 17.55 16H18.95C18.3505 17.0241 17.5307 17.9019 16.55 18.57ZM19.74 14H17.88C17.9613 13.3365 18.0014 12.6685 18 12C18.0011 11.3315 17.961 10.6636 17.88 10H19.74C20.0868 11.3108 20.0868 12.6892 19.74 14Z" />
</svg>
