<svg width="18" height="19" viewBox="0 0 18 19" xmlns="http://www.w3.org/2000/svg">
<path d="M0 2.5C0 1.39543 0.895431 0.5 2 0.5H3.8C3.91046 0.5 4 0.589543 4 0.7V4.3C4 4.41046 3.91046 4.5 3.8 4.5H0.2C0.0895431 4.5 0 4.41046 0 4.3V2.5Z" />
<path d="M5 0.7C5 0.589543 5.08954 0.5 5.2 0.5H12.8C12.9105 0.5 13 0.589543 13 0.7V4.3C13 4.41046 12.9105 4.5 12.8 4.5H5.2C5.08954 4.5 5 4.41046 5 4.3V0.7Z" />
<path d="M14 0.7C14 0.589543 14.0895 0.5 14.2 0.5H16C17.1046 0.5 18 1.39543 18 2.5V4.3C18 4.41046 17.9105 4.5 17.8 4.5H14.2C14.0895 4.5 14 4.41046 14 4.3V0.7Z" />
<path d="M0 14.7C0 14.5895 0.0895431 14.5 0.2 14.5H3.8C3.91046 14.5 4 14.5895 4 14.7V18.3C4 18.4105 3.91046 18.5 3.8 18.5H2C0.895431 18.5 0 17.6046 0 16.5V14.7Z" />
<path d="M5 14.7C5 14.5895 5.08954 14.5 5.2 14.5H12.8C12.9105 14.5 13 14.5895 13 14.7V18.3C13 18.4105 12.9105 18.5 12.8 18.5H5.2C5.08954 18.5 5 18.4105 5 18.3V14.7Z" />
<path d="M14 14.7C14 14.5895 14.0895 14.5 14.2 14.5H17.8C17.9105 14.5 18 14.5895 18 14.7V16.5C18 17.6046 17.1046 18.5 16 18.5H14.2C14.0895 18.5 14 18.4105 14 18.3V14.7Z" />
<path d="M0 5.7C0 5.58954 0.0895431 5.5 0.2 5.5H3.8C3.91046 5.5 4 5.58954 4 5.7V13.3C4 13.4105 3.91046 13.5 3.8 13.5H0.2C0.0895431 13.5 0 13.4105 0 13.3V5.7Z" />
<path d="M5 5.7C5 5.58954 5.08954 5.5 5.2 5.5H12.8C12.9105 5.5 13 5.58954 13 5.7V13.3C13 13.4105 12.9105 13.5 12.8 13.5H5.2C5.08954 13.5 5 13.4105 5 13.3V5.7Z" />
<path d="M14 5.7C14 5.58954 14.0895 5.5 14.2 5.5H17.8C17.9105 5.5 18 5.58954 18 5.7V13.3C18 13.4105 17.9105 13.5 17.8 13.5H14.2C14.0895 13.5 14 13.4105 14 13.3V5.7Z" />
</svg>
