<svg width="25" height="24" viewBox="0 0 25 24" xmlns="http://www.w3.org/2000/svg">
<path fill-rule="evenodd" clip-rule="evenodd" d="M19.4268 10.3223C19.475 10.4269 19.5 10.5414 19.5 10.6572V18.7109C19.4999 18.9223 19.416 19.124 19.2695 19.2715C19.1233 19.4185 18.9265 19.4999 18.7227 19.5H16.5V21.4997L18.7227 21.5C19.4613 21.4999 20.1682 21.2043 20.6885 20.6807C21.2086 20.1571 21.4999 19.4485 21.5 18.7109V10.6572C21.5 10.2527 21.4125 9.85277 21.2432 9.48535C21.0737 9.1177 20.826 8.79071 20.5176 8.52832L14.2959 3.16113L14.1016 3.01074C13.635 2.68006 13.0761 2.5 12.5 2.5C11.8417 2.5 11.2004 2.73964 10.6992 3.16602L4.48242 8.52832C4.174 8.79071 3.92631 9.1177 3.75684 9.48535C3.58748 9.85277 3.5 10.2527 3.5 10.6572V18.7109C3.50012 19.4485 3.79143 20.1571 4.31152 20.6807C4.83183 21.2043 5.53872 21.4999 6.27734 21.5L8.5 21.4997V19.5H6.27734C6.07352 19.4999 5.8767 19.4185 5.73047 19.2715C5.58398 19.124 5.50012 18.9223 5.5 18.7109V10.6572C5.5 10.5414 5.52503 10.4269 5.57324 10.3223C5.62146 10.2178 5.69667 10.1215 5.7832 10.0479L12 4.68457C12.1406 4.56497 12.318 4.5 12.5 4.5C12.6365 4.5 12.7701 4.53676 12.8877 4.60547L13 4.68457L19.2217 10.0518C19.3082 10.1254 19.3785 10.2178 19.4268 10.3223Z"/>
<path d="M16.5 19.5V13.4997C16.5 12.9693 16.2891 12.4607 15.9141 12.0856C15.539 11.7106 15.0304 11.4997 14.5 11.4997H10.5C9.96957 11.4997 9.46101 11.7106 9.08594 12.0856C8.71087 12.4607 8.5 12.9693 8.5 13.4997V19.5V21.4997H9.5C10.0523 21.4997 10.5 21.052 10.5 20.4997V19.5V13.4997H14.5V19.5V20.4997C14.5 21.052 14.9477 21.4997 15.5 21.4997H16.5V19.5Z"/>
</svg>
