<svg width="18" height="18" viewBox="0 0 18 18" xmlns="http://www.w3.org/2000/svg">
<path fill-rule="evenodd" clip-rule="evenodd" d="M8.25 2.90625C5.29873 2.90625 2.90625 5.29873 2.90625 8.25C2.90625 11.2013 5.29873 13.5938 8.25 13.5938C11.2013 13.5938 13.5938 11.2013 13.5938 8.25C13.5938 5.29873 11.2013 2.90625 8.25 2.90625ZM1.59375 8.25C1.59375 4.57385 4.57385 1.59375 8.25 1.59375C11.9261 1.59375 14.9062 4.57385 14.9062 8.25C14.9062 11.9261 11.9261 14.9062 8.25 14.9062C4.57385 14.9062 1.59375 11.9261 1.59375 8.25Z"/>
<path fill-rule="evenodd" clip-rule="evenodd" d="M12.061 12.061C12.3172 11.8047 12.7328 11.8047 12.989 12.061L16.214 15.286C16.4703 15.5422 16.4703 15.9578 16.214 16.214C15.9578 16.4703 15.5422 16.4703 15.286 16.214L12.061 12.989C11.8047 12.7328 11.8047 12.3172 12.061 12.061Z"/>
</svg>
