<svg width="25" height="24" viewBox="0 0 25 24" xmlns="http://www.w3.org/2000/svg">
<path d="M17.1964 14.552C16.7618 13.5348 16.1397 12.6262 15.3397 11.8559C14.6682 11.2041 13.888 10.6906 13.0189 10.3252C13.7497 9.77215 14.283 9.0216 14.5793 8.15254C14.9052 7.20448 14.9151 6.20703 14.6188 5.24909C14.3226 4.30103 13.7399 3.49123 12.9301 2.89869C12.1301 2.30615 11.1821 2 10.1846 2C9.18719 2 8.22927 2.30615 7.42934 2.89869C6.62941 3.49123 6.04673 4.30103 5.75046 5.24909C5.44432 6.20703 5.46407 7.20448 5.78009 8.15254C6.07636 9.0216 6.61951 9.77215 7.34043 10.3351C5.90846 10.977 4.69376 12.0139 3.83458 13.3373C2.92602 14.7297 2.47173 16.3296 2.50136 17.9887V19.7071C2.49149 20.2996 2.71863 20.8625 3.12353 21.2872C3.53831 21.7118 4.09133 21.9587 4.68387 21.9686H15.6656C16.2582 21.9587 16.8112 21.7118 17.2161 21.2872C17.6309 20.8625 17.858 20.2996 17.8482 19.7071V17.7616C17.8482 16.6555 17.6309 15.5692 17.1964 14.552ZM10.1748 3.49123C10.3822 3.49123 10.5895 3.52085 10.7871 3.56036C11.3994 3.67886 11.9524 3.97514 12.3869 4.40966C12.8313 4.85407 13.1276 5.40711 13.2461 6.00952C13.3646 6.62181 13.3054 7.24398 13.0683 7.81677C12.8214 8.38956 12.4264 8.87346 11.9129 9.21911C11.3993 9.56476 10.7969 9.74252 10.1748 9.74252C9.34522 9.74252 8.55515 9.41662 7.97249 8.82408C7.37995 8.24142 7.05406 7.45137 7.05406 6.62181C7.05406 5.99964 7.24167 5.39723 7.58732 4.8837C7.9231 4.37016 8.41689 3.97514 8.98968 3.73812C9.36496 3.58011 9.76987 3.49123 10.1748 3.49123ZM16.3076 19.7071C16.3076 19.8848 16.2384 20.0626 16.1199 20.191C16.0014 20.3194 15.8335 20.3984 15.6656 20.4082H4.69376C4.516 20.3984 4.34811 20.3194 4.2296 20.191C4.10122 20.0626 4.04196 19.8848 4.04196 19.7071V17.9788C3.99258 16.3296 4.56538 14.7297 5.6517 13.4953C6.7479 12.2509 8.25888 11.4708 9.88837 11.3029H10.1649C11.7154 11.3128 13.1769 11.9053 14.283 12.9817C14.9348 13.6039 15.4385 14.3446 15.7841 15.1741C16.1298 15.9938 16.3076 16.8728 16.3076 17.7714V19.7071Z"/>
<path d="M22.5 18.0872V19.8451C22.5 20.3883 22.2926 20.9117 21.9075 21.3067C21.5223 21.6918 21.0088 21.919 20.4656 21.9289H18.0955L18.3028 21.6425C18.5399 21.3067 18.7176 20.9314 18.8263 20.5364V20.3883H20.3866C20.5249 20.3784 20.6533 20.3191 20.752 20.2105C20.8508 20.1019 20.9001 19.9636 20.9001 19.8253V18.0576C20.9001 17.2577 20.7421 16.4775 20.4261 15.7368C20.12 14.9961 19.6756 14.3443 19.0929 13.7814C18.6386 13.3469 18.1152 12.9914 17.5325 12.7445L17.5029 12.7247L17.4832 12.6951C17.0881 12.0729 16.624 11.5002 16.0907 10.9866L15.8636 10.7595L16.1796 10.6706C16.7721 10.5027 17.3054 10.1274 17.6609 9.62378C18.0165 9.11025 18.1942 8.49795 18.1646 7.87579C18.1251 7.25362 17.8782 6.66108 17.4634 6.19692C17.0585 5.73277 16.4857 5.41675 15.8833 5.30812H15.7352V5.15011C15.6463 4.77483 15.4982 4.3798 15.3105 4.00453L15.1821 3.73789H15.4883C16.3968 3.73789 17.2659 4.02428 17.9967 4.55756C18.7374 5.09085 19.2707 5.83152 19.5571 6.69071C19.8336 7.55977 19.8434 8.46833 19.5669 9.33739C19.3102 10.1373 18.8361 10.8286 18.1942 11.352C18.9448 11.6779 19.6262 12.1322 20.2187 12.705C20.9495 13.4062 21.5124 14.2258 21.9075 15.164C22.3025 16.0923 22.5 17.0799 22.5 18.0872Z"/>
</svg>
