<svg width="24" height="24" viewBox="0 0 24 24" xmlns="http://www.w3.org/2000/svg">
<path d="M20.0794 2.08068C20.3335 1.99213 20.6067 1.97524 20.8695 2.03381C21.1376 2.0936 21.3832 2.22823 21.5775 2.42248C21.7232 2.56822 21.8353 2.74282 21.9076 2.9342L21.9662 3.13049L21.9974 3.33263C22.0129 3.53094 21.9851 3.73043 21.9193 3.91955L21.9212 3.92053L16.0716 21.0182C15.9757 21.2979 15.7963 21.5424 15.558 21.7174C15.3194 21.8924 15.0324 21.9911 14.7367 21.9986C14.441 22.0062 14.1498 21.9229 13.9027 21.7604C13.6865 21.6181 13.5126 21.421 13.3988 21.1901L13.3539 21.0885L10.4925 13.9518L10.4593 13.8785C10.4218 13.807 10.3732 13.7415 10.3158 13.6842C10.2394 13.608 10.1484 13.5476 10.0482 13.5074L2.91148 10.6461C2.63695 10.536 2.40218 10.3444 2.2396 10.0973C2.07708 9.85019 1.99381 9.55895 2.00132 9.2633L2.00913 9.15295C2.03529 8.89664 2.12937 8.6508 2.28257 8.44201C2.45757 8.20367 2.70209 8.02426 2.98179 7.92834L20.0794 2.07873V2.08068ZM5.03062 9.34045L10.7923 11.651C11.1433 11.7915 11.4613 12.0021 11.7289 12.2692C11.9962 12.5361 12.2069 12.8542 12.348 13.2047L12.349 13.2057L14.6585 18.9684L19.6654 4.33361L5.03062 9.34045Z" />
<path d="M20.2943 2.29162C20.6848 1.90109 21.3178 1.90109 21.7084 2.29162C22.0989 2.68214 22.0989 3.31516 21.7084 3.70568L11.7084 13.7057C11.3178 14.0962 10.6848 14.0962 10.2943 13.7057C9.90377 13.3152 9.90377 12.6821 10.2943 12.2916L20.2943 2.29162Z" />
</svg>
