<svg width="25" height="24" viewBox="0 0 25 24" xmlns="http://www.w3.org/2000/svg">
<path d="M22.1938 13.1062C21.9864 12.6321 21.7 12.2074 21.3247 11.8519C21.0975 11.6346 20.8309 11.437 20.5543 11.2889C20.8309 10.9926 21.0185 10.637 21.1074 10.242C21.2161 9.78765 21.1864 9.32346 21.0185 8.88889C20.8506 8.45432 20.5543 8.08889 20.1691 7.8321C19.4086 7.30864 18.3519 7.30864 17.5815 7.8321C17.2062 8.08889 16.9099 8.45432 16.742 8.88889C16.5741 9.32346 16.5445 9.78765 16.6432 10.242C16.742 10.637 16.9296 10.9926 17.2062 11.2889C16.9691 11.4173 16.7519 11.5753 16.5444 11.763C16.0802 11.3383 15.5568 10.9926 14.9938 10.7358C15.5469 10.2617 15.9519 9.63951 16.1691 8.93827C16.4062 8.1679 16.3864 7.35803 16.1296 6.59753C15.8728 5.83704 15.3889 5.18519 14.737 4.71111C14.0852 4.24691 13.3148 4 12.5049 4C11.6951 4 10.9247 4.24691 10.2729 4.71111C9.621 5.18519 9.13704 5.83704 8.88025 6.59753C8.62346 7.35803 8.61359 8.1679 8.85063 8.93827C9.05803 9.63951 9.46297 10.2617 10.0259 10.7358C9.4531 11.0025 8.93951 11.3481 8.47531 11.7728C8.2679 11.5852 8.04074 11.4173 7.79383 11.279C8.07037 10.9827 8.26791 10.6272 8.3568 10.2321C8.46544 9.77778 8.42593 9.31358 8.25803 8.87901C8.09013 8.44444 7.80371 8.07901 7.41853 7.81235C6.64816 7.28889 5.59136 7.28889 4.82099 7.81235C4.43581 8.07901 4.14938 8.44444 3.98148 8.87901C3.81358 9.31358 3.77408 9.77778 3.88273 10.2321C3.98149 10.6272 4.16914 10.9827 4.44568 11.279C4.16914 11.437 3.90247 11.6247 3.67531 11.8519C3.3 12.2074 3.00372 12.6321 2.80619 13.1062C2.59878 13.5901 2.5 14.0938 2.5 14.6074V15.4667C2.5 15.7926 2.61852 16.0988 2.84569 16.3259C3.06297 16.563 3.37901 16.6914 3.70494 16.7012H6.30248V18.1926C6.2926 18.6963 6.48025 19.1704 6.8358 19.5358C7.18148 19.8914 7.65557 20.0988 8.15927 20.1086H16.8506C17.3543 20.0988 17.8284 19.8914 18.1741 19.5358C18.5296 19.1704 18.7173 18.6963 18.7173 18.1926V16.7012H21.3049C21.6309 16.6914 21.9272 16.563 22.1543 16.3259C22.3815 16.0988 22.5 15.7926 22.5 15.4667V14.6074C22.5 14.0938 22.3914 13.5901 22.1938 13.1062ZM19.9914 9.92593C19.9519 10.1432 19.8432 10.3506 19.6852 10.5086C19.5272 10.6667 19.3198 10.7753 19.1025 10.8247C18.8753 10.8642 18.6481 10.8444 18.4407 10.7556C18.2333 10.6667 18.0556 10.5284 17.9272 10.3407C17.8087 10.1432 17.7395 9.92593 17.7395 9.69877C17.7395 9.40247 17.858 9.11605 18.0654 8.89876C18.2827 8.68148 18.579 8.56296 18.8753 8.56296C19.1025 8.56296 19.3198 8.6321 19.5074 8.75062C19.6951 8.87901 19.8432 9.05679 19.9321 9.2642C20.021 9.4716 20.0407 9.69877 19.9914 9.92593ZM18.0161 12.1679C18.579 11.9407 19.221 11.9407 19.784 12.1679C20.0704 12.2864 20.3173 12.4543 20.5346 12.6716C20.8012 12.9284 20.9988 13.2247 21.1469 13.5605C21.2852 13.8963 21.3543 14.2519 21.3543 14.6173V15.516L21.3148 15.5457H18.6185C18.4605 14.5877 18.0852 13.6593 17.542 12.8593C17.4827 12.7704 17.4235 12.6914 17.3543 12.6025C17.5519 12.4148 17.7691 12.2765 18.0161 12.1679ZM10.5494 6.51852C10.8062 6.13333 11.1716 5.83704 11.6062 5.65926C11.8926 5.54074 12.1889 5.48148 12.4951 5.48148C12.6531 5.48148 12.8012 5.49136 12.9593 5.52099C13.4136 5.61975 13.8284 5.83704 14.1543 6.16296C14.4901 6.49876 14.7074 6.91358 14.7963 7.3679C14.8951 7.82222 14.8457 8.2963 14.6679 8.72099C14.4901 9.15555 14.1938 9.52099 13.7988 9.77778C13.4136 10.0346 12.9593 10.1728 12.4951 10.1728C11.8728 10.1728 11.2802 9.92592 10.8358 9.48148C10.4012 9.04691 10.1543 8.45432 10.1543 7.82222C10.1543 7.35802 10.2926 6.91358 10.5494 6.51852ZM5.31482 8.89876C5.52223 8.68148 5.81853 8.56296 6.1247 8.56296C6.34199 8.56296 6.56915 8.6321 6.7568 8.76049C6.94446 8.87901 7.08273 9.05679 7.17162 9.2642C7.2605 9.4716 7.28025 9.69877 7.24074 9.92593C7.19136 10.1432 7.08273 10.3506 6.9247 10.5086C6.76668 10.6667 6.55926 10.7753 6.34197 10.8247C6.11481 10.8642 5.88766 10.8444 5.68025 10.7556C5.47284 10.6667 5.29507 10.5284 5.17655 10.3407C5.04815 10.1432 4.97902 9.92593 4.97902 9.69877C4.97902 9.40247 5.09754 9.11605 5.31482 8.89876ZM7.50741 12.8593C6.95433 13.6593 6.56915 14.5877 6.40125 15.5457H3.6852L3.62593 15.6543L3.65557 15.5062V14.6074C3.65557 14.242 3.7247 13.8963 3.86297 13.5506C4.00124 13.2148 4.20865 12.9185 4.46544 12.6716C4.68272 12.4543 4.93952 12.2864 5.22594 12.1679C5.50248 12.0494 5.79876 12 6.09506 12H6.11482C6.42099 12 6.7173 12.0593 7.00372 12.1877C7.25063 12.2864 7.47778 12.4346 7.67531 12.6222C7.62593 12.7012 7.56667 12.7704 7.50741 12.8593ZM17.2457 18.2025C17.2457 18.3111 17.2062 18.4198 17.137 18.4988C17.058 18.5778 16.9593 18.6272 16.8506 18.637H8.15927C8.04075 18.637 7.94198 18.5877 7.86297 18.4988C7.79383 18.4198 7.75433 18.3111 7.75433 18.1926V16.8296C7.75433 15.8716 8.01112 14.9333 8.49507 14.1037C8.64322 13.8568 8.80124 13.6099 8.9889 13.3926C9.38396 12.879 9.87778 12.4741 10.4506 12.1679C11.0235 11.8716 11.6457 11.6938 12.2778 11.6543H12.4951C13.1766 11.6543 13.858 11.8123 14.4803 12.1086C15.0926 12.4049 15.6358 12.8395 16.0704 13.363C16.258 13.5901 16.4259 13.8272 16.5642 14.0839C17.0086 14.8741 17.2457 15.763 17.2457 16.6617V18.2025Z"/>
</svg>
