<svg width="25" height="24" viewBox="0 0 25 24" xmlns="http://www.w3.org/2000/svg">
<path d="M22.4106 12.5367C22.3522 12.42 22.2646 12.3227 22.1478 12.2643L17.8076 10.2693V4.82943C17.8076 4.69318 17.7687 4.55694 17.7006 4.44017C17.6227 4.33312 17.5254 4.23581 17.3989 4.18715L12.8154 2.06569C12.6402 1.9781 12.4164 1.9781 12.2217 2.06569L7.63822 4.18715C7.51171 4.24554 7.40466 4.33312 7.32681 4.4499C7.25869 4.56668 7.21976 4.70292 7.21976 4.82943V10.2596L2.90872 12.2448C2.79194 12.3032 2.6849 12.3908 2.60705 12.5076C2.53893 12.6243 2.5 12.7606 2.5 12.8968V18.8525C2.5 18.9984 2.53893 19.125 2.60705 19.2417C2.6849 19.3585 2.79194 19.4558 2.90872 19.5045L7.55063 21.6551C7.73553 21.7427 7.95935 21.7427 8.14425 21.6551L12.4942 19.6407L16.8539 21.6649C16.9415 21.7038 17.0485 21.7233 17.1459 21.7233C17.2529 21.7233 17.3502 21.7038 17.4475 21.6551L22.0894 19.5142C22.216 19.4558 22.3133 19.3682 22.3911 19.2515C22.4592 19.1347 22.4982 18.9984 22.4982 18.8719V12.9065C22.5079 12.78 22.4787 12.6438 22.4106 12.5367ZM17.1069 14.23L14.168 12.8968L17.1459 11.5247L20.0848 12.8676L17.1069 14.23ZM21.1163 13.9575V18.4146L17.4281 20.1176L17.1361 20.2635L16.7858 20.0397L13.117 18.3367V13.9673L16.5912 15.5535L17.1264 15.7189L17.6714 15.534L21.1163 13.9575ZM11.706 14.0646L11.6865 18.4535L8.23184 20.0494L7.8815 20.2635L3.93053 18.4048V13.9867L7.40466 15.573L7.90097 15.7481L11.706 14.0646ZM4.93287 12.8968L7.90097 11.5149L10.8496 12.8774L7.87177 14.23L4.93287 12.8968ZM12.4942 6.14317L9.61371 4.81969L12.5234 3.48648L15.4039 4.81969L12.4942 6.14317ZM8.64056 10.2985V5.92908L11.8714 7.42773L12.504 7.66128L16.3965 5.92908V10.2985L12.718 12.0015L12.5234 12.1086L11.8617 11.7874L8.64056 10.2985Z"/>
</svg>
