<svg width="25" height="24" viewBox="0 0 25 24" xmlns="http://www.w3.org/2000/svg">
<path d="M22.4045 6.14815C22.3156 5.80247 22.128 5.4963 21.8811 5.23951L19.244 2.61234C18.849 2.21728 18.3255 2 17.7625 2H7.22429C6.6712 2 6.13787 2.21728 5.74281 2.61234L3.10576 5.23951C2.85885 5.4963 2.68107 5.80247 2.5823 6.14815C2.48354 6.48395 2.47366 6.84938 2.55268 7.18519C2.63169 7.53086 2.78972 7.85679 3.02676 8.11358C3.24404 8.36049 3.51072 8.54815 3.80702 8.66667V19.8963C3.81689 20.4593 4.03415 20.9827 4.42921 21.3778C4.82427 21.7728 5.34773 21.9901 5.91069 22H19.0761C19.6391 22 20.1626 21.7728 20.5576 21.3778C20.9527 20.9827 21.17 20.4593 21.1798 19.8963V17.2691C21.1798 17.0519 21.0909 16.8642 20.9428 16.7161C20.6564 16.4198 20.1329 16.4198 19.8366 16.7161C19.6885 16.8642 19.6095 17.0519 19.6095 17.2691V19.8963C19.6095 19.9753 19.6095 20.0444 19.5799 20.1037C19.5502 20.1728 19.5107 20.2321 19.4613 20.2815C19.4119 20.3309 19.3527 20.3704 19.2835 20.4C19.2243 20.4198 19.1552 20.4296 19.0761 20.4296H15.9058V15.9457C15.9058 15.3827 15.6885 14.8593 15.2934 14.4642C14.8983 14.0691 14.365 13.8519 13.8119 13.8519H11.1749C10.6119 13.8519 10.0885 14.0691 9.69343 14.4642C9.29836 14.8593 9.08109 15.3926 9.08109 15.9457V18.5827C9.08109 18.7901 9.16008 18.9877 9.30823 19.1358C9.59465 19.4222 10.1181 19.4222 10.4144 19.1358C10.5626 18.9877 10.6416 18.7901 10.6416 18.5827V15.9457C10.6416 15.8765 10.6515 15.8074 10.6811 15.7383C10.7008 15.679 10.7403 15.6198 10.7897 15.5704C10.8391 15.5111 10.8984 15.4815 10.9675 15.4519C11.0366 15.4222 11.1156 15.4123 11.1749 15.4123H13.8119C13.8712 15.4123 13.9502 15.4222 14.0194 15.4519C14.0786 15.4716 14.1477 15.5111 14.1971 15.5605C14.2465 15.6099 14.286 15.6691 14.3058 15.7383C14.3354 15.8074 14.3453 15.8765 14.3453 15.9457V20.4296H5.91069C5.84156 20.4395 5.76255 20.4198 5.70329 20.4C5.63416 20.3704 5.57491 20.3309 5.52552 20.2815C5.47614 20.2321 5.43664 20.1728 5.40701 20.1037C5.38726 20.0444 5.36751 19.9753 5.37738 19.8963V12.4988C5.88109 12.7457 6.45393 12.8346 7.01689 12.7457C7.59961 12.6469 8.13292 12.3605 8.53786 11.9358C8.78477 12.1827 9.06132 12.3901 9.37737 12.5284C10.0885 12.8543 10.9379 12.8543 11.649 12.5284C11.965 12.3901 12.2514 12.1827 12.4885 11.9358C12.7354 12.1827 13.0119 12.3901 13.328 12.5284C14.049 12.8543 14.8885 12.8543 15.5996 12.5284C15.9157 12.3901 16.2021 12.1827 16.4391 11.9358C16.686 12.1827 16.9626 12.3901 17.2786 12.5284C17.644 12.6963 18.0193 12.7753 18.4144 12.7753H18.4243C18.8292 12.7753 19.2441 12.6864 19.6095 12.4988V14.6321C19.6095 14.8395 19.6885 15.037 19.8366 15.1852C20.1329 15.4716 20.6564 15.4716 20.9428 15.1852C21.0909 15.037 21.1798 14.8395 21.1798 14.6321V8.66667C21.4761 8.54815 21.7428 8.36049 21.9601 8.11358C22.1971 7.85679 22.3551 7.53086 22.4342 7.18519C22.5132 6.84938 22.5033 6.48395 22.4045 6.14815ZM18.4243 11.2148C18.1082 11.2148 17.8021 11.0864 17.5749 10.8691C17.3576 10.642 17.2292 10.3358 17.2292 10.0198V8.82469H19.6193V10.0198C19.6193 10.3457 19.491 10.642 19.2638 10.8691C19.0465 11.0864 18.7403 11.2148 18.4243 11.2148ZM20.8934 6.93827C20.8539 7.03704 20.7947 7.12593 20.7058 7.18519C20.6169 7.24444 20.5181 7.27408 20.3996 7.2642H4.58724C4.4786 7.27408 4.37985 7.24444 4.29096 7.18519C4.20207 7.12593 4.14281 7.03704 4.1033 6.9284C4.05392 6.82963 4.04403 6.73086 4.06379 6.62222C4.08354 6.52346 4.1428 6.42469 4.22181 6.35556L6.85886 3.71852C6.95763 3.61975 7.08603 3.5605 7.23418 3.5605H17.7625C17.9107 3.5605 18.0391 3.61975 18.1379 3.71852L20.7848 6.35556C20.8539 6.42469 20.9132 6.52346 20.9329 6.62222C20.9527 6.73086 20.9428 6.82963 20.8934 6.93827ZM7.76749 10.0198C7.76749 10.3457 7.63911 10.642 7.41195 10.8691C7.19466 11.0864 6.88848 11.2148 6.57244 11.2148C6.25639 11.2148 5.95023 11.0864 5.72307 10.8691C5.50578 10.642 5.37738 10.3358 5.37738 10.0198V8.82469H7.76749V10.0198ZM11.7181 10.0198C11.7181 10.3457 11.5897 10.642 11.3626 10.8691C11.1453 11.0864 10.8391 11.2148 10.5231 11.2148C10.207 11.2148 9.90084 11.0864 9.67368 10.8691C9.4564 10.642 9.328 10.3358 9.328 10.0198V8.82469H11.7181V10.0198ZM15.6687 10.0198C15.6687 10.3457 15.5403 10.642 15.3132 10.8691C15.0959 11.0864 14.7897 11.2148 14.4737 11.2148C14.1576 11.2148 13.8515 11.0864 13.6243 10.8691C13.407 10.642 13.2786 10.3358 13.2786 10.0198V8.82469H15.6687V10.0198Z"/>
</svg>
