<svg width="24" height="24" viewBox="0 0 24 24" xmlns="http://www.w3.org/2000/svg">
<path d="M17 21C17 19.1435 16.2629 17.3626 14.9502 16.0498C13.7194 14.819 12.077 14.0945 10.3467 14.0088L10 14C8.14348 14 6.36256 14.7371 5.0498 16.0498C3.73705 17.3626 3 19.1435 3 21C3 21.5523 2.55228 22 2 22C1.44772 22 1 21.5523 1 21C1 18.6131 1.94791 16.3236 3.63574 14.6357C5.32357 12.9479 7.61305 12 10 12C12.3869 12 14.6764 12.9479 16.3643 14.6357C18.0521 16.3236 19 18.6131 19 21C19 21.5523 18.5523 22 18 22C17.4477 22 17 21.5523 17 21Z" />
<path d="M14 8C14 5.79086 12.2091 4 10 4C7.79086 4 6 5.79086 6 8C6 10.2091 7.79086 12 10 12C12.2091 12 14 10.2091 14 8ZM16 8C16 11.3137 13.3137 14 10 14C6.68629 14 4 11.3137 4 8C4 4.68629 6.68629 2 10 2C13.3137 2 16 4.68629 16 8Z" />
<path d="M21.0002 19.9998C21.0001 16.9891 19.1856 14.1391 17.3996 12.7996C17.1481 12.6108 17.0002 12.3144 17.0002 11.9998C17.0003 11.6852 17.148 11.3888 17.3996 11.2C17.9255 10.8054 18.3463 10.2871 18.6242 9.69121C18.9021 9.09542 19.0289 8.44043 18.9934 7.78398C18.9578 7.12745 18.7609 6.48985 18.4201 5.92754C18.1219 5.43546 17.7216 5.01448 17.2473 4.69219L17.0402 4.56035L16.9543 4.50371C16.5469 4.2025 16.4258 3.63548 16.6896 3.19023C16.9538 2.74486 17.5101 2.5785 17.9699 2.7918L18.0598 2.83965L18.3713 3.03789C19.0828 3.52133 19.6838 4.15328 20.1311 4.89141C20.642 5.73473 20.937 6.69101 20.9904 7.67559C21.0438 8.66037 20.8536 9.64315 20.4367 10.5369C20.1928 11.0599 19.8736 11.5411 19.4943 11.9705C21.3666 13.7934 23.0001 16.7771 23.0002 19.9998C23.0002 20.552 22.5524 20.9997 22.0002 20.9998C21.4479 20.9998 21.0002 20.5521 21.0002 19.9998Z" />
</svg>
