<svg viewBox="0 0 11 12"  xmlns="http://www.w3.org/2000/svg">
<path d="M9.84421 2.55087C9.98287 2.69743 10.0922 2.86919 10.1662 3.05687C10.2487 3.24325 10.2936 3.4441 10.2982 3.64787V11.3549C10.2969 11.525 10.2287 11.6878 10.1084 11.8081C9.98813 11.9284 9.82534 11.9966 9.65521 11.9979H0.665212C0.577454 12.0027 0.489694 11.9884 0.408017 11.9559C0.326341 11.9235 0.252704 11.8736 0.192212 11.8099C0.130186 11.7519 0.0810418 11.6815 0.0479656 11.6033C0.0148895 11.5251 -0.00137994 11.4408 0.000212228 11.3559V0.64487C-0.00203185 0.560097 0.0135418 0.475796 0.0459259 0.397419C0.0783101 0.319042 0.126784 0.248335 0.188212 0.18987C0.248613 0.125927 0.32221 0.075899 0.403891 0.0432612C0.485572 0.0106234 0.573378 -0.00384187 0.661212 0.00087024H6.66921C6.87298 0.005507 7.07383 0.0503663 7.26021 0.13287C7.44266 0.214697 7.60792 0.330411 7.74721 0.47387L9.84421 2.55087ZM9.46121 11.1619V4.29187H6.66921C6.58336 4.29373 6.498 4.2785 6.41809 4.24709C6.33818 4.21567 6.2653 4.16868 6.20371 4.10885C6.14211 4.04902 6.09302 3.97755 6.05929 3.89858C6.02556 3.81962 6.00785 3.73474 6.00721 3.64887V0.85687H0.855212V11.1569L9.46121 11.1619ZM2.57221 5.36187C2.57366 5.30534 2.59571 5.25129 2.63421 5.20987C2.67665 5.17103 2.73273 5.15054 2.79021 5.15287H7.52121C7.54968 5.15095 7.57823 5.15514 7.60494 5.16517C7.63165 5.1752 7.65591 5.19082 7.67609 5.211C7.69626 5.23117 7.71189 5.25543 7.72191 5.28214C7.73194 5.30885 7.73613 5.3374 7.73421 5.36587V5.79687C7.7349 5.82503 7.72986 5.85303 7.7194 5.87919C7.70893 5.90534 7.69327 5.92909 7.67335 5.94901C7.65343 5.96893 7.62968 5.98459 7.60353 5.99505C7.57738 6.00551 7.54937 6.01056 7.52121 6.00987H2.79021C2.76127 6.01146 2.73233 6.00673 2.70539 5.99603C2.67846 5.98532 2.65417 5.96889 2.63421 5.94787C2.61423 5.92818 2.59844 5.90466 2.58778 5.87871C2.57713 5.85276 2.57183 5.82492 2.57221 5.79687V5.36187ZM7.51121 6.86187C7.53981 6.86115 7.56824 6.86633 7.59474 6.8771C7.62124 6.88787 7.64524 6.90398 7.66523 6.92444C7.68522 6.9449 7.70078 6.96926 7.71092 6.99601C7.72107 7.02275 7.7256 7.0513 7.72421 7.07987V7.50987C7.7249 7.53803 7.71986 7.56603 7.70939 7.59219C7.69893 7.61834 7.68327 7.64209 7.66335 7.66201C7.64344 7.68193 7.61968 7.69759 7.59353 7.70805C7.56738 7.71851 7.53937 7.72356 7.51121 7.72287H2.79021C2.76127 7.72446 2.73233 7.71973 2.70539 7.70903C2.67846 7.69832 2.65417 7.68189 2.63421 7.66087C2.61423 7.64118 2.59844 7.61766 2.58778 7.59171C2.57713 7.56576 2.57183 7.53792 2.57221 7.50987V7.09787C2.57268 7.03995 2.5948 6.98431 2.63421 6.94187C2.67609 6.90158 2.7321 6.87932 2.79021 6.87987L7.51121 6.86187ZM7.51121 8.57887C7.53926 8.57849 7.5671 8.58379 7.59305 8.59444C7.619 8.60509 7.64252 8.62089 7.66221 8.64087C7.68323 8.66083 7.69967 8.68511 7.71037 8.71205C7.72108 8.73899 7.7258 8.76793 7.72421 8.79687V9.22287C7.7258 9.25181 7.72108 9.28075 7.71037 9.30769C7.69967 9.33463 7.68323 9.35891 7.66221 9.37887C7.64252 9.39885 7.619 9.41465 7.59305 9.4253C7.5671 9.43596 7.53926 9.44125 7.51121 9.44087H2.79021C2.76121 9.4423 2.73222 9.43764 2.70512 9.42719C2.67803 9.41675 2.65342 9.40074 2.63288 9.3802C2.61235 9.35967 2.59634 9.33506 2.58589 9.30796C2.57544 9.28086 2.57078 9.25188 2.57221 9.22287V8.80087C2.57078 8.77186 2.57544 8.74288 2.58589 8.71578C2.59634 8.68868 2.61235 8.66407 2.63288 8.64354C2.65342 8.623 2.67803 8.607 2.70512 8.59655C2.73222 8.5861 2.76121 8.58144 2.79021 8.58287L7.51121 8.57887ZM6.86321 0.90987V3.43587H9.38521C9.35972 3.33375 9.3092 3.23959 9.23821 3.16187L7.13821 1.06187C7.05943 0.990758 6.96533 0.938747 6.86321 0.90987Z" />
</svg>
