<svg viewBox="0 0 18 18" xmlns="http://www.w3.org/2000/svg">
<path d="M11.25 14.625C11.25 14.8488 11.1611 15.0634 11.0028 15.2216C10.8446 15.3799 10.63 15.4688 10.4062 15.4688H8.43746C8.21368 15.4688 7.99907 15.3799 7.84084 15.2216C7.6826 15.0634 7.59371 14.8488 7.59371 14.625V10.6875C7.59371 10.4637 7.6826 10.2491 7.84084 10.0909C7.99907 9.93264 8.21368 9.84375 8.43746 9.84375C8.66124 9.84375 8.87585 9.93264 9.03408 10.0909C9.19231 10.2491 9.28121 10.4637 9.28121 10.6875V13.7812H10.4062C10.63 13.7812 10.8446 13.8701 11.0028 14.0284C11.1611 14.1866 11.25 14.4012 11.25 14.625ZM6.3984 9.99984C6.30823 9.93518 6.20619 9.88894 6.09813 9.86377C5.99006 9.8386 5.87809 9.83498 5.76863 9.85314C5.65917 9.8713 5.55437 9.91086 5.46022 9.96958C5.36607 10.0283 5.28442 10.105 5.21996 10.1953L4.49996 11.2036L3.78066 10.1953C3.65013 10.0132 3.4526 9.89043 3.23153 9.85397C3.01047 9.81751 2.78397 9.87036 2.60187 10.0009C2.41978 10.1314 2.29699 10.329 2.26053 10.55C2.22407 10.7711 2.27692 10.9976 2.40746 11.1797L3.46215 12.6562L2.40746 14.1328C2.34282 14.223 2.29658 14.325 2.27137 14.433C2.24616 14.5411 2.24248 14.653 2.26053 14.7625C2.27858 14.8719 2.31802 14.9768 2.37659 15.071C2.43516 15.1652 2.51171 15.247 2.60187 15.3116C2.69204 15.3762 2.79405 15.4225 2.90209 15.4477C3.01013 15.4729 3.12207 15.4766 3.23153 15.4585C3.34099 15.4405 3.44583 15.401 3.54005 15.3425C3.63427 15.2839 3.71603 15.2074 3.78066 15.1172L4.49996 14.1061L5.21996 15.1172C5.3505 15.2993 5.54802 15.4221 5.76909 15.4585C5.99016 15.495 6.21665 15.4421 6.39875 15.3116C6.58085 15.1811 6.70363 14.9835 6.74009 14.7625C6.77655 14.5414 6.7237 14.3149 6.59316 14.1328L5.53848 12.6562L6.59316 11.1797C6.65808 11.0895 6.70454 10.9874 6.72989 10.8792C6.75524 10.7711 6.75898 10.6589 6.74088 10.5493C6.72278 10.4397 6.68321 10.3347 6.62444 10.2404C6.56567 10.1461 6.48885 10.0644 6.3984 9.99984ZM15.0138 12.2534C14.6538 12.0108 14.2179 11.8849 13.8332 11.7738C13.6446 11.7229 13.4587 11.6621 13.2764 11.5917C13.4486 11.5087 13.9591 11.5003 14.4063 11.6149C14.6191 11.6621 14.842 11.6251 15.0282 11.5116C15.2143 11.3981 15.3493 11.217 15.4049 11.0062C15.4604 10.7953 15.4322 10.5712 15.3261 10.3807C15.2201 10.1902 15.0444 10.0482 14.8359 9.98438C14.559 9.91607 14.2767 9.87231 13.9921 9.85359C13.2939 9.80719 12.7265 9.92953 12.2976 10.2171C12.0885 10.3575 11.9128 10.5421 11.7829 10.7579C11.653 10.9737 11.5721 11.2154 11.546 11.4659C11.4686 12.0804 11.7211 12.6098 12.2568 12.9558C12.5929 13.173 12.9853 13.2863 13.3643 13.3959C13.5752 13.4585 13.9225 13.5577 14.0589 13.6441C14.0565 13.6614 14.0516 13.6783 14.0442 13.6941C13.9479 13.803 13.3706 13.8199 12.8918 13.6898C12.7844 13.6577 12.6716 13.6472 12.5601 13.6591C12.4487 13.671 12.3407 13.705 12.2425 13.7591C12.1443 13.8132 12.0578 13.8863 11.9882 13.9742C11.9186 14.0621 11.8672 14.163 11.837 14.271C11.8069 14.3789 11.7985 14.4918 11.8125 14.6031C11.8264 14.7143 11.8624 14.8217 11.9183 14.9189C11.9742 15.016 12.0489 15.1011 12.1381 15.1691C12.2272 15.2371 12.329 15.2866 12.4375 15.3148C12.8093 15.4148 13.1923 15.4666 13.5773 15.4688C14.0315 15.4688 14.5427 15.3865 14.9646 15.1066C15.1782 14.9654 15.358 14.7787 15.4911 14.5599C15.6241 14.3411 15.7073 14.0957 15.7345 13.841C15.8203 13.1857 15.5622 12.6232 15.0124 12.2534H15.0138ZM2.53121 7.59375V2.8125C2.53121 2.43954 2.67937 2.08185 2.94309 1.81813C3.20681 1.55441 3.5645 1.40625 3.93746 1.40625H10.6875C10.7983 1.40616 10.9081 1.42791 11.0105 1.47026C11.1129 1.51261 11.206 1.57472 11.2844 1.65305L15.2219 5.59055C15.3002 5.66896 15.3624 5.76204 15.4047 5.86447C15.447 5.9669 15.4688 6.07666 15.4687 6.1875V7.59375C15.4687 7.81753 15.3798 8.03214 15.2216 8.19037C15.0633 8.34861 14.8487 8.4375 14.625 8.4375C14.4012 8.4375 14.1866 8.34861 14.0283 8.19037C13.8701 8.03214 13.7812 7.81753 13.7812 7.59375V7.3125H10.4062C10.1824 7.3125 9.96782 7.22361 9.80959 7.06537C9.65135 6.90714 9.56246 6.69253 9.56246 6.46875V3.09375H4.21871V7.59375C4.21871 7.81753 4.12981 8.03214 3.97158 8.19037C3.81335 8.34861 3.59874 8.4375 3.37496 8.4375C3.15118 8.4375 2.93657 8.34861 2.77834 8.19037C2.6201 8.03214 2.53121 7.81753 2.53121 7.59375ZM11.25 5.625H12.8671L11.25 4.00781V5.625Z" />
</svg>
