<svg viewBox="0 0 24 24" xmlns="http://www.w3.org/2000/svg">
<path d="M4.5 13.125H3C2.70163 13.125 2.41548 13.2435 2.2045 13.4545C1.99353 13.6655 1.875 13.9516 1.875 14.25V19.5C1.875 19.7984 1.99353 20.0845 2.2045 20.2955C2.41548 20.5065 2.70163 20.625 3 20.625H4.5C5.49456 20.625 6.44839 20.2299 7.15165 19.5266C7.85491 18.8234 8.25 17.8696 8.25 16.875C8.25 15.8804 7.85491 14.9266 7.15165 14.2233C6.44839 13.5201 5.49456 13.125 4.5 13.125ZM4.5 18.375H4.125V15.375H4.5C4.89782 15.375 5.27936 15.533 5.56066 15.8143C5.84196 16.0956 6 16.4772 6 16.875C6 17.2728 5.84196 17.6544 5.56066 17.9357C5.27936 18.217 4.89782 18.375 4.5 18.375ZM21.4031 18.0187C21.5103 18.121 21.5963 18.2433 21.656 18.3789C21.7158 18.5144 21.7482 18.6603 21.7515 18.8084C21.7547 18.9565 21.7286 19.1038 21.6748 19.2417C21.621 19.3797 21.5404 19.5057 21.4378 19.6125C21.1416 19.9299 20.7836 20.1834 20.3859 20.3575C19.9882 20.5316 19.5591 20.6226 19.125 20.625C17.2641 20.625 15.75 18.9431 15.75 16.875C15.75 14.8069 17.2641 13.125 19.125 13.125C19.5593 13.1277 19.9886 13.2192 20.3863 13.3938C20.784 13.5684 21.1418 13.8224 21.4378 14.1403C21.6442 14.3559 21.7565 14.6446 21.75 14.943C21.7435 15.2413 21.6187 15.5249 21.4031 15.7313C21.1876 15.9376 20.8988 16.0499 20.6005 16.0434C20.3021 16.0369 20.0186 15.9121 19.8122 15.6966C19.7254 15.5992 19.6197 15.5205 19.5016 15.4652C19.3835 15.41 19.2554 15.3793 19.125 15.375C18.5156 15.375 18 16.0622 18 16.875C18 17.6878 18.5156 18.375 19.125 18.375C19.2554 18.3707 19.3835 18.34 19.5016 18.2848C19.6197 18.2295 19.7254 18.1508 19.8122 18.0534C19.9144 17.9467 20.0366 17.8611 20.1718 17.8016C20.3071 17.742 20.4527 17.7097 20.6005 17.7065C20.7482 17.7033 20.8951 17.7292 21.0329 17.7828C21.1706 17.8364 21.2964 17.9165 21.4031 18.0187ZM12 13.125C10.1391 13.125 8.625 14.8069 8.625 16.875C8.625 18.9431 10.1391 20.625 12 20.625C13.8609 20.625 15.375 18.9431 15.375 16.875C15.375 14.8069 13.8609 13.125 12 13.125ZM12 18.375C11.3906 18.375 10.875 17.6878 10.875 16.875C10.875 16.0622 11.3906 15.375 12 15.375C12.6094 15.375 13.125 16.0622 13.125 16.875C13.125 17.6878 12.6094 18.375 12 18.375ZM4.5 11.25C4.79837 11.25 5.08452 11.1315 5.2955 10.9205C5.50647 10.7095 5.625 10.4234 5.625 10.125V4.125H12.75V8.625C12.75 8.92337 12.8685 9.20952 13.0795 9.4205C13.2905 9.63147 13.5766 9.75 13.875 9.75H18.375V10.125C18.375 10.4234 18.4935 10.7095 18.7045 10.9205C18.9155 11.1315 19.2016 11.25 19.5 11.25C19.7984 11.25 20.0845 11.1315 20.2955 10.9205C20.5065 10.7095 20.625 10.4234 20.625 10.125V8.25C20.625 7.95187 20.5066 7.66593 20.2959 7.455L15.0459 2.205C14.9415 2.10039 14.8174 2.0174 14.6808 1.96078C14.5442 1.90416 14.3978 1.87501 14.25 1.875H5.25C4.75272 1.875 4.27581 2.07254 3.92417 2.42417C3.57254 2.77581 3.375 3.25272 3.375 3.75V10.125C3.375 10.4234 3.49353 10.7095 3.7045 10.9205C3.91548 11.1315 4.20163 11.25 4.5 11.25ZM15 5.34375L17.1562 7.5H15V5.34375Z" />
</svg>
