<svg width="24" height="24" viewBox="0 0 24 24" fill="none" xmlns="http://www.w3.org/2000/svg">
<path d="M9.9969 15.8754L9.82298 16.9137C9.79411 17.088 9.81544 17.2669 9.88447 17.4295C9.95351 17.5922 10.0674 17.7317 10.2128 17.8319C10.3488 17.9311 10.5106 17.989 10.6786 17.9986C10.8467 18.0082 11.014 17.9691 11.1604 17.886L12.012 17.3998L12.8756 17.874C13.0195 17.9563 13.1839 17.9961 13.3495 17.9886C13.5151 17.9812 13.6752 17.9269 13.8112 17.8319C13.9524 17.7312 14.0626 17.5929 14.1293 17.4328C14.1961 17.2726 14.2168 17.097 14.189 16.9257L14.0151 15.8874L14.7348 15.1552C14.8535 15.0344 14.9368 14.8833 14.9755 14.7183C15.0143 14.5533 15.0069 14.3809 14.9543 14.2198C14.9017 14.0587 14.8058 13.9152 14.6772 13.805C14.5486 13.6948 14.3921 13.622 14.225 13.5948L13.2534 13.4507L12.8156 12.5205C12.7433 12.365 12.6282 12.2334 12.4837 12.1412C12.3392 12.049 12.1714 12 12 12C11.8286 12 11.6608 12.049 11.5163 12.1412C11.3718 12.2334 11.2567 12.365 11.1844 12.5205L10.7466 13.4507L9.775 13.5948C9.60786 13.622 9.45144 13.6948 9.32282 13.805C9.1942 13.9152 9.09834 14.0587 9.04572 14.2198C8.9931 14.3809 8.98575 14.5533 9.02446 14.7183C9.06317 14.8833 9.14646 15.0344 9.26523 15.1552L9.9969 15.8754Z" fill="#5C5C5C"/>
<path fill-rule="evenodd" clip-rule="evenodd" d="M18 4V3C18 2.44772 17.5523 2 17 2C16.4477 2 16 2.44772 16 3V4H8V3C8 2.44772 7.55228 2 7 2C6.44772 2 6 2.44772 6 3V4H5C3.34315 4 2 5.34315 2 7V19C2 20.6569 3.34315 22 5 22H19C20.6569 22 22 20.6569 22 19V7C22 5.34315 20.6569 4 19 4H18ZM4 10H20V19C20 19.5523 19.5523 20 19 20H5C4.44772 20 4 19.5523 4 19V10ZM4 7V8H20V7C20 6.44772 19.5523 6 19 6H5C4.44772 6 4 6.44772 4 7Z" fill="#5C5C5C"/>
</svg>
