<svg width="24" height="24" viewBox="0 0 24 24" fill="none" xmlns="http://www.w3.org/2000/svg">
<path fill-rule="evenodd" clip-rule="evenodd" d="M20 10H4V8H20V10Z" fill="#5C5C5C"/>
<path fill-rule="evenodd" clip-rule="evenodd" d="M17 2C17.5523 2 18 2.44772 18 3V4C18 4.55228 17.5523 5 17 5C16.4477 5 16 4.55228 16 4V3C16 2.44772 16.4477 2 17 2Z" fill="#5C5C5C"/>
<path fill-rule="evenodd" clip-rule="evenodd" d="M8 3C8 2.44772 7.55228 2 7 2C6.44772 2 6 2.44772 6 3V4H5C3.34315 4 2 5.34315 2 7V19C2 20.6569 3.34315 22 5 22H19C20.6569 22 22 20.6569 22 19V7C22 5.34315 20.6569 4 19 4H8V3ZM8 4C8 4.55228 7.55228 5 7 5C6.44772 5 6 4.55228 6 4H8ZM4 7C4 6.44772 4.44772 6 5 6H19C19.5523 6 20 6.44772 20 7V19C20 19.5523 19.5523 20 19 20H5C4.44772 20 4 19.5523 4 19V7Z" fill="#5C5C5C"/>
<path d="M8 4H6C6 4.55228 6.44772 5 7 5C7.55228 5 8 4.55228 8 4Z" fill="#5C5C5C"/>
<path d="M8.26535 14.9131H8.96848C9.24191 14.9131 9.46815 14.8659 9.64719 14.7715C9.82948 14.6771 9.96457 14.5469 10.0525 14.3809C10.1404 14.2148 10.1843 14.0244 10.1843 13.8096C10.1843 13.585 10.1436 13.3929 10.0622 13.2334C9.9841 13.0706 9.86366 12.9453 9.7009 12.8574C9.54139 12.7695 9.33794 12.7256 9.09055 12.7256C8.88221 12.7256 8.69341 12.7679 8.52414 12.8525C8.35813 12.9339 8.22629 13.0511 8.12863 13.2041C8.03098 13.3538 7.98215 13.5329 7.98215 13.7412H6.80051C6.80051 13.3636 6.89979 13.0283 7.09836 12.7354C7.29693 12.4424 7.56711 12.2129 7.90891 12.0469C8.25396 11.8776 8.64133 11.793 9.07102 11.793C9.53 11.793 9.93039 11.8695 10.2722 12.0225C10.6172 12.1722 10.8858 12.3968 11.0779 12.6963C11.2699 12.9958 11.3659 13.3669 11.3659 13.8096C11.3659 14.0114 11.3187 14.2165 11.2243 14.4248C11.1299 14.6331 10.99 14.8236 10.8044 14.9961C10.6189 15.1654 10.3877 15.3037 10.1111 15.4111C9.83436 15.5153 9.51372 15.5674 9.14914 15.5674H8.26535V14.9131ZM8.26535 15.8311V15.1865H9.14914C9.56581 15.1865 9.92063 15.2354 10.2136 15.333C10.5098 15.4307 10.7507 15.5658 10.9363 15.7383C11.1218 15.9076 11.2569 16.1012 11.3415 16.3193C11.4294 16.5374 11.4734 16.7686 11.4734 17.0127C11.4734 17.3447 11.4131 17.641 11.2927 17.9014C11.1755 18.1585 11.0079 18.3766 10.7898 18.5557C10.5717 18.7347 10.3161 18.8698 10.0232 18.9609C9.73345 19.0521 9.4177 19.0977 9.0759 19.0977C8.76991 19.0977 8.47694 19.0553 8.19699 18.9707C7.91704 18.8861 7.66639 18.7607 7.44504 18.5947C7.22369 18.4255 7.0479 18.2155 6.9177 17.9648C6.79074 17.7109 6.72727 17.418 6.72727 17.0859H7.90402C7.90402 17.2975 7.95285 17.4847 8.05051 17.6475C8.15142 17.807 8.29139 17.9323 8.47043 18.0234C8.65272 18.1146 8.86105 18.1602 9.09543 18.1602C9.34283 18.1602 9.55604 18.1162 9.73508 18.0283C9.91411 17.9404 10.0508 17.8102 10.1452 17.6377C10.2429 17.4652 10.2917 17.2568 10.2917 17.0127C10.2917 16.736 10.238 16.5114 10.1306 16.3389C10.0232 16.1663 9.87017 16.0394 9.6716 15.958C9.47303 15.8734 9.23866 15.8311 8.96848 15.8311H8.26535ZM17.1409 14.8496V16.0117C17.1409 16.5684 17.0856 17.0436 16.9749 17.4375C16.8675 17.8281 16.7112 18.1455 16.5061 18.3896C16.3011 18.6338 16.0553 18.8128 15.7688 18.9268C15.4856 19.0407 15.1682 19.0977 14.8167 19.0977C14.5367 19.0977 14.2763 19.0618 14.0354 18.9902C13.7978 18.9186 13.583 18.8063 13.3909 18.6533C13.1988 18.5003 13.0345 18.3034 12.8977 18.0625C12.7643 17.8184 12.6601 17.527 12.5852 17.1885C12.5136 16.8499 12.4778 16.4577 12.4778 16.0117V14.8496C12.4778 14.2897 12.5332 13.8177 12.6438 13.4336C12.7545 13.0462 12.9124 12.7321 13.1175 12.4912C13.3225 12.2471 13.5667 12.0697 13.8499 11.959C14.1363 11.8483 14.4554 11.793 14.8069 11.793C15.0901 11.793 15.3505 11.8288 15.5882 11.9004C15.829 11.9688 16.0439 12.0778 16.2327 12.2275C16.4248 12.3773 16.5875 12.5726 16.721 12.8135C16.8577 13.0511 16.9619 13.3392 17.0335 13.6777C17.1051 14.013 17.1409 14.4036 17.1409 14.8496ZM15.9641 16.1777V14.6738C15.9641 14.3906 15.9479 14.1416 15.9153 13.9268C15.8828 13.7087 15.8339 13.5247 15.7688 13.375C15.707 13.222 15.6289 13.0983 15.5345 13.0039C15.4401 12.9062 15.3326 12.8363 15.2122 12.7939C15.0917 12.7484 14.9567 12.7256 14.8069 12.7256C14.6246 12.7256 14.4619 12.7614 14.3186 12.833C14.1754 12.9014 14.055 13.012 13.9573 13.165C13.8596 13.318 13.7848 13.5199 13.7327 13.7705C13.6839 14.0179 13.6595 14.319 13.6595 14.6738V16.1777C13.6595 16.4642 13.6757 16.7165 13.7083 16.9346C13.7408 17.1527 13.7897 17.3398 13.8548 17.4961C13.9199 17.6491 13.998 17.776 14.0891 17.877C14.1835 17.9746 14.291 18.0462 14.4114 18.0918C14.5351 18.1374 14.6702 18.1602 14.8167 18.1602C15.0022 18.1602 15.1666 18.1243 15.3098 18.0527C15.4531 17.9811 15.5735 17.8672 15.6712 17.7109C15.7688 17.5514 15.8421 17.3447 15.8909 17.0908C15.9397 16.8369 15.9641 16.5326 15.9641 16.1777Z" fill="#333333"/>
</svg>
