<svg width="24" height="24" viewBox="0 0 24 24" fill="none" xmlns="http://www.w3.org/2000/svg">
<path fill-rule="evenodd" clip-rule="evenodd" d="M20 10H4V8H20V10Z" fill="#5C5C5C"/>
<path fill-rule="evenodd" clip-rule="evenodd" d="M17 2C17.5523 2 18 2.44772 18 3V4C18 4.55228 17.5523 5 17 5C16.4477 5 16 4.55228 16 4V3C16 2.44772 16.4477 2 17 2Z" fill="#5C5C5C"/>
<path fill-rule="evenodd" clip-rule="evenodd" d="M8 3C8 2.44772 7.55228 2 7 2C6.44772 2 6 2.44772 6 3V4H5C3.34315 4 2 5.34315 2 7V19C2 20.6569 3.34315 22 5 22H19C20.6569 22 22 20.6569 22 19V7C22 5.34315 20.6569 4 19 4H8V3ZM8 4C8 4.55228 7.55228 5 7 5C6.44772 5 6 4.55228 6 4H8ZM4 7C4 6.44772 4.44772 6 5 6H19C19.5523 6 20 6.44772 20 7V19C20 19.5523 19.5523 20 19 20H5C4.44772 20 4 19.5523 4 19V7Z" fill="#5C5C5C"/>
<path d="M8 4H6C6 4.55228 6.44772 5 7 5C7.55228 5 8 4.55228 8 4Z" fill="#5C5C5C"/>
</svg>
