<svg width="24" height="24" viewBox="0 0 24 24" fill="none" xmlns="http://www.w3.org/2000/svg">
<path fill-rule="evenodd" clip-rule="evenodd" d="M20 10H4V8H20V10Z" fill="#5C5C5C"/>
<path fill-rule="evenodd" clip-rule="evenodd" d="M17 2C17.5523 2 18 2.44772 18 3V4C18 4.55228 17.5523 5 17 5C16.4477 5 16 4.55228 16 4V3C16 2.44772 16.4477 2 17 2Z" fill="#5C5C5C"/>
<path fill-rule="evenodd" clip-rule="evenodd" d="M8 3C8 2.44772 7.55228 2 7 2C6.44772 2 6 2.44772 6 3V4H5C3.34315 4 2 5.34315 2 7V19C2 20.6569 3.34315 22 5 22H19C20.6569 22 22 20.6569 22 19V7C22 5.34315 20.6569 4 19 4H8V3ZM8 4C8 4.55228 7.55228 5 7 5C6.44772 5 6 4.55228 6 4H8ZM4 7C4 6.44772 4.44772 6 5 6H19C19.5523 6 20 6.44772 20 7V19C20 19.5523 19.5523 20 19 20H5C4.44772 20 4 19.5523 4 19V7Z" fill="#5C5C5C"/>
<path d="M8 4H6C6 4.55228 6.44772 5 7 5C7.55228 5 8 4.55228 8 4Z" fill="#5C5C5C"/>
<path d="M14.3846 12.0769C14.5064 12.1277 14.617 12.2021 14.71 12.2958C14.8037 12.3888 14.8781 12.4994 14.9289 12.6212C14.9797 12.7431 15.0058 12.8738 15.0058 13.0058C15.0058 13.1378 14.9797 13.2685 14.9289 13.3904C14.8781 13.5122 14.8037 13.6228 14.71 13.7158L13.41 15.0058L14.71 16.2958C14.8037 16.3888 14.8781 16.4994 14.9289 16.6212C14.9797 16.7431 15.0058 16.8738 15.0058 17.0058C15.0058 17.1378 14.9797 17.2685 14.9289 17.3904C14.8781 17.5122 14.8037 17.6228 14.71 17.7158C14.617 17.8095 14.5064 17.8839 14.3846 17.9347C14.2627 17.9855 14.132 18.0116 14 18.0116C13.868 18.0116 13.7373 17.9855 13.6154 17.9347C13.4936 17.8839 13.383 17.8095 13.29 17.7158L12 16.4158L10.71 17.7158C10.617 17.8095 10.5064 17.8839 10.3846 17.9347C10.2627 17.9855 10.132 18.0116 10 18.0116C9.86799 18.0116 9.73728 17.9855 9.61542 17.9347C9.49356 17.8839 9.38296 17.8095 9.29 17.7158C9.19627 17.6228 9.12188 17.5122 9.07111 17.3904C9.02034 17.2685 8.9942 17.1378 8.9942 17.0058C8.9942 16.8738 9.02034 16.7431 9.07111 16.6212C9.12188 16.4994 9.19627 16.3888 9.29 16.2958L10.59 15.0058L9.29 13.7158C9.1017 13.5275 8.99591 13.2721 8.99591 13.0058C8.99591 12.7395 9.1017 12.4841 9.29 12.2958C9.4783 12.1075 9.7337 12.0017 10 12.0017C10.2663 12.0017 10.5217 12.1075 10.71 12.2958L12 13.5958L13.29 12.2958C13.383 12.2021 13.4936 12.1277 13.6154 12.0769C13.7373 12.0261 13.868 12 14 12C14.132 12 14.2627 12.0261 14.3846 12.0769Z" fill="#5C5C5C"/>
</svg>
