<svg width="24" height="24" viewBox="0 0 24 24" fill="none" xmlns="http://www.w3.org/2000/svg">
<path fill-rule="evenodd" clip-rule="evenodd" d="M6 4H5C3.34315 4 2 5.34315 2 7V19C2 20.6569 3.34315 22 5 22H19C20.6569 22 22 20.6569 22 19V7C22 5.34315 20.6569 4 19 4H18V3C18 2.44772 17.5523 2 17 2C16.4477 2 16 2.44772 16 3V4H8V3C8 2.44772 7.55228 2 7 2C6.44772 2 6 2.44772 6 3V4ZM4 7C4 6.44772 4.44772 6 5 6H19C19.5523 6 20 6.44772 20 7V8H4V7ZM4 19V10H20V19C20 19.5523 19.5523 20 19 20H5C4.44772 20 4 19.5523 4 19Z" fill="#5C5C5C"/>
<path fill-rule="evenodd" clip-rule="evenodd" d="M10.4626 15.1725C10.4612 15.175 10.4642 15.1701 10.4626 15.1725V15.1725ZM10.4682 15.1628C10.4668 15.1657 10.4699 15.1601 10.4682 15.1628V15.1628ZM13.5533 16.929C13.5393 16.9468 13.5277 16.9665 13.519 16.9876C13.5254 16.9779 13.5316 16.9679 13.5375 16.9577C13.5431 16.9482 13.5483 16.9387 13.5533 16.929Z" fill="#5C5C5C"/>
<path fill-rule="evenodd" clip-rule="evenodd" d="M13.5246 13.1082C13.5303 13.1202 13.5371 13.1317 13.5446 13.1426C13.5414 13.1367 13.5381 13.1308 13.5347 13.125C13.5314 13.1193 13.528 13.1137 13.5246 13.1082ZM10.4685 14.9211C10.467 14.9181 10.4703 14.9238 10.4685 14.9211V14.9211Z" fill="#5C5C5C"/>
<path fill-rule="evenodd" clip-rule="evenodd" d="M10.4625 14.9108L10.4685 14.9211C10.467 14.9183 10.4643 14.9134 10.4625 14.9108ZM10.4626 15.1725C10.4612 15.175 10.4642 15.1701 10.4626 15.1725V15.1725ZM10.4682 15.1628C10.4668 15.1657 10.4699 15.1601 10.4682 15.1628V15.1628ZM10.4685 14.9211C10.467 14.9181 10.4703 14.9238 10.4685 14.9211V14.9211Z" fill="#5C5C5C"/>
<path fill-rule="evenodd" clip-rule="evenodd" d="M10.4685 14.9211C10.467 14.9181 10.4703 14.9238 10.4685 14.9211V14.9211Z" fill="#5C5C5C"/>
<path fill-rule="evenodd" clip-rule="evenodd" d="M10.25 16.5417C10.5714 16.5417 10.8693 16.4406 11.1134 16.2684L12.2572 16.9351C12.2524 16.9838 12.25 17.0333 12.25 17.0833C12.25 17.9117 12.9216 18.5833 13.75 18.5833C14.5784 18.5833 15.25 17.9117 15.25 17.0833C15.25 16.2549 14.5784 15.5833 13.75 15.5833C13.429 15.5833 13.1316 15.6841 12.8876 15.8559L11.7429 15.1887C11.7476 15.1403 11.75 15.0913 11.75 15.0417C11.75 14.992 11.7476 14.9428 11.7429 14.8944L12.8868 14.2269C13.1309 14.3989 13.4286 14.5 13.75 14.5C14.5784 14.5 15.25 13.8284 15.25 13C15.25 12.1716 14.5784 11.5 13.75 11.5C12.9216 11.5 12.25 12.1716 12.25 13C12.25 13.0495 12.2524 13.0985 12.2571 13.1468L11.113 13.8146C10.8689 13.6426 10.5712 13.5417 10.25 13.5417C9.42157 13.5417 8.75 14.2132 8.75 15.0417C8.75 15.8701 9.42157 16.5417 10.25 16.5417ZM10.4682 15.1628L10.4626 15.1725C10.4178 15.2398 10.3369 15.2917 10.25 15.2917C10.1119 15.2917 10 15.1797 10 15.0417C10 14.9036 10.1119 14.7917 10.25 14.7917C10.3366 14.7917 10.4176 14.8439 10.4625 14.9108L10.4685 14.9211C10.4855 14.9548 10.5 15.0013 10.5 15.0417C10.5 15.0823 10.4855 15.1289 10.4682 15.1628ZM13.5446 13.1426C13.5371 13.1317 13.5303 13.1202 13.5246 13.1082C13.5088 13.0754 13.5 13.0388 13.5 13C13.5 12.8619 13.6119 12.75 13.75 12.75C13.8881 12.75 14 12.8619 14 13C14 13.1381 13.8881 13.25 13.75 13.25C13.6649 13.25 13.5898 13.2075 13.5446 13.1426ZM13.519 16.9876C13.5277 16.9665 13.5393 16.9468 13.5533 16.929C13.599 16.8708 13.6701 16.8333 13.75 16.8333C13.8881 16.8333 14 16.9452 14 17.0833C14 17.2214 13.8881 17.3333 13.75 17.3333C13.6119 17.3333 13.5 17.2214 13.5 17.0833C13.5 17.0494 13.5067 17.0171 13.519 16.9876Z" fill="#5C5C5C"/>
</svg>
