<svg width="24" height="24" viewBox="0 0 24 24" fill="none" xmlns="http://www.w3.org/2000/svg">
<path fill-rule="evenodd" clip-rule="evenodd" d="M20 10H4V8H20V10Z" fill="#5C5C5C"/>
<path fill-rule="evenodd" clip-rule="evenodd" d="M17 2C17.5523 2 18 2.44772 18 3V4C18 4.55228 17.5523 5 17 5C16.4477 5 16 4.55228 16 4V3C16 2.44772 16.4477 2 17 2Z" fill="#5C5C5C"/>
<path fill-rule="evenodd" clip-rule="evenodd" d="M8 3C8 2.44772 7.55228 2 7 2C6.44772 2 6 2.44772 6 3V4H5C3.34315 4 2 5.34315 2 7V19C2 20.6569 3.34315 22 5 22H19C20.6569 22 22 20.6569 22 19V7C22 5.34315 20.6569 4 19 4H8V3ZM8 4C8 4.55228 7.55228 5 7 5C6.44772 5 6 4.55228 6 4H8ZM4 7C4 6.44772 4.44772 6 5 6H19C19.5523 6 20 6.44772 20 7V19C20 19.5523 19.5523 20 19 20H5C4.44772 20 4 19.5523 4 19V7Z" fill="#5C5C5C"/>
<path d="M8 4H6C6 4.55228 6.44772 5 7 5C7.55228 5 8 4.55228 8 4Z" fill="#5C5C5C"/>
<path fill-rule="evenodd" clip-rule="evenodd" d="M14.6245 17.4198C14.559 17.4907 14.4907 17.559 14.4197 17.6245C14.4597 17.5984 14.4976 17.5678 14.5327 17.5327C14.5678 17.4976 14.5984 17.4597 14.6245 17.4198ZM9.30869 12.5145C9.33486 12.4743 9.36559 12.4362 9.40087 12.4009C9.43616 12.3656 9.47427 12.3349 9.51449 12.3087C9.44318 12.3745 9.37452 12.4432 9.30869 12.5145Z" fill="#5C5C5C"/>
<path fill-rule="evenodd" clip-rule="evenodd" d="M9.51449 12.3087C10.1592 11.7136 11.0208 11.35 11.9672 11.35C13.9644 11.3502 15.5834 12.9699 15.5834 14.9672C15.5833 15.9137 15.2196 16.7752 14.6245 17.4198C14.559 17.4907 14.4907 17.559 14.4197 17.6245C13.7752 18.2197 12.9137 18.5833 11.9672 18.5834C9.96984 18.5834 8.35015 16.9645 8.34998 14.9672C8.34998 14.0208 8.71358 13.1592 9.30869 12.5145C9.37452 12.4432 9.44318 12.3745 9.51449 12.3087ZM11.9672 12.7504C11.6104 12.7504 11.2733 12.8347 10.9747 12.9845L13.9498 15.9596C14.0996 15.661 14.1839 15.3239 14.184 14.9672C14.184 13.7431 13.1912 12.7506 11.9672 12.7504ZM9.98444 13.9747L12.9595 16.9498C12.6609 17.0996 12.3239 17.1839 11.9672 17.184C10.743 17.184 9.75054 16.1913 9.75037 14.9672C9.75037 14.6104 9.83467 14.2733 9.98444 13.9747Z" fill="#5C5C5C"/>
</svg>
