<svg width="24" height="24" viewBox="0 0 24 24" fill="none" xmlns="http://www.w3.org/2000/svg">
<path fill-rule="evenodd" clip-rule="evenodd" d="M20 10H4V8H20V10Z" fill="#5C5C5C"/>
<path fill-rule="evenodd" clip-rule="evenodd" d="M17 2C17.5523 2 18 2.44772 18 3V4C18 4.55228 17.5523 5 17 5C16.4477 5 16 4.55228 16 4V3C16 2.44772 16.4477 2 17 2Z" fill="#5C5C5C"/>
<path fill-rule="evenodd" clip-rule="evenodd" d="M8 3C8 2.44772 7.55228 2 7 2C6.44772 2 6 2.44772 6 3V4H5C3.34315 4 2 5.34315 2 7V19C2 20.6569 3.34315 22 5 22H19C20.6569 22 22 20.6569 22 19V7C22 5.34315 20.6569 4 19 4H8V3ZM8 4C8 4.55228 7.55228 5 7 5C6.44772 5 6 4.55228 6 4H8ZM4 7C4 6.44772 4.44772 6 5 6H19C19.5523 6 20 6.44772 20 7V19C20 19.5523 19.5523 20 19 20H5C4.44772 20 4 19.5523 4 19V7Z" fill="#5C5C5C"/>
<path d="M8 4H6C6 4.55228 6.44772 5 7 5C7.55228 5 8 4.55228 8 4Z" fill="#5C5C5C"/>
<path d="M10.5354 17.9231C10.4136 17.8723 10.303 17.7979 10.21 17.7042L8.29 15.7842C8.1017 15.5959 7.99591 15.3405 7.99591 15.0742C7.99591 14.8079 8.1017 14.5525 8.29 14.3642C8.4783 14.1759 8.7337 14.0701 9 14.0701C9.2663 14.0701 9.5217 14.1759 9.71 14.3642L10.92 15.5842L14.29 12.2042C14.4783 12.0159 14.7337 11.9101 15 11.9101C15.2663 11.9101 15.5217 12.0159 15.71 12.2042C15.8983 12.3925 16.0041 12.6479 16.0041 12.9142C16.0041 13.1805 15.8983 13.4359 15.71 13.6242L11.63 17.7042C11.537 17.7979 11.4264 17.8723 11.3046 17.9231C11.1827 17.9739 11.052 18 10.92 18C10.788 18 10.6573 17.9739 10.5354 17.9231Z" fill="#5C5C5C"/>
</svg>
