<svg width="24" height="24" viewBox="0 0 24 24" fill="none" xmlns="http://www.w3.org/2000/svg">
<path d="M13.5 11.5C13.5 12.3284 12.8284 13 12 13C11.1716 13 10.5 12.3284 10.5 11.5C10.5 10.6716 11.1716 10 12 10C12.8284 10 13.5 10.6716 13.5 11.5Z" fill="#5C5C5C"/>
<path d="M15 18C15.3419 17.6581 15.3419 17.1037 14.9999 16.7618L12.707 14.4695C12.3165 14.0791 11.6835 14.0791 11.293 14.4695L9.00013 16.7618C8.65813 17.1037 8.65809 17.6581 9.00004 18C9.34196 18.342 9.89632 18.342 10.2382 18L11.125 17.1133V19V21.125C11.125 21.6082 11.5168 22 12 22C12.4832 22 12.875 21.6082 12.875 21.125V19V17.1133L13.7618 18C14.1037 18.342 14.658 18.342 15 18Z" fill="#5C5C5C"/>
<path fill-rule="evenodd" clip-rule="evenodd" d="M20 18V9H4V18C4 18.5523 4.44772 19 5 19H9V21H5C3.34315 21 2 19.6569 2 18V6C2 4.34315 3.34315 3 5 3H8H16H19C20.6569 3 22 4.34315 22 6V18C22 19.6569 20.6569 21 19 21H15V19H19C19.5523 19 20 18.5523 20 18ZM4 7V6C4 5.44772 4.44772 5 5 5H19C19.5523 5 20 5.44772 20 6V7H4Z" fill="#5C5C5C"/>
</svg>
