<svg width="24" height="24" viewBox="0 0 24 24" fill="none" xmlns="http://www.w3.org/2000/svg">
<path d="M22.71 20.29L21.54 19.13C21.914 18.4773 22.0636 17.7199 21.9661 16.974C21.8686 16.2281 21.5292 15.5347 21 15C20.513 14.4957 19.8854 14.1497 19.199 14.0071C18.5126 13.8646 17.7992 13.9321 17.1517 14.2008C16.5041 14.4695 15.9526 14.927 15.5688 15.5137C15.185 16.1004 14.9868 16.7891 15 17.49C14.9966 18.0932 15.1509 18.6868 15.4476 19.2119C15.7444 19.7371 16.1733 20.1755 16.6917 20.4838C17.2102 20.7921 17.8003 20.9594 18.4034 20.9693C19.0065 20.9791 19.6017 20.8311 20.13 20.54L21.29 21.71C21.383 21.8037 21.4936 21.8781 21.6154 21.9289C21.7373 21.9797 21.868 22.0058 22 22.0058C22.132 22.0058 22.2627 21.9797 22.3846 21.9289C22.5064 21.8781 22.617 21.8037 22.71 21.71C22.8037 21.617 22.8781 21.5064 22.9289 21.3846C22.9797 21.2627 23.0058 21.132 23.0058 21C23.0058 20.868 22.9797 20.7373 22.9289 20.6154C22.8781 20.4936 22.8037 20.383 22.71 20.29ZM19.54 18.54C19.2544 18.8086 18.8771 18.9581 18.485 18.9581C18.0929 18.9581 17.7156 18.8086 17.43 18.54C17.1547 18.2598 17.0003 17.8828 17 17.49C16.9979 17.2928 17.0359 17.0971 17.1115 16.915C17.1871 16.7328 17.2989 16.5678 17.44 16.43C17.7066 16.1648 18.0641 16.0111 18.44 16C18.6422 15.9876 18.8447 16.0171 19.035 16.0866C19.2252 16.1562 19.399 16.2643 19.5455 16.4042C19.692 16.5441 19.808 16.7128 19.8862 16.8996C19.9644 17.0865 20.0031 17.2875 20 17.49C19.9917 17.8871 19.8263 18.2647 19.54 18.54Z" fill="#5C5C5C"/>
<path fill-rule="evenodd" clip-rule="evenodd" d="M16.2258 12.3963C16.9245 12.1087 17.6744 11.9761 18.4236 12.0035C18.7285 12.0147 19 11.7824 19 11.4773V5C19 3.34315 17.6569 2 16 2H6C4.34315 2 3 3.34315 3 5V19C3 20.6569 4.34315 22 6 22L15.4723 21.9997C15.6044 21.9997 15.6503 21.8043 15.5365 21.7372C14.7594 21.279 14.1166 20.6271 13.6718 19.8464C13.227 19.0656 12.9958 18.1831 13.0009 17.2864C12.9811 16.2443 13.2782 15.2204 13.8534 14.3482C14.4286 13.476 15.2553 12.7958 16.2258 12.3963ZM16 6C16 5.44772 15.5523 5 15 5L7 5C6.44772 5 6 5.44772 6 6C6 6.55228 6.44772 7 7 7L15 7C15.5523 7 16 6.55229 16 6ZM14 9C14.5523 9 15 9.44772 15 10C15 10.5523 14.5523 11 14 11L7 11C6.44772 11 6 10.5523 6 10C6 9.44772 6.44772 9 7 9L14 9ZM12 14C12 13.4477 11.5523 13 11 13H7C6.44772 13 6 13.4477 6 14C6 14.5523 6.44772 15 7 15H11C11.5523 15 12 14.5523 12 14ZM10 17C10.5523 17 11 17.4477 11 18C11 18.5523 10.5523 19 10 19H7C6.44772 19 6 18.5523 6 18C6 17.4477 6.44772 17 7 17H10Z" fill="#5C5C5C"/>
</svg>
