<svg width="24" height="24" viewBox="0 0 24 24" fill="none" xmlns="http://www.w3.org/2000/svg">
<path fill-rule="evenodd" clip-rule="evenodd" d="M3 7C3 4.79086 4.79086 3 7 3H17C19.2091 3 21 4.79086 21 7V17C21 19.2091 19.2091 21 17 21H7C4.79086 21 3 19.2091 3 17V7ZM9.78014 7.21967C9.48724 6.92678 9.01248 6.92678 8.71959 7.21967L6.91588 9.0224L6.28014 8.38666C5.98724 8.09377 5.51248 8.09377 5.21959 8.38666C4.92686 8.67957 4.92675 9.15437 5.21959 9.44721L6.38658 10.6132C6.67947 10.9061 7.15423 10.9061 7.44713 10.6132L9.78014 8.28022C10.073 7.98732 10.073 7.51256 9.78014 7.21967ZM18 8C18.5523 8 19 8.44771 19 9C19 9.55228 18.5523 10 18 10L13 10C12.4477 10 12 9.55228 12 9C12 8.44772 12.4477 8 13 8L18 8ZM9.78014 13.2197C9.48724 12.9268 9.01248 12.9268 8.71959 13.2197L6.91588 15.0224L6.28014 14.3867C5.98724 14.0938 5.51248 14.0938 5.21959 14.3867C4.92686 14.6796 4.92675 15.1544 5.21959 15.4472L6.38658 16.6132C6.67947 16.9061 7.15423 16.9061 7.44713 16.6132L9.78014 14.2802C10.073 13.9873 10.073 13.5126 9.78014 13.2197ZM18 14C18.5523 14 19 14.4477 19 15C19 15.5523 18.5523 16 18 16L13 16C12.4477 16 12 15.5523 12 15C12 14.4477 12.4477 14 13 14L18 14Z" fill="#5C5C5C"/>
</svg>
