<svg width="24" height="24" viewBox="0 0 24 24" fill="none" xmlns="http://www.w3.org/2000/svg">
<path fill-rule="evenodd" clip-rule="evenodd" d="M8.5 22C9.78864 22 10.9897 21.625 12 20.9782C13.0103 21.625 14.2114 22 15.5 22C19.0899 22 22 19.0899 22 15.5C22 13.3975 21.0018 11.5282 19.4535 10.3401C19.4842 10.0643 19.5 9.784 19.5 9.5C19.5 5.35786 16.1421 2 12 2C7.85786 2 4.5 5.35786 4.5 9.5C4.5 9.784 4.51579 10.0643 4.54653 10.3401C2.9982 11.5282 2 13.3975 2 15.5C2 19.0899 4.91015 22 8.5 22ZM14.9378 16.4028C16.6914 15.6555 18.1021 14.2596 18.8688 12.5164C19.5726 13.3105 20 14.3554 20 15.5C20 17.9853 17.9853 20 15.5 20C14.8096 20 14.1556 19.8445 13.571 19.5667C14.2871 18.6749 14.7728 17.5901 14.9378 16.4028ZM11 15.5C11 15.3021 11.0128 15.1072 11.0375 14.9161C11.1469 14.0721 11.4901 13.3015 12 12.6713C12.5099 13.3015 12.8531 14.0721 12.9625 14.9161C12.9872 15.1072 13 15.3021 13 15.5C13 16.0119 12.9145 16.5038 12.7571 16.9623C12.5849 17.4636 12.3267 17.925 12 18.3287C11.6733 17.925 11.4151 17.4636 11.2429 16.9623C11.0855 16.5038 11 16.0119 11 15.5ZM10.429 19.5667C9.8444 19.8445 9.19035 20 8.5 20C6.01472 20 4 17.9853 4 15.5C4 14.3554 4.42737 13.3105 5.13125 12.5164C5.89787 14.2596 7.30864 15.6555 9.06219 16.4028C9.22717 17.5901 9.7129 18.6749 10.429 19.5667ZM14.8687 14.1936C14.6586 13.164 14.2051 12.223 13.571 11.4333C14.1556 11.1555 14.8096 11 15.5 11C16.0973 11 16.6675 11.1164 17.189 11.3277C16.766 12.5287 15.9379 13.5387 14.8687 14.1936ZM17.4969 9.31249C16.8677 9.1096 16.1967 9 15.5 9C14.2114 9 13.0103 9.375 12 10.0218C10.9897 9.375 9.78864 9 8.5 9C7.80335 9 7.13229 9.1096 6.50314 9.31249C6.60199 6.36174 9.02519 4 12 4C14.9748 4 17.398 6.36174 17.4969 9.31249ZM6.81098 11.3277C7.23399 12.5287 8.06214 13.5387 9.13134 14.1936C9.34142 13.164 9.79489 12.223 10.429 11.4333C9.8444 11.1555 9.19035 11 8.5 11C7.90266 11 7.33251 11.1164 6.81098 11.3277Z" fill="#5C5C5C"/>
</svg>
