<svg width="24" height="24" viewBox="0 0 24 24" fill="none" xmlns="http://www.w3.org/2000/svg">
<path fill-rule="evenodd" clip-rule="evenodd" d="M7.60564 6.48276C7.60564 6.03839 7.95876 5.67816 8.39437 5.67816H8.40338C8.83899 5.67816 9.19212 6.03839 9.19212 6.48276C9.19212 6.92713 8.83899 7.28736 8.40338 7.28736H8.39437C7.95876 7.28736 7.60564 6.92713 7.60564 6.48276Z" fill="#5C5C5C"/>
<path fill-rule="evenodd" clip-rule="evenodd" d="M14.8169 6.48276C14.8169 6.03839 15.17 5.67816 15.6056 5.67816H15.6147C16.0503 5.67816 16.4034 6.03839 16.4034 6.48276C16.4034 6.92713 16.0503 7.28736 15.6147 7.28736H15.6056C15.17 7.28736 14.8169 6.92713 14.8169 6.48276Z" fill="#5C5C5C"/>
<path fill-rule="evenodd" clip-rule="evenodd" d="M11.2113 6.48276C11.2113 6.03839 11.5644 5.67816 12 5.67816H12.009C12.4446 5.67816 12.7978 6.03839 12.7978 6.48276C12.7978 6.92713 12.4446 7.28736 12.009 7.28736H12C11.5644 7.28736 11.2113 6.92713 11.2113 6.48276Z" fill="#5C5C5C"/>
<path fill-rule="evenodd" clip-rule="evenodd" d="M11.2113 10.1609C11.2113 9.71655 11.5644 9.35632 12 9.35632H12.009C12.4446 9.35632 12.7978 9.71655 12.7978 10.1609C12.7978 10.6053 12.4446 10.9655 12.009 10.9655H12C11.5644 10.9655 11.2113 10.6053 11.2113 10.1609Z" fill="#5C5C5C"/>
<path fill-rule="evenodd" clip-rule="evenodd" d="M11.2113 13.8391C11.2113 13.3947 11.5644 13.0345 12 13.0345H12.009C12.4446 13.0345 12.7978 13.3947 12.7978 13.8391C12.7978 14.2834 12.4446 14.6437 12.009 14.6437H12C11.5644 14.6437 11.2113 14.2834 11.2113 13.8391Z" fill="#5C5C5C"/>
<path fill-rule="evenodd" clip-rule="evenodd" d="M14.8169 10.1609C14.8169 9.71655 15.17 9.35632 15.6056 9.35632H15.6147C16.0503 9.35632 16.4034 9.71655 16.4034 10.1609C16.4034 10.6053 16.0503 10.9655 15.6147 10.9655H15.6056C15.17 10.9655 14.8169 10.6053 14.8169 10.1609Z" fill="#5C5C5C"/>
<path fill-rule="evenodd" clip-rule="evenodd" d="M14.8169 13.8391C14.8169 13.3947 15.17 13.0345 15.6056 13.0345H15.6147C16.0503 13.0345 16.4034 13.3947 16.4034 13.8391C16.4034 14.2834 16.0503 14.6437 15.6147 14.6437H15.6056C15.17 14.6437 14.8169 14.2834 14.8169 13.8391Z" fill="#5C5C5C"/>
<path fill-rule="evenodd" clip-rule="evenodd" d="M7.60564 10.1609C7.60564 9.71655 7.95876 9.35632 8.39437 9.35632H8.40338C8.83899 9.35632 9.19212 9.71655 9.19212 10.1609C9.19212 10.6053 8.83899 10.9655 8.40338 10.9655H8.39437C7.95876 10.9655 7.60564 10.6053 7.60564 10.1609Z" fill="#5C5C5C"/>
<path fill-rule="evenodd" clip-rule="evenodd" d="M7.60564 13.8391C7.60564 13.3947 7.95876 13.0345 8.39437 13.0345H8.40338C8.83899 13.0345 9.19212 13.3947 9.19212 13.8391C9.19212 14.2834 8.83899 14.6437 8.40338 14.6437H8.39437C7.95876 14.6437 7.60564 14.2834 7.60564 13.8391Z" fill="#5C5C5C"/>
<path d="M10 18V20H14V18H10ZM16 19.999C16.4651 19.9986 16.7831 19.9959 17.0322 19.9756C17.3038 19.9534 17.4047 19.9158 17.4541 19.8906C17.6421 19.7948 17.7948 19.6421 17.8906 19.4541C17.9158 19.4047 17.9534 19.3038 17.9756 19.0322C17.9987 18.7489 18 18.3764 18 17.7998V6.2002C18 5.62364 17.9987 5.25111 17.9756 4.96777C17.9534 4.69619 17.9158 4.59534 17.8906 4.5459C17.7948 4.35793 17.6421 4.20521 17.4541 4.10938C17.4047 4.08419 17.3038 4.04661 17.0322 4.02441C16.7489 4.00126 16.3764 4 15.7998 4H8.2002C7.62365 4 7.25112 4.00126 6.96778 4.02441C6.69619 4.04661 6.59534 4.08419 6.5459 4.10938C6.35793 4.20522 6.20522 4.35793 6.10938 4.5459C6.08419 4.59534 6.04662 4.69619 6.02442 4.96777C6.00127 5.25111 6 5.62364 6 6.2002V17.7998C6 18.3764 6.00127 18.7489 6.02442 19.0322C6.04662 19.3038 6.08419 19.4047 6.10938 19.4541C6.20522 19.6421 6.35793 19.7948 6.5459 19.8906C6.59534 19.9158 6.69619 19.9534 6.96778 19.9756C7.21692 19.9959 7.5349 19.9986 8 19.999V18C8 16.8954 8.89543 16 10 16H14C15.1046 16 16 16.8954 16 18V19.999ZM20 17.7998C20 18.3434 20.0011 18.8116 19.9697 19.1953C19.9374 19.5906 19.8656 19.984 19.6729 20.3623C19.3853 20.9265 18.9265 21.3853 18.3623 21.6729C17.984 21.8656 17.5906 21.9374 17.1953 21.9697C16.8116 22.0011 16.3434 22 15.7998 22H8.2002C7.65665 22 7.18836 22.0011 6.80469 21.9697C6.40943 21.9374 6.016 21.8656 5.6377 21.6729C5.07348 21.3853 4.61473 20.9265 4.32715 20.3623C4.1344 19.984 4.06259 19.5906 4.03028 19.1953C3.99893 18.8116 4 18.3434 4 17.7998V6.2002C4 5.65664 3.99893 5.18836 4.03028 4.80469C4.06259 4.40943 4.1344 4.01599 4.32715 3.6377C4.61473 3.07347 5.07348 2.61472 5.6377 2.32715C6.016 2.1344 6.40943 2.06258 6.80469 2.03027C7.18836 1.99893 7.65665 2 8.2002 2H15.7998C16.3434 2 16.8116 1.99893 17.1953 2.03027C17.5906 2.06258 17.984 2.1344 18.3623 2.32715C18.9265 2.61472 19.3853 3.07347 19.6729 3.6377C19.8656 4.01599 19.9374 4.40943 19.9697 4.80469C20.0011 5.18836 20 5.65664 20 6.2002V17.7998Z" fill="#5C5C5C"/>
</svg>
