<svg width="24" height="24" viewBox="0 0 24 24" fill="none" xmlns="http://www.w3.org/2000/svg">
<path fill-rule="evenodd" clip-rule="evenodd" d="M21 18C21 19.6569 19.6569 21 18 21H6C4.34315 21 3 19.6569 3 18V6C3 4.34315 4.34315 3 6 3H18C19.6569 3 21 4.34315 21 6V18ZM18 5C18.5523 5 19 5.44772 19 6V7H17V5H18ZM9 5H15V7H9V5ZM6 5H7V7H5V6C5 5.44772 5.44772 5 6 5ZM5 15V9H7V15H5ZM5 18V17H7V19H6C5.44772 19 5 18.5523 5 18ZM15 19H9V17H15V19ZM18 19H17V17H19V18C19 18.5523 18.5523 19 18 19ZM19 9V15H17V9H19ZM9 15H15V9H9V15Z" fill="#5C5C5C"/>
</svg>
