<svg width="24" height="24" viewBox="0 0 24 24" fill="none" xmlns="http://www.w3.org/2000/svg">
<path d="M14.6582 4.16504C15.8269 3.8864 17.0547 3.9628 18.1787 4.38477C19.3029 4.80681 20.2731 5.55502 20.957 6.53418C21.6401 7.5122 22.0047 8.67307 22 9.8623L21.9951 10.0937C21.8959 12.4555 20.2909 14.1614 19 15.4258C18.9961 15.4296 18.9913 15.4327 18.9873 15.4365L14.0654 20.1006C13.8106 20.3757 13.5032 20.5971 13.1611 20.751C12.8016 20.9126 12.4116 20.9975 12.0176 21C11.6235 21.0024 11.2326 20.9227 10.8711 20.7656C10.5269 20.616 10.2165 20.398 9.95801 20.126L5.01172 15.4365C5.00788 15.4329 5.00378 15.4295 5 15.4258C3.70987 14.1621 2.10386 12.464 2.00488 10.0937L2 9.8623C2.00009 8.67438 2.36808 7.51627 3.05273 6.54102C3.73732 5.56592 4.70576 4.8204 5.82715 4.39941C6.94833 3.97853 8.17246 3.90058 9.33887 4.17578C10.3344 4.41067 11.2498 4.89426 11.998 5.57715C12.7449 4.88966 13.6611 4.40283 14.6582 4.16504ZM12.7412 16.7744C12.6256 17.1789 12.2693 17.4677 11.8496 17.4971C11.4301 17.5264 11.0371 17.2905 10.8662 16.9062L9.55664 13.96C9.46799 13.9855 9.3753 14 9.28027 14H6.40332L11.3457 18.6855L11.3965 18.7373C11.4708 18.8188 11.5628 18.8859 11.668 18.9316C11.7732 18.9774 11.8883 19.0007 12.0049 19C12.1215 18.9993 12.2362 18.9738 12.3408 18.9268C12.4451 18.8798 12.5363 18.8126 12.6094 18.7305L12.6689 18.6689L17.5967 14H15.2803C14.8802 14 14.5189 13.7612 14.3613 13.3936L13.9688 12.4775L12.7412 16.7744ZM4.01172 10.1523C4.06657 10.8138 4.30824 11.4174 4.67871 12H8.66211L8.88574 11.5527L8.95898 11.4297C9.14857 11.1566 9.46416 10.9923 9.80273 11C10.1895 11.0088 10.5361 11.2403 10.6934 11.5937L11.5742 13.5771L12.8184 9.22559L12.873 9.07812C13.0256 8.7499 13.3474 8.52537 13.7168 8.50195C14.1391 8.47521 14.5325 8.71754 14.6992 9.10644L15.9395 12H19.3193C19.7443 11.3315 20 10.6359 20 9.8623V9.85742C20.0037 9.08249 19.7666 8.32288 19.3174 7.67969C18.8678 7.03605 18.2259 6.5385 17.4756 6.25684C16.7252 5.97518 15.9038 5.92398 15.1221 6.11035C14.3405 6.29675 13.6388 6.71118 13.1084 7.29492C13.103 7.30088 13.0974 7.30667 13.0918 7.3125C12.95 7.46102 12.7793 7.57852 12.5918 7.6582C12.4044 7.73787 12.203 7.77832 12 7.77832C11.797 7.77832 11.5956 7.73786 11.4082 7.6582C11.2207 7.57852 11.05 7.46102 10.9082 7.3125C10.9037 7.3078 10.8989 7.30264 10.8945 7.29785C10.3622 6.71775 9.66037 6.30627 8.87988 6.12207C8.09913 5.93786 7.27932 5.99037 6.53027 6.27148C5.7813 6.55266 5.13983 7.04894 4.68945 7.69043C4.2395 8.33146 4.00009 9.08874 4 9.8623L4.01172 10.1523Z" fill="#5C5C5C"/>
</svg>
