<svg width="24" height="24" viewBox="0 0 24 24" fill="none" xmlns="http://www.w3.org/2000/svg">
<path d="M2 7.99398C2 7.62788 2.09534 7.26271 2.28321 6.94222L2.3584 6.82406C2.54017 6.55841 2.78699 6.33601 3.08497 6.18734L10.792 2.28793C11.1636 2.09949 11.5732 1.99886 11.9912 1.99886C12.409 1.9989 12.818 2.09868 13.1895 2.28695L20.915 6.19711C21.2134 6.34574 21.4597 6.56799 21.6416 6.83382L21.7168 6.95199L21.7832 7.07406C21.9273 7.36365 22 7.68339 22 8.00375C22 8.36984 21.9047 8.73502 21.7168 9.0555C21.5303 9.37354 21.2549 9.64024 20.9131 9.81039L20.9141 9.81136L13.1982 13.7098C12.8267 13.8982 12.4179 13.9989 12 13.9989C11.582 13.9989 11.1724 13.8992 10.8008 13.7108L3.08497 9.80062C2.74398 9.63042 2.46937 9.3632 2.28321 9.04574C2.0953 8.72525 2.00003 8.36011 2 7.99398ZM4.00684 8.02523L11.7051 11.9266C11.8021 11.9758 11.9029 11.9989 12 11.9989C12.0971 11.9989 12.1969 11.9758 12.294 11.9266L12.2959 11.9256L19.9922 8.03597C19.9948 8.02887 20 8.01838 20 8.00375C20 7.98902 19.9948 7.97859 19.9922 7.97152L12.2861 4.07113C12.1891 4.02193 12.0883 3.9989 11.9912 3.99886C11.9185 3.99886 11.844 4.01178 11.7705 4.0389L11.6963 4.07113L4.00684 7.96175C4.00429 7.96887 4 7.97957 4 7.99398C4.00002 8.00788 4.00437 8.01811 4.00684 8.02523Z" fill="#5C5C5C"/>
<path d="M20.9932 10.9989C21.5453 10.9951 21.9961 11.4399 22 11.992C22.0026 12.3585 21.9094 12.7247 21.7236 13.0467C21.5382 13.3681 21.2625 13.6378 20.9189 13.8104L20.9199 13.8114L13.1982 17.7137H13.1963C12.8266 17.8998 12.4201 17.9988 12.0049 17.9989C11.5895 17.9989 11.1824 17.8999 10.8125 17.7137L10.8106 17.7127L3.07129 13.8016L3.06446 13.7987C2.72632 13.6247 2.45606 13.3544 2.27344 13.036C2.09135 12.7182 1.99925 12.358 2 11.9969C2.00123 11.4447 2.4498 10.9978 3.00196 10.9989C3.55415 11.0001 4.00109 11.4487 4 12.0008C3.99997 12.015 4.0043 12.0258 4.00684 12.033L11.7109 15.9276C11.8075 15.9761 11.9082 15.9989 12.0049 15.9989C12.1015 15.9988 12.2013 15.9762 12.2979 15.9276L19.9922 12.0379C19.9947 12.0306 20.0001 12.02 20 12.0057C19.9962 11.4536 20.441 11.0028 20.9932 10.9989Z" fill="#5C5C5C"/>
<path d="M20.9932 14.9989C21.5453 14.9951 21.9961 15.4399 22 15.992C22.0026 16.3585 21.9094 16.7247 21.7236 17.0467C21.5382 17.3681 21.2625 17.6378 20.9189 17.8104L20.9199 17.8114L13.1982 21.7137H13.1963C12.8266 21.8998 12.4201 21.9988 12.0049 21.9989C11.5895 21.9989 11.1824 21.8999 10.8125 21.7137L10.8106 21.7127L3.07129 17.8016L3.06446 17.7987C2.72632 17.6247 2.45606 17.3544 2.27344 17.036C2.09135 16.7182 1.99925 16.358 2 15.9969C2.00123 15.4447 2.4498 14.9978 3.00196 14.9989C3.55415 15.0001 4.00109 15.4487 4 16.0008C3.99997 16.015 4.0043 16.0258 4.00684 16.033L11.7109 19.9276C11.8075 19.9761 11.9082 19.9989 12.0049 19.9989C12.1015 19.9988 12.2013 19.9762 12.2979 19.9276L19.9922 16.0379C19.9947 16.0306 20.0001 16.02 20 16.0057C19.9962 15.4536 20.441 15.0028 20.9932 14.9989Z" fill="#5C5C5C"/>
</svg>
