<svg width="24" height="24" viewBox="0 0 24 24" fill="none" xmlns="http://www.w3.org/2000/svg">
<path d="M7.68164 3.79785C7.68142 4.32848 7.22932 4.74512 6.68945 4.74512H4.76562C4.51591 4.74517 4.27776 4.83884 4.10352 5.00391C3.92953 5.16873 3.83402 5.39071 3.83398 5.62012V7.44336C3.8338 7.97401 3.38167 8.39061 2.8418 8.39062C2.30191 8.39062 1.84979 7.97402 1.84961 7.44336V5.62012C1.84965 4.88275 2.15942 4.17699 2.70703 3.6582C3.25433 3.13983 3.99502 2.84966 4.76562 2.84961H6.68945C7.22945 2.84961 7.68164 3.26704 7.68164 3.79785Z" fill="#5C5C5C"/>
<path fill-rule="evenodd" clip-rule="evenodd" d="M7.65234 17.5049C8.19214 17.5047 8.64355 17.0873 8.64355 16.5566V7.44336C8.64355 6.91269 8.19214 6.49535 7.65234 6.49512C7.11235 6.49512 6.66016 6.91255 6.66016 7.44336V16.5566C6.66016 17.0875 7.11235 17.5049 7.65234 17.5049Z" fill="#5C5C5C"/>
<path fill-rule="evenodd" clip-rule="evenodd" d="M12.834 16.5566C12.834 17.0874 12.3818 17.5049 11.8418 17.5049C11.3018 17.5049 10.8496 17.0875 10.8496 16.5566V7.44336C10.8496 6.91255 11.3018 6.49512 11.8418 6.49512C12.3818 6.49513 12.834 6.91256 12.834 7.44336V16.5566Z" fill="#5C5C5C"/>
<path fill-rule="evenodd" clip-rule="evenodd" d="M19.166 5.62012V7.44336C19.1662 7.97401 19.6183 8.39061 20.1582 8.39062C20.6981 8.39062 21.1502 7.97402 21.1504 7.44336V5.62012C21.1504 4.88275 20.8406 4.17699 20.293 3.6582C19.7457 3.13983 19.005 2.84966 18.2344 2.84961H16.3105C15.7706 2.84961 15.3184 3.26704 15.3184 3.79785C15.3186 4.32848 15.7707 4.74512 16.3105 4.74512H18.2344C18.4841 4.74517 18.7222 4.83884 18.8965 5.00391C19.0705 5.16873 19.166 5.39071 19.166 5.62012Z" fill="#5C5C5C"/>
<path fill-rule="evenodd" clip-rule="evenodd" d="M17.3018 16.5566C17.3018 17.0873 16.8504 17.5047 16.3105 17.5049C15.7706 17.5049 15.3184 17.0875 15.3184 16.5566V7.44336C15.3184 6.91255 15.7706 6.49512 16.3105 6.49512C16.8504 6.49533 17.3018 6.91269 17.3018 7.44336V16.5566Z" fill="#5C5C5C"/>
<path fill-rule="evenodd" clip-rule="evenodd" d="M4.10352 18.9961C3.92953 18.8313 3.83402 18.6093 3.83398 18.3799V16.5566C3.8338 16.026 3.38167 15.6094 2.8418 15.6094C2.30191 15.6094 1.84979 16.026 1.84961 16.5566V18.3799C1.84965 19.1172 2.15942 19.823 2.70703 20.3418C3.25433 20.8602 3.99502 21.1503 4.76562 21.1504H6.68945C7.22945 21.1504 7.68164 20.733 7.68164 20.2021C7.68142 19.6715 7.22932 19.2549 6.68945 19.2549H4.76562C4.51591 19.2548 4.27776 19.1612 4.10352 18.9961Z" fill="#5C5C5C"/>
<path fill-rule="evenodd" clip-rule="evenodd" d="M21.1504 18.3799C21.1504 19.1172 20.8406 19.823 20.293 20.3418C19.7457 20.8602 19.005 21.1503 18.2344 21.1504H16.3105C15.7706 21.1504 15.3184 20.733 15.3184 20.2021C15.3186 19.6715 15.7707 19.2549 16.3105 19.2549H18.2344C18.4841 19.2548 18.7222 19.1612 18.8965 18.9961C19.0705 18.8313 19.166 18.6093 19.166 18.3799V16.5566C19.1662 16.026 19.6183 15.6094 20.1582 15.6094C20.6981 15.6094 21.1502 16.026 21.1504 16.5566V18.3799Z" fill="#5C5C5C"/>
</svg>
