<svg width="24" height="24" viewBox="0 0 24 24" fill="none" xmlns="http://www.w3.org/2000/svg">
<path d="M10.0013 19H14.0013V16H10.0013V19ZM7.50133 4C7.36847 3.99998 7.23762 4.03195 7.12145 4.09277C7.0054 4.15355 6.90735 4.24077 6.83532 4.3457L6.83044 4.35352L4.23083 8.07031L4.22594 8.07812C4.04938 8.32572 3.97292 8.6275 4.01012 8.9248C4.04739 9.22229 4.19667 9.4979 4.43102 9.69727C4.66563 9.89683 4.96881 10.0049 5.28258 9.99707C5.59646 9.98919 5.89382 9.86608 6.11755 9.65527C6.49181 9.30204 6.98756 9.10751 7.50036 9.10742C8.01333 9.10742 8.50881 9.30286 8.88317 9.65625L8.97399 9.7334C9.19293 9.90319 9.46603 9.99798 9.75036 9.99805C10.0753 9.99805 10.3859 9.87432 10.6175 9.65625L10.7631 9.53125C11.1157 9.25709 11.5515 9.10742 12.0004 9.10742C12.5128 9.10747 13.008 9.30247 13.3822 9.65527C13.6138 9.87344 13.9243 9.99707 14.2494 9.99707C14.5744 9.99702 14.885 9.8734 15.1166 9.65527C15.4908 9.30235 15.9858 9.1075 16.4984 9.10742C17.0118 9.10742 17.5077 9.30323 17.8822 9.65723H17.8832C18.1058 9.86774 18.4031 9.9916 18.7181 10C19.0319 10.0083 19.3357 9.90041 19.5707 9.70117C19.8054 9.50194 19.9541 9.22538 19.9916 8.92773C20.029 8.63029 19.9533 8.32884 19.7767 8.08105L19.7718 8.07324L17.1673 4.34863L17.1634 4.34375C17.0914 4.23956 16.9938 4.15313 16.8783 4.09277C16.7913 4.0474 16.6959 4.01764 16.598 4.00586L16.4994 4H7.50133ZM20.0013 18.209C20.0013 18.9416 19.7173 19.6488 19.2045 20.1738C18.6906 20.6997 17.9883 21 17.2513 21H6.75133C6.01441 21 5.31205 20.6997 4.79821 20.1738C4.28542 19.6488 4.00134 18.9416 4.00133 18.209V11.7461C3.68949 11.6172 3.39522 11.4428 3.13415 11.2207C2.52236 10.7001 2.12567 9.97096 2.02575 9.17383C1.92585 8.37633 2.13044 7.57138 2.59704 6.91699H2.59801L5.19176 3.20703C5.44898 2.8348 5.79307 2.53111 6.19372 2.32129C6.59706 2.11012 7.04618 1.99992 7.50133 2H16.4994V2.00098C16.953 2.0009 17.4008 2.10952 17.8031 2.31934C18.2035 2.52824 18.5474 2.83101 18.805 3.20215L21.4086 6.9248C21.873 7.57888 22.0762 8.38166 21.9759 9.17773C21.8754 9.97549 21.4785 10.7052 20.8656 11.2256C20.6052 11.4466 20.312 11.6196 20.0013 11.748V18.209ZM16.0013 19H17.2513C17.4427 19 17.6313 18.9222 17.7738 18.7764C17.917 18.6297 18.0013 18.426 18.0013 18.209V11.9102C17.446 11.7796 16.9288 11.5083 16.5082 11.1104C16.5071 11.1095 16.5038 11.1074 16.4984 11.1074C16.4927 11.1075 16.4893 11.1097 16.4886 11.1104L16.4877 11.1113C15.8825 11.6813 15.0807 11.997 14.2494 11.9971C13.418 11.9971 12.6163 11.6813 12.0111 11.1113L12.0101 11.1104C12.0092 11.1096 12.0058 11.1075 12.0004 11.1074C11.9952 11.1074 11.9918 11.1095 11.9906 11.1104L11.9896 11.1113C11.3844 11.6817 10.582 11.998 9.75036 11.998C8.91888 11.998 8.11721 11.6815 7.51208 11.1113L7.5111 11.1104C7.51043 11.1097 7.50625 11.1074 7.50036 11.1074C7.49468 11.1075 7.49125 11.1097 7.49059 11.1104L7.48962 11.1113C7.07013 11.5066 6.55516 11.7778 6.00133 11.9082V18.209C6.00134 18.426 6.08572 18.6297 6.22887 18.7764C6.37141 18.9222 6.56 19 6.75133 19H8.00133V15.833C8.00144 15.282 8.26523 14.7993 8.65368 14.4756C9.03693 14.1562 9.52389 14 10.0013 14H14.0013C14.4788 14 14.9657 14.1562 15.349 14.4756C15.7374 14.7993 16.0012 15.282 16.0013 15.833V19Z" fill="#5C5C5C"/>
</svg>
