<svg width="24" height="24" viewBox="0 0 24 24" fill="none" xmlns="http://www.w3.org/2000/svg">
<path fill-rule="evenodd" clip-rule="evenodd" d="M20 10V19C20 20.6569 18.6569 22 17 22H7C5.34315 22 4 20.6569 4 19V5C4 3.34315 5.34315 2 7 2H12V7C12 8.65685 13.3431 10 15 10H20ZM17.3451 17.1425C17.0253 16.9271 16.638 16.8153 16.2963 16.7166C16.1286 16.6713 15.9629 16.6172 15.8009 16.5547C15.954 16.481 16.4077 16.4735 16.8051 16.5753C16.9943 16.6172 17.1924 16.5843 17.3579 16.4835C17.5233 16.3827 17.6433 16.2218 17.6927 16.0345C17.7421 15.8472 17.717 15.648 17.6227 15.4788C17.5284 15.3096 17.3723 15.1834 17.187 15.1267C16.9409 15.066 16.69 15.0271 16.4371 15.0105C15.8165 14.9693 15.3122 15.078 14.931 15.3335C14.7451 15.4582 14.5889 15.6222 14.4735 15.8139C14.358 16.0056 14.2862 16.2203 14.2629 16.4429C14.1942 16.9888 14.4185 17.4592 14.8947 17.7665C15.1926 17.959 15.5401 18.0595 15.876 18.1567L15.9173 18.1689C16.1064 18.2248 16.3837 18.3066 16.4964 18.3781C16.4943 18.3934 16.4899 18.4084 16.4833 18.4224C16.3977 18.5192 15.8846 18.5342 15.459 18.4187C15.3636 18.3901 15.2634 18.3808 15.1643 18.3914C15.0652 18.4019 14.9692 18.4321 14.8819 18.4802C14.7947 18.5283 14.7179 18.5932 14.656 18.6713C14.5941 18.7494 14.5484 18.839 14.5216 18.9349C14.4948 19.0309 14.4873 19.1312 14.4997 19.23C14.5121 19.3288 14.5441 19.4242 14.5938 19.5105C14.6435 19.5969 14.7099 19.6724 14.7891 19.7328C14.8684 19.7932 14.9589 19.8372 15.0553 19.8623C15.3857 19.9512 15.7262 19.9971 16.0683 19.9991C16.472 19.9991 16.9264 19.926 17.3013 19.6774C17.4912 19.5519 17.651 19.386 17.7693 19.1917C17.8876 18.9973 17.9615 18.7792 17.9856 18.553C18.0619 17.9708 17.8338 17.4711 17.3451 17.1425ZM13.9998 19.2495C13.9998 19.4483 13.9208 19.6389 13.7802 19.7795C13.6395 19.9201 13.4488 19.9991 13.2499 19.9991H11.5001C11.3012 19.9991 11.1104 19.9201 10.9698 19.7795C10.8291 19.6389 10.7501 19.4483 10.7501 19.2495V15.7514C10.7501 15.5526 10.8291 15.3619 10.9698 15.2213C11.1104 15.0807 11.3012 15.0018 11.5001 15.0018C11.6989 15.0018 11.8897 15.0807 12.0303 15.2213C12.171 15.3619 12.25 15.5526 12.25 15.7514V18.4999H13.2499C13.4488 18.4999 13.6395 18.5789 13.7802 18.7194C13.9208 18.86 13.9998 19.0507 13.9998 19.2495ZM9.42086 15.0195C9.51691 15.0419 9.6076 15.083 9.68774 15.1404C9.76813 15.1978 9.83641 15.2704 9.88865 15.3542C9.94088 15.4379 9.97605 15.5312 9.99214 15.6286C10.0082 15.726 10.0049 15.8256 9.98237 15.9217C9.95984 16.0178 9.91854 16.1085 9.86085 16.1886L8.92344 17.5004L9.86085 18.8122C9.97687 18.974 10.0238 19.1752 9.99144 19.3716C9.95903 19.568 9.8499 19.7435 9.68805 19.8595C9.5262 19.9754 9.32489 20.0224 9.12841 19.99C8.93193 19.9576 8.75637 19.8485 8.64035 19.6867L8.00041 18.7885L7.3611 19.6867C7.30365 19.7668 7.23098 19.8349 7.14724 19.8869C7.0635 19.9389 6.97032 19.974 6.87304 19.99C6.77575 20.006 6.67625 20.0028 6.58023 19.9804C6.4842 19.958 6.39353 19.9169 6.3134 19.8595C6.23326 19.802 6.16522 19.7294 6.11316 19.6457C6.06111 19.562 6.02606 19.4689 6.01001 19.3716C5.99397 19.2744 5.99724 19.1749 6.01965 19.0789C6.04205 18.9829 6.08315 18.8923 6.1406 18.8122L7.07801 17.5004L6.1406 16.1886C6.02458 16.0268 5.97761 15.8256 6.01001 15.6292C6.04242 15.4328 6.15155 15.2573 6.3134 15.1414C6.47524 15.0254 6.67655 14.9784 6.87304 15.0108C7.06952 15.0432 7.24508 15.1523 7.3611 15.3141L8.00041 16.2099L8.64035 15.3141C8.69764 15.2339 8.77021 15.1657 8.85389 15.1135C8.93757 15.0614 9.03072 15.0262 9.12801 15.0101C9.2253 14.994 9.32481 14.9972 9.42086 15.0195Z" fill="#5C5C5C"/>
<path d="M14 7V2.48284C14 2.30466 14.2154 2.21543 14.3414 2.34142L19.6586 7.65858C19.7846 7.78457 19.6953 8 19.5172 8H15C14.4477 8 14 7.55228 14 7Z" fill="#5C5C5C"/>
</svg>
