<svg width="24" height="24" viewBox="0 0 24 24" fill="none" xmlns="http://www.w3.org/2000/svg">
<path d="M9.60977 4C9.86255 4.01008 10.1015 4.11995 10.2769 4.30547C10.4523 4.49107 10.5508 4.73836 10.5508 4.99589C10.5508 5.25342 10.4523 5.50071 10.2769 5.68632C10.1015 5.87183 9.86255 5.98171 9.60977 5.99178H8.00517C7.84084 5.99178 7.68247 6.05843 7.56627 6.17667C7.45033 6.29487 7.38545 6.45535 7.38545 6.62236V9.06074L7.38106 9.24294C7.3597 9.66757 7.26063 10.085 7.08875 10.4737C6.91915 10.8572 6.68094 11.2046 6.38828 11.5C6.68094 11.7954 6.91915 12.1428 7.08875 12.5263C7.28516 12.9705 7.38643 13.4522 7.38545 13.9393V16.3776C7.38545 16.5447 7.45033 16.7051 7.56627 16.8233C7.68247 16.9416 7.84084 17.0082 8.00517 17.0082H9.60977C9.86255 17.0183 10.1015 17.1282 10.2769 17.3137C10.4523 17.4993 10.5508 17.7466 10.5508 18.0041C10.5508 18.2616 10.4523 18.5089 10.2769 18.6945C10.1015 18.88 9.86255 18.9899 9.60977 19H8.00517C7.32179 19 6.6661 18.7235 6.18287 18.2319C5.69964 17.7402 5.42797 17.073 5.42797 16.3776V13.9393C5.42741 13.5568 5.27772 13.1897 5.0119 12.9193C4.74618 12.649 4.38602 12.4966 4.01034 12.4959C3.88096 12.5001 3.75215 12.4784 3.63113 12.4316C3.50799 12.3839 3.39516 12.3119 3.3002 12.219C3.20531 12.1261 3.12973 12.0145 3.07812 11.8912C3.02656 11.7679 3.00004 11.6349 3 11.5009C3 11.3669 3.02658 11.2339 3.07812 11.1106C3.12968 10.9873 3.20535 10.8757 3.3002 10.7828C3.39517 10.6898 3.50797 10.617 3.63113 10.5693C3.75211 10.5225 3.88101 10.5008 4.01034 10.505L4.14991 10.4979C4.4746 10.4647 4.7801 10.3186 5.01278 10.0816C5.27862 9.81093 5.42769 9.44343 5.42797 9.06074V6.62236C5.42797 5.927 5.69964 5.25983 6.18287 4.76813C6.6661 4.27645 7.32179 4 8.00517 4H9.60977Z" fill="#5C5C5C"/>
<path d="M15.994 4C16.6773 4.00002 17.333 4.27645 17.8162 4.76813C18.2994 5.25981 18.5703 5.92709 18.5703 6.62236V9.06074C18.5708 9.44343 18.7212 9.81024 18.9872 10.0807C19.2199 10.3173 19.5248 10.4639 19.8492 10.497L19.9897 10.5041C20.119 10.5 20.2479 10.5216 20.3689 10.5684C20.492 10.6161 20.6049 10.6881 20.6998 10.781C20.7947 10.8739 20.8703 10.9855 20.9219 11.1088C20.9734 11.2321 21 11.3651 21 11.4991C21 11.6331 20.9734 11.7661 20.9219 11.8894C20.8703 12.0127 20.7946 12.1243 20.6998 12.2172C20.6048 12.3102 20.492 12.383 20.3689 12.4307C20.2479 12.4775 20.119 12.4983 19.9897 12.4941C19.6137 12.4947 19.253 12.6478 18.9872 12.9184C18.7214 13.1891 18.5723 13.5566 18.572 13.9393V16.3776C18.572 17.073 18.3003 17.7402 17.8171 18.2319C17.3339 18.7236 16.6782 19 15.9948 19H14.3893C14.1364 18.99 13.8968 18.8801 13.7213 18.6945C13.546 18.509 13.4484 18.2615 13.4484 18.0041C13.4484 17.7467 13.546 17.4993 13.7213 17.3137C13.8968 17.1281 14.1364 17.0182 14.3893 17.0082H15.994C16.1583 17.0082 16.3158 16.9415 16.432 16.8233C16.5481 16.7051 16.6137 16.5448 16.6137 16.3776V13.9393C16.6127 13.4521 16.7139 12.9705 16.9104 12.5263C17.0798 12.143 17.3167 11.7952 17.6091 11.5C17.3167 11.2048 17.0798 10.857 16.9104 10.4737C16.7385 10.085 16.6394 9.66763 16.6181 9.24294L16.6137 9.06074V6.62236C16.6137 6.45525 16.5481 6.29489 16.432 6.17667C16.3158 6.05845 16.1583 5.99181 15.994 5.99178H14.3893C14.1364 5.98181 13.8968 5.87193 13.7213 5.68632C13.546 5.50073 13.4484 5.25332 13.4484 4.99589C13.4484 4.73846 13.546 4.49105 13.7213 4.30547C13.8968 4.11985 14.1364 4.00997 14.3893 4H15.994Z" fill="#5C5C5C"/>
<path d="M10.937 9.13934C11.3922 8.94731 11.8933 8.89704 12.3766 8.99464C12.86 9.09232 13.3043 9.33412 13.6529 9.68864C14.0014 10.0431 14.2387 10.4947 14.3349 10.9864C14.4311 11.4781 14.382 11.988 14.1936 12.4512C14.0051 12.9145 13.686 13.3114 13.2763 13.59C12.8665 13.8687 12.384 14.017 11.8912 14.017C11.2307 14.0169 10.5975 13.7498 10.1303 13.2747C9.66307 12.7996 9.40032 12.1552 9.39998 11.483C9.39972 10.9817 9.54525 10.4915 9.81869 10.0745C10.0923 9.65739 10.4817 9.33143 10.937 9.13934Z" fill="#5C5C5C"/>
</svg>
