<svg width="24" height="24" viewBox="0 0 24 24" fill="none" xmlns="http://www.w3.org/2000/svg">
<path d="M13.0251 11.3988L15.128 12.6125C15.2421 12.6783 15.3421 12.7659 15.4223 12.8703C15.5025 12.9747 15.5613 13.0939 15.5955 13.2211C15.6296 13.3483 15.6383 13.481 15.6212 13.6115C15.604 13.7421 15.5613 13.868 15.4955 13.9821C15.4296 14.0961 15.342 14.1961 15.2375 14.2762C15.133 14.3564 15.0138 14.4152 14.8866 14.4492C14.7594 14.4833 14.6267 14.492 14.4961 14.4747C14.3656 14.4575 14.2397 14.4147 14.1257 14.3488L11.5216 12.8454C11.3692 12.7575 11.2427 12.6309 11.1547 12.4785C11.0667 12.3261 11.0205 12.1532 11.0205 11.9772V6.96587C11.0205 6.70005 11.1261 6.44512 11.3141 6.25716C11.502 6.06919 11.757 5.9636 12.0228 5.9636C12.2886 5.9636 12.5435 6.06919 12.7315 6.25716C12.9195 6.44512 13.0251 6.70005 13.0251 6.96587V11.3988Z" fill="#5C5C5C"/>
<path d="M13.5893 3.09405C13.6852 2.54906 14.2069 2.18018 14.7396 2.33016C15.1528 2.4465 15.558 2.58926 15.9529 2.75756C16.4618 2.97445 16.6371 3.58849 16.3707 4.07326C16.1041 4.55826 15.4964 4.72878 14.982 4.52456C14.787 4.44712 14.589 4.37737 14.3885 4.31546C13.8599 4.15225 13.4933 3.63885 13.5893 3.09405Z" fill="#5C5C5C"/>
<path d="M17.37 4.71212C17.6981 4.26646 18.3292 4.1676 18.74 4.53851C18.9935 4.76751 19.2352 5.00933 19.4641 5.26302C19.8347 5.67381 19.7357 6.30478 19.2902 6.63279C18.8443 6.96103 18.221 6.86031 17.8399 6.45862C17.7438 6.35726 17.645 6.25842 17.5437 6.16222C17.1424 5.78106 17.0418 5.15785 17.37 4.71212Z" fill="#5C5C5C"/>
<path d="M19.9147 7.60895C20.3991 7.34082 21.0141 7.51458 21.2325 8.02334C21.4066 8.42897 21.5537 8.84569 21.6728 9.27072C21.8223 9.8037 21.4527 10.3251 20.9075 10.4205C20.3624 10.5159 19.8492 10.1486 19.6865 9.61977C19.6219 9.41006 19.5488 9.20308 19.4672 8.99937C19.2615 8.48541 19.4304 7.87707 19.9147 7.60895Z" fill="#5C5C5C"/>
<path d="M6.45442 3.64364C7.82394 2.72856 9.39337 2.16799 11.0221 2.00457C11.5729 1.9493 12.0228 2.40323 12.0228 2.95677C12.0228 3.51031 11.5723 3.95259 11.0231 4.0216C10.8343 4.04533 10.646 4.07582 10.4585 4.11312C8.90312 4.4225 7.47441 5.18616 6.35304 6.30752C5.23167 7.42889 4.46801 8.8576 4.15863 10.413C3.84924 11.9684 4.00803 13.5805 4.61491 15.0457C5.22179 16.5108 6.24951 17.7631 7.56809 18.6441C8.88668 19.5252 10.4369 19.9954 12.0228 19.9954C14.1486 19.993 16.1866 19.1475 17.6898 17.6443C18.9556 16.3786 19.755 14.7336 19.9775 12.9763C20.047 12.4273 20.4893 11.9772 21.0427 11.9772C21.5966 11.9772 22.0507 12.4274 21.9954 12.9785C21.8319 14.607 21.2714 16.1762 20.3564 17.5456C19.2551 19.1938 17.6898 20.4785 15.8583 21.2371C14.0269 21.9957 12.0117 22.1941 10.0674 21.8074C8.12321 21.4207 6.33732 20.4661 4.93561 19.0644C3.5339 17.6627 2.57932 15.8768 2.19259 13.9326C1.80586 11.9884 2.00434 9.97312 2.76294 8.14171C3.52154 6.31029 4.80619 4.74495 6.45442 3.64364Z" fill="#5C5C5C"/>
</svg>
