<svg width="24" height="24" viewBox="0 0 24 24" fill="none" xmlns="http://www.w3.org/2000/svg">
<path fill-rule="evenodd" clip-rule="evenodd" d="M22 12C22 17.5228 17.5228 22 12 22C6.47715 22 2 17.5228 2 12C2 6.47715 6.47715 2 12 2C17.5228 2 22 6.47715 22 12ZM14.576 11.8664C14.6764 11.8262 14.7711 11.7813 14.86 11.7317C15.2848 11.4974 15.5948 11.1946 15.7902 10.8235C15.9904 10.4524 16.0905 10.0472 16.0905 9.60771C16.0905 9.10966 16.0001 8.67998 15.8195 8.31865C15.6388 7.95244 15.3776 7.6497 15.0358 7.41045C14.694 7.17119 14.2765 6.99297 13.7833 6.87578C13.295 6.75859 12.7408 6.7 12.1207 6.7H8.40002V17.3641H9.23499H10.5973H12.4796C13.3048 17.3641 14.0031 17.2469 14.5743 17.0125C15.1505 16.7781 15.5875 16.429 15.8854 15.9651C16.1832 15.4964 16.3322 14.9202 16.3322 14.2366C16.3322 13.8069 16.2394 13.4041 16.0538 13.0281C15.8732 12.6521 15.5826 12.347 15.1823 12.1126C15.0055 12.0057 14.8034 11.9236 14.576 11.8664ZM10.5973 12.6839V15.6502H12.4796C12.8654 15.6502 13.1803 15.5892 13.4244 15.4671C13.6686 15.3401 13.8492 15.1692 13.9664 14.9544C14.0836 14.7395 14.1422 14.493 14.1422 14.2146C14.1422 13.9021 14.0885 13.6311 13.9811 13.4017C13.8785 13.1722 13.7125 12.9964 13.483 12.8743C13.2535 12.7474 12.9508 12.6839 12.5748 12.6839H10.5973ZM10.5973 8.42119V11.1751H12.1207C12.526 11.1751 12.858 11.1238 13.1168 11.0213C13.3756 10.9139 13.5685 10.7601 13.6954 10.5599C13.8273 10.3548 13.8932 10.1058 13.8932 9.81279C13.8932 9.48076 13.8297 9.2122 13.7028 9.00713C13.5807 8.80205 13.3878 8.65312 13.1241 8.56035C12.8654 8.46758 12.5309 8.42119 12.1207 8.42119H10.5973Z" fill="#5C5C5C"/>
</svg>
