<svg width="24" height="24" viewBox="0 0 24 24" fill="none" xmlns="http://www.w3.org/2000/svg">
<path d="M12.0127 3C10.8324 3 9.66376 3.23278 8.57336 3.68505C7.48297 4.13733 6.49221 4.80023 5.65766 5.63592C3.97221 7.32368 3.02533 9.61276 3.02533 11.9996C3.01748 14.0777 3.73604 16.0931 5.05647 17.6963L3.259 19.4963C3.1343 19.6228 3.04982 19.7835 3.01623 19.9581C2.98264 20.1327 3.00144 20.3133 3.07027 20.4772C3.14492 20.6392 3.26593 20.7752 3.41794 20.8682C3.56995 20.9611 3.74612 21.0067 3.92407 20.9992H12.0127C14.3963 20.9992 16.6822 20.051 18.3677 18.3633C20.0531 16.6755 21 14.3864 21 11.9996C21 9.61276 20.0531 7.32368 18.3677 5.63592C16.6822 3.94817 14.3963 3 12.0127 3ZM7.91842 11.2513C8.06622 11.1524 8.23998 11.0996 8.41773 11.0996C8.65609 11.0996 8.88469 11.1945 9.05323 11.3632C9.22178 11.532 9.31647 11.7609 9.31647 11.9996C9.31647 12.1776 9.26376 12.3516 9.165 12.4996C9.06625 12.6476 8.92589 12.7629 8.76166 12.8311C8.59744 12.8992 8.41674 12.917 8.2424 12.8823C8.06806 12.8475 7.90792 12.7618 7.78223 12.636C7.65654 12.5101 7.57095 12.3497 7.53627 12.1752C7.50159 12.0006 7.51939 11.8196 7.58741 11.6552C7.65543 11.4908 7.77063 11.3502 7.91842 11.2513ZM11.5134 11.2513C11.6612 11.1524 11.8349 11.0996 12.0127 11.0996C12.251 11.0996 12.4796 11.1945 12.6482 11.3632C12.8167 11.532 12.9114 11.7609 12.9114 11.9996C12.9114 12.1776 12.8587 12.3516 12.7599 12.4996C12.6612 12.6476 12.5208 12.7629 12.3566 12.8311C12.1924 12.8992 12.0117 12.917 11.8373 12.8823C11.663 12.8475 11.5029 12.7618 11.3772 12.636C11.2515 12.5101 11.1659 12.3497 11.1312 12.1752C11.0965 12.0006 11.1143 11.8196 11.1823 11.6552C11.2504 11.4908 11.3656 11.3502 11.5134 11.2513ZM15.1083 11.2513C15.2561 11.1524 15.4298 11.0996 15.6076 11.0996C15.846 11.0996 16.0746 11.1945 16.2431 11.3632C16.4116 11.532 16.5063 11.7609 16.5063 11.9996C16.5063 12.1776 16.4536 12.3516 16.3549 12.4996C16.2561 12.6476 16.1158 12.7629 15.9515 12.8311C15.7873 12.8992 15.6066 12.917 15.4323 12.8823C15.2579 12.8475 15.0978 12.7618 14.9721 12.636C14.8464 12.5101 14.7608 12.3497 14.7261 12.1752C14.6915 12.0006 14.7093 11.8196 14.7773 11.6552C14.8453 11.4908 14.9605 11.3502 15.1083 11.2513Z" fill="#5C5C5C"/>
</svg>
