<svg width="24" height="24" viewBox="0 0 24 24" fill="none" xmlns="http://www.w3.org/2000/svg">
<path d="M12.0127 3C10.8324 3 9.66376 3.23278 8.57336 3.68505C7.48297 4.13733 6.49221 4.80023 5.65766 5.63592C3.97221 7.32368 3.02533 9.61276 3.02533 11.9996C3.01748 14.0777 3.73604 16.0931 5.05647 17.6963L3.259 19.4963C3.1343 19.6228 3.04982 19.7835 3.01623 19.9581C2.98264 20.1327 3.00144 20.3133 3.07027 20.4772C3.14492 20.6392 3.26593 20.7752 3.41794 20.8682C3.56995 20.9611 3.74612 21.0067 3.92407 20.9992H12.0127C14.3963 20.9992 16.6822 20.051 18.3677 18.3633C20.0531 16.6755 21 14.3864 21 11.9996C21 9.61276 20.0531 7.32368 18.3677 5.63592C16.6822 3.94817 14.3963 3 12.0127 3Z" fill="#5C5C5C"/>
</svg>
