<svg width="24" height="24" viewBox="0 0 24 24" fill="none" xmlns="http://www.w3.org/2000/svg">
<path fill-rule="evenodd" clip-rule="evenodd" d="M12 22C17.5228 22 22 17.5228 22 12C22 6.47715 17.5228 2 12 2C6.47715 2 2 6.47715 2 12C2 17.5228 6.47715 22 12 22ZM13.988 13.8258H16.361C16.322 14.5582 16.1218 15.2052 15.7604 15.7667C15.404 16.3233 14.9084 16.7604 14.2736 17.0777C13.6389 17.3902 12.8845 17.5465 12.0104 17.5465C11.3122 17.5465 10.6872 17.4269 10.1354 17.1876C9.58368 16.9483 9.11493 16.6065 8.72919 16.1622C8.34833 15.713 8.05536 15.1734 7.85028 14.5436C7.65009 13.9088 7.54999 13.1935 7.54999 12.3976V11.7457C7.54999 10.9498 7.65497 10.2345 7.86493 9.59971C8.07489 8.96494 8.37518 8.42295 8.76581 7.97373C9.15643 7.52451 9.62518 7.18027 10.1721 6.94102C10.7189 6.70176 11.3293 6.58213 12.0031 6.58213C12.9113 6.58213 13.6779 6.7457 14.3029 7.07285C14.9279 7.4 15.4113 7.84922 15.7531 8.42051C16.0998 8.9918 16.3073 9.64365 16.3757 10.3761H13.9953C13.9758 9.96104 13.8976 9.61192 13.7609 9.32871C13.6242 9.04063 13.4142 8.82334 13.131 8.67686C12.8478 8.53037 12.4719 8.45713 12.0031 8.45713C11.6613 8.45713 11.361 8.52061 11.1022 8.64756C10.8483 8.77451 10.6359 8.97227 10.465 9.24082C10.299 9.50938 10.1745 9.85117 10.0915 10.2662C10.0085 10.6764 9.96698 11.1646 9.96698 11.7311V12.3976C9.96698 12.9591 10.0036 13.4449 10.0768 13.8551C10.1501 14.2652 10.2673 14.6046 10.4284 14.8731C10.5944 15.1417 10.8068 15.3419 11.0656 15.4737C11.3244 15.6056 11.6393 15.6715 12.0104 15.6715C12.4352 15.6715 12.7892 15.6056 13.0724 15.4737C13.3557 15.337 13.5729 15.1319 13.7243 14.8585C13.8757 14.5851 13.9636 14.2408 13.988 13.8258Z" fill="#E27C00"/>
</svg>
