<svg width="24" height="24" viewBox="0 0 24 24" fill="none" xmlns="http://www.w3.org/2000/svg">
<path fill-rule="evenodd" clip-rule="evenodd" d="M12 22C17.5228 22 22 17.5228 22 12C22 6.47715 17.5228 2 12 2C6.47715 2 2 6.47715 2 12C2 17.5228 6.47715 22 12 22ZM16.3085 11.7441V15.9702C16.1425 16.1704 15.8861 16.3877 15.5394 16.6221C15.1927 16.8516 14.746 17.0493 14.1991 17.2153C13.6522 17.3813 12.9906 17.4644 12.2142 17.4644C11.5258 17.4644 10.8983 17.3521 10.3319 17.1274C9.7655 16.8979 9.27722 16.5635 8.86707 16.124C8.46179 15.6846 8.14929 15.1475 7.92957 14.5127C7.70984 13.873 7.59998 13.1431 7.59998 12.3228V11.6562C7.59998 10.8359 7.70496 10.106 7.91492 9.46631C8.12976 8.82666 8.43494 8.28711 8.83044 7.84766C9.22595 7.4082 9.69714 7.07373 10.244 6.84424C10.7909 6.61475 11.3988 6.5 12.0677 6.5C12.9955 6.5 13.7572 6.65137 14.3529 6.9541C14.9486 7.25195 15.4027 7.66699 15.7152 8.19922C16.0326 8.72656 16.2279 9.33203 16.3011 10.0156H14.1698C14.1161 9.6543 14.0135 9.33936 13.8622 9.0708C13.7108 8.80225 13.4935 8.59229 13.2103 8.44092C12.932 8.28955 12.5707 8.21387 12.1263 8.21387C11.7601 8.21387 11.433 8.28955 11.1449 8.44092C10.8617 8.5874 10.6224 8.80469 10.4271 9.09277C10.2318 9.38086 10.0829 9.7373 9.98035 10.1621C9.87781 10.5869 9.82654 11.0801 9.82654 11.6416V12.3228C9.82654 12.8794 9.88025 13.3726 9.98767 13.8022C10.0951 14.2271 10.2538 14.5859 10.4637 14.8789C10.6786 15.167 10.9423 15.3843 11.2548 15.5308C11.5673 15.6772 11.931 15.7505 12.3461 15.7505C12.6927 15.7505 12.9808 15.7212 13.2103 15.6626C13.4447 15.604 13.6327 15.5332 13.7743 15.4502C13.9208 15.3623 14.0331 15.2793 14.1112 15.2012V13.3115H12.1044V11.7441H16.3085Z" fill="#5C5C5C"/>
</svg>
