<svg width="24" height="24" viewBox="0 0 24 24" fill="none" xmlns="http://www.w3.org/2000/svg">
<path d="M6.23966 5.5198C6.23956 5.12224 5.91742 4.79998 5.51983 4.79998C5.12232 4.80008 4.8001 5.1223 4.8 5.5198C4.8 5.91738 5.12227 6.23952 5.51983 6.23962C5.91748 6.23962 6.23966 5.91744 6.23966 5.5198ZM8.03966 5.5198C8.03966 6.91154 6.91159 8.0396 5.51983 8.0396C4.12815 8.0395 3 6.91149 3 5.5198C3.00009 4.1282 4.12821 3.00009 5.51983 3C6.91153 3 8.03957 4.12814 8.03966 5.5198Z" fill="#5C5C5C"/>
<path fill-rule="evenodd" clip-rule="evenodd" d="M15.4816 3.20215C15.5528 3.14394 15.631 3.0983 15.713 3.06523C15.6284 3.09942 15.5511 3.14528 15.4816 3.20215Z" fill="#5C5C5C"/>
<path fill-rule="evenodd" clip-rule="evenodd" d="M15.3997 3.27787L15.4139 3.26367L15.4816 3.20215C15.5511 3.14528 15.6284 3.09942 15.713 3.06523C15.937 2.97492 16.1901 2.97842 16.4119 3.07571C16.3012 3.02703 16.1788 3 16.05 3C15.9309 3 15.8171 3.02316 15.713 3.06523C15.6284 3.09942 15.5511 3.14528 15.4816 3.20215C15.4582 3.22122 15.4352 3.24239 15.4139 3.26367C15.4123 3.26524 15.4155 3.26211 15.4139 3.26367C15.4107 3.26681 15.4028 3.27464 15.3997 3.27787Z" fill="#5C5C5C"/>
<path fill-rule="evenodd" clip-rule="evenodd" d="M15.4816 3.20215C15.5301 3.16243 15.5825 3.12808 15.6385 3.09933C15.5835 3.12758 15.5309 3.16185 15.4816 3.20215Z" fill="#5C5C5C"/>
<path fill-rule="evenodd" clip-rule="evenodd" d="M15.713 3.06523C15.631 3.0983 15.5528 3.14394 15.4816 3.20215L15.4139 3.26367L15.3997 3.27787L12.9837 5.69382C12.6323 6.0453 12.6323 6.61503 12.9837 6.96647C13.3352 7.31782 13.9049 7.31782 14.2564 6.96647L15.15 6.0728V7.57747L12.9837 9.74378C12.6323 10.0953 12.6323 10.665 12.9837 11.0164C13.3352 11.3678 13.9049 11.3678 14.2564 11.0164L15.15 10.1228V12.7199H8.76002H7.95001C7.67837 12.7199 7.42354 12.8424 7.25392 13.0495L7.18712 13.1427L3.13711 19.6228C2.96376 19.9001 2.95405 20.2498 3.1125 20.5359C3.2711 20.8221 3.57283 21 3.9 21H8.76002H20.1C20.4272 21 20.7289 20.8221 20.8875 20.5359C21.046 20.2498 21.0363 19.9001 20.8629 19.6228L16.95 13.362V10.1224L17.8441 11.0164C18.1956 11.3676 18.7653 11.3678 19.1167 11.0164C19.468 10.665 19.4679 10.0952 19.1167 9.74378L16.95 7.57712V6.07245L17.8441 6.96647C18.1956 7.31767 18.7653 7.31785 19.1167 6.96647C19.468 6.61508 19.4679 6.04528 19.1167 5.69382L16.6865 3.26367C16.605 3.18208 16.5116 3.11943 16.4119 3.07571C16.1901 2.97842 15.937 2.97492 15.713 3.06523ZM14.1187 19.2L11.1937 14.5199H15.5517L18.4767 19.2H14.1187ZM9.66002 15.4618L11.9964 19.2H9.66002V15.4618ZM5.52335 19.2L7.86001 15.4613V19.2H5.52335Z" fill="#5C5C5C"/>
</svg>
