<svg width="24" height="24" viewBox="0 0 24 24" fill="none" xmlns="http://www.w3.org/2000/svg">
<path d="M3.59326 12.3257L7.01208 13.522C7.20494 13.5895 7.30137 13.6232 7.37258 13.684C7.43546 13.7377 7.48404 13.8062 7.51397 13.8833C7.54785 13.9706 7.54785 14.0728 7.54785 14.2771V14.3454C7.54785 14.7462 7.54785 14.9466 7.46351 15.0728C7.38977 15.1831 7.27521 15.2595 7.14507 15.2853C6.99621 15.3148 6.81114 15.238 6.441 15.0842L2.49315 13.4446C2.31493 13.3705 2.22583 13.3335 2.16035 13.2729C2.1025 13.2194 2.05812 13.1529 2.03085 13.0789C2 12.9952 2 12.8987 2 12.7058V11.9131L3.59326 12.3257ZM7.54785 10.6379C7.54785 10.8411 7.54785 10.9427 7.51428 11.0297C7.48462 11.1064 7.43647 11.1747 7.37409 11.2284C7.30347 11.2892 7.20778 11.3233 7.01638 11.3915L3.59326 12.6113L2 13.0112V12.2122C2 12.0192 2 11.9228 2.03085 11.839C2.05812 11.7651 2.1025 11.6986 2.16035 11.645C2.22583 11.5844 2.31493 11.5474 2.49315 11.4734L6.441 9.83373C6.81114 9.68 6.99621 9.60314 7.14507 9.63264C7.27521 9.65844 7.38977 9.7349 7.46351 9.8452C7.54785 9.97135 7.54785 10.1717 7.54785 10.5725V10.6379Z" fill="#272EAC"/>
<path d="M13.3401 7.12695C13.433 7.12695 13.5083 7.20226 13.5083 7.29515V15.5755C13.5083 15.8555 13.5083 15.9955 13.4538 16.1025C13.4059 16.1966 13.3294 16.2731 13.2353 16.321C13.1283 16.3755 12.9883 16.3755 12.7083 16.3755H12.3215C12.0415 16.3755 11.9014 16.3755 11.7945 16.321C11.7004 16.2731 11.6239 16.1966 11.576 16.1025C11.5215 15.9955 11.5215 15.8555 11.5215 15.5755V9.60274C11.5215 9.52957 11.5215 9.49298 11.5062 9.46862C11.4928 9.44728 11.4719 9.43178 11.4476 9.4252C11.4198 9.41769 11.3848 9.42836 11.3148 9.44969L10.3392 9.74699C10.0531 9.83419 9.91002 9.87779 9.7948 9.85883C9.63576 9.83266 9.49909 9.73143 9.4277 9.58693C9.37598 9.48223 9.37598 9.33267 9.37598 9.03355C9.37598 8.86632 9.37598 8.7827 9.39881 8.70976C9.43031 8.60915 9.4928 8.52107 9.57735 8.45811C9.63866 8.41246 9.71758 8.38483 9.87542 8.32959L13.2845 7.1364C13.3024 7.13015 13.3212 7.12695 13.3401 7.12695Z" fill="#272EAC"/>
<path d="M21.9578 13.8364C21.9578 14.4204 21.8203 14.9113 21.5452 15.3091C21.2701 15.7069 20.8935 16.0052 20.4153 16.2041C19.9414 16.403 19.3997 16.5024 18.7903 16.5024C18.1852 16.5024 17.6414 16.403 17.159 16.2041C16.6808 16.0052 16.302 15.7069 16.0227 15.3091C15.7434 14.9113 15.6038 14.4204 15.6038 13.8364C15.6038 13.4386 15.6821 13.0811 15.8387 12.7637C15.9995 12.4463 16.2216 12.1755 16.5052 11.9512C16.7929 11.7269 17.1293 11.5555 17.5144 11.437C17.9038 11.3185 18.3248 11.2593 18.7776 11.2593C19.387 11.2593 19.9308 11.3651 20.409 11.5767C20.8914 11.784 21.2701 12.0802 21.5452 12.4653C21.8203 12.8504 21.9578 13.3075 21.9578 13.8364ZM19.9646 13.6904C19.9646 13.4196 19.9138 13.1911 19.8123 13.0049C19.715 12.8145 19.5774 12.6685 19.3997 12.5669C19.222 12.4611 19.0146 12.4082 18.7776 12.4082C18.5406 12.4082 18.3333 12.4611 18.1555 12.5669C17.9778 12.6685 17.8382 12.8145 17.7366 13.0049C17.6393 13.1911 17.5906 13.4196 17.5906 13.6904C17.5906 13.9528 17.6414 14.1813 17.7429 14.376C17.8445 14.5664 17.9842 14.7124 18.1619 14.814C18.3396 14.9113 18.5491 14.96 18.7903 14.96C19.0315 14.96 19.2389 14.9113 19.4124 14.814C19.5859 14.7124 19.7213 14.5664 19.8186 14.376C19.916 14.1813 19.9646 13.9528 19.9646 13.6904ZM21.761 9.58984C21.761 10.068 21.6341 10.4891 21.3802 10.853C21.1305 11.2127 20.7814 11.4941 20.3328 11.6973C19.8842 11.8962 19.3701 11.9956 18.7903 11.9956C18.2106 11.9956 17.6943 11.8962 17.2415 11.6973C16.7929 11.4941 16.4396 11.2127 16.1814 10.853C15.9275 10.4891 15.8006 10.068 15.8006 9.58984C15.8006 9.03125 15.9275 8.55941 16.1814 8.17432C16.4396 7.78923 16.7929 7.49723 17.2415 7.29834C17.6901 7.09945 18.2021 7 18.7776 7C19.3616 7 19.8779 7.09945 20.3264 7.29834C20.775 7.49723 21.1263 7.78923 21.3802 8.17432C21.6341 8.55941 21.761 9.03125 21.761 9.58984ZM19.7805 9.69141C19.7805 9.45866 19.7403 9.25765 19.6599 9.08838C19.5838 8.91488 19.4716 8.78158 19.3235 8.68848C19.1754 8.59115 18.9934 8.54248 18.7776 8.54248C18.5703 8.54248 18.3925 8.58903 18.2444 8.68213C18.0963 8.771 17.982 8.90218 17.9016 9.07568C17.8255 9.24495 17.7874 9.4502 17.7874 9.69141C17.7874 9.92839 17.8255 10.1357 17.9016 10.3135C17.982 10.487 18.0963 10.6245 18.2444 10.7261C18.3968 10.8234 18.5787 10.8721 18.7903 10.8721C19.0061 10.8721 19.186 10.8234 19.3299 10.7261C19.478 10.6245 19.5901 10.487 19.6663 10.3135C19.7425 10.1357 19.7805 9.92839 19.7805 9.69141Z" fill="#272EAC"/>
</svg>
