<svg width="24" height="24" viewBox="0 0 24 24" fill="none" xmlns="http://www.w3.org/2000/svg">
<path d="M20 5C20 4.44772 19.5523 4 19 4H5C4.44772 4 4 4.44772 4 5V19C4 19.5523 4.44772 20 5 20H19C19.5523 20 20 19.5523 20 19V5ZM22 19C22 20.6569 20.6569 22 19 22H5C3.34315 22 2 20.6569 2 19V5C2 3.34315 3.34315 2 5 2H19C20.6569 2 22 3.34315 22 5V19Z" fill="#5C5C5C"/>
<path d="M7 12V11C7 9.34315 8.34315 8 10 8H13.5859L13.293 7.70703L13.2246 7.63086C12.9043 7.23809 12.9269 6.65908 13.293 6.29297C13.6835 5.90244 14.3165 5.90244 14.707 6.29297L16.707 8.29297C16.993 8.57897 17.0786 9.00914 16.9238 9.38281C16.769 9.75641 16.4044 10 16 10H10C9.44772 10 9 10.4477 9 11V12C9 12.5523 8.55228 13 8 13C7.44772 13 7 12.5523 7 12Z" fill="#5C5C5C"/>
<path d="M17 12V13C17 14.6569 15.6569 16 14 16H10.4141L10.707 16.293L10.7754 16.3691C11.0957 16.7619 11.0731 17.3409 10.707 17.707C10.3165 18.0976 9.68349 18.0976 9.29297 17.707L7.29297 15.707C7.00697 15.421 6.92139 14.9909 7.07617 14.6172C7.23098 14.2436 7.59558 14 8 14H14C14.5523 14 15 13.5523 15 13V12C15 11.4477 15.4477 11 16 11C16.5523 11 17 11.4477 17 12Z" fill="#5C5C5C"/>
</svg>
