<svg width="24" height="24" viewBox="0 0 24 24" fill="none" xmlns="http://www.w3.org/2000/svg">
<path fill-rule="evenodd" clip-rule="evenodd" d="M12 22C17.5228 22 22 17.5228 22 12C22 6.47715 17.5228 2 12 2C6.47715 2 2 6.47715 2 12C2 17.5228 6.47715 22 12 22ZM8.29999 17.6091V6.7H12.604C13.4314 6.7 14.1363 6.85803 14.7187 7.17408C15.3011 7.48658 15.7449 7.92159 16.0503 8.47912C16.3593 9.0331 16.5138 9.6723 16.5138 10.3967C16.5138 11.1212 16.3575 11.7604 16.045 12.3143C15.7325 12.8683 15.2797 13.2998 14.6867 13.6087C14.0972 13.9177 13.3834 14.0722 12.5454 14.0722H10.6065V17.6091H8.29999ZM10.6065 8.58565V12.2238H12.1725C12.6164 12.2238 12.9822 12.1474 13.2698 11.9947C13.561 11.8385 13.7776 11.6237 13.9197 11.3502C14.0653 11.0732 14.1381 10.7554 14.1381 10.3967C14.1381 10.0345 14.0653 9.71846 13.9197 9.44858C13.7776 9.17514 13.561 8.96385 13.2698 8.8147C12.9786 8.662 12.6093 8.58565 12.1618 8.58565H10.6065Z" fill="#5C5C5C"/>
</svg>
