<svg width="24" height="24" viewBox="0 0 24 24" fill="none" xmlns="http://www.w3.org/2000/svg">
<path d="M20.8945 12.3843L20.7935 12.4853C20.4588 12.82 19.916 12.82 19.5813 12.4853C19.4976 12.4016 19.3619 12.4016 19.2783 12.4853L15.3004 16.4631C15.2268 16.5368 15.1779 16.6317 15.1608 16.7345L14.8317 18.7094C14.6687 19.6873 14.2042 20.5898 13.5032 21.2908C13.3174 21.4766 13.0163 21.4766 12.8305 21.2908L8.9747 17.435C8.77944 17.2398 8.46286 17.2398 8.2676 17.435L4.42902 21.2736C4.0106 21.692 3.33221 21.692 2.91379 21.2736C2.49537 20.8552 2.49537 20.1768 2.91379 19.7584L6.75237 15.9198C6.94763 15.7245 6.94763 15.408 6.75237 15.2127L2.89658 11.3569C2.71082 11.1711 2.71082 10.87 2.89658 10.6842C3.5976 9.98319 4.50014 9.51873 5.47805 9.35575L7.45295 9.0266C7.55574 9.00946 7.65061 8.96064 7.7243 8.88695L11.7021 4.90914C11.7858 4.82545 11.7858 4.68978 11.7021 4.60609C11.3674 4.27136 11.3674 3.72864 11.7021 3.39391L11.8031 3.29289C12.1937 2.90237 12.8268 2.90237 13.2173 3.29289L20.8945 10.9701C21.285 11.3606 21.285 11.9937 20.8945 12.3843Z" fill="#5C5C5C"/>
</svg>
