<svg width="24" height="24" viewBox="0 0 24 24" fill="none" xmlns="http://www.w3.org/2000/svg">
<path d="M17.4286 2C17.9809 2 18.4286 2.44772 18.4286 3V3.14286C18.4286 3.61624 18.0448 4 17.5714 4C17.4531 4 17.3571 4.09594 17.3571 4.21429V9.83977C17.3571 9.94398 17.3897 10.0456 17.4503 10.1304L18.614 11.7596C19.1902 12.5663 19.5 13.5329 19.5 14.5243C19.5 14.787 19.287 15 19.0243 15H13.5714C13.2953 15 13.0714 15.2239 13.0714 15.5V20.9286C13.0714 21.5203 12.5917 22 12 22C11.4083 22 10.9286 21.5203 10.9286 20.9286V15.5C10.9286 15.2239 10.7047 15 10.4286 15H4.97566C4.71296 15 4.5 14.787 4.5 14.5243C4.5 13.5329 4.80977 12.5663 5.386 11.7596L6.54972 10.1304C6.6103 10.0456 6.64286 9.94398 6.64286 9.83977V4.21429C6.64286 4.09594 6.54692 4 6.42857 4C5.95518 4 5.57143 3.61624 5.57143 3.14286V3C5.57143 2.44772 6.01914 2 6.57143 2H17.4286ZM9.28571 4C9.00957 4 8.78571 4.22386 8.78571 4.5V10.4458C8.78571 10.55 8.75315 10.6516 8.69258 10.7364L7.64044 12.2094C7.40406 12.5403 7.64062 13 8.04731 13H15.9527C16.3594 13 16.5959 12.5403 16.3596 12.2094L15.3074 10.7364C15.2468 10.6516 15.2143 10.55 15.2143 10.4458V4.5C15.2143 4.22386 14.9904 4 14.7143 4H9.28571Z" fill="#5C5C5C"/>
</svg>
