<svg width="24" height="24" viewBox="0 0 24 24" fill="none" xmlns="http://www.w3.org/2000/svg">
<path d="M18 9.5C18 6.18629 15.3137 3.5 12 3.5C8.68629 3.5 6 6.18629 6 9.5C6 12.8137 8.68629 15.5 12 15.5C15.3137 15.5 18 12.8137 18 9.5ZM13.9463 17.2598C13.3231 17.4156 12.6714 17.5 12 17.5C11.3282 17.5 10.6762 17.4157 10.0527 17.2598L9.35645 19.9512L11.0664 19.0732C11.3608 18.9224 11.6887 18.8536 12.002 18.8535C12.2761 18.8535 12.561 18.9064 12.8252 19.0205L12.9375 19.0732L12.9395 19.0742L14.6426 19.9512L13.9463 17.2598ZM20 9.5C20 12.5337 18.3109 15.1721 15.8223 16.5283L16.9629 20.9287L16.9658 20.9404C17.0534 21.296 16.968 21.6428 16.7871 21.9072C16.6163 22.1567 16.3817 22.3076 16.1709 22.3916C15.956 22.4771 15.7282 22.5099 15.5127 22.498C15.3087 22.4868 15.0919 22.4328 14.8887 22.3252V22.3271L12.0352 20.8574L12.0322 20.8564C12.0258 20.855 12.0149 20.8535 12.002 20.8535C11.9895 20.8535 11.9791 20.8541 11.9727 20.8555L9.11035 22.3271L9.10938 22.3252C8.90673 22.4321 8.69068 22.4858 8.4873 22.4971C8.27212 22.5089 8.04472 22.4768 7.83008 22.3916C7.61937 22.3078 7.38485 22.157 7.21387 21.9082C7.03291 21.6448 6.94782 21.2989 7.03418 20.9434L7.03711 20.9287L8.17578 16.5283C5.68801 15.1718 4 12.5331 4 9.5C4 5.08172 7.58172 1.5 12 1.5C16.4183 1.5 20 5.08172 20 9.5Z" fill="#5C5C5C"/>
<path d="M11.3472 6.49581C11.3928 6.35019 11.4819 6.22356 11.6016 6.13437C11.7213 6.04519 11.8653 5.99813 12.0125 6.00006C12.1597 6.00198 12.3024 6.05279 12.4199 6.14508C12.5374 6.23736 12.6235 6.36629 12.6656 6.51305L13.1746 7.55632C13.2241 7.65774 13.2961 7.74547 13.3846 7.8123C13.4731 7.87913 13.5755 7.92314 13.6836 7.94072L14.8121 8.12466C14.9574 8.12525 15.0988 8.17351 15.2162 8.26257C15.3337 8.35164 15.4211 8.47696 15.4661 8.62072C15.5111 8.76447 15.5113 8.91932 15.4668 9.06324C15.4223 9.20715 15.3353 9.33279 15.2182 9.42228L14.4087 10.2615C14.3312 10.3418 14.2732 10.44 14.2393 10.5482C14.2055 10.6564 14.1968 10.7714 14.214 10.8837L14.3928 12.0427C14.4421 12.1879 14.4451 12.3458 14.4015 12.493C14.3579 12.6402 14.2701 12.7689 14.1508 12.8602C14.0316 12.9515 13.8873 13.0005 13.7393 13C13.5912 12.9995 13.4473 12.9495 13.3286 12.8574L12.3168 12.3186C12.2193 12.2666 12.1114 12.2395 12.0019 12.2395C11.8924 12.2395 11.7844 12.2666 11.6869 12.3186L10.6752 12.8574C10.5565 12.9488 10.4128 12.9981 10.2652 12.9983C10.1176 12.9985 9.97387 12.9495 9.85501 12.8584C9.73614 12.7674 9.64844 12.6391 9.60476 12.4924C9.56108 12.3458 9.56371 12.1884 9.61228 12.0434L9.79046 10.8844C9.80778 10.772 9.79915 10.6568 9.76529 10.5485C9.73143 10.4402 9.6733 10.3418 9.5957 10.2615L8.79733 9.43377C8.67623 9.34649 8.58513 9.22121 8.53735 9.07623C8.48956 8.93125 8.48758 8.77418 8.53171 8.62795C8.57584 8.48172 8.66375 8.354 8.78261 8.26345C8.90147 8.17291 9.04505 8.12427 9.19237 8.12466L10.3202 7.94072C10.4282 7.92314 10.5307 7.87913 10.6192 7.8123C10.7077 7.74547 10.7796 7.65774 10.8292 7.55632L11.3472 6.49581Z" fill="#5C5C5C"/>
</svg>
