<svg width="24" height="24" viewBox="0 0 24 24" fill="none" xmlns="http://www.w3.org/2000/svg">
<path d="M9.70703 4.54289C9.31651 4.15237 8.68349 4.15237 8.29297 4.54289C7.90244 4.93342 7.90244 5.56643 8.29297 5.95696L10.5859 8.24992L8.29297 10.5429L8.22461 10.6191C7.90426 11.0118 7.92685 11.5908 8.29297 11.957C8.65908 12.3231 9.23809 12.3457 9.63086 12.0253L9.70703 11.957L12.707 8.95696C13.0976 8.56643 13.0976 7.93342 12.707 7.54289L9.70703 4.54289Z" fill="#5C5C5C"/>
<path d="M6 14.2499V10.2499C6 9.98471 6.10543 9.73043 6.29297 9.54289C6.45711 9.37875 6.67237 9.2775 6.90137 9.25481L7 9.24992H12C12.5523 9.24992 13 8.80221 13 8.24992C13 7.69764 12.5523 7.24992 12 7.24992H7L6.70312 7.26457C6.01649 7.33283 5.3711 7.63663 4.87891 8.12883C4.3163 8.69144 4 9.45427 4 10.2499V14.2499C4 14.8022 4.44772 15.2499 5 15.2499C5.55228 15.2499 6 14.8022 6 14.2499Z" fill="#5C5C5C"/>
<path d="M15 8.49992C15 7.80957 15.5596 7.24992 16.25 7.24992H18.75C19.4404 7.24992 20 7.80957 20 8.49992C20 9.19028 19.4404 9.74992 18.75 9.74992H16.25C15.5596 9.74992 15 9.19028 15 8.49992Z" fill="#5C5C5C"/>
<path d="M11 13.4999C11 12.8096 11.5596 12.2499 12.25 12.2499H18.75C19.4404 12.2499 20 12.8096 20 13.4999C20 14.1903 19.4404 14.7499 18.75 14.7499H12.25C11.5596 14.7499 11 14.1903 11 13.4999Z" fill="#5C5C5C"/>
<path d="M8 18.4999C8 17.8096 8.55964 17.2499 9.25 17.2499H18.75C19.4404 17.2499 20 17.8096 20 18.4999C20 19.1903 19.4404 19.7499 18.75 19.7499H9.25C8.55964 19.7499 8 19.1903 8 18.4999Z" fill="#5C5C5C"/>
<path d="M4 18.2499C4 17.6976 4.44772 17.2499 5 17.2499C5.55228 17.2499 6 17.6976 6 18.2499V18.7499C6 19.3022 5.55228 19.7499 5 19.7499C4.44772 19.7499 4 19.3022 4 18.7499V18.2499Z" fill="#5C5C5C"/>
</svg>
