<svg width="24" height="24" viewBox="0 0 24 24" fill="none" xmlns="http://www.w3.org/2000/svg">
<path fill-rule="evenodd" clip-rule="evenodd" d="M20 10H4V8H20V10Z" fill="#5C5C5C"/>
<path fill-rule="evenodd" clip-rule="evenodd" d="M17 2C17.5523 2 18 2.44772 18 3V4C18 4.55228 17.5523 5 17 5C16.4477 5 16 4.55228 16 4V3C16 2.44772 16.4477 2 17 2Z" fill="#5C5C5C"/>
<path fill-rule="evenodd" clip-rule="evenodd" d="M8 3C8 2.44772 7.55228 2 7 2C6.44772 2 6 2.44772 6 3V4H5C3.34315 4 2 5.34315 2 7V19C2 20.6569 3.34315 22 5 22H19C20.6569 22 22 20.6569 22 19V7C22 5.34315 20.6569 4 19 4H8V3ZM8 4C8 4.55228 7.55228 5 7 5C6.44772 5 6 4.55228 6 4H8ZM4 7C4 6.44772 4.44772 6 5 6H19C19.5523 6 20 6.44772 20 7V19C20 19.5523 19.5523 20 19 20H5C4.44772 20 4 19.5523 4 19V7Z" fill="#5C5C5C"/>
<path d="M8 4H6C6 4.55228 6.44772 5 7 5C7.55228 5 8 4.55228 8 4Z" fill="#5C5C5C"/>
<path fill-rule="evenodd" clip-rule="evenodd" d="M13.4905 11.1139C13.797 10.962 14.1568 10.962 14.4632 11.1139C14.626 11.1946 14.7667 11.3356 14.9294 11.4988L14.9653 11.5347L15.0012 11.5706C15.1644 11.7333 15.3054 11.874 15.3861 12.0368C15.538 12.3432 15.538 12.703 15.3861 13.0095C15.3054 13.1722 15.1644 13.313 15.0012 13.4757L14.9653 13.5115L10.6694 17.8074C10.6469 17.8303 10.5942 17.8837 10.5362 17.9192C10.4872 17.9492 10.4338 17.9713 10.3779 17.9848C10.3119 18.0006 10.2456 18.0002 10.2135 17.9999L9.15732 17.9999C9.11383 17.9999 9.05344 17.9999 9.00768 17.9962C8.95466 17.9919 8.87872 17.9807 8.79914 17.9402C8.69609 17.8877 8.61231 17.8039 8.5598 17.7009C8.51925 17.6213 8.50814 17.5453 8.50381 17.4923C8.50007 17.4466 8.50009 17.3946 8.5001 17.3511L8.5001 16.2953C8.49988 16.2632 8.49938 16.1881 8.51524 16.1221C8.52865 16.0662 8.55078 16.0128 8.58081 15.9638C8.6163 15.9058 8.66352 15.8593 8.68638 15.8367L12.9885 11.5347L13.0243 11.4988C13.187 11.3356 13.3278 11.1946 13.4905 11.1139ZM14.139 11.7682C14.0368 11.7176 13.9169 11.7176 13.8148 11.7682C13.7746 11.7881 13.7247 11.8311 13.5048 12.0511L13.3979 12.158L12.8815 12.6744L9.23034 16.3255V17.2697H10.1745L13.8256 13.6185L14.342 13.1021L14.4489 12.9952C14.6689 12.7753 14.7119 12.7254 14.7318 12.6852C14.7824 12.5831 14.7824 12.4632 14.7318 12.361C14.7119 12.3208 14.6689 12.271 14.4489 12.0511C14.229 11.8311 14.1792 11.7881 14.139 11.7682ZM14.342 13.1021L13.8256 13.6185L12.8815 12.6744L13.3979 12.158L14.342 13.1021Z" fill="#5C5C5C"/>
<path fill-rule="evenodd" clip-rule="evenodd" d="M9.23034 17.2697V16.3255L12.8815 12.6744L13.8256 13.6185L10.1745 17.2697H9.23034Z" fill="#5C5C5C"/>
<path fill-rule="evenodd" clip-rule="evenodd" d="M13.8148 11.7682C13.9169 11.7176 14.0368 11.7176 14.139 11.7682C14.1792 11.7881 14.229 11.8311 14.4489 12.0511C14.6689 12.271 14.7119 12.3208 14.7318 12.361C14.7824 12.4632 14.7824 12.5831 14.7318 12.6852C14.7119 12.7254 14.6689 12.7753 14.4489 12.9952L14.342 13.1021L13.3979 12.158L13.5048 12.0511C13.7247 11.8311 13.7746 11.7881 13.8148 11.7682Z" fill="#5C5C5C"/>
</svg>
