<svg width="24" height="24" viewBox="0 0 24 24" fill="none" xmlns="http://www.w3.org/2000/svg">
<path fill-rule="evenodd" clip-rule="evenodd" d="M5.63527 3C4.17985 3 3 4.17986 3 5.63529V18.2614C3 19.7168 4.17985 20.8967 5.63527 20.8967H11.9482C12.4075 20.8967 12.7798 20.5243 12.7798 20.0651C12.7798 19.6058 12.4075 19.2335 11.9482 19.2335H5.63527C5.09837 19.2335 4.66313 18.7983 4.66313 18.2614V5.63529C4.66313 5.09839 5.09837 4.66314 5.63527 4.66314H18.2612C18.7981 4.66314 19.2334 5.09839 19.2334 5.63529V12.0746C19.2334 12.5338 19.6057 12.9062 20.0649 12.9062C20.5242 12.9062 20.8965 12.5338 20.8965 12.0746V5.63529C20.8965 4.17986 19.7167 3 18.2612 3H5.63527Z" fill="#5C5C5C"/>
<path fill-rule="evenodd" clip-rule="evenodd" d="M7.43898 7.50931C6.97972 7.50931 6.60742 7.88162 6.60742 8.34088C6.60742 8.80014 6.97972 9.17245 7.43898 9.17245H16.4575C16.9168 9.17245 17.2891 8.80014 17.2891 8.34088C17.2891 7.88162 16.9168 7.50931 16.4575 7.50931H7.43898Z" fill="#5C5C5C"/>
<path fill-rule="evenodd" clip-rule="evenodd" d="M6.60742 11.9483C6.60742 11.4891 6.97972 11.1168 7.43898 11.1168H11.5383C11.9976 11.1168 12.3699 11.4891 12.3699 11.9483C12.3699 12.4076 11.9976 12.7799 11.5383 12.7799H7.43898C6.97972 12.7799 6.60742 12.4076 6.60742 11.9483Z" fill="#5C5C5C"/>
<path d="M20.6963 5.63574C20.6963 4.29077 19.6057 3.2002 18.2607 3.2002H5.63574C4.29078 3.2002 3.2002 4.29077 3.2002 5.63574V18.2617C3.20039 19.6065 4.2909 20.6963 5.63574 20.6963H11.9482C12.2969 20.6963 12.5799 20.4141 12.5801 20.0654C12.5801 19.7166 12.297 19.4336 11.9482 19.4336H5.63574C4.9885 19.4336 4.46309 18.9089 4.46289 18.2617V5.63574C4.46289 4.98838 4.98838 4.46289 5.63574 4.46289H18.2607C18.9081 4.46289 19.4336 4.98838 19.4336 5.63574V12.0742C19.4336 12.4229 19.7159 12.7058 20.0645 12.7061C20.4133 12.7061 20.6963 12.423 20.6963 12.0742V5.63574ZM12.1699 11.9482C12.1699 11.5995 11.8869 11.3164 11.5381 11.3164H7.43945C7.09068 11.3164 6.80766 11.5995 6.80762 11.9482C6.80762 12.297 7.09065 12.5801 7.43945 12.5801H11.5381C11.8869 12.5801 12.1699 12.297 12.1699 11.9482ZM17.0889 8.34082C17.0888 7.9922 16.8066 7.70925 16.458 7.70898H7.43945C7.09067 7.70898 6.80765 7.99204 6.80762 8.34082C6.80762 8.68963 7.09065 8.97266 7.43945 8.97266H16.458C16.8066 8.97239 17.0889 8.68947 17.0889 8.34082ZM12.5703 11.9482C12.5703 12.518 12.1078 12.9795 11.5381 12.9795H7.43945C6.86973 12.9795 6.40723 12.518 6.40723 11.9482C6.40727 11.3786 6.86976 10.917 7.43945 10.917H11.5381C12.1078 10.917 12.5703 11.3786 12.5703 11.9482ZM17.4893 8.34082C17.4893 8.91038 17.0275 9.37181 16.458 9.37207H7.43945C6.86973 9.37207 6.40723 8.91054 6.40723 8.34082C6.40726 7.77113 6.86975 7.30957 7.43945 7.30957H16.458C17.0275 7.30983 17.4892 7.77129 17.4893 8.34082ZM21.0967 12.0742C21.0967 12.6439 20.6342 13.1064 20.0645 13.1064C19.495 13.1062 19.0332 12.6438 19.0332 12.0742V5.63574C19.0332 5.20929 18.6872 4.86328 18.2607 4.86328H5.63574C5.2093 4.86328 4.86328 5.20929 4.86328 5.63574V18.2617C4.86348 18.688 5.20942 19.0332 5.63574 19.0332H11.9482C12.518 19.0332 12.9795 19.4957 12.9795 20.0654C12.9793 20.635 12.5178 21.0967 11.9482 21.0967H5.63574C4.06998 21.0967 2.8 19.8274 2.7998 18.2617V5.63574C2.7998 4.06985 4.06986 2.7998 5.63574 2.7998H18.2607C19.8266 2.7998 21.0967 4.06985 21.0967 5.63574V12.0742Z" fill="#5C5C5C"/>
<path fill-rule="evenodd" clip-rule="evenodd" d="M16.1191 18.0632C16.1182 18.0609 16.1201 18.0655 16.1191 18.0632C16.1201 18.0654 16.1238 18.0745 16.1247 18.0767L16.1191 18.0632Z" fill="#5C5C5C"/>
<path fill-rule="evenodd" clip-rule="evenodd" d="M16.1284 16.9141L16.122 16.93L16.1156 16.9449C16.1198 16.9346 16.124 16.9243 16.1284 16.9141Z" fill="#5C5C5C"/>
<path fill-rule="evenodd" clip-rule="evenodd" d="M16.9449 16.1157L16.9299 16.1221L16.914 16.1285C16.9242 16.1241 16.9345 16.1199 16.9449 16.1157Z" fill="#5C5C5C"/>
<path fill-rule="evenodd" clip-rule="evenodd" d="M16.9199 18.8735L16.9292 18.8773L16.9387 18.8813L16.9199 18.8735Z" fill="#5C5C5C"/>
<path fill-rule="evenodd" clip-rule="evenodd" d="M18.8812 16.9387L18.8773 16.9293L18.8735 16.92L18.8812 16.9387Z" fill="#5C5C5C"/>
<path fill-rule="evenodd" clip-rule="evenodd" d="M18.8726 18.0817L18.8773 18.0701L18.8822 18.0585L18.8726 18.0817Z" fill="#5C5C5C"/>
<path fill-rule="evenodd" clip-rule="evenodd" d="M18.5581 16.45C18.4216 16.3124 18.2584 16.2012 18.0769 16.1249L18.0634 16.1193C18.0679 16.1212 18.0724 16.123 18.0769 16.1249C18.2556 16.2011 18.4231 16.3141 18.5581 16.45ZM16.1247 18.0767C16.1233 18.0734 16.1205 18.0666 16.1191 18.0632L16.1247 18.0767Z" fill="#5C5C5C"/>
<path d="M16.1191 18.0632L16.1247 18.0767C16.2753 18.4351 16.5619 18.7222 16.9199 18.8735L16.9387 18.8813C17.1118 18.9517 17.3012 18.9905 17.4997 18.9905C18.1165 18.9905 18.6458 18.6158 18.8726 18.0817L18.8822 18.0585C18.952 17.886 18.9904 17.6973 18.9904 17.4998C18.9904 17.3013 18.9516 17.1119 18.8812 16.9387L18.8735 16.92C18.7988 16.7434 18.6911 16.5841 18.5581 16.45C18.4216 16.3124 18.2584 16.2012 18.0769 16.1249L18.0634 16.1193C17.8895 16.0482 17.6992 16.0091 17.4997 16.0091C17.3036 16.0091 17.1164 16.0469 16.9449 16.1157C16.9345 16.1199 16.9242 16.1241 16.914 16.1285C16.5616 16.2792 16.2791 16.5617 16.1284 16.9141C16.124 16.9243 16.1198 16.9346 16.1156 16.9449C16.0468 17.1164 16.009 17.3037 16.009 17.4998C16.009 17.6991 16.0481 17.8894 16.1191 18.0632ZM19.3293 15.031L19.2933 15.118C19.5157 15.2857 19.7139 15.4839 19.8816 15.7063L19.9691 15.67C20.3494 15.5124 20.7854 15.693 20.943 16.0733C21.1006 16.4536 20.92 16.8896 20.5398 17.0472L20.4523 17.0834C20.4713 17.2195 20.4812 17.3585 20.4812 17.4998C20.4812 17.641 20.4713 17.7799 20.4523 17.9159L20.5398 17.9522L20.6089 17.9849C20.9415 18.1641 21.0907 18.5696 20.943 18.9261C20.7953 19.2826 20.403 19.4634 20.0412 19.3548L19.9691 19.3293L19.8817 19.2931C19.7137 19.5159 19.5152 19.7143 19.2924 19.8822L19.3286 19.9698L19.3548 20.0419C19.4629 20.4037 19.2811 20.7956 18.9246 20.943C18.568 21.0904 18.163 20.9409 17.9841 20.6082L17.9514 20.539L17.9156 20.4524C17.7797 20.4714 17.6408 20.4812 17.4997 20.4812C17.3584 20.4812 17.2194 20.4713 17.0834 20.4523L17.0471 20.5398C16.8895 20.92 16.4535 21.1006 16.0732 20.943C15.6929 20.7854 15.5123 20.3494 15.6699 19.9691L15.7062 19.8816C15.4836 19.7138 15.2853 19.5154 15.1175 19.2928L15.0309 19.3286C14.6506 19.486 14.2145 19.3056 14.057 18.9254C13.8996 18.5451 14.08 18.109 14.4602 17.9514L14.547 17.9156C14.528 17.7797 14.5182 17.6409 14.5182 17.4998C14.5182 17.3584 14.5281 17.2193 14.5471 17.0832L14.4602 17.0472L14.3911 17.0144C14.0586 16.8352 13.9093 16.4297 14.057 16.0733C14.2049 15.7168 14.5977 15.5357 14.9596 15.6446L15.0309 15.67L15.1179 15.7061C15.2856 15.4838 15.4837 15.2857 15.706 15.118L15.6699 15.031L15.6445 14.9597C15.5356 14.5978 15.7167 14.205 16.0732 14.0571C16.4296 13.9094 16.8352 14.0587 17.0144 14.3912L17.0471 14.4604L17.0832 14.5472C17.2193 14.5282 17.3583 14.5183 17.4997 14.5183C17.641 14.5183 17.78 14.5282 17.9161 14.5472L17.9521 14.4604L17.9849 14.3912C18.1641 14.0585 18.5702 13.9092 18.9268 14.0571C19.2832 14.2051 19.4637 14.5979 19.3548 14.9597L19.3293 15.031Z" fill="#5C5C5C"/>
</svg>
