<svg width="24" height="24" viewBox="0 0 24 24" fill="none" xmlns="http://www.w3.org/2000/svg">
<path d="M12.7526 15.5108L18.4026 9.85081C18.4964 9.75784 18.5707 9.64724 18.6215 9.52538C18.6723 9.40352 18.6984 9.27282 18.6984 9.14081C18.6984 9.0088 18.6723 8.87809 18.6215 8.75623C18.5707 8.63437 18.4964 8.52377 18.4026 8.43081C18.2153 8.24456 17.9618 8.14001 17.6976 8.14001C17.4334 8.14001 17.18 8.24456 16.9926 8.43081L11.9926 13.3808L7.04263 8.43081C6.85526 8.24456 6.60181 8.14001 6.33763 8.14001C6.07344 8.14001 5.81999 8.24456 5.63263 8.43081C5.53814 8.52342 5.46297 8.63387 5.41147 8.75574C5.35998 8.87762 5.33318 9.0085 5.33263 9.14081C5.33318 9.27311 5.35998 9.404 5.41147 9.52587C5.46297 9.64775 5.53814 9.75819 5.63263 9.85081L11.2826 15.5108C11.3763 15.6123 11.4899 15.6933 11.6164 15.7487C11.7429 15.8041 11.8795 15.8327 12.0176 15.8327C12.1557 15.8327 12.2923 15.8041 12.4188 15.7487C12.5453 15.6933 12.659 15.6123 12.7526 15.5108Z" fill="#5C5C5C"/>
</svg>
