<svg viewBox="0 0 16 16" fill="none" xmlns="http://www.w3.org/2000/svg">
<path d="M12.6667 7.33366H8.66667V3.33366C8.66667 3.15685 8.59643 2.98728 8.4714 2.86225C8.34638 2.73723 8.17681 2.66699 8 2.66699C7.82319 2.66699 7.65362 2.73723 7.52859 2.86225C7.40357 2.98728 7.33333 3.15685 7.33333 3.33366V7.33366H3.33333C3.15652 7.33366 2.98695 7.4039 2.86193 7.52892C2.7369 7.65395 2.66667 7.82351 2.66667 8.00033C2.66667 8.17714 2.7369 8.34671 2.86193 8.47173C2.98695 8.59675 3.15652 8.66699 3.33333 8.66699H7.33333V12.667C7.33333 12.8438 7.40357 13.0134 7.52859 13.1384C7.65362 13.2634 7.82319 13.3337 8 13.3337C8.17681 13.3337 8.34638 13.2634 8.4714 13.1384C8.59643 13.0134 8.66667 12.8438 8.66667 12.667V8.66699H12.6667C12.8435 8.66699 13.013 8.59675 13.1381 8.47173C13.2631 8.34671 13.3333 8.17714 13.3333 8.00033C13.3333 7.82351 13.2631 7.65395 13.1381 7.52892C13.013 7.4039 12.8435 7.33366 12.6667 7.33366Z" />
</svg>
