<svg width="24" height="24" viewBox="0 0 24 24" fill="none" xmlns="http://www.w3.org/2000/svg">
<path d="M2 19V7C2 5.34315 3.34315 4 5 4H13V6H5C4.44772 6 4 6.44772 4 7V19L4.00488 19.1025C4.05621 19.6067 4.48232 20 5 20H17C17.5523 20 18 19.5523 18 19V11H20V19C20 20.6569 18.6569 22 17 22H5C3.39489 22 2.08421 20.7394 2.00391 19.1543L2 19Z" fill="#5C5C5C"/>
<path d="M19.0469 1.00195C19.1566 1.01094 19.2618 1.05105 19.35 1.11797C19.4382 1.18486 19.5051 1.27533 19.5434 1.37852L19.5582 1.42383L20.1293 3.64023C20.1436 3.69553 20.1725 3.74593 20.2129 3.78633C20.2533 3.82676 20.304 3.85564 20.3594 3.86992L22.5676 4.43906C22.6899 4.4728 22.8044 4.54755 22.8813 4.64844C22.9582 4.74944 23 4.87305 23 5C23 5.12695 22.9582 5.25057 22.8813 5.35156C22.8044 5.45245 22.6965 5.52525 22.5742 5.55898L20.359 6.12969C20.3036 6.14397 20.2533 6.17324 20.2129 6.21367C20.1725 6.25407 20.1436 6.30447 20.1293 6.35977L19.559 8.57152C19.5249 8.69341 19.4505 8.80553 19.3496 8.88203C19.2488 8.95851 19.1258 8.99999 18.9992 9C18.8727 9 18.7497 8.95849 18.6488 8.88203C18.548 8.80553 18.4747 8.69807 18.4406 8.57617C18.4399 8.57359 18.4413 8.57877 18.4406 8.57617L17.8695 6.35977C17.8553 6.30449 17.8263 6.25407 17.7859 6.21367C17.7455 6.17324 17.6948 6.14436 17.6395 6.13008L15.4309 5.56055C15.3095 5.52607 15.1932 5.45026 15.1172 5.34961C15.0507 5.26155 15.0109 5.15661 15.002 5.04727L15 5L15.002 4.95273C15.0109 4.84339 15.0507 4.73845 15.1172 4.65039L15.1473 4.61406C15.2203 4.53214 15.3153 4.47237 15.4215 4.44219L17.6395 3.86953C17.6948 3.85527 17.7455 3.82671 17.7859 3.78633C17.8264 3.74592 17.8552 3.69518 17.8695 3.63984L18.4391 1.43164C18.4732 1.30981 18.5481 1.19446 18.6488 1.11797C18.7497 1.04147 18.873 1 18.9996 1L19.0469 1.00195Z" fill="#5C5C5C"/>
<path d="M14.0803 16.48V9.45H15.4403V16.48H14.0803Z" fill="#5C5C5C"/>
<path d="M9.38 9.45L6.55 16.48H7.97L8.47175 15.17H11.3651L11.86 16.48H13.31L10.49 9.45H9.38ZM9.92829 11.3672L10.9344 14.03H8.90839L9.92829 11.3672Z" fill="#5C5C5C"/>
</svg>
