<svg viewBox="0 0 12 12" xmlns="http://www.w3.org/2000/svg">
<path d="M8.50001 5.50009H4.70501L6.35501 3.85509C6.44916 3.76094 6.50205 3.63324 6.50205 3.50009C6.50205 3.36694 6.44916 3.23924 6.35501 3.14509C6.26086 3.05094 6.13316 2.99805 6.00001 2.99805C5.86686 2.99805 5.73916 3.05094 5.64501 3.14509L3.14501 5.64509C3.09949 5.69264 3.06381 5.74872 3.04001 5.81009C2.99 5.93182 2.99 6.06836 3.04001 6.19009C3.06381 6.25147 3.09949 6.30754 3.14501 6.35509L5.64501 8.85509C5.69149 8.90196 5.74679 8.93915 5.80772 8.96454C5.86865 8.98992 5.934 9.00299 6.00001 9.00299C6.06602 9.00299 6.13137 8.98992 6.1923 8.96454C6.25323 8.93915 6.30853 8.90196 6.35501 8.85509C6.40187 8.80861 6.43907 8.75331 6.46445 8.69238C6.48984 8.63145 6.50291 8.5661 6.50291 8.50009C6.50291 8.43409 6.48984 8.36873 6.46445 8.3078C6.43907 8.24687 6.40187 8.19157 6.35501 8.14509L4.70501 6.50009H8.50001C8.63262 6.50009 8.75979 6.44741 8.85356 6.35365C8.94733 6.25988 9.00001 6.1327 9.00001 6.00009C9.00001 5.86748 8.94733 5.74031 8.85356 5.64654C8.75979 5.55277 8.63262 5.50009 8.50001 5.50009Z"/>
</svg>
