<svg width="24" height="24" viewBox="0 0 24 24" fill="none" xmlns="http://www.w3.org/2000/svg">
<path d="M18.562 14.6338L14.0003 12L18.562 9.36621C18.7916 9.23353 18.9591 9.0151 19.0277 8.75896C19.0963 8.50281 19.0603 8.22991 18.9278 8.00026C18.7952 7.7706 18.5769 7.60299 18.3208 7.53427C18.0647 7.46555 17.7917 7.50134 17.562 7.63379L13 10.2678V5C13 4.73478 12.8947 4.48043 12.7071 4.29289C12.5196 4.10536 12.2652 4 12 4C11.7348 4 11.4804 4.10536 11.2929 4.29289C11.1054 4.48043 11 4.73478 11 5V10.2678L6.43801 7.63376C6.20829 7.50131 5.93537 7.46552 5.67926 7.53424C5.42315 7.60296 5.20481 7.77057 5.07225 8.00023C4.93968 8.22988 4.90374 8.50278 4.97233 8.75893C5.04092 9.01507 5.20842 9.2335 5.43801 9.36618L9.9997 12L5.43801 14.6338C5.20842 14.7665 5.04092 14.9849 4.97233 15.241C4.90374 15.4972 4.93968 15.7701 5.07225 15.9997C5.20481 16.2294 5.42315 16.397 5.67926 16.4657C5.93537 16.5345 6.20829 16.4987 6.43801 16.3662L11 13.7322V19C11 19.2652 11.1054 19.5196 11.2929 19.7071C11.4804 19.8946 11.7348 20 12 20C12.2652 20 12.5196 19.8946 12.7071 19.7071C12.8947 19.5196 13 19.2652 13 19V13.7322L17.562 16.3662C17.7917 16.4987 18.0647 16.5345 18.3208 16.4658C18.5769 16.397 18.7952 16.2294 18.9278 15.9998C19.0603 15.7701 19.0963 15.4972 19.0277 15.2411C18.9591 14.9849 18.7916 14.7665 18.562 14.6338Z" fill="#5C5C5C"/>
</svg>
