<svg viewBox="0 0 24 24" xmlns="http://www.w3.org/2000/svg">
<path d="M11.4018 9.72748C11.597 9.92273 11.5971 10.2393 11.4018 10.4346L6.66492 15.1723C6.57896 15.2553 6.5104 15.3546 6.46323 15.4644C6.41606 15.5742 6.39124 15.6923 6.3902 15.8118C6.38916 15.9313 6.41193 16.0499 6.45718 16.1605C6.50244 16.2711 6.56926 16.3716 6.65377 16.4561C6.73827 16.5406 6.83876 16.6074 6.94936 16.6526C7.05997 16.6979 7.17848 16.7207 7.29798 16.7196C7.41748 16.7186 7.53558 16.6938 7.64539 16.6466C7.75519 16.5994 7.8545 16.5309 7.93752 16.4449L13.0288 11.3545C13.5352 10.8481 13.8197 10.1613 13.8197 9.44515C13.8197 8.72901 13.5352 8.04219 13.0288 7.5358C12.5224 7.02941 11.8356 6.74492 11.1195 6.74492C10.4033 6.74492 9.71651 7.02941 9.21012 7.5358L4.11882 12.6271C3.69229 13.043 3.35259 13.5395 3.11942 14.0877C2.88626 14.6359 2.76427 15.225 2.76054 15.8207C2.75681 16.4165 2.8714 17.007 3.09768 17.5581C3.32396 18.1092 3.65741 18.6099 4.0787 19.0311C4.49998 19.4524 5.00072 19.7857 5.55185 20.0119C6.10298 20.2381 6.69355 20.3527 7.28928 20.3488C7.88502 20.345 8.47407 20.223 9.02226 19.9897C9.57045 19.7565 10.0669 19.4167 10.4827 18.9901L15.2205 14.2532C15.4157 14.058 15.7323 14.058 15.9275 14.2532L16.4931 14.8188C16.6883 15.014 16.6883 15.3306 16.4931 15.5259L11.7553 20.2636C11.1703 20.8486 10.4757 21.3127 9.71135 21.6293C8.94696 21.946 8.12769 22.1089 7.30032 22.1089C6.47295 22.1089 5.65368 21.946 4.88929 21.6293C4.1249 21.3127 3.43036 20.8486 2.84532 20.2636C2.26028 19.6786 1.7962 18.984 1.47958 18.2196C1.16296 17.4552 1 16.636 1 15.8086C1 14.9812 1.16296 14.162 1.47958 13.3976C1.7962 12.6332 2.26028 11.9386 2.84532 11.3536L7.93752 6.2632C8.78623 5.44349 9.92294 4.98992 11.1028 5.00017C12.2827 5.01042 13.4114 5.48368 14.2457 6.31802C15.08 7.15236 15.5533 8.28101 15.5636 9.4609C15.5738 10.6408 15.1202 11.7775 14.3005 12.6262L9.21012 17.7193C8.95932 17.97 8.66159 18.1689 8.33393 18.3046C8.00627 18.4403 7.65509 18.5101 7.30045 18.5101C6.94581 18.51 6.59465 18.4401 6.26702 18.3044C5.93939 18.1686 5.64171 17.9697 5.39097 17.7189C5.14023 17.4681 4.94135 17.1703 4.80567 16.8427C4.66999 16.515 4.60018 16.1638 4.60022 15.8092C4.60027 15.4545 4.67016 15.1034 4.80591 14.7758C4.94167 14.4481 5.14062 14.1504 5.39142 13.8997L10.1292 9.16196C10.3244 8.9667 10.641 8.96669 10.8363 9.16196L11.4018 9.72748Z" />
<path d="M19.1618 9.55915L19.2737 6.67197L16.6715 8.22055L16 7.11817L18.7421 5.77957L16 4.44097L16.6715 3.3386L19.2737 4.88717L19.1618 2H20.5049L20.3929 4.88717L22.9951 3.3386L23.6667 4.44097L20.9246 5.77957L23.6667 7.11817L22.9951 8.22055L20.3929 6.67197L20.5049 9.55915H19.1618Z" fill="#F44336"/>
</svg>
