<svg viewBox="0 0 20 20" xmlns="http://www.w3.org/2000/svg">
<path fill-rule="evenodd" clip-rule="evenodd" d="M5.83333 6.56185C4.92165 6.56185 4.04731 6.92401 3.40265 7.56867C2.758 8.21333 2.39583 9.08767 2.39583 9.99935C2.39583 10.911 2.758 11.7854 3.40265 12.43C4.04731 13.0747 4.92165 13.4368 5.83333 13.4368H7.5C7.90271 13.4368 8.22917 13.7633 8.22917 14.166C8.22917 14.5687 7.90271 14.8952 7.5 14.8952H5.83333C4.53488 14.8952 3.2896 14.3794 2.37146 13.4612C1.45331 12.5431 0.9375 11.2978 0.9375 9.99935C0.9375 8.70089 1.45331 7.45562 2.37146 6.53747C3.2896 5.61933 4.53488 5.10352 5.83333 5.10352H7.5C7.90271 5.10352 8.22917 5.42997 8.22917 5.83268C8.22917 6.23539 7.90271 6.56185 7.5 6.56185H5.83333Z" />
<path fill-rule="evenodd" clip-rule="evenodd" d="M11.7708 5.83268C11.7708 5.42997 12.0973 5.10352 12.5 5.10352H14.1667C15.4651 5.10352 16.7104 5.61933 17.6285 6.53747C18.5467 7.45562 19.0625 8.70089 19.0625 9.99935C19.0625 11.2978 18.5467 12.5431 17.6285 13.4612C16.7104 14.3794 15.4651 14.8952 14.1667 14.8952H12.5C12.0973 14.8952 11.7708 14.5687 11.7708 14.166C11.7708 13.7633 12.0973 13.4368 12.5 13.4368H14.1667C15.0783 13.4368 15.9527 13.0747 16.5973 12.43C17.242 11.7854 17.6042 10.911 17.6042 9.99935C17.6042 9.08767 17.242 8.21333 16.5973 7.56867C15.9527 6.92401 15.0783 6.56185 14.1667 6.56185H12.5C12.0973 6.56185 11.7708 6.23539 11.7708 5.83268Z" />
<path fill-rule="evenodd" clip-rule="evenodd" d="M5.9375 9.99935C5.9375 9.59664 6.26396 9.27018 6.66667 9.27018H13.3333C13.736 9.27018 14.0625 9.59664 14.0625 9.99935C14.0625 10.4021 13.736 10.7285 13.3333 10.7285H6.66667C6.26396 10.7285 5.9375 10.4021 5.9375 9.99935Z" />
</svg>
