<svg viewBox="0 0 24 24" xmlns="http://www.w3.org/2000/svg">
<path d="M14.4018 7.72748C14.597 7.92273 14.5971 8.23929 14.4018 8.43456L9.66492 13.1723C9.57896 13.2553 9.5104 13.3546 9.46323 13.4644C9.41606 13.5742 9.39123 13.6923 9.3902 13.8118C9.38916 13.9313 9.41193 14.0499 9.45718 14.1605C9.50244 14.2711 9.56926 14.3716 9.65377 14.4561C9.73827 14.5406 9.83876 14.6074 9.94936 14.6526C10.06 14.6979 10.1785 14.7207 10.298 14.7196C10.4175 14.7186 10.5356 14.6938 10.6454 14.6466C10.7552 14.5994 10.8545 14.5309 10.9375 14.4449L16.0288 9.3545C16.5352 8.84811 16.8197 8.1613 16.8197 7.44515C16.8197 6.72901 16.5352 6.04219 16.0288 5.5358C15.5224 5.02941 14.8356 4.74492 14.1195 4.74492C13.4033 4.74492 12.7165 5.02941 12.2101 5.5358L7.11882 10.6271C6.69229 11.043 6.35259 11.5395 6.11942 12.0877C5.88626 12.6359 5.76427 13.225 5.76054 13.8207C5.75681 14.4165 5.8714 15.007 6.09768 15.5581C6.32396 16.1092 6.65741 16.6099 7.0787 17.0311C7.49998 17.4524 8.00072 17.7857 8.55185 18.0119C9.10298 18.2381 9.69355 18.3527 10.2893 18.3488C10.885 18.345 11.4741 18.223 12.0223 17.9897C12.5704 17.7565 13.0669 17.4167 13.4827 16.9901L18.2205 12.2532C18.4157 12.058 18.7323 12.058 18.9275 12.2532L19.4931 12.8188C19.6883 13.014 19.6883 13.3306 19.4931 13.5259L14.7553 18.2636C14.1703 18.8486 13.4757 19.3127 12.7114 19.6293C11.947 19.946 11.1277 20.1089 10.3003 20.1089C9.47295 20.1089 8.65368 19.946 7.88929 19.6293C7.1249 19.3127 6.43036 18.8486 5.84532 18.2636C5.26028 17.6786 4.7962 16.984 4.47958 16.2196C4.16296 15.4552 4 14.636 4 13.8086C4 12.9812 4.16296 12.162 4.47958 11.3976C4.7962 10.6332 5.26028 9.93864 5.84532 9.3536L10.9375 4.2632C11.7862 3.44349 12.9229 2.98992 14.1028 3.00017C15.2827 3.01042 16.4114 3.48368 17.2457 4.31802C18.08 5.15236 18.5533 6.28101 18.5636 7.4609C18.5738 8.64078 18.1202 9.77749 17.3005 10.6262L12.2101 15.7193C11.9593 15.97 11.6616 16.1689 11.3339 16.3046C11.0063 16.4403 10.6551 16.5101 10.3005 16.5101C9.94581 16.51 9.59465 16.4401 9.26702 16.3044C8.93939 16.1686 8.64171 15.9697 8.39097 15.7189C8.14023 15.4681 7.94135 15.1703 7.80567 14.8427C7.66999 14.515 7.60018 14.1638 7.60022 13.8092C7.60027 13.4545 7.67016 13.1034 7.80591 12.7758C7.94167 12.4481 8.14062 12.1504 8.39142 11.8997L13.1292 7.16196C13.3244 6.9667 13.641 6.96669 13.8363 7.16196L14.4018 7.72748Z" />
</svg>
