<svg width="24" height="24" viewBox="0 0 24 24" fill="none" xmlns="http://www.w3.org/2000/svg">
<path fill-rule="evenodd" clip-rule="evenodd" d="M8.00002 4C7.44773 4 7.00002 4.44772 7.00002 5V6C7.00002 6.55228 6.5523 7 6.00002 7C5.44773 7 5.00002 6.55228 5.00002 6V5C5.00002 3.34315 6.34316 2 8.00002 2H13.7929C14.1907 2 14.5723 2.15804 14.8536 2.43934L20.5607 8.14645C20.842 8.42775 21 8.80928 21 9.20711V19C21 20.6569 19.6569 22 18 22H8.00002C6.34316 22 5.00002 20.6569 5.00002 19C5.00002 18.4477 5.44773 18 6.00002 18C6.5523 18 7.00002 18.4477 7.00002 19C7.00002 19.5523 7.44773 20 8.00002 20H18C18.5523 20 19 19.5523 19 19V10.2426C19 9.71221 18.7893 9.2035 18.4142 8.82843L14.1716 4.58579C13.7965 4.21071 13.2878 4 12.7574 4H8.00002Z" fill="#5C5C5C"/>
<path fill-rule="evenodd" clip-rule="evenodd" d="M13 7V4C13 3.44772 13.4477 3 14 3C14.5523 3 15 3.44772 15 4V7C15 7.55228 15.4477 8 16 8H19C19.5523 8 20 8.44772 20 9C20 9.55228 19.5523 10 19 10H16C14.3432 10 13 8.65685 13 7Z" fill="#5C5C5C"/>
<path fill-rule="evenodd" clip-rule="evenodd" d="M6.79291 14C7.62134 14 8.29291 13.3284 8.29291 12.5C8.29291 11.6716 7.62134 11 6.79291 11C5.96448 11 5.29291 11.6716 5.29291 12.5C5.29291 13.3284 5.96448 14 6.79291 14ZM6.79291 16C8.7259 16 10.2929 14.433 10.2929 12.5C10.2929 10.567 8.7259 9 6.79291 9C4.85991 9 3.29291 10.567 3.29291 12.5C3.29291 14.433 4.85991 16 6.79291 16Z" fill="#5C5C5C"/>
<path fill-rule="evenodd" clip-rule="evenodd" d="M8.29291 14C8.68343 13.6095 9.3166 13.6095 9.70712 14L11.2929 15.5858C11.6834 15.9763 11.6834 16.6095 11.2929 17C10.9024 17.3905 10.2692 17.3905 9.87869 17L8.29291 15.4142C7.90238 15.0237 7.90238 14.3905 8.29291 14Z" fill="#5C5C5C"/>
</svg>
