<svg width="24" height="24" viewBox="0 0 24 24" fill="none" xmlns="http://www.w3.org/2000/svg">
<path d="M2 13V10C2 9.44772 2.44772 9 3 9C3.55228 9 4 9.44772 4 10V13C4 13.5523 3.55228 14 3 14C2.44772 14 2 13.5523 2 13Z" fill="#5C5C5C"/>
<path d="M6 16V7C6 6.44772 6.44772 6 7 6C7.55228 6 8 6.44772 8 7V16C8 16.5523 7.55228 17 7 17C6.44772 17 6 16.5523 6 16Z" fill="#5C5C5C"/>
<path d="M9 20V4C9 3.44772 9.44772 3 10 3C10.5523 3 11 3.44772 11 4V20C11 20.5523 10.5523 21 10 21C9.44772 21 9 20.5523 9 20Z" fill="#5C5C5C"/>
<path d="M13 15V8C13 7.44772 13.4477 7 14 7C14.5523 7 15 7.44772 15 8V15C15 15.5523 14.5523 16 14 16C13.4477 16 13 15.5523 13 15Z" fill="#5C5C5C"/>
<path d="M16 17V6C16 5.44772 16.4477 5 17 5C17.5523 5 18 5.44772 18 6V17C18 17.5523 17.5523 18 17 18C16.4477 18 16 17.5523 16 17Z" fill="#5C5C5C"/>
<path d="M20 13V10C20 9.44772 20.4477 9 21 9C21.5523 9 22 9.44772 22 10V13C22 13.5523 21.5523 14 21 14C20.4477 14 20 13.5523 20 13Z" fill="#5C5C5C"/>
</svg>
