<svg width="18" height="15" viewBox="0 0 18 15" xmlns="http://www.w3.org/2000/svg">
<path d="M6.60977 0C6.86255 0.0100755 7.1015 0.119954 7.27689 0.305466C7.45234 0.491074 7.55077 0.738362 7.55077 0.995891C7.55076 1.25342 7.45234 1.50071 7.27689 1.68632C7.1015 1.87183 6.86255 1.98171 6.60977 1.99178H5.00517C4.84084 1.99178 4.68247 2.05843 4.56627 2.17667C4.45033 2.29487 4.38545 2.45535 4.38545 2.62236V5.06074L4.38106 5.24294C4.3597 5.66757 4.26063 6.08502 4.08875 6.47374C3.91915 6.85725 3.68094 7.20465 3.38828 7.5C3.68094 7.79535 3.91915 8.14275 4.08875 8.52626C4.28516 8.97046 4.38643 9.45218 4.38545 9.93926V12.3776C4.38545 12.5447 4.45033 12.7051 4.56627 12.8233C4.68247 12.9416 4.84084 13.0082 5.00517 13.0082H6.60977C6.86255 13.0183 7.1015 13.1282 7.27689 13.3137C7.45234 13.4993 7.55076 13.7466 7.55077 14.0041C7.55077 14.2616 7.45234 14.5089 7.27689 14.6945C7.1015 14.88 6.86255 14.9899 6.60977 15H5.00517C4.32179 15 3.6661 14.7235 3.18287 14.2319C2.69964 13.7402 2.42797 13.073 2.42797 12.3776V9.93926C2.42741 9.55675 2.27772 9.18973 2.0119 8.91926C1.74618 8.64903 1.38602 8.49655 1.01034 8.49589C0.880964 8.50007 0.752151 8.47845 0.631132 8.43158C0.507991 8.3839 0.395163 8.31195 0.300205 8.21901C0.205309 8.12612 0.129725 8.01448 0.0781235 7.89121C0.0265552 7.76792 3.7389e-05 7.63488 0 7.50089C0 7.36688 0.0265753 7.23389 0.0781235 7.11058C0.129684 6.9873 0.205352 6.87569 0.300205 6.78278C0.395171 6.68982 0.507974 6.617 0.631132 6.56931C0.752107 6.52248 0.881014 6.50083 1.01034 6.505L1.14991 6.49786C1.4746 6.46467 1.7801 6.31855 2.01278 6.08164C2.27862 5.81093 2.42769 5.44343 2.42797 5.06074V2.62236C2.42797 1.927 2.69964 1.25983 3.18287 0.768131C3.6661 0.276454 4.32179 0 5.00517 0H6.60977Z" />
<path d="M12.994 0C13.6773 2.3611e-05 14.333 0.276453 14.8162 0.768131C15.2994 1.25981 15.5703 1.92709 15.5703 2.62236V5.06074C15.5708 5.44343 15.7212 5.81024 15.9872 6.08074C16.2199 6.3173 16.5248 6.46391 16.8492 6.49696L16.9897 6.50411C17.119 6.49995 17.2479 6.52157 17.3689 6.56842C17.492 6.61611 17.6049 6.68806 17.6998 6.78099C17.7947 6.87389 17.8703 6.98552 17.9219 7.10879C17.9734 7.23208 18 7.36512 18 7.49911C18 7.6331 17.9734 7.76612 17.9219 7.88942C17.8703 8.01267 17.7946 8.12432 17.6998 8.21722C17.6048 8.31018 17.492 8.383 17.3689 8.43069C17.2479 8.47754 17.119 8.49826 16.9897 8.49411C16.6137 8.49473 16.253 8.64777 15.9872 8.91836C15.7214 9.18907 15.5723 9.55657 15.572 9.93926V12.3776C15.572 13.073 15.3003 13.7402 14.8171 14.2319C14.3339 14.7236 13.6782 15 12.9948 15H11.3893C11.1364 14.99 10.8968 14.8801 10.7213 14.6945C10.546 14.509 10.4484 14.2615 10.4484 14.0041C10.4484 13.7467 10.546 13.4993 10.7213 13.3137C10.8968 13.1281 11.1364 13.0182 11.3893 13.0082H12.994C13.1583 13.0082 13.3158 12.9415 13.432 12.8233C13.5481 12.7051 13.6137 12.5448 13.6137 12.3776V9.93926C13.6127 9.45212 13.7139 8.9705 13.9104 8.52626C14.0798 8.14304 14.3167 7.79521 14.6091 7.5C14.3167 7.20479 14.0798 6.85696 13.9104 6.47374C13.7385 6.08498 13.6394 5.66763 13.6181 5.24294L13.6137 5.06074V2.62236C13.6137 2.45525 13.5481 2.29489 13.432 2.17667C13.3158 2.05845 13.1583 1.99181 12.994 1.99178H11.3893C11.1364 1.98181 10.8968 1.87193 10.7213 1.68632C10.546 1.50073 10.4484 1.25332 10.4484 0.995891C10.4484 0.738462 10.546 0.49105 10.7213 0.305466C10.8968 0.119851 11.1364 0.00997096 11.3893 0H12.994Z" />
<path d="M7.93699 5.13934C8.39216 4.94731 8.89327 4.89704 9.37657 4.99464C9.85999 5.09232 10.3043 5.33412 10.6529 5.68864C11.0014 6.04309 11.2387 6.4947 11.3349 6.98642C11.4311 7.47814 11.382 7.98798 11.1936 8.45123C11.0051 8.91453 10.686 9.31139 10.2763 9.59003C9.86653 9.86867 9.38401 10.017 8.89115 10.017C8.23069 10.0169 7.59746 9.74982 7.1303 9.27474C6.66307 8.79956 6.40032 8.1552 6.39998 7.48303C6.39972 6.98172 6.54525 6.49149 6.81869 6.07449C7.09232 5.65739 7.48173 5.33143 7.93699 5.13934Z" />
</svg>
