<svg viewBox="0 0 24 24" xmlns="http://www.w3.org/2000/svg">
<path fill-rule="evenodd" clip-rule="evenodd" d="M7.83325 6.06283C7.80563 6.06283 7.77913 6.0738 7.7596 6.09334C7.74006 6.11287 7.72909 6.13937 7.72909 6.16699V11.2712H13.6666C14.3573 11.2712 15.0196 10.9968 15.508 10.5084C15.9964 10.02 16.2708 9.35766 16.2708 8.66699C16.2708 7.97632 15.9964 7.31394 15.508 6.82557C15.0196 6.33719 14.3573 6.06283 13.6666 6.06283H7.83325ZM16.3502 11.717C16.4149 11.66 16.4779 11.6009 16.5392 11.5396C17.3011 10.7777 17.7291 9.74443 17.7291 8.66699C17.7291 7.58955 17.3011 6.55624 16.5392 5.79437C15.7773 5.0325 14.744 4.60449 13.6666 4.60449H7.83325C7.41885 4.60449 7.02142 4.76911 6.7284 5.06214C6.43537 5.35516 6.27075 5.75259 6.27075 6.16699V17.8337C6.27075 18.2481 6.43537 18.6455 6.7284 18.9385C7.02142 19.2315 7.41885 19.3962 7.83325 19.3962H14.4999C15.5774 19.3962 16.6107 18.9681 17.3725 18.2063C18.1344 17.4444 18.5624 16.4111 18.5624 15.3337C18.5624 14.2562 18.1344 13.2229 17.3725 12.461C17.0698 12.1583 16.7243 11.9084 16.3502 11.717ZM7.72909 12.7295V17.8337C7.72909 17.8613 7.74006 17.8878 7.7596 17.9073C7.77913 17.9269 7.80562 17.9378 7.83325 17.9378H14.4999C15.1906 17.9378 15.853 17.6635 16.3413 17.1751C16.8297 16.6867 17.1041 16.0243 17.1041 15.3337C17.1041 14.643 16.8297 13.9806 16.3413 13.4922C15.853 13.0039 15.1906 12.7295 14.4999 12.7295H7.72909Z" fill="var(--logile-icon-secondary)" stroke="var(--logile-border-bold-subtle)" stroke-width="0.5" stroke-linecap="round" stroke-linejoin="round"/>
</svg>
