<svg viewBox="0 0 24 24" xmlns="http://www.w3.org/2000/svg">
<path fill-rule="evenodd" clip-rule="evenodd" d="M7.83337 6.06283C7.80575 6.06283 7.77925 6.0738 7.75972 6.09334C7.74018 6.11287 7.72921 6.13937 7.72921 6.16699V11.2712H13.6667C14.3574 11.2712 15.0198 10.9968 15.5081 10.5084C15.9965 10.02 16.2709 9.35766 16.2709 8.66699C16.2709 7.97632 15.9965 7.31394 15.5081 6.82557C15.0198 6.33719 14.3574 6.06283 13.6667 6.06283H7.83337ZM16.3503 11.717C16.415 11.66 16.478 11.6009 16.5393 11.5396C17.3012 10.7777 17.7292 9.74443 17.7292 8.66699C17.7292 7.58955 17.3012 6.55624 16.5393 5.79437C15.7775 5.0325 14.7442 4.60449 13.6667 4.60449H7.83337C7.41897 4.60449 7.02155 4.76911 6.72852 5.06214C6.43549 5.35516 6.27087 5.75259 6.27087 6.16699V17.8337C6.27087 18.2481 6.43549 18.6455 6.72852 18.9385C7.02155 19.2315 7.41897 19.3962 7.83337 19.3962H14.5C15.5775 19.3962 16.6108 18.9681 17.3727 18.2063C18.1345 17.4444 18.5625 16.4111 18.5625 15.3337C18.5625 14.2562 18.1345 13.2229 17.3727 12.461C17.07 12.1583 16.7244 11.9084 16.3503 11.717ZM7.72921 12.7295V17.8337C7.72921 17.8613 7.74018 17.8878 7.75972 17.9073C7.77925 17.9269 7.80575 17.9378 7.83337 17.9378H14.5C15.1907 17.9378 15.8531 17.6635 16.3415 17.1751C16.8298 16.6867 17.1042 16.0243 17.1042 15.3337C17.1042 14.643 16.8298 13.9806 16.3415 13.4922C15.8531 13.0039 15.1907 12.7295 14.5 12.7295H7.72921Z" />
<path d="M6.02087 6.16699C6.02087 5.68629 6.21221 5.22565 6.55212 4.88574C6.89203 4.54583 7.35267 4.35449 7.83337 4.35449H13.6664C14.8101 4.35449 15.9075 4.80854 16.7162 5.61719C17.5249 6.42594 17.9789 7.52325 17.9789 8.66699C17.9789 9.78685 17.5423 10.8605 16.765 11.6641C17.0473 11.8383 17.3108 12.0458 17.5492 12.2842C18.3579 13.0929 18.8129 14.1902 18.8129 15.334C18.8128 16.4776 18.3579 17.5741 17.5492 18.3828C16.7405 19.1915 15.644 19.6464 14.5004 19.6465H7.83337C7.35275 19.6465 6.89202 19.455 6.55212 19.1152C6.21229 18.7754 6.02096 18.3146 6.02087 17.834V6.16699ZM16.8539 15.334C16.8539 14.7096 16.6059 14.1104 16.1644 13.6689C15.723 13.2276 15.1245 12.9796 14.5004 12.9795H7.97888V17.6875H14.5004C15.1246 17.6874 15.723 17.4395 16.1644 16.998C16.6058 16.5566 16.8538 15.9582 16.8539 15.334ZM16.0209 8.66699C16.0209 8.04263 15.7729 7.44345 15.3314 7.00195C14.8899 6.56056 14.2907 6.3125 13.6664 6.3125H7.97888V11.0215H13.6664C14.2907 11.0215 14.8899 10.7734 15.3314 10.332C15.7729 9.89054 16.0209 9.29136 16.0209 8.66699ZM17.3539 15.334C17.3538 16.0908 17.0531 16.8164 16.5179 17.3516C15.9828 17.8867 15.2572 18.1874 14.5004 18.1875H7.83337C7.73952 18.1875 7.64977 18.1503 7.58337 18.084C7.51703 18.0176 7.47897 17.9278 7.47888 17.834V12.7295C7.47888 12.5915 7.59096 12.4797 7.72888 12.4795H14.5004C15.2571 12.4796 15.9828 12.7803 16.5179 13.3154C17.0532 13.8507 17.3539 14.577 17.3539 15.334ZM16.5209 8.66699C16.5209 9.42396 16.2202 10.1503 15.6849 10.6855C15.1497 11.2207 14.4233 11.5215 13.6664 11.5215H7.72888C7.59107 11.5213 7.47906 11.4093 7.47888 11.2715V6.16699C7.47888 6.07306 7.51695 5.98341 7.58337 5.91699L7.63708 5.87207C7.69479 5.83367 7.76303 5.8125 7.83337 5.8125H13.6664C14.4233 5.8125 15.1497 6.11328 15.6849 6.64844C16.2202 7.1837 16.5209 7.91002 16.5209 8.66699ZM6.52087 17.834C6.52096 18.182 6.65957 18.5157 6.90564 18.7617C7.15177 19.0078 7.48535 19.1465 7.83337 19.1465H14.5004C15.5114 19.1464 16.4808 18.7442 17.1957 18.0293C17.9106 17.3144 18.3128 16.345 18.3129 15.334C18.3129 14.3228 17.9107 13.3527 17.1957 12.6377C16.9117 12.3537 16.5877 12.119 16.2367 11.9395C16.163 11.9018 16.1122 11.8302 16.1019 11.748C16.0917 11.666 16.1229 11.584 16.1849 11.5293C16.2456 11.4759 16.3052 11.4208 16.3627 11.3633C17.0777 10.6483 17.4789 9.67813 17.4789 8.66699C17.4789 7.65585 17.0777 6.68569 16.3627 5.9707C15.6477 5.25582 14.6774 4.85449 13.6664 4.85449H7.83337C7.48528 4.85449 7.15178 4.99312 6.90564 5.23926C6.6595 5.4854 6.52087 5.8189 6.52087 6.16699V17.834Z" />
</svg>
