<svg width="24" height="24" viewBox="0 0 24 24" fill="none" xmlns="http://www.w3.org/2000/svg">
<path d="M13.8183 7.57263V6.54634L13.813 6.41139C13.7894 6.09814 13.6854 5.79535 13.5093 5.53336C13.3081 5.23402 13.022 5.00135 12.6881 4.86485C12.3541 4.7284 11.9868 4.69442 11.6334 4.76719C11.28 4.84 10.9559 5.01587 10.703 5.27324C10.532 5.44736 10.2981 5.54594 10.054 5.54579C9.8099 5.54557 9.57588 5.44679 9.40507 5.27235L7.71383 3.5447L7.65257 3.47545C7.365 3.11529 7.39162 2.5885 7.72803 2.25917C8.06451 1.93004 8.59134 1.91511 8.9452 2.21034L9.01356 2.27337L10.1402 3.42484C10.4868 3.21838 10.8665 3.06862 11.2659 2.98627C11.9727 2.84064 12.7072 2.90865 13.3753 3.18159C14.0433 3.4545 14.6151 3.91981 15.0177 4.51861C15.4203 5.11751 15.6359 5.82291 15.6365 6.54456V7.57263C15.6365 8.07471 15.2295 8.48173 14.7274 8.48173C14.2253 8.48173 13.8183 8.07471 13.8183 7.57263Z" fill="#5C5C5C"/>
<path d="M14.9936 2.26627C15.3486 1.91126 15.9241 1.9113 16.2791 2.26627C16.6342 2.6213 16.6342 3.19677 16.2791 3.5518L14.5701 5.26081C14.2151 5.61584 13.6396 5.61584 13.2846 5.26081C12.9296 4.90578 12.9296 4.33029 13.2846 3.97528L14.9936 2.26627Z" fill="#5C5C5C"/>
<path d="M16.5454 11.091C16.5454 10.3676 16.2579 9.67414 15.7464 9.16267C15.2349 8.65126 14.5414 8.36366 13.8181 8.36366H12.6365C12.1344 8.36366 11.7274 7.95664 11.7274 7.45455C11.7274 6.95247 12.1344 6.54545 12.6365 6.54545L13.8183 6.54634C15.0238 6.54634 16.1804 7.02469 17.0328 7.87714C17.885 8.72956 18.3636 9.88559 18.3636 11.091V12.0001H21.0909C21.593 12.0001 22 12.4071 22 12.9092C22 13.4113 21.593 13.8183 21.0909 13.8183H17.4545C16.9525 13.8182 16.5454 13.4112 16.5454 12.9092V11.091Z" fill="#5C5C5C"/>
<path d="M19.2456 5.63635C19.2456 5.13426 19.6526 4.72724 20.1547 4.72724C20.6568 4.72724 21.0638 5.13426 21.0638 5.63635C21.0638 8.00571 19.2628 9.94549 17.0679 10.1765C16.5686 10.229 16.1216 9.86703 16.0691 9.36776C16.0166 8.86849 16.3786 8.42154 16.8779 8.36898C18.1375 8.23632 19.2456 7.08517 19.2456 5.63635Z" fill="#5C5C5C"/>
<path d="M2.26634 2.26627C2.62136 1.91124 3.19684 1.91124 3.55186 2.26627L21.7338 20.4483L21.796 20.5176C22.0872 20.8747 22.0667 21.401 21.7338 21.7339C21.401 22.0667 20.8746 22.0873 20.5176 21.796L20.4483 21.7339L2.26634 3.5518C1.91131 3.19677 1.91131 2.6213 2.26634 2.26627Z" fill="#5C5C5C"/>
<path d="M7.56815 7.34695C7.97893 7.05828 8.54634 7.15723 8.83502 7.56801C9.12368 7.97877 9.02466 8.54619 8.61397 8.8349C8.25339 9.0883 7.95911 9.42504 7.75725 9.8168C7.5554 10.2086 7.45153 10.6438 7.45451 11.0846V13.8208C7.45148 14.814 7.774 15.7811 8.37249 16.5738C8.97114 17.3666 9.81323 17.942 10.7695 18.2109C11.7258 18.4798 12.7441 18.428 13.6682 18.0635C14.5922 17.699 15.3716 17.0414 15.8868 16.1921C16.1472 15.763 16.7058 15.6264 17.135 15.8867C17.5642 16.147 17.7014 16.7057 17.4413 17.1349C16.72 18.324 15.6286 19.2445 14.3349 19.7548C13.0413 20.265 11.6163 20.3372 10.2777 19.9608C8.93898 19.5843 7.75994 18.78 6.92183 17.6703C6.08372 16.5604 5.63207 15.2062 5.63631 13.8154V11.0908C5.63234 10.3583 5.8051 9.63527 6.14058 8.98405C6.47702 8.33102 6.96711 7.76934 7.56815 7.34695Z" fill="#5C5C5C"/>
<path d="M11.091 19.2729V12.0001C11.091 11.498 11.498 11.091 12.0001 11.091C12.5022 11.091 12.9092 11.498 12.9092 12.0001V19.2729C12.9092 19.775 12.5022 20.182 12.0001 20.182C11.498 20.182 11.091 19.775 11.091 19.2729Z" fill="#5C5C5C"/>
<path d="M6.54549 12.0001C7.04758 12.0001 7.45459 12.4071 7.45459 12.9092C7.45459 13.4113 7.04758 13.8183 6.54549 13.8183H2.9091C2.40702 13.8183 2 13.4113 2 12.9092C2 12.4071 2.40702 12.0001 2.9091 12.0001H6.54549Z" fill="#5C5C5C"/>
<path d="M2.9091 20.182C2.9091 17.7924 4.83087 15.7518 7.22909 15.6374C7.73052 15.6135 8.15679 16.0007 8.18081 16.5021C8.20469 17.0036 7.81757 17.4299 7.3161 17.4538C5.89631 17.5214 4.7273 18.7535 4.7273 20.182C4.7273 20.6841 4.32028 21.0911 3.8182 21.0911C3.31612 21.0911 2.9091 20.6841 2.9091 20.182Z" fill="#5C5C5C"/>
</svg>
