<svg width="24" height="24" viewBox="0 0 24 24" fill="none" xmlns="http://www.w3.org/2000/svg">
<path d="M7.72088 2.265C8.0759 1.91167 8.65137 1.91167 9.00639 2.265L10.7154 3.96585C11.0704 4.31918 11.0704 4.89191 10.7154 5.24525C10.3604 5.59858 9.78489 5.59858 9.42987 5.24525L7.72088 3.54439C7.36586 3.19106 7.36586 2.61833 7.72088 2.265Z" fill="#5C5C5C"/>
<path d="M14.9935 2.265C15.3485 1.91168 15.924 1.91172 16.279 2.265C16.634 2.61833 16.634 3.19106 16.279 3.54439L14.57 5.24525C14.215 5.59858 13.6395 5.59858 13.2845 5.24525C12.9295 4.89191 12.9295 4.31917 13.2845 3.96585L14.9935 2.265Z" fill="#5C5C5C"/>
<path d="M13.8181 7.54571V6.64094C13.8181 6.62769 13.8184 6.61443 13.819 6.60118C13.83 6.35662 13.7909 6.11203 13.7045 5.88285C13.618 5.65374 13.4856 5.44477 13.3156 5.26789C13.1456 5.09096 12.9417 4.94971 12.7155 4.8535C12.4893 4.75732 12.2459 4.70771 11.9999 4.70771C11.754 4.70772 11.5105 4.75731 11.2844 4.8535C11.0582 4.94971 10.8542 5.09097 10.6842 5.26789C10.5143 5.44477 10.3818 5.65375 10.2954 5.88285C10.2089 6.11203 10.1699 6.35662 10.1809 6.60118C10.1815 6.61443 10.1817 6.62768 10.1818 6.64094V7.54571C10.1818 8.0454 9.77474 8.45047 9.27266 8.45047C8.77062 8.45044 8.36357 8.04538 8.36357 7.54571V6.64094C8.34761 6.16586 8.42553 5.69195 8.59351 5.24669C8.7663 4.78879 9.03065 4.37028 9.37032 4.01677C9.70996 3.66335 10.1179 3.38198 10.5697 3.18976C11.0217 2.9975 11.5084 2.89819 11.9999 2.89818C12.4915 2.89818 12.9781 2.99749 13.4302 3.18976C13.8821 3.38202 14.2907 3.66321 14.6304 4.01677C14.9701 4.37032 15.2345 4.78875 15.4073 5.24669C15.5752 5.69195 15.6523 6.16586 15.6363 6.64094V7.54571C15.6363 8.0454 15.2293 8.45047 14.7272 8.45047C14.2252 8.45044 13.8181 8.04538 13.8181 7.54571Z" fill="#5C5C5C"/>
<path d="M16.5455 11.0476C16.5455 10.3277 16.2579 9.63752 15.7464 9.12849C15.299 8.68317 14.7123 8.4083 14.0881 8.34654L13.8182 8.33329H10.1818C9.4585 8.33329 8.76501 8.61946 8.25355 9.12849C7.74209 9.63752 7.45455 10.3277 7.45455 11.0476V13.7619C7.45455 16.2479 9.50208 18.2857 12 18.2857C14.4979 18.2857 16.5455 16.2479 16.5455 13.7619V11.0476ZM18.3636 13.7619C18.3636 17.2473 15.5021 20.0952 12 20.0952C8.49792 20.0952 5.63636 17.2473 5.63636 13.7619V11.0476C5.63636 9.84779 6.1156 8.69748 6.96804 7.8491C7.82048 7.00071 8.97629 6.52376 10.1818 6.52376H13.8182C15.0237 6.52376 16.1795 7.00071 17.032 7.8491C17.8844 8.69748 18.3636 9.84779 18.3636 11.0476V13.7619Z" fill="#5C5C5C"/>
<path d="M11.0909 19.1905V11.0476C11.0909 10.5479 11.4979 10.1428 12 10.1428C12.5021 10.1428 12.9091 10.5479 12.9091 11.0476V19.1905C12.9091 19.6902 12.5021 20.0952 12 20.0952C11.4979 20.0952 11.0909 19.6902 11.0909 19.1905Z" fill="#5C5C5C"/>
<path d="M2.90909 5.61899C2.90909 5.1193 3.3161 4.71423 3.81818 4.71423C4.32026 4.71423 4.72727 5.1193 4.72727 5.61899C4.72727 7.05686 5.83118 8.20456 7.12074 8.33771C7.62014 8.38921 7.98304 8.83468 7.93129 9.33171C7.88258 9.79742 7.48721 10.1437 7.02663 10.1428L6.93342 10.1384L6.72656 10.1119C4.60298 9.7884 2.90909 7.90716 2.90909 5.61899Z" fill="#5C5C5C"/>
<path d="M6.54545 11.9523C7.04753 11.9523 7.45455 12.3574 7.45455 12.8571C7.45455 13.3568 7.04753 13.7619 6.54545 13.7619H2.90909C2.40701 13.7619 2 13.3568 2 12.8571C2 12.3574 2.40701 11.9523 2.90909 11.9523H6.54545Z" fill="#5C5C5C"/>
<path d="M2.90909 20.0952C2.90909 17.717 4.83085 15.6862 7.22905 15.5723C7.73047 15.5485 8.15674 15.9339 8.18075 16.4329C8.20463 16.932 7.81752 17.3562 7.31605 17.3801C5.89627 17.4473 4.72727 18.6736 4.72727 20.0952C4.72727 20.5949 4.32026 21 3.81818 21C3.3161 21 2.90909 20.5949 2.90909 20.0952Z" fill="#5C5C5C"/>
<path d="M19.2455 5.61899C19.2455 5.1193 19.6525 4.71423 20.1545 4.71423C20.6566 4.71423 21.0636 5.1193 21.0636 5.61899C21.0636 7.97704 19.2626 9.90757 17.0677 10.1375C16.5685 10.1897 16.1215 9.82949 16.069 9.33259C16.0165 8.83571 16.3785 8.39089 16.8777 8.33859C18.1373 8.20656 19.2455 7.0609 19.2455 5.61899Z" fill="#5C5C5C"/>
<path d="M21.0909 11.9523C21.593 11.9523 22 12.3574 22 12.8571C22 13.3568 21.593 13.7619 21.0909 13.7619H17.4545C16.9525 13.7619 16.5455 13.3568 16.5455 12.8571C16.5455 12.3574 16.9525 11.9523 17.4545 11.9523H21.0909Z" fill="#5C5C5C"/>
<path d="M19.2726 20.0952C19.2726 18.7626 18.2456 17.6012 16.9474 17.4057L16.6838 17.3801L16.5914 17.3712C16.1357 17.3033 15.7967 16.9008 15.8191 16.4329C15.8416 15.965 16.2175 15.5968 16.6776 15.5723H16.7708L16.9936 15.5891C19.287 15.8137 21.0907 17.7911 21.0907 20.0952C21.0907 20.5949 20.6837 21 20.1816 21C19.6796 20.9999 19.2726 20.5949 19.2726 20.0952Z" fill="#5C5C5C"/>
</svg>
