<svg width="24" height="24" viewBox="0 0 24 24" fill="none" xmlns="http://www.w3.org/2000/svg">
<path d="M12 5.63636C10.7414 5.63636 9.51105 6.00958 8.46456 6.70883C7.41806 7.40807 6.60242 8.40194 6.12077 9.56474C5.63912 10.7275 5.5131 12.0071 5.75864 13.2415C6.00418 14.4759 6.61026 15.6098 7.50023 16.4998C8.3902 17.3897 9.52409 17.9958 10.7585 18.2414C11.9929 18.4869 13.2725 18.3609 14.4353 17.8792C15.5981 17.3976 16.5919 16.5819 17.2912 15.5354C17.9904 14.4889 18.3636 13.2586 18.3636 12C18.3636 10.3123 17.6932 8.69364 16.4998 7.50023C15.3064 6.30682 13.6877 5.63636 12 5.63636ZM12 16.5455C11.101 16.5455 10.2222 16.2789 9.47468 15.7794C8.72719 15.2799 8.14459 14.57 7.80055 13.7395C7.45652 12.9089 7.3665 11.995 7.54189 11.1132C7.71728 10.2315 8.15019 9.42157 8.78588 8.78588C9.42157 8.15018 10.2315 7.71727 11.1132 7.54188C11.995 7.3665 12.9089 7.45651 13.7395 7.80055C14.57 8.14458 15.2799 8.72718 15.7794 9.47468C16.2789 10.2222 16.5455 11.101 16.5455 12C16.5455 13.2055 16.0666 14.3617 15.2141 15.2141C14.3617 16.0666 13.2055 16.5455 12 16.5455ZM12 9.27273C11.4606 9.27273 10.9333 9.43268 10.4848 9.73235C10.0363 10.032 9.68675 10.458 9.48033 10.9563C9.27391 11.4547 9.2199 12.003 9.32513 12.5321C9.43037 13.0611 9.69011 13.5471 10.0715 13.9285C10.4529 14.3099 10.9389 14.5696 11.4679 14.6749C11.997 14.7801 12.5453 14.7261 13.0437 14.5197C13.542 14.3132 13.968 13.9637 14.2676 13.5152C14.5673 13.0667 14.7273 12.5394 14.7273 12C14.7273 11.2767 14.4399 10.583 13.9285 10.0715C13.417 9.56006 12.7233 9.27273 12 9.27273ZM12 12.9091C11.8202 12.9091 11.6444 12.8558 11.4949 12.7559C11.3454 12.656 11.2289 12.514 11.1601 12.3479C11.0913 12.1818 11.0733 11.999 11.1084 11.8226C11.1435 11.6463 11.23 11.4843 11.3572 11.3572C11.4843 11.23 11.6463 11.1435 11.8226 11.1084C11.999 11.0733 12.1818 11.0913 12.3479 11.1601C12.514 11.2289 12.656 11.3454 12.7559 11.4949C12.8558 11.6444 12.9091 11.8202 12.9091 12C12.9091 12.2411 12.8133 12.4723 12.6428 12.6428C12.4723 12.8133 12.2411 12.9091 12 12.9091ZM12 2C10.0222 2 8.08879 2.58649 6.4443 3.6853C4.79981 4.78412 3.51809 6.3459 2.76121 8.17316C2.00433 10.0004 1.8063 12.0111 2.19215 13.9509C2.578 15.8907 3.53041 17.6725 4.92894 19.0711C6.32746 20.4696 8.10929 21.422 10.0491 21.8078C11.9889 22.1937 13.9996 21.9957 15.8268 21.2388C17.6541 20.4819 19.2159 19.2002 20.3147 17.5557C21.4135 15.9112 22 13.9778 22 12C22 9.34783 20.9464 6.8043 19.0711 4.92893C17.1957 3.05357 14.6522 2 12 2ZM12 20.1818C10.3818 20.1818 8.79992 19.702 7.45443 18.8029C6.10894 17.9039 5.06025 16.6261 4.44099 15.131C3.82173 13.636 3.6597 11.9909 3.9754 10.4038C4.29109 8.81669 5.07034 7.35883 6.21458 6.21458C7.35883 5.07033 8.81669 4.29109 10.4038 3.97539C11.9909 3.6597 13.636 3.82172 15.131 4.44099C16.6261 5.06025 17.9039 6.10893 18.8029 7.45442C19.702 8.79992 20.1818 10.3818 20.1818 12C20.1818 14.17 19.3198 16.251 17.7854 17.7854C16.251 19.3198 14.17 20.1818 12 20.1818Z" fill="#5C5C5C"/>
</svg>
