<svg width="24" height="24" viewBox="0 0 24 24" xmlns="http://www.w3.org/2000/svg">
<path fill-rule="evenodd" clip-rule="evenodd" d="M6.59155 3.6092C6.03149 3.6092 5.57746 4.07235 5.57746 4.64368V19.3563C5.57746 19.9277 6.03149 20.3908 6.59155 20.3908H17.4085C17.9685 20.3908 18.4225 19.9277 18.4225 19.3563V4.64368C18.4225 4.07235 17.9685 3.6092 17.4085 3.6092H6.59155ZM4 4.64368C4 3.18361 5.16028 2 6.59155 2H17.4085C18.8397 2 20 3.18361 20 4.64368V19.3563C20 20.8164 18.8397 22 17.4085 22H6.59155C5.16028 22 4 20.8164 4 19.3563V4.64368Z" />
<path fill-rule="evenodd" clip-rule="evenodd" d="M7.60563 6.48276C7.60563 6.03839 7.95876 5.67816 8.39437 5.67816H15.6056C16.0412 5.67816 16.3944 6.03839 16.3944 6.48276C16.3944 6.92713 16.0412 7.28736 15.6056 7.28736H8.39437C7.95876 7.28736 7.60563 6.92713 7.60563 6.48276Z" />
<path fill-rule="evenodd" clip-rule="evenodd" d="M15.6056 13.0345C16.0412 13.0345 16.3944 13.3947 16.3944 13.8391V17.5172C16.3944 17.9616 16.0412 18.3218 15.6056 18.3218C15.17 18.3218 14.8169 17.9616 14.8169 17.5172V13.8391C14.8169 13.3947 15.17 13.0345 15.6056 13.0345Z" />
<path fill-rule="evenodd" clip-rule="evenodd" d="M14.8169 10.1609C14.8169 9.71655 15.17 9.35632 15.6056 9.35632H15.6146C16.0503 9.35632 16.4034 9.71655 16.4034 10.1609C16.4034 10.6053 16.0503 10.9655 15.6146 10.9655H15.6056C15.17 10.9655 14.8169 10.6053 14.8169 10.1609Z" />
<path fill-rule="evenodd" clip-rule="evenodd" d="M11.2113 10.1609C11.2113 9.71655 11.5644 9.35632 12 9.35632H12.009C12.4446 9.35632 12.7977 9.71655 12.7977 10.1609C12.7977 10.6053 12.4446 10.9655 12.009 10.9655H12C11.5644 10.9655 11.2113 10.6053 11.2113 10.1609Z" />
<path fill-rule="evenodd" clip-rule="evenodd" d="M7.60563 10.1609C7.60563 9.71655 7.95876 9.35632 8.39437 9.35632H8.40338C8.83899 9.35632 9.19211 9.71655 9.19211 10.1609C9.19211 10.6053 8.83899 10.9655 8.40338 10.9655H8.39437C7.95876 10.9655 7.60563 10.6053 7.60563 10.1609Z" />
<path fill-rule="evenodd" clip-rule="evenodd" d="M11.2113 13.8391C11.2113 13.3947 11.5644 13.0345 12 13.0345H12.009C12.4446 13.0345 12.7977 13.3947 12.7977 13.8391C12.7977 14.2834 12.4446 14.6437 12.009 14.6437H12C11.5644 14.6437 11.2113 14.2834 11.2113 13.8391Z" />
<path fill-rule="evenodd" clip-rule="evenodd" d="M7.60563 13.8391C7.60563 13.3947 7.95876 13.0345 8.39437 13.0345H8.40338C8.83899 13.0345 9.19211 13.3947 9.19211 13.8391C9.19211 14.2834 8.83899 14.6437 8.40338 14.6437H8.39437C7.95876 14.6437 7.60563 14.2834 7.60563 13.8391Z" />
<path fill-rule="evenodd" clip-rule="evenodd" d="M11.2113 17.5172C11.2113 17.0729 11.5644 16.7126 12 16.7126H12.009C12.4446 16.7126 12.7977 17.0729 12.7977 17.5172C12.7977 17.9616 12.4446 18.3218 12.009 18.3218H12C11.5644 18.3218 11.2113 17.9616 11.2113 17.5172Z" />
<path fill-rule="evenodd" clip-rule="evenodd" d="M7.60563 17.5172C7.60563 17.0729 7.95876 16.7126 8.39437 16.7126H8.40338C8.83899 16.7126 9.19211 17.0729 9.19211 17.5172C9.19211 17.9616 8.83899 18.3218 8.40338 18.3218H8.39437C7.95876 18.3218 7.60563 17.9616 7.60563 17.5172Z" />
<path d="M19.9004 4.64355C19.9003 3.23689 18.7823 2.09961 17.4082 2.09961H6.5918C5.21766 2.09961 4.09967 3.23689 4.09961 4.64355V19.3564C4.09968 20.7631 5.21766 21.9004 6.5918 21.9004H17.4082C18.7823 21.9004 19.9003 20.7631 19.9004 19.3564V4.64355ZM18.3223 4.64355C18.3222 4.12562 17.9111 3.70898 17.4082 3.70898H6.5918C6.08887 3.70898 5.6778 4.12562 5.67773 4.64355V19.3564C5.6778 19.8744 6.08887 20.291 6.5918 20.291H17.4082C17.9111 20.291 18.3222 19.8744 18.3223 19.3564V4.64355ZM9.0918 17.5176C9.0918 17.1266 8.78183 16.8125 8.40332 16.8125H8.39453C8.01602 16.8125 7.70605 17.1266 7.70605 17.5176C7.70623 17.9084 8.01613 18.2217 8.39453 18.2217H8.40332C8.78172 18.2217 9.09162 17.9084 9.0918 17.5176ZM12.6973 17.5176C12.6973 17.1266 12.3873 16.8125 12.0088 16.8125H12C11.6215 16.8125 11.3115 17.1266 11.3115 17.5176C11.3117 17.9084 11.6216 18.2217 12 18.2217H12.0088C12.3872 18.2217 12.6971 17.9084 12.6973 17.5176ZM16.2939 13.8389C16.2938 13.4479 15.9839 13.1348 15.6055 13.1348C15.2271 13.1349 14.9171 13.448 14.917 13.8389V17.5176C14.9172 17.9084 15.2271 18.2216 15.6055 18.2217C15.9839 18.2217 16.2938 17.9084 16.2939 17.5176V13.8389ZM9.0918 13.8389C9.09168 13.4479 8.78176 13.1348 8.40332 13.1348H8.39453C8.01609 13.1348 7.70617 13.4479 7.70605 13.8389C7.70605 14.2299 8.01602 14.5439 8.39453 14.5439H8.40332C8.78183 14.5439 9.0918 14.2299 9.0918 13.8389ZM12.6973 13.8389C12.6972 13.4479 12.3872 13.1348 12.0088 13.1348H12C11.6216 13.1348 11.3116 13.4479 11.3115 13.8389C11.3115 14.2299 11.6215 14.5439 12 14.5439H12.0088C12.3873 14.5439 12.6973 14.2299 12.6973 13.8389ZM9.0918 10.1611C9.0918 9.77011 8.78183 9.45605 8.40332 9.45605H8.39453C8.01602 9.45605 7.70605 9.77011 7.70605 10.1611C7.70617 10.5521 8.01609 10.8652 8.39453 10.8652H8.40332C8.78176 10.8652 9.09168 10.5521 9.0918 10.1611ZM12.6973 10.1611C12.6973 9.77011 12.3873 9.45605 12.0088 9.45605H12C11.6215 9.45605 11.3115 9.77011 11.3115 10.1611C11.3116 10.5521 11.6216 10.8652 12 10.8652H12.0088C12.3872 10.8652 12.6972 10.5521 12.6973 10.1611ZM16.3037 10.1611C16.3037 9.77011 15.9928 9.45605 15.6143 9.45605H15.6055C15.227 9.45615 14.917 9.77016 14.917 10.1611C14.9171 10.552 15.2271 10.8651 15.6055 10.8652H15.6143C15.9927 10.8652 16.3036 10.5521 16.3037 10.1611ZM16.2939 6.48242C16.2938 6.09155 15.9839 5.77832 15.6055 5.77832H8.39453C8.01613 5.77832 7.70623 6.09155 7.70605 6.48242C7.70605 6.87345 8.01602 7.1875 8.39453 7.1875H15.6055C15.984 7.1875 16.2939 6.87345 16.2939 6.48242ZM9.29199 17.5176C9.29181 18.0151 8.89591 18.4219 8.40332 18.4219H8.39453C7.90194 18.4219 7.50604 18.0151 7.50586 17.5176C7.50586 17.0199 7.90183 16.6123 8.39453 16.6123H8.40332C8.89602 16.6123 9.29199 17.0199 9.29199 17.5176ZM12.8975 17.5176C12.8973 18.0151 12.5014 18.4219 12.0088 18.4219H12C11.5074 18.4219 11.1115 18.0151 11.1113 17.5176C11.1113 17.0199 11.5073 16.6123 12 16.6123H12.0088C12.5015 16.6123 12.8975 17.0199 12.8975 17.5176ZM9.29199 13.8389C9.29199 14.3366 8.89602 14.7441 8.40332 14.7441H8.39453C7.90183 14.7441 7.50586 14.3366 7.50586 13.8389C7.50597 13.3413 7.9019 12.9346 8.39453 12.9346H8.40332C8.89595 12.9346 9.29188 13.3413 9.29199 13.8389ZM12.8975 13.8389C12.8975 14.3366 12.5015 14.7441 12.0088 14.7441H12C11.5073 14.7441 11.1113 14.3366 11.1113 13.8389C11.1114 13.3413 11.5074 12.9346 12 12.9346H12.0088C12.5014 12.9346 12.8973 13.3413 12.8975 13.8389ZM16.4941 17.5176C16.494 18.0151 16.0981 18.4219 15.6055 18.4219C15.113 18.4218 14.717 18.0151 14.7168 17.5176V13.8389C14.7169 13.3413 15.1129 12.9347 15.6055 12.9346C16.0981 12.9346 16.494 13.3413 16.4941 13.8389V17.5176ZM9.29199 10.1611C9.29188 10.6587 8.89595 11.0654 8.40332 11.0654H8.39453C7.9019 11.0654 7.50597 10.6587 7.50586 10.1611C7.50586 9.66342 7.90183 9.25586 8.39453 9.25586H8.40332C8.89602 9.25586 9.29199 9.66342 9.29199 10.1611ZM12.8975 10.1611C12.8973 10.6587 12.5014 11.0654 12.0088 11.0654H12C11.5074 11.0654 11.1114 10.6587 11.1113 10.1611C11.1113 9.66342 11.5073 9.25586 12 9.25586H12.0088C12.5015 9.25586 12.8975 9.66342 12.8975 10.1611ZM16.5029 10.1611C16.5028 10.6587 16.1069 11.0654 15.6143 11.0654H15.6055C15.1129 11.0653 14.7169 10.6587 14.7168 10.1611C14.7168 9.66348 15.1128 9.25595 15.6055 9.25586H15.6143C16.107 9.25586 16.5029 9.66342 16.5029 10.1611ZM16.4941 6.48242C16.4941 6.98013 16.0982 7.3877 15.6055 7.3877H8.39453C7.90183 7.3877 7.50586 6.98013 7.50586 6.48242C7.50604 5.98487 7.90194 5.57812 8.39453 5.57812H15.6055C16.0981 5.57812 16.494 5.98487 16.4941 6.48242ZM18.5225 19.3564C18.5224 19.9811 18.0253 20.4912 17.4082 20.4912H6.5918C5.97468 20.4912 5.4776 19.9811 5.47754 19.3564V4.64355C5.4776 4.01894 5.97468 3.50879 6.5918 3.50879H17.4082C18.0253 3.50879 18.5224 4.01894 18.5225 4.64355V19.3564ZM20.0996 19.3564C20.0995 20.8698 18.8965 22.0996 17.4082 22.0996H6.5918C5.10347 22.0996 3.90046 20.8698 3.90039 19.3564V4.64355C3.90046 3.13021 5.10347 1.90039 6.5918 1.90039H17.4082C18.8965 1.90039 20.0995 3.13021 20.0996 4.64355V19.3564Z" />
</svg>
