<svg width="25" height="24" viewBox="0 0 25 24" xmlns="http://www.w3.org/2000/svg">
<path fill-rule="evenodd" clip-rule="evenodd" d="M20.5 10H4.5V8H20.5V10Z"/>
<path fill-rule="evenodd" clip-rule="evenodd" d="M17.5 2C18.0523 2 18.5 2.44772 18.5 3V4C18.5 4.55228 18.0523 5 17.5 5C16.9477 5 16.5 4.55228 16.5 4V3C16.5 2.44772 16.9477 2 17.5 2Z"/>
<path d="M6.5 13C6.5 12.4477 6.94772 12 7.5 12C8.05228 12 8.5 12.4477 8.5 13C8.5 13.5523 8.05228 14 7.5 14C6.94772 14 6.5 13.5523 6.5 13Z"/>
<path d="M6.5 17C6.5 16.4477 6.94772 16 7.5 16C8.05228 16 8.5 16.4477 8.5 17C8.5 17.5523 8.05228 18 7.5 18C6.94772 18 6.5 17.5523 6.5 17Z"/>
<path d="M11.5 13C11.5 12.4477 11.9477 12 12.5 12C13.0523 12 13.5 12.4477 13.5 13C13.5 13.5523 13.0523 14 12.5 14C11.9477 14 11.5 13.5523 11.5 13Z"/>
<path d="M11.5 17C11.5 16.4477 11.9477 16 12.5 16C13.0523 16 13.5 16.4477 13.5 17C13.5 17.5523 13.0523 18 12.5 18C11.9477 18 11.5 17.5523 11.5 17Z"/>
<path d="M16.5 13C16.5 12.4477 16.9477 12 17.5 12C18.0523 12 18.5 12.4477 18.5 13C18.5 13.5523 18.0523 14 17.5 14C16.9477 14 16.5 13.5523 16.5 13Z"/>
<path d="M16.5 17C16.5 16.4477 16.9477 16 17.5 16C18.0523 16 18.5 16.4477 18.5 17C18.5 17.5523 18.0523 18 17.5 18C16.9477 18 16.5 17.5523 16.5 17Z"/>
<path fill-rule="evenodd" clip-rule="evenodd" d="M8.5 3C8.5 2.44772 8.05228 2 7.5 2C6.94772 2 6.5 2.44772 6.5 3V4H5.5C3.84315 4 2.5 5.34315 2.5 7V19C2.5 20.6569 3.84315 22 5.5 22H19.5C21.1569 22 22.5 20.6569 22.5 19V7C22.5 5.34315 21.1569 4 19.5 4H8.5V3ZM8.5 4C8.5 4.55228 8.05228 5 7.5 5C6.94772 5 6.5 4.55228 6.5 4H8.5ZM4.5 7C4.5 6.44772 4.94772 6 5.5 6H19.5C20.0523 6 20.5 6.44772 20.5 7V19C20.5 19.5523 20.0523 20 19.5 20H5.5C4.94772 20 4.5 19.5523 4.5 19V7Z"/>
<path d="M8.5 4H6.5C6.5 4.55228 6.94772 5 7.5 5C8.05228 5 8.5 4.55228 8.5 4Z"/>
</svg>
