<svg width="24" height="24" viewBox="0 0 24 24" fill="none" xmlns="http://www.w3.org/2000/svg">
<path d="M18.4951 10.5591L18.6071 7.67197L16.0049 9.22055L15.3333 8.11817L18.0754 6.77957L15.3333 5.44097L16.0049 4.3386L18.6071 5.88717L18.4951 3H19.8382L19.7263 5.88717L22.3285 4.3386L23 5.44097L20.2579 6.77957L23 8.11817L22.3285 9.22055L19.7263 7.67197L19.8382 10.5591H18.4951Z" fill="#F44336"/>
<path d="M12.0363 4.88975C12.6326 4.88748 13.2154 5.06798 13.703 5.40649C13.9639 5.5876 14.19 5.80994 14.375 6.06164V9.61422C14.1824 9.60513 13.9973 9.53872 13.8434 9.42413C13.6896 9.30952 13.5736 9.15217 13.5121 8.97199L12.9946 7.42177C12.9303 7.23427 12.8078 7.07099 12.6446 6.95578C12.4814 6.84071 12.2856 6.7791 12.0849 6.77954H7.17814C6.97727 6.77903 6.7809 6.84053 6.61755 6.95578C6.45427 7.07102 6.33186 7.23423 6.26754 7.42177L5.75 8.97199C5.6833 9.16746 5.55331 9.33584 5.38033 9.45181C5.20729 9.56782 5.00064 9.62497 4.79167 9.61422H2.875C2.62084 9.61422 2.37715 9.71385 2.19743 9.89104C2.01772 10.0682 1.91668 10.3085 1.91667 10.5591V18.1183C1.91667 18.3688 2.01772 18.6091 2.19743 18.7863C2.37715 18.9635 2.62083 19.0632 2.875 19.0632H16.2917C16.5458 19.0632 16.7895 18.9635 16.9692 18.7863C17.1489 18.6091 17.25 18.3688 17.25 18.1183V11.504H19.1667V18.1653C19.1667 18.9171 18.8635 19.6379 18.3244 20.1695C17.7852 20.7011 17.0542 21 16.2917 21H2.875C2.1125 21 1.38145 20.7011 0.842285 20.1695C0.30319 19.6379 0 18.9171 0 18.1653V10.6062C6.09647e-05 9.85445 0.303172 9.13352 0.842285 8.60196C1.38144 8.07043 2.11256 7.77149 2.875 7.77149H4.10193L4.40796 6.8266C4.59867 6.26342 4.96414 5.7734 5.45239 5.42587C5.94073 5.07831 6.52815 4.89086 7.13041 4.88975H12.0363Z" fill="#5C5C5C"/>
<path fill-rule="evenodd" clip-rule="evenodd" d="M9.58333 9.61422C10.6 9.61422 11.5747 10.0127 12.2936 10.7215C13.0125 11.4303 13.4167 12.3914 13.4167 13.3938C13.4167 14.1413 13.1921 14.8724 12.7709 15.494C12.3497 16.1155 11.7503 16.5994 11.0498 16.8855C10.3495 17.1714 9.57906 17.2463 8.83557 17.1005C8.09198 16.9546 7.40915 16.5947 6.87305 16.0661C6.33696 15.5375 5.97184 14.8642 5.82393 14.1311C5.67606 13.398 5.75196 12.6384 6.04199 11.9478C6.33211 11.2573 6.82295 10.6662 7.45329 10.2509C8.08368 9.83561 8.82517 9.61422 9.58333 9.61422ZM10.3171 11.648C9.96683 11.5049 9.58078 11.4671 9.20898 11.54C8.83733 11.613 8.49616 11.7935 8.22819 12.0577C7.96014 12.3219 7.77712 12.659 7.70317 13.0256C7.62935 13.392 7.66766 13.7721 7.81266 14.1172C7.95773 14.4624 8.20322 14.7576 8.51831 14.9652C8.8335 15.1729 9.20425 15.2836 9.58333 15.2836C10.0917 15.2836 10.579 15.0843 10.9385 14.7299C11.2979 14.3755 11.5 13.895 11.5 13.3938C11.5 13.02 11.3877 12.6545 11.1771 12.3437C10.9666 12.033 10.6671 11.791 10.3171 11.648Z" fill="#5C5C5C"/>
</svg>
