<svg viewBox="0 0 23 18" xmlns="http://www.w3.org/2000/svg">
<path d="M18.4951 7.55915L18.6071 4.67197L16.0049 6.22055L15.3333 5.11817L18.0754 3.77957L15.3333 2.44097L16.0049 1.3386L18.6071 2.88717L18.4951 0H19.8382L19.7263 2.88717L22.3285 1.3386L23 2.44097L20.2579 3.77957L23 5.11817L22.3285 6.22055L19.7263 4.67197L19.8382 7.55915H18.4951Z" fill="#F44336"/>
<path d="M12.0363 1.88975C12.6326 1.88748 13.2154 2.06798 13.703 2.40649C13.9639 2.5876 14.19 2.80994 14.375 3.06164V6.61422C14.1824 6.60513 13.9973 6.53872 13.8434 6.42413C13.6896 6.30952 13.5736 6.15217 13.5121 5.97199L12.9946 4.42177C12.9303 4.23427 12.8078 4.07099 12.6446 3.95578C12.4814 3.84071 12.2856 3.7791 12.0849 3.77954H7.17814C6.97727 3.77903 6.7809 3.84053 6.61755 3.95578C6.45427 4.07102 6.33186 4.23423 6.26754 4.42177L5.75 5.97199C5.6833 6.16746 5.55331 6.33584 5.38033 6.45181C5.20729 6.56782 5.00064 6.62497 4.79167 6.61422H2.875C2.62084 6.61422 2.37715 6.71385 2.19743 6.89104C2.01772 7.06823 1.91668 7.30853 1.91667 7.55911V15.1183C1.91667 15.3688 2.01772 15.6091 2.19743 15.7863C2.37715 15.9635 2.62083 16.0632 2.875 16.0632H16.2917C16.5458 16.0632 16.7895 15.9635 16.9692 15.7863C17.1489 15.6091 17.25 15.3688 17.25 15.1183V8.50401H19.1667V15.1653C19.1667 15.9171 18.8635 16.6379 18.3244 17.1695C17.7852 17.7011 17.0542 18 16.2917 18H2.875C2.1125 18 1.38145 17.7011 0.842285 17.1695C0.30319 16.6379 0 15.9171 0 15.1653V7.60617C6.09647e-05 6.85445 0.303172 6.13352 0.842285 5.60196C1.38144 5.07043 2.11256 4.77149 2.875 4.77149H4.10193L4.40796 3.8266C4.59867 3.26342 4.96414 2.7734 5.45239 2.42587C5.94073 2.07831 6.52815 1.89086 7.13041 1.88975H12.0363Z" />
<path fill-rule="evenodd" clip-rule="evenodd" d="M9.58333 6.61422C10.6 6.61422 11.5747 7.01272 12.2936 7.72152C13.0125 8.43031 13.4167 9.3914 13.4167 10.3938C13.4167 11.1413 13.1921 11.8724 12.7709 12.494C12.3497 13.1155 11.7503 13.5994 11.0498 13.8855C10.3495 14.1714 9.57906 14.2463 8.83557 14.1005C8.09198 13.9546 7.40915 13.5947 6.87305 13.0661C6.33696 12.5375 5.97184 11.8642 5.82393 11.1311C5.67606 10.398 5.75196 9.63838 6.04199 8.94785C6.33211 8.25726 6.82295 7.66621 7.45329 7.25091C8.08368 6.83561 8.82517 6.61422 9.58333 6.61422ZM10.3171 8.64795C9.96683 8.50492 9.58078 8.46707 9.20898 8.53999C8.83733 8.61295 8.49616 8.79345 8.22819 9.05765C7.96014 9.32195 7.77712 9.65903 7.70317 10.0256C7.62935 10.392 7.66766 10.7721 7.81266 11.1172C7.95773 11.4624 8.20322 11.7576 8.51831 11.9652C8.8335 12.1729 9.20425 12.2836 9.58333 12.2836C10.0917 12.2836 10.579 12.0843 10.9385 11.7299C11.2979 11.3755 11.5 10.895 11.5 10.3938C11.5 10.02 11.3877 9.65447 11.1771 9.34371C10.9666 9.03304 10.6671 8.79099 10.3171 8.64795Z" />
</svg>
