<svg width="24" height="24" viewBox="0 0 24 24" fill="none" xmlns="http://www.w3.org/2000/svg">
<path d="M8 13V11C8 10.4477 8.44772 10 9 10C9.55228 10 10 10.4477 10 11V13C10 13.5523 9.55228 14 9 14C8.44772 14 8 13.5523 8 13Z" fill="#5C5C5C"/>
<path d="M14 13V11C14 10.4477 14.4477 10 15 10C15.5523 10 16 10.4477 16 11V13C16 13.5523 15.5523 14 15 14C14.4477 14 14 13.5523 14 13Z" fill="#5C5C5C"/>
<path d="M4 11V8.75C4 8.02065 4.28994 7.32139 4.80566 6.80566C5.32139 6.28994 6.02065 6 6.75 6H11V4H8C7.44772 4 7 3.55228 7 3C7 2.44772 7.44772 2 8 2H12C12.5523 2 13 2.44772 13 3V6H17.25C17.9793 6 18.6786 6.28994 19.1943 6.80566C19.7101 7.32139 20 8.02065 20 8.75V11H21C21.5523 11 22 11.4477 22 12C22 12.5523 21.5523 13 21 13H20V15.75C20 16.4793 19.7101 17.1786 19.1943 17.6943C18.6786 18.2101 17.9793 18.5 17.25 18.5H8.91406L5.70703 21.707C5.42103 21.993 4.99086 22.0786 4.61719 21.9238C4.24359 21.769 4 21.4044 4 21V13H3C2.44772 13 2 12.5523 2 12C2 11.4477 2.44772 11 3 11H4ZM6 8.75V12V18.5859L7.79297 16.793L7.86621 16.7266C8.04417 16.5807 8.26791 16.5 8.5 16.5H17.25C17.4489 16.5 17.6396 16.4209 17.7803 16.2803C17.9209 16.1396 18 15.9489 18 15.75V12V8.75C18 8.55109 17.9209 8.36038 17.7803 8.21973C17.6749 8.11435 17.5414 8.04352 17.3975 8.01465L17.25 8H12H6.75C6.55109 8 6.36038 8.07907 6.21973 8.21973C6.07907 8.36038 6 8.55109 6 8.75Z" fill="#5C5C5C"/>
</svg>
