<svg width="24" height="24" viewBox="0 0 24 24" fill="none" xmlns="http://www.w3.org/2000/svg">
<path fill-rule="evenodd" clip-rule="evenodd" d="M4 11V6.75C4 6.02065 4.28994 5.32139 4.80566 4.80566C5.32139 4.28994 6.02065 4 6.75 4H13H17.25C17.9793 4 18.6786 4.28994 19.1943 4.80566C19.7101 5.32139 20 6.02065 20 6.75V11V13.75C20 14.4793 19.7101 15.1786 19.1943 15.6943C18.6786 16.2101 17.9793 16.5 17.25 16.5H8.91406L5.70703 19.707C5.42103 19.993 4.99086 20.0786 4.61719 19.9238C4.24359 19.769 4 19.4044 4 19V11ZM6 10V6.75C6 6.55109 6.07907 6.36038 6.21973 6.21973C6.36038 6.07907 6.55109 6 6.75 6H12H17.25L17.3975 6.01465C17.5414 6.04352 17.6749 6.11435 17.7803 6.21973C17.9209 6.36038 18 6.55109 18 6.75V10V13.75C18 13.9489 17.9209 14.1396 17.7803 14.2803C17.6396 14.4209 17.4489 14.5 17.25 14.5H8.5C8.26791 14.5 8.04417 14.5807 7.86621 14.7266L7.79297 14.793L6 16.5859V10Z" fill="#5C5C5C"/>
</svg>
