<svg viewBox="0 0 22 22" xmlns="http://www.w3.org/2000/svg">
<path d="M11.6899 7.75711L16.8691 12.9454C16.955 13.0307 17.0232 13.132 17.0698 13.2437C17.1163 13.3555 17.1403 13.4753 17.1403 13.5963C17.1403 13.7173 17.1163 13.8371 17.0698 13.9488C17.0232 14.0605 16.955 14.1619 16.8691 14.2471C16.6974 14.4178 16.465 14.5137 16.2229 14.5137C15.9807 14.5137 15.7484 14.4178 15.5766 14.2471L10.9933 9.70961L6.45578 14.2471C6.28403 14.4178 6.0517 14.5137 5.80953 14.5137C5.56736 14.5137 5.33503 14.4178 5.16328 14.2471C5.07666 14.1622 5.00776 14.061 4.96055 13.9493C4.91335 13.8375 4.88878 13.7176 4.88828 13.5963C4.88878 13.475 4.91335 13.355 4.96055 13.2433C5.00776 13.1316 5.07666 13.0303 5.16328 12.9454L10.3424 7.75711C10.4283 7.66407 10.5325 7.58981 10.6484 7.53902C10.7644 7.48823 10.8896 7.46201 11.0162 7.46201C11.1428 7.46201 11.268 7.48823 11.384 7.53902C11.4999 7.58981 11.6041 7.66407 11.6899 7.75711Z" />
</svg>
