<svg width="24" height="24" viewBox="0 0 24 24" fill="none" xmlns="http://www.w3.org/2000/svg">
<path fill-rule="evenodd" clip-rule="evenodd" d="M10.43 13.09L14.72 8.79C14.9074 8.60375 15.1608 8.49921 15.425 8.49921C15.6892 8.49921 15.9426 8.60375 16.13 8.79C16.2237 8.88296 16.2981 8.99356 16.3489 9.11542C16.3997 9.23728 16.4258 9.36799 16.4258 9.5C16.4258 9.63201 16.3997 9.76272 16.3489 9.88458C16.2981 10.0064 16.2237 10.117 16.13 10.21L11.13 15.21C10.9437 15.3947 10.6923 15.4989 10.43 15.5C10.2984 15.5008 10.1679 15.4755 10.0461 15.4258C9.92426 15.376 9.81344 15.3027 9.72 15.21L7.37 12.85C7.26532 12.7604 7.1803 12.65 7.12028 12.526C7.06026 12.4019 7.02653 12.2668 7.02121 12.1291C7.01589 11.9913 7.03909 11.854 7.08937 11.7257C7.13964 11.5974 7.2159 11.4808 7.31335 11.3833C7.41081 11.2859 7.52736 11.2096 7.65568 11.1594C7.78401 11.1091 7.92134 11.0859 8.05906 11.0912C8.19678 11.0965 8.33191 11.1303 8.45597 11.1903C8.58004 11.2503 8.69036 11.3353 8.78 11.44L10.43 13.09ZM6.4443 3.6853C8.08879 2.58649 10.0222 2 12 2C13.3132 2 14.6136 2.25866 15.8268 2.7612C17.0401 3.26375 18.1425 4.00035 19.0711 4.92893C19.9997 5.85752 20.7363 6.95991 21.2388 8.17317C21.7413 9.38642 22 10.6868 22 12C22 13.9778 21.4135 15.9112 20.3147 17.5557C19.2159 19.2002 17.6541 20.4819 15.8268 21.2388C13.9996 21.9957 11.9889 22.1937 10.0491 21.8079C8.10929 21.422 6.32746 20.4696 4.92894 19.0711C3.53041 17.6725 2.578 15.8907 2.19215 13.9509C1.8063 12.0111 2.00433 10.0004 2.76121 8.17317C3.51809 6.3459 4.79981 4.78412 6.4443 3.6853Z" fill="#5C5C5C"/>
</svg>
