<svg width="24" height="24" viewBox="0 0 24 24" fill="none" xmlns="http://www.w3.org/2000/svg">
<path d="M17 4H16C16 3.46957 15.7893 2.96086 15.4142 2.58579C15.0391 2.21071 14.5304 2 14 2H10C9.46957 2 8.96086 2.21071 8.58579 2.58579C8.21071 2.96086 8 3.46957 8 4H7C6.20435 4 5.44129 4.31607 4.87868 4.87868C4.31607 5.44129 4 6.20435 4 7V19C4 19.7956 4.31607 20.5587 4.87868 21.1213C5.44129 21.6839 6.20435 22 7 22H17C17.7956 22 18.5587 21.6839 19.1213 21.1213C19.6839 20.5587 20 19.7956 20 19V7C20 6.20435 19.6839 5.44129 19.1213 4.87868C18.5587 4.31607 17.7956 4 17 4ZM10 4H14V5V6H10V4ZM18 19C18 19.2652 17.8946 19.5196 17.7071 19.7071C17.5196 19.8946 17.2652 20 17 20H7C6.73478 20 6.48043 19.8946 6.29289 19.7071C6.10536 19.5196 6 19.2652 6 19V7C6 6.73478 6.10536 6.48043 6.29289 6.29289C6.48043 6.10536 6.73478 6 7 6H8C8 6.53043 8.21071 7.03914 8.58579 7.41421C8.96086 7.78929 9.46957 8 10 8H14C14.5304 8 15.0391 7.78929 15.4142 7.41421C15.7893 7.03914 16 6.53043 16 6H17C17.2652 6 17.5196 6.10536 17.7071 6.29289C17.8946 6.48043 18 6.73478 18 7V19Z" fill="#5C5C5C"/>
<path d="M8 11C8 10.4477 8.44772 10 9 10C9.55228 10 10 10.4477 10 11C10 11.5523 9.55228 12 9 12C8.44772 12 8 11.5523 8 11Z" fill="#5C5C5C"/>
<path d="M11 11C11 10.4477 11.4477 10 12 10H15C15.5523 10 16 10.4477 16 11C16 11.5523 15.5523 12 15 12H12C11.4477 12 11 11.5523 11 11Z" fill="#5C5C5C"/>
<path d="M8 14C8 13.4477 8.44772 13 9 13C9.55228 13 10 13.4477 10 14C10 14.5523 9.55228 15 9 15C8.44772 15 8 14.5523 8 14Z" fill="#5C5C5C"/>
<path d="M11 14C11 13.4477 11.4477 13 12 13H15C15.5523 13 16 13.4477 16 14C16 14.5523 15.5523 15 15 15H12C11.4477 15 11 14.5523 11 14Z" fill="#5C5C5C"/>
<path d="M8 17C8 16.4477 8.44772 16 9 16C9.55228 16 10 16.4477 10 17C10 17.5523 9.55228 18 9 18C8.44772 18 8 17.5523 8 17Z" fill="#5C5C5C"/>
<path d="M11 17C11 16.4477 11.4477 16 12 16H15C15.5523 16 16 16.4477 16 17C16 17.5523 15.5523 18 15 18H12C11.4477 18 11 17.5523 11 17Z" fill="#5C5C5C"/>
</svg>
