<svg width="24" height="24" viewBox="0 0 24 24" fill="none" xmlns="http://www.w3.org/2000/svg">
<path d="M17 4H16C16 3.46957 15.7893 2.96086 15.4142 2.58579C15.0391 2.21071 14.5304 2 14 2H10C9.46957 2 8.96086 2.21071 8.58579 2.58579C8.21071 2.96086 8 3.46957 8 4H7C6.20435 4 5.44129 4.31607 4.87868 4.87868C4.31607 5.44129 4 6.20435 4 7V19C4 19.7956 4.31607 20.5587 4.87868 21.1213C5.44129 21.6839 6.20435 22 7 22H17C17.7956 22 18.5587 21.6839 19.1213 21.1213C19.6839 20.5587 20 19.7956 20 19V7C20 6.20435 19.6839 5.44129 19.1213 4.87868C18.5587 4.31607 17.7956 4 17 4ZM10 4H14V5V6H10V4ZM18 19C18 19.2652 17.8946 19.5196 17.7071 19.7071C17.5196 19.8946 17.2652 20 17 20H7C6.73478 20 6.48043 19.8946 6.29289 19.7071C6.10536 19.5196 6 19.2652 6 19V7C6 6.73478 6.10536 6.48043 6.29289 6.29289C6.48043 6.10536 6.73478 6 7 6H8C8 6.53043 8.21071 7.03914 8.58579 7.41421C8.96086 7.78929 9.46957 8 10 8H14C14.5304 8 15.0391 7.78929 15.4142 7.41421C15.7893 7.03914 16 6.53043 16 6H17C17.2652 6 17.5196 6.10536 17.7071 6.29289C17.8946 6.48043 18 6.73478 18 7V19Z" fill="#5C5C5C"/>
<path d="M13.5937 11.2663C13.9408 10.9112 14.5035 10.9112 14.8507 11.2663C15.1978 11.6213 15.1978 12.1968 14.8507 12.5518L10.4062 17.0972C10.0591 17.4523 9.4964 17.4523 9.14927 17.0972C8.80213 16.7422 8.80213 16.1667 9.14927 15.8117L13.5937 11.2663Z" fill="#5C5C5C"/>
<path d="M9.14927 11.2663C9.4964 10.9112 10.0591 10.9112 10.4062 11.2663L14.8507 15.8117L14.9114 15.881C15.1962 16.238 15.1761 16.7644 14.8507 17.0972C14.5252 17.4301 14.0106 17.4506 13.6614 17.1594L13.5937 17.0972L9.14927 12.5518C8.80213 12.1968 8.80213 11.6213 9.14927 11.2663Z" fill="#5C5C5C"/>
</svg>
