<svg width="24" height="24" viewBox="0 0 24 24" fill="none" xmlns="http://www.w3.org/2000/svg">
<path d="M20.1818 12C20.1818 7.48131 16.5187 3.81818 12 3.81818C7.48131 3.81818 3.81818 7.48131 3.81818 12C3.81818 16.5187 7.48131 20.1818 12 20.1818C16.5187 20.1818 20.1818 16.5187 20.1818 12ZM22 12C22 17.5228 17.5228 22 12 22C6.47715 22 2 17.5228 2 12C2 6.47715 6.47715 2 12 2C17.5228 2 22 6.47715 22 12Z" fill="#5C5C5C"/>
<path d="M12 10.5859L9.70703 8.29297C9.31651 7.90244 8.68349 7.90244 8.29297 8.29297C7.90244 8.68349 7.90244 9.31651 8.29297 9.70703L10.5859 12L8.29297 14.293C7.90244 14.6835 7.90244 15.3165 8.29297 15.707C8.68349 16.0976 9.31651 16.0976 9.70703 15.707L12 13.4141L14.293 15.707L14.3691 15.7754C14.7619 16.0957 15.3409 16.0731 15.707 15.707C16.0731 15.3409 16.0957 14.7619 15.7754 14.3691L15.707 14.293L13.4141 12L15.707 9.70703C16.0976 9.31651 16.0976 8.68349 15.707 8.29297C15.3165 7.90244 14.6835 7.90244 14.293 8.29297L12 10.5859Z" fill="#5C5C5C"/>
</svg>
