<svg  viewBox="0 0 11 11"  xmlns="http://www.w3.org/2000/svg">
<path d="M8.81167 3.54431C8.7126 2.63787 8.29573 1.80103 7.64057 1.19343C6.98542 0.585833 6.13783 0.25 5.25951 0.25C4.38119 0.25 3.5336 0.585833 2.87844 1.19343C2.22329 1.80103 1.80641 2.63787 1.70735 3.54431C1.10001 4.00817 0.649373 4.65954 0.419812 5.40534C0.190251 6.15115 0.193516 6.95323 0.42914 7.697C0.664764 8.44076 1.12069 9.08814 1.73178 9.54665C2.34287 10.0052 3.07785 10.2513 3.83171 10.25C4.31971 10.2496 4.8022 10.1428 5.24795 9.93646C5.69407 10.1416 6.17631 10.2483 6.66419 10.25C7.41714 10.2502 8.15104 10.0041 8.76179 9.54671C9.37253 9.08931 9.8291 8.44379 10.0668 7.70171C10.3044 6.95963 10.3111 6.15867 10.0858 5.41244C9.8605 4.66621 9.41472 4.0126 8.81167 3.54431ZM8.25417 3.88187V3.96626C8.25682 4.78301 7.94808 5.56765 7.39543 6.14869C7.34735 5.62505 7.1888 5.11884 6.93106 4.66604C6.67717 4.21025 6.3329 3.81572 5.92107 3.50861C6.16647 3.43635 6.42036 3.39987 6.67544 3.4002C7.20269 3.39959 7.72053 3.54525 8.17542 3.82215C8.20792 3.84617 8.23167 3.87019 8.25667 3.88187H8.25417ZM6.82668 6.61867C6.35485 6.9183 5.81254 7.07685 5.25951 7.07685C4.70647 7.07685 4.16417 6.9183 3.69233 6.61867C3.68064 6.04143 3.81674 5.47131 4.0867 4.96659C4.36733 4.46978 4.77258 4.06144 5.2592 3.78515C5.74827 4.05795 6.15434 4.46712 6.43169 4.96659C6.71129 5.46758 6.84826 6.04069 6.82668 6.61932V6.61867ZM5.25669 0.8562C5.91442 0.854485 6.55436 1.07798 7.07747 1.4921C7.60057 1.90622 7.97768 2.48787 8.15042 3.14704C7.69053 2.93259 7.19205 2.82196 6.68793 2.82246C6.19618 2.82166 5.70978 2.92849 5.26045 3.136C4.81111 2.92849 4.32471 2.82166 3.83296 2.82246C3.32884 2.82196 2.83036 2.93259 2.37047 3.14704C2.54288 2.48916 2.91886 1.90846 3.44044 1.49447C3.96203 1.08048 4.60025 0.856198 5.25669 0.8562ZM2.26484 3.88187C2.28797 3.86954 2.31109 3.84552 2.33422 3.83383C2.78911 3.55694 3.30695 3.41127 3.83421 3.41189C4.08928 3.41155 4.34317 3.44804 4.58858 3.5203C4.17413 3.82435 3.82928 4.21953 3.57858 4.67772C3.33098 5.13521 3.17315 5.63914 3.11421 6.16037C2.56346 5.57803 2.25505 4.79424 2.25547 3.97794C2.26357 3.94666 2.26673 3.91421 2.26484 3.88187ZM3.84358 9.64499C3.31719 9.64254 2.80051 9.49755 2.34456 9.22434C1.8886 8.95112 1.50913 8.55912 1.2436 8.08704C0.915932 7.49726 0.783895 6.812 0.867797 6.13666C0.951698 5.46133 1.24689 4.83333 1.70797 4.34926C1.75787 4.86276 1.91065 5.35974 2.1565 5.80827C2.40234 6.25679 2.7358 6.64693 3.13546 6.95363C3.19341 7.46724 3.3533 7.96277 3.60503 8.40892C3.85676 8.85508 4.19486 9.24215 4.59795 9.54567C4.3508 9.60765 4.0978 9.64096 3.84358 9.64499ZM5.25982 9.27108L5.19045 9.23473C4.50908 8.82443 4.00914 8.15374 3.79733 7.36584C4.25787 7.57823 4.75592 7.68877 5.25982 7.69041C5.76385 7.69005 6.26216 7.57946 6.72231 7.36584C6.51475 8.15594 6.01368 8.82814 5.32919 9.23473L5.25982 9.27108ZM9.27604 8.08964C9.01345 8.56441 8.63463 8.9586 8.17801 9.23221C7.72139 9.50583 7.20322 9.64913 6.67606 9.64759C6.42184 9.64587 6.16868 9.61341 5.92169 9.55086C6.3281 9.24971 6.66926 8.86348 6.9232 8.41704C7.17713 7.9706 7.33821 7.47386 7.39605 6.95882C7.79571 6.65213 8.12918 6.26198 8.37502 5.81346C8.62086 5.36493 8.77364 4.86795 8.82354 4.35445C9.28244 4.83963 9.57525 5.46789 9.657 6.14269C9.73875 6.81749 9.60491 7.50151 9.27604 8.08964Z" stroke-width="0.5"/>
</svg>
