<svg width="24" height="24" viewBox="0 0 24 24" fill="none" xmlns="http://www.w3.org/2000/svg">
<path fill-rule="evenodd" clip-rule="evenodd" d="M15 4.41423V5.80001C15 6.37657 15.0008 6.74884 15.0239 7.03218C15.0461 7.30384 15.0838 7.40456 15.109 7.454C15.2049 7.64217 15.3578 7.79515 15.546 7.89102C15.5955 7.91621 15.6962 7.95389 15.9678 7.97609C16.2512 7.99924 16.6234 8.00001 17.2 8.00001H18.5858L15 4.41423ZM14.6926 1.9999C14.7805 1.99929 14.9622 1.99803 15.1431 2.04146C15.2961 2.0782 15.4424 2.13881 15.5766 2.22105C15.7353 2.31825 15.8628 2.44759 15.9246 2.5102C15.9309 2.51661 15.9365 2.52232 15.9414 2.52722L20.4728 7.05859C20.4777 7.0635 20.4834 7.06913 20.4898 7.07545C20.5524 7.1372 20.6818 7.26476 20.779 7.42337C20.8612 7.55758 20.9218 7.7039 20.9586 7.85695C21.002 8.03784 21.0007 8.21949 21.0001 8.30743C21.0001 8.31643 21 8.32445 21 8.33138V13.8386C21 14.3657 21 14.8205 20.9694 15.195C20.9371 15.5904 20.8658 15.9836 20.673 16.362C20.3854 16.9265 19.9265 17.3854 19.362 17.673C18.9836 17.8658 18.5904 17.9371 18.195 17.9694C17.8362 17.9988 17.4038 18 16.9046 18H17V18.032C17 18.4706 17 18.8491 16.9787 19.1624C16.9561 19.4922 16.9066 19.8221 16.7716 20.1481C16.4672 20.8831 15.8831 21.4672 15.1481 21.7717C14.8221 21.9067 14.4922 21.9562 14.1624 21.9787C13.8491 22 13.4706 22 13.032 22H7.16144C6.6343 22 6.17954 22 5.80497 21.9694C5.40963 21.9371 5.01641 21.8658 4.63803 21.673C4.07354 21.3854 3.6146 20.9265 3.32698 20.362C3.13419 19.9836 3.06287 19.5904 3.03057 19.195C2.99997 18.8205 2.99998 18.3657 3 17.8386L3 9.96803C2.99999 9.52938 2.99998 9.15089 3.02135 8.83763C3.04386 8.5078 3.09336 8.17789 3.22836 7.85196C3.53285 7.11688 4.11687 6.53286 4.85195 6.22837C5.17788 6.09337 5.50779 6.04387 5.83762 6.02136C6.15088 5.99999 6.52937 6 6.96803 6.00001L7 6.00001V6.08485C7.00005 5.59015 7.00146 5.16129 7.03057 4.80499C7.06287 4.40964 7.13419 4.01642 7.32698 3.63804C7.6146 3.07356 8.07354 2.61461 8.63803 2.32699C9.01641 2.1342 9.40963 2.06288 9.80497 2.03058C10.1795 1.99998 10.6343 1.99999 11.1615 2.00001L14.6686 2.00001C14.6756 2.00001 14.6836 1.99996 14.6926 1.9999ZM9.96784 4.02394C9.69617 4.04614 9.59546 4.08381 9.54601 4.10901C9.35785 4.20488 9.20487 4.35786 9.109 4.54602C9.0838 4.59547 9.04612 4.69619 9.02393 4.96785C9.00078 5.25119 9 5.62346 9 6.20001V13.8C9 14.3766 9.00078 14.7488 9.02393 15.0322C9.04612 15.3038 9.0838 15.4046 9.109 15.454C9.20487 15.6422 9.35785 15.7951 9.54601 15.891C9.59546 15.9162 9.69617 15.9539 9.96784 15.9761C10.2512 15.9992 10.6234 16 11.2 16H16.8C17.3766 16 17.7488 15.9992 18.0322 15.9761C18.3038 15.9539 18.4045 15.9162 18.454 15.891C18.6422 15.7951 18.7951 15.6422 18.891 15.454C18.9162 15.4046 18.9539 15.3038 18.9761 15.0322C18.9992 14.7488 19 14.3766 19 13.8V10L17.1615 10C16.6343 10 16.1795 10 15.805 9.96944C15.4096 9.93714 15.0164 9.86583 14.638 9.67303C14.0735 9.38541 13.6146 8.92647 13.327 8.36198C13.1342 7.98361 13.0629 7.59039 13.0306 7.19504C13 6.82046 13 6.36569 13 5.83854V4.00001H11.2C10.6234 4.00001 10.2512 4.00079 9.96784 4.02394ZM5.97376 8.01672C5.74576 8.03228 5.65893 8.0589 5.61732 8.07613C5.37229 8.17763 5.17762 8.3723 5.07612 8.61733C5.05889 8.65894 5.03227 8.74578 5.01671 8.97377C5.00054 9.21075 5 9.52039 5 10V17.8C5 18.3766 5.00078 18.7488 5.02393 19.0322C5.04612 19.3038 5.0838 19.4046 5.109 19.454C5.20487 19.6422 5.35785 19.7951 5.54601 19.891C5.59546 19.9162 5.69617 19.9539 5.96784 19.9761C6.25117 19.9992 6.62345 20 7.2 20H13C13.4796 20 13.7893 19.9995 14.0262 19.9833C14.2542 19.9677 14.3411 19.9411 14.3827 19.9239C14.6277 19.8224 14.8224 19.6277 14.9239 19.3827C14.9411 19.3411 14.9677 19.2543 14.9833 19.0263C14.9995 18.7893 15 18.4796 15 18H11.1615C10.6343 18 10.1796 18 9.80497 17.9694C9.40963 17.9371 9.01641 17.8658 8.63803 17.673C8.07354 17.3854 7.6146 16.9265 7.32698 16.362C7.13419 15.9836 7.06287 15.5904 7.03057 15.195C6.99997 14.8205 6.99998 14.3657 7 13.8386L7 8.00001C6.52038 8.00001 6.21074 8.00056 5.97376 8.01672Z" fill="#5C5C5C"/>
</svg>
