<svg width="24" height="24" viewBox="0 0 24 24" fill="none" xmlns="http://www.w3.org/2000/svg">
<path d="M18.0005 19.0036C18.5528 19.0036 19.0005 19.4513 19.0005 20.0036C19.0005 20.5559 18.5528 21.0036 18.0005 21.0036H6.0005C5.44821 21.0036 5.0005 20.5559 5.0005 20.0036C5.0005 19.4513 5.44821 19.0036 6.0005 19.0036H18.0005Z" fill="#5C5C5C"/>
<path d="M12.1978 3.01727C12.3933 3.04444 12.581 3.11176 12.7495 3.21454C12.9178 3.3172 13.0617 3.45203 13.1743 3.60907L13.2769 3.77313L13.2847 3.78973L15.8755 8.86688L19.604 5.57098L19.6235 5.55341C19.8608 5.35429 20.1581 5.23469 20.4722 5.21747L20.5894 5.21649C20.8235 5.22284 21.0517 5.2855 21.2544 5.39911L21.353 5.46063L21.4468 5.52899C21.6577 5.69646 21.8165 5.91826 21.9087 6.16766C22.014 6.45252 22.0288 6.76322 21.9517 7.05634L19.3999 16.5807C19.2933 16.979 19.0616 17.3365 18.7349 17.5954C18.4075 17.8548 18.0027 18.0001 17.5815 18.0036H6.42042C5.99889 18.0005 5.59395 17.8549 5.26612 17.5954C4.93896 17.3364 4.70682 16.9793 4.6001 16.5807L2.0503 7.06122C1.97316 6.7681 1.987 6.45353 2.09229 6.16864C2.19772 5.88354 2.39023 5.63463 2.64796 5.46161L2.74659 5.40009C2.98298 5.26759 3.25392 5.20345 3.52882 5.21844C3.84288 5.23567 4.14014 5.35526 4.37745 5.55438C4.3814 5.5577 4.38533 5.56132 4.38923 5.56492L4.39698 5.57196L8.12354 8.86786L10.7153 3.78973L10.7232 3.77313C10.8447 3.54533 11.026 3.35147 11.2505 3.21454L11.4253 3.12372C11.6054 3.04521 11.8012 3.0036 12.0005 3.0036L12.1978 3.01727ZM9.83936 9.90594L9.8335 9.91669C9.70271 10.1655 9.51845 10.3844 9.29249 10.5554C9.06648 10.7263 8.80457 10.8451 8.52491 10.9011C8.24504 10.9571 7.95607 10.9492 7.68018 10.8766C7.40457 10.8041 7.15043 10.6696 6.93507 10.486L6.92139 10.4743L4.44874 8.28778L6.5171 16.0036H17.4829L19.5513 8.2868L17.0786 10.4733L17.0649 10.485C16.8496 10.6687 16.5955 10.8032 16.3198 10.8757C16.0439 10.9482 15.755 10.9561 15.4751 10.9001C15.1954 10.8441 14.9335 10.7254 14.7075 10.5544C14.4816 10.3834 14.2973 10.1645 14.1665 9.91571L14.1607 9.90594L11.9995 5.67157L9.83936 9.90594Z" fill="#5C5C5C"/>
</svg>
