<svg viewBox="0 0 18 18" fill="none" xmlns="http://www.w3.org/2000/svg">
<path d="M3.375 12.6562C3.375 13.2659 3.76102 13.7812 4.21875 13.7812C4.31651 13.7781 4.41261 13.755 4.5012 13.7136C4.5898 13.6721 4.66905 13.6131 4.73414 13.5401C4.88892 13.3784 5.10159 13.2848 5.32535 13.2799C5.54912 13.2751 5.76567 13.3593 5.92734 13.5141C6.08902 13.6688 6.18259 13.8815 6.18747 14.1053C6.19235 14.329 6.10814 14.5456 5.95336 14.7073C5.73137 14.9457 5.46299 15.1362 5.1647 15.2672C4.86641 15.3981 4.54451 15.4667 4.21875 15.4688C2.82305 15.4688 1.6875 14.2031 1.6875 12.6562C1.6875 11.1094 2.82305 9.84375 4.21875 9.84375C4.54451 9.84579 4.86641 9.9144 5.1647 10.0453C5.46299 10.1763 5.73137 10.3668 5.95336 10.6052C6.10814 10.7669 6.19235 10.9835 6.18747 11.2072C6.18259 11.431 6.08902 11.6437 5.92734 11.7984C5.76567 11.9532 5.54912 12.0374 5.32535 12.0326C5.10159 12.0277 4.88892 11.9341 4.73414 11.7724C4.66905 11.6994 4.5898 11.6404 4.5012 11.5989C4.41261 11.5575 4.31651 11.5344 4.21875 11.5312C3.76102 11.5312 3.375 12.0452 3.375 12.6562ZM10.2312 12.2548C9.87047 12.0122 9.43453 11.8863 9.04992 11.7752C8.86148 11.7243 8.67583 11.6635 8.49375 11.5931C8.66602 11.5102 9.17648 11.5017 9.62367 11.6163C9.84008 11.6735 10.0703 11.6423 10.2638 11.5297C10.4572 11.4171 10.598 11.2323 10.6552 11.0159C10.7123 10.7994 10.6812 10.5692 10.5685 10.3758C10.4559 10.1823 10.2711 10.0415 10.0547 9.98438C9.77781 9.91615 9.49547 9.87239 9.21094 9.85359C8.51273 9.80719 7.94531 9.92953 7.51641 10.2171C7.3073 10.3575 7.13158 10.5421 7.0017 10.7579C6.87181 10.9737 6.79093 11.2154 6.76477 11.4659C6.68742 12.0804 6.93914 12.6098 7.47563 12.9558C7.81172 13.173 8.20406 13.2863 8.58305 13.3959C8.79398 13.4585 9.14133 13.5577 9.27773 13.6441C9.27574 13.6616 9.2705 13.6785 9.26227 13.6941C9.16664 13.803 8.58937 13.8199 8.10984 13.6898C7.8963 13.6357 7.67005 13.6672 7.47942 13.7776C7.2888 13.8881 7.14893 14.0687 7.08971 14.2809C7.03049 14.4931 7.05661 14.72 7.16248 14.9132C7.26836 15.1064 7.4456 15.2505 7.65633 15.3148C8.02783 15.4148 8.41067 15.4665 8.79539 15.4688C9.25031 15.4688 9.76148 15.3865 10.1834 15.1066C10.397 14.9654 10.5768 14.7787 10.7098 14.5599C10.8429 14.3411 10.9261 14.0957 10.9533 13.841C11.0391 13.1857 10.7803 12.6232 10.2312 12.2534V12.2548ZM15.1875 9.89156C14.9766 9.81729 14.7448 9.82978 14.5431 9.92628C14.3414 10.0228 14.1862 10.1954 14.1117 10.4062L13.5 12.1148L12.8883 10.4062C12.8552 10.297 12.8004 10.1957 12.7271 10.1083C12.6537 10.0209 12.5634 9.94923 12.4616 9.89772C12.3598 9.84621 12.2486 9.81588 12.1347 9.80858C12.0209 9.80127 11.9067 9.81713 11.7991 9.85521C11.6916 9.89328 11.5929 9.95278 11.5089 10.0301C11.425 10.1074 11.3577 10.2009 11.3109 10.305C11.2642 10.4091 11.2391 10.5216 11.2371 10.6357C11.2351 10.7498 11.2562 10.8631 11.2992 10.9688L12.7055 14.9062C12.764 15.0701 12.8718 15.2118 13.014 15.312C13.1563 15.4122 13.326 15.466 13.5 15.466C13.674 15.466 13.8437 15.4122 13.986 15.312C14.1282 15.2118 14.236 15.0701 14.2945 14.9062L15.7008 10.9688C15.7756 10.7578 15.7635 10.5259 15.6672 10.3239C15.571 10.1218 15.3984 9.96634 15.1875 9.89156ZM2.53125 7.59375V2.8125C2.53125 2.43954 2.67941 2.08185 2.94313 1.81813C3.20685 1.55441 3.56454 1.40625 3.9375 1.40625H10.6875C10.7983 1.40616 10.9081 1.42791 11.0105 1.47026C11.113 1.51261 11.206 1.57472 11.2845 1.65305L15.222 5.59055C15.3003 5.66896 15.3624 5.76204 15.4047 5.86447C15.4471 5.9669 15.4688 6.07666 15.4688 6.1875V7.59375C15.4688 7.81753 15.3799 8.03214 15.2216 8.19037C15.0634 8.34861 14.8488 8.4375 14.625 8.4375C14.4012 8.4375 14.1866 8.34861 14.0284 8.19037C13.8701 8.03214 13.7812 7.81753 13.7812 7.59375V7.3125H10.4062C10.1825 7.3125 9.96786 7.22361 9.80963 7.06537C9.6514 6.90714 9.5625 6.69253 9.5625 6.46875V3.09375H4.21875V7.59375C4.21875 7.81753 4.12986 8.03214 3.97162 8.19037C3.81339 8.34861 3.59878 8.4375 3.375 8.4375C3.15122 8.4375 2.93661 8.34861 2.77838 8.19037C2.62014 8.03214 2.53125 7.81753 2.53125 7.59375ZM11.25 5.625H12.8672L11.25 4.00781V5.625Z" />
</svg>
