<svg viewBox="0 0 20 16" xmlns="http://www.w3.org/2000/svg">
<path d="M12.4784 16C12.2487 15.9911 12.0313 15.8936 11.8719 15.7279C11.7126 15.5622 11.6235 15.3412 11.6235 15.1113C11.6235 14.8814 11.7126 14.6605 11.8719 14.4948C12.0313 14.3291 12.2487 14.2316 12.4784 14.2227H14.2558C14.4916 14.2227 14.7178 14.129 14.8846 13.9622C15.0514 13.7954 15.1451 13.5692 15.1451 13.3333V10.6667C15.1441 10.1624 15.2505 9.66374 15.4575 9.2039C15.6644 8.74407 15.967 8.33364 16.3451 8C15.967 7.66636 15.6644 7.25593 15.4575 6.7961C15.2505 6.33626 15.1441 5.83758 15.1451 5.33333V2.66667C15.1451 2.4308 15.0514 2.2046 14.8846 2.03781C14.7178 1.87103 14.4916 1.77733 14.2558 1.77733H12.4784C12.2487 1.76843 12.0313 1.67091 11.8719 1.50523C11.7126 1.33954 11.6235 1.11857 11.6235 0.888667C11.6235 0.658762 11.7126 0.43779 11.8719 0.272106C12.0313 0.106421 12.2487 0.00890029 12.4784 0L14.2558 0C14.963 0 15.6413 0.280952 16.1414 0.781049C16.6415 1.28115 16.9224 1.95942 16.9224 2.66667V5.33333C16.9231 5.80473 17.1108 6.25659 17.4442 6.58979C17.7777 6.92299 18.2297 7.11031 18.7011 7.11067C18.8207 7.10603 18.94 7.12559 19.0519 7.16816C19.1637 7.21073 19.2658 7.27545 19.3521 7.35842C19.4383 7.4414 19.507 7.54093 19.5538 7.65106C19.6007 7.76119 19.6249 7.87965 19.6249 7.99933C19.6249 8.11902 19.6007 8.23748 19.5538 8.3476C19.507 8.45773 19.4383 8.55727 19.3521 8.64024C19.2658 8.72322 19.1637 8.78793 19.0519 8.83051C18.94 8.87308 18.8207 8.89263 18.7011 8.888C18.2297 8.88871 17.7778 9.07637 17.4446 9.40982C17.1114 9.74327 16.9241 10.1953 16.9238 10.6667V13.3333C16.9238 14.0406 16.6428 14.7189 16.1427 15.219C15.6426 15.719 14.9643 16 14.2571 16H12.4784ZM5.36776 16C4.66052 16 3.98224 15.719 3.48214 15.219C2.98205 14.7189 2.7011 14.0406 2.7011 13.3333V10.6667C2.70039 10.1955 2.51291 9.74384 2.17975 9.41068C1.84659 9.07752 1.39492 8.89004 0.923762 8.88933C0.804164 8.89397 0.684862 8.87441 0.573002 8.83184C0.461142 8.78927 0.359026 8.72456 0.272772 8.64158C0.186518 8.5586 0.1179 8.45907 0.0710296 8.34894C0.024159 8.23881 0 8.12035 0 8.00067C0 7.88098 0.024159 7.76252 0.0710296 7.6524C0.1179 7.54227 0.186518 7.44273 0.272772 7.35976C0.359026 7.27678 0.461142 7.21207 0.573002 7.16949C0.684862 7.12692 0.804164 7.10737 0.923762 7.112C1.39515 7.11129 1.84702 6.92363 2.18022 6.59018C2.51342 6.25673 2.70074 5.80473 2.7011 5.33333V2.66667C2.7011 1.95942 2.98205 1.28115 3.48214 0.781049C3.98224 0.280952 4.66052 0 5.36776 0L7.1451 0C7.37483 0.00890029 7.59219 0.106421 7.75158 0.272106C7.91097 0.43779 8 0.658762 8 0.888667C8 1.11857 7.91097 1.33954 7.75158 1.50523C7.59219 1.67091 7.37483 1.76843 7.1451 1.77733H5.36776C5.1319 1.77733 4.90569 1.87103 4.73891 2.03781C4.57213 2.2046 4.47843 2.4308 4.47843 2.66667V5.33333C4.47947 5.83758 4.37298 6.33626 4.16605 6.7961C3.95912 7.25593 3.65652 7.66636 3.27843 8C3.65652 8.33364 3.95912 8.74407 4.16605 9.2039C4.37298 9.66374 4.47947 10.1624 4.47843 10.6667V13.3333C4.47843 13.5692 4.57213 13.7954 4.73891 13.9622C4.90569 14.129 5.1319 14.2227 5.36776 14.2227H7.1451C7.37483 14.2316 7.59219 14.3291 7.75158 14.4948C7.91097 14.6605 8 14.8814 8 15.1113C8 15.3412 7.91097 15.5622 7.75158 15.7279C7.59219 15.8936 7.37483 15.9911 7.1451 16H5.36776ZM7.11976 7.98133C7.1195 7.47258 7.27012 6.97518 7.55257 6.55204C7.83503 6.1289 8.23663 5.79904 8.70658 5.60417C9.17652 5.40929 9.69371 5.35817 10.1927 5.45726C10.6917 5.55635 11.1501 5.8012 11.51 6.16085C11.8698 6.5205 12.1149 6.97878 12.2142 7.47774C12.3136 7.97669 12.2627 8.49391 12.0681 8.96395C11.8735 9.434 11.5438 9.83577 11.1208 10.1184C10.6978 10.4011 10.2005 10.552 9.69176 10.552C9.00986 10.552 8.35586 10.2812 7.87355 9.79915C7.39125 9.31709 7.12012 8.66324 7.11976 7.98133Z" />
</svg>
