<svg width="24" height="24" viewBox="0 0 24 24" fill="none" xmlns="http://www.w3.org/2000/svg">
<path d="M3 7C3 6.44772 3.44772 6 4 6H20C20.5523 6 21 6.44772 21 7C21 7.55229 20.5523 8 20 8H4C3.44772 8 3 7.55229 3 7Z" fill="#5C5C5C"/>
<path fill-rule="evenodd" clip-rule="evenodd" d="M5 8H7V17.8C7 18.3766 7.00078 18.7488 7.02393 19.0322C7.04612 19.3038 7.0838 19.4045 7.10899 19.454C7.20487 19.6422 7.35785 19.7951 7.54601 19.891C7.59545 19.9162 7.69617 19.9539 7.96784 19.9761C8.25117 19.9992 8.62345 20 9.2 20H14.8C15.3766 20 15.7488 19.9992 16.0322 19.9761C16.3038 19.9539 16.4045 19.9162 16.454 19.891C16.6422 19.7951 16.7951 19.6422 16.891 19.454C16.9162 19.4045 16.9539 19.3038 16.9761 19.0322C16.9992 18.7488 17 18.3766 17 17.8V8H19V17.8385C19 18.3657 19 18.8205 18.9694 19.195C18.9371 19.5904 18.8658 19.9836 18.673 20.362C18.3854 20.9265 17.9265 21.3854 17.362 21.673C16.9836 21.8658 16.5904 21.9371 16.195 21.9694C15.8205 22 15.3657 22 14.8385 22H9.16148C8.63432 22 8.17955 22 7.80497 21.9694C7.40963 21.9371 7.01641 21.8658 6.63803 21.673C6.07354 21.3854 5.6146 20.9265 5.32698 20.362C5.13419 19.9836 5.06287 19.5904 5.03057 19.195C4.99997 18.8205 4.99998 18.3657 5 17.8385L5 8Z" fill="#5C5C5C"/>
<path d="M9 11C9 10.4477 9.44772 10 10 10C10.5523 10 11 10.4477 11 11V17C11 17.5523 10.5523 18 10 18C9.44772 18 9 17.5523 9 17V11Z" fill="#5C5C5C"/>
<path d="M13 11C13 10.4477 13.4477 10 14 10C14.5523 10 15 10.4477 15 11V17C15 17.5523 14.5523 18 14 18C13.4477 18 13 17.5523 13 17V11Z" fill="#5C5C5C"/>
<path fill-rule="evenodd" clip-rule="evenodd" d="M10.968 2H13.032C13.4706 1.99999 13.8491 1.99998 14.1624 2.02135C14.4922 2.04386 14.8221 2.09336 15.1481 2.22836C15.8831 2.53284 16.4672 3.11687 16.7716 3.85195C16.9066 4.17788 16.9561 4.50779 16.9786 4.83762C17 5.15088 17 5.52936 17 5.96801V6H15C15 5.52038 14.9995 5.21074 14.9833 4.97376C14.9677 4.74576 14.9411 4.65893 14.9239 4.61732C14.8224 4.37229 14.6277 4.17762 14.3827 4.07612C14.3411 4.05888 14.2542 4.03227 14.0262 4.01671C13.7893 4.00054 13.4796 4 13 4H11C10.5204 4 10.2107 4.00054 9.97376 4.01671C9.74576 4.03227 9.65893 4.05888 9.61732 4.07612C9.37229 4.17762 9.17761 4.37229 9.07612 4.61732C9.05888 4.65893 9.03227 4.74576 9.01671 4.97376C9.00054 5.21074 9 5.52038 9 6H7L7 5.96802C6.99999 5.52937 6.99998 5.15088 7.02135 4.83762C7.04385 4.50779 7.09336 4.17788 7.22836 3.85195C7.53284 3.11687 8.11687 2.53284 8.85195 2.22836C9.17788 2.09336 9.50779 2.04386 9.83762 2.02135C10.1509 1.99998 10.5294 1.99999 10.968 2Z" fill="#5C5C5C"/>
</svg>
