<svg viewBox="0 0 36 36" xmlns="http://www.w3.org/2000/svg">
<path d="M4 0.5H32C33.933 0.5 35.5 2.067 35.5 4V32C35.5 33.933 33.933 35.5 32 35.5H4C2.067 35.5 0.5 33.933 0.5 32V4C0.5 2.067 2.067 0.5 4 0.5Z"/>
<path d="M25.8571 8H10.1429C8.96143 8 8 9.03538 8 10.3077V21.8462C8 23.1185 8.96143 24.1538 10.1429 24.1538H17.2857V26.4615H13.7143C13.5248 26.4615 13.3432 26.5426 13.2092 26.6868C13.0753 26.8311 13 27.0268 13 27.2308C13 27.4348 13.0753 27.6304 13.2092 27.7747C13.3432 27.919 13.5248 28 13.7143 28H22.2857C22.4752 28 22.6568 27.919 22.7908 27.7747C22.9247 27.6304 23 27.4348 23 27.2308C23 27.0268 22.9247 26.8311 22.7908 26.6868C22.6568 26.5426 22.4752 26.4615 22.2857 26.4615H18.7143V24.1538H25.8571C27.0386 24.1538 28 23.1185 28 21.8462V10.3077C28 9.03538 27.0386 8 25.8571 8ZM26.5714 21.8462C26.5714 22.27 26.2514 22.6154 25.8571 22.6154H10.1429C9.74857 22.6154 9.42857 22.27 9.42857 21.8462V10.3077C9.42857 9.88385 9.74857 9.53846 10.1429 9.53846H25.8571C26.2514 9.53846 26.5714 9.88385 26.5714 10.3077V21.8462Z" fill="#FFFFFF"/>
</svg>
