<svg width="24" height="24" viewBox="0 0 24 24" xmlns="http://www.w3.org/2000/svg">
<path d="M14 7V2.48284C14 2.30466 14.2154 2.21543 14.3414 2.34142L19.6586 7.65858C19.7846 7.78457 19.6953 8 19.5172 8H15C14.4477 8 14 7.55228 14 7Z" />
<path fill-rule="evenodd" clip-rule="evenodd" d="M20 19V10H15C13.3431 10 12 8.65685 12 7V2H7C5.34315 2 4 3.34315 4 5V19C4 20.6569 5.34315 22 7 22H17C18.6569 22 20 20.6569 20 19ZM17 17H10C9.44772 17 9 17.4477 9 18C9 18.5523 9.44772 19 10 19H17C17.5523 19 18 18.5523 18 18C18 17.4477 17.5523 17 17 17ZM6 18C6 17.4477 6.44772 17 7 17C7.55228 17 8 17.4477 8 18C8 18.5523 7.55228 19 7 19C6.44772 19 6 18.5523 6 18ZM7 13C6.44772 13 6 13.4477 6 14C6 14.5523 6.44772 15 7 15C7.55228 15 8 14.5523 8 14C8 13.4477 7.55228 13 7 13ZM9 14C9 13.4477 9.44772 13 10 13H17C17.5523 13 18 13.4477 18 14C18 14.5523 17.5523 15 17 15H10C9.44772 15 9 14.5523 9 14Z" />
</svg>
