<svg width="24" height="24" viewBox="0 0 24 24" fill="none" xmlns="http://www.w3.org/2000/svg">
<path d="M11.0909 9.27273H14.7273C14.9684 9.27273 15.1996 9.17695 15.3701 9.00646C15.5406 8.83597 15.6364 8.60474 15.6364 8.36364C15.6364 8.12253 15.5406 7.8913 15.3701 7.72081C15.1996 7.55032 14.9684 7.45454 14.7273 7.45454H12.9091V6.54545C12.9091 6.30435 12.8133 6.07312 12.6428 5.90263C12.4723 5.73214 12.2411 5.63636 12 5.63636C11.7589 5.63636 11.5277 5.73214 11.3572 5.90263C11.1867 6.07312 11.0909 6.30435 11.0909 6.54545V7.45454C10.3676 7.45454 9.6739 7.74188 9.16244 8.25334C8.65098 8.76481 8.36364 9.4585 8.36364 10.1818C8.36364 10.9051 8.65098 11.5988 9.16244 12.1103C9.6739 12.6218 10.3676 12.9091 11.0909 12.9091H12.9091C13.1502 12.9091 13.3814 13.0049 13.5519 13.1754C13.7224 13.3458 13.8182 13.5771 13.8182 13.8182C13.8182 14.0593 13.7224 14.2905 13.5519 14.461C13.3814 14.6315 13.1502 14.7273 12.9091 14.7273H9.27273C9.03162 14.7273 8.80039 14.823 8.62991 14.9935C8.45942 15.164 8.36364 15.3953 8.36364 15.6364C8.36364 15.8775 8.45942 16.1087 8.62991 16.2792C8.80039 16.4497 9.03162 16.5455 9.27273 16.5455H11.0909V17.4545C11.0909 17.6956 11.1867 17.9269 11.3572 18.0974C11.5277 18.2679 11.7589 18.3636 12 18.3636C12.2411 18.3636 12.4723 18.2679 12.6428 18.0974C12.8133 17.9269 12.9091 17.6956 12.9091 17.4545V16.5455C13.6324 16.5455 14.3261 16.2581 14.8376 15.7467C15.349 15.2352 15.6364 14.5415 15.6364 13.8182C15.6364 13.0949 15.349 12.4012 14.8376 11.8897C14.3261 11.3782 13.6324 11.0909 12.9091 11.0909H11.0909C10.8498 11.0909 10.6186 10.9951 10.4481 10.8246C10.2776 10.6542 10.1818 10.4229 10.1818 10.1818C10.1818 9.94071 10.2776 9.70948 10.4481 9.53899C10.6186 9.36851 10.8498 9.27273 11.0909 9.27273ZM12 2C10.0222 2 8.08879 2.58649 6.4443 3.6853C4.79981 4.78412 3.51809 6.3459 2.76121 8.17316C2.00433 10.0004 1.8063 12.0111 2.19215 13.9509C2.578 15.8907 3.53041 17.6725 4.92894 19.0711C6.32746 20.4696 8.10929 21.422 10.0491 21.8078C11.9889 22.1937 13.9996 21.9957 15.8268 21.2388C17.6541 20.4819 19.2159 19.2002 20.3147 17.5557C21.4135 15.9112 22 13.9778 22 12C22 9.34783 20.9464 6.8043 19.0711 4.92893C17.1957 3.05357 14.6522 2 12 2ZM12 20.1818C10.3818 20.1818 8.79992 19.702 7.45443 18.8029C6.10894 17.9039 5.06025 16.6261 4.44099 15.131C3.82173 13.636 3.6597 11.9909 3.9754 10.4038C4.29109 8.81669 5.07034 7.35883 6.21458 6.21458C7.35883 5.07033 8.81669 4.29109 10.4038 3.97539C11.9909 3.6597 13.636 3.82172 15.131 4.44099C16.6261 5.06025 17.9039 6.10893 18.8029 7.45442C19.702 8.79992 20.1818 10.3818 20.1818 12C20.1818 14.17 19.3198 16.251 17.7854 17.7854C16.251 19.3198 14.17 20.1818 12 20.1818Z" fill="#5C5C5C"/>
</svg>
