<svg width="24" height="24" viewBox="0 0 24 24" fill="none" xmlns="http://www.w3.org/2000/svg">
<path fill-rule="evenodd" clip-rule="evenodd" d="M11.5755 17.9056C11.7043 17.9662 11.8482 18 12 18C12.1518 18 12.2957 17.9662 12.4245 17.9056C12.1563 18.0314 11.8437 18.0314 11.5755 17.9056Z" fill="#5C5C5C"/>
<path d="M19 20C19.5523 20 20 20.4477 20 21C20 21.5523 19.5523 22 19 22H5C4.44772 22 4 21.5523 4 21C4 20.4477 4.44772 20 5 20H19Z" fill="#5C5C5C"/>
<path d="M11 3V14.5859L6.70703 10.293L6.63086 10.2246C6.23809 9.90426 5.65908 9.92685 5.29297 10.293C4.92685 10.6591 4.90426 11.2381 5.22461 11.6309L5.29297 11.707L11.2826 17.6967L11.293 17.707C11.6835 18.0976 12.3165 18.0976 12.707 17.707L12.7174 17.6967L18.707 11.707C19.0976 11.3165 19.0976 10.6835 18.707 10.293C18.3165 9.90244 17.6835 9.90244 17.293 10.293L13 14.5859V3C13 2.44772 12.5523 2 12 2C11.4477 2 11 2.44772 11 3Z" fill="#5C5C5C"/>
</svg>
