<svg width="24" height="24" viewBox="0 0 24 24" xmlns="http://www.w3.org/2000/svg">
<path fill-rule="evenodd" clip-rule="evenodd" d="M16.0682 2.71194C16.9076 2.29601 17.893 2.29601 18.7323 2.71194C19.1781 2.93285 19.5635 3.31925 20.0092 3.7661L20.1074 3.86446L20.2058 3.96265C20.6526 4.40833 21.039 4.79372 21.2599 5.23952C21.6758 6.07885 21.6758 7.06428 21.2599 7.90361C21.039 8.34942 20.6526 8.73481 20.2057 9.18048L20.1074 9.27867L8.3417 21.0444L8.32485 21.0614C8.2631 21.124 8.13554 21.2533 7.97692 21.3505C7.84271 21.4328 7.6964 21.4934 7.54334 21.5301C7.36246 21.5735 7.18081 21.5723 7.09287 21.5717L7.06891 21.5716H4.20028L4.17713 21.5716C4.05802 21.5716 3.91577 21.5717 3.79045 21.5614C3.64523 21.5496 3.43724 21.5191 3.2193 21.4081C2.93705 21.2643 2.70758 21.0348 2.56377 20.7526C2.45272 20.5346 2.42228 20.3266 2.41042 20.1814C2.40018 20.0561 2.40023 19.9138 2.40028 19.7947L2.40028 16.9029L2.40016 16.879C2.39956 16.791 2.3983 16.6094 2.44173 16.4285C2.47847 16.2755 2.53908 16.1291 2.62132 15.9949C2.71852 15.8363 2.84785 15.7088 2.91046 15.647L2.92749 15.6301L14.6932 3.86446L14.7914 3.7661C15.237 3.31925 15.6224 2.93285 16.0682 2.71194ZM17.8443 4.50397C17.5645 4.36533 17.236 4.36533 16.9563 4.50397C16.8463 4.55847 16.7097 4.67633 16.1074 5.27867L15.8145 5.57157L14.4003 6.98578L4.40028 16.9858V19.5716H6.98607L16.9861 9.57157L18.4003 8.15735L18.6932 7.86446C19.2955 7.26212 19.4134 7.12556 19.4679 7.01558C19.6065 6.73581 19.6065 6.40733 19.4679 6.12755C19.4134 6.01757 19.2955 5.88102 18.6932 5.27867C18.0908 4.67633 17.9543 4.55847 17.8443 4.50397ZM18.4003 8.15735L16.9861 9.57157L14.4003 6.98578L15.8145 5.57157L18.4003 8.15735Z" />
</svg>
