<svg width="22" height="22" viewBox="0 0 22 22" xmlns="http://www.w3.org/2000/svg">
<path d="M17.4163 3.66675H4.58301C3.85366 3.66675 3.15419 3.95648 2.63846 4.4722C2.12274 4.98793 1.83301 5.6874 1.83301 6.41675V15.5834C1.83301 16.3128 2.12274 17.0122 2.63846 17.528C3.15419 18.0437 3.85366 18.3334 4.58301 18.3334H17.4163C18.1457 18.3334 18.8452 18.0437 19.3609 17.528C19.8766 17.0122 20.1663 16.3128 20.1663 15.5834V6.41675C20.1663 5.6874 19.8766 4.98793 19.3609 4.4722C18.8452 3.95648 18.1457 3.66675 17.4163 3.66675ZM17.0405 5.50008L11.6505 10.8901C11.5653 10.976 11.4639 11.0442 11.3522 11.0907C11.2405 11.1373 11.1207 11.1612 10.9997 11.1612C10.8787 11.1612 10.7589 11.1373 10.6471 11.0907C10.5354 11.0442 10.4341 10.976 10.3488 10.8901L4.95884 5.50008H17.0405ZM18.333 15.5834C18.333 15.8265 18.2364 16.0597 18.0645 16.2316C17.8926 16.4035 17.6595 16.5001 17.4163 16.5001H4.58301C4.33989 16.5001 4.10673 16.4035 3.93483 16.2316C3.76292 16.0597 3.66634 15.8265 3.66634 15.5834V6.79258L9.05634 12.1826C9.57197 12.6976 10.2709 12.9868 10.9997 12.9868C11.7284 12.9868 12.4274 12.6976 12.943 12.1826L18.333 6.79258V15.5834Z"/>
</svg>
