<svg width="24" height="24" viewBox="0 0 24 24" fill="none" xmlns="http://www.w3.org/2000/svg">
<path d="M18.75 1.875H6.75C6.25272 1.875 5.77581 2.07254 5.42417 2.42417C5.07254 2.77581 4.875 3.25272 4.875 3.75V5.25H3.375C2.87772 5.25 2.40081 5.44754 2.04917 5.79917C1.69754 6.15081 1.5 6.62772 1.5 7.125V16.875C1.5 17.3723 1.69754 17.8492 2.04917 18.2008C2.40081 18.5525 2.87772 18.75 3.375 18.75H4.875V20.25C4.875 20.7473 5.07254 21.2242 5.42417 21.5758C5.77581 21.9275 6.25272 22.125 6.75 22.125H18.75C19.2473 22.125 19.7242 21.9275 20.0758 21.5758C20.4275 21.2242 20.625 20.7473 20.625 20.25V3.75C20.625 3.25272 20.4275 2.77581 20.0758 2.42417C19.7242 2.07254 19.2473 1.875 18.75 1.875ZM15.75 10.125H18.375V13.875H15.75V10.125ZM18.375 7.875H15.75V7.125C15.75 6.62772 15.5525 6.15081 15.2008 5.79917C14.8492 5.44754 14.3723 5.25 13.875 5.25V4.125H18.375V7.875ZM7.125 4.125H11.625V5.25H7.125V4.125ZM3.75 7.5H13.5V16.5H3.75V7.5ZM7.125 18.75H11.625V19.875H7.125V18.75ZM13.875 19.875V18.75C14.3723 18.75 14.8492 18.5525 15.2008 18.2008C15.5525 17.8492 15.75 17.3723 15.75 16.875V16.125H18.375V19.875H13.875ZM6.03 15.1144C5.80076 14.9234 5.65677 14.6492 5.62969 14.3521C5.60262 14.055 5.69468 13.7593 5.88562 13.53L7.16062 12L5.88562 10.47C5.78968 10.3567 5.71712 10.2255 5.67212 10.0839C5.62713 9.94243 5.6106 9.79341 5.62349 9.64548C5.63637 9.49754 5.67842 9.35362 5.74719 9.22202C5.81597 9.09041 5.91013 8.97373 6.02422 8.87869C6.13832 8.78365 6.2701 8.71214 6.41197 8.66828C6.55384 8.62442 6.70299 8.60908 6.85081 8.62315C6.99864 8.63722 7.14222 8.68041 7.27327 8.75024C7.40432 8.82007 7.52025 8.91515 7.61438 9.03L8.625 10.2422L9.63562 9.03C9.82741 8.80347 10.1009 8.66191 10.3966 8.63615C10.6923 8.6104 10.9862 8.70254 11.2143 8.89251C11.4423 9.08247 11.5861 9.35486 11.6142 9.65034C11.6423 9.94582 11.5525 10.2404 11.3644 10.47L10.0894 12L11.3644 13.53C11.4603 13.6433 11.5329 13.7745 11.5779 13.9161C11.6229 14.0576 11.6394 14.2066 11.6265 14.3545C11.6136 14.5025 11.5716 14.6464 11.5028 14.778C11.434 14.9096 11.3399 15.0263 11.2258 15.1213C11.1117 15.2164 10.9799 15.2879 10.838 15.3317C10.6962 15.3756 10.547 15.3909 10.3992 15.3769C10.2514 15.3628 10.1078 15.3196 9.97673 15.2498C9.84568 15.1799 9.72975 15.0849 9.63562 14.97L8.625 13.7578L7.61438 14.97C7.42341 15.1992 7.14921 15.3432 6.85209 15.3703C6.55496 15.3974 6.25925 15.3053 6.03 15.1144Z" fill="#5C5C5C"/>
</svg>
