<svg width="11" height="12" viewBox="0 0 11 12"  xmlns="http://www.w3.org/2000/svg">
<path d="M9.826 2.535C9.96972 2.68832 10.0806 2.86934 10.152 3.067C10.2343 3.25309 10.2792 3.45357 10.284 3.657V11.357C10.2827 11.5269 10.2146 11.6894 10.0945 11.8095C9.9744 11.9296 9.81186 11.9977 9.642 11.999H0.629C0.546676 11.999 0.465216 11.9822 0.389574 11.9497C0.313933 11.9172 0.245691 11.8697 0.189 11.81C0.129306 11.7533 0.0817672 11.6851 0.0492758 11.6094C0.0167844 11.5338 1.92639e-05 11.4523 0 11.37V0.63C1.92639e-05 0.547676 0.0167844 0.466215 0.0492758 0.390574C0.0817672 0.314933 0.129306 0.246691 0.189 0.19C0.245605 0.130124 0.313808 0.0824003 0.389454 0.0497352C0.465099 0.0170701 0.546603 0.000148027 0.629 0H6.635C6.83843 0.00482013 7.03891 0.0496744 7.225 0.132C7.41235 0.196709 7.5855 0.296863 7.735 0.427L9.826 2.535ZM9.426 11.142V4.278H6.635C6.46514 4.27669 6.3026 4.20863 6.18248 4.08852C6.06237 3.9684 5.99431 3.80586 5.993 3.636V0.867H0.866V11.167L9.426 11.142ZM2.864 9.576V10.284H4.752V9.576H4.241L4.932 8.493L5.002 8.383C5.002 8.343 5.037 8.313 5.05 8.295C5.063 8.277 5.05 8.264 5.072 8.264C5.0792 8.28931 5.09107 8.31305 5.107 8.334C5.11471 8.35155 5.12518 8.36775 5.138 8.382C5.14839 8.4017 5.1619 8.4196 5.178 8.435L5.222 8.492L5.939 9.575H5.439V10.283H7.397V9.576H6.952L5.667 7.745L6.987 5.853H7.427V5.136H5.535V5.853H6.035L5.342 6.918C5.342 6.949 5.302 6.988 5.276 7.028C5.25693 7.05971 5.23623 7.09042 5.214 7.12V7.142C5.20767 7.11709 5.19719 7.09343 5.183 7.072C5.15119 7.01636 5.11293 6.96467 5.069 6.918L4.329 5.853H4.829V5.136H2.895V5.853H3.335L4.602 7.675L3.282 9.575L2.864 9.576ZM6.852 0.898V3.42H9.372C9.3455 3.31898 9.29586 3.22552 9.227 3.147L7.127 1.047C7.04902 0.975422 6.95455 0.924236 6.852 0.898Z" />
</svg>
