<svg viewBox="0 0 24 18" xmlns="http://www.w3.org/2000/svg">
<path d="M23.5661 7.88327C22.6683 6.89438 21.6021 6.03748 20.3989 5.33561C19.9832 5.09363 19.4453 5.22562 19.1978 5.63208C18.9503 6.03852 19.0853 6.56441 19.501 6.80639C20.55 7.41815 21.4768 8.16402 22.2568 8.97798C20.8157 10.5566 18.9085 11.7236 16.7496 12.4235C17.3968 11.6871 18.8925 8.21342 17.0324 8.10534C16.5482 8.10534 16.156 8.52646 16.156 8.99995C16.156 11.2428 14.2895 13.0687 11.9163 13.0687C10.6369 13.1787 10.6016 14.9941 11.9956 14.8841C16.5814 14.8841 20.7976 13.1472 23.5652 10.1178C24.1448 9.48092 24.1447 8.52018 23.5661 7.88327Z"/>
<path d="M9.06076 13.0781C11.9194 10.2799 18.1264 4.21679 20.9346 1.46907C21.736 0.680265 20.5146 -0.534913 19.696 0.258105L16.2309 3.64595C10.728 2.15842 3.97139 3.83661 0.436589 7.87292C-1.60987 10.1461 4.10414 13.0731 5.88375 13.7623L3.05196 16.5309C2.24837 17.3197 3.47412 18.5349 4.29055 17.7419C4.30984 17.723 9.04458 13.0939 9.06076 13.0781ZM7.82645 8.99995C7.7193 5.91487 11.6012 3.7987 14.2454 5.58689L8.49819 11.2059C8.08033 10.5722 7.84145 9.82544 7.82645 8.99995ZM1.73525 9.02195C3.14314 7.47471 5.05994 6.30883 7.2167 5.60058C6.50096 6.55595 6.07345 7.72921 6.07345 9.00103C6.07238 10.2466 6.48489 11.4398 7.22205 12.4181C5.16379 11.7655 3.17405 10.5472 1.73402 9.02302L1.73525 9.02195Z"/>
</svg>
