<svg width="24" height="24" viewBox="0 0 24 24" fill="none" xmlns="http://www.w3.org/2000/svg">
<path fill-rule="evenodd" clip-rule="evenodd" d="M17.7139 12.1215L17.6566 12.1633C17.6753 12.1486 17.6945 12.1347 17.7139 12.1215Z" fill="#5C5C5C"/>
<path fill-rule="evenodd" clip-rule="evenodd" d="M6.29139 12.1254C6.30701 12.1361 6.3224 12.1473 6.33756 12.1591L6.29139 12.1254Z" fill="#5C5C5C"/>
<path fill-rule="evenodd" clip-rule="evenodd" d="M6.42601 12.2236C6.41298 12.2149 6.39995 12.2062 6.38707 12.1973L6.42601 12.2236ZM6.3962 12.2028C6.39314 12.201 6.39008 12.1991 6.38707 12.1973L6.3962 12.2028Z" fill="#5C5C5C"/>
<path fill-rule="evenodd" clip-rule="evenodd" d="M6.42601 12.2236C6.41298 12.2149 6.39995 12.2062 6.38707 12.1973L6.42601 12.2236ZM6.3962 12.2028C6.39314 12.201 6.39008 12.1991 6.38707 12.1973L6.3962 12.2028Z" fill="#5C5C5C"/>
<path fill-rule="evenodd" clip-rule="evenodd" d="M6.42601 12.2236C6.41298 12.2149 6.39995 12.2062 6.38707 12.1973L6.42601 12.2236ZM6.3962 12.2028C6.39314 12.201 6.39008 12.1991 6.38707 12.1973L6.3962 12.2028Z" fill="#5C5C5C"/>
<path fill-rule="evenodd" clip-rule="evenodd" d="M6.33756 12.1591L6.29139 12.1254C4.85873 11.0734 3.74552 9.64622 3.07325 8.00293L2.93946 7.65723L2.89942 7.5625C2.67835 7.10662 2.14348 6.88313 1.65723 7.06055C1.17081 7.23805 0.905468 7.75383 1.03028 8.24512L1.06055 8.34277L1.22169 8.75977C1.90252 10.4242 2.95824 11.9049 4.30191 13.0887L3.23536 14.3562C2.87969 14.7787 2.93305 15.4097 3.35548 15.7654C3.77785 16.121 4.4089 16.0665 4.76466 15.6443L5.91438 14.2794C6.73927 14.785 7.62089 15.1839 8.53792 15.4695L8.02344 17.7832C7.90376 18.3223 8.24412 18.8568 8.78321 18.9766C9.3223 19.0962 9.85681 18.7559 9.97657 18.2168L10.4915 15.898C10.9897 15.9631 11.4936 15.9961 12 15.9961C12.5064 15.9961 13.0103 15.9631 13.5085 15.898L14.0241 18.2168C14.1438 18.7558 14.6775 19.096 15.2165 18.9766C15.7556 18.8568 16.096 18.3223 15.9762 17.7832L15.4624 15.4693C16.3794 15.1838 17.261 14.7848 18.0858 14.2793L19.2349 15.6443C19.5906 16.0666 20.2217 16.1209 20.6441 15.7654C21.0665 15.4098 21.1206 14.7787 20.7652 14.3562L19.6981 13.0887C21.1529 11.807 22.2701 10.1771 22.9395 8.34277C23.1288 7.82396 22.8616 7.24987 22.3428 7.06055C21.824 6.87125 21.2499 7.13842 21.0606 7.65723C20.4085 9.44401 19.2436 10.9967 17.7139 12.1215L17.6566 12.1633C17.6144 12.1938 17.572 12.224 17.5293 12.2539C15.9086 13.3878 13.978 13.9961 12 13.9961C10.022 13.9961 8.09144 13.3878 6.47071 12.2539C6.45596 12.2436 6.44098 12.2336 6.42601 12.2236C6.40723 12.2111 6.38845 12.1985 6.37012 12.1854C6.36248 12.1789 6.35477 12.1726 6.34699 12.1664L6.33756 12.1591Z" fill="#5C5C5C"/>
</svg>
