<svg width="24" height="24" viewBox="0 0 24 24" fill="none" xmlns="http://www.w3.org/2000/svg">
<path d="M10.6148 4.08349C13.161 3.78009 15.7363 4.31801 17.9479 5.61572C20.0211 6.83226 21.6678 8.65337 22.6705 10.8296L22.8629 11.27L22.8756 11.3032C23.0422 11.7521 23.0422 12.2459 22.8756 12.6948C22.8715 12.7059 22.8674 12.7171 22.8629 12.728C22.4612 13.7019 21.9296 14.6174 21.2838 15.4497C20.9454 15.8859 20.3178 15.9656 19.8814 15.6274C19.4452 15.2889 19.3653 14.6605 19.7037 14.2241L19.9 13.9614C20.3408 13.3521 20.7091 12.6933 20.9986 11.9985C20.1856 10.0465 18.7605 8.41088 16.9361 7.34033C15.1012 6.2636 12.9637 5.81708 10.8512 6.06884C10.3028 6.1341 9.80519 5.74219 9.73985 5.19384C9.67479 4.64563 10.0666 4.14882 10.6148 4.08349Z" fill="#5C5C5C"/>
<path fill-rule="evenodd" clip-rule="evenodd" d="M15.8105 17.2246L14.0316 15.4456C13.4106 15.8116 12.6968 16.0063 11.9647 16C10.9161 15.9908 9.91329 15.5696 9.17175 14.8281C8.43022 14.0865 8.00905 13.0838 7.99988 12.0351C7.99351 11.3029 8.18835 10.5893 8.55453 9.96856L6.37339 7.78742C4.87937 8.84321 3.70802 10.3016 3.00048 11.9992C3.5336 13.2789 4.33268 14.4309 5.34619 15.3771C6.36833 16.3314 7.58435 17.0541 8.91064 17.4973C10.2369 17.9404 11.6432 18.0927 13.0337 17.9445C13.9921 17.8424 14.9277 17.5992 15.8105 17.2246ZM21.293 22.707L17.3153 18.7293C16.045 19.3735 14.6661 19.7824 13.2456 19.9338C11.57 20.1124 9.87514 19.9287 8.27685 19.3947C6.67861 18.8607 5.21369 17.989 3.98193 16.8391C2.75019 15.6891 1.77963 14.2875 1.1372 12.7297C1.13416 12.7223 1.13135 12.7145 1.12858 12.7067L1.12451 12.6955C0.957981 12.2466 0.957876 11.7528 1.12451 11.3039L1.1372 11.2707C1.94421 9.31364 3.26218 7.61871 4.94242 6.35646L1.29298 2.70702C0.902455 2.31649 0.902455 1.68348 1.29298 1.29295C1.6835 0.90243 2.31652 0.90243 2.70704 1.29295L22.707 21.293L22.7754 21.3691C23.0958 21.7619 23.0732 22.3409 22.707 22.707C22.3409 23.0731 21.7619 23.0957 21.3692 22.7754L21.293 22.707ZM10.0681 11.4821L12.5177 13.9318C12.3446 13.9782 12.1646 14.0016 11.9823 14C11.458 13.9954 10.9566 13.7848 10.5858 13.414C10.2151 13.0432 10.0044 12.5419 9.99988 12.0175C9.99829 11.8353 10.0216 11.6553 10.0681 11.4821Z" fill="#5C5C5C"/>
</svg>
