<svg width="24" height="24" viewBox="0 0 24 24" fill="none" xmlns="http://www.w3.org/2000/svg">
<path d="M17.3712 12.8956H22V17.2043C22 19.8539 19.8547 22 17.2062 22H6.79373C4.14522 22 2 19.8539 2 17.2043V12.8956H6.62872C7.05776 15.4792 9.29373 17.4519 12 17.4519C14.7062 17.4519 16.9422 15.4792 17.3712 12.8956Z" fill="#0A68DB"/>
<path d="M17.3712 11.1044C16.934 8.52084 14.7062 6.54808 12 6.54808C9.29373 6.54808 7.05776 8.52084 6.62872 11.1044H2V6.79571C2 4.1461 4.14522 2 6.79373 2H17.2062C19.8547 2 22 4.1461 22 6.79571V11.1044H17.3712Z" fill="#0A68DB"/>
</svg>
