<svg  viewBox="0 0 12 12"  xmlns="http://www.w3.org/2000/svg">
<path d="M7.34231 4.00515C7.36183 4.02467 7.36184 4.05633 7.34231 4.07586L4.83246 6.58615C4.78948 6.62766 4.7552 6.67732 4.73162 6.73222C4.70803 6.78712 4.69562 6.84617 4.6951 6.90592C4.69458 6.96567 4.70596 7.02493 4.72859 7.08023C4.75122 7.13553 4.78463 7.18578 4.82688 7.22803C4.86913 7.27028 4.91938 7.3037 4.97468 7.32632C5.02998 7.34895 5.08924 7.36033 5.14899 7.35981C5.20874 7.3593 5.26779 7.34688 5.32269 7.3233C5.37759 7.29971 5.42725 7.26543 5.46876 7.22245L8.01441 4.67725C8.26761 4.42406 8.40985 4.08065 8.40985 3.72258C8.40985 3.3645 8.26761 3.0211 8.01441 2.7679C7.76122 2.51471 7.41781 2.37246 7.05974 2.37246C6.70166 2.37246 6.35826 2.51471 6.10506 2.7679L3.55941 5.31355C3.34614 5.52151 3.17629 5.76974 3.05971 6.04386C2.94313 6.31797 2.88214 6.6125 2.88027 6.91037C2.8784 7.20823 2.9357 7.50351 3.04884 7.77906C3.16198 8.05461 3.3287 8.30495 3.53935 8.51557C3.74999 8.72618 4.00036 8.89287 4.27593 9.00597C4.55149 9.11907 4.84677 9.17633 5.14464 9.17442C5.44251 9.17251 5.73703 9.11148 6.01113 8.99485C6.28522 8.87823 6.53343 8.70835 6.74136 8.49505L9.25166 5.9852C9.27118 5.96568 9.30284 5.96568 9.32236 5.9852L9.88796 6.5508C9.90748 6.57032 9.90748 6.60198 9.88796 6.62151L7.37766 9.1318C7.08514 9.42432 6.73787 9.65636 6.35568 9.81467C5.97348 9.97298 5.56385 10.0545 5.15016 10.0545C4.73648 10.0545 4.32684 9.97298 3.94465 9.81467C3.56245 9.65636 3.21518 9.42432 2.92266 9.1318C2.63014 8.83928 2.3981 8.49201 2.23979 8.10982C2.08148 7.72762 2 7.31799 2 6.9043C2 6.49062 2.08148 6.08098 2.23979 5.69879C2.3981 5.31659 2.63014 4.96932 2.92266 4.6768L5.46876 2.1316C5.89312 1.72175 6.46147 1.49496 7.05141 1.50009C7.64136 1.50521 8.20568 1.74184 8.62285 2.15901C9.04002 2.57618 9.27665 3.14051 9.28178 3.73045C9.2869 4.32039 9.06012 4.88875 8.65026 5.3131L6.10506 7.85965C5.97966 7.98502 5.8308 8.08446 5.66697 8.1523C5.50314 8.22014 5.32755 8.25505 5.15023 8.25503C4.97291 8.255 4.79733 8.22006 4.63351 8.15218C4.4697 8.0843 4.32086 7.98483 4.19549 7.85943C4.07012 7.73403 3.97067 7.58516 3.90283 7.42133C3.835 7.2575 3.80009 7.08191 3.80011 6.90459C3.80013 6.72727 3.83508 6.55169 3.90296 6.38788C3.97083 6.22406 4.07031 6.07522 4.19571 5.94985L6.70601 3.43956C6.72553 3.42003 6.75719 3.42003 6.77672 3.43956L7.34231 4.00515Z" />
</svg>
