<svg  viewBox="0 0 22 22"  xmlns="http://www.w3.org/2000/svg">
<path d="M3.66699 6.41667C3.66699 5.91041 4.0774 5.5 4.58366 5.5H17.417C17.9233 5.5 18.3337 5.91041 18.3337 6.41667C18.3337 6.92293 17.9233 7.33333 17.417 7.33333H4.58366C4.0774 7.33333 3.66699 6.92293 3.66699 6.41667Z" />
<path d="M6.41699 11C6.41699 10.4937 6.8274 10.0833 7.33366 10.0833H14.667C15.1733 10.0833 15.5837 10.4937 15.5837 11C15.5837 11.5063 15.1733 11.9167 14.667 11.9167H7.33366C6.8274 11.9167 6.41699 11.5063 6.41699 11Z" />
<path d="M9.16699 15.5833C9.16699 15.0771 9.5774 14.6667 10.0837 14.6667H11.917C12.4233 14.6667 12.8337 15.0771 12.8337 15.5833C12.8337 16.0896 12.4233 16.5 11.917 16.5H10.0837C9.5774 16.5 9.16699 16.0896 9.16699 15.5833Z" />
</svg>
