<svg width="24" height="24" viewBox="0 0 24 24" fill="none" xmlns="http://www.w3.org/2000/svg">
<path d="M14.71 10.79C14.617 10.6963 14.5064 10.6219 14.3846 10.5711C14.2627 10.5203 14.132 10.4942 14 10.4942C13.868 10.4942 13.7373 10.5203 13.6154 10.5711C13.4936 10.6219 13.383 10.6963 13.29 10.79L12 12.09L10.71 10.79C10.5217 10.6017 10.2663 10.4959 10 10.4959C9.7337 10.4959 9.4783 10.6017 9.29 10.79C9.1017 10.9783 8.99591 11.2337 8.99591 11.5C8.99591 11.7663 9.1017 12.0217 9.29 12.21L10.59 13.5L9.29 14.79C9.19627 14.883 9.12188 14.9936 9.07111 15.1154C9.02034 15.2373 8.9942 15.368 8.9942 15.5C8.9942 15.632 9.02034 15.7627 9.07111 15.8846C9.12188 16.0064 9.19627 16.117 9.29 16.21C9.38296 16.3037 9.49356 16.3781 9.61542 16.4289C9.73728 16.4797 9.86799 16.5058 10 16.5058C10.132 16.5058 10.2627 16.4797 10.3846 16.4289C10.5064 16.3781 10.617 16.3037 10.71 16.21L12 14.91L13.29 16.21C13.383 16.3037 13.4936 16.3781 13.6154 16.4289C13.7373 16.4797 13.868 16.5058 14 16.5058C14.132 16.5058 14.2627 16.4797 14.3846 16.4289C14.5064 16.3781 14.617 16.3037 14.71 16.21C14.8037 16.117 14.8781 16.0064 14.9289 15.8846C14.9797 15.7627 15.0058 15.632 15.0058 15.5C15.0058 15.368 14.9797 15.2373 14.9289 15.1154C14.8781 14.9936 14.8037 14.883 14.71 14.79L13.41 13.5L14.71 12.21C14.8037 12.117 14.8781 12.0064 14.9289 11.8846C14.9797 11.7627 15.0058 11.632 15.0058 11.5C15.0058 11.368 14.9797 11.2373 14.9289 11.1154C14.8781 10.9936 14.8037 10.883 14.71 10.79ZM19 5.50001H12.72L12.4 4.50001C12.1926 3.91324 11.8077 3.40551 11.2989 3.04717C10.7901 2.68883 10.1824 2.49761 9.56 2.50001H5C4.20435 2.50001 3.44129 2.81608 2.87868 3.37869C2.31607 3.9413 2 4.70436 2 5.50001V18.5C2 19.2957 2.31607 20.0587 2.87868 20.6213C3.44129 21.1839 4.20435 21.5 5 21.5H19C19.7956 21.5 20.5587 21.1839 21.1213 20.6213C21.6839 20.0587 22 19.2957 22 18.5V8.50001C22 7.70436 21.6839 6.9413 21.1213 6.37869C20.5587 5.81608 19.7956 5.50001 19 5.50001ZM20 18.5C20 18.7652 19.8946 19.0196 19.7071 19.2071C19.5196 19.3947 19.2652 19.5 19 19.5H5C4.73478 19.5 4.48043 19.3947 4.29289 19.2071C4.10536 19.0196 4 18.7652 4 18.5V5.50001C4 5.23479 4.10536 4.98044 4.29289 4.7929C4.48043 4.60536 4.73478 4.50001 5 4.50001H9.56C9.76964 4.49947 9.97416 4.56483 10.1446 4.68685C10.3151 4.80887 10.4429 4.98139 10.51 5.18001L11.05 6.82001C11.1171 7.01863 11.2449 7.19114 11.4154 7.31317C11.5858 7.43519 11.7904 7.50055 12 7.50001H19C19.2652 7.50001 19.5196 7.60536 19.7071 7.7929C19.8946 7.98044 20 8.23479 20 8.50001V18.5Z" fill="#5C5C5C"/>
</svg>
