<svg width="24" height="24" viewBox="0 0 24 24" fill="none" xmlns="http://www.w3.org/2000/svg">
<path d="M19 5.50001H12.72L12.4 4.50001C12.1926 3.91324 11.8077 3.40551 11.2989 3.04717C10.7901 2.68883 10.1824 2.49761 9.56 2.50001H5C4.20435 2.50001 3.44129 2.81608 2.87868 3.37869C2.31607 3.9413 2 4.70436 2 5.50001V18.5C2 19.2957 2.31607 20.0587 2.87868 20.6213C3.44129 21.1839 4.20435 21.5 5 21.5H19C19.7956 21.5 20.5587 21.1839 21.1213 20.6213C21.6839 20.0587 22 19.2957 22 18.5V8.50001C22 7.70436 21.6839 6.9413 21.1213 6.37869C20.5587 5.81608 19.7956 5.50001 19 5.50001Z" fill="#5C5C5C"/>
</svg>
