<svg width="24" height="24" viewBox="0 0 24 24" fill="none" xmlns="http://www.w3.org/2000/svg">
<path d="M22.5491 11.1066C22.3266 10.7971 22.0333 10.5463 21.694 10.3754C21.3547 10.2045 20.9794 10.1186 20.6001 10.125H20.3486V8.54179C20.3487 8.22588 20.2862 7.91314 20.1648 7.62187C20.0434 7.3306 19.8655 7.06666 19.6415 6.8455C19.4176 6.62434 19.1521 6.45041 18.8605 6.3339C18.569 6.21738 18.2574 6.16062 17.9438 6.16694H12.8512C12.6607 6.16581 12.4758 6.10186 12.3247 5.98487L9.18113 3.51503C8.75088 3.18132 8.2231 3.0004 7.68008 3.00048H3.40483C3.09127 2.99416 2.77961 3.05092 2.4881 3.16743C2.19659 3.28395 1.93109 3.45788 1.70714 3.67903C1.48319 3.90019 1.30529 4.16413 1.18387 4.4554C1.06245 4.74667 0.99994 5.05942 1 5.37532V19.6244C0.99932 20.0626 1.1249 20.4916 1.36151 20.8593C1.57897 21.2075 1.88037 21.4947 2.23763 21.694C2.5949 21.8933 2.99643 21.9983 3.40483 21.9993H18.3368C18.8499 22.0121 19.3532 21.856 19.7702 21.5545C20.1872 21.2531 20.4952 20.8228 20.6473 20.329L22.8949 13.2044C23.0031 12.8517 23.0282 12.4785 22.9682 12.1144C22.9081 11.7502 22.7647 11.4052 22.5491 11.1066ZM2.57178 5.37532C2.57159 5.26725 2.59337 5.16027 2.63578 5.061C2.67819 4.96172 2.74033 4.87225 2.81838 4.79808C2.89643 4.72392 2.98872 4.66663 3.08958 4.62977C3.19044 4.5929 3.29773 4.57722 3.40483 4.58371H7.68008C7.87322 4.58369 8.061 4.64767 8.21448 4.76578L11.358 7.23562C11.7853 7.56927 12.3106 7.75029 12.8512 7.75017H17.9438C18.0509 7.74369 18.1582 7.75936 18.2591 7.79623C18.3599 7.8331 18.4522 7.89038 18.5303 7.96455C18.6083 8.03871 18.6705 8.12819 18.7129 8.22746C18.7553 8.32674 18.7771 8.43371 18.7769 8.54179V10.125H6.2026C5.69346 10.1173 5.19553 10.2759 4.78329 10.577C4.37105 10.8781 4.06666 11.3055 3.91566 11.7953L2.57178 16.0938V5.37532ZM21.4332 12.7294L19.1855 19.854C19.1351 20.0223 19.0305 20.1688 18.8882 20.2706C18.7459 20.3724 18.574 20.4235 18.3996 20.416H3.4677C3.29045 20.4156 3.11761 20.3604 2.97259 20.2577L5.48744 12.2703C5.53789 12.102 5.64251 11.9554 5.78481 11.8537C5.9271 11.7519 6.09898 11.7007 6.27333 11.7083H20.6001C20.7326 11.7073 20.8634 11.7376 20.9821 11.7967C21.1008 11.8558 21.2041 11.9421 21.2839 12.0486C21.3587 12.1431 21.411 12.2536 21.4369 12.3716C21.4628 12.4896 21.4615 12.612 21.4332 12.7294Z" fill="#5C5C5C"/>
</svg>
