<svg width="25" height="24" viewBox="0 0 25 24" xmlns="http://www.w3.org/2000/svg">
<path fill-rule="evenodd" clip-rule="evenodd" d="M16.9063 14.97C16.5063 14.12 15.8663 13.41 15.0663 12.92V4.67C15.0563 3.97 14.7763 3.3 14.2863 2.8C13.7963 2.3 13.1363 2.02 12.4363 2C12.0863 2 11.7463 2.06 11.4263 2.19C11.1063 2.32 10.8163 2.51 10.5763 2.76C10.3363 3 10.1463 3.29 10.0163 3.61C9.88631 3.93 9.8163 4.27 9.8163 4.61V12.85C8.9163 13.42 8.21631 14.27 7.82631 15.27C7.44631 16.27 7.39629 17.37 7.68629 18.4C7.98629 19.44 8.60631 20.34 9.45631 20.99C10.3163 21.64 11.3563 21.99 12.4363 22C12.6263 22 12.8263 22 13.0263 21.96C14.1163 21.83 15.1363 21.34 15.9163 20.57C16.6963 19.8 17.1963 18.79 17.3363 17.7C17.4663 16.77 17.3163 15.82 16.9063 14.97ZM15.3063 17.43C15.2363 17.95 15.0463 18.43 14.7363 18.84C14.4263 19.25 14.0163 19.58 13.5463 19.78C13.0763 19.98 12.5663 20.06 12.0563 20C11.5463 19.94 11.0563 19.75 10.6463 19.45C10.2363 19.14 9.9063 18.73 9.6963 18.26C9.4963 17.79 9.4163 17.28 9.4763 16.77C9.5263 16.26 9.71631 15.77 10.0163 15.36C10.3263 14.94 10.7263 14.61 11.1963 14.41C11.3663 14.33 11.5163 14.2 11.6163 14.04C11.7163 13.88 11.7763 13.7 11.7663 13.51V4.65C11.7863 4.5 11.8563 4.36 11.9663 4.26C12.0763 4.15 12.2263 4.1 12.3763 4.1C12.5263 4.1 12.6663 4.15 12.7763 4.26C12.8963 4.36 12.9563 4.5 12.9763 4.65V13.47C12.9663 13.67 13.0263 13.87 13.1363 14.04C13.2563 14.21 13.4163 14.33 13.6063 14.4C14.1763 14.66 14.6563 15.09 14.9563 15.64C15.2563 16.18 15.3863 16.81 15.3063 17.43Z"/>
<path fill-rule="evenodd" clip-rule="evenodd" d="M13.9848 17.0197C13.9848 17.3297 13.8948 17.6297 13.7248 17.8897C13.5548 18.1397 13.3048 18.3397 13.0248 18.4597C12.7448 18.5697 12.4248 18.5997 12.1248 18.5497C11.8248 18.4897 11.5548 18.3397 11.3348 18.1197C11.1148 17.8997 10.9648 17.6297 10.9048 17.3297C10.8448 17.0297 10.8848 16.7097 10.9948 16.4297C11.1148 16.1497 11.3148 15.8997 11.5648 15.7297C11.8248 15.5597 12.1248 15.4697 12.4348 15.4697C12.8448 15.4697 13.2348 15.6397 13.5248 15.9297C13.8148 16.2197 13.9848 16.6097 13.9848 17.0197Z"/>
</svg>
