<svg width="25" height="24" viewBox="0 0 25 24" xmlns="http://www.w3.org/2000/svg">
<path d="M21.6309 3.82963C21.0778 3.2963 20.3568 3 19.5963 3H5.41359C4.64322 3 3.92222 3.2963 3.37901 3.82963C2.81605 4.37284 2.50988 5.1037 2.5 5.88395V13.963C2.50988 14.7333 2.81605 15.4642 3.37901 16.0074C3.92222 16.5407 4.64322 16.837 5.41359 16.837H10.1938L7.05309 19.2074C6.98395 19.2667 6.91483 19.3358 6.86545 19.4148C6.81606 19.5037 6.78642 19.5926 6.77655 19.6914C6.75679 19.7802 6.77655 19.879 6.7963 19.9778C6.82593 20.0667 6.86544 20.1556 6.9247 20.2346C7.04322 20.3827 7.221 20.4815 7.41853 20.5111H7.50741C7.67532 20.5111 7.83333 20.4617 7.96173 20.363L12.4259 17.0049L17.0383 20.363C17.1568 20.4617 17.3148 20.5111 17.4728 20.5111C17.5914 20.5111 17.7099 20.4914 17.8086 20.4321C17.9173 20.3827 18.0062 20.3136 18.0753 20.2148C18.1346 20.1457 18.1741 20.0469 18.2037 19.958C18.2235 19.8691 18.2235 19.7704 18.2136 19.6716C18.2037 19.5728 18.1642 19.484 18.1148 19.4049C18.0654 19.3259 17.9963 19.2469 17.9173 19.1975L14.6975 16.837H19.5963C20.3568 16.837 21.0778 16.5407 21.6309 16.0074C22.184 15.4642 22.4901 14.7333 22.5 13.9531V5.88395C22.4901 5.1037 22.184 4.38272 21.6309 3.82963ZM20.9691 5.88395V13.9531C20.9691 14.1407 20.9296 14.3185 20.8605 14.4864C20.7815 14.6543 20.6827 14.8025 20.5543 14.9309C20.4259 15.0593 20.2679 15.158 20.1 15.2272C19.9321 15.2963 19.7543 15.3259 19.5667 15.3259H5.42346C5.24569 15.3259 5.0679 15.2963 4.90988 15.2272C4.7321 15.158 4.58396 15.0593 4.45557 14.9309C4.31729 14.8025 4.21853 14.6543 4.1494 14.4864C4.08026 14.3185 4.04074 14.1407 4.03087 13.9531V5.88395C4.04074 5.50864 4.1889 5.16296 4.45557 4.90617C4.71236 4.65926 5.06791 4.51111 5.42346 4.51111H19.5864C19.7642 4.51111 19.9321 4.54074 20.1 4.60987C20.2679 4.67901 20.4259 4.77778 20.5543 4.90617C20.6827 5.03457 20.7914 5.18271 20.8605 5.35061C20.9296 5.51852 20.9691 5.69629 20.9691 5.88395Z"/>
<path d="M18.1452 7.15801V10.3876C18.1452 10.5654 18.086 10.7234 17.9576 10.842C17.7205 11.0889 17.2958 11.079 17.0489 10.842C16.9304 10.7234 16.8613 10.5654 16.8613 10.3876V8.66912L15.0045 10.4765C14.7674 10.7136 14.3427 10.7136 14.1057 10.4765L13.6316 10.0123L11.123 12.4716C10.8761 12.7086 10.4514 12.7086 10.2144 12.4716L9.56251 11.8296L8.36744 13.0938C8.24892 13.2123 8.0909 13.2815 7.91313 13.2913H7.89337C7.73534 13.2913 7.57732 13.2321 7.4588 13.1234C7.39954 13.0642 7.34028 12.995 7.31066 12.916C7.27115 12.837 7.25139 12.758 7.24151 12.6691C7.24151 12.5901 7.26127 12.5012 7.2909 12.4222C7.32053 12.3432 7.36991 12.2741 7.42917 12.2049L9.06868 10.4765C9.12794 10.4173 9.19707 10.3679 9.27608 10.3383C9.35509 10.2988 9.44399 10.279 9.53288 10.279C9.70078 10.279 9.86867 10.3481 9.98719 10.4666L10.6588 11.1185L13.1674 8.64936C13.4242 8.41233 13.839 8.41233 14.0761 8.64936L14.5699 9.13332L15.9427 7.78023H14.1847C14.0168 7.78023 13.8588 7.71109 13.7502 7.59257C13.6415 7.47406 13.5724 7.31603 13.5724 7.14813C13.5724 6.99011 13.6415 6.83208 13.7502 6.71356C13.8588 6.59504 14.0168 6.52591 14.1748 6.52591H17.4835C17.5724 6.51603 17.6613 6.53579 17.7403 6.56542C17.8884 6.63455 18.0168 6.74319 18.086 6.89134L18.1057 6.92097C18.1353 6.99011 18.1551 7.06912 18.1452 7.15801Z"/>
</svg>
