<svg viewBox="0 0 24 24" xmlns="http://www.w3.org/2000/svg">
<path fill-rule="evenodd" clip-rule="evenodd" d="M5.43758 18.6662C5.43758 18.2635 5.76404 17.937 6.16675 17.937H11.1667C11.5695 17.937 11.8959 18.2635 11.8959 18.6662C11.8959 19.0689 11.5695 19.3954 11.1667 19.3954H6.16675C5.76404 19.3954 5.43758 19.0689 5.43758 18.6662Z" />
<path d="M11.6462 18.666C11.6461 18.4015 11.4313 18.1875 11.1667 18.1875H9.84253L9.60132 18.958C9.58056 19.0244 9.55298 19.0871 9.52026 19.1455H11.1667C11.4314 19.1455 11.6462 18.9307 11.6462 18.666ZM17.9744 13.8076C18.3568 13.4252 18.9767 13.4252 19.3591 13.8076C19.7413 14.19 19.7414 14.8101 19.3591 15.1924L17.9675 16.583L19.3591 17.9736C19.7415 18.356 19.7414 18.976 19.3591 19.3584C18.9767 19.7408 18.3568 19.7408 17.9744 19.3584L16.5828 17.9668L15.1921 19.3584C14.8097 19.7407 14.1897 19.7408 13.8074 19.3584C13.4253 18.976 13.4251 18.3559 13.8074 17.9736L15.198 16.583L13.8074 15.1924C13.4251 14.8101 13.4254 14.19 13.8074 13.8076C14.1898 13.4252 14.8098 13.4252 15.1921 13.8076L16.5828 15.1982L17.9744 13.8076ZM8.20972 18.5234C8.13081 18.776 8.27159 19.0451 8.52417 19.124C8.77647 19.2026 9.0447 19.0617 9.12378 18.8096L9.31812 18.1875H8.31421L8.20972 18.5234ZM14.1609 18.3271C13.9739 18.5142 13.974 18.8178 14.1609 19.0049C14.348 19.192 14.6515 19.1919 14.8386 19.0049L16.2292 17.6133L15.5515 16.9355L14.1609 18.3271ZM16.9363 17.6133L18.3279 19.0049C18.515 19.192 18.8185 19.192 19.0056 19.0049C19.1926 18.8177 19.1927 18.5142 19.0056 18.3271L17.614 16.9355L16.9363 17.6133ZM8.47046 17.6875H9.47437L13.0291 6.3125H12.0251L8.47046 17.6875ZM15.905 16.582L16.5828 17.2598L17.2605 16.582L16.5828 15.9053L15.905 16.582ZM14.8386 14.1611C14.6515 13.974 14.348 13.974 14.1609 14.1611C13.9743 14.3481 13.9743 14.6509 14.1609 14.8379L15.5515 16.2285L16.2292 15.5518L14.8386 14.1611ZM19.0056 14.1611C18.8185 13.974 18.515 13.974 18.3279 14.1611L16.9363 15.5518L17.614 16.2285L19.0056 14.8379C19.1924 14.6508 19.1924 14.3482 19.0056 14.1611ZM19.1462 5.33301C19.1462 5.06837 18.9314 4.85352 18.6667 4.85352H13.6863C13.8137 5.0804 13.8521 5.357 13.7683 5.625L13.7097 5.8125H17.9373C18.0753 5.8125 18.1873 5.92443 18.1873 6.0625V7.83301C18.1873 8.09758 18.4022 8.3125 18.6667 8.3125C18.9313 8.3125 19.1462 8.09758 19.1462 7.83301V5.33301ZM12.9763 4.87598C12.7237 4.79704 12.4547 4.93784 12.3757 5.19043L12.1814 5.8125H13.1853L13.2908 5.47559C13.3696 5.22309 13.2288 4.95493 12.9763 4.87598ZM5.68726 18.666C5.68726 18.9307 5.90211 19.1455 6.16675 19.1455H7.81421C7.68669 18.9186 7.64841 18.6421 7.73218 18.374L7.79077 18.1875H6.16675C5.90218 18.1875 5.68736 18.4015 5.68726 18.666ZM4.85425 7.83301C4.85432 8.09758 5.06915 8.3125 5.33374 8.3125C5.59818 8.31232 5.81219 8.09748 5.81226 7.83301V6.0625C5.81226 5.92454 5.92433 5.81268 6.06226 5.8125H11.658L11.8992 5.04102C11.9199 4.97467 11.9466 4.91184 11.9792 4.85352H5.33374C5.0691 4.85352 4.85425 5.06837 4.85425 5.33301V7.83301ZM19.6462 7.83301C19.6462 8.37373 19.2075 8.8125 18.6667 8.8125C18.126 8.8125 17.6873 8.37373 17.6873 7.83301V6.3125H13.5535L9.99878 17.6875H11.1667C11.7075 17.6875 12.1461 18.1253 12.1462 18.666C12.1462 19.2068 11.7075 19.6455 11.1667 19.6455H6.16675C5.62597 19.6455 5.18726 19.2068 5.18726 18.666C5.18736 18.1253 5.62603 17.6875 6.16675 17.6875H7.94702L11.5017 6.3125H6.31226V7.83301C6.31219 8.37362 5.87433 8.81232 5.33374 8.8125C4.793 8.8125 4.35432 8.37373 4.35425 7.83301V5.33301C4.35425 4.79223 4.79296 4.35352 5.33374 4.35352H18.6667C19.2075 4.35352 19.6462 4.79223 19.6462 5.33301V7.83301Z" />
<path fill-rule="evenodd" clip-rule="evenodd" d="M12.85 4.60371H18.6667C19.0695 4.60371 19.3959 4.93017 19.3959 5.33288V7.83288C19.3959 8.23558 19.0695 8.56204 18.6667 8.56204C18.264 8.56204 17.9376 8.23558 17.9376 7.83288V6.06204H13.3695L9.36272 18.8837C9.24261 19.2681 8.83363 19.4823 8.44926 19.3622C8.06488 19.2421 7.85066 18.8331 7.97077 18.4487L11.8416 6.06204H6.06258V7.83288C6.06258 8.23558 5.73612 8.56204 5.33341 8.56204C4.93071 8.56204 4.60425 8.23558 4.60425 7.83288V5.33288C4.60425 4.93017 4.93071 4.60371 5.33341 4.60371H12.8164C12.8276 4.60345 12.8388 4.60345 12.85 4.60371ZM12.3757 5.19043C12.4547 4.93784 12.7237 4.79704 12.9763 4.87598C13.2288 4.95493 13.3696 5.22309 13.2908 5.47559L13.1853 5.8125H12.1814L12.3757 5.19043Z" />
<path d="M12.9763 4.87598C12.7237 4.79704 12.4547 4.93784 12.3757 5.19043L12.1814 5.8125H13.1853L13.2908 5.47559C13.3696 5.22309 13.2288 4.95493 12.9763 4.87598Z" />
<path fill-rule="evenodd" clip-rule="evenodd" d="M15.0157 13.9839C14.7309 13.6992 14.2692 13.6992 13.9845 13.9839C13.6997 14.2687 13.6997 14.7304 13.9845 15.0151L15.5522 16.5829L13.9845 18.1506C13.6997 18.4354 13.6997 18.8971 13.9845 19.1818C14.2692 19.4666 14.7309 19.4666 15.0157 19.1818L16.5834 17.6141L18.1511 19.1818C18.4359 19.4666 18.8976 19.4666 19.1823 19.1818C19.4671 18.8971 19.4671 18.4354 19.1823 18.1506L17.6146 16.5829L19.1823 15.0151C19.4671 14.7304 19.4671 14.2687 19.1823 13.9839C18.8976 13.6992 18.4359 13.6992 18.1511 13.9839L16.5834 15.5517L15.0157 13.9839ZM16.5828 17.2598L15.905 16.582L16.5828 15.9053L17.2605 16.582L16.5828 17.2598Z" />
<path d="M15.905 16.582L16.5828 17.2598L17.2605 16.582L16.5828 15.9053L15.905 16.582Z" />
</svg>
