<svg width="16" height="21" viewBox="0 0 16 21" xmlns="http://www.w3.org/2000/svg">
<path d="M10 5.5V0.982843C10 0.804662 10.2154 0.715428 10.3414 0.841421L15.6586 6.15858C15.7846 6.28457 15.6953 6.5 15.5172 6.5H11C10.4477 6.5 10 6.05228 10 5.5Z" />
<path fill-rule="evenodd" clip-rule="evenodd" d="M16 17.5V8.5H11C9.34315 8.5 8 7.15685 8 5.5V0.5H3C1.34315 0.5 0 1.84315 0 3.5V17.5C0 19.1569 1.34315 20.5 3 20.5H13C14.6569 20.5 16 19.1569 16 17.5ZM13 15.5H6C5.44772 15.5 5 15.9477 5 16.5C5 17.0523 5.44772 17.5 6 17.5H13C13.5523 17.5 14 17.0523 14 16.5C14 15.9477 13.5523 15.5 13 15.5ZM2 16.5C2 15.9477 2.44772 15.5 3 15.5C3.55228 15.5 4 15.9477 4 16.5C4 17.0523 3.55228 17.5 3 17.5C2.44772 17.5 2 17.0523 2 16.5ZM3 11.5C2.44772 11.5 2 11.9477 2 12.5C2 13.0523 2.44772 13.5 3 13.5C3.55228 13.5 4 13.0523 4 12.5C4 11.9477 3.55228 11.5 3 11.5ZM5 12.5C5 11.9477 5.44772 11.5 6 11.5H13C13.5523 11.5 14 11.9477 14 12.5C14 13.0523 13.5523 13.5 13 13.5H6C5.44772 13.5 5 13.0523 5 12.5Z" />
</svg>
