<svg  viewBox="0 0 20 20" xmlns="http://www.w3.org/2000/svg">
<path fill-rule="evenodd" clip-rule="evenodd" d="M10.6003 4.58339H11.2503C11.4804 4.58339 11.667 4.76994 11.667 5.00006V5.83339C11.667 6.06351 11.4804 6.25006 11.2503 6.25006H10.0003C9.82562 6.25051 9.6552 6.19604 9.51313 6.09436C9.37107 5.99267 9.26456 5.84891 9.20866 5.68339L8.75866 4.31673C8.70275 4.15121 8.59624 4.00745 8.45418 3.90576C8.31212 3.80408 8.1417 3.74961 7.96699 3.75006H4.16699C3.94598 3.75006 3.73402 3.83786 3.57774 3.99414C3.42146 4.15042 3.33366 4.36238 3.33366 4.58339V15.4167C3.33366 15.6377 3.42146 15.8497 3.57774 16.006C3.73402 16.1623 3.94598 16.2501 4.16699 16.2501H15.8337C16.0547 16.2501 16.2666 16.1623 16.4229 16.006C16.5792 15.8497 16.667 15.6377 16.667 15.4167V11.25C16.667 11.0199 16.8535 10.8334 17.0837 10.8334H17.917C18.1471 10.8334 18.3337 11.0199 18.3337 11.25V15.4167C18.3337 16.0798 18.0703 16.7157 17.6014 17.1845C17.1326 17.6533 16.4967 17.9167 15.8337 17.9167H4.16699C3.50395 17.9167 2.86807 17.6533 2.39923 17.1845C1.93038 16.7157 1.66699 16.0798 1.66699 15.4167V4.58339C1.66699 3.92035 1.93038 3.28447 2.39923 2.81563C2.86807 2.34678 3.50395 2.08339 4.16699 2.08339H7.96699C8.48562 2.08139 8.99204 2.24074 9.41608 2.53936C9.84011 2.83798 10.1608 3.26108 10.3337 3.75006L10.6003 4.58339Z"/>
<path d="M16.667 5.34509V8.33337C16.667 8.79361 17.0401 9.16671 17.5003 9.16671C17.9606 9.16671 18.3337 8.79361 18.3337 8.33337V3.33337C18.3337 2.87314 17.9606 2.50004 17.5003 2.50004H12.5003C12.0401 2.50004 11.667 2.87314 11.667 3.33337C11.667 3.79361 12.0401 4.16671 12.5003 4.16671H15.4886L7.74447 11.9108C7.41903 12.2363 7.41903 12.7638 7.74447 13.0892C8.0699 13.4147 8.59741 13.4147 8.92285 13.0892L16.667 5.34509Z" />
</svg>
