<svg width="24" height="24" viewBox="0 0 24 24" fill="none" xmlns="http://www.w3.org/2000/svg">
<path fill-rule="evenodd" clip-rule="evenodd" d="M12.72 5.50002H13.5C13.7761 5.50002 14 5.72388 14 6.00002V7.00002C14 7.27617 13.7761 7.50002 13.5 7.50002H12C11.7904 7.50056 11.5858 7.4352 11.4154 7.31318C11.2449 7.19116 11.1171 7.01864 11.05 6.82002L10.51 5.18002C10.4429 4.9814 10.3151 4.80889 10.1446 4.68686C9.97416 4.56484 9.76964 4.49948 9.56 4.50002H5C4.73478 4.50002 4.48043 4.60538 4.29289 4.79292C4.10536 4.98045 4 5.23481 4 5.50002V18.5C4 18.7652 4.10536 19.0196 4.29289 19.2071C4.48043 19.3947 4.73478 19.5 5 19.5H19C19.2652 19.5 19.5196 19.3947 19.7071 19.2071C19.8946 19.0196 20 18.7652 20 18.5V13.5C20 13.2239 20.2239 13 20.5 13H21.5C21.7761 13 22 13.2239 22 13.5V18.5C22 19.2957 21.6839 20.0587 21.1213 20.6213C20.5587 21.184 19.7956 21.5 19 21.5H5C4.20435 21.5 3.44129 21.184 2.87868 20.6213C2.31607 20.0587 2 19.2957 2 18.5V5.50002C2 4.70437 2.31607 3.94131 2.87868 3.3787C3.44129 2.81609 4.20435 2.50002 5 2.50002H9.56C10.1824 2.49762 10.7901 2.68884 11.2989 3.04718C11.8077 3.40553 12.1926 3.91325 12.4 4.50002L12.72 5.50002Z" fill="#5C5C5C"/>
<path d="M20 6.41406V10C20 10.5523 20.4477 11 21 11C21.5523 11 22 10.5523 22 10V4C22 3.44772 21.5523 3 21 3H15C14.4477 3 14 3.44772 14 4C14 4.55228 14.4477 5 15 5H18.5859L9.29297 14.293C8.90244 14.6835 8.90244 15.3165 9.29297 15.707C9.68349 16.0976 10.3165 16.0976 10.707 15.707L20 6.41406Z" fill="#5C5C5C"/>
</svg>
