<svg width="24" height="24" viewBox="0 0 24 24" xmlns="http://www.w3.org/2000/svg">
<path d="M3 5C3 3.89543 3.89543 3 5 3H6.8C6.91046 3 7 3.08954 7 3.2V6.8C7 6.91046 6.91046 7 6.8 7H3.2C3.08954 7 3 6.91046 3 6.8V5Z" />
<path d="M8 3.2C8 3.08954 8.08954 3 8.2 3H15.8C15.9105 3 16 3.08954 16 3.2V6.8C16 6.91046 15.9105 7 15.8 7H8.2C8.08954 7 8 6.91046 8 6.8V3.2Z" />
<path d="M17 3.2C17 3.08954 17.0895 3 17.2 3H19C20.1046 3 21 3.89543 21 5V6.8C21 6.91046 20.9105 7 20.8 7H17.2C17.0895 7 17 6.91046 17 6.8V3.2Z" />
<path d="M3 17.2C3 17.0895 3.08954 17 3.2 17H6.8C6.91046 17 7 17.0895 7 17.2V20.8C7 20.9105 6.91046 21 6.8 21H5C3.89543 21 3 20.1046 3 19V17.2Z" />
<path d="M8 17.2C8 17.0895 8.08954 17 8.2 17H15.8C15.9105 17 16 17.0895 16 17.2V20.8C16 20.9105 15.9105 21 15.8 21H8.2C8.08954 21 8 20.9105 8 20.8V17.2Z" />
<path d="M17 17.2C17 17.0895 17.0895 17 17.2 17H20.8C20.9105 17 21 17.0895 21 17.2V19C21 20.1046 20.1046 21 19 21H17.2C17.0895 21 17 20.9105 17 20.8V17.2Z" />
<path d="M3 8.2C3 8.08954 3.08954 8 3.2 8H6.8C6.91046 8 7 8.08954 7 8.2V15.8C7 15.9105 6.91046 16 6.8 16H3.2C3.08954 16 3 15.9105 3 15.8V8.2Z" />
<path d="M8 8.2C8 8.08954 8.08954 8 8.2 8H15.8C15.9105 8 16 8.08954 16 8.2V15.8C16 15.9105 15.9105 16 15.8 16H8.2C8.08954 16 8 15.9105 8 15.8V8.2Z" />
<path d="M17 8.2C17 8.08954 17.0895 8 17.2 8H20.8C20.9105 8 21 8.08954 21 8.2V15.8C21 15.9105 20.9105 16 20.8 16H17.2C17.0895 16 17 15.9105 17 15.8V8.2Z" />
</svg>
