<svg width="24" height="24" viewBox="0 0 24 24" fill="none" xmlns="http://www.w3.org/2000/svg">
<path d="M10.4482 15.7864C10.781 15.4589 11.3074 15.4387 11.6644 15.7253L11.7337 15.7864L13.5518 17.5755C13.6465 17.6687 13.7593 17.7427 13.883 17.7931C14.0065 17.8434 14.139 17.8691 14.2727 17.8691C14.4064 17.8691 14.5388 17.8434 14.6624 17.7931C14.7861 17.7427 14.8989 17.6687 14.9936 17.5755C15.0882 17.4824 15.1634 17.3714 15.2146 17.2497C15.2657 17.1281 15.2918 16.9978 15.2918 16.8662C15.2918 16.7346 15.2657 16.6043 15.2146 16.4827C15.1762 16.3915 15.1244 16.3062 15.061 16.2302L14.9936 16.1568L14.9314 16.0887C14.6402 15.7373 14.6607 15.2194 14.9936 14.8919C15.3486 14.5425 15.924 14.5425 16.279 14.8919C16.5425 15.1512 16.7517 15.459 16.8943 15.7978C17.0368 16.1365 17.11 16.4996 17.11 16.8662C17.11 17.2328 17.0368 17.5959 16.8943 17.9346C16.7517 18.2734 16.5425 18.5812 16.279 18.8405C16.0156 19.0998 15.7027 19.3056 15.3584 19.4459C15.0142 19.5862 14.6453 19.6582 14.2727 19.6582C13.9001 19.6582 13.5312 19.5862 13.1869 19.4459C12.8427 19.3056 12.5298 19.0998 12.2663 18.8405L10.4482 17.0514C10.0932 16.702 10.0932 16.1358 10.4482 15.7864Z" fill="#5C5C5C"/>
<path d="M13.1752 13.1023C13.5301 12.7532 14.1057 12.7534 14.4607 13.1023L16.7334 15.3387C16.9245 15.5268 17.184 15.6331 17.4542 15.6331C17.7246 15.6331 17.9839 15.5268 18.1751 15.3387C18.3661 15.1507 18.4733 14.8961 18.4734 14.6302C18.4734 14.3643 18.3662 14.109 18.1751 13.9209L14.648 10.4493C14.3071 10.1143 13.8451 9.92685 13.3634 9.92685C12.8817 9.9269 12.4197 10.1151 12.0788 10.4501L12.0779 10.4493L11.2789 11.2372C10.7468 11.7607 10.025 12.0549 9.27257 12.0549C8.52014 12.0549 7.79829 11.7607 7.26621 11.2372C6.73418 10.7137 6.43538 10.0033 6.43526 9.26292C6.43526 8.52239 6.73408 7.81138 7.26621 7.28775L9.8221 4.77357C10.7946 3.81925 12.0625 3.21094 13.4256 3.04561C14.7882 2.88038 16.1683 3.16686 17.3468 3.85979L17.7738 4.11051L17.7792 4.11313C17.9486 4.21369 18.1458 4.25688 18.3411 4.23718L18.4246 4.22495L20.0021 3.91308C20.4943 3.81566 20.9738 4.12935 21.0728 4.6137C21.1716 5.09793 20.8529 5.56897 20.3608 5.66637L18.7788 5.97999L18.7752 5.98086C18.1115 6.10941 17.4231 5.99008 16.8435 5.64715L16.4164 5.39731L16.4156 5.39643C15.584 4.90718 14.61 4.70506 13.6484 4.82161C12.6867 4.93822 11.7919 5.367 11.1058 6.04027L8.5517 8.55357C8.36073 8.74166 8.25341 8.99704 8.25341 9.26292C8.25353 9.52865 8.36084 9.78342 8.5517 9.9714C8.74282 10.1595 9.00229 10.2657 9.27257 10.2658C9.54292 10.2658 9.80227 10.1595 9.99344 9.9714L10.7933 9.1843C11.4751 8.51431 12.3999 8.1378 13.3634 8.13774C14.2669 8.13774 15.1361 8.46841 15.803 9.062L15.9335 9.1843L19.4606 12.6551C19.9927 13.1787 20.2916 13.8897 20.2916 14.6302C20.2914 15.3706 19.9926 16.081 19.4606 16.6045C18.9285 17.128 18.2066 17.4222 17.4542 17.4222C16.7018 17.4222 15.98 17.1281 15.4479 16.6045L13.1752 14.3682C12.8202 14.0188 12.8202 13.4517 13.1752 13.1023Z" fill="#5C5C5C"/>
<path d="M20.0991 3.00413C20.568 2.96218 20.9862 3.27867 21.0739 3.72397L21.0872 3.81395L21.9963 13.654C22.0194 13.9043 21.9341 14.1533 21.7619 14.3389C21.5897 14.5243 21.346 14.6298 21.0907 14.6298H19.2726C18.7705 14.6298 18.3635 14.2293 18.3635 13.7353C18.3635 13.2412 18.7705 12.8407 19.2726 12.8407H20.0947L19.2761 3.97643L19.2726 3.88471C19.2774 3.43139 19.6305 3.04618 20.0991 3.00413Z" fill="#5C5C5C"/>
<path d="M3.90089 3.00413C4.40078 3.04898 4.7693 3.48449 4.72385 3.97643L3.85295 13.3989L9.46098 18.9174C9.65215 19.1055 9.9115 19.2109 10.1819 19.2109C10.4522 19.2109 10.7116 19.1055 10.9027 18.9174C11.0939 18.7293 11.201 18.4741 11.201 18.208C11.201 17.9751 11.1189 17.7506 10.9702 17.572L10.9027 17.4987L10.8406 17.4305C10.5494 17.0792 10.5699 16.5612 10.9027 16.2337C11.2355 15.9062 11.7619 15.886 12.119 16.1726L12.1882 16.2337L12.285 16.3342C12.7563 16.8464 13.0192 17.5137 13.0192 18.208C13.0192 18.9486 12.7203 19.6587 12.1882 20.1823C11.6561 20.706 10.9344 21 10.1819 21C9.4293 21 8.70763 20.706 8.1755 20.1823L2.26651 14.3677C2.07574 14.18 1.9793 13.9184 2.00373 13.654L2.91281 3.81395C2.95838 3.32205 3.40096 2.95941 3.90089 3.00413Z" fill="#5C5C5C"/>
<path d="M11.0909 3.89519C11.593 3.89519 12 4.29569 12 4.78974C12 5.28379 11.593 5.68429 11.0909 5.68429H3.81833C3.31626 5.68429 2.90925 5.28379 2.90925 4.78974C2.90925 4.29569 3.31626 3.89519 3.81833 3.89519H11.0909Z" fill="#5C5C5C"/>
</svg>
