<svg width="24" height="24" viewBox="0 0 24 24" fill="none" xmlns="http://www.w3.org/2000/svg">
<path d="M15.8691 2.22461C16.2619 1.90426 16.8409 1.92685 17.207 2.29297L19.9072 4.99316L19.9756 5.06836C20.2963 5.46114 20.2735 6.04099 19.9072 6.40723C19.541 6.77346 18.9611 6.79626 18.5684 6.47559L18.4932 6.40723L17.5 5.41406V7.08594L19.9072 9.49316L19.9756 9.56836C20.2963 9.96114 20.2735 10.541 19.9072 10.9072C19.541 11.2735 18.9611 11.2963 18.5684 10.9756L18.4932 10.9072L17.5 9.91406V13.5127L21.8477 20.4697C22.0402 20.7778 22.051 21.1665 21.875 21.4844C21.6988 21.8023 21.3635 22 21 22H3C2.63647 22 2.30123 21.8023 2.125 21.4844C1.94903 21.1665 1.95977 20.7778 2.15234 20.4697L6.65234 13.2695L6.72656 13.166C6.91504 12.936 7.19823 12.7998 7.5 12.7998H15.5V9.91406L14.5068 10.9072C14.1163 11.2976 13.4832 11.2977 13.0928 10.9072C12.7023 10.5168 12.7024 9.8837 13.0928 9.49316L15.5 7.08594V5.41406L14.5068 6.40723C14.1163 6.79756 13.4832 6.79769 13.0928 6.40723C12.7023 6.01677 12.7024 5.3837 13.0928 4.99316L15.793 2.29297L15.8691 2.22461ZM14.3545 20H19.1963L15.9463 14.7998H11.1045L14.3545 20ZM9.40039 20H11.9961L9.40039 15.8467V20ZM4.80371 20H7.40039V15.8457L4.80371 20ZM5.59961 4.7998C5.5995 4.35807 5.24157 4 4.7998 4C4.35813 4.00011 4.00011 4.35813 4 4.7998C4 5.24157 4.35807 5.5995 4.7998 5.59961C5.24163 5.59961 5.59961 5.24163 5.59961 4.7998ZM7.59961 4.7998C7.59961 6.3462 6.3462 7.59961 4.7998 7.59961C3.2535 7.5995 2 6.34614 2 4.7998C2.00011 3.25356 3.25356 2.00011 4.7998 2C6.34614 2 7.5995 3.2535 7.59961 4.7998Z" fill="#5C5C5C"/>
</svg>
