<svg width="24" height="24" viewBox="0 0 24 24" fill="none" xmlns="http://www.w3.org/2000/svg">
<path fill-rule="evenodd" clip-rule="evenodd" d="M13.8787 2.70711C15.0503 1.53554 16.9497 1.53553 18.1213 2.70711L19.2929 3.87868C20.4645 5.05026 20.4645 6.94975 19.2929 8.12132L9.85355 17.5607C9.57225 17.842 9.19072 18 8.79289 18H5.5C4.67157 18 4 17.3284 4 16.5V13.2071C4 12.8093 4.15804 12.4278 4.43934 12.1464L13.8787 2.70711ZM16.7071 4.12132C16.3166 3.7308 15.6834 3.7308 15.2929 4.12132L14.4142 5L17 7.58579L17.8787 6.70711C18.2692 6.31659 18.2692 5.68342 17.8787 5.2929L16.7071 4.12132ZM15.5858 9L13 6.41422L6 13.4142V16H8.58579L15.5858 9ZM22 21C22 21.5523 21.5523 22 21 22H3C2.44772 22 2 21.5523 2 21C2 20.4477 2.44772 20 3 20H21C21.5523 20 22 20.4477 22 21Z" fill="#5C5C5C"/>
</svg>
