<svg viewBox="0 0 18 18" fill="none" xmlns="http://www.w3.org/2000/svg">
<path fill-rule="evenodd" clip-rule="evenodd" d="M10.409 2.0301C11.2877 1.15143 12.7123 1.15142 13.591 2.0301L14.4697 2.90878C15.3483 3.78746 15.3483 5.21208 14.4697 6.09076L7.39016 13.1703C7.17919 13.3812 6.89304 13.4998 6.59467 13.4998H4.125C3.50368 13.4998 3 12.9961 3 12.3748V9.9051C3 9.60674 3.11853 9.32059 3.3295 9.10961L10.409 2.0301ZM12.5303 3.09076C12.2374 2.79787 11.7626 2.79787 11.4697 3.09076L10.8107 3.74977L12.75 5.68911L13.409 5.0301C13.7019 4.73721 13.7019 4.26234 13.409 3.96944L12.5303 3.09076ZM11.6893 6.74977L9.75 4.81043L4.5 10.0604V11.9998H6.43934L11.6893 6.74977ZM16.5 15.7498C16.5 16.164 16.1642 16.4998 15.75 16.4998H2.25C1.83579 16.4998 1.5 16.164 1.5 15.7498C1.5 15.3356 1.83579 14.9998 2.25 14.9998H15.75C16.1642 14.9998 16.5 15.3356 16.5 15.7498Z" />
</svg>
