<svg width="24" height="24" viewBox="0 0 24 24" fill="none" xmlns="http://www.w3.org/2000/svg">
<path d="M19.8571 5.65385H16.2857V4.92308C16.2857 4.53545 16.4362 4.1637 16.7041 3.88961C16.972 3.61552 17.3354 3.46154 17.7143 3.46154C17.9037 3.46154 18.0854 3.38455 18.2194 3.2475C18.3533 3.11046 18.4286 2.92458 18.4286 2.73077C18.4286 2.53696 18.3533 2.35108 18.2194 2.21404C18.0854 2.07699 17.9037 2 17.7143 2C17.3086 2.00053 16.9077 2.08943 16.5382 2.26079C16.1687 2.43215 15.8392 2.68205 15.5714 2.99385C15.3037 2.68205 14.9741 2.43215 14.6046 2.26079C14.2352 2.08943 13.8342 2.00053 13.4286 2C13.2391 2 13.0575 2.07699 12.9235 2.21404C12.7895 2.35108 12.7143 2.53696 12.7143 2.73077C12.7143 2.92458 12.7895 3.11046 12.9235 3.2475C13.0575 3.38455 13.2391 3.46154 13.4286 3.46154C13.8075 3.46154 14.1708 3.61552 14.4387 3.88961C14.7066 4.1637 14.8571 4.53545 14.8571 4.92308V5.65385H4.14286C3.57454 5.65385 3.02949 5.88482 2.62763 6.29596C2.22576 6.7071 2 7.26472 2 7.84615V15.1538C2 15.7353 2.22576 16.2929 2.62763 16.704C3.02949 17.1152 3.57454 17.3462 4.14286 17.3462H14.8571V18.0769C14.8571 18.4645 14.7066 18.8363 14.4387 19.1104C14.1708 19.3845 13.8075 19.5385 13.4286 19.5385C13.2391 19.5385 13.0575 19.6155 12.9235 19.7525C12.7895 19.8895 12.7143 20.0754 12.7143 20.2692C12.7143 20.463 12.7895 20.6489 12.9235 20.786C13.0575 20.923 13.2391 21 13.4286 21C13.8342 20.9995 14.2352 20.9106 14.6046 20.7392C14.9741 20.5678 15.3037 20.318 15.5714 20.0062C15.8392 20.318 16.1687 20.5678 16.5382 20.7392C16.9077 20.9106 17.3086 20.9995 17.7143 21C17.9037 21 18.0854 20.923 18.2194 20.786C18.3533 20.6489 18.4286 20.463 18.4286 20.2692C18.4286 20.0754 18.3533 19.8895 18.2194 19.7525C18.0854 19.6155 17.9037 19.5385 17.7143 19.5385C17.3354 19.5385 16.972 19.3845 16.7041 19.1104C16.4362 18.8363 16.2857 18.4645 16.2857 18.0769V17.3462H19.8571C20.4255 17.3462 20.9705 17.1152 21.3724 16.704C21.7742 16.2929 22 15.7353 22 15.1538V7.84615C22 7.26472 21.7742 6.7071 21.3724 6.29596C20.9705 5.88482 20.4255 5.65385 19.8571 5.65385ZM4.14286 15.8846C3.95342 15.8846 3.77174 15.8076 3.63778 15.6706C3.50383 15.5335 3.42857 15.3477 3.42857 15.1538V7.84615C3.42857 7.65234 3.50383 7.46647 3.63778 7.32942C3.77174 7.19238 3.95342 7.11538 4.14286 7.11538H14.8571V15.8846H4.14286ZM20.5714 15.1538C20.5714 15.3477 20.4962 15.5335 20.3622 15.6706C20.2283 15.8076 20.0466 15.8846 19.8571 15.8846H16.2857V7.11538H19.8571C20.0466 7.11538 20.2283 7.19238 20.3622 7.32942C20.4962 7.46647 20.5714 7.65234 20.5714 7.84615V15.1538Z" fill="#5C5C5C"/>
<path d="M8.42857 8.57692H5.57143C5.38199 8.57692 5.20031 8.65391 5.06635 8.79096C4.9324 8.92801 4.85714 9.11388 4.85714 9.30769C4.85714 9.5015 4.9324 9.68738 5.06635 9.82442C5.20031 9.96147 5.38199 10.0385 5.57143 10.0385H6.28571V13.6923C6.28571 13.8861 6.36097 14.072 6.49492 14.209C6.62888 14.3461 6.81056 14.4231 7 14.4231C7.18944 14.4231 7.37112 14.3461 7.50508 14.209C7.63903 14.072 7.71429 13.8861 7.71429 13.6923V10.0385H8.42857C8.61801 10.0385 8.79969 9.96147 8.93365 9.82442C9.0676 9.68738 9.14286 9.5015 9.14286 9.30769C9.14286 9.11388 9.0676 8.92801 8.93365 8.79096C8.79969 8.65391 8.61801 8.57692 8.42857 8.57692Z" fill="#5C5C5C"/>
<path d="M15.6553 19.9346C15.9128 20.2344 16.23 20.475 16.585 20.6396C16.9397 20.8041 17.3246 20.8881 17.7139 20.8887C17.8733 20.8887 18.0271 20.8251 18.1406 20.709C18.2542 20.5928 18.3183 20.4349 18.3184 20.2695C18.3184 20.1041 18.2542 19.9453 18.1406 19.8291C18.0271 19.7131 17.8732 19.6484 17.7139 19.6484C17.3051 19.6483 16.9132 19.4824 16.625 19.1875C16.3369 18.8927 16.1758 18.493 16.1758 18.0771V17.2363H19.8574C20.3956 17.2363 20.9126 17.0171 21.2939 16.627C21.6752 16.2368 21.8895 15.7071 21.8896 15.1543V7.8457C21.8895 7.29291 21.6752 6.76325 21.2939 6.37305C20.9126 5.98287 20.3956 5.76375 19.8574 5.76367H16.1758V4.92285C16.1758 4.50699 16.3369 4.10734 16.625 3.8125C16.9132 3.51761 17.3051 3.35168 17.7139 3.35156C17.8732 3.35156 18.0271 3.28693 18.1406 3.1709C18.2542 3.05466 18.3184 2.89591 18.3184 2.73047C18.3183 2.56514 18.2542 2.40718 18.1406 2.29102C18.0271 2.17487 17.8733 2.11035 17.7139 2.11035C17.3246 2.11094 16.9397 2.19589 16.585 2.36035C16.23 2.525 15.9128 2.76555 15.6553 3.06543L15.5713 3.16309L15.4883 3.06543C15.2307 2.76547 14.9136 2.52504 14.5586 2.36035C14.2036 2.19571 13.8183 2.1109 13.4287 2.11035C13.2693 2.11035 13.1155 2.17487 13.002 2.29102C12.8885 2.40717 12.8243 2.56521 12.8242 2.73047C12.8242 2.89591 12.8883 3.05466 13.002 3.1709C13.1155 3.28702 13.2693 3.35156 13.4287 3.35156C13.8375 3.3516 14.2293 3.51756 14.5176 3.8125C14.8058 4.10735 14.9667 4.50693 14.9668 4.92285V5.76367H4.14258C3.60435 5.76375 3.08743 5.98287 2.70605 6.37305C2.32477 6.76325 2.11047 7.29291 2.11035 7.8457V15.1543C2.11047 15.7071 2.32477 16.2368 2.70605 16.627C3.08743 17.0171 3.60435 17.2363 4.14258 17.2363H14.9668V18.0771C14.9667 18.4931 14.8058 18.8927 14.5176 19.1875C14.2293 19.4824 13.8375 19.6484 13.4287 19.6484C13.2693 19.6484 13.1155 19.713 13.002 19.8291C12.8883 19.9453 12.8242 20.1041 12.8242 20.2695C12.8243 20.4348 12.8885 20.5928 13.002 20.709C13.1155 20.8251 13.2693 20.8896 13.4287 20.8896C13.8183 20.8891 14.2036 20.8043 14.5586 20.6396C14.9136 20.475 15.2307 20.2345 15.4883 19.9346L15.5713 19.8369L15.6553 19.9346ZM14.9668 7.00586V15.9941H4.14258C3.92326 15.9941 3.71388 15.9049 3.55957 15.7471C3.40538 15.5893 3.31848 15.3763 3.31836 15.1543V7.8457C3.31848 7.62368 3.40538 7.41068 3.55957 7.25293C3.71388 7.09507 3.92326 7.00594 4.14258 7.00586H14.9668ZM20.4619 7.8457C20.4618 7.68043 20.3967 7.52238 20.2832 7.40625C20.1698 7.2903 20.0167 7.22566 19.8574 7.22559H16.3955V15.7744H19.8574C20.0167 15.7743 20.1698 15.7097 20.2832 15.5938C20.3967 15.4776 20.4618 15.3196 20.4619 15.1543V7.8457ZM9.0332 9.30762C9.03318 9.1424 8.96882 8.98434 8.85547 8.86816C8.74197 8.75205 8.58811 8.68656 8.42871 8.68652H5.57129C5.41189 8.68656 5.25803 8.75205 5.14453 8.86816C5.03118 8.98434 4.96682 9.1424 4.9668 9.30762C4.9668 9.47283 5.03121 9.63088 5.14453 9.74707C5.25803 9.86319 5.41189 9.92867 5.57129 9.92871H6.39551V13.6924C6.39553 13.8576 6.45985 14.0157 6.57324 14.1318C6.68677 14.248 6.84055 14.3135 7 14.3135C7.15945 14.3135 7.31323 14.248 7.42676 14.1318C7.54015 14.0157 7.60447 13.8576 7.60449 13.6924V9.92871H8.42871C8.58811 9.92867 8.74197 9.86319 8.85547 9.74707C8.96879 9.63088 9.0332 9.47283 9.0332 9.30762ZM9.25293 9.30762C9.25293 9.52973 9.16689 9.74353 9.0127 9.90137C8.85835 10.0593 8.6481 10.1484 8.42871 10.1484H7.82422V13.6924C7.8242 13.9145 7.73825 14.1283 7.58398 14.2861C7.4296 14.4441 7.21943 14.5332 7 14.5332C6.78057 14.5332 6.5704 14.4441 6.41602 14.2861C6.26175 14.1283 6.1758 13.9145 6.17578 13.6924V10.1484H5.57129C5.3519 10.1484 5.14165 10.0593 4.9873 9.90137C4.83311 9.74353 4.74707 9.52973 4.74707 9.30762C4.74709 9.0855 4.83308 8.8717 4.9873 8.71387C5.14165 8.55596 5.35191 8.46683 5.57129 8.4668H8.42871C8.6481 8.46683 8.85835 8.55596 9.0127 8.71387C9.16692 8.8717 9.25291 9.0855 9.25293 9.30762ZM3.53809 15.1543C3.5382 15.3196 3.60329 15.4776 3.7168 15.5938C3.83024 15.7097 3.98333 15.7743 4.14258 15.7744H14.7471V7.22559H4.14258C3.98333 7.22566 3.83024 7.2903 3.7168 7.40625C3.60329 7.52238 3.5382 7.68043 3.53809 7.8457V15.1543ZM20.6816 15.1543C20.6815 15.3763 20.5946 15.5893 20.4404 15.7471C20.2861 15.9049 20.0767 15.9941 19.8574 15.9941H16.1758V7.00586H19.8574C20.0767 7.00593 20.2861 7.09507 20.4404 7.25293C20.5946 7.41068 20.6815 7.62368 20.6816 7.8457V15.1543ZM18.5381 2.73047C18.5381 2.95265 18.4521 3.16636 18.2979 3.32422C18.1435 3.48216 17.9333 3.57129 17.7139 3.57129C17.3652 3.5714 17.0306 3.71374 16.7832 3.9668C16.5357 4.22002 16.3956 4.56368 16.3955 4.92285V5.54395H19.8574C20.4556 5.54402 21.029 5.78684 21.4512 6.21875C21.8733 6.65059 22.1102 7.23605 22.1104 7.8457V15.1543C22.1102 15.7639 21.8733 16.3494 21.4512 16.7812C21.029 17.2132 20.4556 17.456 19.8574 17.4561H16.3955V18.0771C16.3956 18.4363 16.5357 18.78 16.7832 19.0332C17.0306 19.2863 17.3652 19.4286 17.7139 19.4287C17.9333 19.4287 18.1435 19.5178 18.2979 19.6758C18.4521 19.8336 18.5381 20.0473 18.5381 20.2695C18.538 20.4916 18.4521 20.7055 18.2979 20.8633C18.1435 21.021 17.9332 21.1104 17.7139 21.1104C17.2923 21.1098 16.8759 21.0168 16.4922 20.8389C16.1456 20.6781 15.8333 20.4507 15.5713 20.1699C15.3095 20.4505 14.9977 20.6782 14.6514 20.8389C14.3156 20.9946 13.9543 21.0849 13.5869 21.1055L13.4287 21.1104C13.2094 21.1104 12.9991 21.0211 12.8447 20.8633C12.6905 20.7055 12.6046 20.4916 12.6045 20.2695C12.6045 20.0474 12.6905 19.8336 12.8447 19.6758C12.9991 19.5178 13.2093 19.4287 13.4287 19.4287C13.7775 19.4287 14.1129 19.2864 14.3604 19.0332C14.6077 18.78 14.747 18.4362 14.7471 18.0771V17.4561H4.14258C3.54441 17.456 2.97104 17.2132 2.54883 16.7812C2.12673 16.3494 1.88977 15.7639 1.88965 15.1543V7.8457C1.88977 7.23605 2.12673 6.65059 2.54883 6.21875C2.97104 5.78684 3.54441 5.54402 4.14258 5.54395H14.7471V4.92285C14.747 4.56382 14.6077 4.22 14.3604 3.9668C14.1129 3.71364 13.7775 3.57133 13.4287 3.57129C13.2093 3.57129 12.9991 3.48216 12.8447 3.32422C12.6905 3.16637 12.6045 2.95259 12.6045 2.73047C12.6046 2.50839 12.6905 2.29451 12.8447 2.13672C12.9991 1.97888 13.2094 1.88965 13.4287 1.88965L13.5869 1.89453C13.9543 1.91506 14.3156 2.0054 14.6514 2.16113C14.9975 2.32172 15.3096 2.54876 15.5713 2.8291C15.8332 2.54858 16.1458 2.32176 16.4922 2.16113C16.8759 1.98318 17.2923 1.89023 17.7139 1.88965L17.7959 1.89453C17.9851 1.91373 18.1628 1.99867 18.2979 2.13672C18.4521 2.29451 18.538 2.50839 18.5381 2.73047Z" fill="#5C5C5C"/>
</svg>
