<svg  viewBox="0 0 24 24" xmlns="http://www.w3.org/2000/svg">
<path fill-rule="evenodd" clip-rule="evenodd" d="M9.60417 5.33288C9.60417 4.93017 9.93063 4.60371 10.3333 4.60371H17.8333C18.236 4.60371 18.5625 4.93017 18.5625 5.33288C18.5625 5.73559 18.236 6.06205 17.8333 6.06205H10.3333C9.93063 6.06205 9.60417 5.73559 9.60417 5.33288Z"/>
<path fill-rule="evenodd" clip-rule="evenodd" d="M5.4375 18.6662C5.4375 18.2635 5.76396 17.937 6.16667 17.937H13.6667C14.0694 17.937 14.3958 18.2635 14.3958 18.6662C14.3958 19.0689 14.0694 19.3954 13.6667 19.3954H6.16667C5.76396 19.3954 5.4375 19.0689 5.4375 18.6662Z"/>
<path fill-rule="evenodd" clip-rule="evenodd" d="M14.756 4.65014C15.1331 4.79154 15.3241 5.21184 15.1827 5.58891L10.1827 18.9222C10.0413 19.2993 9.62104 19.4904 9.24397 19.349C8.86691 19.2076 8.67586 18.7873 8.81726 18.4102L13.8173 5.07685C13.9587 4.69979 14.379 4.50874 14.756 4.65014Z"/>
<path fill-rule="evenodd" clip-rule="evenodd" d="M9.60417 5.33288C9.60417 4.93017 9.93063 4.60371 10.3333 4.60371H17.8333C18.236 4.60371 18.5625 4.93017 18.5625 5.33288C18.5625 5.73559 18.236 6.06205 17.8333 6.06205H10.3333C9.93063 6.06205 9.60417 5.73559 9.60417 5.33288Z" stroke="var(--logile-border-bold-subtle)" stroke-width="0.5" stroke-linecap="round" stroke-linejoin="round"/>
<path fill-rule="evenodd" clip-rule="evenodd" d="M5.4375 18.6662C5.4375 18.2635 5.76396 17.937 6.16667 17.937H13.6667C14.0694 17.937 14.3958 18.2635 14.3958 18.6662C14.3958 19.0689 14.0694 19.3954 13.6667 19.3954H6.16667C5.76396 19.3954 5.4375 19.0689 5.4375 18.6662Z" stroke="var(--logile-border-bold-subtle)" stroke-width="0.5" stroke-linecap="round" stroke-linejoin="round"/>
<path fill-rule="evenodd" clip-rule="evenodd" d="M14.756 4.65014C15.1331 4.79154 15.3241 5.21184 15.1827 5.58891L10.1827 18.9222C10.0413 19.2993 9.62104 19.4904 9.24397 19.349C8.86691 19.2076 8.67586 18.7873 8.81726 18.4102L13.8173 5.07685C13.9587 4.69979 14.379 4.50874 14.756 4.65014Z" stroke="var(--logile-border-bold-subtle)" stroke-width="0.5" stroke-linecap="round" stroke-linejoin="round"/>
</svg>
