<svg viewBox="0 0 24 24" xmlns="http://www.w3.org/2000/svg">
<path fill-rule="evenodd" clip-rule="evenodd" d="M5.4375 18.6662C5.4375 18.2635 5.76396 17.937 6.16667 17.937H13.6667C14.0694 17.937 14.3958 18.2635 14.3958 18.6662C14.3958 19.0689 14.0694 19.3954 13.6667 19.3954H6.16667C5.76396 19.3954 5.4375 19.0689 5.4375 18.6662Z" />
<path d="M14.1455 18.666C14.1454 18.4016 13.9314 18.1877 13.667 18.1875H10.7256L10.417 19.0098C10.3991 19.0574 10.3767 19.1025 10.3525 19.1455H13.667C13.9315 19.1453 14.1455 18.9305 14.1455 18.666ZM9.05176 18.498C8.95884 18.7458 9.08424 19.0223 9.33203 19.1152C9.57973 19.2079 9.85537 19.0816 9.94824 18.834L10.1904 18.1875H9.16797L9.05176 18.498ZM9.35547 17.6875H10.3779L14.6436 6.3125H13.6211L9.35547 17.6875ZM14.668 4.88379C14.4203 4.79114 14.1446 4.91738 14.0518 5.16504L13.8086 5.8125H14.8311L14.9482 5.50098C15.0412 5.25319 14.9158 4.97671 14.668 4.88379ZM5.6875 18.666C5.6875 18.9307 5.90236 19.1455 6.16699 19.1455H8.64648C8.51023 18.9026 8.47755 18.6035 8.58301 18.3223L8.63379 18.1875H6.16699C5.90242 18.1875 5.68761 18.4015 5.6875 18.666ZM18.3125 5.33301C18.3125 5.06837 18.0976 4.85352 17.833 4.85352H15.3535C15.4898 5.09645 15.5225 5.39553 15.417 5.67676L15.3662 5.8125H17.833C18.0976 5.8125 18.3124 5.59759 18.3125 5.33301ZM9.85449 5.33301C9.85456 5.59748 10.0686 5.81232 10.333 5.8125H13.2744L13.583 4.98926C13.6009 4.9416 13.6233 4.89658 13.6475 4.85352H10.333C10.0685 4.85369 9.85449 5.06848 9.85449 5.33301ZM18.8125 5.33301C18.8124 5.87373 18.3737 6.3125 17.833 6.3125H15.1787L10.9131 17.6875H13.667C14.2076 17.6877 14.6454 18.1254 14.6455 18.666C14.6455 19.2067 14.2076 19.6453 13.667 19.6455H6.16699C5.62621 19.6455 5.1875 19.2068 5.1875 18.666C5.18761 18.1253 5.62628 17.6875 6.16699 17.6875H8.82129L13.0869 6.3125H10.333C9.79242 6.31232 9.35456 5.87362 9.35449 5.33301C9.35449 4.79234 9.79238 4.35369 10.333 4.35352H17.833C18.3738 4.35352 18.8125 4.79223 18.8125 5.33301Z" />
<path fill-rule="evenodd" clip-rule="evenodd" d="M14.517 4.60371H17.8333C18.236 4.60371 18.5625 4.93017 18.5625 5.33288C18.5625 5.73559 18.236 6.06205 17.8333 6.06205H15.0053L10.1827 18.9222C10.0413 19.2993 9.62104 19.4904 9.24397 19.349C8.8669 19.2076 8.67586 18.7873 8.81726 18.4102L13.4478 6.06205H10.3333C9.93063 6.06205 9.60417 5.73559 9.60417 5.33288C9.60417 4.93017 9.93063 4.60371 10.3333 4.60371H14.4832C14.4944 4.60345 14.5057 4.60345 14.517 4.60371ZM14.0518 5.16504C14.1446 4.91738 14.4203 4.79114 14.668 4.88379C14.9158 4.97671 15.0412 5.25319 14.9482 5.50098L14.8311 5.8125H13.8086L14.0518 5.16504Z" />
<path d="M14.668 4.88379C14.4203 4.79114 14.1446 4.91738 14.0518 5.16504L13.8086 5.8125H14.8311L14.9482 5.50098C15.0412 5.25319 14.9158 4.97671 14.668 4.88379Z" />
</svg>
