<svg width="24" height="24" viewBox="0 0 24 24" fill="none" xmlns="http://www.w3.org/2000/svg">
<path d="M11.25 13.125H9.75C9.45163 13.125 9.16548 13.2435 8.9545 13.4545C8.74353 13.6655 8.625 13.9516 8.625 14.25V19.5C8.625 19.7984 8.74353 20.0845 8.9545 20.2955C9.16548 20.5065 9.45163 20.625 9.75 20.625C10.0484 20.625 10.3345 20.5065 10.5455 20.2955C10.7565 20.0845 10.875 19.7984 10.875 19.5V19.125H11.25C12.0456 19.125 12.8087 18.8089 13.3713 18.2463C13.9339 17.6837 14.25 16.9206 14.25 16.125C14.25 15.3294 13.9339 14.5663 13.3713 14.0037C12.8087 13.4411 12.0456 13.125 11.25 13.125ZM11.25 16.875H10.875V15.375H11.25C11.4489 15.375 11.6397 15.454 11.7803 15.5947C11.921 15.7353 12 15.9261 12 16.125C12 16.3239 11.921 16.5147 11.7803 16.6553C11.6397 16.796 11.4489 16.875 11.25 16.875ZM21 18.8316C21.0001 19.1215 20.8882 19.4002 20.6878 19.6097C20.3918 19.9276 20.034 20.1816 19.6363 20.3562C19.2386 20.5308 18.8093 20.6223 18.375 20.625C16.5141 20.625 15 18.9431 15 16.875C15 14.8069 16.5141 13.125 18.375 13.125C19.0009 13.1268 19.6119 13.3162 20.1291 13.6688C20.2552 13.7498 20.3638 13.8551 20.4486 13.9787C20.5334 14.1023 20.5926 14.2415 20.6229 14.3883C20.6531 14.5351 20.6537 14.6865 20.6246 14.8335C20.5955 14.9805 20.5374 15.1202 20.4536 15.2445C20.3697 15.3687 20.2619 15.4749 20.1365 15.5569C20.011 15.6389 19.8705 15.695 19.723 15.722C19.5756 15.7489 19.4243 15.7461 19.278 15.7137C19.1316 15.6813 18.9933 15.62 18.8709 15.5334C18.7254 15.4318 18.5525 15.3766 18.375 15.375C17.7656 15.375 17.25 16.0622 17.25 16.875C17.25 17.6878 17.7656 18.375 18.375 18.375C18.4609 18.3748 18.5462 18.3616 18.6281 18.3356C18.4937 18.1707 18.4089 17.971 18.3834 17.7598C18.3579 17.5486 18.3928 17.3345 18.4841 17.1423C18.5753 16.9502 18.7192 16.7878 18.8991 16.6741C19.0789 16.5604 19.2873 16.5001 19.5 16.5H19.875C20.1734 16.5 20.4595 16.6185 20.6705 16.8295C20.8815 17.0405 21 17.3266 21 17.625V18.8316ZM7.5 14.25V17.8125C7.5 18.5584 7.20368 19.2738 6.67624 19.8012C6.14879 20.3287 5.43342 20.625 4.6875 20.625C3.94158 20.625 3.22621 20.3287 2.69876 19.8012C2.17132 19.2738 1.875 18.5584 1.875 17.8125C1.875 17.5141 1.99353 17.228 2.2045 17.017C2.41548 16.806 2.70163 16.6875 3 16.6875C3.29837 16.6875 3.58452 16.806 3.7955 17.017C4.00647 17.228 4.125 17.5141 4.125 17.8125C4.125 17.9617 4.18426 18.1048 4.28975 18.2102C4.39524 18.3157 4.53832 18.375 4.6875 18.375C4.83668 18.375 4.97976 18.3157 5.08525 18.2102C5.19074 18.1048 5.25 17.9617 5.25 17.8125V14.25C5.25 13.9516 5.36853 13.6655 5.5795 13.4545C5.79048 13.2435 6.07663 13.125 6.375 13.125C6.67337 13.125 6.95952 13.2435 7.1705 13.4545C7.38147 13.6655 7.5 13.9516 7.5 14.25ZM4.5 11.25C4.79837 11.25 5.08452 11.1315 5.2955 10.9205C5.50647 10.7095 5.625 10.4234 5.625 10.125V4.125H12.75V8.625C12.75 8.92337 12.8685 9.20952 13.0795 9.4205C13.2905 9.63147 13.5766 9.75 13.875 9.75H18.375V10.125C18.375 10.4234 18.4935 10.7095 18.7045 10.9205C18.9155 11.1315 19.2016 11.25 19.5 11.25C19.7984 11.25 20.0845 11.1315 20.2955 10.9205C20.5065 10.7095 20.625 10.4234 20.625 10.125V8.25C20.625 7.95187 20.5066 7.66593 20.2959 7.455L15.0459 2.205C14.9415 2.10039 14.8174 2.0174 14.6808 1.96078C14.5442 1.90416 14.3978 1.87501 14.25 1.875H5.25C4.75272 1.875 4.27581 2.07254 3.92417 2.42417C3.57254 2.77581 3.375 3.25272 3.375 3.75V10.125C3.375 10.4234 3.49353 10.7095 3.7045 10.9205C3.91548 11.1315 4.20163 11.25 4.5 11.25ZM15 5.34375L17.1562 7.5H15V5.34375Z" fill="#5C5C5C"/>
</svg>
