<svg width="25" height="24" viewBox="0 0 25 24" xmlns="http://www.w3.org/2000/svg">
<path d="M21.7 2.8C21.1963 2.28642 20.4951 2 19.7741 2H5.22594C4.51482 2 3.80372 2.28642 3.30001 2.8C2.78643 3.31358 2.5 3.99506 2.5 4.72592V19.2642C2.5 19.9951 2.78643 20.6765 3.30001 21.2C3.81359 21.7136 4.50495 22 5.22594 22H19.7741C20.4951 22 21.1963 21.7037 21.7 21.2C22.2037 20.6963 22.5 19.9951 22.5 19.2642V4.72592C22.5 3.99506 22.2136 3.31358 21.7 2.8ZM20.9198 19.2642C20.9198 19.5704 20.8012 19.8667 20.584 20.084C20.3667 20.2914 20.0704 20.4198 19.7741 20.4198H5.22594C4.91976 20.4198 4.63334 20.2914 4.41605 20.084C4.19877 19.8568 4.08025 19.5704 4.08025 19.2642V4.72592C4.08025 4.41975 4.19877 4.13333 4.41605 3.91605C4.63334 3.69876 4.92964 3.58025 5.22594 3.58025H19.7741C20.0704 3.58025 20.3667 3.69876 20.584 3.91605C20.8012 4.13333 20.9198 4.41975 20.9198 4.72592V19.2642Z"/>
<path d="M16.9201 9.15023C16.9201 9.31814 16.8609 9.48604 16.7424 9.60455C16.6238 9.73295 16.4658 9.80208 16.2979 9.81196H8.71273C8.53495 9.80208 8.37692 9.73295 8.2584 9.60455C8.13988 9.48604 8.08063 9.31814 8.08063 9.15023C8.08063 8.98233 8.13988 8.82431 8.2584 8.69591C8.37692 8.57739 8.53494 8.49838 8.70284 8.4885H8.73249C8.75224 7.83665 8.94976 7.20455 9.29544 6.65147C9.66088 6.05887 10.1745 5.57492 10.7967 5.25887L10.9448 5.18974L11.2806 7.0564C11.2806 7.0564 11.3103 7.12554 11.33 7.15517C11.3596 7.17493 11.3991 7.1848 11.4387 7.1848H11.488C11.488 7.1848 11.4979 7.1848 11.5177 7.16505C11.5374 7.15517 11.5473 7.14529 11.5671 7.12554C11.5769 7.11566 11.5868 7.09591 11.5868 7.06628V7.00702L11.2313 5.01196L11.2609 4.97245C11.33 4.85394 11.4387 4.74529 11.5671 4.67616C11.6954 4.60702 11.8337 4.56752 11.9819 4.56752H13.0189C13.1671 4.56752 13.3053 4.60702 13.4337 4.67616C13.5621 4.74529 13.6708 4.85394 13.7399 4.97245L13.7695 5.01196V5.06134L13.414 7.0169V7.07616C13.414 7.07616 13.4238 7.11566 13.4436 7.12554C13.4535 7.14529 13.4634 7.15517 13.4831 7.16505C13.5029 7.17492 13.5226 7.1848 13.5424 7.1848H13.572C13.572 7.1848 13.6411 7.1848 13.6708 7.15517C13.7004 7.12554 13.7201 7.09591 13.7201 7.0564L14.0559 5.18974L14.2041 5.25887C14.8263 5.57492 15.3399 6.05887 15.7053 6.65147C16.051 7.20455 16.2387 7.83665 16.2584 8.4885H16.288C16.4658 8.49838 16.6238 8.57739 16.7424 8.69591C16.8609 8.82431 16.9201 8.98233 16.9201 9.15023Z"/>
<path d="M16.2685 11.3625C16.2783 11.4811 16.2586 11.5996 16.2191 11.7082C15.9228 12.4687 15.4191 13.1008 14.7475 13.565C14.0858 14.0193 13.3055 14.2564 12.4956 14.2564C11.6858 14.2564 10.9055 14.0193 10.2438 13.565C9.57218 13.1008 9.06847 12.4687 8.77217 11.7082C8.73267 11.5996 8.71292 11.4811 8.73267 11.3625C8.74255 11.244 8.78205 11.1255 8.85119 11.0267C8.92032 10.928 9.00922 10.849 9.11786 10.7897C9.2265 10.7403 9.34501 10.7107 9.46353 10.7107H9.47341C9.61169 10.7107 9.75982 10.7502 9.87834 10.8292C10.0067 10.9181 10.0956 11.0366 10.145 11.1749C10.303 11.5699 10.55 11.9156 10.8759 12.1922C11.1919 12.4588 11.5771 12.6465 11.9919 12.7354C12.4067 12.8243 12.8314 12.8045 13.2364 12.686C13.6413 12.5675 14.0067 12.3403 14.3129 12.044C14.55 11.7971 14.7376 11.4909 14.8561 11.165C14.9154 11.0267 15.0043 10.9082 15.1228 10.8292C15.2512 10.7502 15.3895 10.7008 15.5376 10.7008C15.6561 10.7107 15.7746 10.7403 15.8833 10.7897C15.982 10.849 16.0709 10.928 16.1401 11.0267C16.2092 11.1255 16.2487 11.244 16.2685 11.3625Z"/>
<path d="M18.5497 16.143C18.5497 16.3504 18.4707 16.5381 18.3225 16.6862C18.1744 16.8344 17.9867 16.9134 17.7793 16.9134H6.04599C5.84846 16.9134 5.65093 16.8344 5.50278 16.6862C5.36451 16.5381 5.28549 16.3504 5.28549 16.143C5.28549 15.9356 5.36451 15.748 5.50278 15.5998C5.65093 15.4615 5.84846 15.3825 6.04599 15.3825H17.7793C17.9867 15.3825 18.1744 15.4615 18.3225 15.5998C18.4608 15.748 18.5497 15.9455 18.5497 16.143Z"/>
<path d="M13.6114 18.6613C13.6114 18.8687 13.5324 19.0564 13.3843 19.2046C13.2361 19.3527 13.0485 19.4317 12.841 19.4317H6.04599C5.84846 19.4317 5.65093 19.3527 5.50278 19.2046C5.36451 19.0564 5.28549 18.8687 5.28549 18.6613C5.28549 18.4539 5.36451 18.2663 5.50278 18.1181C5.65093 17.9799 5.84846 17.9008 6.04599 17.9008H12.841C13.0485 17.9008 13.2361 17.9799 13.3843 18.1181C13.5225 18.2663 13.6114 18.4638 13.6114 18.6613Z"/>
</svg>
