<svg width="25" height="24" viewBox="0 0 25 24" xmlns="http://www.w3.org/2000/svg">
<path d="M17.9181 6.67949C17.9181 6.77827 17.8984 6.87705 17.8589 6.97583C17.8193 7.06473 17.7601 7.15363 17.6811 7.22277C17.6119 7.28204 17.523 7.34131 17.4242 7.37094C17.3551 7.40058 17.2761 7.41046 17.1872 7.41046H16.4266C16.2487 7.41046 16.071 7.34131 15.9425 7.2129C15.8141 7.09436 15.7252 6.93631 15.7055 6.74863C15.6264 6.16583 15.3597 5.62255 14.9449 5.19779C14.8856 5.12865 14.8263 5.04963 14.7967 4.96072C14.7572 4.87182 14.7374 4.78292 14.7374 4.68414C14.7374 4.58536 14.7572 4.48658 14.7967 4.40756C14.8263 4.31866 14.8856 4.23963 14.9547 4.17049C15.2313 3.8939 15.7055 3.8939 15.982 4.17049C16.4759 4.66438 16.8316 5.27682 17.0192 5.9584H17.1378C17.2365 5.94852 17.3353 5.9584 17.4242 5.98803C17.523 6.02754 17.6119 6.07693 17.6811 6.14608C17.7601 6.21522 17.8193 6.29425 17.8589 6.38315C17.8984 6.48193 17.9181 6.58071 17.9181 6.67949Z"/>
<path d="M14.6785 3.20264L14.3624 4.23983C14.313 4.388 14.2241 4.51641 14.0957 4.60531C13.9771 4.69421 13.829 4.73372 13.6709 4.73372H13.661C13.5721 4.73372 13.4832 4.72385 13.4042 4.68433C13.2264 4.61519 13.0881 4.48677 12.9992 4.31885C12.9202 4.14105 12.9103 3.94349 12.9597 3.76568L13.0585 3.45947C12.772 3.41996 12.4856 3.42983 12.209 3.47922L12.2979 3.83483C12.3275 3.92373 12.3374 4.02251 12.3275 4.12129C12.3176 4.22007 12.288 4.31885 12.2287 4.40775C12.1892 4.49665 12.1201 4.5658 12.041 4.62507C11.962 4.68433 11.8731 4.73372 11.7744 4.75348C11.7151 4.77324 11.6558 4.78311 11.5965 4.78311C11.557 4.78311 11.5175 4.77324 11.478 4.76336C11.3792 4.75348 11.2805 4.71397 11.2014 4.66458C11.1224 4.60531 11.0434 4.53616 10.994 4.45714C10.9347 4.36824 10.8952 4.27934 10.8853 4.18056L10.6285 3.16313C10.589 2.9952 10.6088 2.82728 10.6878 2.66923C10.7569 2.52106 10.8853 2.39265 11.0434 2.33338C12.0806 1.88887 13.2659 1.88887 14.2932 2.33338C14.4611 2.40253 14.5896 2.54082 14.6587 2.69887C14.7279 2.85691 14.7377 3.04459 14.6785 3.20264Z"/>
<path d="M10.5579 4.71377C10.548 4.90146 10.4591 5.08914 10.3208 5.21755C9.9356 5.6423 9.67877 6.17571 9.58986 6.75851C9.57999 6.93631 9.49108 7.09436 9.35279 7.22277C9.22437 7.34131 9.04658 7.40058 8.86878 7.40058H7.99951C7.99951 7.40058 7.92048 7.38082 7.87109 7.36107C7.78219 7.33143 7.6933 7.28204 7.61427 7.2129C7.54513 7.14375 7.48586 7.06473 7.44635 6.96595C7.40684 6.87705 7.3772 6.77827 7.3772 6.66961C7.3772 6.57083 7.40684 6.47205 7.44635 6.38315C7.48586 6.28437 7.54513 6.20535 7.61427 6.1362C7.6933 6.06705 7.78219 6.01766 7.87109 5.98803C7.96987 5.94852 8.06867 5.93864 8.17732 5.94852H8.28598C8.47366 5.27682 8.82927 4.65451 9.33304 4.16061C9.46146 4.0322 9.64914 3.96305 9.82694 3.96305H9.84668C10.0442 3.96305 10.2221 4.05195 10.3603 4.19024C10.4888 4.32853 10.5579 4.51622 10.5579 4.71377Z"/>
<path d="M16.524 8.96141C16.524 9.07995 16.5141 9.20836 16.4746 9.31702C16.1683 10.0875 15.6448 10.7493 14.9632 11.2136C14.2817 11.6877 13.4815 11.9347 12.6518 11.9347C11.8221 11.9347 11.0219 11.6877 10.3305 11.2136C9.6489 10.7493 9.12536 10.0875 8.82902 9.31702C8.77963 9.20836 8.75989 9.07995 8.77964 8.96141C8.78952 8.84288 8.8389 8.72434 8.90805 8.62556C8.97719 8.5169 9.0661 8.43788 9.17476 8.37861C9.28341 8.31934 9.41183 8.27983 9.53036 8.27983C9.68841 8.27983 9.83658 8.32922 9.965 8.41812C10.0835 8.50702 10.1823 8.62556 10.2317 8.77373C10.3897 9.16885 10.6466 9.52445 10.9725 9.81091C11.3084 10.0875 11.7035 10.2752 12.1283 10.3641C12.553 10.453 12.9876 10.4332 13.4025 10.3147C13.8174 10.1962 14.2026 9.96896 14.5088 9.66274C14.7558 9.4158 14.9534 9.0997 15.0719 8.76385C15.1312 8.61568 15.2299 8.49715 15.3485 8.41812C15.5757 8.26995 15.8819 8.2502 16.119 8.37861C16.2276 8.43788 16.3264 8.5169 16.3955 8.62556C16.4647 8.72434 16.5042 8.84288 16.524 8.96141Z"/>
<path d="M19.2017 15.0756C18.7967 14.1273 18.2238 13.2876 17.473 12.5666C17.2162 12.3196 16.5741 11.8652 16.5248 11.8257C16.4457 11.7664 16.3568 11.7171 16.258 11.6973C16.1593 11.6677 16.0506 11.6677 15.942 11.6775C15.774 11.7171 15.616 11.8257 15.5073 11.964C15.3888 12.1023 15.3295 12.2801 15.3394 12.4579V14.4236C15.3394 14.6113 15.2604 14.7891 15.132 14.9175C15.0035 15.0558 14.8257 15.1249 14.6381 15.1249H10.6572C10.4696 15.1249 10.2918 15.0558 10.1634 14.9175C10.0349 14.7891 9.95591 14.6113 9.95591 14.4236V12.3986C9.95591 12.2011 9.88677 12.0233 9.74848 11.885C9.61019 11.7467 9.42251 11.6677 9.22495 11.6677H9.21506C9.03726 11.6677 8.86934 11.7269 8.74092 11.8356C7.7235 12.5666 6.89374 13.5346 6.3307 14.6508C5.76766 15.767 5.4812 17.0215 5.50096 18.2661V19.4021C5.50096 20.0837 5.77754 20.7554 6.26156 21.2394C6.74558 21.7234 7.40741 22 8.09886 22H17.2063C17.8978 22 18.5497 21.7234 19.0436 21.2394C19.5277 20.7455 19.8042 20.0936 19.8042 19.4021V18.0587C19.8042 17.0215 19.5968 16.0238 19.2017 15.0756ZM8.65203 15.2435C8.76068 15.5102 8.9286 15.7473 9.12616 15.9547C9.3336 16.1621 9.57067 16.3202 9.83738 16.4288C10.1041 16.5375 10.3807 16.5968 10.6671 16.5968H14.6282C15.211 16.5968 15.7543 16.3696 16.1691 15.9547C16.584 15.5398 16.8112 14.9965 16.8112 14.4137V14.0878C17.7595 15.1941 18.2731 16.5869 18.2731 18.0587V19.3626C18.2731 19.5009 18.2435 19.649 18.1941 19.7873C18.1349 19.9158 18.0558 20.0442 17.9472 20.1429C17.8484 20.2516 17.72 20.3306 17.5916 20.3899C17.4533 20.4393 17.3051 20.4689 17.1569 20.4689H8.13837C7.85191 20.4788 7.56545 20.3603 7.35802 20.1528C7.15058 19.9454 7.03204 19.6589 7.03204 19.3626V18.2661C7.03204 16.7746 7.5457 15.3324 8.4841 14.1865V14.4137C8.4841 14.7002 8.54337 14.9768 8.65203 15.2435Z"/>
</svg>
