<svg width="24" height="24" viewBox="0 0 24 24" fill="none" xmlns="http://www.w3.org/2000/svg">
<path d="M14.1641 19.253C14.5768 19.6199 14.614 20.2513 14.2471 20.6641C13.8802 21.0769 13.2487 21.114 12.8359 20.7471L13.5 20.0001C12.852 20.729 12.8367 20.747 12.8359 20.7471L12.832 20.7442C12.8307 20.743 12.8288 20.7418 12.8271 20.7403C12.8239 20.7373 12.82 20.7337 12.8154 20.7295C12.8058 20.7207 12.7933 20.7086 12.7783 20.6944C12.7483 20.6659 12.7076 20.6264 12.6582 20.5762C12.5595 20.476 12.4247 20.3319 12.2666 20.1446C11.9504 19.7698 11.5385 19.2184 11.1289 18.4903C10.3073 17.0296 9.5 14.8624 9.5 12.0001C9.5 9.13773 10.3073 6.9705 11.1289 5.50982C11.5385 4.7817 11.9504 4.23031 12.2666 3.85552C12.4247 3.66816 12.5595 3.52412 12.6582 3.42388C12.7076 3.37375 12.7483 3.33418 12.7783 3.30572C12.7933 3.29149 12.8058 3.27939 12.8154 3.27056C12.82 3.26638 12.8239 3.26278 12.8271 3.25982C12.8288 3.25835 12.8307 3.25707 12.832 3.25591L12.835 3.25298C12.8356 3.25308 12.8485 3.26713 13.2979 3.77252L12.835 3.25298C13.2477 2.88607 13.8802 2.92321 14.2471 3.33599C14.6138 3.74861 14.5764 4.37917 14.1641 4.74615L14.165 4.74712C14.1627 4.74929 14.159 4.75244 14.1543 4.75689C14.1404 4.77006 14.1165 4.79319 14.084 4.82623C14.0187 4.89259 13.9188 4.99899 13.7959 5.14459C13.5497 5.43642 13.2113 5.88541 12.8711 6.49029C12.1928 7.69627 11.5 9.52917 11.5 12.0001C11.5 14.4709 12.1928 16.3038 12.8711 17.5098C13.2113 18.1147 13.5497 18.5637 13.7959 18.8555C13.9188 19.0011 14.0187 19.1075 14.084 19.1739C14.1165 19.2069 14.1404 19.2301 14.1543 19.2432C14.1587 19.2474 14.1617 19.2508 14.1641 19.253Z" fill="#5C5C5C"/>
</svg>
