<svg width="24" height="24" viewBox="0 0 24 24" fill="none" xmlns="http://www.w3.org/2000/svg">
<path d="M14.4004 21C14.9525 21.0002 15.4004 21.4478 15.4004 22C15.4004 22.5522 14.9525 22.9998 14.4004 23H9.59961C9.0475 22.9998 8.59961 22.5522 8.59961 22C8.59961 21.4478 9.0475 21.0002 9.59961 21H14.4004ZM15 17.25C15.5523 17.25 16 17.6977 16 18.25C16 18.8023 15.5523 19.25 15 19.25H9C8.44772 19.25 8 18.8023 8 18.25C8 17.6977 8.44772 17.25 9 17.25H15ZM17 8.25C17 6.84488 16.4638 5.50514 15.5215 4.52344C14.5804 3.5431 13.3126 3 12 3C10.6874 3 9.41964 3.5431 8.47852 4.52344C7.53623 5.50514 7 6.84488 7 8.25C7 9.10705 7.14562 10.0822 8.22168 11.2031C8.97881 11.9918 9.72964 12.9949 9.98242 14.3115C10.0865 14.8539 9.73081 15.3783 9.18848 15.4824C8.64615 15.5865 8.12171 15.2308 8.01758 14.6885C7.87034 13.9218 7.42114 13.2575 6.77832 12.5879C5.25472 11.0006 5 9.47618 5 8.25C5 6.34005 5.72815 4.50017 7.03613 3.1377C8.34542 1.77399 10.1301 1 12 1C13.8699 1 15.6546 1.77399 16.9639 3.1377C18.2718 4.50017 19 6.34005 19 8.25C19 9.8214 18.425 11.4354 17.2207 12.5869L17.2217 12.5879C16.4883 13.3518 16.1313 13.9134 15.9824 14.6885C15.8783 15.2308 15.3539 15.5865 14.8115 15.4824C14.2692 15.3783 13.9135 14.8539 14.0176 14.3115C14.2687 13.0033 14.9118 12.1058 15.7783 11.2031C15.7905 11.1905 15.8036 11.178 15.8164 11.166C16.5855 10.4448 17 9.37008 17 8.25Z" fill="#5C5C5C"/>
</svg>
