<svg viewBox="0 0 24 24" xmlns="http://www.w3.org/2000/svg">
<g clip-path="url(#clip0_14773_23763)">
<path fill-rule="evenodd" clip-rule="evenodd" d="M12.7185 4.36748C13.6419 3.47567 14.8786 2.98219 16.1623 2.99335C17.4459 3.0045 18.6739 3.51939 19.5816 4.42712C20.4893 5.33485 21.0042 6.56278 21.0154 7.84646C21.0265 9.13013 20.5331 10.3668 19.6412 11.2902L19.6324 11.2992L17.1324 13.7991C16.6361 14.2956 16.0388 14.6796 15.3811 14.925C14.7233 15.1703 14.0205 15.2714 13.3202 15.2212C12.62 15.1711 11.9387 14.9709 11.3226 14.6343C10.7065 14.2977 10.17 13.8326 9.74953 13.2704C9.50831 12.9479 9.57419 12.491 9.89666 12.2497C10.2191 12.0085 10.6761 12.0744 10.9173 12.3969C11.2126 12.7916 11.5892 13.1182 12.0218 13.3545C12.4544 13.5909 12.9327 13.7314 13.4244 13.7666C13.916 13.8018 14.4095 13.7309 14.8714 13.5586C15.3332 13.3863 15.7526 13.1167 16.1011 12.7681L18.5964 10.2727C19.22 9.62488 19.5649 8.75842 19.5571 7.85913C19.5493 6.95783 19.1877 6.09566 18.5504 5.45832C17.9131 4.82098 17.0509 4.45946 16.1496 4.45163C15.25 4.44381 14.3832 4.78899 13.7353 5.41296L12.3058 6.83406C12.0203 7.11799 11.5586 7.11664 11.2747 6.83106C10.9907 6.54547 10.9921 6.08379 11.2777 5.79986L12.7185 4.36748Z"/>
<path fill-rule="evenodd" clip-rule="evenodd" d="M8.61912 9.07563C9.27688 8.83027 9.97972 8.72923 10.68 8.77938C11.3802 8.82953 12.0615 9.02969 12.6776 9.36629C13.2936 9.70288 13.8301 10.168 14.2506 10.7302C14.4919 11.0527 14.426 11.5096 14.1035 11.7509C13.781 11.9921 13.3241 11.9262 13.0829 11.6037C12.7876 11.209 12.4109 10.8824 11.9784 10.6461C11.5458 10.4097 11.0674 10.2692 10.5758 10.234C10.0841 10.1988 9.59065 10.2697 9.12881 10.442C8.66698 10.6143 8.24759 10.8839 7.89911 11.2325L5.40371 13.7279C4.78019 14.3757 4.43527 15.2422 4.44308 16.1415C4.45091 17.0428 4.81243 17.9049 5.44977 18.5423C6.08711 19.1796 6.94928 19.5411 7.85058 19.549C8.74988 19.5568 9.61634 19.2119 10.2642 18.5883L11.6845 17.168C11.9692 16.8833 12.4309 16.8833 12.7157 17.168C13.0004 17.4528 13.0004 17.9145 12.7157 18.1992L11.2907 19.6242L11.2816 19.6331C10.3583 20.5249 9.12158 21.0184 7.83791 21.0072C6.55424 20.9961 5.3263 20.4812 4.41858 19.5735C3.51085 18.6657 2.99596 17.4378 2.9848 16.1541C2.97365 14.8705 3.46712 13.6338 4.35894 12.7104L4.36782 12.7014L6.86773 10.2015C7.36403 9.705 7.96139 9.32098 8.61912 9.07563Z"/>
<path d="M6.86773 10.2015L4.36782 12.7014L4.35894 12.7104C3.46712 13.6338 2.97365 14.8705 2.9848 16.1541C2.99596 17.4378 3.51085 18.6657 4.41858 19.5735C5.3263 20.4812 6.55424 20.9961 7.83791 21.0072C9.12158 21.0184 10.3583 20.5249 11.2816 19.6331L11.2907 19.6242L12.7157 18.1992C13.0004 17.9145 13.0004 17.4528 12.7157 17.168C12.4309 16.8833 11.9692 16.8833 11.6845 17.168L10.2642 18.5883C9.61634 19.2119 8.74988 19.5568 7.85058 19.549C6.94928 19.5411 6.08711 19.1796 5.44977 18.5423C4.81243 17.9049 4.45091 17.0428 4.44308 16.1415C4.43527 15.2422 4.78019 14.3757 5.40371 13.7279L7.89911 11.2325C8.24759 10.8839 8.66698 10.6143 9.12881 10.442C9.59065 10.2697 10.0841 10.1988 10.5758 10.234C11.0674 10.2692 11.5458 10.4097 11.9784 10.6461C12.4109 10.8824 12.7876 11.209 13.0829 11.6037C13.3241 11.9262 13.781 11.9921 14.1035 11.7509C14.426 11.5096 14.4919 11.0527 14.2506 10.7302C13.8301 10.168 13.2936 9.70288 12.6776 9.36629C12.0615 9.02969 11.3802 8.82953 10.68 8.77938C9.97972 8.72923 9.27688 8.83027 8.61912 9.07563C7.9614 9.32098 7.36403 9.705 6.86773 10.2015ZM6.86773 10.2015V10.2015ZM16.1623 2.99335C14.8786 2.98219 13.6419 3.47567 12.7185 4.36748L11.2777 5.79986C10.9921 6.08379 10.9907 6.54547 11.2747 6.83106C11.5586 7.11664 12.0203 7.11799 12.3058 6.83406L13.7353 5.41296C14.3832 4.78899 15.25 4.44381 16.1496 4.45163C17.0509 4.45946 17.9131 4.82098 18.5504 5.45832C19.1877 6.09566 19.5493 6.95783 19.5571 7.85913C19.5649 8.75842 19.22 9.62488 18.5964 10.2727L16.1011 12.7681C15.7526 13.1167 15.3332 13.3863 14.8714 13.5586C14.4095 13.7309 13.916 13.8018 13.4244 13.7666C12.9327 13.7314 12.4544 13.5909 12.0218 13.3545C11.5892 13.1182 11.2126 12.7916 10.9173 12.3969C10.6761 12.0744 10.2191 12.0085 9.89666 12.2497C9.57419 12.491 9.50831 12.9479 9.74953 13.2704C10.17 13.8326 10.7065 14.2977 11.3226 14.6343C11.9387 14.9709 12.62 15.1711 13.3202 15.2212C14.0205 15.2714 14.7233 15.1703 15.3811 14.925C16.0388 14.6796 16.6361 14.2956 17.1324 13.7991L19.6324 11.2992L19.6412 11.2902C20.5331 10.3668 21.0265 9.13013 21.0154 7.84646C21.0042 6.56278 20.4893 5.33485 19.5816 4.42712C18.6739 3.51939 17.4459 3.0045 16.1623 2.99335Z" stroke="var(--logile-border-bold-subtle)" stroke-width="0.5" stroke-linecap="round" stroke-linejoin="round"/>
</g>
<defs>
<clipPath id="clip0_14773_23763">
<rect width="20" height="20" transform="translate(2 2)"/>
</clipPath>
</defs>
</svg>
