<svg viewBox="0 0 24 24" xmlns="http://www.w3.org/2000/svg">
<g clip-path="url(#clip0_15325_35642)">
<path fill-rule="evenodd" clip-rule="evenodd" d="M12.7185 4.3667C13.6418 3.47488 14.8785 2.98141 16.1622 2.99257C17.4459 3.00372 18.6738 3.51861 19.5815 4.42634C20.4893 5.33406 21.0042 6.562 21.0153 7.84567C21.0265 9.12934 20.533 10.366 19.6412 11.2894L19.6323 11.2984L17.1324 13.7984C16.6361 14.2949 16.0388 14.6788 15.381 14.9242C14.7232 15.1695 14.0204 15.2706 13.3202 15.2204C12.6199 15.1703 11.9386 14.9701 11.3226 14.6335C10.7065 14.2969 10.17 13.8318 9.74948 13.2696C9.50826 12.9471 9.57414 12.4902 9.89661 12.249C10.2191 12.0077 10.676 12.0736 10.9173 12.3961C11.2125 12.7908 11.5892 13.1174 12.0218 13.3537C12.4543 13.5901 12.9327 13.7306 13.4243 13.7658C13.916 13.801 14.4095 13.7301 14.8713 13.5578C15.3331 13.3855 15.7525 13.116 16.101 12.7673L18.5964 10.272C19.2199 9.6241 19.5649 8.75764 19.557 7.85834C19.5492 6.95704 19.1877 6.09488 18.5503 5.45753C17.913 4.82019 17.0508 4.45868 16.1495 4.45084C15.2499 4.44303 14.3831 4.78821 13.7352 5.41218L12.3058 6.83328C12.0202 7.11721 11.5585 7.11586 11.2746 6.83027C10.9907 6.54469 10.992 6.08301 11.2776 5.79908L12.7185 4.3667Z" />
<path fill-rule="evenodd" clip-rule="evenodd" d="M8.61907 9.07485C9.27683 8.82948 9.97967 8.72845 10.6799 8.7786C11.3802 8.82875 12.0614 9.02891 12.6775 9.3655C13.2936 9.7021 13.8301 10.1673 14.2506 10.7294C14.4918 11.0519 14.4259 11.5089 14.1035 11.7501C13.781 11.9913 13.324 11.9254 13.0828 11.6029C12.7876 11.2082 12.4109 10.8816 11.9783 10.6453C11.5457 10.409 11.0674 10.2684 10.5757 10.2332C10.0841 10.198 9.5906 10.2689 9.12876 10.4412C8.66693 10.6135 8.24754 10.8831 7.89906 11.2317L5.40366 13.7271C4.78014 14.3749 4.43522 15.2414 4.44303 16.1407C4.45086 17.042 4.81238 17.9042 5.44972 18.5415C6.08706 19.1788 6.94923 19.5403 7.85053 19.5482C8.74983 19.556 9.61629 19.2111 10.2641 18.5875L11.6844 17.1672C11.9692 16.8825 12.4309 16.8825 12.7156 17.1672C13.0004 17.452 13.0004 17.9137 12.7156 18.1984L11.2906 19.6234L11.2816 19.6323C10.3582 20.5241 9.12153 21.0176 7.83786 21.0065C6.55419 20.9953 5.32625 20.4804 4.41853 19.5727C3.5108 18.665 2.99591 17.437 2.98475 16.1534C2.9736 14.8697 3.46707 13.633 4.35889 12.7096L4.36777 12.7006L6.86768 10.2007C7.36398 9.70421 7.96135 9.3202 8.61907 9.07485Z" />
<path d="M10.6975 8.52949C11.4333 8.58219 12.1496 8.79205 12.7971 9.1457C13.4445 9.4994 14.0085 9.98862 14.4504 10.5793C14.7743 11.0123 14.6862 11.6265 14.2531 11.9504C13.8202 12.2741 13.207 12.1857 12.883 11.7531C12.6092 11.3871 12.2597 11.0836 11.8586 10.8645C11.4575 10.6453 11.0137 10.5153 10.5578 10.4826C10.1019 10.45 9.64423 10.5153 9.21601 10.675C8.78777 10.8347 8.39853 11.0851 8.07539 11.4084L5.5832 13.8996C5.00502 14.5003 4.68533 15.305 4.69258 16.1389C4.69993 16.9744 5.03545 17.7736 5.62617 18.3645C6.21716 18.9554 7.01698 19.2908 7.85273 19.298C8.68506 19.3053 9.48675 18.9865 10.0871 18.4103L11.508 16.9904C11.8904 16.6082 12.5104 16.6081 12.8928 16.9904C13.2749 17.3728 13.2749 17.9928 12.8928 18.3752L11.467 19.8L11.466 19.802L11.4572 19.8107L11.4553 19.8117C10.4849 20.749 9.18519 21.2677 7.83613 21.2561C6.48691 21.2443 5.19548 20.7033 4.2414 19.7492C3.28751 18.7952 2.74629 17.5045 2.73457 16.1555C2.72286 14.8064 3.24173 13.5068 4.1789 12.5363L4.18965 12.5256L4.19062 12.5236L6.69062 10.0236C7.21218 9.50192 7.84028 9.0989 8.53144 8.84101C9.2227 8.58315 9.96156 8.47683 10.6975 8.52949ZM10.6623 9.02754C9.99782 8.97995 9.33042 9.07595 8.70625 9.30879C8.08215 9.54161 7.51509 9.90605 7.04414 10.3771L4.54512 12.8752L4.5373 12.885L4.53633 12.884C3.69099 13.76 3.22399 14.9342 3.23457 16.1516C3.24525 17.3694 3.73382 18.5344 4.59492 19.3957C5.4563 20.2571 6.62192 20.7455 7.84004 20.7561C9.05813 20.7666 10.2314 20.2986 11.1076 19.4523L12.5393 18.0217C12.7261 17.8346 12.7262 17.531 12.5393 17.3439C12.3522 17.1569 12.0487 17.157 11.8615 17.3439L10.4406 18.7639L10.4377 18.7678C9.74284 19.4365 8.81336 19.8063 7.84883 19.798C6.88198 19.7896 5.95635 19.4017 5.27265 18.718C4.58915 18.0343 4.20098 17.1095 4.19258 16.1428C4.18422 15.1781 4.55497 14.2489 5.22383 13.5539L5.22676 13.55L7.72187 11.0549C8.09564 10.681 8.54588 10.392 9.04121 10.2072C9.53663 10.0224 10.0665 9.94582 10.5939 9.98359C11.1212 10.0214 11.634 10.1726 12.0978 10.426C12.5619 10.6795 12.9667 11.0299 13.2834 11.4533C13.4419 11.6649 13.7415 11.7082 13.9533 11.55C14.1652 11.3915 14.2085 11.091 14.05 10.8791C13.651 10.3458 13.1423 9.9045 12.5578 9.58515C11.9732 9.26578 11.3267 9.07515 10.6623 9.02754ZM16.1643 2.74238C17.5133 2.7541 18.804 3.29534 19.758 4.24922C20.7121 5.2033 21.2531 6.49472 21.2648 7.84394C21.2764 9.1929 20.7586 10.4927 19.8215 11.4631L19.8107 11.4738L19.8088 11.4748L17.3088 13.9748C16.7871 14.4966 16.1593 14.9005 15.468 15.1584C14.7767 15.4162 14.0378 15.5226 13.302 15.4699C12.5661 15.4172 11.8498 15.2065 11.2023 14.8527C10.5549 14.499 9.99092 14.0099 9.54902 13.4191C9.22534 12.9861 9.31431 12.3729 9.74726 12.049C10.1803 11.7252 10.7935 11.8134 11.1174 12.2463C11.3912 12.6123 11.7407 12.9148 12.1418 13.134C12.5429 13.3531 12.9867 13.4841 13.4426 13.5168C13.8983 13.5494 14.3563 13.4831 14.7844 13.3234C15.2123 13.1637 15.6011 12.914 15.924 12.591L18.4191 10.0949C18.9953 9.49455 19.3141 8.69288 19.3068 7.86054C19.2996 7.02479 18.9642 6.22497 18.3732 5.63398C17.7824 5.04327 16.9831 4.70772 16.1477 4.70039C15.3135 4.69314 14.5092 5.01341 13.9084 5.59199L12.4816 7.01094C12.0981 7.39182 11.478 7.38942 11.0969 7.00605C10.7161 6.62253 10.7184 6.00339 11.1018 5.62226L12.5422 4.18965L12.5451 4.18672C13.5156 3.24954 14.8152 2.73069 16.1643 2.74238ZM16.1603 3.24238C14.9434 3.23181 13.7697 3.69841 12.8937 4.54316L12.8947 4.54414L11.4543 5.97676C11.2666 6.16334 11.2658 6.46682 11.4523 6.65449C11.6388 6.84155 11.9415 6.84242 12.1291 6.65644L13.5588 5.23457L13.5617 5.23164C14.2567 4.56244 15.1866 4.19204 16.1516 4.20039C17.1183 4.20879 18.0431 4.59698 18.7268 5.28047C19.4104 5.96416 19.7984 6.88979 19.8068 7.85664C19.8151 8.82117 19.4453 9.75065 18.7766 10.4455L16.2775 12.9445C15.9038 13.3183 15.4535 13.6074 14.9582 13.7922C14.4629 13.9769 13.9337 14.0526 13.4064 14.0148C12.879 13.9771 12.3656 13.8269 11.9016 13.5734C11.4376 13.3199 11.0337 12.9694 10.717 12.5461C10.5585 12.3342 10.258 12.2909 10.0461 12.4494C9.83444 12.608 9.79098 12.9085 9.94941 13.1203C10.3484 13.6537 10.858 14.0949 11.4426 14.4143C12.0272 14.7336 12.6737 14.9233 13.3381 14.9709C14.0024 15.0185 14.6691 14.9224 15.2932 14.6896C15.9173 14.4568 16.4843 14.0924 16.9553 13.6213L19.4611 11.1154C20.3074 10.2392 20.7754 9.06595 20.7648 7.84785C20.7543 6.62973 20.2659 5.46411 19.4045 4.60273C18.5432 3.74164 17.3782 3.25305 16.1603 3.24238Z" />
</g>
<defs>
<clipPath id="clip0_15325_35642">
<rect width="20" height="20" fill="white" transform="translate(2 2)"/>
</clipPath>
</defs>
</svg>
