<svg width="24" height="24" viewBox="0 0 24 24" fill="none" xmlns="http://www.w3.org/2000/svg">
<path d="M4.75999 10.59C5.0252 10.6245 5.29325 10.5522 5.50517 10.389C5.71709 10.2259 5.85551 9.98522 5.88999 9.72C5.92446 9.45478 5.85217 9.18673 5.68902 8.97482C5.52586 8.7629 5.2852 8.62448 5.01999 8.59L3.25999 8.15C3.13167 8.11066 2.99676 8.09756 2.86327 8.11146C2.72979 8.12537 2.60047 8.166 2.48302 8.23094C2.36557 8.29588 2.26239 8.3838 2.17963 8.48945C2.09688 8.59511 2.03624 8.71634 2.00132 8.84593C1.96641 8.97551 1.95793 9.1108 1.97641 9.24373C1.99488 9.37666 2.03992 9.50451 2.10885 9.61967C2.17778 9.73482 2.26918 9.83493 2.37761 9.91401C2.48604 9.9931 2.60928 10.0495 2.73999 10.08L4.49999 10.55C4.58376 10.578 4.67168 10.5915 4.75999 10.59ZM8.61999 5C8.67859 5.21816 8.80933 5.41005 8.99091 5.54443C9.17249 5.6788 9.39422 5.74773 9.61999 5.74C9.7061 5.75383 9.79387 5.75383 9.87999 5.74C10.1338 5.66978 10.3497 5.50228 10.4807 5.27387C10.6118 5.04545 10.6475 4.77455 10.58 4.52L10.11 2.76C10.0795 2.62929 10.0231 2.50605 9.944 2.39762C9.86491 2.28919 9.76481 2.19779 9.64966 2.12886C9.5345 2.05994 9.40665 2.01489 9.27372 1.99642C9.14079 1.97795 9.0055 1.98642 8.87592 2.02133C8.74633 2.05625 8.6251 2.11689 8.51944 2.19964C8.41379 2.2824 8.32587 2.38558 8.26093 2.50303C8.19599 2.62048 8.15536 2.7498 8.14145 2.88328C8.12755 3.01677 8.14065 3.15169 8.17999 3.28L8.61999 5ZM13.45 15C13.3566 14.9017 13.2441 14.8234 13.1195 14.7698C12.9948 14.7163 12.8606 14.6887 12.725 14.6887C12.5893 14.6887 12.4551 14.7163 12.3305 14.7698C12.2059 14.8234 12.0934 14.9017 12 15L8.49999 18.56C8.08847 18.9548 7.54027 19.1753 6.96999 19.1753C6.39971 19.1753 5.8515 18.9548 5.43999 18.56C5.23741 18.36 5.07657 18.1218 4.96679 17.8591C4.85701 17.5965 4.80048 17.3147 4.80048 17.03C4.80048 16.7453 4.85701 16.4635 4.96679 16.2009C5.07657 15.9382 5.23741 15.7 5.43999 15.5L8.99999 12C9.10467 11.9104 9.18969 11.8 9.24971 11.676C9.30974 11.5519 9.34347 11.4168 9.34879 11.2791C9.3541 11.1413 9.3309 11.004 9.28062 10.8757C9.23035 10.7473 9.15409 10.6308 9.05664 10.5333C8.95918 10.4359 8.84263 10.3596 8.71431 10.3094C8.58598 10.2591 8.44865 10.2359 8.31093 10.2412C8.17321 10.2465 8.03808 10.2802 7.91402 10.3403C7.78995 10.4003 7.67963 10.4853 7.58999 10.59L3.99999 14.08C3.61127 14.4687 3.30293 14.9302 3.09256 15.4381C2.88219 15.9459 2.77391 16.4903 2.77391 17.04C2.77391 17.5897 2.88219 18.1341 3.09256 18.6419C3.30293 19.1498 3.61127 19.6113 3.99999 20C4.3887 20.3887 4.85017 20.6971 5.35805 20.9074C5.86592 21.1178 6.41026 21.2261 6.95999 21.2261C7.50971 21.2261 8.05405 21.1178 8.56193 20.9074C9.0698 20.6971 9.53127 20.3887 9.91999 20L13.45 16.47C13.5515 16.3764 13.6325 16.2627 13.6879 16.1362C13.7433 16.0097 13.7719 15.8731 13.7719 15.735C13.7719 15.5969 13.7433 15.4603 13.6879 15.3338C13.6325 15.2073 13.5515 15.0936 13.45 15ZM5.17999 6.59C5.36625 6.77474 5.61765 6.87889 5.87999 6.88C6.01159 6.88076 6.14206 6.85553 6.26389 6.80577C6.38573 6.75601 6.49655 6.68268 6.58999 6.59C6.77624 6.40264 6.88078 6.14918 6.88078 5.885C6.88078 5.62081 6.77624 5.36736 6.58999 5.18L5.29999 3.89C5.10869 3.72617 4.86261 3.64057 4.61093 3.65029C4.35926 3.66001 4.12052 3.76434 3.94242 3.94244C3.76433 4.12053 3.66 4.35927 3.65027 4.61094C3.64055 4.86262 3.72616 5.1087 3.88999 5.3L5.17999 6.59ZM21.26 13.92L19.5 13.45C19.3696 13.4049 19.2312 13.3873 19.0937 13.3983C18.9561 13.4093 18.8223 13.4486 18.7007 13.5139C18.5791 13.5791 18.4723 13.6688 18.387 13.7773C18.3018 13.8858 18.2399 14.0108 18.2053 14.1443C18.1707 14.2779 18.1641 14.4172 18.1859 14.5535C18.2078 14.6897 18.2576 14.82 18.3322 14.9361C18.4069 15.0521 18.5048 15.1515 18.6197 15.2279C18.7346 15.3043 18.8641 15.3561 19 15.38L20.76 15.85H21.02C21.2852 15.8845 21.5533 15.8122 21.7652 15.649C21.9771 15.4859 22.1155 15.2452 22.15 14.98C22.1845 14.7148 22.1122 14.4467 21.949 14.2348C21.7859 14.0229 21.5452 13.8845 21.28 13.85L21.26 13.92ZM15.38 19C15.3453 18.8732 15.2859 18.7545 15.2053 18.6507C15.1247 18.5469 15.0244 18.46 14.9101 18.395C14.7959 18.33 14.6699 18.2881 14.5395 18.2718C14.4091 18.2555 14.2767 18.2651 14.15 18.3C13.8962 18.3702 13.6803 18.5377 13.5492 18.7661C13.4182 18.9945 13.3825 19.2654 13.45 19.52L13.92 21.28C13.9786 21.4982 14.1093 21.6901 14.2909 21.8244C14.4725 21.9588 14.6942 22.0277 14.92 22.02C15.0064 22.0298 15.0936 22.0298 15.18 22.02C15.3077 21.9864 15.4274 21.9278 15.5323 21.8476C15.6372 21.7674 15.7253 21.6673 15.7913 21.5529C15.8573 21.4386 15.9 21.3123 15.9169 21.1813C15.9339 21.0504 15.9247 20.9174 15.89 20.79L15.38 19ZM18.82 17.43C18.6287 17.2662 18.3826 17.1806 18.1309 17.1903C17.8793 17.2 17.6405 17.3043 17.4624 17.4824C17.2843 17.6605 17.18 17.8993 17.1703 18.1509C17.1606 18.4026 17.2462 18.6487 17.41 18.84L18.7 20.13C18.8874 20.3162 19.1408 20.4208 19.405 20.4208C19.6692 20.4208 19.9226 20.3162 20.11 20.13C20.2962 19.9426 20.4008 19.6892 20.4008 19.425C20.4008 19.1608 20.2962 18.9074 20.11 18.72L18.82 17.43ZM21.2 7C21.2155 6.16844 20.9814 5.35131 20.528 4.6541C20.0745 3.95689 19.4224 3.41162 18.656 3.08868C17.8895 2.76573 17.0439 2.67995 16.2282 2.8424C15.4125 3.00484 14.6642 3.40806 14.08 4L10.55 7.56C10.4554 7.65521 10.3806 7.76811 10.3296 7.89225C10.2787 8.0164 10.2528 8.14935 10.2532 8.28353C10.2537 8.41772 10.2806 8.55049 10.3323 8.67428C10.3841 8.79807 10.4598 8.91045 10.555 9.005C10.6502 9.09955 10.7631 9.17442 10.8872 9.22534C11.0114 9.27626 11.1443 9.30223 11.2785 9.30177C11.4127 9.3013 11.5455 9.27442 11.6693 9.22264C11.7931 9.17086 11.9054 9.09521 12 9L15.5 5.44C15.9115 5.04519 16.4597 4.82474 17.03 4.82474C17.6003 4.82474 18.1485 5.04519 18.56 5.44C18.7626 5.63999 18.9234 5.87822 19.0332 6.14086C19.143 6.40351 19.1995 6.68534 19.1995 6.97C19.1995 7.25466 19.143 7.53649 19.0332 7.79913C18.9234 8.06178 18.7626 8.30001 18.56 8.5L15 12C14.8137 12.1874 14.7092 12.4408 14.7092 12.705C14.7092 12.9692 14.8137 13.2226 15 13.41C15.1873 13.5962 15.4408 13.7008 15.705 13.7008C15.9692 13.7008 16.2226 13.5962 16.41 13.41L20 9.92C20.7654 9.14035 21.196 8.09256 21.2 7Z" fill="#5C5C5C"/>
</svg>
