<svg width="24" height="24" viewBox="0 0 24 24" fill="none" xmlns="http://www.w3.org/2000/svg">
<path d="M9.99999 17.55L8.22999 19.27C7.76586 19.7341 7.13637 19.9949 6.47999 19.9949C5.82361 19.9949 5.19412 19.7341 4.72999 19.27C4.26586 18.8059 4.00512 18.1764 4.00512 17.52C4.00512 16.8636 4.26586 16.2341 4.72999 15.77L9.26999 11.22C9.7156 10.7729 10.316 10.5143 10.947 10.4975C11.578 10.4808 12.1913 10.7072 12.66 11.13L12.78 11.23C12.9696 11.4157 13.2252 11.5184 13.4906 11.5156C13.756 11.5127 14.0093 11.4046 14.195 11.215C14.3806 11.0254 14.4834 10.7698 14.4805 10.5044C14.4777 10.239 14.3696 9.98565 14.18 9.8C14.1236 9.72702 14.0635 9.65694 14 9.59C13.1463 8.84731 12.0423 8.45685 10.9116 8.49769C9.78079 8.53854 8.70782 9.00765 7.90999 9.81L3.30999 14.36C2.52835 15.2108 2.10561 16.3307 2.13006 17.4858C2.15452 18.6408 2.62427 19.7418 3.44122 20.5588C4.25817 21.3757 5.35915 21.8455 6.51424 21.8699C7.66932 21.8944 8.7892 21.4716 9.63999 20.69L11.37 19C11.5408 18.8137 11.6347 18.5695 11.6328 18.3167C11.6309 18.0639 11.5333 17.8213 11.3597 17.6375C11.1861 17.4538 10.9493 17.3426 10.6971 17.3263C10.4448 17.3101 10.1957 17.39 9.99999 17.55ZM20.69 3.31C19.8488 2.47401 18.711 2.00479 17.525 2.00479C16.339 2.00479 15.2012 2.47401 14.36 3.31L12.63 5C12.4592 5.18635 12.3653 5.43048 12.3672 5.68327C12.3691 5.93605 12.4667 6.17874 12.6403 6.36248C12.8139 6.54623 13.0507 6.65741 13.3029 6.67365C13.5552 6.68989 13.8043 6.60998 14 6.45L15.73 4.73C16.1941 4.26587 16.8236 4.00513 17.48 4.00513C18.1364 4.00513 18.7659 4.26587 19.23 4.73C19.6941 5.19413 19.9549 5.82362 19.9549 6.48C19.9549 7.13638 19.6941 7.76587 19.23 8.23L14.69 12.78C14.2444 13.2271 13.644 13.4857 13.013 13.5025C12.382 13.5192 11.7687 13.2928 11.3 12.87L11.18 12.77C10.9904 12.5843 10.7347 12.4816 10.4694 12.4844C10.204 12.4873 9.95064 12.5954 9.76499 12.785C9.57934 12.9746 9.47662 13.2302 9.47943 13.4956C9.48225 13.761 9.59036 14.0143 9.77999 14.2C9.85263 14.2743 9.92942 14.3444 10.01 14.41C10.8647 15.1504 11.9682 15.5394 13.0983 15.4986C14.2284 15.4578 15.301 14.9902 16.1 14.19L20.65 9.64C21.4913 8.80407 21.9677 7.66923 21.9752 6.48325C21.9827 5.29727 21.5207 4.15649 20.69 3.31Z" fill="#5C5C5C"/>
</svg>
