<svg width="24" height="24" viewBox="0 0 24 24" fill="none" xmlns="http://www.w3.org/2000/svg">
<path d="M7.70999 20.29C7.80103 20.3851 7.87239 20.4972 7.91999 20.62C8.02001 20.8635 8.02001 21.1365 7.91999 21.38C7.87239 21.5028 7.80103 21.6149 7.70999 21.71C7.61488 21.801 7.50274 21.8724 7.37999 21.92C7.19788 21.9966 6.99716 22.0175 6.80318 21.9801C6.60919 21.9428 6.43061 21.8488 6.28999 21.71C6.20166 21.6128 6.13063 21.5012 6.07999 21.38C6.02708 21.2603 5.99976 21.1309 5.99976 21C5.99976 20.8691 6.02708 20.7397 6.07999 20.62C6.13063 20.4988 6.20166 20.3872 6.28999 20.29C6.43061 20.1512 6.60919 20.0572 6.80317 20.0199C6.99716 19.9825 7.19788 20.0034 7.37999 20.08C7.50274 20.1276 7.61488 20.199 7.70999 20.29ZM16 17L16 3C16 2.73478 16.1053 2.48043 16.2929 2.29289C16.4804 2.10536 16.7348 2 17 2C17.2652 2 17.5196 2.10536 17.7071 2.29289C17.8946 2.48043 18 2.73478 18 3L18 17C18 17.2652 17.8946 17.5196 17.7071 17.7071C17.5196 17.8946 17.2652 18 17 18C16.7348 18 16.4804 17.8946 16.2929 17.7071C16.1053 17.5196 16 17.2652 16 17ZM12.71 20.29C12.8487 20.4306 12.9427 20.6092 12.9801 20.8032C13.0175 20.9972 12.9966 21.1979 12.92 21.38C12.8693 21.5012 12.7983 21.6128 12.71 21.71C12.6149 21.801 12.5027 21.8724 12.38 21.92C12.2603 21.9729 12.1309 22.0002 12 22.0002C11.8691 22.0002 11.7397 21.9729 11.62 21.92C11.4988 21.8694 11.3872 21.7983 11.29 21.71C11.2017 21.6128 11.1306 21.5012 11.08 21.38C11.0271 21.2603 10.9998 21.1309 10.9998 21C10.9998 20.8691 11.0271 20.7397 11.08 20.62C11.1306 20.4988 11.2017 20.3872 11.29 20.29C11.3872 20.2017 11.4988 20.1306 11.62 20.08C11.7397 20.0271 11.8691 19.9998 12 19.9998C12.1309 19.9998 12.2603 20.0271 12.38 20.08C12.5027 20.1276 12.6149 20.199 12.71 20.29ZM13 3L13 17C13 17.2652 12.8946 17.5196 12.7071 17.7071C12.5196 17.8946 12.2652 18 12 18C11.7348 18 11.4804 17.8946 11.2929 17.7071C11.1053 17.5196 11 17.2652 11 17L11 3C11 2.73478 11.1053 2.48043 11.2929 2.29289C11.4804 2.10536 11.7348 2 12 2C12.2652 2 12.5196 2.10536 12.7071 2.29289C12.8946 2.48043 13 2.73478 13 3ZM17.71 20.29C17.801 20.3851 17.8724 20.4972 17.92 20.62C17.9966 20.8021 18.0175 21.0028 17.9801 21.1968C17.9427 21.3908 17.8487 21.5694 17.71 21.71C17.6128 21.7983 17.5012 21.8694 17.38 21.92C17.2603 21.9729 17.1309 22.0002 17 22.0002C16.8691 22.0002 16.7397 21.9729 16.62 21.92C16.4988 21.8694 16.3872 21.7983 16.29 21.71C16.2017 21.6128 16.1306 21.5012 16.08 21.38C16.0034 21.1979 15.9825 20.9972 16.0199 20.8032C16.0572 20.6092 16.1512 20.4306 16.29 20.29C16.3872 20.2017 16.4988 20.1306 16.62 20.08C16.7397 20.0271 16.8691 19.9998 17 19.9998C17.1309 19.9998 17.2603 20.0271 17.38 20.08C17.5012 20.1306 17.6128 20.2017 17.71 20.29ZM7.99999 3L7.99999 17C7.99999 17.2652 7.89463 17.5196 7.7071 17.7071C7.51956 17.8946 7.2652 18 6.99999 18C6.73477 18 6.48042 17.8946 6.29288 17.7071C6.10534 17.5196 5.99999 17.2652 5.99999 17L5.99999 3C5.99999 2.73478 6.10534 2.48043 6.29288 2.29289C6.48042 2.10536 6.73477 2 6.99999 2C7.2652 2 7.51956 2.10536 7.7071 2.29289C7.89463 2.48043 7.99999 2.73478 7.99999 3Z" fill="#5C5C5C"/>
</svg>
