<svg width="24" height="24" viewBox="0 0 24 24" fill="none" xmlns="http://www.w3.org/2000/svg">
<path fill-rule="evenodd" clip-rule="evenodd" d="M8.66667 7.33333C8.66667 7.05719 8.44281 6.83333 8.16667 6.83333H6.83333C6.55719 6.83333 6.33333 7.05719 6.33333 7.33333V8.66667C6.33333 8.94281 6.55719 9.16667 6.83333 9.16667H8.16667C8.44281 9.16667 8.66667 8.94281 8.66667 8.66667V7.33333ZM5 4.5C4.44772 4.5 4 4.94772 4 5.5V10.5C4 11.0523 4.44772 11.5 5 11.5H10C10.5523 11.5 11 11.0523 11 10.5V5.5C11 4.94772 10.5523 4.5 10 4.5H5Z" fill="#5C5C5C"/>
<path d="M13 5.5C13 4.94772 13.4477 4.5 14 4.5H19C19.5523 4.5 20 4.94772 20 5.5C20 6.05228 19.5523 6.5 19 6.5H14C13.4477 6.5 13 6.05228 13 5.5Z" fill="#5C5C5C"/>
<path d="M13 11.5C13 10.9477 13.4477 10.5 14 10.5H19C19.5523 10.5 20 10.9477 20 11.5C20 12.0523 19.5523 12.5 19 12.5H14C13.4477 12.5 13 12.0523 13 11.5Z" fill="#5C5C5C"/>
<path d="M13 17.5C13 16.9477 13.4477 16.5 14 16.5H19C19.5523 16.5 20 16.9477 20 17.5C20 18.0523 19.5523 18.5 19 18.5H14C13.4477 18.5 13 18.0523 13 17.5Z" fill="#5C5C5C"/>
<path fill-rule="evenodd" clip-rule="evenodd" d="M10.2929 15C10.6834 15.3905 10.6834 16.0237 10.2929 16.4142L7.5 19.2071C7.10948 19.5976 6.47631 19.5976 6.08579 19.2071L4.79289 17.9142C4.40237 17.5237 4.40237 16.8905 4.79289 16.5C5.18342 16.1095 5.81658 16.1095 6.20711 16.5L6.79289 17.0858L8.87868 15C9.2692 14.6095 9.90237 14.6095 10.2929 15Z" fill="#5C5C5C"/>
</svg>
