<svg width="24" height="24" viewBox="0 0 24 24" fill="none" xmlns="http://www.w3.org/2000/svg">
<path d="M15.5355 8.46446C15.9261 8.85499 15.9261 9.48815 15.5355 9.87868L9.87869 15.5355C9.48817 15.9261 8.855 15.9261 8.46448 15.5355C8.07395 15.145 8.07395 14.5118 8.46448 14.1213L14.1213 8.46446C14.5119 8.07394 15.145 8.07394 15.5355 8.46446Z" fill="#5C5C5C"/>
<path fill-rule="evenodd" clip-rule="evenodd" d="M3.51473 20.4853C1.56211 18.5327 1.56211 15.3668 3.51473 13.4142L7.05026 9.87868C7.44079 9.48815 8.07395 9.48815 8.46448 9.87868C8.855 10.2692 8.855 10.9024 8.46448 11.2929L4.92894 14.8284C3.75737 16 3.75737 17.8995 4.92894 19.0711C6.10051 20.2426 8.00001 20.2426 9.17158 19.0711L12.7071 15.5355C13.0976 15.145 13.7308 15.145 14.1213 15.5355C14.5119 15.9261 14.5119 16.5592 14.1213 16.9497L10.5858 20.4853C8.63317 22.4379 5.46735 22.4379 3.51473 20.4853Z" fill="#5C5C5C"/>
<path fill-rule="evenodd" clip-rule="evenodd" d="M20.4853 3.51472C18.5327 1.5621 15.3668 1.5621 13.4142 3.51472L9.87869 7.05025C9.48816 7.44078 9.48816 8.07394 9.87869 8.46446C10.2692 8.85499 10.9024 8.85499 11.2929 8.46446L14.8284 4.92893C16 3.75736 17.8995 3.75736 19.0711 4.92893C20.2427 6.1005 20.2427 8 19.0711 9.17157L15.5355 12.7071C15.145 13.0976 15.145 13.7308 15.5355 14.1213C15.9261 14.5118 16.5592 14.5118 16.9498 14.1213L20.4853 10.5858C22.4379 8.63316 22.4379 5.46734 20.4853 3.51472Z" fill="#5C5C5C"/>
</svg>
