<svg width="24" height="24" viewBox="0 0 24 24" fill="none" xmlns="http://www.w3.org/2000/svg">
<path d="M12 14.7273C12.9283 14.7273 13.8185 14.3442 14.4749 13.6622C15.1313 12.9803 15.5 12.0553 15.5 11.0909V5.63636C15.5 4.67194 15.1313 3.74702 14.4749 3.06507C13.8185 2.38312 12.9283 2 12 2C11.0717 2 10.1815 2.38312 9.52513 3.06507C8.86875 3.74702 8.5 4.67194 8.5 5.63636V11.0909C8.5 12.0553 8.86875 12.9803 9.52513 13.6622C10.1815 14.3442 11.0717 14.7273 12 14.7273ZM10.25 5.63636C10.25 5.15415 10.4344 4.69169 10.7626 4.35071C11.0908 4.00974 11.5359 3.81818 12 3.81818C12.4641 3.81818 12.9092 4.00974 13.2374 4.35071C13.5656 4.69169 13.75 5.15415 13.75 5.63636V11.0909C13.75 11.5731 13.5656 12.0356 13.2374 12.3766C12.9092 12.7175 12.4641 12.9091 12 12.9091C11.5359 12.9091 11.0908 12.7175 10.7626 12.3766C10.4344 12.0356 10.25 11.5731 10.25 11.0909V5.63636ZM19 11.0909C19 10.8498 18.9078 10.6186 18.7437 10.4481C18.5796 10.2776 18.3571 10.1818 18.125 10.1818C17.8929 10.1818 17.6704 10.2776 17.5063 10.4481C17.3422 10.6186 17.25 10.8498 17.25 11.0909C17.25 12.5375 16.6969 13.9249 15.7123 14.9479C14.7277 15.9708 13.3924 16.5455 12 16.5455C10.6076 16.5455 9.27226 15.9708 8.28769 14.9479C7.30312 13.9249 6.75 12.5375 6.75 11.0909C6.75 10.8498 6.65781 10.6186 6.49372 10.4481C6.32962 10.2776 6.10706 10.1818 5.875 10.1818C5.64294 10.1818 5.42038 10.2776 5.25628 10.4481C5.09219 10.6186 5 10.8498 5 11.0909C5.00155 12.8612 5.62451 14.5701 6.7521 15.8972C7.87969 17.2244 9.43448 18.0787 11.125 18.3V20.1818H9.375C9.14294 20.1818 8.92038 20.2776 8.75628 20.4481C8.59219 20.6186 8.5 20.8498 8.5 21.0909C8.5 21.332 8.59219 21.5632 8.75628 21.7337C8.92038 21.9042 9.14294 22 9.375 22H14.625C14.8571 22 15.0796 21.9042 15.2437 21.7337C15.4078 21.5632 15.5 21.332 15.5 21.0909C15.5 20.8498 15.4078 20.6186 15.2437 20.4481C15.0796 20.2776 14.8571 20.1818 14.625 20.1818H12.875V18.3C14.5655 18.0787 16.1203 17.2244 17.2479 15.8972C18.3755 14.5701 18.9985 12.8612 19 11.0909Z" fill="#5C5C5C"/>
</svg>
