<svg width="24" height="24" viewBox="0 0 24 24" fill="none" xmlns="http://www.w3.org/2000/svg">
<path fill-rule="evenodd" clip-rule="evenodd" d="M4.5 5C4.5 3.34315 5.84315 2 7.5 2H17.5C19.1569 2 20.5 3.34315 20.5 5V19C20.5 20.6569 19.1569 22 17.5 22H7.5C5.84315 22 4.5 20.6569 4.5 19V5ZM7.5 4C6.94772 4 6.5 4.44772 6.5 5V19C6.5 19.5523 6.94772 20 7.5 20H17.5C18.0523 20 18.5 19.5523 18.5 19V5C18.5 4.44772 18.0523 4 17.5 4H7.5Z" fill="#5C5C5C"/>
<path fill-rule="evenodd" clip-rule="evenodd" d="M14.5 20V4H16.5V20H14.5Z" fill="#5C5C5C"/>
<path d="M2.5 7C2.5 6.44772 2.94772 6 3.5 6H6.5C7.05228 6 7.5 6.44772 7.5 7C7.5 7.55228 7.05228 8 6.5 8H3.5C2.94772 8 2.5 7.55228 2.5 7Z" fill="#5C5C5C"/>
<path d="M2.5 12C2.5 11.4477 2.94772 11 3.5 11H6.5C7.05228 11 7.5 11.4477 7.5 12C7.5 12.5523 7.05228 13 6.5 13H3.5C2.94772 13 2.5 12.5523 2.5 12Z" fill="#5C5C5C"/>
<path d="M2.5 17C2.5 16.4477 2.94772 16 3.5 16H6.5C7.05228 16 7.5 16.4477 7.5 17C7.5 17.5523 7.05228 18 6.5 18H3.5C2.94772 18 2.5 17.5523 2.5 17Z" fill="#5C5C5C"/>
</svg>
