<svg width="22" height="22" viewBox="0 0 22 22" xmlns="http://www.w3.org/2000/svg">
<path d="M19.0274 14.2193C18.3113 12.9521 17.9309 11.1332 17.9309 8.96288C17.9309 7.07199 17.2007 5.25854 15.901 3.92147C14.6012 2.58441 12.8383 1.83325 11.0002 1.83325C9.16208 1.83325 7.39922 2.58441 6.09947 3.92147C4.79971 5.25854 4.06951 7.07199 4.06951 8.96288C4.06951 11.134 3.6908 12.9521 2.97463 14.2193C2.82849 14.4778 2.75102 14.7712 2.75001 15.0702C2.749 15.3692 2.82447 15.6632 2.96885 15.9228C3.11232 16.1824 3.32055 16.398 3.57206 16.5472C3.82356 16.6964 4.10922 16.7738 4.39955 16.7715H17.6009C17.8908 16.7734 18.1759 16.6957 18.427 16.5465C18.678 16.3973 18.8858 16.182 19.0291 15.9228C19.1741 15.6636 19.2503 15.3698 19.25 15.0708C19.2497 14.7718 19.173 14.4781 19.0274 14.2193ZM4.94905 14.7345C5.67925 13.2067 6.04971 11.2664 6.04971 8.96288C6.04971 7.61224 6.57128 6.31692 7.49968 5.36187C8.42808 4.40683 9.68726 3.87029 11.0002 3.87029C12.3132 3.87029 13.5723 4.40683 14.5007 5.36187C15.4291 6.31692 15.9507 7.61224 15.9507 8.96288C15.9507 11.2656 16.3203 13.2067 17.0505 14.7345H4.94905ZM14.6306 19.1481C14.6306 19.4182 14.5263 19.6773 14.3406 19.8683C14.1549 20.0593 13.9031 20.1666 13.6405 20.1666H8.35995C8.09735 20.1666 7.84552 20.0593 7.65984 19.8683C7.47416 19.6773 7.36984 19.4182 7.36984 19.1481C7.36984 18.8779 7.47416 18.6189 7.65984 18.4279C7.84552 18.2369 8.09735 18.1295 8.35995 18.1295H13.6405C13.9031 18.1295 14.1549 18.2369 14.3406 18.4279C14.5263 18.6189 14.6306 18.8779 14.6306 19.1481Z"/>
</svg>
