<svg width="24" height="24" viewBox="0 0 24 24" fill="none" xmlns="http://www.w3.org/2000/svg">
<path d="M8.66406 19.253C9.07685 19.6199 9.11399 20.2513 8.74707 20.6641C8.38015 21.0769 7.74872 21.114 7.33594 20.7471L8 20.0001C7.35202 20.729 7.33671 20.747 7.33594 20.7471L7.33203 20.7442C7.33074 20.743 7.32877 20.7418 7.32715 20.7403C7.32388 20.7373 7.31999 20.7337 7.31543 20.7295C7.30581 20.7207 7.29333 20.7086 7.27832 20.6944C7.2483 20.6659 7.20756 20.6264 7.1582 20.5762C7.05954 20.476 6.92469 20.3319 6.7666 20.1446C6.45041 19.7698 6.03849 19.2184 5.62891 18.4903C4.80727 17.0296 4 14.8624 4 12.0001C4 9.13773 4.80727 6.9705 5.62891 5.50982C6.03849 4.7817 6.45041 4.23031 6.7666 3.85552C6.92469 3.66816 7.05954 3.52412 7.1582 3.42388C7.20756 3.37375 7.2483 3.33418 7.27832 3.30572C7.29333 3.29149 7.30581 3.27939 7.31543 3.27056C7.31999 3.26638 7.32388 3.26278 7.32715 3.25982C7.32877 3.25835 7.33074 3.25707 7.33203 3.25591L7.33496 3.25298C7.33564 3.25308 7.34849 3.26713 7.79785 3.77252L7.33496 3.25298C7.74774 2.88607 8.38015 2.92321 8.74707 3.33599C9.11384 3.74861 9.07639 4.37917 8.66406 4.74615L8.66504 4.74712C8.6627 4.74929 8.65899 4.75244 8.6543 4.75689C8.64041 4.77006 8.61651 4.79319 8.58398 4.82623C8.51866 4.89259 8.41876 4.99899 8.2959 5.14459C8.04966 5.43642 7.71134 5.88541 7.37109 6.49029C6.69276 7.69627 6 9.52917 6 12.0001C6 14.4709 6.69276 16.3038 7.37109 17.5098C7.71134 18.1147 8.04966 18.5637 8.2959 18.8555C8.41876 19.0011 8.51866 19.1075 8.58398 19.1739C8.61651 19.2069 8.64041 19.2301 8.6543 19.2432C8.65866 19.2474 8.66173 19.2508 8.66406 19.253Z" fill="#5C5C5C"/>
<path d="M15.3457 19.2432C15.3596 19.2301 15.3835 19.2069 15.416 19.1739C15.4813 19.1075 15.5812 19.0011 15.7041 18.8555C15.9503 18.5637 16.2887 18.1147 16.6289 17.5098C17.3072 16.3038 18 14.4709 18 12.0001C18 9.52917 17.3072 7.69627 16.6289 6.49029C16.2887 5.88541 15.9503 5.43642 15.7041 5.14459C15.5812 4.99899 15.4813 4.89259 15.416 4.82623C15.3835 4.79319 15.3596 4.77006 15.3457 4.75689L15.3359 4.74615C14.9236 4.37917 14.8862 3.74861 15.2529 3.33599C15.6198 2.92321 16.2513 2.88607 16.6641 3.25298L16.2021 3.77252C16.6515 3.26713 16.6634 3.25308 16.6641 3.25298L16.668 3.25591C16.6693 3.25707 16.6712 3.25835 16.6729 3.25982C16.6761 3.26278 16.68 3.26638 16.6846 3.27056C16.6942 3.27939 16.7067 3.29149 16.7217 3.30572C16.7517 3.33418 16.7924 3.37375 16.8418 3.42388C16.9405 3.52412 17.0753 3.66816 17.2334 3.85552C17.5496 4.23031 17.9615 4.7817 18.3711 5.50982C19.1927 6.9705 20 9.13773 20 12.0001C20 14.8624 19.1927 17.0296 18.3711 18.4903C17.9615 19.2184 17.5496 19.7698 17.2334 20.1446C17.0753 20.3319 16.9405 20.476 16.8418 20.5762C16.7924 20.6264 16.7517 20.6659 16.7217 20.6944C16.7067 20.7086 16.6942 20.7207 16.6846 20.7295C16.68 20.7337 16.6761 20.7373 16.6729 20.7403C16.6712 20.7418 16.6693 20.743 16.668 20.7442L16.665 20.7471C16.6643 20.747 16.648 20.729 16 20.0001L16.665 20.7471C16.2523 21.114 15.6198 21.0769 15.2529 20.6641C14.886 20.2513 14.9232 19.6199 15.3359 19.253C15.3383 19.2508 15.3413 19.2474 15.3457 19.2432Z" fill="#5C5C5C"/>
</svg>
