<svg width="24" height="24" viewBox="0 0 24 24" fill="none" xmlns="http://www.w3.org/2000/svg">
<path d="M20.1818 12C20.1818 7.48131 16.5187 3.81818 12 3.81818C7.48131 3.81818 3.81818 7.48131 3.81818 12C3.81818 16.5187 7.48131 20.1818 12 20.1818C16.5187 20.1818 20.1818 16.5187 20.1818 12ZM22 12C22 17.5228 17.5228 22 12 22C6.47715 22 2 17.5228 2 12C2 6.47715 6.47715 2 12 2C17.5228 2 22 6.47715 22 12Z" fill="#5C5C5C"/>
<path d="M9 15V9C9 8.44772 9.44772 8 10 8C10.5523 8 11 8.44772 11 9V15C11 15.5523 10.5523 16 10 16C9.44772 16 9 15.5523 9 15Z" fill="#5C5C5C"/>
<path d="M13 15V9C13 8.44772 13.4477 8 14 8C14.5523 8 15 8.44772 15 9V15C15 15.5523 14.5523 16 14 16C13.4477 16 13 15.5523 13 15Z" fill="#5C5C5C"/>
</svg>
