<svg width="24" height="24" viewBox="0 0 24 24" fill="none" xmlns="http://www.w3.org/2000/svg">
<path d="M18.75 15.375V16.125H19.875C20.1734 16.125 20.4595 16.2435 20.6705 16.4545C20.8815 16.6655 21 16.9516 21 17.25C21 17.5484 20.8815 17.8345 20.6705 18.0455C20.4595 18.2565 20.1734 18.375 19.875 18.375H18.75V19.5C18.75 19.7984 18.6315 20.0845 18.4205 20.2955C18.2095 20.5065 17.9234 20.625 17.625 20.625C17.3266 20.625 17.0405 20.5065 16.8295 20.2955C16.6185 20.0845 16.5 19.7984 16.5 19.5V14.25C16.5 13.9516 16.6185 13.6655 16.8295 13.4545C17.0405 13.2435 17.3266 13.125 17.625 13.125H20.625C20.9234 13.125 21.2095 13.2435 21.4205 13.4545C21.6315 13.6655 21.75 13.9516 21.75 14.25C21.75 14.5484 21.6315 14.8345 21.4205 15.0455C21.2095 15.2565 20.9234 15.375 20.625 15.375H18.75ZM8.625 16.125C8.625 16.9206 8.30893 17.6837 7.74632 18.2463C7.18371 18.8089 6.42065 19.125 5.625 19.125H5.25V19.5C5.25 19.7984 5.13147 20.0845 4.9205 20.2955C4.70952 20.5065 4.42337 20.625 4.125 20.625C3.82663 20.625 3.54048 20.5065 3.3295 20.2955C3.11853 20.0845 3 19.7984 3 19.5V14.25C3 13.9516 3.11853 13.6655 3.3295 13.4545C3.54048 13.2435 3.82663 13.125 4.125 13.125H5.625C6.42065 13.125 7.18371 13.4411 7.74632 14.0037C8.30893 14.5663 8.625 15.3294 8.625 16.125ZM6.375 16.125C6.375 15.9261 6.29598 15.7353 6.15533 15.5947C6.01468 15.454 5.82391 15.375 5.625 15.375H5.25V16.875H5.625C5.82391 16.875 6.01468 16.796 6.15533 16.6553C6.29598 16.5147 6.375 16.3239 6.375 16.125ZM15.75 16.875C15.75 17.8696 15.3549 18.8234 14.6517 19.5266C13.9484 20.2299 12.9946 20.625 12 20.625H10.5C10.2016 20.625 9.91548 20.5065 9.7045 20.2955C9.49353 20.0845 9.375 19.7984 9.375 19.5V14.25C9.375 13.9516 9.49353 13.6655 9.7045 13.4545C9.91548 13.2435 10.2016 13.125 10.5 13.125H12C12.9946 13.125 13.9484 13.5201 14.6517 14.2233C15.3549 14.9266 15.75 15.8804 15.75 16.875ZM13.5 16.875C13.5 16.4772 13.342 16.0956 13.0607 15.8143C12.7794 15.533 12.3978 15.375 12 15.375H11.625V18.375H12C12.3978 18.375 12.7794 18.217 13.0607 17.9357C13.342 17.6544 13.5 17.2728 13.5 16.875ZM3.375 10.125V3.75C3.375 3.25272 3.57254 2.77581 3.92417 2.42417C4.27581 2.07254 4.75272 1.875 5.25 1.875H14.25C14.3978 1.87501 14.5442 1.90416 14.6808 1.96078C14.8174 2.0174 14.9415 2.10039 15.0459 2.205L20.2959 7.455C20.5066 7.66593 20.625 7.95187 20.625 8.25V10.125C20.625 10.4234 20.5065 10.7095 20.2955 10.9205C20.0845 11.1315 19.7984 11.25 19.5 11.25C19.2016 11.25 18.9155 11.1315 18.7045 10.9205C18.4935 10.7095 18.375 10.4234 18.375 10.125V9.75H13.875C13.5766 9.75 13.2905 9.63147 13.0795 9.4205C12.8685 9.20952 12.75 8.92337 12.75 8.625V4.125H5.625V10.125C5.625 10.4234 5.50647 10.7095 5.2955 10.9205C5.08452 11.1315 4.79837 11.25 4.5 11.25C4.20163 11.25 3.91548 11.1315 3.7045 10.9205C3.49353 10.7095 3.375 10.4234 3.375 10.125ZM15 5.34375V7.5H17.1562L15 5.34375Z" fill="#5C5C5C"/>
</svg>
