<svg viewBox="0 0 18 18" fill="none" xmlns="http://www.w3.org/2000/svg">
<path d="M14.0625 11.5312V12.0938H14.9062C15.13 12.0938 15.3446 12.1826 15.5029 12.3409C15.6611 12.4991 15.75 12.7137 15.75 12.9375C15.75 13.1613 15.6611 13.3759 15.5029 13.5341C15.3446 13.6924 15.13 13.7812 14.9062 13.7812H14.0625V14.625C14.0625 14.8488 13.9736 15.0634 13.8154 15.2216C13.6571 15.3799 13.4425 15.4688 13.2188 15.4688C12.995 15.4688 12.7804 15.3799 12.6221 15.2216C12.4639 15.0634 12.375 14.8488 12.375 14.625V10.6875C12.375 10.4637 12.4639 10.2491 12.6221 10.0909C12.7804 9.93264 12.995 9.84375 13.2188 9.84375H15.4688C15.6925 9.84375 15.9071 9.93264 16.0654 10.0909C16.2236 10.2491 16.3125 10.4637 16.3125 10.6875C16.3125 10.9113 16.2236 11.1259 16.0654 11.2841C15.9071 11.4424 15.6925 11.5312 15.4688 11.5312H14.0625ZM6.46875 12.0938C6.46875 12.6905 6.2317 13.2628 5.80974 13.6847C5.38778 14.1067 4.81549 14.3438 4.21875 14.3438H3.9375V14.625C3.9375 14.8488 3.84861 15.0634 3.69037 15.2216C3.53214 15.3799 3.31753 15.4688 3.09375 15.4688C2.86997 15.4688 2.65536 15.3799 2.49713 15.2216C2.33889 15.0634 2.25 14.8488 2.25 14.625V10.6875C2.25 10.4637 2.33889 10.2491 2.49713 10.0909C2.65536 9.93264 2.86997 9.84375 3.09375 9.84375H4.21875C4.81549 9.84375 5.38778 10.0808 5.80974 10.5028C6.2317 10.9247 6.46875 11.497 6.46875 12.0938ZM4.78125 12.0938C4.78125 11.9446 4.72199 11.8015 4.6165 11.696C4.51101 11.5905 4.36793 11.5312 4.21875 11.5312H3.9375V12.6562H4.21875C4.36793 12.6562 4.51101 12.597 4.6165 12.4915C4.72199 12.386 4.78125 12.2429 4.78125 12.0938ZM11.8125 12.6562C11.8125 13.4022 11.5162 14.1175 10.9887 14.645C10.4613 15.1724 9.74592 15.4688 9 15.4688H7.875C7.65122 15.4688 7.43661 15.3799 7.27838 15.2216C7.12014 15.0634 7.03125 14.8488 7.03125 14.625V10.6875C7.03125 10.4637 7.12014 10.2491 7.27838 10.0909C7.43661 9.93264 7.65122 9.84375 7.875 9.84375H9C9.74592 9.84375 10.4613 10.1401 10.9887 10.6675C11.5162 11.195 11.8125 11.9103 11.8125 12.6562ZM10.125 12.6562C10.125 12.3579 10.0065 12.0717 9.7955 11.8608C9.58452 11.6498 9.29837 11.5312 9 11.5312H8.71875V13.7812H9C9.29837 13.7812 9.58452 13.6627 9.7955 13.4517C10.0065 13.2408 10.125 12.9546 10.125 12.6562ZM2.53125 7.59375V2.8125C2.53125 2.43954 2.67941 2.08185 2.94313 1.81813C3.20685 1.55441 3.56454 1.40625 3.9375 1.40625H10.6875C10.7984 1.40626 10.9082 1.42812 11.0106 1.47058C11.113 1.51305 11.2061 1.57529 11.2845 1.65375L15.222 5.59125C15.38 5.74945 15.4687 5.9639 15.4688 6.1875V7.59375C15.4688 7.81753 15.3799 8.03214 15.2216 8.19037C15.0634 8.34861 14.8488 8.4375 14.625 8.4375C14.4012 8.4375 14.1866 8.34861 14.0284 8.19037C13.8701 8.03214 13.7812 7.81753 13.7812 7.59375V7.3125H10.4062C10.1825 7.3125 9.96786 7.22361 9.80963 7.06537C9.6514 6.90714 9.5625 6.69253 9.5625 6.46875V3.09375H4.21875V7.59375C4.21875 7.81753 4.12986 8.03214 3.97162 8.19037C3.81339 8.34861 3.59878 8.4375 3.375 8.4375C3.15122 8.4375 2.93661 8.34861 2.77838 8.19037C2.62014 8.03214 2.53125 7.81753 2.53125 7.59375ZM11.25 4.00781V5.625H12.8672L11.25 4.00781Z" />
</svg>
