<svg width="11" height="12" viewBox="0 0 11 12"  xmlns="http://www.w3.org/2000/svg">
<path d="M9.82522 2.54412C9.96331 2.68845 10.072 2.85827 10.1452 3.04412C10.2289 3.22987 10.2748 3.43044 10.2802 3.63412V11.3491C10.2802 11.5206 10.2124 11.6852 10.0916 11.807C9.97079 11.9287 9.80675 11.9978 9.63522 11.9991H0.635223C0.550461 12 0.466414 11.9835 0.388194 11.9509C0.309974 11.9182 0.239216 11.87 0.180223 11.8091C0.121012 11.7484 0.0745768 11.6763 0.0436608 11.5973C0.0127449 11.5183 -0.00202514 11.4339 0.000222988 11.3491V0.639115C-0.000531319 0.468985 0.0659621 0.305448 0.185223 0.184115C0.244724 0.12433 0.31571 0.0772067 0.393906 0.0455845C0.472102 0.0139622 0.55589 -0.0015047 0.640223 0.000115292H6.64022C6.84383 0.00603753 7.0443 0.0519062 7.23022 0.135115C7.41539 0.209659 7.58498 0.318193 7.73022 0.455115L9.82522 2.54412ZM9.42522 11.1341V4.28412H6.64022C6.47078 4.28099 6.30926 4.21182 6.19008 4.09133C6.07091 3.97085 6.0035 3.80858 6.00222 3.63912V0.854115H0.855223V11.1341H9.42522ZM6.00222 7.16912C6.17988 7.30557 6.36702 7.42921 6.56222 7.53912C6.81795 7.51154 7.07501 7.49819 7.33222 7.49912C7.99889 7.49912 8.39389 7.60912 8.51722 7.82912C8.55078 7.88039 8.56865 7.94034 8.56865 8.00162C8.56865 8.06289 8.55078 8.12284 8.51722 8.17412C8.49222 8.34412 8.33222 8.42912 8.01722 8.42912C7.75543 8.42108 7.49613 8.37562 7.24722 8.29412C6.94604 8.2053 6.65456 8.08637 6.37722 7.93912C5.48637 8.02871 4.60789 8.2148 3.75722 8.49412C3.08389 9.68412 2.55056 10.2791 2.15722 10.2791C2.09119 10.2796 2.02601 10.2642 1.96722 10.2341L1.80722 10.1491L1.76722 10.1191C1.74224 10.085 1.7256 10.0456 1.71866 10.0039C1.71171 9.96219 1.71464 9.91946 1.72722 9.87912C1.7985 9.64584 1.92748 9.43431 2.10222 9.26412C2.36266 8.99868 2.66718 8.78045 3.00222 8.61912C3.06222 8.57912 3.11222 8.61912 3.15222 8.65912C3.15458 8.66728 3.15458 8.67595 3.15222 8.68412C3.38722 8.30412 3.62222 7.86912 3.86722 7.36912C4.15197 6.80596 4.38622 6.21866 4.56722 5.61412C4.46356 5.26537 4.39653 4.90676 4.36722 4.54412C4.33459 4.26048 4.3481 3.97343 4.40722 3.69412C4.45722 3.51412 4.55222 3.42412 4.69222 3.42412H4.83722C4.88143 3.42174 4.92559 3.42952 4.96632 3.44685C5.00706 3.46419 5.04328 3.49062 5.07222 3.52412C5.11535 3.59076 5.14311 3.66616 5.15349 3.74485C5.16387 3.82355 5.1566 3.90357 5.13222 3.97912C5.12573 3.99823 5.11736 4.01665 5.10722 4.03412C5.11021 4.05233 5.11021 4.0709 5.10722 4.08912V4.28912C5.10409 4.71946 5.06899 5.14897 5.00222 5.57412C5.17879 6.18931 5.52541 6.74217 6.00222 7.16912ZM2.14522 9.91912C2.52957 9.64291 2.84311 9.27968 3.06022 8.85912C2.84393 9.02408 2.6476 9.21369 2.47522 9.42412C2.33585 9.57072 2.21953 9.73762 2.13022 9.91912H2.14522ZM3.97522 8.18412C4.58979 7.94245 5.226 7.75996 5.87522 7.63912L5.79022 7.57912L5.67022 7.49912C5.30806 7.16904 5.01859 6.76718 4.82022 6.31912C4.67135 6.77345 4.48573 7.2149 4.26522 7.63912C4.13022 7.87912 4.03022 8.06412 3.96522 8.18412H3.97522ZM4.79022 3.75912C4.72414 4.05041 4.72414 4.35282 4.79022 4.64412L4.83522 4.34912C4.83946 4.25108 4.85455 4.15382 4.88022 4.05912C4.8828 4.03799 4.89034 4.01777 4.90222 4.00012C4.90079 3.91299 4.87094 3.82872 4.81722 3.76012L4.79022 3.75912ZM6.85522 0.909115V3.40912H9.35522C9.32586 3.30761 9.27467 3.21376 9.20522 3.13412L7.12522 1.05412C7.0465 0.987222 6.95447 0.937799 6.85522 0.909115ZM8.28522 8.07912C8.18522 7.96912 7.86522 7.91412 7.35022 7.91412C7.61426 8.02361 7.89485 8.08784 8.18022 8.10412H8.30222L8.28522 8.07912Z"/>
</svg>
