<svg width="24" height="24" viewBox="0 0 24 24" fill="none" xmlns="http://www.w3.org/2000/svg">
<path d="M20 8.94C19.9896 8.84813 19.9695 8.75763 19.94 8.67V8.58C19.8919 8.47718 19.8278 8.38267 19.75 8.3L13.75 2.3C13.6673 2.22222 13.5728 2.15808 13.47 2.11H13.38L13.06 2H7C6.20435 2 5.44129 2.31607 4.87868 2.87868C4.31607 3.44129 4 4.20435 4 5V19C4 19.7956 4.31607 20.5587 4.87868 21.1213C5.44129 21.6839 6.20435 22 7 22H17C17.7956 22 18.5587 21.6839 19.1213 21.1213C19.6839 20.5587 20 19.7956 20 19V9C20 9 20 9 20 8.94ZM14 5.41L16.59 8H14V5.41ZM18 19C18 19.2652 17.8946 19.5196 17.7071 19.7071C17.5196 19.8946 17.2652 20 17 20H7C6.73478 20 6.48043 19.8946 6.29289 19.7071C6.10536 19.5196 6 19.2652 6 19V5C6 4.73478 6.10536 4.48043 6.29289 4.29289C6.48043 4.10536 6.73478 4 7 4H12V9C12 9.26522 12.1054 9.51957 12.2929 9.70711C12.4804 9.89464 12.7348 10 13 10H18V19Z" />
<path fill-rule="evenodd" clip-rule="evenodd" d="M8.08076 17.6818C8.17518 17.9343 8.34678 18.1491 8.57574 18.2959C8.6359 18.3347 8.69456 18.3641 8.74739 18.3873C8.91455 18.4604 9.09828 18.5 9.28681 18.5C9.7187 18.5 10.1217 18.3007 10.4332 18.0022C10.8616 17.5901 11.2854 16.9825 11.5688 16.5425C11.7208 16.5208 11.8847 16.5003 12.0648 16.4796C12.2908 16.455 12.4966 16.4377 12.6866 16.4262L12.7617 16.4982C13.1681 16.8881 13.5028 17.1954 13.8179 17.4181L13.8433 17.436C13.962 17.5189 14.085 17.5935 14.2089 17.6552C14.3874 17.7446 14.5844 17.7994 14.7969 17.7994C15.0649 17.7994 15.3177 17.7115 15.5254 17.5536C15.7397 17.3867 15.8938 17.1486 15.9613 16.8903C16.0413 16.5728 15.9917 16.2344 15.8425 15.9482C15.7623 15.7967 15.6548 15.656 15.5288 15.5346C15.4254 15.4332 15.309 15.344 15.1854 15.2655C14.6941 14.954 14.0532 14.8239 13.2901 14.8113C13.0943 14.6199 12.9312 14.4183 12.7959 14.2018C13.1101 13.3979 13.2721 12.6451 13.2499 11.9675C13.2456 11.8248 13.2263 11.6848 13.1894 11.5493C13.1345 11.3376 13.0397 11.1348 12.8957 10.9606L12.8864 10.9494C12.6568 10.6786 12.3184 10.5 11.9537 10.5C11.58 10.5 11.2481 10.678 11.0227 10.9662C10.8017 11.2492 10.7072 11.605 10.703 11.967C10.6978 12.4272 10.7324 12.8684 10.8073 13.2805L10.8107 13.2977C10.8124 13.3054 10.8141 13.314 10.8171 13.33C10.8196 13.3428 10.8235 13.3631 10.8277 13.3827C10.8871 13.6783 10.969 13.9633 11.072 14.2348C10.957 14.4726 10.8462 14.679 10.7626 14.8316C10.717 14.9149 10.6686 15.0009 10.6182 15.0883C10.269 15.1646 9.95494 15.2565 9.6687 15.3698C9.20169 15.5518 8.79863 15.7972 8.49471 16.1128C8.29437 16.3196 8.13948 16.5595 8.0599 16.8309C7.97662 17.109 7.97675 17.405 8.08076 17.6818ZM11.7905 12.6627C11.7754 12.5182 11.7659 12.3699 11.7623 12.2167C11.7609 12.1596 11.7603 12.1019 11.7606 12.0434L11.7607 12.0156L11.7611 11.9797C11.7613 11.9659 11.7618 11.9523 11.7625 11.9391C11.7739 11.7351 11.848 11.6005 11.9537 11.6005C12.0386 11.6005 12.1284 11.683 12.1691 11.841C12.1791 11.8825 12.1869 11.9333 12.1897 11.9856L12.1904 12.0042L12.1909 12.0167C12.1931 12.0847 12.1917 12.1619 12.1887 12.2342C12.179 12.4572 12.143 12.6942 12.081 12.9488C12.0435 13.1121 11.9945 13.2824 11.9341 13.4597C11.8656 13.2105 11.8166 12.9453 11.7905 12.6627ZM9.24115 16.8922C9.0714 17.0677 9.04038 17.21 9.06813 17.2837C9.09424 17.3539 9.18074 17.3996 9.28685 17.3996C9.30807 17.3996 9.32929 17.3978 9.35051 17.3943C9.47128 17.3767 9.59859 17.3065 9.71446 17.1941C9.76429 17.1464 9.8161 17.0929 9.86949 17.0342C9.95445 16.9407 10.0465 16.8306 10.1378 16.713L10.1568 16.6885C10.2596 16.5568 10.3657 16.4129 10.4734 16.2548C10.2493 16.3181 10.0502 16.3893 9.87541 16.4688C9.75361 16.5242 9.64328 16.5837 9.54474 16.6473L9.52787 16.6583C9.43545 16.7192 9.35341 16.7838 9.2815 16.8523C9.26768 16.8654 9.25423 16.8787 9.24115 16.8922ZM11.6877 15.3981L11.6763 15.4174L11.6911 15.4156L11.7129 15.413L11.7313 15.4109L11.7421 15.4096L11.7626 15.4072C11.8176 15.4009 11.874 15.3945 11.931 15.3881L11.9521 15.3858C11.9739 15.3833 11.9958 15.3811 12.0175 15.379C12.0411 15.3768 12.0689 15.374 12.0918 15.3713C12.1432 15.3662 12.195 15.361 12.245 15.3566L12.2628 15.3551L12.2736 15.3541L12.2948 15.3524L12.272 15.3296L12.2981 15.3279L12.2851 15.3127L12.2696 15.2946C12.24 15.26 12.2107 15.2251 12.1822 15.1892C12.1375 15.1321 12.0939 15.0738 12.0519 15.0147L12.0435 15.0028C12.0338 14.9891 12.0241 14.9752 12.0146 14.9614L12.0032 14.9448L11.98 14.9102L11.9683 14.8924L11.9603 14.8802L11.939 14.9276L11.9309 14.9083L11.9244 14.921L11.9162 14.9372L11.9033 14.9625C11.8869 14.9948 11.8706 15.0262 11.8547 15.0567L11.8459 15.0736C11.7881 15.1841 11.7347 15.2826 11.6888 15.366L11.6828 15.377C11.68 15.381 11.6772 15.3856 11.6747 15.3904C11.6728 15.394 11.6711 15.3978 11.6697 15.4016L11.6877 15.3981ZM13.9156 16.0988C14.1073 16.2725 14.2721 16.4092 14.4231 16.5129C14.4264 16.5165 14.4296 16.52 14.4329 16.52L14.4441 16.5277C14.4852 16.5559 14.5296 16.5845 14.5686 16.6078L14.5795 16.6143C14.5995 16.626 14.6192 16.6371 14.6387 16.6477C14.649 16.6533 14.6593 16.6587 14.6695 16.6639C14.7136 16.6868 14.756 16.6973 14.7969 16.6973C14.8671 16.6973 14.9242 16.6604 14.9372 16.606C14.9519 16.5516 14.9242 16.4708 14.8458 16.3812C14.8413 16.3759 14.8321 16.365 14.8271 16.3596C14.8183 16.3498 14.807 16.3383 14.7969 16.3285C14.7707 16.3036 14.7384 16.2766 14.7041 16.2518C14.6923 16.2433 14.6801 16.2348 14.6673 16.2263L14.6467 16.2128L14.6353 16.2057C14.5823 16.1723 14.5238 16.1417 14.46 16.1139L14.4329 16.1024C14.4094 16.0926 14.3852 16.0833 14.3604 16.0743C14.3293 16.063 14.2971 16.0523 14.2638 16.0422C14.1125 15.9962 13.939 15.9622 13.7442 15.9406C13.8037 15.9964 13.8607 16.0491 13.9156 16.0988Z" />
</svg>
