<svg viewBox="0 0 18 18" xmlns="http://www.w3.org/2000/svg">
<path fill-rule="evenodd" clip-rule="evenodd" d="M14.714 3.28596C14.9703 3.54224 14.9703 3.95776 14.714 4.21404L4.21404 14.714C3.95776 14.9703 3.54224 14.9703 3.28596 14.714C3.02968 14.4578 3.02968 14.0422 3.28596 13.786L13.786 3.28596C14.0422 3.02968 14.4578 3.02968 14.714 3.28596Z" />
<path fill-rule="evenodd" clip-rule="evenodd" d="M4.875 3.65625C4.2019 3.65625 3.65625 4.2019 3.65625 4.875C3.65625 5.5481 4.2019 6.09375 4.875 6.09375C5.5481 6.09375 6.09375 5.5481 6.09375 4.875C6.09375 4.2019 5.5481 3.65625 4.875 3.65625ZM2.34375 4.875C2.34375 3.47703 3.47703 2.34375 4.875 2.34375C6.27297 2.34375 7.40625 3.47703 7.40625 4.875C7.40625 6.27297 6.27297 7.40625 4.875 7.40625C3.47703 7.40625 2.34375 6.27297 2.34375 4.875Z" />
<path fill-rule="evenodd" clip-rule="evenodd" d="M13.125 11.9062C12.4519 11.9062 11.9062 12.4519 11.9062 13.125C11.9062 13.7981 12.4519 14.3438 13.125 14.3438C13.7981 14.3438 14.3438 13.7981 14.3438 13.125C14.3438 12.4519 13.7981 11.9062 13.125 11.9062ZM10.5938 13.125C10.5938 11.727 11.727 10.5938 13.125 10.5938C14.523 10.5938 15.6562 11.727 15.6562 13.125C15.6562 14.523 14.523 15.6562 13.125 15.6562C11.727 15.6562 10.5938 14.523 10.5938 13.125Z" />
</svg>
