<svg viewBox="0 0 14 22" xmlns="http://www.w3.org/2000/svg">
<path d="M2.99978 21C2.73714 21 2.47637 20.9483 2.23372 20.8478C1.99107 20.7473 1.77057 20.6001 1.58485 20.4143C1.39914 20.2286 1.25242 20.0081 1.15191 19.7655C1.0514 19.5228 1 19.2626 1 18.9999V3.00005C1 2.46962 1.20978 1.96074 1.58485 1.58567C1.95993 1.21059 2.46935 1 2.99978 1H11C11.5304 1 12.0388 1.21059 12.4138 1.58567C12.7889 1.96074 12.9998 2.46962 12.9998 3.00005V18.9999C12.9998 19.5304 12.7889 20.0393 12.4138 20.4143C12.0388 20.7894 11.5304 21 11 21H2.99978ZM1.99935 3.00005V18.9999C1.99935 19.2652 2.10478 19.5196 2.29232 19.7071C2.47985 19.8947 2.73457 20.0001 2.99978 20.0001H11C11.2652 20.0001 11.5188 19.8947 11.7064 19.7071C11.8939 19.5196 11.9993 19.2652 11.9993 18.9999V3.00005C11.9993 2.73484 11.8939 2.4804 11.7064 2.29286C11.5188 2.10532 11.2652 1.99989 11 1.99989H2.99978C2.73457 1.99989 2.47985 2.10532 2.29232 2.29286C2.10478 2.4804 1.99935 2.73484 1.99935 3.00005ZM6 18.3334C6 18.0682 6.10543 17.8138 6.29297 17.6262C6.4805 17.4387 6.73413 17.3333 6.99935 17.3333C7.26456 17.3333 7.51928 17.4387 7.70681 17.6262C7.89435 17.8138 7.99978 18.0682 7.99978 18.3334C7.99978 18.4648 7.97408 18.5946 7.92383 18.7159C7.87357 18.8373 7.79967 18.9475 7.70681 19.0404C7.61396 19.1332 7.5037 19.2069 7.38238 19.2571C7.26105 19.3074 7.13067 19.3333 6.99935 19.3333C6.86803 19.3333 6.73873 19.3074 6.6174 19.2571C6.49608 19.2069 6.38583 19.1332 6.29297 19.0404C6.20011 18.9475 6.12621 18.8373 6.07595 18.7159C6.0257 18.5946 6 18.4648 6 18.3334ZM6.83333 3.66656C6.76758 3.6667 6.70207 3.65391 6.64128 3.62885C6.58048 3.60379 6.52506 3.56706 6.47852 3.52062C6.43197 3.47417 6.39521 3.41913 6.37001 3.3584C6.34481 3.29766 6.33203 3.23237 6.33203 3.16661C6.33203 3.10086 6.34481 3.03583 6.37001 2.9751C6.39521 2.91436 6.43197 2.85905 6.47852 2.81261C6.52506 2.76616 6.58048 2.72943 6.64128 2.70437C6.70207 2.67931 6.76758 2.66652 6.83333 2.66667H8.83312C8.89887 2.66652 8.9633 2.67931 9.02409 2.70437C9.08488 2.72943 9.1403 2.76616 9.18685 2.81261C9.2334 2.85905 9.27016 2.91436 9.29536 2.9751C9.32055 3.03583 9.33442 3.10086 9.33442 3.16661C9.33442 3.23237 9.32055 3.29766 9.29536 3.3584C9.27016 3.41913 9.2334 3.47417 9.18685 3.52062C9.1403 3.56706 9.08488 3.60379 9.02409 3.62885C8.9633 3.65391 8.89887 3.6667 8.83312 3.66656H6.83333ZM4.66536 3.16661C4.66536 3.10086 4.67814 3.03583 4.70334 2.9751C4.72854 2.91436 4.7653 2.85905 4.81185 2.81261C4.8584 2.76616 4.91382 2.72943 4.97461 2.70437C5.0354 2.67931 5.10091 2.66652 5.16667 2.66667C5.29908 2.66696 5.42579 2.71969 5.51931 2.81342C5.61284 2.90716 5.66471 3.0342 5.66471 3.16661C5.66471 3.29903 5.61284 3.42607 5.51931 3.5198C5.42579 3.61354 5.29908 3.66626 5.16667 3.66656C5.10091 3.66656 5.03534 3.65378 4.97461 3.62858C4.91387 3.60338 4.85829 3.56635 4.81185 3.5198C4.7654 3.47326 4.72949 3.4181 4.70443 3.35731C4.67936 3.29652 4.6663 3.23128 4.66645 3.16553L4.66536 3.16661Z" stroke="#333333" stroke-width="0.2"/>
</svg>
