<svg viewBox="0 0 12 12" xmlns="http://www.w3.org/2000/svg">
<path d="M9.5 1H2.5C2.10218 1 1.72064 1.15804 1.43934 1.43934C1.15804 1.72064 1 2.10218 1 2.5V9.5C1 9.89782 1.15804 10.2794 1.43934 10.5607C1.72064 10.842 2.10218 11 2.5 11H9.5C9.58224 10.9989 9.66422 10.9905 9.745 10.975L9.895 10.94H9.93H9.955L10.14 10.87L10.205 10.835C10.255 10.805 10.31 10.78 10.36 10.745C10.4268 10.6959 10.4902 10.6424 10.55 10.585L10.585 10.54C10.6341 10.4903 10.6792 10.4368 10.72 10.38L10.765 10.315C10.7999 10.2593 10.83 10.2008 10.855 10.14C10.8687 10.116 10.8804 10.0909 10.89 10.065C10.915 10.005 10.93 9.94 10.95 9.875V9.8C10.9783 9.7023 10.9951 9.60161 11 9.5V2.5C11 2.10218 10.842 1.72064 10.5607 1.43934C10.2794 1.15804 9.89782 1 9.5 1ZM2.5 10C2.36739 10 2.24021 9.94732 2.14645 9.85355C2.05268 9.75979 2 9.63261 2 9.5V7.345L3.645 5.695C3.69148 5.64814 3.74678 5.61094 3.80771 5.58555C3.86864 5.56017 3.93399 5.5471 4 5.5471C4.06601 5.5471 4.13136 5.56017 4.19229 5.58555C4.25322 5.61094 4.30852 5.64814 4.355 5.695L8.655 10H2.5ZM10 9.5C9.99953 9.56164 9.98766 9.62267 9.965 9.68C9.95357 9.70437 9.9402 9.72778 9.925 9.75C9.91162 9.77117 9.89657 9.79123 9.88 9.81L7.205 7.135L7.645 6.695C7.69148 6.64814 7.74678 6.61094 7.80771 6.58555C7.86864 6.56017 7.93399 6.5471 8 6.5471C8.06601 6.5471 8.13136 6.56017 8.19229 6.58555C8.25322 6.61094 8.30852 6.64814 8.355 6.695L10 8.345V9.5ZM10 6.93L9.06 6C8.77386 5.7285 8.39445 5.57714 8 5.57714C7.60555 5.57714 7.22614 5.7285 6.94 6L6.5 6.44L5.06 5C4.77386 4.7285 4.39445 4.57714 4 4.57714C3.60555 4.57714 3.22614 4.7285 2.94 5L2 5.93V2.5C2 2.36739 2.05268 2.24021 2.14645 2.14645C2.24021 2.05268 2.36739 2 2.5 2H9.5C9.63261 2 9.75979 2.05268 9.85355 2.14645C9.94732 2.24021 10 2.36739 10 2.5V6.93Z" />
</svg>
