<svg width="24" height="24" viewBox="0 0 24 24" fill="none" xmlns="http://www.w3.org/2000/svg">
<path d="M5.25 13.125H3.75C3.45163 13.125 3.16548 13.2435 2.9545 13.4545C2.74353 13.6655 2.625 13.9516 2.625 14.25V19.5C2.625 19.7984 2.74353 20.0845 2.9545 20.2955C3.16548 20.5065 3.45163 20.625 3.75 20.625C4.04837 20.625 4.33452 20.5065 4.5455 20.2955C4.75647 20.0845 4.875 19.7984 4.875 19.5V19.125H5.25C6.04565 19.125 6.80871 18.8089 7.37132 18.2463C7.93393 17.6837 8.25 16.9206 8.25 16.125C8.25 15.3294 7.93393 14.5663 7.37132 14.0037C6.80871 13.4411 6.04565 13.125 5.25 13.125ZM5.25 16.875H4.875V15.375H5.25C5.44891 15.375 5.63968 15.454 5.78033 15.5947C5.92098 15.7353 6 15.9261 6 16.125C6 16.3239 5.92098 16.5147 5.78033 16.6553C5.63968 16.796 5.44891 16.875 5.25 16.875ZM21.75 18.8316C21.7501 19.1215 21.6382 19.4002 21.4378 19.6097C21.1418 19.9276 20.784 20.1816 20.3863 20.3562C19.9886 20.5308 19.5593 20.6223 19.125 20.625C17.2641 20.625 15.75 18.9422 15.75 16.875C15.75 14.8078 17.2641 13.125 19.125 13.125C19.7509 13.1268 20.3619 13.3162 20.8791 13.6688C21.0052 13.7498 21.1138 13.8551 21.1986 13.9787C21.2834 14.1023 21.3426 14.2415 21.3729 14.3883C21.4031 14.5351 21.4037 14.6865 21.3746 14.8335C21.3455 14.9805 21.2874 15.1202 21.2036 15.2445C21.1197 15.3687 21.0119 15.4749 20.8865 15.5569C20.761 15.6389 20.6205 15.695 20.473 15.722C20.3256 15.7489 20.1743 15.7461 20.028 15.7137C19.8816 15.6813 19.7433 15.62 19.6209 15.5334C19.4754 15.4318 19.3025 15.3766 19.125 15.375C18.5156 15.375 18 16.0622 18 16.875C18 17.6878 18.5156 18.375 19.125 18.375C19.2109 18.3748 19.2962 18.3616 19.3781 18.3356C19.2437 18.1707 19.1589 17.971 19.1334 17.7598C19.1079 17.5486 19.1428 17.3345 19.2341 17.1423C19.3253 16.9502 19.4692 16.7878 19.6491 16.6741C19.8289 16.5604 20.0373 16.5001 20.25 16.5H20.625C20.9234 16.5 21.2095 16.6185 21.4205 16.8295C21.6315 17.0405 21.75 17.3266 21.75 17.625V18.8316ZM15 14.25V19.5C15 19.7384 14.9243 19.9707 14.7838 20.1633C14.6433 20.3559 14.4452 20.4988 14.2181 20.5716C14.1072 20.6068 13.9914 20.6248 13.875 20.625C13.6962 20.6252 13.5199 20.5828 13.3608 20.5013C13.2017 20.4197 13.0643 20.3015 12.96 20.1562L11.25 17.76V19.5C11.25 19.7984 11.1315 20.0845 10.9205 20.2955C10.7095 20.5065 10.4234 20.625 10.125 20.625C9.82663 20.625 9.54048 20.5065 9.3295 20.2955C9.11853 20.0845 9 19.7984 9 19.5V14.25C8.99963 14.0116 9.07503 13.7792 9.21531 13.5864C9.35559 13.3936 9.5535 13.2503 9.78048 13.1773C10.0075 13.1043 10.2518 13.1053 10.4782 13.1801C10.7045 13.255 10.9013 13.3998 11.04 13.5938L12.75 15.9891V14.25C12.75 13.9516 12.8685 13.6655 13.0795 13.4545C13.2905 13.2435 13.5766 13.125 13.875 13.125C14.1734 13.125 14.4595 13.2435 14.6705 13.4545C14.8815 13.6655 15 13.9516 15 14.25ZM4.5 11.25C4.79837 11.25 5.08452 11.1315 5.2955 10.9205C5.50647 10.7095 5.625 10.4234 5.625 10.125V4.125H12.75V8.625C12.75 8.92337 12.8685 9.20952 13.0795 9.4205C13.2905 9.63147 13.5766 9.75 13.875 9.75H18.375V10.125C18.375 10.4234 18.4935 10.7095 18.7045 10.9205C18.9155 11.1315 19.2016 11.25 19.5 11.25C19.7984 11.25 20.0845 11.1315 20.2955 10.9205C20.5065 10.7095 20.625 10.4234 20.625 10.125V8.25C20.6251 8.10222 20.5961 7.95586 20.5397 7.81929C20.4832 7.68272 20.4004 7.55862 20.2959 7.45406L15.0459 2.20406C14.9414 2.09962 14.8173 2.01681 14.6807 1.96035C14.5441 1.90389 14.3978 1.87488 14.25 1.875H5.25C4.75272 1.875 4.27581 2.07254 3.92417 2.42418C3.57254 2.77581 3.375 3.25272 3.375 3.75V10.125C3.375 10.4234 3.49353 10.7095 3.7045 10.9205C3.91548 11.1315 4.20163 11.25 4.5 11.25ZM15 5.34375L17.1562 7.5H15V5.34375Z" fill="#5C5C5C"/>
</svg>
