<svg width="24" height="24" viewBox="0 0 24 24" fill="none" xmlns="http://www.w3.org/2000/svg">
<path d="M5.5 13.6C5.22386 13.6 5 13.8239 5 14.1V19.5C5 19.7761 5.22386 20 5.5 20H7.3C7.57614 20 7.8 19.7761 7.8 19.5V14.1C7.8 13.8239 7.57614 13.6 7.3 13.6H5.5ZM11.1 4C10.8239 4 10.6 4.22386 10.6 4.5V19.5C10.6 19.7761 10.8239 20 11.1 20H12.9C13.1761 20 13.4 19.7761 13.4 19.5V4.5C13.4 4.22386 13.1761 4 12.9 4H11.1ZM16.7 8.8C16.4239 8.8 16.2 9.02386 16.2 9.3V19.5C16.2 19.7761 16.4239 20 16.7 20H18.5C18.7761 20 19 19.7761 19 19.5V9.3C19 9.02386 18.7761 8.8 18.5 8.8H16.7Z" fill="#5C5C5C"/>
</svg>
