<svg width="24" height="24" viewBox="0 0 24 24" fill="none" xmlns="http://www.w3.org/2000/svg">
<path d="M8.8125 8.25H7.125C6.82663 8.25 6.54048 8.36853 6.3295 8.5795C6.11853 8.79048 6 9.07663 6 9.375V14.25C6 14.5484 6.11853 14.8345 6.3295 15.0455C6.54048 15.2565 6.82663 15.375 7.125 15.375C7.42337 15.375 7.70952 15.2565 7.9205 15.0455C8.13147 14.8345 8.25 14.5484 8.25 14.25V13.875H8.8125C9.55842 13.875 10.2738 13.5787 10.8012 13.0512C11.3287 12.5238 11.625 11.8084 11.625 11.0625C11.625 10.3166 11.3287 9.60121 10.8012 9.07376C10.2738 8.54632 9.55842 8.25 8.8125 8.25ZM8.8125 11.625H8.25V10.5H8.8125C8.96168 10.5 9.10476 10.5593 9.21025 10.6648C9.31574 10.7702 9.375 10.9133 9.375 11.0625C9.375 11.2117 9.31574 11.3548 9.21025 11.4602C9.10476 11.5657 8.96168 11.625 8.8125 11.625ZM12.75 1.875C11.4124 1.87587 10.0881 2.14138 8.85353 2.65626C7.61896 3.17114 6.49845 3.9252 5.55656 4.875H3.75C3.25272 4.875 2.77581 5.07254 2.42417 5.42417C2.07254 5.77581 1.875 6.25272 1.875 6.75V16.875C1.875 17.3723 2.07254 17.8492 2.42417 18.2008C2.77581 18.5525 3.25272 18.75 3.75 18.75H5.20312C6.32906 20.0088 7.75202 20.966 9.34241 21.5344C10.9328 22.1028 12.6401 22.2643 14.3089 22.0043C15.9776 21.7442 17.5549 21.0708 18.8969 20.0455C20.2389 19.0201 21.3031 17.6753 21.9926 16.1336C22.6821 14.5918 22.975 12.9021 22.8446 11.2182C22.7142 9.53436 22.1647 7.90986 21.246 6.49265C20.3274 5.07544 19.0688 3.91055 17.5849 3.10404C16.101 2.29753 14.4389 1.87502 12.75 1.875ZM12.75 4.125C14.6429 4.12753 16.4717 4.8108 17.9025 6.05006C19.3334 7.28931 20.2707 9.00187 20.5434 10.875H15.375V6.75C15.375 6.50377 15.3265 6.25995 15.2323 6.03247C15.138 5.80498 14.9999 5.59828 14.8258 5.42417C14.6517 5.25006 14.445 5.11195 14.2175 5.01773C13.99 4.9235 13.7462 4.875 13.5 4.875H9.40031C10.448 4.38138 11.5918 4.12528 12.75 4.125ZM4.125 7.125H13.125V16.5H4.125V7.125ZM12.75 19.875C11.319 19.8775 9.91454 19.4884 8.68875 18.75H13.5C13.7462 18.75 13.99 18.7015 14.2175 18.6073C14.445 18.513 14.6517 18.3749 14.8258 18.2008C14.9999 18.0267 15.138 17.82 15.2323 17.5925C15.3265 17.365 15.375 17.1212 15.375 16.875V13.125H20.5434C20.2707 14.9981 19.3334 16.7107 17.9025 17.9499C16.4717 19.1892 14.6429 19.8725 12.75 19.875Z" fill="#5C5C5C"/>
</svg>
