<svg width="24" height="24" viewBox="0 0 24 24" fill="none" xmlns="http://www.w3.org/2000/svg">
<path d="M21.75 14.25C21.75 14.5484 21.6315 14.8345 21.4205 15.0455C21.2095 15.2565 20.9234 15.375 20.625 15.375H19.875V19.5C19.875 19.7984 19.7565 20.0845 19.5455 20.2955C19.3345 20.5065 19.0484 20.625 18.75 20.625C18.4516 20.625 18.1655 20.5065 17.9545 20.2955C17.7435 20.0845 17.625 19.7984 17.625 19.5V15.375H16.875C16.5766 15.375 16.2905 15.2565 16.0795 15.0455C15.8685 14.8345 15.75 14.5484 15.75 14.25C15.75 13.9516 15.8685 13.6655 16.0795 13.4545C16.2905 13.2435 16.5766 13.125 16.875 13.125H20.625C20.9234 13.125 21.2095 13.2435 21.4205 13.4545C21.6315 13.6655 21.75 13.9516 21.75 14.25ZM8.625 16.125C8.625 16.9206 8.30893 17.6837 7.74632 18.2463C7.18371 18.8089 6.42065 19.125 5.625 19.125H5.25V19.5C5.25 19.7984 5.13147 20.0845 4.9205 20.2955C4.70952 20.5065 4.42337 20.625 4.125 20.625C3.82663 20.625 3.54048 20.5065 3.3295 20.2955C3.11853 20.0845 3 19.7984 3 19.5V14.25C3 13.9516 3.11853 13.6655 3.3295 13.4545C3.54048 13.2435 3.82663 13.125 4.125 13.125H5.625C6.42065 13.125 7.18371 13.4411 7.74632 14.0037C8.30893 14.5663 8.625 15.3294 8.625 16.125ZM6.375 16.125C6.375 15.9261 6.29598 15.7353 6.15533 15.5947C6.01468 15.454 5.82391 15.375 5.625 15.375H5.25V16.875H5.625C5.82391 16.875 6.01468 16.796 6.15533 16.6553C6.29598 16.5147 6.375 16.3239 6.375 16.125ZM15.375 16.125C15.375 16.9206 15.0589 17.6837 14.4963 18.2463C13.9337 18.8089 13.1706 19.125 12.375 19.125H12V19.5C12 19.7984 11.8815 20.0845 11.6705 20.2955C11.4595 20.5065 11.1734 20.625 10.875 20.625C10.5766 20.625 10.2905 20.5065 10.0795 20.2955C9.86853 20.0845 9.75 19.7984 9.75 19.5V14.25C9.75 13.9516 9.86853 13.6655 10.0795 13.4545C10.2905 13.2435 10.5766 13.125 10.875 13.125H12.375C13.1706 13.125 13.9337 13.4411 14.4963 14.0037C15.0589 14.5663 15.375 15.3294 15.375 16.125ZM13.125 16.125C13.125 15.9261 13.046 15.7353 12.9053 15.5947C12.7647 15.454 12.5739 15.375 12.375 15.375H12V16.875H12.375C12.5739 16.875 12.7647 16.796 12.9053 16.6553C13.046 16.5147 13.125 16.3239 13.125 16.125ZM3.375 10.125V3.75C3.375 3.25272 3.57254 2.77581 3.92417 2.42417C4.27581 2.07254 4.75272 1.875 5.25 1.875H14.25C14.3978 1.87501 14.5442 1.90416 14.6808 1.96078C14.8174 2.0174 14.9415 2.10039 15.0459 2.205L20.2959 7.455C20.5066 7.66593 20.625 7.95187 20.625 8.25V10.125C20.625 10.4234 20.5065 10.7095 20.2955 10.9205C20.0845 11.1315 19.7984 11.25 19.5 11.25C19.2016 11.25 18.9155 11.1315 18.7045 10.9205C18.4935 10.7095 18.375 10.4234 18.375 10.125V9.75H13.875C13.5766 9.75 13.2905 9.63147 13.0795 9.4205C12.8685 9.20952 12.75 8.92337 12.75 8.625V4.125H5.625V10.125C5.625 10.4234 5.50647 10.7095 5.2955 10.9205C5.08452 11.1315 4.79837 11.25 4.5 11.25C4.20163 11.25 3.91548 11.1315 3.7045 10.9205C3.49353 10.7095 3.375 10.4234 3.375 10.125ZM15 7.5H17.1562L15 5.34375V7.5Z" fill="#5C5C5C"/>
</svg>
