<svg  viewBox="0 0 12 12" xmlns="http://www.w3.org/2000/svg">
<path d="M6 1C4.71819 1.00366 3.48675 1.49946 2.56 2.385V1.5C2.56 1.36739 2.50732 1.24021 2.41355 1.14645C2.31979 1.05268 2.19261 1 2.06 1C1.92739 1 1.80021 1.05268 1.70645 1.14645C1.61268 1.24021 1.56 1.36739 1.56 1.5V3.75C1.56 3.88261 1.61268 4.00979 1.70645 4.10355C1.80021 4.19732 1.92739 4.25 2.06 4.25H4.31C4.44261 4.25 4.56979 4.19732 4.66355 4.10355C4.75732 4.00979 4.81 3.88261 4.81 3.75C4.81 3.61739 4.75732 3.49021 4.66355 3.39645C4.56979 3.30268 4.44261 3.25 4.31 3.25H3.11C3.75289 2.57818 4.60975 2.15133 5.53327 2.04283C6.45678 1.93434 7.38924 2.15099 8.17033 2.65552C8.95141 3.16006 9.53232 3.92096 9.81316 4.8074C10.094 5.69383 10.0573 6.65043 9.70921 7.5127C9.36116 8.37497 8.72358 9.08905 7.90608 9.53215C7.08858 9.97526 6.14224 10.1197 5.22978 9.94067C4.31731 9.76162 3.49573 9.27027 2.9063 8.5511C2.31686 7.83192 1.99639 6.92986 2 6C2 5.86739 1.94732 5.74021 1.85355 5.64645C1.75979 5.55268 1.63261 5.5 1.5 5.5C1.36739 5.5 1.24021 5.55268 1.14645 5.64645C1.05268 5.74021 1 5.86739 1 6C1 6.98891 1.29324 7.95561 1.84265 8.77785C2.39206 9.6001 3.17295 10.241 4.08658 10.6194C5.00021 10.9978 6.00555 11.0969 6.97545 10.9039C7.94536 10.711 8.83627 10.2348 9.53553 9.53553C10.2348 8.83627 10.711 7.94536 10.9039 6.97545C11.0969 6.00555 10.9978 5.00021 10.6194 4.08658C10.241 3.17295 9.6001 2.39206 8.77785 1.84265C7.95561 1.29324 6.98891 1 6 1Z"/>
<path d="M8.38546 4.60128C8.35239 4.56919 8.31304 4.54372 8.26969 4.52633C8.22633 4.50895 8.17983 4.5 8.13286 4.5C8.0859 4.5 8.0394 4.50895 7.99604 4.52633C7.95269 4.54372 7.91334 4.56919 7.88027 4.60128L5.22975 7.15568L4.11617 6.08051C4.08183 6.04858 4.0413 6.02348 3.99688 6.00663C3.95246 5.98978 3.90502 5.98152 3.85728 5.98231C3.80955 5.98311 3.76244 5.99294 3.71865 6.01126C3.67486 6.02958 3.63525 6.05602 3.60208 6.08907C3.56891 6.12212 3.54282 6.16113 3.52532 6.20388C3.50781 6.24663 3.49923 6.29229 3.50005 6.33823C3.50088 6.38418 3.5111 6.42952 3.53013 6.47166C3.54916 6.5138 3.57663 6.55193 3.61097 6.58385L4.97715 7.89872C5.01022 7.93081 5.04957 7.95628 5.09292 7.97367C5.13628 7.99105 5.18278 8 5.22975 8C5.27671 8 5.32322 7.99105 5.36657 7.97367C5.40992 7.95628 5.44927 7.93081 5.48235 7.89872L8.38546 5.10463C8.42158 5.07257 8.4504 5.03365 8.47011 4.99034C8.48982 4.94702 8.5 4.90025 8.5 4.85296C8.5 4.80567 8.48982 4.75889 8.47011 4.71558C8.4504 4.67227 8.42158 4.63335 8.38546 4.60128Z" />
</svg>
