<svg viewBox="0 0 18 18" xmlns="http://www.w3.org/2000/svg">
<path d="M15.9998 3.16752e-07H2.00025C1.73753 -0.000147569 1.47736 0.0514895 1.23461 0.151959C0.991865 0.252429 0.7713 0.39976 0.58553 0.58553C0.39976 0.7713 0.252429 0.991865 0.151959 1.23461C0.0514895 1.47736 -0.000147569 1.73753 3.16752e-07 2.00025V15.9998C-0.000147569 16.2625 0.0514895 16.5226 0.151959 16.7654C0.252429 17.0081 0.39976 17.2287 0.58553 17.4145C0.7713 17.6002 0.991865 17.7476 1.23461 17.848C1.47736 17.9485 1.73753 18.0001 2.00025 18H15.9998C16.2625 18.0001 16.5226 17.9485 16.7654 17.848C17.0081 17.7476 17.2287 17.6002 17.4145 17.4145C17.6002 17.2287 17.7476 17.0081 17.848 16.7654C17.9485 16.5226 18.0001 16.2625 18 15.9998V2.00025C18.0001 1.73753 17.9485 1.47736 17.848 1.23461C17.7476 0.991865 17.6002 0.7713 17.4145 0.58553C17.2287 0.39976 17.0081 0.252429 16.7654 0.151959C16.5226 0.0514895 16.2625 -0.000147569 15.9998 3.16752e-07ZM2.00025 14.9996L5.50013 10.4996L7.99988 13.5L11.4998 9L15.9998 14.9996H2.00025Z" />
</svg>
