<svg viewBox="0 0 18 18" fill="none" xmlns="http://www.w3.org/2000/svg">
<path d="M6 14.25H12V12.75H6V14.25ZM5.25 5.25H12.75V3.75H5.25V5.25ZM13.5 12.75H14.4001C14.5021 12.75 14.6409 12.7009 14.7715 12.5398C14.9056 12.3742 15 12.1213 15 11.833V7.66699C15 7.3787 14.9056 7.12578 14.7715 6.96021C14.6409 6.79911 14.5021 6.75005 14.4001 6.75H3.59985C3.49791 6.75005 3.35907 6.79911 3.22852 6.96021C3.0944 7.12578 3 7.3787 3 7.66699V11.833C3 12.1213 3.0944 12.3742 3.22852 12.5398C3.35907 12.7009 3.49791 12.75 3.59985 12.75H4.5V12.375C4.5 11.9046 4.81386 11.6068 5.04712 11.4668C5.29524 11.3179 5.58968 11.25 5.87476 11.25H12.1252C12.4103 11.25 12.7048 11.3179 12.9529 11.4668C13.1861 11.6068 13.5 11.9046 13.5 12.375V12.75ZM14.25 5.25H14.4001C15.0142 5.25005 15.5618 5.55233 15.9375 6.01611C16.3097 6.47565 16.5 7.07125 16.5 7.66699V11.833C16.5 12.4287 16.3097 13.0243 15.9375 13.4839C15.5618 13.9477 15.0142 14.25 14.4001 14.25H13.5V14.625C13.5 15.0954 13.1861 15.3932 12.9529 15.5332C12.7048 15.6821 12.4103 15.75 12.1252 15.75H5.87476C5.58968 15.75 5.29524 15.6821 5.04712 15.5332C4.81386 15.3932 4.5 15.0954 4.5 14.625V14.25H3.59985C2.98582 14.25 2.43816 13.9477 2.0625 13.4839C1.6903 13.0243 1.5 12.4287 1.5 11.833V7.66699C1.5 7.07125 1.6903 6.47565 2.0625 6.01611C2.43816 5.55233 2.98582 5.25005 3.59985 5.25H3.75V3.42847C3.75005 2.93892 4.08384 2.62487 4.34766 2.47412L4.45386 2.41919C4.70584 2.30055 4.98766 2.25 5.25 2.25H12.75C13.0498 2.25 13.3753 2.31583 13.6523 2.47412C13.9162 2.62487 14.25 2.93892 14.25 3.42847V5.25Z" />
<path d="M13.3736 9.41668C13.456 9.29334 13.5 9.14834 13.5 9C13.5 8.80109 13.421 8.61032 13.2803 8.46967C13.1397 8.32902 12.9489 8.25 12.75 8.25C12.6017 8.25 12.4567 8.29399 12.3333 8.3764C12.21 8.45881 12.1139 8.57594 12.0571 8.71299C12.0003 8.85003 11.9855 9.00083 12.0144 9.14632C12.0434 9.2918 12.1148 9.42544 12.2197 9.53033C12.3246 9.63522 12.4582 9.70665 12.6037 9.73559C12.7492 9.76453 12.9 9.74968 13.037 9.69291C13.1741 9.63614 13.2912 9.54001 13.3736 9.41668Z" fill="#0858B9"/>
</svg>
