<svg width="24" height="24" viewBox="0 0 24 24" fill="none" xmlns="http://www.w3.org/2000/svg">
<path d="M8 19H16V17H8V19ZM7 7H17V5H7V7ZM18 17H19.2002C19.3361 16.9999 19.5212 16.9345 19.6953 16.7197C19.8741 16.499 20 16.1617 20 15.7773V10.2227C20 9.83827 19.8741 9.50104 19.6953 9.28027C19.5212 9.06548 19.3361 9.00006 19.2002 9H4.7998C4.66388 9.00006 4.47876 9.06548 4.30469 9.28027C4.12587 9.50104 4 9.83827 4 10.2227V15.7773C4 16.1617 4.12587 16.499 4.30469 16.7197C4.47876 16.9345 4.66388 16.9999 4.7998 17H6V16.5C6 15.8727 6.41848 15.4757 6.72949 15.2891C7.06033 15.0906 7.45291 15.0001 7.83301 15H16.167C16.5471 15.0001 16.9397 15.0906 17.2705 15.2891C17.5815 15.4757 18 15.8727 18 16.5V17ZM19 7H19.2002C20.0189 7.00006 20.7491 7.40311 21.25 8.02148C21.7463 8.6342 22 9.42834 22 10.2227V15.7773C22 16.5717 21.7463 17.3658 21.25 17.9785C20.7491 18.5969 20.0189 18.9999 19.2002 19H18V19.5C18 20.1273 17.5815 20.5243 17.2705 20.7109C16.9397 20.9094 16.5471 20.9999 16.167 21H7.83301C7.45291 20.9999 7.06033 20.9094 6.72949 20.7109C6.41848 20.5243 6 20.1273 6 19.5V19H4.7998C3.9811 18.9999 3.25088 18.5969 2.75 17.9785C2.25374 17.3658 2 16.5717 2 15.7773V10.2227C2 9.42834 2.25374 8.6342 2.75 8.02148C3.25088 7.40311 3.9811 7.00006 4.7998 7H5V4.57129C5.00006 3.91855 5.44513 3.49983 5.79688 3.29883L5.93848 3.22559C6.27445 3.0674 6.65022 3 7 3H17C17.3998 3 17.8337 3.08778 18.2031 3.29883C18.5549 3.49983 18.9999 3.91856 19 4.57129V7Z" fill="#5C5C5C"/>
<path d="M17.8315 12.5556C17.9414 12.3911 18 12.1978 18 12C18 11.7348 17.8946 11.4804 17.7071 11.2929C17.5196 11.1054 17.2652 11 17 11C16.8022 11 16.6089 11.0586 16.4444 11.1685C16.28 11.2784 16.1518 11.4346 16.0761 11.6173C16.0004 11.8 15.9806 12.0011 16.0192 12.1951C16.0578 12.3891 16.153 12.5673 16.2929 12.7071C16.4327 12.847 16.6109 12.9422 16.8049 12.9808C16.9989 13.0194 17.2 12.9996 17.3827 12.9239C17.5654 12.8482 17.7216 12.72 17.8315 12.5556Z" fill="#5C5C5C"/>
</svg>
