<svg width="25" height="24" viewBox="0 0 25 24" xmlns="http://www.w3.org/2000/svg">
<path d="M6.33701 20.9378C6.12965 20.7837 6.00227 20.5764 5.95487 20.3157C5.9134 20.0609 5.95191 19.7588 6.0704 19.4092L7.90108 13.9794L3.23551 10.6291C2.93336 10.4158 2.72304 10.1936 2.60455 9.96257C2.48606 9.72559 2.46829 9.48268 2.55123 9.23385C2.63417 8.99095 2.79117 8.81025 3.02223 8.69176C3.25329 8.56734 3.55544 8.5081 3.92868 8.51402L9.64289 8.54957L11.3847 3.09308C11.4973 2.7376 11.6454 2.46804 11.829 2.28438C12.0186 2.09479 12.2408 2 12.4956 2C12.7562 2 12.9784 2.09479 13.1621 2.28438C13.3517 2.46804 13.5027 2.7376 13.6153 3.09308L15.3571 8.54957L21.0713 8.51402C21.4446 8.5081 21.7467 8.56734 21.9778 8.69176C22.2088 8.81025 22.3658 8.99095 22.4488 9.23385C22.5317 9.48268 22.5139 9.72559 22.3954 9.96257C22.277 10.1936 22.0666 10.4158 21.7645 10.6291L17.0989 13.9794L18.9296 19.4092C19.0481 19.7588 19.0836 20.0609 19.0362 20.3157C18.9948 20.5764 18.8704 20.7837 18.663 20.9378C18.4556 21.1037 18.2216 21.1629 17.9609 21.1155C17.7003 21.0681 17.4218 20.9378 17.1256 20.7245L12.4956 17.3208L7.87442 20.7245C7.5782 20.9378 7.29974 21.0681 7.03906 21.1155C6.77838 21.1629 6.54436 21.1037 6.33701 20.9378ZM7.90108 18.7872C7.91293 18.8049 7.93663 18.802 7.97218 18.7783L11.9801 15.6857C12.1579 15.5435 12.3297 15.4724 12.4956 15.4724C12.6674 15.4724 12.8421 15.5435 13.0199 15.6857L17.0278 18.7783C17.0634 18.802 17.0871 18.8049 17.0989 18.7872C17.1048 18.7753 17.1048 18.7516 17.0989 18.7161L15.4104 13.9527C15.363 13.8106 15.3364 13.6832 15.3304 13.5706C15.3304 13.4521 15.3601 13.3455 15.4193 13.2507C15.4845 13.1559 15.5822 13.0641 15.7126 12.9752L19.8894 10.1225C19.9249 10.0988 19.9397 10.0751 19.9338 10.0514C19.9279 10.0337 19.9012 10.0248 19.8538 10.0248L14.8061 10.1492C14.5751 10.1551 14.3944 10.1166 14.264 10.0337C14.1337 9.9448 14.0359 9.78483 13.9708 9.55378L12.5489 4.71047C12.537 4.669 12.5193 4.64827 12.4956 4.64827C12.4778 4.64827 12.463 4.669 12.4511 4.71047L11.0292 9.55378C10.9641 9.78483 10.8663 9.9448 10.736 10.0337C10.6056 10.1166 10.4249 10.1551 10.1939 10.1492L5.14617 10.0248C5.09878 10.0248 5.07212 10.0337 5.06619 10.0514C5.06027 10.0751 5.07508 10.0988 5.11063 10.1225L9.28742 12.9752C9.41776 13.0641 9.51255 13.1559 9.5718 13.2507C9.63697 13.3455 9.66659 13.4521 9.66067 13.5706C9.66067 13.6832 9.63697 13.8106 9.58957 13.9527L7.90108 18.7161C7.88923 18.7516 7.88923 18.7753 7.90108 18.7872Z"/>
</svg>
