<svg viewBox="0 0 16 20" xmlns="http://www.w3.org/2000/svg">
<path d="M14.3 6.09L15.21 5.19C15.3983 5.0017 15.5041 4.7463 15.5041 4.48C15.5041 4.2137 15.3983 3.9583 15.21 3.77C15.0217 3.5817 14.7663 3.47591 14.5 3.47591C14.2337 3.47591 13.9783 3.5817 13.79 3.77L12.89 4.68C11.4886 3.59585 9.76687 3.00764 7.99503 3.00764C6.22318 3.00764 4.50147 3.59585 3.10003 4.68L2.19003 3.76C2.0004 3.5717 1.74373 3.46644 1.47649 3.46737C1.20925 3.46831 0.95333 3.57537 0.765026 3.765C0.576722 3.95463 0.471462 4.2113 0.472399 4.47854C0.473337 4.74578 0.580396 5.0017 0.770026 5.19L1.69003 6.1C0.593042 7.49755 -0.00218316 9.22334 2.6229e-05 11C-0.00323946 12.2754 0.29849 13.5331 0.88005 14.6683C1.46161 15.8034 2.30614 16.783 3.34322 17.5254C4.38029 18.2679 5.57985 18.7516 6.84184 18.9362C8.10383 19.1208 9.39168 19.0011 10.598 18.5869C11.8043 18.1727 12.8941 17.4761 13.7764 16.5552C14.6588 15.6342 15.3082 14.5157 15.6705 13.2928C16.0328 12.0699 16.0974 10.7781 15.859 9.52514C15.6206 8.27219 15.0861 7.0944 14.3 6.09ZM8.00003 17C6.81334 17 5.6533 16.6481 4.6666 15.9888C3.67991 15.3295 2.91087 14.3925 2.45675 13.2961C2.00262 12.1997 1.8838 10.9933 2.11531 9.82946C2.34683 8.66557 2.91827 7.59647 3.75739 6.75736C4.5965 5.91824 5.6656 5.3468 6.82948 5.11529C7.99337 4.88378 9.19977 5.0026 10.2961 5.45672C11.3925 5.91085 12.3296 6.67988 12.9888 7.66658C13.6481 8.65327 14 9.81331 14 11C14 12.5913 13.3679 14.1174 12.2427 15.2426C11.1174 16.3679 9.59133 17 8.00003 17ZM6.00003 2H10C10.2652 2 10.5196 1.89464 10.7071 1.70711C10.8947 1.51957 11 1.26522 11 1C11 0.734784 10.8947 0.48043 10.7071 0.292893C10.5196 0.105357 10.2652 0 10 0H6.00003C5.73481 0 5.48046 0.105357 5.29292 0.292893C5.10538 0.48043 5.00003 0.734784 5.00003 1C5.00003 1.26522 5.10538 1.51957 5.29292 1.70711C5.48046 1.89464 5.73481 2 6.00003 2Z" />
<path d="M8.90002 9.5545C8.90002 9.83064 9.12388 10.0545 9.40002 10.0545H10.5846C10.9994 10.0545 11.2338 10.5305 10.9809 10.8594L7.99634 14.7393C7.70525 15.1177 7.10003 14.9119 7.10003 14.4344V12.3545C7.10003 12.0784 6.87617 11.8545 6.60003 11.8545H5.41498C5.00023 11.8545 4.7658 11.3786 5.01856 11.0498L8.0036 7.16625C8.29461 6.78765 8.90002 6.99344 8.90002 7.47096V9.5545Z" />
</svg>
