<svg viewBox="0 0 10 8" xmlns="http://www.w3.org/2000/svg">
<path d="M8.26252 3.47237C8.09387 3.47237 7.94144 3.37091 7.87704 3.21476C7.81263 3.05909 7.84877 2.87932 7.96831 2.76071L8.9941 1.73492L7.96367 0.71098C7.80151 0.546965 7.8029 0.282868 7.96645 0.120703C8.13047 -0.0414607 8.39457 -0.040073 8.55673 0.123947L9.8758 1.44396C10.037 1.60659 10.037 1.86882 9.8758 2.03099L8.55673 3.35006C8.47889 3.42836 8.37279 3.47237 8.26252 3.47237Z" />
<path d="M2.69376 6.44926H0.415136C0.185791 6.44926 0 6.26347 0 6.03412C0 5.80478 0.185791 5.61898 0.415136 5.61898H2.69376C2.88697 5.61852 3.07137 5.53929 3.20481 5.39983C3.58659 4.99998 4.24126 4.30963 4.89963 3.62067C5.55801 2.93125 6.24005 2.20434 6.62921 1.79846C6.92017 1.49545 7.32187 1.32448 7.74164 1.32402H9.5801V2.15429H7.74164C7.54844 2.15522 7.36403 2.23445 7.2306 2.37391L5.50102 4.18972C4.84403 4.88238 4.18848 5.57177 3.81225 5.97255C3.52036 6.27788 3.11631 6.45018 2.69376 6.44926Z" />
<path d="M8.26252 7.63679C8.0934 7.63818 7.94004 7.53671 7.87519 7.3801C7.81078 7.2235 7.84739 7.04373 7.96831 6.92512L8.9941 5.89933L7.96368 4.87678C7.80012 4.71462 7.79874 4.45052 7.9609 4.2865C8.12306 4.12295 8.38716 4.12156 8.55071 4.28372L9.87583 5.60836C9.95505 5.68667 10 5.79369 10 5.90489C10 6.01655 9.95506 6.12311 9.87583 6.20142L8.55676 7.51586C8.47892 7.5937 8.37279 7.63725 8.26252 7.63679Z" />
<path d="M7.7417 6.31772C7.32193 6.31772 6.92023 6.14629 6.62927 5.84328C6.24008 5.43509 5.56872 4.72853 4.90016 4.02379C4.23113 3.31908 3.58715 2.63985 3.20487 2.24001C3.07143 2.10055 2.88702 2.02132 2.69382 2.02039H0.415196C0.185851 2.02039 5.92726e-05 1.8346 5.92726e-05 1.60526C5.92726e-05 1.37591 0.185851 1.19012 0.415196 1.19012H2.69382C3.11359 1.19012 3.51576 1.36155 3.80626 1.66456C4.18804 2.06533 4.8441 2.75476 5.50108 3.44372L7.23066 5.26783C7.36409 5.40775 7.5485 5.48652 7.7417 5.48745H9.58016V6.31772H7.7417Z" />
</svg>
