<svg width="24" height="24" viewBox="0 0 24 24" fill="none" xmlns="http://www.w3.org/2000/svg">
<path d="M4 22C3.73478 22 3.48043 21.8946 3.29289 21.7071C3.10536 21.5196 3 21.2652 3 21V3C3 2.81429 3.05171 2.63225 3.14935 2.47427C3.24698 2.31629 3.38668 2.18863 3.55279 2.10558C3.71889 2.02252 3.90484 1.98736 4.08981 2.00404C4.27477 2.02072 4.45143 2.08858 4.6 2.2L6.67 3.75L8.73 2.2C8.9031 2.07018 9.11363 2 9.33 2C9.54637 2 9.7569 2.07018 9.93 2.2L12 3.75L14.07 2.2C14.2431 2.07018 14.4536 2 14.67 2C14.8864 2 15.0969 2.07018 15.27 2.2L17.33 3.75L19.4 2.2C19.5493 2.08874 19.7267 2.02136 19.9122 2.00546C20.0977 1.98956 20.284 2.02577 20.45 2.11C20.6149 2.1931 20.7536 2.32024 20.8507 2.47734C20.9478 2.63443 20.9994 2.81533 21 3V13.5C21 14.0523 20.5523 14.5 20 14.5C19.4477 14.5 19 14.0523 19 13.5V5L17.93 5.8C17.7569 5.92982 17.5464 6 17.33 6C17.1136 6 16.9031 5.92982 16.73 5.8L14.67 4.25L12.6 5.8C12.4269 5.92982 12.2164 6 12 6C11.7836 6 11.5731 5.92982 11.4 5.8L9.33 4.25L7.27 5.8C7.0969 5.92982 6.88637 6 6.67 6C6.45363 6 6.2431 5.92982 6.07 5.8L5 5V20H11.5C12.0523 20 12.5 20.4477 12.5 21C12.5 21.5523 12.0523 22 11.5 22H4Z" fill="#5C5C5C"/>
<path d="M8 16H12C12.2652 16 12.5196 16.1054 12.7071 16.2929C12.8946 16.4804 13 16.7348 13 17C13 17.2652 12.8946 17.5196 12.7071 17.7071C12.5196 17.8946 12.2652 18 12 18H8C7.73478 18 7.48043 17.8946 7.29289 17.7071C7.10536 17.5196 7 17.2652 7 17C7 16.7348 7.10536 16.4804 7.29289 16.2929C7.48043 16.1054 7.73478 16 8 16Z" fill="#5C5C5C"/>
<path d="M8 12H16C16.2652 12 16.5196 12.1054 16.7071 12.2929C16.8946 12.4804 17 12.7348 17 13C17 13.2652 16.8946 13.5196 16.7071 13.7071C16.5196 13.8946 16.2652 14 16 14H8C7.73478 14 7.48043 13.8946 7.29289 13.7071C7.10536 13.5196 7 13.2652 7 13C7 12.7348 7.10536 12.4804 7.29289 12.2929C7.48043 12.1054 7.73478 12 8 12Z" fill="#5C5C5C"/>
<path d="M8 8H16C16.2652 8 16.5196 8.10536 16.7071 8.2929C16.8946 8.48043 17 8.73479 17 9C17 9.26522 16.8946 9.51957 16.7071 9.70711C16.5196 9.89464 16.2652 10 16 10H8C7.73478 10 7.48043 9.89464 7.29289 9.70711C7.10536 9.51957 7 9.26522 7 9C7 8.73479 7.10536 8.48043 7.29289 8.2929C7.48043 8.10536 7.73478 8 8 8Z" fill="#5C5C5C"/>
<path d="M20.8846 16.0711C21.0064 16.1219 21.117 16.1963 21.21 16.29C21.3037 16.383 21.3781 16.4936 21.4289 16.6154C21.4797 16.7373 21.5058 16.868 21.5058 17C21.5058 17.132 21.4797 17.2627 21.4289 17.3846C21.3781 17.5064 21.3037 17.617 21.21 17.71L17.21 21.71C17.117 21.8037 17.0064 21.8781 16.8846 21.9289C16.7627 21.9797 16.632 22.0058 16.5 22.0058C16.368 22.0058 16.2373 21.9797 16.1154 21.9289C15.9936 21.8781 15.883 21.8037 15.79 21.71L13.79 19.71C13.6968 19.6168 13.6228 19.5061 13.5723 19.3842C13.5219 19.2624 13.4959 19.1319 13.4959 19C13.4959 18.8681 13.5219 18.7376 13.5723 18.6158C13.6228 18.4939 13.6968 18.3832 13.79 18.29C13.8832 18.1968 13.9939 18.1228 14.1158 18.0723C14.2376 18.0219 14.3681 17.9959 14.5 17.9959C14.6319 17.9959 14.7624 18.0219 14.8842 18.0723C15.0061 18.1228 15.1168 18.1968 15.21 18.29L16.5 19.59L19.79 16.29C19.883 16.1963 19.9936 16.1219 20.1154 16.0711C20.2373 16.0203 20.368 15.9942 20.5 15.9942C20.632 15.9942 20.7627 16.0203 20.8846 16.0711Z" fill="#5C5C5C"/>
</svg>
