<svg width="24" height="24" viewBox="0 0 24 24" fill="none" xmlns="http://www.w3.org/2000/svg">
<path d="M9.83563 19.253C9.42284 19.6199 9.3857 20.2513 9.75262 20.6641C10.1195 21.0769 10.751 21.114 11.1638 20.7471L10.4997 20.0001C11.1477 20.729 11.163 20.747 11.1638 20.7471L11.1677 20.7442C11.1689 20.743 11.1709 20.7418 11.1725 20.7403C11.1758 20.7373 11.1797 20.7337 11.1843 20.7295C11.1939 20.7207 11.2064 20.7086 11.2214 20.6944C11.2514 20.6659 11.2921 20.6264 11.3415 20.5762C11.4401 20.476 11.575 20.3319 11.7331 20.1446C12.0493 19.7698 12.4612 19.2184 12.8708 18.4903C13.6924 17.0296 14.4997 14.8624 14.4997 12.0001C14.4997 9.13773 13.6924 6.9705 12.8708 5.50982C12.4612 4.7817 12.0493 4.23031 11.7331 3.85552C11.575 3.66816 11.4401 3.52412 11.3415 3.42388C11.2921 3.37375 11.2514 3.33418 11.2214 3.30572C11.2064 3.29149 11.1939 3.27939 11.1843 3.27056C11.1797 3.26638 11.1758 3.26278 11.1725 3.25982C11.1709 3.25835 11.1689 3.25707 11.1677 3.25591L11.1647 3.25298C11.164 3.25308 11.1512 3.26713 10.7018 3.77252L11.1647 3.25298C10.7519 2.88607 10.1195 2.92321 9.75262 3.33599C9.38584 3.74861 9.4233 4.37917 9.83563 4.74615L9.83465 4.74712C9.83699 4.74929 9.84069 4.75244 9.84539 4.75689C9.85928 4.77006 9.88318 4.79319 9.9157 4.82623C9.98103 4.89259 10.0809 4.99899 10.2038 5.14459C10.45 5.43642 10.7884 5.88541 11.1286 6.49029C11.8069 7.69627 12.4997 9.52917 12.4997 12.0001C12.4997 14.4709 11.8069 16.3038 11.1286 17.5098C10.7884 18.1147 10.45 18.5637 10.2038 18.8555C10.0809 19.0011 9.98103 19.1075 9.9157 19.1739C9.88318 19.2069 9.85928 19.2301 9.84539 19.2432C9.84103 19.2474 9.83796 19.2508 9.83563 19.253Z" fill="#5C5C5C"/>
</svg>
