<svg width="21" height="20" viewBox="0 0 21 20" xmlns="http://www.w3.org/2000/svg">
<path fill-rule="evenodd" clip-rule="evenodd" d="M3.76582 2.59494C3.47878 2.59494 3.2035 2.70296 3.00054 2.89524C2.79757 3.08753 2.68354 3.34832 2.68354 3.62025V5.44304C2.68354 5.88347 2.30667 6.24051 1.84177 6.24051C1.37687 6.24051 1 5.88347 1 5.44304V3.62025C1 2.92532 1.2914 2.25885 1.81009 1.76745C2.32878 1.27606 3.03228 1 3.76582 1H5.68987C6.15477 1 6.53165 1.35704 6.53165 1.79747C6.53165 2.2379 6.15477 2.59494 5.68987 2.59494H3.76582Z" />
<path fill-rule="evenodd" clip-rule="evenodd" d="M14.4684 1.79747C14.4684 1.35704 14.8452 1 15.3101 1H17.2342C17.9677 1 18.6712 1.27606 19.1899 1.76745C19.7086 2.25885 20 2.92532 20 3.62025V5.44304C20 5.88347 19.6231 6.24051 19.1582 6.24051C18.6933 6.24051 18.3165 5.88347 18.3165 5.44304V3.62025C18.3165 3.34832 18.2024 3.08753 17.9995 2.89524C17.7965 2.70296 17.5212 2.59494 17.2342 2.59494H15.3101C14.8452 2.59494 14.4684 2.2379 14.4684 1.79747Z" />
<path fill-rule="evenodd" clip-rule="evenodd" d="M19.1582 13.7595C19.6231 13.7595 20 14.1165 20 14.557V16.3797C20 17.0747 19.7086 17.7412 19.1899 18.2325C18.6712 18.7239 17.9677 19 17.2342 19H15.3101C14.8452 19 14.4684 18.643 14.4684 18.2025C14.4684 17.7621 14.8452 17.4051 15.3101 17.4051H17.2342C17.5212 17.4051 17.7965 17.297 17.9995 17.1048C18.2024 16.9125 18.3165 16.6517 18.3165 16.3797V14.557C18.3165 14.1165 18.6933 13.7595 19.1582 13.7595Z" />
<path fill-rule="evenodd" clip-rule="evenodd" d="M1.84177 13.7595C2.30667 13.7595 2.68354 14.1165 2.68354 14.557V16.3797C2.68354 16.6517 2.79757 16.9125 3.00054 17.1048C3.2035 17.297 3.47879 17.4051 3.76582 17.4051H5.68987C6.15477 17.4051 6.53165 17.7621 6.53165 18.2025C6.53165 18.643 6.15477 19 5.68987 19H3.76582C3.03228 19 2.32878 18.7239 1.81009 18.2325C1.2914 17.7412 1 17.0747 1 16.3797V14.557C1 14.1165 1.37687 13.7595 1.84177 13.7595Z" />
<path fill-rule="evenodd" clip-rule="evenodd" d="M6.6519 4.64557C7.1168 4.64557 7.49367 5.00261 7.49367 5.44304V14.557C7.49367 14.9974 7.1168 15.3544 6.6519 15.3544C6.187 15.3544 5.81013 14.9974 5.81013 14.557V5.44304C5.81013 5.00261 6.187 4.64557 6.6519 4.64557Z" />
<path fill-rule="evenodd" clip-rule="evenodd" d="M10.8418 4.64557C11.3067 4.64557 11.6835 5.00261 11.6835 5.44304V14.557C11.6835 14.9974 11.3067 15.3544 10.8418 15.3544C10.3769 15.3544 10 14.9974 10 14.557V5.44304C10 5.00261 10.3769 4.64557 10.8418 4.64557Z" />
<path fill-rule="evenodd" clip-rule="evenodd" d="M15.3101 4.64557C15.775 4.64557 16.1519 5.00261 16.1519 5.44304V14.557C16.1519 14.9974 15.775 15.3544 15.3101 15.3544C14.8452 15.3544 14.4684 14.9974 14.4684 14.557V5.44304C14.4684 5.00261 14.8452 4.64557 15.3101 4.64557Z" />
<path fill-rule="evenodd" clip-rule="evenodd" d="M3.76582 2.59494C3.47878 2.59494 3.2035 2.70296 3.00054 2.89524C2.79757 3.08753 2.68354 3.34832 2.68354 3.62025V5.44304C2.68354 5.88347 2.30667 6.24051 1.84177 6.24051C1.37687 6.24051 1 5.88347 1 5.44304V3.62025C1 2.92532 1.2914 2.25885 1.81009 1.76745C2.32878 1.27606 3.03228 1 3.76582 1H5.68987C6.15477 1 6.53165 1.35704 6.53165 1.79747C6.53165 2.2379 6.15477 2.59494 5.68987 2.59494H3.76582Z" stroke="#5C5C5C" stroke-width="0.3" stroke-linecap="round" stroke-linejoin="round"/>
<path fill-rule="evenodd" clip-rule="evenodd" d="M14.4684 1.79747C14.4684 1.35704 14.8452 1 15.3101 1H17.2342C17.9677 1 18.6712 1.27606 19.1899 1.76745C19.7086 2.25885 20 2.92532 20 3.62025V5.44304C20 5.88347 19.6231 6.24051 19.1582 6.24051C18.6933 6.24051 18.3165 5.88347 18.3165 5.44304V3.62025C18.3165 3.34832 18.2024 3.08753 17.9995 2.89524C17.7965 2.70296 17.5212 2.59494 17.2342 2.59494H15.3101C14.8452 2.59494 14.4684 2.2379 14.4684 1.79747Z" stroke="#5C5C5C" stroke-width="0.3" stroke-linecap="round" stroke-linejoin="round"/>
<path fill-rule="evenodd" clip-rule="evenodd" d="M19.1582 13.7595C19.6231 13.7595 20 14.1165 20 14.557V16.3797C20 17.0747 19.7086 17.7412 19.1899 18.2325C18.6712 18.7239 17.9677 19 17.2342 19H15.3101C14.8452 19 14.4684 18.643 14.4684 18.2025C14.4684 17.7621 14.8452 17.4051 15.3101 17.4051H17.2342C17.5212 17.4051 17.7965 17.297 17.9995 17.1048C18.2024 16.9125 18.3165 16.6517 18.3165 16.3797V14.557C18.3165 14.1165 18.6933 13.7595 19.1582 13.7595Z" stroke="#5C5C5C" stroke-width="0.3" stroke-linecap="round" stroke-linejoin="round"/>
<path fill-rule="evenodd" clip-rule="evenodd" d="M1.84177 13.7595C2.30667 13.7595 2.68354 14.1165 2.68354 14.557V16.3797C2.68354 16.6517 2.79757 16.9125 3.00054 17.1048C3.2035 17.297 3.47879 17.4051 3.76582 17.4051H5.68987C6.15477 17.4051 6.53165 17.7621 6.53165 18.2025C6.53165 18.643 6.15477 19 5.68987 19H3.76582C3.03228 19 2.32878 18.7239 1.81009 18.2325C1.2914 17.7412 1 17.0747 1 16.3797V14.557C1 14.1165 1.37687 13.7595 1.84177 13.7595Z" stroke="#5C5C5C" stroke-width="0.3" stroke-linecap="round" stroke-linejoin="round"/>
<path fill-rule="evenodd" clip-rule="evenodd" d="M6.6519 4.64557C7.1168 4.64557 7.49367 5.00261 7.49367 5.44304V14.557C7.49367 14.9974 7.1168 15.3544 6.6519 15.3544C6.187 15.3544 5.81013 14.9974 5.81013 14.557V5.44304C5.81013 5.00261 6.187 4.64557 6.6519 4.64557Z" stroke="#5C5C5C" stroke-width="0.3" stroke-linecap="round" stroke-linejoin="round"/>
<path fill-rule="evenodd" clip-rule="evenodd" d="M10.8418 4.64557C11.3067 4.64557 11.6835 5.00261 11.6835 5.44304V14.557C11.6835 14.9974 11.3067 15.3544 10.8418 15.3544C10.3769 15.3544 10 14.9974 10 14.557V5.44304C10 5.00261 10.3769 4.64557 10.8418 4.64557Z" stroke="#5C5C5C" stroke-width="0.3" stroke-linecap="round" stroke-linejoin="round"/>
<path fill-rule="evenodd" clip-rule="evenodd" d="M15.3101 4.64557C15.775 4.64557 16.1519 5.00261 16.1519 5.44304V14.557C16.1519 14.9974 15.775 15.3544 15.3101 15.3544C14.8452 15.3544 14.4684 14.9974 14.4684 14.557V5.44304C14.4684 5.00261 14.8452 4.64557 15.3101 4.64557Z" stroke="#5C5C5C" stroke-width="0.3" stroke-linecap="round" stroke-linejoin="round"/>
</svg>
