<svg width="25" height="24" viewBox="0 0 25 24" xmlns="http://www.w3.org/2000/svg">
<path d="M19.2111 4.00988C18.6976 3.4963 18.0062 3.20988 17.2753 3.2H16.4951V2.77531C16.4951 2.5679 16.4161 2.37037 16.2679 2.22222C15.9716 1.92593 15.458 1.92593 15.1618 2.22222C15.0136 2.37037 14.9346 2.5679 14.9346 2.77531V3.2H7.57655V2.77531C7.57655 2.5679 7.49754 2.37037 7.34939 2.22222C7.0531 1.92593 6.52964 1.92593 6.24322 2.22222C6.09507 2.37037 6.01607 2.5679 6.01607 2.77531V3.2H5.24568C4.51482 3.20988 3.82347 3.4963 3.30988 4.00988C2.7963 4.53333 2.5 5.21482 2.5 5.94568V17.6889C2.5 18.4198 2.78643 19.1111 3.30988 19.6247C3.82347 20.1482 4.51482 20.4346 5.24568 20.4346H10.7766C10.8753 20.4346 10.984 20.405 11.0729 20.3655C11.1716 20.3259 11.2506 20.2667 11.3198 20.1976C11.3988 20.1185 11.4482 20.0297 11.4877 19.9309C11.5272 19.8321 11.5371 19.7334 11.5371 19.6346C11.5371 19.5259 11.5173 19.4272 11.4778 19.3383C11.4284 19.2395 11.3692 19.1605 11.3 19.0914C11.221 19.0124 11.1321 18.963 11.0432 18.9235C10.9938 18.9037 10.9445 18.8938 10.8852 18.884V18.8642H5.24568C4.92963 18.8642 4.63334 18.7358 4.41605 18.5185C4.19877 18.3013 4.07037 17.9951 4.0605 17.679V8.85926H18.4704V10.1235C18.4507 10.242 18.4605 10.3506 18.5 10.4494C18.5297 10.558 18.5889 10.6568 18.658 10.7358C18.7272 10.8148 18.826 10.884 18.9247 10.9333C19.1222 11.0222 19.3593 11.0222 19.5667 10.9333C19.6655 10.884 19.7544 10.8148 19.8235 10.7358C19.9025 10.6568 19.9519 10.558 19.9914 10.4494C20.021 10.3506 20.0309 10.242 20.021 10.1432V5.94568C20.021 5.21482 19.7346 4.53333 19.2111 4.00988ZM4.0605 5.94568C4.07037 5.62963 4.18889 5.33334 4.41605 5.11605C4.63334 4.88889 4.92963 4.77037 5.24568 4.7605H6.01607V5.12592C6.01607 5.34321 6.10495 5.53087 6.24322 5.67902C6.5494 5.97531 7.06298 5.97531 7.35928 5.67902C7.49755 5.53087 7.58644 5.34321 7.58644 5.12592V4.7605H14.9445V5.12592C14.9445 5.23457 14.9642 5.33334 15.0037 5.4321C15.0432 5.52099 15.1025 5.60988 15.1716 5.67902C15.2408 5.75803 15.3297 5.80741 15.4284 5.8568C15.6161 5.92593 15.8334 5.93581 16.021 5.8568C16.1198 5.81729 16.2087 5.75803 16.2778 5.67902C16.3568 5.60988 16.4062 5.52099 16.4457 5.4321C16.4852 5.33334 16.505 5.23457 16.505 5.12592V4.7605H17.2852C17.6013 4.7605 17.8976 4.88889 18.1247 5.11605C18.3519 5.34321 18.4704 5.62963 18.4704 5.94568V7.28889H4.0605V5.94568Z"/>
<path d="M21.0284 13.4318C20.0803 12.4936 18.8259 11.9701 17.4827 11.9701C16.4951 11.9701 15.5272 12.2565 14.7074 12.8096C13.8778 13.3627 13.2358 14.143 12.8605 15.0615C12.4753 15.98 12.3765 16.9775 12.5741 17.9553C12.7617 18.9331 13.2358 19.822 13.9469 20.5232C14.6481 21.2245 15.537 21.6985 16.5049 21.8961C16.8309 21.9553 17.1667 21.9948 17.4926 21.9948C18.1444 21.9948 18.7963 21.8664 19.3988 21.6096C20.3272 21.2343 21.0975 20.5923 21.6506 19.7627C22.2037 18.9331 22.5 17.9751 22.5 16.9775C22.5 15.6442 21.9766 14.38 21.0284 13.4318ZM20.6235 18.3405C20.4556 18.7454 20.2086 19.1207 19.8926 19.4368C19.5765 19.7528 19.2012 19.9998 18.7864 20.1775C18.3716 20.3454 17.937 20.4343 17.4926 20.4343H17.4827C16.8111 20.4343 16.1691 20.2368 15.6062 19.8615C15.0531 19.4862 14.6185 18.9627 14.3617 18.3405C14.1049 17.7183 14.0358 17.0368 14.1642 16.3849C14.3025 15.7232 14.6185 15.1207 15.0926 14.6467C15.5667 14.1726 16.1691 13.8565 16.8309 13.7183C17.0482 13.6788 17.2753 13.659 17.4926 13.659C17.937 13.659 18.3716 13.738 18.7864 13.9158C19.4086 14.1726 19.9321 14.5973 20.3074 15.1602C20.6827 15.7133 20.8802 16.3652 20.8802 17.0368C20.8802 17.4812 20.7914 17.9257 20.6235 18.3405Z"/>
<path d="M19.3597 18.3211C19.3597 18.5186 19.3103 18.7162 19.1819 18.8643C19.0535 19.0124 18.8757 19.1112 18.6881 19.131H18.5992C18.4313 19.131 18.2535 19.0618 18.1251 18.9532C18.0856 18.9236 18.0461 18.884 18.0165 18.8445L16.9399 17.7779C16.8016 17.6297 16.7226 17.4421 16.7226 17.2445V15.368C16.7325 15.1606 16.8214 14.9927 16.9597 14.8643C17.2362 14.6075 17.7004 14.6075 17.977 14.8643C18.1251 14.9927 18.2041 15.1705 18.2239 15.3581V16.9285L19.1128 17.8273C19.1819 17.8865 19.2411 17.9557 19.2807 18.0445C19.3202 18.1334 19.3498 18.2223 19.3597 18.3211Z"/>
</svg>
