<svg width="24" height="24" viewBox="0 0 24 24" xmlns="http://www.w3.org/2000/svg">
<path d="M20.7323 19.46L17.3953 16.1474C18.6906 14.5311 19.3179 12.4796 19.1482 10.4147C18.9785 8.34972 18.0246 6.42833 16.4828 5.04558C14.941 3.66283 12.9284 2.92381 10.8588 2.98048C8.78924 3.03716 6.82003 3.88521 5.35607 5.35028C3.89212 6.81534 3.04471 8.78605 2.98808 10.8572C2.93145 12.9283 3.66991 14.9425 5.05161 16.4855C6.43331 18.0284 8.35324 18.983 10.4166 19.1529C12.48 19.3227 14.53 18.6949 16.145 17.3986L19.4551 20.7112C19.5387 20.7956 19.6382 20.8625 19.7478 20.9082C19.8574 20.9539 19.9749 20.9774 20.0937 20.9774C20.2124 20.9774 20.33 20.9539 20.4396 20.9082C20.5492 20.8625 20.6487 20.7956 20.7323 20.7112C20.8944 20.5433 20.985 20.319 20.985 20.0856C20.985 19.8521 20.8944 19.6278 20.7323 19.46ZM11.099 17.3986C9.85375 17.3986 8.63643 17.0291 7.60102 16.3367C6.56561 15.6444 5.7586 14.6603 5.28205 13.5089C4.8055 12.3575 4.68081 11.0906 4.92376 9.86833C5.1667 8.64604 5.76636 7.52331 6.64691 6.64209C7.52745 5.76087 8.64934 5.16076 9.87069 4.91763C11.092 4.6745 12.358 4.79929 13.5085 5.2762C14.659 5.75311 15.6423 6.56073 16.3342 7.59693C17.026 8.63313 17.3953 9.85137 17.3953 11.0976C17.3953 12.7687 16.7319 14.3714 15.5512 15.5531C14.3704 16.7348 12.7689 17.3986 11.099 17.3986Z"/>
</svg>
