<svg viewBox="0 0 18 18" xmlns="http://www.w3.org/2000/svg">
<path d="M15.1638 9.49407C15.0436 9.3572 14.9773 9.18125 14.9773 8.99907C14.9773 8.81689 15.0436 8.64093 15.1638 8.50407L16.1238 7.42407C16.2296 7.30607 16.2953 7.15759 16.3115 6.99995C16.3277 6.8423 16.2935 6.68358 16.2138 6.54657L14.7138 3.95157C14.635 3.81471 14.515 3.70622 14.3709 3.64158C14.2268 3.57694 14.066 3.55944 13.9113 3.59157L12.5013 3.87657C12.3219 3.91364 12.1352 3.88376 11.9763 3.79257C11.8174 3.70138 11.6973 3.55518 11.6388 3.38157L11.1813 2.00907C11.131 1.8601 11.0352 1.73072 10.9073 1.6392C10.7795 1.54768 10.6261 1.49866 10.4688 1.49907H7.46884C7.30529 1.49053 7.14345 1.53576 7.00802 1.62785C6.87259 1.71994 6.77103 1.85383 6.71884 2.00907L6.29884 3.38157C6.24035 3.55518 6.12032 3.70138 5.96143 3.79257C5.80253 3.88376 5.61576 3.91364 5.43634 3.87657L3.98884 3.59157C3.84226 3.57085 3.69282 3.59398 3.55935 3.65805C3.42589 3.72211 3.31437 3.82424 3.23884 3.95157L1.73884 6.54657C1.65721 6.68205 1.62051 6.83988 1.63398 6.99748C1.64745 7.15509 1.71041 7.3044 1.81384 7.42407L2.76634 8.50407C2.88658 8.64093 2.9529 8.81689 2.9529 8.99907C2.9529 9.18125 2.88658 9.3572 2.76634 9.49407L1.81384 10.5741C1.71041 10.6937 1.64745 10.843 1.63398 11.0006C1.62051 11.1583 1.65721 11.3161 1.73884 11.4516L3.23884 14.0466C3.31767 14.1834 3.43768 14.2919 3.58178 14.3566C3.72588 14.4212 3.88671 14.4387 4.04134 14.4066L5.45134 14.1216C5.63076 14.0845 5.81753 14.1144 5.97643 14.2056C6.13532 14.2968 6.25535 14.443 6.31384 14.6166L6.77134 15.9891C6.82353 16.1443 6.92509 16.2782 7.06052 16.3703C7.19595 16.4624 7.35779 16.5076 7.52134 16.4991H10.5213C10.6786 16.4995 10.832 16.4505 10.9598 16.3589C11.0877 16.2674 11.1835 16.138 11.2338 15.9891L11.6913 14.6166C11.7498 14.443 11.8699 14.2968 12.0288 14.2056C12.1877 14.1144 12.3744 14.0845 12.5538 14.1216L13.9638 14.4066C14.1185 14.4387 14.2793 14.4212 14.4234 14.3566C14.5675 14.2919 14.6875 14.1834 14.7663 14.0466L16.2663 11.4516C16.346 11.3146 16.3802 11.1558 16.364 10.9982C16.3478 10.8405 16.2821 10.6921 16.1763 10.5741L15.1638 9.49407ZM14.0463 10.4991L14.6463 11.1741L13.6863 12.8391L12.8013 12.6591C12.2612 12.5486 11.6993 12.6404 11.2223 12.9169C10.7453 13.1934 10.3865 13.6354 10.2138 14.1591L9.92884 14.9991H8.00884L7.73884 14.1441C7.56624 13.6204 7.20738 13.1784 6.7304 12.9019C6.25342 12.6254 5.69151 12.5337 5.15134 12.6441L4.26634 12.8241L3.29134 11.1666L3.89134 10.4916C4.26031 10.0791 4.46429 9.54502 4.46429 8.99157C4.46429 8.43812 4.26031 7.90408 3.89134 7.49157L3.29134 6.81657L4.25134 5.16657L5.13634 5.34657C5.67651 5.45698 6.23842 5.36523 6.7154 5.08872C7.19238 4.8122 7.55124 4.37019 7.72384 3.84657L8.00884 2.99907H9.92884L10.2138 3.85407C10.3865 4.37769 10.7453 4.8197 11.2223 5.09622C11.6993 5.37273 12.2612 5.46448 12.8013 5.35407L13.6863 5.17407L14.6463 6.83907L14.0463 7.51407C13.6815 7.92564 13.4801 8.45658 13.4801 9.00657C13.4801 9.55656 13.6815 10.0875 14.0463 10.4991ZM8.96884 5.99907C8.3755 5.99907 7.79548 6.17501 7.30213 6.50466C6.80879 6.8343 6.42427 7.30284 6.19721 7.85102C5.97014 8.39919 5.91073 9.00239 6.02649 9.58434C6.14224 10.1663 6.42797 10.7008 6.84752 11.1204C7.26708 11.5399 7.80163 11.8257 8.38357 11.9414C8.96552 12.0572 9.56872 11.9978 10.1169 11.7707C10.6651 11.5436 11.1336 11.1591 11.4633 10.6658C11.7929 10.1724 11.9688 9.59241 11.9688 8.99907C11.9688 8.20342 11.6528 7.44036 11.0902 6.87775C10.5276 6.31514 9.76449 5.99907 8.96884 5.99907ZM8.96884 10.4991C8.67217 10.4991 8.38216 10.4111 8.13549 10.2463C7.88881 10.0814 7.69656 9.84718 7.58302 9.57309C7.46949 9.299 7.43979 8.9974 7.49767 8.70643C7.55554 8.41546 7.69841 8.14819 7.90818 7.93841C8.11796 7.72863 8.38524 7.58577 8.67621 7.52789C8.96718 7.47001 9.26878 7.49972 9.54287 7.61325C9.81696 7.72678 10.0512 7.91904 10.216 8.16571C10.3809 8.41239 10.4688 8.70239 10.4688 8.99907C10.4688 9.39689 10.3108 9.77842 10.0295 10.0597C9.7482 10.341 9.36667 10.4991 8.96884 10.4991Z" />
</svg>
