<svg width="24" height="24" viewBox="0 0 24 24" fill="none" xmlns="http://www.w3.org/2000/svg">
<path d="M20.2184 12.66C20.0581 12.4775 19.9697 12.2429 19.9697 12C19.9697 11.7571 20.0581 11.5225 20.2184 11.34L21.4984 9.90002C21.6395 9.74269 21.7271 9.54472 21.7486 9.33452C21.7702 9.12433 21.7246 8.9127 21.6184 8.73002L19.6184 5.27002C19.5133 5.08754 19.3533 4.94289 19.1612 4.8567C18.9691 4.77051 18.7546 4.74718 18.5484 4.79002L16.6684 5.17002C16.4292 5.21945 16.1802 5.17961 15.9683 5.05802C15.7565 4.93643 15.5964 4.7415 15.5184 4.51002L14.9084 2.68002C14.8414 2.4814 14.7135 2.30888 14.5431 2.18686C14.3726 2.06484 14.1681 1.99948 13.9584 2.00002H9.95844C9.74037 1.98864 9.52457 2.04894 9.344 2.17173C9.16343 2.29452 9.02802 2.47304 8.95844 2.68002L8.39844 4.51002C8.32044 4.7415 8.16041 4.93643 7.94855 5.05802C7.73669 5.17961 7.48766 5.21945 7.24844 5.17002L5.31844 4.79002C5.12299 4.7624 4.92374 4.79324 4.74579 4.87866C4.56783 4.96407 4.41914 5.10025 4.31844 5.27002L2.31844 8.73002C2.2096 8.91067 2.16066 9.1211 2.17862 9.33124C2.19658 9.54138 2.28052 9.74046 2.41844 9.90002L3.68844 11.34C3.84876 11.5225 3.93717 11.7571 3.93717 12C3.93717 12.2429 3.84876 12.4775 3.68844 12.66L2.41844 14.1C2.28052 14.2596 2.19658 14.4587 2.17862 14.6688C2.16066 14.8789 2.2096 15.0894 2.31844 15.27L4.31844 18.73C4.42354 18.9125 4.58356 19.0571 4.77569 19.1433C4.96782 19.2295 5.18226 19.2529 5.38844 19.21L7.26844 18.83C7.50766 18.7806 7.75669 18.8204 7.96855 18.942C8.18041 19.0636 8.34044 19.2585 8.41844 19.49L9.02844 21.32C9.09802 21.527 9.23343 21.7055 9.414 21.8283C9.59457 21.9511 9.81037 22.0114 10.0284 22H14.0284C14.2381 22.0006 14.4426 21.9352 14.6131 21.8132C14.7835 21.6912 14.9114 21.5186 14.9784 21.32L15.5884 19.49C15.6664 19.2585 15.8265 19.0636 16.0383 18.942C16.2502 18.8204 16.4992 18.7806 16.7384 18.83L18.6184 19.21C18.8246 19.2529 19.0391 19.2295 19.2312 19.1433C19.4233 19.0571 19.5833 18.9125 19.6884 18.73L21.6884 15.27C21.7946 15.0873 21.8402 14.8757 21.8186 14.6655C21.7971 14.4553 21.7095 14.2573 21.5684 14.1L20.2184 12.66ZM18.7284 14L19.5284 14.9L18.2484 17.12L17.0684 16.88C16.3482 16.7328 15.599 16.8551 14.963 17.2238C14.3271 17.5925 13.8486 18.1819 13.6184 18.88L13.2384 20H10.6784L10.3184 18.86C10.0883 18.1619 9.60982 17.5725 8.97384 17.2038C8.33787 16.8351 7.58866 16.7128 6.86844 16.86L5.68844 17.1L4.38844 14.89L5.18844 13.99C5.68039 13.44 5.95237 12.7279 5.95237 11.99C5.95237 11.2521 5.68039 10.54 5.18844 9.99002L4.38844 9.09002L5.66844 6.89002L6.84844 7.13002C7.56866 7.27724 8.31787 7.1549 8.95384 6.78622C9.58982 6.41753 10.0683 5.82818 10.2984 5.13002L10.6784 4.00002H13.2384L13.6184 5.14002C13.8486 5.83818 14.3271 6.42753 14.963 6.79622C15.599 7.1649 16.3482 7.28724 17.0684 7.14002L18.2484 6.90002L19.5284 9.12002L18.7284 10.02C18.242 10.5688 17.9734 11.2767 17.9734 12.01C17.9734 12.7433 18.242 13.4513 18.7284 14ZM11.9584 8.00002C11.1673 8.00002 10.394 8.23461 9.73616 8.67414C9.07836 9.11366 8.56567 9.73838 8.26292 10.4693C7.96017 11.2002 7.88096 12.0045 8.0353 12.7804C8.18964 13.5563 8.5706 14.269 9.13001 14.8284C9.68942 15.3879 10.4022 15.7688 11.1781 15.9232C11.954 16.0775 12.7583 15.9983 13.4892 15.6955C14.2201 15.3928 14.8448 14.8801 15.2843 14.2223C15.7238 13.5645 15.9584 12.7911 15.9584 12C15.9584 10.9392 15.537 9.92174 14.7869 9.17159C14.0367 8.42144 13.0193 8.00002 11.9584 8.00002ZM11.9584 14C11.5629 14 11.1762 13.8827 10.8473 13.663C10.5184 13.4432 10.2621 13.1308 10.1107 12.7654C9.9593 12.3999 9.9197 11.9978 9.99687 11.6098C10.074 11.2219 10.2645 10.8655 10.5442 10.5858C10.8239 10.3061 11.1803 10.1156 11.5683 10.0384C11.9562 9.96128 12.3584 10.0009 12.7238 10.1523C13.0893 10.3036 13.4016 10.56 13.6214 10.8889C13.8411 11.2178 13.9584 11.6045 13.9584 12C13.9584 12.5304 13.7477 13.0392 13.3727 13.4142C12.9976 13.7893 12.4889 14 11.9584 14Z" fill="#5C5C5C"/>
</svg>
