<svg width="24" height="24" viewBox="0 0 24 24" fill="none" xmlns="http://www.w3.org/2000/svg">
<path d="M12 2C12.4724 2 12.9361 2.12612 13.3456 2.36406L13.3465 2.36317L19.6465 6.00018L19.65 6.00284L19.8003 6.09696C20.1435 6.32869 20.4305 6.63759 20.6379 7C20.8747 7.41405 20.9995 7.8839 21 8.3621V15.6379C20.9995 16.1161 20.8747 16.5859 20.6379 17C20.401 17.4141 20.06 17.758 19.65 17.9972L19.6465 17.9998L13.3465 21.6368L13.3456 21.6359C12.9361 21.8739 12.4724 22 12 22C11.5273 22 11.0632 21.8741 10.6535 21.6359L4.35352 17.9998L4.35 17.9972C3.93999 17.758 3.59904 17.4141 3.36211 17C3.1548 16.6376 3.03359 16.2324 3.00615 15.8164L3 15.6379V8.3621L3.00615 8.18274C3.03368 7.76697 3.15497 7.36217 3.36211 7C3.59903 6.58592 3.94003 6.24201 4.35 6.00284L4.35352 6.00018L10.6535 2.36317C11.0632 2.12498 11.5273 2 12 2ZM12 3.8185C11.842 3.8185 11.6868 3.86038 11.55 3.94015L11.5465 3.94193L5.24912 7.57627L5.25 7.57716C5.11332 7.65689 4.99939 7.77209 4.92041 7.91014C4.8416 8.04807 4.80016 8.20461 4.8 8.36388V15.6361L4.80791 15.7551C4.82341 15.8726 4.86134 15.9865 4.92041 16.0899C4.99869 16.2267 5.11142 16.3405 5.24648 16.4202L11.5465 20.0572L11.55 20.0598L11.6555 20.1122C11.7643 20.1578 11.8814 20.1815 12 20.1815C12.1579 20.1815 12.3132 20.1396 12.45 20.0598L12.4535 20.0572L18.7535 16.4202C18.8886 16.3405 19.0013 16.2267 19.0796 16.0899C19.1583 15.9522 19.1997 15.796 19.2 15.637V8.36388L19.1921 8.24489C19.1766 8.12734 19.1386 8.01351 19.0796 7.91014C19.0006 7.77209 18.8867 7.65689 18.75 7.57716L12.4535 3.94193L12.45 3.94015C12.3132 3.86038 12.158 3.8185 12 3.8185Z" fill="#5C5C5C"/>
<path d="M14.7 11.9999C14.7 10.4934 13.4912 9.27215 12 9.27215C10.5088 9.27215 9.3 10.4934 9.3 11.9999C9.3 13.5064 10.5088 14.7277 12 14.7277C13.4912 14.7277 14.7 13.5064 14.7 11.9999ZM16.5 11.9999C16.5 14.5107 14.4853 16.5462 12 16.5462C9.51472 16.5462 7.5 14.5107 7.5 11.9999C7.5 9.48908 9.51472 7.45365 12 7.45365C14.4853 7.45365 16.5 9.48908 16.5 11.9999Z" fill="#5C5C5C"/>
</svg>
