<svg width="24" height="24" viewBox="0 0 24 24" fill="none" xmlns="http://www.w3.org/2000/svg">
<path d="M19.0711 4.92894C17.6725 3.53041 15.8907 2.578 13.9509 2.19215C12.0111 1.8063 10.0004 2.00433 8.17317 2.76121C6.3459 3.51809 4.78412 4.79981 3.6853 6.4443C2.58649 8.08879 2 10.0222 2 12C2 13.9778 2.58649 15.9112 3.6853 17.5557C4.78412 19.2002 6.3459 20.4819 8.17317 21.2388C10.0004 21.9957 12.0111 22.1937 13.9509 21.8079C15.8907 21.422 17.6725 20.4696 19.0711 19.0711C19.9997 18.1425 20.7362 17.0401 21.2388 15.8268C21.7413 14.6136 22 13.3132 22 12C22 10.6868 21.7413 9.38643 21.2388 8.17317C20.7362 6.95991 19.9997 5.85752 19.0711 4.92894ZM5.68554 16.9003C4.50754 15.3603 3.92886 13.445 4.05711 11.5104C4.18535 9.57586 5.01178 7.75369 6.38273 6.38274C7.75369 5.01178 9.57586 4.18535 11.5104 4.05711C13.445 3.92887 15.3603 4.50755 16.9002 5.68554L5.68554 16.9003ZM7.09975 18.3145L18.3145 7.09975C19.4925 8.63968 20.0711 10.555 19.9429 12.4896C19.8147 14.4241 18.9882 16.2463 17.6173 17.6173C16.2463 18.9882 14.4241 19.8147 12.4896 19.9429C10.555 20.0711 8.63967 19.4925 7.09975 18.3145Z" fill="#5C5C5C"/>
</svg>
