<svg width="24" height="24" viewBox="0 0 24 24" fill="none" xmlns="http://www.w3.org/2000/svg">
<path d="M14.8538 11.8295C14.4898 11.5958 14.0947 11.4144 13.6801 11.2907C13.4258 11.2138 13.1442 11.1385 12.8525 11.066C12.5988 10.9953 12.2968 10.9227 11.9232 10.8406C11.4784 10.7474 11.0419 10.6185 10.6178 10.4553C10.3993 10.3702 10.2064 10.2302 10.058 10.0487C9.94972 9.90021 9.89836 9.71778 9.91333 9.53463C9.91283 9.33817 9.97815 9.1472 10.0989 8.99219C10.2682 8.79356 10.488 8.64421 10.735 8.55984C11.1511 8.41692 11.5896 8.35046 12.0293 8.36365C12.369 8.35821 12.7077 8.40308 13.0343 8.49682C13.2511 8.55753 13.4554 8.65644 13.6375 8.7889C13.7552 8.87277 13.8556 8.97858 13.9331 9.10051C13.9895 9.206 14.0661 9.29934 14.1585 9.37517C14.251 9.45101 14.3575 9.50784 14.472 9.54243C14.5865 9.57701 14.7067 9.58866 14.8256 9.57671C14.9446 9.56476 15.0601 9.52945 15.1654 9.47279C15.2707 9.41613 15.3638 9.33925 15.4394 9.24654C15.5149 9.15383 15.5714 9.04713 15.6056 8.93255C15.6399 8.81796 15.6511 8.69775 15.6388 8.5788C15.6265 8.45985 15.5908 8.3445 15.5338 8.23936C15.342 7.90025 15.083 7.60389 14.7725 7.36846C14.4141 7.0931 14.0075 6.88688 13.5736 6.76032C13.0724 6.61214 12.5519 6.53973 12.0293 6.54548C11.3653 6.53137 10.7043 6.6394 10.0793 6.8642C9.51383 7.06945 9.01694 7.42859 8.64463 7.90112C8.28834 8.37119 8.09538 8.9448 8.0951 9.53464C8.08037 10.1219 8.2664 10.6965 8.62244 11.1637C8.96614 11.5967 9.41669 11.9326 9.92971 12.1385C10.3174 12.2876 10.7143 12.4115 11.1179 12.5093C11.1255 12.5118 11.1307 12.5179 11.1384 12.5202C11.3124 12.5726 11.5907 12.6427 11.9929 12.7297C12.1496 12.7634 12.2973 12.8005 12.4448 12.8374C12.4592 12.8417 12.4799 12.8462 12.4936 12.8505L12.51 12.853C12.7358 12.9105 12.9528 12.97 13.1515 13.0307C13.3962 13.1022 13.6299 13.2073 13.8457 13.3432C13.9799 13.4277 14.0927 13.5423 14.1751 13.6779C14.2552 13.8433 14.2923 14.0262 14.2829 14.2097C14.2957 14.4473 14.2271 14.6821 14.0885 14.8755C13.9012 15.1191 13.6479 15.3037 13.3588 15.4074C12.9282 15.5735 12.4687 15.6513 12.0075 15.6363C11.4738 15.657 10.9428 15.5499 10.4588 15.3238C10.2355 15.2048 10.0436 15.0344 9.89906 14.8267C9.79771 14.6937 9.73435 14.5357 9.71574 14.3695C9.71574 14.1284 9.61996 13.8972 9.44947 13.7267C9.27899 13.5562 9.04776 13.4604 8.80665 13.4604C8.56555 13.4604 8.33432 13.5562 8.16383 13.7267C7.99334 13.8972 7.89756 14.1284 7.89756 14.3695C7.91281 14.9055 8.08898 15.4246 8.40316 15.8592C8.7172 16.3117 9.13559 16.682 9.62296 16.9387C10.3645 17.3007 11.1827 17.4776 12.0075 17.4545C12.7084 17.4714 13.4054 17.3461 14.0565 17.0861C14.6618 16.854 15.1873 16.4523 15.5702 15.9293C15.934 15.4193 16.1204 14.8039 16.1006 14.1777C16.1091 13.6923 15.9917 13.213 15.7597 12.7866C15.5358 12.4018 15.2257 12.0742 14.8538 11.8295ZM21.4193 13.5376C21.6647 12.0434 21.5508 10.5121 21.087 9.07064C20.6231 7.62914 19.8227 6.31881 18.752 5.24805C17.6812 4.17728 16.3709 3.37687 14.9294 2.91303C13.4879 2.44919 11.9566 2.33526 10.4624 2.58065C9.3593 2.0518 8.11927 1.87839 6.91345 2.08434C5.70762 2.2903 4.59546 2.86547 3.73046 3.73046C2.86547 4.59546 2.2903 5.70762 2.08434 6.91345C1.87839 8.11927 2.0518 9.3593 2.58065 10.4624C2.33526 11.9566 2.44919 13.4879 2.91303 14.9294C3.37687 16.3709 4.17728 17.6812 5.24805 18.752C6.31881 19.8227 7.62914 20.6231 9.07064 21.087C10.5121 21.5508 12.0434 21.6647 13.5376 21.4193C14.6407 21.9482 15.8807 22.1216 17.0866 21.9157C18.2924 21.7097 19.4045 21.1345 20.2695 20.2695C21.1345 19.4045 21.7097 18.2924 21.9157 17.0866C22.1216 15.8807 21.9482 14.6407 21.4193 13.5376ZM16.0909 20.1818C15.4013 20.1815 14.7229 20.0072 14.1187 19.6749C13.9312 19.5714 13.7132 19.5371 13.503 19.5781C12.3826 19.8016 11.2266 19.7736 10.1183 19.4962C9.01 19.2188 7.9771 18.6989 7.0941 17.9739C6.2111 17.249 5.5 16.3371 5.01211 15.304C4.52422 14.2709 4.2717 13.1425 4.27276 12C4.2737 11.4951 4.32365 10.9914 4.42191 10.4961C4.46295 10.2861 4.42886 10.0683 4.32559 9.88092C3.8983 9.10463 3.73465 8.21057 3.85928 7.33326C3.98391 6.45594 4.39006 5.64283 5.01664 5.01624C5.64322 4.38966 6.45633 3.9835 7.33364 3.85886C8.21095 3.73422 9.10501 3.89786 9.88131 4.32514C10.0687 4.42896 10.2868 4.46323 10.497 4.42191C11.6174 4.19842 12.7734 4.22639 13.8817 4.5038C14.99 4.78121 16.0229 5.30114 16.9059 6.02609C17.7889 6.75104 18.5 7.66294 18.9879 8.696C19.4758 9.72906 19.7283 10.8575 19.7272 12C19.7263 12.5049 19.6764 13.0086 19.5781 13.5039C19.5371 13.7139 19.5712 13.9317 19.6745 14.1191C20.0175 14.7419 20.1922 15.4434 20.1814 16.1543C20.1705 16.8652 19.9746 17.561 19.6128 18.1731C19.251 18.7852 18.7359 19.2924 18.1183 19.6446C17.5007 19.9968 16.8019 20.182 16.0909 20.1818Z" fill="#5C5C5C"/>
</svg>
