<svg width="68" height="24" viewBox="0 0 68 24" fill="none" xmlns="http://www.w3.org/2000/svg">
<g clip-path="url(#clip0_1017_62)">
<path d="M6.29 14.29L6 14.59V7C6 6.73478 5.89465 6.48043 5.70711 6.29289C5.51957 6.10536 5.26522 6 5 6C4.73479 6 4.48043 6.10536 4.2929 6.29289C4.10536 6.48043 4 6.73478 4 7V14.59L3.71 14.29C3.5217 14.1017 3.2663 13.9959 3 13.9959C2.7337 13.9959 2.47831 14.1017 2.29 14.29C2.1017 14.4783 1.99591 14.7337 1.99591 15C1.99591 15.2663 2.1017 15.5217 2.29 15.71L4.29 17.71C4.38511 17.801 4.49725 17.8724 4.62 17.92C4.7397 17.9729 4.86913 18.0002 5 18.0002C5.13087 18.0002 5.2603 17.9729 5.38 17.92C5.50275 17.8724 5.6149 17.801 5.71 17.71L7.71 15.71C7.80324 15.6168 7.8772 15.5061 7.92766 15.3842C7.97812 15.2624 8.00409 15.1319 8.00409 15C8.00409 14.8681 7.97812 14.7376 7.92766 14.6158C7.8772 14.4939 7.80324 14.3832 7.71 14.29C7.61676 14.1968 7.50607 14.1228 7.38425 14.0723C7.26243 14.0219 7.13186 13.9959 7 13.9959C6.86814 13.9959 6.73758 14.0219 6.61575 14.0723C6.49393 14.1228 6.38324 14.1968 6.29 14.29ZM11 8H21C21.2652 8 21.5196 7.89464 21.7071 7.70711C21.8946 7.51957 22 7.26522 22 7C22 6.73478 21.8946 6.48043 21.7071 6.29289C21.5196 6.10536 21.2652 6 21 6H11C10.7348 6 10.4804 6.10536 10.2929 6.29289C10.1054 6.48043 10 6.73478 10 7C10 7.26522 10.1054 7.51957 10.2929 7.70711C10.4804 7.89464 10.7348 8 11 8ZM21 11H11C10.7348 11 10.4804 11.1054 10.2929 11.2929C10.1054 11.4804 10 11.7348 10 12C10 12.2652 10.1054 12.5196 10.2929 12.7071C10.4804 12.8946 10.7348 13 11 13H21C21.2652 13 21.5196 12.8946 21.7071 12.7071C21.8946 12.5196 22 12.2652 22 12C22 11.7348 21.8946 11.4804 21.7071 11.2929C21.5196 11.1054 21.2652 11 21 11ZM21 16H11C10.7348 16 10.4804 16.1054 10.2929 16.2929C10.1054 16.4804 10 16.7348 10 17C10 17.2652 10.1054 17.5196 10.2929 17.7071C10.4804 17.8946 10.7348 18 11 18H21C21.2652 18 21.5196 17.8946 21.7071 17.7071C21.8946 17.5196 22 17.2652 22 17C22 16.7348 21.8946 16.4804 21.7071 16.2929C21.5196 16.1054 21.2652 16 21 16Z" fill="#5C5C5C"/>
<path d="M49.71 6.29C49.6149 6.19896 49.5028 6.12759 49.38 6.08C49.1365 5.97998 48.8635 5.97998 48.62 6.08C48.4973 6.12759 48.3851 6.19896 48.29 6.29L46.29 8.29C46.1017 8.4783 45.9959 8.7337 45.9959 9C45.9959 9.2663 46.1017 9.5217 46.29 9.71C46.4783 9.8983 46.7337 10.0041 47 10.0041C47.2663 10.0041 47.5217 9.8983 47.71 9.71L48 9.41V17C48 17.2652 48.1054 17.5196 48.2929 17.7071C48.4804 17.8946 48.7348 18 49 18C49.2652 18 49.5196 17.8946 49.7071 17.7071C49.8946 17.5196 50 17.2652 50 17V9.41L50.29 9.71C50.383 9.80373 50.4936 9.87812 50.6154 9.92889C50.7373 9.97966 50.868 10.0058 51 10.0058C51.132 10.0058 51.2627 9.97966 51.3846 9.92889C51.5064 9.87812 51.617 9.80373 51.71 9.71C51.8037 9.61704 51.8781 9.50644 51.9289 9.38458C51.9797 9.26272 52.0058 9.13201 52.0058 9C52.0058 8.86799 51.9797 8.73728 51.9289 8.61542C51.8781 8.49356 51.8037 8.38296 51.71 8.29L49.71 6.29ZM55 8H65C65.2652 8 65.5196 7.89464 65.7071 7.70711C65.8946 7.51957 66 7.26522 66 7C66 6.73478 65.8946 6.48043 65.7071 6.29289C65.5196 6.10536 65.2652 6 65 6H55C54.7348 6 54.4804 6.10536 54.2929 6.29289C54.1054 6.48043 54 6.73478 54 7C54 7.26522 54.1054 7.51957 54.2929 7.70711C54.4804 7.89464 54.7348 8 55 8ZM65 16H55C54.7348 16 54.4804 16.1054 54.2929 16.2929C54.1054 16.4804 54 16.7348 54 17C54 17.2652 54.1054 17.5196 54.2929 17.7071C54.4804 17.8946 54.7348 18 55 18H65C65.2652 18 65.5196 17.8946 65.7071 17.7071C65.8946 17.5196 66 17.2652 66 17C66 16.7348 65.8946 16.4804 65.7071 16.2929C65.5196 16.1054 65.2652 16 65 16ZM65 11H55C54.7348 11 54.4804 11.1054 54.2929 11.2929C54.1054 11.4804 54 11.7348 54 12C54 12.2652 54.1054 12.5196 54.2929 12.7071C54.4804 12.8946 54.7348 13 55 13H65C65.2652 13 65.5196 12.8946 65.7071 12.7071C65.8946 12.5196 66 12.2652 66 12C66 11.7348 65.8946 11.4804 65.7071 11.2929C65.5196 11.1054 65.2652 11 65 11Z" fill="#5C5C5C"/>
</g>
<defs>
<clipPath id="clip0_1017_62">
<rect width="68" height="24" fill="white"/>
</clipPath>
</defs>
</svg>
