<svg width="24" height="24" viewBox="0 0 24 24" fill="none" xmlns="http://www.w3.org/2000/svg">
<path d="M12.119 2.00488C12.3933 2.02734 12.6563 2.12763 12.8768 2.29492C13.0973 2.46216 13.2646 2.68833 13.3602 2.94629L13.3973 3.05957L13.4022 3.0791L14.825 8.60059C14.8608 8.73883 14.9331 8.86483 15.034 8.96582C15.1351 9.0669 15.2618 9.1391 15.4002 9.1748L20.9207 10.5977C20.9262 10.5991 20.9319 10.601 20.9373 10.6025C21.2431 10.6869 21.5127 10.8689 21.7049 11.1211C21.8972 11.3736 22.0018 11.6826 22.0018 12C22.0018 12.3174 21.8972 12.6264 21.7049 12.8789C21.5127 13.1311 21.2431 13.3131 20.9373 13.3975C20.9319 13.399 20.9262 13.4009 20.9207 13.4023L15.3993 14.8242L15.4002 14.8252C15.2618 14.8609 15.1351 14.9331 15.034 15.0342C14.9331 15.1352 14.8608 15.2612 14.825 15.3994L13.4012 20.9209C13.3995 20.9274 13.3981 20.934 13.3963 20.9404C13.3111 21.2452 13.1279 21.5138 12.8758 21.7051C12.6238 21.8963 12.3162 22 11.9998 22C11.6835 22 11.3759 21.8962 11.1239 21.7051C10.8718 21.5138 10.6886 21.2452 10.6034 20.9404C10.6016 20.934 10.6002 20.9274 10.5985 20.9209L9.17563 15.3994C9.13994 15.2612 9.06752 15.1352 8.96664 15.0342C8.86557 14.9331 8.73885 14.8609 8.60043 14.8252L3.07895 13.4014C3.07121 13.3994 3.0632 13.3967 3.05551 13.3945C2.75215 13.3083 2.48491 13.1256 2.29477 12.874C2.12847 12.6539 2.02903 12.3915 2.00668 12.1182L2.0018 12L2.00668 11.8818C2.02903 11.6085 2.12847 11.3461 2.29477 11.126L2.36996 11.0352C2.55261 10.8304 2.79001 10.6809 3.05551 10.6055L3.07895 10.5986L8.60043 9.17383C8.73876 9.13816 8.86558 9.06678 8.96664 8.96582C9.06772 8.86481 9.13986 8.73796 9.17563 8.59961L10.5995 3.0791L10.6043 3.05957C10.6896 2.75499 10.8719 2.48615 11.1239 2.29492C11.376 2.10368 11.6844 2 12.0008 2L12.119 2.00488ZM11.1122 9.09961C10.9869 9.58382 10.7335 10.0264 10.3797 10.3799C10.0261 10.7332 9.58449 10.9854 9.10043 11.1104L5.65317 11.999L9.10043 12.8887C9.58476 13.0137 10.027 13.2664 10.3807 13.6201C10.7343 13.9739 10.9872 14.416 11.1122 14.9004L11.9998 18.3457L12.8885 14.9004L12.9413 14.7207C13.0781 14.3067 13.3104 13.9297 13.62 13.6201C13.9737 13.2663 14.4158 13.0137 14.9002 12.8887L18.3485 12L14.9002 11.1113C14.4158 10.9863 13.9737 10.7337 13.62 10.3799C13.3104 10.0703 13.0781 9.69334 12.9413 9.2793L12.8885 9.09961L11.9998 5.65332L11.1122 9.09961Z" fill="#5C5C5C"/>
<path d="M18.0018 8V4C18.0018 3.44772 18.4495 3 19.0018 3C19.5541 3 20.0018 3.44772 20.0018 4V8C20.0018 8.55228 19.5541 9 19.0018 9C18.4495 9 18.0018 8.55228 18.0018 8Z" fill="#5C5C5C"/>
<path d="M21.0018 5C21.5541 5 22.0018 5.44772 22.0018 6C22.0018 6.55228 21.5541 7 21.0018 7H17.0018C16.4495 7 16.0018 6.55228 16.0018 6C16.0018 5.44772 16.4495 5 17.0018 5H21.0018Z" fill="#5C5C5C"/>
<path d="M4.0018 18V16C4.0018 15.4477 4.44952 15 5.0018 15C5.55409 15 6.0018 15.4477 6.0018 16V18C6.0018 18.5523 5.55409 19 5.0018 19C4.44952 19 4.0018 18.5523 4.0018 18Z" fill="#5C5C5C"/>
<path d="M6.0018 16C6.55409 16 7.0018 16.4477 7.0018 17C7.0018 17.5523 6.55409 18 6.0018 18H4.0018C3.44952 18 3.0018 17.5523 3.0018 17C3.0018 16.4477 3.44952 16 4.0018 16H6.0018Z" fill="#5C5C5C"/>
</svg>
