<svg width="24" height="24" viewBox="0 0 24 24" fill="none" xmlns="http://www.w3.org/2000/svg">
<path d="M3.90879 3C4.40585 3 4.80879 3.40508 4.80879 3.90476C4.80879 4.40445 4.40585 4.80952 3.90879 4.80952H3.9C3.40294 4.80952 3 4.40445 3 3.90476C3 3.40508 3.40294 3 3.9 3H3.90879Z" fill="#5C5C5C"/>
<path d="M7.50879 4.80952C8.00585 4.80952 8.40879 5.2146 8.40879 5.71429C8.40879 6.21397 8.00585 6.61905 7.50879 6.61905H7.5C7.00294 6.61905 6.6 6.21397 6.6 5.71429C6.6 5.2146 7.00294 4.80952 7.5 4.80952H7.50879Z" fill="#5C5C5C"/>
<path d="M11.1088 6.61905C11.6058 6.61905 12.0088 7.02412 12.0088 7.52381C12.0088 8.0235 11.6058 8.42857 11.1088 8.42857H11.1C10.6029 8.42857 10.2 8.0235 10.2 7.52381C10.2 7.02412 10.6029 6.61905 11.1 6.61905H11.1088Z" fill="#5C5C5C"/>
<path d="M3.90879 6.61905C4.40585 6.61905 4.80879 7.02412 4.80879 7.52381C4.80879 8.0235 4.40585 8.42857 3.90879 8.42857H3.9C3.40294 8.42857 3 8.0235 3 7.52381C3 7.02412 3.40294 6.61905 3.9 6.61905H3.90879Z" fill="#5C5C5C"/>
<path d="M7.50879 8.42857C8.00585 8.42857 8.40879 8.83365 8.40879 9.33333C8.40879 9.83302 8.00585 10.2381 7.50879 10.2381H7.5C7.00294 10.2381 6.6 9.83302 6.6 9.33333C6.6 8.83365 7.00294 8.42857 7.5 8.42857H7.50879Z" fill="#5C5C5C"/>
<path d="M3.90879 10.2381C4.40585 10.2381 4.80879 10.6432 4.80879 11.1429C4.80879 11.6425 4.40585 12.0476 3.90879 12.0476H3.9C3.40294 12.0476 3 11.6425 3 11.1429C3 10.6432 3.40294 10.2381 3.9 10.2381H3.90879Z" fill="#5C5C5C"/>
<path d="M18.3 4.80952C18.7971 4.80952 19.2 5.2146 19.2 5.71429V9.33333C19.2 9.83302 18.7971 10.2381 18.3 10.2381H14.7C14.2029 10.2381 13.8 9.83302 13.8 9.33333V5.71429C13.8 5.2146 14.2029 4.80952 14.7 4.80952H18.3ZM15.6 8.42857H17.4V6.61905H15.6V8.42857Z" fill="#5C5C5C"/>
<path d="M17.6637 8.69364C18.0151 8.34031 18.5849 8.34031 18.9363 8.69364L20.7363 10.5032C20.9051 10.6728 21 10.9029 21 11.1429V20.1905C21 20.6675 20.8375 21.1349 20.4885 21.4858C20.1395 21.8366 19.6745 22 19.2 22H13.8C13.3255 22 12.8605 21.8366 12.5115 21.4858C12.1625 21.1349 12 20.6675 12 20.1905V11.1429L12.0044 11.0536C12.0248 10.8464 12.1159 10.6517 12.2637 10.5032L14.0637 8.69364C14.4151 8.34031 14.9849 8.34031 15.3363 8.69364C15.6878 9.04697 15.6878 9.6197 15.3363 9.97303L13.8 11.5175V20.1905H19.2V11.5175L17.6637 9.97303L17.6021 9.90411C17.3138 9.54874 17.3342 9.02489 17.6637 8.69364Z" fill="#5C5C5C"/>
<path d="M19.882 11.1702C20.3642 11.0492 20.8522 11.3438 20.9728 11.8285C21.0932 12.3132 20.8001 12.8038 20.318 12.925L13.118 14.7345C12.6358 14.8556 12.1478 14.561 12.0272 14.0763C11.9068 13.5916 12.1999 13.1009 12.682 12.9798L19.882 11.1702Z" fill="#5C5C5C"/>
<path d="M19.882 15.6941C20.3642 15.573 20.8522 15.8676 20.9728 16.3523C21.0932 16.837 20.8001 17.3276 20.318 17.4488L13.118 19.2583C12.6358 19.3794 12.1478 19.0848 12.0272 18.6001C11.9068 18.1154 12.1999 17.6248 12.682 17.5036L19.882 15.6941Z" fill="#5C5C5C"/>
</svg>
