<svg width="16" height="21" viewBox="0 0 16 21" xmlns="http://www.w3.org/2000/svg">
<path fill-rule="evenodd" clip-rule="evenodd" d="M16 8.5V17.5C16 19.1569 14.6569 20.5 13 20.5H3C1.34315 20.5 0 19.1569 0 17.5V3.5C0 1.84315 1.34315 0.5 3 0.5H8V5.5C8 7.15685 9.34315 8.5 11 8.5H16ZM13.3451 15.6425C13.0253 15.4271 12.638 15.3153 12.2963 15.2166C12.1286 15.1713 11.9629 15.1172 11.8009 15.0547C11.954 14.981 12.4077 14.9735 12.8051 15.0753C12.9943 15.1172 13.1924 15.0843 13.3579 14.9835C13.5233 14.8827 13.6433 14.7218 13.6927 14.5345C13.7421 14.3472 13.717 14.148 13.6227 13.9788C13.5284 13.8096 13.3723 13.6834 13.187 13.6267C12.9409 13.566 12.69 13.5271 12.4371 13.5105C11.8165 13.4693 11.3122 13.578 10.931 13.8335C10.7451 13.9582 10.5889 14.1222 10.4735 14.3139C10.358 14.5056 10.2862 14.7203 10.2629 14.9429C10.1942 15.4888 10.4185 15.9592 10.8947 16.2665C11.1926 16.459 11.5401 16.5595 11.876 16.6567L11.9173 16.6689C12.1064 16.7248 12.3837 16.8066 12.4964 16.8781C12.4943 16.8934 12.4899 16.9084 12.4833 16.9224C12.3977 17.0192 11.8846 17.0342 11.459 16.9187C11.3636 16.8901 11.2634 16.8808 11.1643 16.8914C11.0652 16.9019 10.9692 16.9321 10.8819 16.9802C10.7947 17.0283 10.7179 17.0932 10.656 17.1713C10.5941 17.2494 10.5484 17.339 10.5216 17.4349C10.4948 17.5309 10.4873 17.6312 10.4997 17.73C10.5121 17.8288 10.5441 17.9242 10.5938 18.0105C10.6435 18.0969 10.7099 18.1724 10.7891 18.2328C10.8684 18.2932 10.9589 18.3372 11.0553 18.3623C11.3857 18.4512 11.7262 18.4971 12.0683 18.4991C12.472 18.4991 12.9264 18.426 13.3013 18.1774C13.4912 18.0519 13.651 17.886 13.7693 17.6917C13.8876 17.4973 13.9615 17.2792 13.9856 17.053C14.0619 16.4708 13.8338 15.9711 13.3451 15.6425ZM9.9998 17.7495C9.9998 17.9483 9.92079 18.1389 9.78015 18.2795C9.63951 18.4201 9.44877 18.4991 9.24988 18.4991H7.50005C7.30116 18.4991 7.11042 18.4201 6.96978 18.2795C6.82914 18.1389 6.75013 17.9483 6.75013 17.7495V14.2514C6.75013 14.0526 6.82914 13.8619 6.96978 13.7213C7.11042 13.5807 7.30116 13.5018 7.50005 13.5018C7.69895 13.5018 7.88969 13.5807 8.03033 13.7213C8.17097 13.8619 8.24998 14.0526 8.24998 14.2514V16.9999H9.24988C9.44877 16.9999 9.63951 17.0789 9.78015 17.2194C9.92079 17.36 9.9998 17.5507 9.9998 17.7495ZM5.42086 13.5195C5.51691 13.5419 5.6076 13.583 5.68774 13.6404C5.76813 13.6978 5.83641 13.7704 5.88865 13.8542C5.94088 13.9379 5.97605 14.0312 5.99214 14.1286C6.00822 14.226 6.0049 14.3256 5.98237 14.4217C5.95984 14.5178 5.91854 14.6085 5.86085 14.6886L4.92344 16.0004L5.86085 17.3122C5.97687 17.474 6.02384 17.6752 5.99144 17.8716C5.95903 18.068 5.8499 18.2435 5.68805 18.3595C5.5262 18.4754 5.32489 18.5224 5.12841 18.49C4.93193 18.4576 4.75637 18.3485 4.64035 18.1867L4.00041 17.2885L3.3611 18.1867C3.30365 18.2668 3.23098 18.3349 3.14724 18.3869C3.0635 18.4389 2.97032 18.474 2.87304 18.49C2.77575 18.506 2.67625 18.5028 2.58023 18.4804C2.4842 18.458 2.39353 18.4169 2.3134 18.3595C2.23326 18.302 2.16522 18.2294 2.11316 18.1457C2.06111 18.062 2.02606 17.9689 2.01001 17.8716C1.99397 17.7744 1.99724 17.6749 2.01965 17.5789C2.04205 17.4829 2.08315 17.3923 2.1406 17.3122L3.07801 16.0004L2.1406 14.6886C2.02458 14.5268 1.97761 14.3256 2.01001 14.1292C2.04242 13.9328 2.15155 13.7573 2.3134 13.6414C2.47524 13.5254 2.67655 13.4784 2.87304 13.5108C3.06952 13.5432 3.24508 13.6523 3.3611 13.8141L4.00041 14.7099L4.64035 13.8141C4.69764 13.7339 4.77021 13.6657 4.85389 13.6135C4.93757 13.5614 5.03072 13.5262 5.12801 13.5101C5.2253 13.494 5.32481 13.4972 5.42086 13.5195Z" />
<path d="M10 5.5V0.982843C10 0.804662 10.2154 0.715428 10.3414 0.841421L15.6586 6.15858C15.7846 6.28457 15.6953 6.5 15.5172 6.5H11C10.4477 6.5 10 6.05228 10 5.5Z" />
</svg>
