<svg width="24" height="24" viewBox="0 0 24 24" fill="none" xmlns="http://www.w3.org/2000/svg">
<path fill-rule="evenodd" clip-rule="evenodd" d="M12 4.06418L10.016 6.04814L12 8.03209L13.984 6.04814L12 4.06418ZM12.992 2.41089C12.4441 1.86304 11.5559 1.86304 11.008 2.41089L8.36275 5.05616C7.8149 5.60402 7.8149 6.49226 8.36275 7.04012L11.008 9.68539C11.5559 10.2332 12.4441 10.2332 12.992 9.68539L15.6372 7.04012C16.1851 6.49226 16.1851 5.60402 15.6372 5.05616L12.992 2.41089Z" fill="#5C5C5C"/>
<path fill-rule="evenodd" clip-rule="evenodd" d="M6.04814 10.016L4.06419 12L6.04814 13.984L8.03209 12L6.04814 10.016ZM7.04012 8.36275C6.49226 7.8149 5.60402 7.8149 5.05616 8.36275L2.41089 11.008C1.86304 11.5559 1.86304 12.4441 2.41089 12.992L5.05616 15.6372C5.60402 16.1851 6.49226 16.1851 7.04012 15.6372L9.68539 12.992C10.2332 12.4441 10.2332 11.5559 9.68539 11.008L7.04012 8.36275Z" fill="#5C5C5C"/>
<path fill-rule="evenodd" clip-rule="evenodd" d="M17.9519 10.016L15.9679 12L17.9519 13.984L19.9358 12L17.9519 10.016ZM18.9438 8.36275C18.396 7.8149 17.5077 7.8149 16.9599 8.36275L14.3146 11.008C13.7668 11.5559 13.7668 12.4441 14.3146 12.992L16.9599 15.6372C17.5077 16.1851 18.396 16.1851 18.9438 15.6372L21.5891 12.992C22.137 12.4441 22.137 11.5559 21.5891 11.008L18.9438 8.36275Z" fill="#5C5C5C"/>
<path fill-rule="evenodd" clip-rule="evenodd" d="M12 15.9679L10.016 17.9519L12 19.9358L13.984 17.9519L12 15.9679ZM12.992 14.3146C12.4441 13.7668 11.5559 13.7668 11.008 14.3146L8.36275 16.9599C7.8149 17.5077 7.8149 18.396 8.36275 18.9438L11.008 21.5891C11.5559 22.137 12.4441 22.137 12.992 21.5891L15.6372 18.9438C16.1851 18.396 16.1851 17.5077 15.6372 16.9599L12.992 14.3146Z" fill="#5C5C5C"/>
</svg>
