<svg width="24" height="24" viewBox="0 0 24 24" fill="none" xmlns="http://www.w3.org/2000/svg">
<path d="M20.25 8.75H8.75V20.25H19C19.6904 20.25 20.25 19.6904 20.25 19V8.75ZM11.7256 14.584C11.9553 14.2394 12.421 14.1464 12.7656 14.376C13.1103 14.6057 13.2034 15.0714 12.9736 15.416L12.751 15.75H15.4004C15.5383 15.7498 15.6504 15.6379 15.6504 15.5V12.8672L15.2656 13.124C14.921 13.3536 14.4553 13.2606 14.2256 12.916C13.996 12.5715 14.0892 12.1058 14.4336 11.876L15.9336 10.876L16.0312 10.8213C16.2663 10.7108 16.5451 10.7291 16.7656 10.876L18.2656 11.876C18.6103 12.1057 18.7034 12.5714 18.4736 12.916C18.2438 13.2605 17.7782 13.3537 17.4336 13.124L17.1504 12.9346V15.5C17.1504 16.4664 16.3667 17.2498 15.4004 17.25H12.751L12.9736 17.584C13.2034 17.9286 13.1103 18.3943 12.7656 18.624C12.421 18.8536 11.9553 18.7606 11.7256 18.416L10.7256 16.916C10.5578 16.6642 10.5578 16.3358 10.7256 16.084L11.7256 14.584ZM3.75 19C3.75 19.6904 4.30964 20.25 5 20.25H7.25V8.75H3.75V19ZM20.25 5C20.25 4.30964 19.6904 3.75 19 3.75H8.75V7.25H20.25V5ZM3.75 7.25H7.25V3.75H5C4.30964 3.75 3.75 4.30964 3.75 5V7.25ZM21.75 19C21.75 20.5188 20.5188 21.75 19 21.75H5C3.48122 21.75 2.25 20.5188 2.25 19V5C2.25 3.48122 3.48122 2.25 5 2.25H19C20.5188 2.25 21.75 3.48122 21.75 5V19Z" fill="#5C5C5C"/>
</svg>
