<svg width="24" height="24" viewBox="0 0 24 24" fill="none" xmlns="http://www.w3.org/2000/svg">
<path d="M11 21V3C11 2.44772 11.4477 2 12 2C12.5523 2 13 2.44772 13 3V21C13 21.5523 12.5523 22 12 22C11.4477 22 11 21.5523 11 21Z" fill="#5C5C5C"/>
<path d="M20 5C20 4.44772 19.5523 4 19 4H5C4.44772 4 4 4.44772 4 5V19C4 19.5523 4.44772 20 5 20H19C19.5523 20 20 19.5523 20 19V5ZM22 19C22 20.6569 20.6569 22 19 22H5C3.34315 22 2 20.6569 2 19V5C2 3.34315 3.34315 2 5 2H19C20.6569 2 22 3.34315 22 5V19Z" fill="#5C5C5C"/>
<path d="M21 8C21.5523 8 22 8.44772 22 9C22 9.55228 21.5523 10 21 10H3C2.44772 10 2 9.55228 2 9C2 8.44772 2.44772 8 3 8H21Z" fill="#5C5C5C"/>
<path d="M21 14C21.5523 14 22 14.4477 22 15C22 15.5523 21.5523 16 21 16H3C2.44772 16 2 15.5523 2 15C2 14.4477 2.44772 14 3 14H21Z" fill="#5C5C5C"/>
</svg>
