<svg viewBox="0 0 12 12" xmlns="http://www.w3.org/2000/svg">
<path fill-rule="evenodd" clip-rule="evenodd" d="M2.73906 3.40858L3.17294 1.7553C3.31556 1.21185 3.86266 0.889348 4.39493 1.03496L7.60273 1.91254C7.98614 2.01743 8.31303 2.27354 8.51149 2.62451L10.7992 6.67022C11.2125 7.40109 10.9673 8.33564 10.2514 8.7576L6.79511 10.795C6.07928 11.217 5.16396 10.9666 4.75067 10.2357L2.46293 6.19C2.26446 5.83902 2.21068 5.42193 2.31341 5.03047L2.46021 4.4711C2.42144 4.44439 2.38299 4.41697 2.34483 4.38888C1.64082 3.87086 1.2138 3.14582 1.02932 2.61962C0.936465 2.35477 1.07148 2.06321 1.33088 1.96841C1.59029 1.8736 1.87585 2.01145 1.96871 2.2763C2.08086 2.5962 2.33641 3.04805 2.73906 3.40858ZM5.5 4.26008C5.46052 4.10693 5.35679 3.98849 5.22613 3.927C5.40386 3.82792 5.62751 3.89134 5.72932 4.07137C5.83264 4.25409 5.77132 4.48772 5.59237 4.59321C5.54751 4.61966 5.49952 4.63554 5.45115 4.64161C5.51342 4.5299 5.53457 4.3942 5.5 4.26008ZM3.634 3.93447C3.83246 3.99263 4.05371 4.01871 4.31265 3.9999C4.38113 3.70296 4.56488 3.43444 4.84405 3.26987C5.38092 2.9534 6.06742 3.14121 6.37738 3.68935C6.68734 4.2375 6.5034 4.93841 5.96652 5.25489C5.48766 5.53717 4.88975 5.41825 4.54618 5.00027C4.10479 5.05316 3.72136 5.01758 3.37586 4.91806L3.27717 5.29413C3.24292 5.42462 3.26085 5.56365 3.32701 5.68064L5.61475 9.72636C5.75251 9.96998 6.05762 10.0534 6.29623 9.91279L9.75256 7.87537C9.99117 7.73472 10.0729 7.4232 9.93516 7.17958L7.64741 3.13386C7.58126 3.01687 7.47229 2.93151 7.34449 2.89654L4.1367 2.01896L3.634 3.93447Z" />
</svg>
