<svg viewBox="0 0 20 20" xmlns="http://www.w3.org/2000/svg">
<path d="M10 9.25C10.9946 9.25 11.9484 9.64509 12.6516 10.3483C13.3549 11.0516 13.75 12.0054 13.75 13V17C13.75 17.2761 13.5261 17.5 13.25 17.5H12.75C12.4739 17.5 12.25 17.2761 12.25 17V13C12.25 12.4261 12.0308 11.8739 11.637 11.4563C11.2433 11.0387 10.7049 10.7874 10.132 10.7537L10 10.75C9.42609 10.75 8.87386 10.9692 8.4563 11.363C8.03874 11.7567 7.78742 12.2951 7.75375 12.868L7.75 13V17C7.75 17.2761 7.52614 17.5 7.25 17.5H6.75C6.47386 17.5 6.25 17.2761 6.25 17V13C6.25 12.0054 6.64509 11.0516 7.34835 10.3483C8.05161 9.64509 9.00544 9.25 10 9.25ZM5.125 11.5C5.14633 11.5 5.16759 11.5003 5.18879 11.5008C5.48331 11.5079 5.64889 11.8118 5.59009 12.1005C5.5464 12.315 5.51851 12.5327 5.50675 12.7517L5.5 13C5.5 13.0314 5.46883 13.0534 5.43868 13.0445C5.37157 13.0248 5.30271 13.0114 5.233 13.0045L5.125 13C4.84534 13 4.57571 13.1042 4.36869 13.2922C4.16166 13.4802 4.0321 13.7386 4.00525 14.017L4 14.125V17C4 17.2761 3.77614 17.5 3.5 17.5H3C2.72386 17.5 2.5 17.2761 2.5 17V14.125C2.5 13.4288 2.77656 12.7611 3.26884 12.2688C3.76113 11.7766 4.42881 11.5 5.125 11.5ZM14.875 11.5C15.5712 11.5 16.2389 11.7766 16.7312 12.2688C17.2234 12.7611 17.5 13.4288 17.5 14.125V17C17.5 17.2761 17.2761 17.5 17 17.5H16.5C16.2239 17.5 16 17.2761 16 17V14.125C16 13.8453 15.8958 13.5757 15.7078 13.3687C15.5198 13.1617 15.2614 13.0321 14.983 13.0052L14.875 13C14.7661 13 14.6607 13.0155 14.5607 13.0444C14.5308 13.053 14.5 13.0312 14.5 13C14.5 12.6908 14.469 12.3891 14.4096 12.0978C14.351 11.8106 14.5144 11.5084 14.8073 11.5009C14.8298 11.5003 14.8524 11.5 14.875 11.5ZM5.125 7C5.62228 7 6.09919 7.19754 6.45082 7.54917C6.80246 7.9008 7 8.37772 7 8.875C7 9.37228 6.80246 9.84919 6.45082 10.2008C6.09919 10.5525 5.62228 10.75 5.125 10.75C4.62772 10.75 4.15081 10.5525 3.79917 10.2008C3.44754 9.84919 3.25 9.37228 3.25 8.875C3.25 8.37772 3.44754 7.9008 3.79917 7.54917C4.15081 7.19754 4.62772 7 5.125 7ZM14.875 7C15.3723 7 15.8492 7.19754 16.2008 7.54917C16.5525 7.9008 16.75 8.37772 16.75 8.875C16.75 9.37228 16.5525 9.84919 16.2008 10.2008C15.8492 10.5525 15.3723 10.75 14.875 10.75C14.3777 10.75 13.9008 10.5525 13.5492 10.2008C13.1975 9.84919 13 9.37228 13 8.875C13 8.37772 13.1975 7.9008 13.5492 7.54917C13.9008 7.19754 14.3777 7 14.875 7ZM5.125 8.5C5.02554 8.5 4.93016 8.53951 4.85983 8.60983C4.78951 8.68016 4.75 8.77554 4.75 8.875C4.75 8.97446 4.78951 9.06984 4.85983 9.14017C4.93016 9.21049 5.02554 9.25 5.125 9.25C5.22446 9.25 5.31984 9.21049 5.39016 9.14017C5.46049 9.06984 5.5 8.97446 5.5 8.875C5.5 8.77554 5.46049 8.68016 5.39016 8.60983C5.31984 8.53951 5.22446 8.5 5.125 8.5ZM14.875 8.5C14.7755 8.5 14.6802 8.53951 14.6098 8.60983C14.5395 8.68016 14.5 8.77554 14.5 8.875C14.5 8.97446 14.5395 9.06984 14.6098 9.14017C14.6802 9.21049 14.7755 9.25 14.875 9.25C14.9745 9.25 15.0698 9.21049 15.1402 9.14017C15.2105 9.06984 15.25 8.97446 15.25 8.875C15.25 8.77554 15.2105 8.68016 15.1402 8.60983C15.0698 8.53951 14.9745 8.5 14.875 8.5ZM10 2.5C10.7956 2.5 11.5587 2.81607 12.1213 3.37868C12.6839 3.94129 13 4.70435 13 5.5C13 6.29565 12.6839 7.05871 12.1213 7.62132C11.5587 8.18393 10.7956 8.5 10 8.5C9.20435 8.5 8.44129 8.18393 7.87868 7.62132C7.31607 7.05871 7 6.29565 7 5.5C7 4.70435 7.31607 3.94129 7.87868 3.37868C8.44129 2.81607 9.20435 2.5 10 2.5ZM10 4C9.60218 4 9.22064 4.15804 8.93934 4.43934C8.65804 4.72064 8.5 5.10217 8.5 5.5C8.5 5.89782 8.65804 6.27936 8.93934 6.56066C9.22064 6.84196 9.60218 7 10 7C10.3978 7 10.7794 6.84196 11.0607 6.56066C11.342 6.27936 11.5 5.89782 11.5 5.5C11.5 5.10217 11.342 4.72064 11.0607 4.43934C10.7794 4.15804 10.3978 4 10 4Z" />
</svg>
