<svg viewBox="0 0 11 17" xmlns="http://www.w3.org/2000/svg">
<path d="M3.42688 16.1323C5.99079 16.5656 8.21029 14.8658 8.21029 12.6993C8.21029 11.566 7.55975 10.5327 6.5648 9.89946V2.26671C6.5648 1.13346 5.53158 0.200195 4.19222 0.200195C2.89113 0.200195 1.81965 1.13346 1.81965 2.26671V9.89946C0.63336 10.6661 -0.0554528 11.966 0.288953 13.4325C0.595092 14.7658 1.85791 15.8657 3.42688 16.1323ZM2.31712 10.5327L2.66153 10.2994V2.30004C2.66153 1.56676 3.35034 1.00013 4.15395 1.00013C4.99584 1.00013 5.68465 1.60009 5.68465 2.30004V10.2994L6.02906 10.5327C6.83267 11.0327 7.29188 11.866 7.29188 12.7326C7.29188 13.4659 6.94747 14.1658 6.37346 14.6658C5.76118 15.1657 4.99584 15.4657 4.15395 15.4657C2.58499 15.4657 1.36044 14.4991 1.09257 13.2992C0.901231 12.1993 1.36044 11.1327 2.31712 10.5327Z"/>
<path d="M4.19222 14.6658C4.8045 14.6658 5.37851 14.4658 5.79945 14.0991C6.22039 13.7325 6.45 13.2325 6.45 12.6993C6.45 11.366 5.14891 10.9327 4.8045 10.6661V7.34553H3.54168V10.6661C3.27381 10.9327 1.59004 11.466 1.97272 13.0992C2.16405 13.9658 3.0442 14.6658 4.19222 14.6658Z"/>
<path d="M9.74099 2.46669H7.55975V3.2333H9.74099C9.97059 3.2333 10.1619 3.06665 10.1619 2.86666C10.2002 2.63334 10.0089 2.46669 9.74099 2.46669Z"/>
<path d="M9.32005 4.86651C9.32005 4.66652 9.12871 4.49987 8.89911 4.49987H7.59802V5.26648H8.89911C9.12871 5.23315 9.32005 5.06649 9.32005 4.86651Z"/>
<path d="M10.2002 6.86636C10.2002 6.66637 10.0089 6.49972 9.77925 6.49972H7.59802V7.26633H9.77925C10.0089 7.26633 10.2002 7.06634 10.2002 6.86636Z"/>
<path d="M3.42688 16.1323C5.99079 16.5656 8.21029 14.8658 8.21029 12.6993C8.21029 11.566 7.55975 10.5327 6.5648 9.89946V2.26671C6.5648 1.13346 5.53158 0.200195 4.19222 0.200195C2.89113 0.200195 1.81965 1.13346 1.81965 2.26671V9.89946C0.63336 10.6661 -0.0554528 11.966 0.288953 13.4325C0.595092 14.7658 1.85791 15.8657 3.42688 16.1323ZM2.31712 10.5327L2.66153 10.2994V2.30004C2.66153 1.56676 3.35034 1.00013 4.15395 1.00013C4.99584 1.00013 5.68465 1.60009 5.68465 2.30004V10.2994L6.02906 10.5327C6.83267 11.0327 7.29188 11.866 7.29188 12.7326C7.29188 13.4659 6.94747 14.1658 6.37346 14.6658C5.76118 15.1657 4.99584 15.4657 4.15395 15.4657C2.58499 15.4657 1.36044 14.4991 1.09257 13.2992C0.901231 12.1993 1.36044 11.1327 2.31712 10.5327Z" stroke="#4F4F4F" stroke-width="0.4"/>
<path d="M4.19222 14.6658C4.8045 14.6658 5.37851 14.4658 5.79945 14.0991C6.22039 13.7325 6.45 13.2325 6.45 12.6993C6.45 11.366 5.14891 10.9327 4.8045 10.6661V7.34553H3.54168V10.6661C3.27381 10.9327 1.59004 11.466 1.97272 13.0992C2.16405 13.9658 3.0442 14.6658 4.19222 14.6658Z" stroke="#4F4F4F" stroke-width="0.4"/>
<path d="M9.74099 2.46669H7.55975V3.2333H9.74099C9.97059 3.2333 10.1619 3.06665 10.1619 2.86666C10.2002 2.63334 10.0089 2.46669 9.74099 2.46669Z" stroke="#4F4F4F" stroke-width="0.4"/>
<path d="M9.32005 4.86651C9.32005 4.66652 9.12871 4.49987 8.89911 4.49987H7.59802V5.26648H8.89911C9.12871 5.23315 9.32005 5.06649 9.32005 4.86651Z" stroke="#4F4F4F" stroke-width="0.4"/>
<path d="M10.2002 6.86636C10.2002 6.66637 10.0089 6.49972 9.77925 6.49972H7.59802V7.26633H9.77925C10.0089 7.26633 10.2002 7.06634 10.2002 6.86636Z" stroke="#4F4F4F" stroke-width="0.4"/>
</svg>
