<svg width="13" height="22" viewBox="0 0 13 22" xmlns="http://www.w3.org/2000/svg">
<path d="M7.00003 14.28V4.5C7.00003 4.23478 6.89467 3.98043 6.70713 3.79289C6.5196 3.60536 6.26524 3.5 6.00003 3.5C5.73481 3.5 5.48046 3.60536 5.29292 3.79289C5.10538 3.98043 5.00003 4.23478 5.00003 4.5V14.28C4.69775 14.4545 4.44641 14.7051 4.27098 15.0068C4.09555 15.3086 4.00213 15.651 4.00003 16C4.00003 16.5304 4.21074 17.0391 4.58581 17.4142C4.96089 17.7893 5.46959 18 6.00003 18C6.53046 18 7.03917 17.7893 7.41424 17.4142C7.78931 17.0391 8.00003 16.5304 8.00003 16C7.99792 15.651 7.90451 15.3086 7.72908 15.0068C7.55365 14.7051 7.3023 14.4545 7.00003 14.28ZM10.5 12V4.5C10.5 3.30653 10.0259 2.16193 9.18201 1.31802C8.33809 0.474106 7.1935 0 6.00003 0C4.80655 0 3.66196 0.474106 2.81805 1.31802C1.97413 2.16193 1.50003 3.30653 1.50003 4.5V12C0.80887 12.7832 0.334155 13.7333 0.12284 14.7562C-0.0884757 15.7792 -0.0290696 16.8396 0.295182 17.8326C0.619434 18.8255 1.1973 19.7166 1.97161 20.4177C2.74592 21.1188 3.68985 21.6056 4.71003 21.83C5.13382 21.9266 5.56568 21.9835 6.00003 22C7.16065 22.0054 8.29793 21.6741 9.27404 21.0461C10.2502 20.4182 11.0232 19.5207 11.4995 18.4623C11.9758 17.4038 12.1348 16.23 11.9575 15.083C11.7801 13.936 11.2738 12.8651 10.5 12ZM8.50003 19.07C7.97333 19.4982 7.34631 19.7854 6.678 19.9044C6.0097 20.0234 5.32209 19.9704 4.67993 19.7504C4.03777 19.5303 3.46217 19.1505 3.00733 18.6465C2.55249 18.1426 2.23338 17.5313 2.08003 16.87C1.92553 16.2015 1.94557 15.5046 2.13821 14.8461C2.33085 14.1876 2.68961 13.5898 3.18003 13.11C3.27452 13.0174 3.34969 12.9069 3.40118 12.7851C3.45268 12.6632 3.47948 12.5323 3.48003 12.4V4.5C3.48003 3.83696 3.74342 3.20107 4.21226 2.73223C4.6811 2.26339 5.31699 2 5.98003 2C6.64307 2 7.27895 2.26339 7.74779 2.73223C8.21663 3.20107 8.48003 3.83696 8.48003 4.5V12.44C8.48058 12.5723 8.50738 12.7032 8.55887 12.8251C8.61037 12.9469 8.68554 13.0574 8.78003 13.15C9.18878 13.5449 9.50869 14.0223 9.71845 14.5505C9.92821 15.0787 10.023 15.6456 9.99651 16.2133C9.97001 16.781 9.82284 17.3366 9.5648 17.843C9.30676 18.3493 8.94378 18.7949 8.50003 19.15V19.07Z" />
</svg>
