<svg width="24" height="24" viewBox="0 0 24 24" fill="none" xmlns="http://www.w3.org/2000/svg">
<path d="M21 4.5C21.5523 4.5 22 4.94772 22 5.5C22 6.05228 21.5523 6.5 21 6.5H3C2.44772 6.5 2 6.05228 2 5.5C2 4.94772 2.44772 4.5 3 4.5H21Z" fill="#5C5C5C"/>
<path d="M10 10.5C10.5523 10.5 11 10.9477 11 11.5C11 12.0523 10.5523 12.5 10 12.5H3C2.44772 12.5 2 12.0523 2 11.5C2 10.9477 2.44772 10.5 3 10.5H10Z" fill="#5C5C5C"/>
<path d="M10 16.5C10.5523 16.5 11 16.9477 11 17.5C11 18.0523 10.5523 18.5 10 18.5H3C2.44772 18.5 2 18.0523 2 17.5C2 16.9477 2.44772 16.5 3 16.5H10Z" fill="#5C5C5C"/>
<path d="M19 14.5C19 13.3954 18.1046 12.5 17 12.5C15.8954 12.5 15 13.3954 15 14.5C15 15.6046 15.8954 16.5 17 16.5C18.1046 16.5 19 15.6046 19 14.5ZM21 14.5C21 16.7091 19.2091 18.5 17 18.5C14.7909 18.5 13 16.7091 13 14.5C13 12.2909 14.7909 10.5 17 10.5C19.2091 10.5 21 12.2909 21 14.5Z" fill="#5C5C5C"/>
<path d="M18.393 15.893C18.7591 15.5269 19.3381 15.5043 19.7309 15.8246L19.807 15.893L21.7074 17.7934L21.7758 17.8686C22.0963 18.2613 22.0736 18.8413 21.7074 19.2074C21.3413 19.5736 20.7613 19.5963 20.3686 19.2758L20.2934 19.2074L18.393 17.307L18.3246 17.2309C18.0043 16.8381 18.0269 16.2591 18.393 15.893Z" fill="#5C5C5C"/>
</svg>
