<svg  viewBox="0 0 24 24" xmlns="http://www.w3.org/2000/svg">
<path fill-rule="evenodd" clip-rule="evenodd" d="M4.60425 5.33288C4.60425 4.93017 4.93071 4.60371 5.33341 4.60371H18.6667C19.0695 4.60371 19.3959 4.93017 19.3959 5.33288V7.83288C19.3959 8.23558 19.0695 8.56204 18.6667 8.56204C18.264 8.56204 17.9376 8.23558 17.9376 7.83288V6.06204H6.06258V7.83288C6.06258 8.23558 5.73612 8.56204 5.33341 8.56204C4.93071 8.56204 4.60425 8.23558 4.60425 7.83288V5.33288Z"/>
<path fill-rule="evenodd" clip-rule="evenodd" d="M5.43758 18.6662C5.43758 18.2635 5.76404 17.937 6.16675 17.937H11.1667C11.5695 17.937 11.8959 18.2635 11.8959 18.6662C11.8959 19.0689 11.5695 19.3954 11.1667 19.3954H6.16675C5.76404 19.3954 5.43758 19.0689 5.43758 18.6662Z"/>
<path fill-rule="evenodd" clip-rule="evenodd" d="M13.0509 4.6369C13.4353 4.75702 13.6495 5.16599 13.5294 5.55037L9.36272 18.8837C9.24261 19.2681 8.83363 19.4823 8.44926 19.3622C8.06488 19.2421 7.85066 18.8331 7.97077 18.4487L12.1374 5.11538C12.2576 4.73101 12.6665 4.51678 13.0509 4.6369Z"/>
<path fill-rule="evenodd" clip-rule="evenodd" d="M13.9845 13.9839C14.2692 13.6992 14.7309 13.6992 15.0157 13.9839L19.1823 18.1506C19.4671 18.4354 19.4671 18.8971 19.1823 19.1818C18.8976 19.4666 18.4359 19.4666 18.1511 19.1818L13.9845 15.0151C13.6997 14.7304 13.6997 14.2687 13.9845 13.9839Z"/>
<path fill-rule="evenodd" clip-rule="evenodd" d="M19.1823 13.9839C19.4671 14.2687 19.4671 14.7304 19.1823 15.0151L15.0157 19.1818C14.7309 19.4666 14.2692 19.4666 13.9845 19.1818C13.6997 18.8971 13.6997 18.4354 13.9845 18.1506L18.1511 13.9839C18.4359 13.6992 18.8976 13.6992 19.1823 13.9839Z"/>
<path fill-rule="evenodd" clip-rule="evenodd" d="M4.60425 5.33288C4.60425 4.93017 4.93071 4.60371 5.33341 4.60371H18.6667C19.0695 4.60371 19.3959 4.93017 19.3959 5.33288V7.83288C19.3959 8.23558 19.0695 8.56204 18.6667 8.56204C18.264 8.56204 17.9376 8.23558 17.9376 7.83288V6.06204H6.06258V7.83288C6.06258 8.23558 5.73612 8.56204 5.33341 8.56204C4.93071 8.56204 4.60425 8.23558 4.60425 7.83288V5.33288Z" stroke="var(--logile-border-bold-subtle)" stroke-width="0.5" stroke-linecap="round" stroke-linejoin="round"/>
<path fill-rule="evenodd" clip-rule="evenodd" d="M5.43758 18.6662C5.43758 18.2635 5.76404 17.937 6.16675 17.937H11.1667C11.5695 17.937 11.8959 18.2635 11.8959 18.6662C11.8959 19.0689 11.5695 19.3954 11.1667 19.3954H6.16675C5.76404 19.3954 5.43758 19.0689 5.43758 18.6662Z" stroke="var(--logile-border-bold-subtle)" stroke-width="0.5" stroke-linecap="round" stroke-linejoin="round"/>
<path fill-rule="evenodd" clip-rule="evenodd" d="M13.0509 4.6369C13.4353 4.75702 13.6495 5.16599 13.5294 5.55037L9.36272 18.8837C9.24261 19.2681 8.83363 19.4823 8.44926 19.3622C8.06488 19.2421 7.85066 18.8331 7.97077 18.4487L12.1374 5.11538C12.2576 4.73101 12.6665 4.51678 13.0509 4.6369Z" stroke="var(--logile-border-bold-subtle)" stroke-width="0.5" stroke-linecap="round" stroke-linejoin="round"/>
<path fill-rule="evenodd" clip-rule="evenodd" d="M13.9845 13.9839C14.2692 13.6992 14.7309 13.6992 15.0157 13.9839L19.1823 18.1506C19.4671 18.4354 19.4671 18.8971 19.1823 19.1818C18.8976 19.4666 18.4359 19.4666 18.1511 19.1818L13.9845 15.0151C13.6997 14.7304 13.6997 14.2687 13.9845 13.9839Z" stroke="var(--logile-border-bold-subtle)" stroke-width="0.5" stroke-linecap="round" stroke-linejoin="round"/>
<path fill-rule="evenodd" clip-rule="evenodd" d="M19.1823 13.9839C19.4671 14.2687 19.4671 14.7304 19.1823 15.0151L15.0157 19.1818C14.7309 19.4666 14.2692 19.4666 13.9845 19.1818C13.6997 18.8971 13.6997 18.4354 13.9845 18.1506L18.1511 13.9839C18.4359 13.6992 18.8976 13.6992 19.1823 13.9839Z" stroke="var(--logile-border-bold-subtle)" stroke-width="0.5" stroke-linecap="round" stroke-linejoin="round"/>
</svg>
