<svg width="24" height="24" viewBox="0 0 24 24" fill="none" xmlns="http://www.w3.org/2000/svg">
<path d="M5.00101 2H17.731C18.4328 2.00023 19.1123 2.24651 19.6513 2.69598C20.1903 3.14544 20.5547 3.76965 20.681 4.46L21.951 11.46C22.0301 11.8924 22.0133 12.337 21.9016 12.7622C21.7899 13.1874 21.5861 13.5828 21.3047 13.9206C21.0232 14.2583 20.671 14.53 20.2729 14.7166C19.8748 14.9031 19.4406 14.9999 19.001 15H14.441L15.001 16.43C15.2339 17.0561 15.3115 17.7294 15.2271 18.3921C15.1426 19.0548 14.8987 19.6871 14.5162 20.2348C14.1337 20.7825 13.624 21.2292 13.0309 21.5367C12.4379 21.8441 11.779 22.0031 11.111 22C10.9186 21.9996 10.7305 21.9437 10.5691 21.8391C10.4077 21.7344 10.2799 21.5854 10.201 21.41L7.35101 15H5.00101C4.20536 15 3.4423 14.6839 2.87969 14.1213C2.31708 13.5587 2.00101 12.7956 2.00101 12V5C2.00101 4.20435 2.31708 3.44129 2.87969 2.87868C3.4423 2.31607 4.20536 2 5.00101 2ZM9.00101 13.79L11.721 19.91C11.9993 19.8258 12.2574 19.6855 12.4795 19.4978C12.7015 19.31 12.8827 19.0788 13.012 18.8183C13.1413 18.5579 13.2159 18.2737 13.2312 17.9834C13.2465 17.693 13.2022 17.4026 13.101 17.13L12.571 15.7C12.4581 15.3977 12.4199 15.0727 12.4599 14.7525C12.4998 14.4323 12.6166 14.1265 12.8003 13.8613C12.9841 13.596 13.2292 13.3791 13.5149 13.2292C13.8006 13.0792 14.1183 13.0006 14.441 13H19.001C19.1479 13.0002 19.2931 12.9681 19.4262 12.9059C19.5592 12.8437 19.677 12.7529 19.771 12.64C19.8673 12.5287 19.9379 12.3975 19.9777 12.2557C20.0174 12.114 20.0254 11.9652 20.001 11.82L18.731 4.82C18.6884 4.58704 18.5645 4.37676 18.3814 4.2266C18.1983 4.07644 17.9678 3.99614 17.731 4H9.00101V13.79ZM4.00101 12C4.00101 12.2652 4.10636 12.5196 4.2939 12.7071C4.48144 12.8946 4.73579 13 5.00101 13H7.00101V4H5.00101C4.73579 4 4.48144 4.10536 4.2939 4.29289C4.10636 4.48043 4.00101 4.73478 4.00101 5V12Z" fill="#5C5C5C"/>
</svg>
