<svg width="24" height="24" viewBox="0 0 24 24" fill="none" xmlns="http://www.w3.org/2000/svg">
<path d="M2.90909 13.8871H5.58636C5.61398 13.8871 5.63636 13.8647 5.63636 13.8371L5.63636 3.05C5.63636 3.02239 5.61398 3 5.58636 3L2.90909 3C2.66798 3 2.43676 3.09559 2.26627 3.26573C2.09578 3.43587 2 3.66664 2 3.90726L2 12.9799C2 13.2205 2.09578 13.4512 2.26627 13.6214C2.43675 13.7915 2.66798 13.8871 2.90909 13.8871ZM7.72091 15.0602L13.5391 20.8667C13.6164 20.9441 13.7191 20.991 13.8284 20.9988C13.9376 21.0067 14.046 20.9749 14.1336 20.9093L14.9091 20.3287C15.1245 20.1673 15.2871 19.9459 15.3766 19.6924C15.4661 19.439 15.4783 19.1647 15.4118 18.9043L14.3795 14.8567C14.3715 14.8251 14.3954 14.7944 14.428 14.7944L20.1818 14.7944C20.664 14.7944 21.1265 14.6032 21.4675 14.2629C21.8084 13.9226 22 13.4611 22 12.9799L22 11.071C22.0002 10.8339 21.9539 10.599 21.8636 10.3797L19.0491 3.5625C18.9807 3.39625 18.8643 3.25403 18.7147 3.15388C18.5652 3.05374 18.3892 3.00018 18.2091 3L8.36364 3C8.12253 3 7.8913 3.09559 7.72081 3.26573C7.55032 3.43587 7.45455 3.66664 7.45455 3.90726L7.45454 14.4188C7.4546 14.6594 7.55041 14.8901 7.72091 15.0602Z" fill="#5C5C5C"/>
</svg>
