<svg width="24" height="24" viewBox="0 0 24 24" fill="none" xmlns="http://www.w3.org/2000/svg">
<path d="M9 12.8501C8.73478 12.8501 8.48043 12.9555 8.29289 13.143C8.10536 13.3306 8 13.5849 8 13.8501V15.8501C8 16.1153 8.10536 16.3697 8.29289 16.5572C8.48043 16.7448 8.73478 16.8501 9 16.8501C9.26522 16.8501 9.51957 16.7448 9.70711 16.5572C9.89464 16.3697 10 16.1153 10 15.8501V13.8501C10 13.5849 9.89464 13.3306 9.70711 13.143C9.51957 12.9555 9.26522 12.8501 9 12.8501ZM21 13.8501C21.2652 13.8501 21.5196 13.7448 21.7071 13.5572C21.8946 13.3697 22 13.1153 22 12.8501V8.85012C22 8.5849 21.8946 8.33055 21.7071 8.14301C21.5196 7.95548 21.2652 7.85012 21 7.85012H3C2.73478 7.85012 2.48043 7.95548 2.29289 8.14301C2.10536 8.33055 2 8.5849 2 8.85012V12.8501C2 13.1153 2.10536 13.3697 2.29289 13.5572C2.48043 13.7448 2.73478 13.8501 3 13.8501C3.26522 13.8501 3.51957 13.9555 3.70711 14.143C3.89464 14.3306 4 14.5849 4 14.8501C4 15.1153 3.89464 15.3697 3.70711 15.5572C3.51957 15.7448 3.26522 15.8501 3 15.8501C2.73478 15.8501 2.48043 15.9555 2.29289 16.143C2.10536 16.3306 2 16.5849 2 16.8501V20.8501C2 21.1153 2.10536 21.3697 2.29289 21.5572C2.48043 21.7448 2.73478 21.8501 3 21.8501H21C21.2652 21.8501 21.5196 21.7448 21.7071 21.5572C21.8946 21.3697 22 21.1153 22 20.8501V16.8501C22 16.5849 21.8946 16.3306 21.7071 16.143C21.5196 15.9555 21.2652 15.8501 21 15.8501C20.7348 15.8501 20.4804 15.7448 20.2929 15.5572C20.1054 15.3697 20 15.1153 20 14.8501C20 14.5849 20.1054 14.3306 20.2929 14.143C20.4804 13.9555 20.7348 13.8501 21 13.8501ZM20 12.0301C19.4208 12.2403 18.9205 12.6237 18.5668 13.1283C18.2132 13.6328 18.0235 14.234 18.0235 14.8501C18.0235 15.4662 18.2132 16.0674 18.5668 16.572C18.9205 17.0765 19.4208 17.4599 20 17.6701V19.8501H10C10 19.5849 9.89464 19.3305 9.70711 19.143C9.51957 18.9555 9.26522 18.8501 9 18.8501C8.73478 18.8501 8.48043 18.9555 8.29289 19.143C8.10536 19.3305 8 19.5849 8 19.8501H4V17.6701C4.57915 17.4599 5.07954 17.0765 5.43316 16.572C5.78678 16.0674 5.97648 15.4662 5.97648 14.8501C5.97648 14.234 5.78678 13.6328 5.43316 13.1283C5.07954 12.6237 4.57915 12.2403 4 12.0301V9.85012H8C8 10.1153 8.10536 10.3697 8.29289 10.5572C8.48043 10.7448 8.73478 10.8501 9 10.8501C9.26522 10.8501 9.51957 10.7448 9.70711 10.5572C9.89464 10.3697 10 10.1153 10 9.85012H20V12.0301Z" fill="#5C5C5C"/>
<path fill-rule="evenodd" clip-rule="evenodd" d="M18.3795 4.15082L20.0513 9.16635L21.9487 8.53389L20.1128 3.02613C19.8439 2.21956 18.9591 1.79745 18.1631 2.09598L2.64888 7.91379L3.35112 9.78645L18.3795 4.15082Z" fill="#5C5C5C"/>
</svg>
