<svg width="25" height="24" viewBox="0 0 25 24" xmlns="http://www.w3.org/2000/svg">
<path d="M13.919 10.8792C13.8696 10.7212 13.7807 10.5928 13.6523 10.4841C13.2177 10.1977 12.7733 9.93102 12.3091 9.6841C12.9708 9.16063 13.4548 8.44951 13.7116 7.63961C13.9881 6.77046 13.9881 5.84205 13.7017 4.9729C13.4153 4.10375 12.8721 3.35311 12.1313 2.81977C11.3905 2.27655 10.5115 2 9.59297 2C8.67443 2 7.79541 2.27655 7.05466 2.81977C6.30403 3.35311 5.77067 4.10375 5.48425 4.9729C5.19782 5.84205 5.18795 6.77046 5.47437 7.63961C5.73117 8.44951 6.21513 9.15075 6.867 9.6841C5.57315 10.2866 4.47683 11.2446 3.70645 12.4496C2.88668 13.7138 2.47185 15.1854 2.50148 16.6867V18.2571C2.49161 18.5337 2.54099 18.8102 2.63976 19.067C2.7484 19.3238 2.89654 19.551 3.09408 19.7485C3.28174 19.946 3.50891 20.1041 3.7657 20.2127C4.0225 20.3213 4.28917 20.3806 4.56572 20.3905H10.63C10.8276 20.3608 10.9955 20.272 11.1239 20.1337C11.2523 19.9855 11.3214 19.7979 11.3214 19.6102C11.3214 19.4226 11.2523 19.2349 11.1239 19.0868C10.9955 18.9485 10.8276 18.8596 10.6202 18.83H4.56572C4.49658 18.83 4.42745 18.8102 4.36818 18.7806C4.29905 18.7509 4.23978 18.7114 4.1904 18.6621C4.14101 18.6028 4.1015 18.5435 4.08175 18.4744C4.05212 18.4053 4.04225 18.3361 4.05212 18.2571V16.6867C4.00274 15.1953 4.51633 13.7533 5.504 12.6372C6.4818 11.5113 7.84479 10.81 9.31642 10.6619C10.551 10.6125 11.7659 10.9878 12.7437 11.7286L12.8622 11.8076C12.9609 11.857 13.0696 11.8866 13.1881 11.8866H13.198C13.356 11.8767 13.5042 11.8273 13.6326 11.7286C13.7609 11.6298 13.8597 11.5014 13.9091 11.3533C13.9585 11.1952 13.9684 11.0372 13.919 10.8792ZM11.993 7.63961C11.7165 8.16308 11.272 8.5779 10.7485 8.8347C10.2053 9.09149 9.61273 9.16063 9.03 9.05199C8.48678 8.94334 8.00282 8.68655 7.60775 8.30135C7.22256 7.90628 6.96577 7.42233 6.85713 6.87911C6.73861 6.30626 6.81761 5.6939 7.0744 5.17043C7.32132 4.62721 7.73615 4.19264 8.25962 3.91609C8.78309 3.63954 9.38556 3.53089 9.96829 3.61978C10.551 3.70867 11.0844 3.97535 11.5091 4.40005C11.9239 4.81487 12.2004 5.34821 12.2794 5.94081C12.3683 6.51366 12.2696 7.12602 11.993 7.63961Z"/>
<path d="M21.021 13.4467C20.0729 12.4986 18.8185 11.9751 17.4753 11.9751C16.4777 11.9751 15.5197 12.2714 14.69 12.8245C13.8703 13.3776 13.2283 14.148 12.853 15.0665C12.4678 15.9851 12.369 16.9925 12.5665 17.9604C12.7542 18.9382 13.2283 19.8271 13.9394 20.5284C14.6406 21.2296 15.5296 21.7037 16.4975 21.9012C16.8234 21.9605 17.1493 22 17.4753 22C18.137 22 18.779 21.8716 19.3913 21.6148C20.3099 21.2296 21.0901 20.5975 21.6432 19.7679C22.1963 18.9481 22.4828 17.9802 22.4828 16.9826C22.4828 15.6493 21.9692 14.3949 21.021 13.4467ZM19.8753 19.4419C19.2333 20.0839 18.3839 20.4395 17.4753 20.4395C16.8037 20.4395 16.1518 20.2419 15.5987 19.8666C15.0357 19.4913 14.6011 18.9678 14.3443 18.3456C14.0875 17.7234 14.0184 17.0518 14.1567 16.39C14.2851 15.7283 14.611 15.1258 15.0851 14.6517C15.5592 14.1776 16.1518 13.8517 16.8135 13.7233C17.0308 13.6838 17.258 13.664 17.4753 13.664C17.9197 13.664 18.3642 13.7431 18.7691 13.9208C19.3914 14.1776 19.9247 14.6122 20.2901 15.1653C20.6655 15.7283 20.863 16.3801 20.863 17.0518C20.863 17.9407 20.4975 18.8098 19.8753 19.4419Z"/>
<path d="M19.3407 18.3259C19.3604 18.5234 19.2913 18.7111 19.1629 18.8691C19.0444 19.0173 18.8666 19.116 18.6691 19.1358H18.5901C18.4123 19.1358 18.2444 19.0666 18.1061 18.958C18.0666 18.9284 18.0271 18.8889 17.9975 18.8494L16.9308 17.7827C16.7826 17.6345 16.7036 17.4469 16.7036 17.2493V15.3728C16.7233 15.1653 16.8024 14.9974 16.9406 14.869C17.2271 14.6024 17.6913 14.6024 17.9678 14.869C18.1061 14.9974 18.195 15.1653 18.2049 15.3629V16.9431L19.1036 17.8321C19.1629 17.8913 19.2222 17.9703 19.2715 18.0493C19.3111 18.1382 19.3308 18.2271 19.3407 18.3259Z"/>
</svg>
