<svg viewBox="0 0 24 24" xmlns="http://www.w3.org/2000/svg">
<path fill-rule="evenodd" clip-rule="evenodd" d="M7.00008 4.60449C7.40279 4.60449 7.72925 4.93095 7.72925 5.33366V10.3337C7.72925 11.4664 8.17921 12.5527 8.98015 13.3536C9.78108 14.1545 10.8674 14.6045 12.0001 14.6045C13.1328 14.6045 14.2191 14.1545 15.02 13.3536C15.821 12.5527 16.2709 11.4664 16.2709 10.3337V5.33366C16.2709 4.93095 16.5974 4.60449 17.0001 4.60449C17.4028 4.60449 17.7292 4.93095 17.7292 5.33366V10.3337C17.7292 11.8531 17.1256 13.3104 16.0512 14.3848C14.9768 15.4592 13.5196 16.0628 12.0001 16.0628C10.4806 16.0628 9.02338 15.4592 7.94895 14.3848C6.87452 13.3104 6.27091 11.8531 6.27091 10.3337V5.33366C6.27091 4.93095 6.59737 4.60449 7.00008 4.60449Z"/>
<path fill-rule="evenodd" clip-rule="evenodd" d="M4.60425 18.667C4.60425 18.2643 4.93071 17.9378 5.33341 17.9378H18.6667C19.0695 17.9378 19.3959 18.2643 19.3959 18.667C19.3959 19.0697 19.0695 19.3962 18.6667 19.3962H5.33341C4.93071 19.3962 4.60425 19.0697 4.60425 18.667Z"/>
<path fill-rule="evenodd" clip-rule="evenodd" d="M7.00008 4.60449C7.40279 4.60449 7.72925 4.93095 7.72925 5.33366V10.3337C7.72925 11.4664 8.17921 12.5527 8.98015 13.3536C9.78108 14.1545 10.8674 14.6045 12.0001 14.6045C13.1328 14.6045 14.2191 14.1545 15.02 13.3536C15.821 12.5527 16.2709 11.4664 16.2709 10.3337V5.33366C16.2709 4.93095 16.5974 4.60449 17.0001 4.60449C17.4028 4.60449 17.7292 4.93095 17.7292 5.33366V10.3337C17.7292 11.8531 17.1256 13.3104 16.0512 14.3848C14.9768 15.4592 13.5196 16.0628 12.0001 16.0628C10.4806 16.0628 9.02338 15.4592 7.94895 14.3848C6.87452 13.3104 6.27091 11.8531 6.27091 10.3337V5.33366C6.27091 4.93095 6.59737 4.60449 7.00008 4.60449Z" stroke="var(--logile-border-bold-subtle)" stroke-width="0.5" stroke-linecap="round" stroke-linejoin="round"/>
<path fill-rule="evenodd" clip-rule="evenodd" d="M4.60425 18.667C4.60425 18.2643 4.93071 17.9378 5.33341 17.9378H18.6667C19.0695 17.9378 19.3959 18.2643 19.3959 18.667C19.3959 19.0697 19.0695 19.3962 18.6667 19.3962H5.33341C4.93071 19.3962 4.60425 19.0697 4.60425 18.667Z" stroke="#4F4F4F" stroke-width="0.5" stroke-linecap="round" stroke-linejoin="round"/>
</svg>
