<svg viewBox="0 0 24 24" xmlns="http://www.w3.org/2000/svg">
<path fill-rule="evenodd" clip-rule="evenodd" d="M7.00008 4.60449C7.40279 4.60449 7.72925 4.93095 7.72925 5.33366V10.3337C7.72925 11.4664 8.17921 12.5527 8.98015 13.3536C9.78108 14.1545 10.8674 14.6045 12.0001 14.6045C13.1328 14.6045 14.2191 14.1545 15.02 13.3536C15.821 12.5527 16.2709 11.4664 16.2709 10.3337V5.33366C16.2709 4.93095 16.5974 4.60449 17.0001 4.60449C17.4028 4.60449 17.7292 4.93095 17.7292 5.33366V10.3337C17.7292 11.8531 17.1256 13.3104 16.0512 14.3848C14.9768 15.4592 13.5196 16.0628 12.0001 16.0628C10.4806 16.0628 9.02338 15.4592 7.94895 14.3848C6.87452 13.3104 6.27091 11.8531 6.27091 10.3337V5.33366C6.27091 4.93095 6.59737 4.60449 7.00008 4.60449Z" />
<path fill-rule="evenodd" clip-rule="evenodd" d="M4.60425 18.667C4.60425 18.2643 4.93071 17.9378 5.33341 17.9378H18.6667C19.0695 17.9378 19.3959 18.2643 19.3959 18.667C19.3959 19.0697 19.0695 19.3962 18.6667 19.3962H5.33341C4.93071 19.3962 4.60425 19.0697 4.60425 18.667Z" />
<path d="M19.1462 18.667C19.1462 18.4024 18.9314 18.1875 18.6667 18.1875H5.33374C5.0691 18.1875 4.85425 18.4024 4.85425 18.667C4.85425 18.9316 5.0691 19.1465 5.33374 19.1465H18.6667C18.9314 19.1465 19.1462 18.9316 19.1462 18.667ZM7.47925 10.334V5.33398C7.47925 5.06935 7.26439 4.85449 6.99976 4.85449C6.73527 4.85467 6.52124 5.06946 6.52124 5.33398V10.334C6.52133 11.787 7.09827 13.1805 8.12573 14.208C9.1532 15.2355 10.5467 15.8124 11.9998 15.8125C13.4529 15.8125 14.8472 15.2356 15.8748 14.208C16.9021 13.1806 17.4792 11.787 17.4792 10.334V5.33398C17.4792 5.06935 17.2644 4.85449 16.9998 4.85449C16.7353 4.85467 16.5212 5.06946 16.5212 5.33398V10.334C16.5212 11.5328 16.0447 12.6825 15.197 13.5303C14.3492 14.3781 13.1988 14.8545 11.9998 14.8545C10.8009 14.8544 9.65121 14.378 8.80347 13.5303C7.95572 12.6825 7.47933 11.5329 7.47925 10.334ZM19.6462 18.667C19.6462 19.2078 19.2075 19.6465 18.6667 19.6465H5.33374C4.79296 19.6465 4.35425 19.2078 4.35425 18.667C4.35425 18.1262 4.79296 17.6875 5.33374 17.6875H18.6667C19.2075 17.6875 19.6462 18.1262 19.6462 18.667ZM17.9792 10.334C17.9792 11.9196 17.3494 13.4403 16.2283 14.5615C15.107 15.6828 13.5855 16.3125 11.9998 16.3125C10.4141 16.3124 8.89345 15.6828 7.77222 14.5615C6.65098 13.4403 6.02133 11.9196 6.02124 10.334V5.33398C6.02124 4.79331 6.45913 4.35467 6.99976 4.35449C7.54053 4.35449 7.97925 4.79321 7.97925 5.33398V10.334C7.97933 11.4003 8.40301 12.4228 9.15698 13.1768C9.91096 13.9307 10.9335 14.3544 11.9998 14.3545C13.0661 14.3545 14.0895 13.9308 14.8435 13.1768C15.5974 12.4228 16.0212 11.4002 16.0212 10.334V5.33398C16.0212 4.79331 16.4591 4.35467 16.9998 4.35449C17.5405 4.35449 17.9792 4.79321 17.9792 5.33398V10.334Z" />
</svg>
