<svg width="24" height="24" viewBox="0 0 24 24" fill="none" xmlns="http://www.w3.org/2000/svg">
<path fill-rule="evenodd" clip-rule="evenodd" d="M17 9C17.7956 9 18.5587 9.31607 19.1213 9.87868C19.6839 10.4413 20 11.2044 20 12V19C20 19.7957 19.6839 20.5587 19.1213 21.1213C18.5587 21.6839 17.7956 22 17 22H7C6.20435 22 5.44129 21.6839 4.87868 21.1213C4.31607 20.5587 4 19.7957 4 19V12C4 11.2044 4.31607 10.4413 4.87868 9.87868C5.44129 9.31607 6.20435 9 7 9H17ZM18 19C18 19.2652 17.8946 19.5196 17.7071 19.7071C17.5196 19.8946 17.2652 20 17 20H7C6.73478 20 6.48043 19.8946 6.29289 19.7071C6.10536 19.5196 6 19.2652 6 19V12C6 11.7348 6.10536 11.4804 6.29289 11.2929C6.48043 11.1054 6.73478 11 7 11H17C17.2652 11 17.5196 11.1054 17.7071 11.2929C17.8946 11.4804 18 11.7348 18 12V19Z" fill="#5C5C5C"/>
<path fill-rule="evenodd" clip-rule="evenodd" d="M11.1454 13.2573C11.3973 13.0862 11.6955 12.9964 12 13C12.3045 12.9964 12.6027 13.0862 12.8546 13.2573C13.1064 13.4284 13.2999 13.6725 13.4088 13.9568C13.5177 14.2411 13.5369 14.552 13.4639 14.8476C13.3908 15.1431 13.2289 15.4092 13 15.61V17C13 17.2652 12.8946 17.5196 12.7071 17.7071C12.5196 17.8946 12.2652 18 12 18C11.7348 18 11.4804 17.8946 11.2929 17.7071C11.1054 17.5196 11 17.2652 11 17V15.61C10.7711 15.4092 10.6092 15.1431 10.5361 14.8476C10.4631 14.552 10.4823 14.2411 10.5912 13.9568C10.7001 13.6725 10.8936 13.4284 11.1454 13.2573Z" fill="#5C5C5C"/>
<path d="M14 7V9H16V7C16 6.20435 16.3161 5.44129 16.8787 4.87868C17.4413 4.31607 18.2044 4 19 4C19.7956 4 20.5587 4.31607 21.1213 4.87868C21.6839 5.44129 22 6.20435 22 7V8C22 8.55228 22.4477 9 23 9C23.5523 9 24 8.55228 24 8V7C24 5.67392 23.4732 4.40215 22.5355 3.46447C21.5979 2.52678 20.3261 2 19 2C17.6739 2 16.4021 2.52678 15.4645 3.46447C14.5268 4.40215 14 5.67392 14 7Z" fill="#5C5C5C"/>
</svg>
