<svg width="24" height="24" viewBox="0 0 24 24" fill="none" xmlns="http://www.w3.org/2000/svg">
<path d="M16.9498 16.9497C16.5592 17.3403 15.9261 17.3403 15.5355 16.9497L7.05026 8.46447C6.65974 8.07394 6.65974 7.44078 7.05026 7.05025C7.44079 6.65973 8.07395 6.65973 8.46448 7.05025L16.9498 15.5355C17.3403 15.9261 17.3403 16.5592 16.9498 16.9497Z" fill="#5C5C5C"/>
<path fill-rule="evenodd" clip-rule="evenodd" d="M3.51473 20.4853C1.56211 18.5327 1.56211 15.3668 3.51473 13.4142L6.34316 10.5858C6.73368 10.1953 7.36684 10.1953 7.75737 10.5858C8.14789 10.9763 8.14789 11.6095 7.75737 12L4.92894 14.8284C3.75737 16 3.75737 17.8995 4.92894 19.0711C6.10051 20.2426 8.00001 20.2426 9.17158 19.0711L12 16.2426C12.3905 15.8521 13.0237 15.8521 13.4142 16.2426C13.8047 16.6332 13.8047 17.2663 13.4142 17.6569L10.5858 20.4853C8.63317 22.4379 5.46735 22.4379 3.51473 20.4853Z" fill="#5C5C5C"/>
<path fill-rule="evenodd" clip-rule="evenodd" d="M20.4853 3.51472C18.5327 1.5621 15.3668 1.5621 13.4142 3.51472L10.5858 6.34315C10.1953 6.73367 10.1953 7.36683 10.5858 7.75736C10.9763 8.14788 11.6095 8.14788 12 7.75736L14.8284 4.92893C16 3.75736 17.8995 3.75736 19.0711 4.92893C20.2427 6.1005 20.2427 8 19.0711 9.17157L16.2427 12C15.8521 12.3905 15.8521 13.0237 16.2427 13.4142C16.6332 13.8047 17.2663 13.8047 17.6569 13.4142L20.4853 10.5858C22.4379 8.63316 22.4379 5.46734 20.4853 3.51472Z" fill="#5C5C5C"/>
</svg>
