<svg width="24" height="24" viewBox="0 0 24 24" fill="none" xmlns="http://www.w3.org/2000/svg">
<path d="M19 20C19.5523 20 20 20.4477 20 21C20 21.5523 19.5523 22 19 22H5C4.44772 22 4 21.5523 4 21C4 20.4477 4.44772 20 5 20H19Z" fill="#5C5C5C"/>
<path fill-rule="evenodd" clip-rule="evenodd" d="M12.4247 2.0944C12.2959 2.03385 12.152 2 12.0002 2C11.8484 2 11.7045 2.03385 11.5756 2.0944C11.8439 1.96864 12.1565 1.96864 12.4247 2.0944Z" fill="#5C5C5C"/>
<path d="M13.0002 17L13.0002 5.41406L17.2931 9.70703L17.3693 9.77539C17.7621 10.0957 18.3411 10.0731 18.7072 9.70703C19.0733 9.34092 19.0959 8.76192 18.7756 8.36914L18.7072 8.29297L12.7072 2.29297C12.3167 1.90244 11.6837 1.90244 11.2931 2.29297L5.29314 8.29297C4.90262 8.68349 4.90262 9.31651 5.29314 9.70703C5.68366 10.0976 6.31668 10.0976 6.7072 9.70703L11.0002 5.41406L11.0002 17C11.0002 17.5523 11.4479 18 12.0002 18C12.5525 18 13.0002 17.5523 13.0002 17Z" fill="#5C5C5C"/>
</svg>
