<svg width="24" height="24" viewBox="0 0 24 24" xmlns="http://www.w3.org/2000/svg">
<path d="M2 19V15C2 14.4477 2.44772 14 3 14C3.55228 14 4 14.4477 4 15V19L4.00488 19.0986C4.02757 19.3276 4.12883 19.5429 4.29297 19.707C4.48051 19.8946 4.73478 20 5 20H19C19.2652 20 19.5195 19.8946 19.707 19.707C19.8946 19.5195 20 19.2652 20 19V15C20 14.4477 20.4477 14 21 14C21.5523 14 22 14.4477 22 15V19C22 19.7957 21.6837 20.5585 21.1211 21.1211C20.5585 21.6837 19.7957 22 19 22H5C4.20435 22 3.44151 21.6837 2.87891 21.1211C2.38671 20.6289 2.08291 19.9835 2.01465 19.2969L2 19Z" />
<path clip-rule="evenodd" d="M12.4246 2.0944C12.2957 2.03385 12.1518 2 12 2C11.8482 2 11.7043 2.03385 11.5755 2.0944C11.8437 1.96864 12.1563 1.96864 12.4246 2.0944Z" />
<path d="M13 15V5.41406L16.293 8.70703L16.3692 8.77539C16.7619 9.09574 17.3409 9.07315 17.707 8.70703C18.0732 8.34092 18.0958 7.76191 17.7754 7.36914L17.707 7.29297L12.707 2.29297C12.3165 1.90244 11.6835 1.90244 11.293 2.29297L6.29298 7.29297L6.22462 7.36914C5.90427 7.76191 5.92686 8.34091 6.29298 8.70703C6.65909 9.07315 7.2381 9.09574 7.63087 8.77539L7.70704 8.70703L11 5.41406V15C11 15.5523 11.4477 16 12 16C12.5523 16 13 15.5523 13 15Z" />
</svg>
