<svg width="24" height="24" viewBox="0 0 24 24" xmlns="http://www.w3.org/2000/svg">
<path d="M14.9417 18.19C15.4272 18.0443 15.9535 18.287 16.1517 18.7652C16.3628 19.2754 16.1208 19.8605 15.6107 20.0718L14.6878 20.4537C14.1776 20.6648 13.5925 20.4228 13.3812 19.9126C13.17 19.4025 13.4121 18.8173 13.9222 18.606L14.846 18.2242L14.9417 18.19Z" />
<path d="M13.3812 16.0862C13.5796 15.6079 14.1067 15.3649 14.5921 15.511L14.6878 15.5452L15.6116 15.928C16.1216 16.1397 16.3633 16.7256 16.1517 17.2356C15.9399 17.7454 15.355 17.9871 14.845 17.7756L13.9222 17.3928L13.8294 17.3489C13.3833 17.1084 13.183 16.5644 13.3812 16.0862Z" />
<path d="M16.0862 13.3812C16.5644 13.183 17.1084 13.3833 17.3489 13.8294L17.3928 13.9222L17.7756 14.845L17.8098 14.9407C17.956 15.4261 17.7138 15.9531 17.2356 16.1517C16.7256 16.3633 16.1397 16.1216 15.928 15.6116L15.5452 14.6878L15.511 14.5921C15.3649 14.1067 15.6079 13.5796 16.0862 13.3812Z" />
<path d="M15.928 20.3892C16.1394 19.8791 16.7245 19.6369 17.2346 19.8482C17.7448 20.0596 17.9871 20.6446 17.7756 21.1548L17.3928 22.0786C17.1814 22.5888 16.5964 22.8311 16.0862 22.6197C15.576 22.4082 15.3337 21.8232 15.5452 21.313L15.928 20.3892Z" />
<path d="M20.0718 15.6116C19.8601 16.1214 19.2751 16.363 18.7652 16.1517C18.2552 15.9401 18.0127 15.3551 18.2242 14.845L20.0718 15.6116ZM18.6509 13.8294C18.8914 13.3831 19.4363 13.1827 19.9146 13.3812C20.3928 13.5797 20.635 14.1067 20.4888 14.5921L20.4546 14.6878L20.0718 15.6116L18.2242 14.845L18.607 13.9222L18.6509 13.8294Z" />
<path d="M18.7662 19.8482C19.2446 19.6504 19.7879 19.8511 20.0279 20.2974L20.0718 20.3902L20.4537 21.314L20.4888 21.4107C20.6339 21.8961 20.39 22.4219 19.9117 22.6197C19.4332 22.8174 18.8899 22.6168 18.65 22.1704L18.606 22.0777L18.2242 21.1538L18.19 21.0572C18.0448 20.5717 18.2878 20.0459 18.7662 19.8482Z" />
<path d="M1 20.9998C1.00015 19.5834 1.33505 18.1873 1.97656 16.9246C2.61811 15.6618 3.54853 14.5675 4.69238 13.7322C5.83605 12.8971 7.16075 12.3438 8.55859 12.1169C9.95673 11.8902 11.389 11.9966 12.7383 12.4275L12.4336 13.3796L12.1299 14.3328C11.0805 13.9976 9.96635 13.9142 8.87891 14.0906C7.79172 14.267 6.76158 14.6979 5.87207 15.3474C4.98244 15.9971 4.25777 16.8477 3.75879 17.8298C3.25986 18.8119 3.00015 19.8982 3 20.9998L2.99512 21.1023C2.94389 21.6066 2.51775 21.9998 2 21.9998C1.48227 21.9997 1.0561 21.6065 1.00488 21.1023L1 20.9998ZM12.7383 12.4275C13.2643 12.5955 13.5547 13.1582 13.3867 13.6843C13.2187 14.2104 12.6559 14.5007 12.1299 14.3328L12.7383 12.4275Z" />
<path d="M21.313 15.5452C21.8232 15.3337 22.4082 15.576 22.6197 16.0862C22.8311 16.5964 22.5888 17.1814 22.0786 17.3928L21.1548 17.7756C20.6446 17.9871 20.0596 17.7448 19.8482 17.2346C19.6369 16.7245 19.8791 16.1394 20.3892 15.928L21.313 15.5452Z" />
<path d="M19.8482 18.7652C20.0464 18.287 20.5728 18.0444 21.0581 18.19L21.1548 18.2242L22.0786 18.607L22.1714 18.6509C22.6176 18.8913 22.8178 19.4353 22.6197 19.9136C22.4214 20.3919 21.8951 20.6346 21.4097 20.4888L21.313 20.4546L20.3892 20.0718L20.2964 20.0279C19.8503 19.7875 19.65 19.2434 19.8482 18.7652Z" />
<path d="M14 8C14 5.79086 12.2091 4 10 4C7.79086 4 6 5.79086 6 8C6 10.2091 7.79086 12 10 12C12.2091 12 14 10.2091 14 8ZM16 8C16 11.3137 13.3137 14 10 14C6.68629 14 4 11.3137 4 8C4 4.68629 6.68629 2 10 2C13.3137 2 16 4.68629 16 8Z" />
<path d="M20 18C20 16.8954 19.1046 16 18 16C16.8954 16 16 16.8954 16 18C16 19.1046 16.8954 20 18 20C19.1046 20 20 19.1046 20 18ZM22 18C22 20.2091 20.2091 22 18 22C15.7909 22 14 20.2091 14 18C14 15.7909 15.7909 14 18 14C20.2091 14 22 15.7909 22 18Z" />
</svg>
