<svg width="24" height="24" viewBox="0 0 24 24" xmlns="http://www.w3.org/2000/svg">
<path d="M9.95685 13.9998C8.60403 13.9903 7.35763 13.5331 6.35842 12.7689L6.29688 12.7964C4.71822 13.5091 3.37903 14.6626 2.43945 16.1177C1.49989 17.5728 0.999905 19.2684 1 21.0005C1.00029 21.5526 1.4479 21.9996 2 21.9996C2.55228 21.9995 3.00003 21.5518 3 20.9996C3 19.6526 3.38856 18.3343 4.11914 17.2027C4.84995 16.0709 5.89221 15.174 7.12012 14.6197C8.01563 14.2154 8.98234 14.0059 9.95685 13.9998ZM10.0434 13.9998C11.3958 13.9903 12.6419 13.5332 13.641 12.7694C14.4786 13.1401 15.2591 13.6383 15.9531 14.2505C16.3673 14.6159 16.4073 15.2475 16.042 15.6617C15.6766 16.0758 15.045 16.1149 14.6309 15.7496C13.6205 14.8584 12.3742 14.2782 11.042 14.0777C10.7101 14.0277 10.3764 14.0019 10.0434 13.9998Z" />
<path d="M10 14L10.0434 13.9998C10.0145 13.9997 9.98569 13.9997 9.95685 13.9998L10 14Z"/>
<path d="M17.163 20.5213L16.9601 21.7326C16.9265 21.936 16.9513 22.1447 17.0319 22.3345C17.1124 22.5242 17.2453 22.687 17.4149 22.8039C17.5737 22.9197 17.7623 22.9872 17.9584 22.9983C18.1545 23.0095 18.3496 22.9639 18.5204 22.867L19.514 22.2998L20.5215 22.853C20.6895 22.949 20.8812 22.9954 21.0744 22.9868C21.2676 22.9781 21.4544 22.9147 21.6131 22.8039C21.7778 22.6864 21.9063 22.5251 21.9842 22.3382C22.0621 22.1514 22.0862 21.9465 22.0539 21.7466L21.8509 20.5353L22.6906 19.6811C22.8291 19.5401 22.9263 19.3638 22.9715 19.1713C23.0166 18.9789 23.008 18.7777 22.9467 18.5898C22.8853 18.4018 22.7734 18.2344 22.6234 18.1058C22.4733 17.9772 22.2908 17.8924 22.0958 17.8606L20.9623 17.6925L20.4516 16.6072C20.3672 16.4258 20.2329 16.2723 20.0643 16.1647C19.8957 16.0571 19.6999 16 19.5 16C19.3001 16 19.1043 16.0571 18.9357 16.1647C18.7671 16.2723 18.6328 16.4258 18.5484 16.6072L18.0377 17.6925L16.9042 17.8606C16.7092 17.8924 16.5267 17.9772 16.3766 18.1058C16.2266 18.2344 16.1147 18.4018 16.0533 18.5898C15.992 18.7777 15.9834 18.9789 16.0285 19.1713C16.0737 19.3638 16.1709 19.5401 16.3094 19.6811L17.163 20.5213Z" />
<path d="M4 8C4 9.94425 4.92476 11.6725 6.35842 12.7689C7.35763 13.5331 8.60403 13.9903 9.95685 13.9998C9.98569 13.9997 10.0145 13.9997 10.0434 13.9998C11.3958 13.9903 12.6419 13.5332 13.641 12.7694C15.075 11.673 16 9.94452 16 8C16 4.68629 13.3137 2 10 2C6.68629 2 4 4.68629 4 8ZM9.96661 11.9999C7.77285 11.9819 6 10.198 6 8C6 5.79086 7.79086 4 10 4C12.2091 4 14 5.79086 14 8C14 10.1982 12.2269 11.9822 10.0329 11.9999L10 12L9.96661 11.9999Z" />
</svg>
