<svg width="24" height="24" viewBox="0 0 24 24" fill="none" xmlns="http://www.w3.org/2000/svg">
<path d="M2 19V17C2 16.4477 2.44772 16 3 16C3.55228 16 4 16.4477 4 17V19L4.00488 19.0986C4.02757 19.3276 4.12883 19.5429 4.29297 19.707C4.48051 19.8946 4.73478 20 5 20H19C19.2652 20 19.5195 19.8946 19.707 19.707C19.8946 19.5195 20 19.2652 20 19V17C20 16.4477 20.4477 16 21 16C21.5523 16 22 16.4477 22 17V19C22 19.7957 21.6837 20.5585 21.1211 21.1211C20.5585 21.6837 19.7957 22 19 22H5C4.20435 22 3.44151 21.6837 2.87891 21.1211C2.38671 20.6289 2.08291 19.9835 2.01465 19.2969L2 19Z" fill="#5C5C5C"/>
<path d="M20 7V5C20 4.73478 19.8946 4.48051 19.707 4.29297C19.5195 4.10543 19.2652 4 19 4H5C4.73478 4 4.4805 4.10543 4.29297 4.29297C4.10543 4.4805 4 4.73478 4 5V7C4 7.55228 3.55228 8 3 8C2.44772 8 2 7.55228 2 7V5C2 4.20435 2.3163 3.44152 2.87891 2.87891C3.44152 2.3163 4.20435 2 5 2H19C19.7957 2 20.5585 2.3163 21.1211 2.87891C21.6837 3.44151 22 4.20435 22 5V7C22 7.55228 21.5523 8 21 8C20.4477 8 20 7.55228 20 7Z" fill="#5C5C5C"/>
<path d="M10 12C10 10.8954 10.8954 10 12 10C13.1046 10 14 10.8954 14 12C14 13.1046 13.1046 14 12 14C10.8954 14 10 13.1046 10 12Z" fill="#5C5C5C"/>
<path d="M12.3164 6.00974C13.8942 6.06849 15.4272 6.56624 16.7412 7.44919C18.0551 8.33222 19.0946 9.56324 19.7451 11.0019L19.8701 11.292L19.8877 11.3398L19.9375 11.5019C20.0215 11.8285 20.0214 12.1714 19.9375 12.498L19.8877 12.6601L19.8701 12.708C19.232 14.2715 18.1428 15.6099 16.7412 16.5517C15.4272 17.4347 13.8942 17.9314 12.3164 17.9902L12 17.9961C10.3113 17.9961 8.66042 17.4936 7.25877 16.5517C5.94466 15.6687 4.90541 14.4369 4.25486 12.998L4.12986 12.708L4.11229 12.6601C3.9629 12.2328 3.9629 11.7671 4.11229 11.3398L4.12986 11.292C4.76787 9.72866 5.85738 8.39102 7.25877 7.44919C8.66042 6.50733 10.3113 6.00388 12 6.00388L12.3164 6.00974ZM11.7578 8.00876C10.5515 8.05373 9.37962 8.43339 8.37498 9.10837C7.3175 9.81896 6.49244 10.825 6.00193 12C6.49244 13.175 7.31748 14.181 8.37498 14.8916C9.44675 15.6117 10.7088 15.9961 12 15.9961L12.2422 15.9912C13.4485 15.9462 14.6203 15.5666 15.625 14.8916C16.6824 14.181 17.5065 13.1749 17.9971 12C17.5065 10.8251 16.6824 9.81889 15.625 9.10837C14.5532 8.38831 13.2912 8.00388 12 8.00388L11.7578 8.00876Z" fill="#5C5C5C"/>
</svg>
