<svg width="24" height="24" viewBox="0 0 24 24" fill="none" xmlns="http://www.w3.org/2000/svg">
<path fill-rule="evenodd" clip-rule="evenodd" d="M17.4725 21.4998L17.429 21.4997C17.4375 21.4999 17.446 21.5 17.4545 21.5L17.4725 21.4998ZM6.51996 21.4997C6.52843 21.4999 6.53693 21.5 6.54545 21.5C6.55398 21.5 6.56248 21.4999 6.57095 21.4997H6.51996Z" fill="#5C5C5C"/>
<path fill-rule="evenodd" clip-rule="evenodd" d="M17.429 21.4997L17.4725 21.4998L19.2727 21.4997C19.9959 21.4997 20.6896 21.2142 21.201 20.7053C21.7125 20.1963 22 19.5053 22 18.7854V8.83322C22.0001 8.32218 21.8551 7.82134 21.5819 7.38863C21.3109 6.95951 20.9254 6.61472 20.4677 6.39288L13.2411 2.79864C12.857 2.60324 12.4324 2.50007 12.0009 2.5C11.569 2.5 11.1433 2.60205 10.7589 2.79775L3.53143 6.39376C3.07419 6.61583 2.68789 6.96053 2.41726 7.38951C2.14445 7.82208 1.99987 8.32251 2 8.83322V18.7854C2 19.5053 2.28754 20.1963 2.79901 20.7053C3.31044 21.2142 4.00408 21.4997 4.72727 21.4997H6.51996H6.57095H17.429ZM16.5455 17.881V19.6902H7.45455V17.881H16.5455ZM5.63636 19.6902H4.72727C4.48617 19.6902 4.255 19.5948 4.08452 19.4251C3.91414 19.2554 3.81818 19.0253 3.81818 18.7854V8.83322C3.81808 8.66288 3.86657 8.49596 3.95756 8.35169C4.04859 8.20739 4.18501 8.08838 4.33924 8.01443L11.5721 4.4164L11.5827 4.41021C11.7118 4.34381 11.8556 4.30949 12.0009 4.30949C12.146 4.30956 12.2892 4.34388 12.4181 4.41021L12.4288 4.4164L19.6545 8.01152L19.6669 8.01771C19.8212 8.09159 19.9513 8.20742 20.0424 8.35169C20.1335 8.49596 20.1819 8.66284 20.1818 8.83322V18.7854C20.1818 19.0253 20.0859 19.2554 19.9155 19.4251C19.745 19.5948 19.5138 19.6902 19.2727 19.6902H18.3636V16.9763V13.3573V10.6431C18.3636 10.1632 18.1719 9.70304 17.831 9.36369C17.49 9.02434 17.0277 8.83357 16.5455 8.83357H7.45455C6.97233 8.83357 6.51001 9.02435 6.16903 9.36369C5.82806 9.70304 5.63636 10.1631 5.63636 10.6431V13.3573V16.9763V19.6902ZM16.5455 16.0715V14.262H7.45455V16.0715H16.5455ZM16.5455 12.4525V10.6431H7.45455V12.4525H16.5455Z" fill="#5C5C5C"/>
</svg>
