<svg width="24" height="24" viewBox="0 0 24 24" fill="none" xmlns="http://www.w3.org/2000/svg">
<path d="M18.75 1.875H6.75C6.25272 1.875 5.77581 2.07254 5.42417 2.42417C5.07254 2.77581 4.875 3.25272 4.875 3.75V5.25H3.375C2.87772 5.25 2.40081 5.44754 2.04917 5.79917C1.69754 6.15081 1.5 6.62772 1.5 7.125V16.875C1.5 17.3723 1.69754 17.8492 2.04917 18.2008C2.40081 18.5525 2.87772 18.75 3.375 18.75H4.875V20.25C4.875 20.7473 5.07254 21.2242 5.42417 21.5758C5.77581 21.9275 6.25272 22.125 6.75 22.125H18.75C19.2473 22.125 19.7242 21.9275 20.0758 21.5758C20.4275 21.2242 20.625 20.7473 20.625 20.25V3.75C20.625 3.25272 20.4275 2.77581 20.0758 2.42417C19.7242 2.07254 19.2473 1.875 18.75 1.875ZM15.75 10.125H18.375V13.875H15.75V10.125ZM7.125 4.125H18.375V7.875H15.75V7.125C15.75 6.62772 15.5525 6.15081 15.2008 5.79917C14.8492 5.44754 14.3723 5.25 13.875 5.25H7.125V4.125ZM3.75 7.5H13.5V16.5H3.75V7.5ZM7.125 19.875V18.75H13.875C14.3723 18.75 14.8492 18.5525 15.2008 18.2008C15.5525 17.8492 15.75 17.3723 15.75 16.875V16.125H18.375V19.875H7.125ZM6.03375 14.5228L4.90875 10.0228C4.87005 9.87855 4.86046 9.72803 4.88054 9.58003C4.90062 9.43203 4.94997 9.2895 5.02572 9.16078C5.10146 9.03205 5.20208 8.91969 5.32171 8.83026C5.44133 8.74083 5.57757 8.67611 5.72247 8.63988C5.86737 8.60366 6.01803 8.59665 6.16567 8.61927C6.31331 8.64188 6.45497 8.69367 6.58238 8.77161C6.70979 8.84955 6.82041 8.95208 6.90777 9.07322C6.99514 9.19436 7.05751 9.33169 7.09125 9.47719L7.47844 11.0269L7.61906 10.7456C7.71256 10.5589 7.85617 10.4019 8.03383 10.2922C8.21149 10.1824 8.41619 10.1243 8.625 10.1243C8.83381 10.1243 9.03851 10.1824 9.21617 10.2922C9.39383 10.4019 9.53744 10.5589 9.63094 10.7456L9.77156 11.0269L10.1588 9.47719C10.2352 9.19224 10.4205 8.94872 10.6748 8.7991C10.9291 8.64948 11.232 8.60574 11.5182 8.6773C11.8044 8.74885 12.0511 8.92998 12.205 9.18165C12.359 9.43333 12.4079 9.73541 12.3412 10.0228L11.2162 14.5228C11.1602 14.7455 11.0374 14.9457 10.8643 15.0965C10.6912 15.2473 10.476 15.3416 10.2478 15.3666C10.2071 15.3717 10.1661 15.3745 10.125 15.375C9.91616 15.375 9.71144 15.3168 9.53378 15.207C9.35612 15.0973 9.21252 14.9402 9.11906 14.7534L8.625 13.7653L8.13094 14.7534C8.02804 14.9589 7.8647 15.1279 7.66289 15.2377C7.46108 15.3476 7.23048 15.393 7.0021 15.3679C6.77371 15.3427 6.55849 15.2483 6.38537 15.0972C6.21226 14.9462 6.08955 14.7457 6.03375 14.5228Z" fill="#5C5C5C"/>
</svg>
