<svg width="24" height="24" viewBox="0 0 24 24" fill="none" xmlns="http://www.w3.org/2000/svg">
<path d="M15 19.5C15 19.7984 14.8815 20.0845 14.6705 20.2955C14.4595 20.5065 14.1734 20.625 13.875 20.625H11.25C10.9516 20.625 10.6655 20.5065 10.4545 20.2955C10.2435 20.0845 10.125 19.7984 10.125 19.5V14.25C10.125 13.9516 10.2435 13.6655 10.4545 13.4545C10.6655 13.2435 10.9516 13.125 11.25 13.125C11.5484 13.125 11.8345 13.2435 12.0455 13.4545C12.2565 13.6655 12.375 13.9516 12.375 14.25V18.375H13.875C14.1734 18.375 14.4595 18.4935 14.6705 18.7045C14.8815 18.9155 15 19.2016 15 19.5ZM8.53126 13.3331C8.41103 13.2469 8.27498 13.1853 8.1309 13.1517C7.98681 13.1181 7.83752 13.1133 7.69157 13.1375C7.54562 13.1617 7.40588 13.2145 7.28035 13.2928C7.15482 13.3711 7.04596 13.4733 6.96001 13.5938L6.00001 14.9381L5.04094 13.5938C4.8669 13.351 4.60353 13.1872 4.30877 13.1386C4.01402 13.09 3.71202 13.1605 3.46923 13.3345C3.22643 13.5086 3.06272 13.7719 3.0141 14.0667C2.96549 14.3615 3.03596 14.6635 3.21001 14.9062L4.61626 16.875L3.21001 18.8438C3.12383 18.964 3.06217 19.1 3.02856 19.244C2.99494 19.3881 2.99003 19.5373 3.0141 19.6833C3.03817 19.8292 3.09075 19.969 3.16885 20.0946C3.24694 20.2203 3.349 20.3293 3.46923 20.4155C3.58945 20.5016 3.72547 20.5633 3.86951 20.5969C4.01356 20.6305 4.16282 20.6354 4.30877 20.6114C4.45472 20.5873 4.5945 20.5347 4.72012 20.4566C4.84575 20.3785 4.95476 20.2765 5.04094 20.1562L6.00001 18.8081L6.96001 20.1562C7.13406 20.399 7.39743 20.5628 7.69218 20.6114C7.98694 20.66 8.28893 20.5895 8.53173 20.4155C8.77452 20.2414 8.93824 19.9781 8.98685 19.6833C9.03546 19.3885 8.96499 19.0865 8.79094 18.8438L7.38469 16.875L8.79094 14.9062C8.8775 14.786 8.93945 14.6499 8.97325 14.5056C9.00705 14.3614 9.01203 14.2119 8.9879 14.0657C8.96377 13.9196 8.91101 13.7796 8.83265 13.6539C8.75428 13.5282 8.65186 13.4192 8.53126 13.3331ZM20.0184 16.3378C19.5384 16.0144 18.9572 15.8466 18.4444 15.6984C18.1928 15.6305 17.945 15.5495 17.7019 15.4556C17.9316 15.345 18.6122 15.3337 19.2084 15.4866C19.4923 15.5495 19.7894 15.5002 20.0376 15.3488C20.2858 15.1975 20.4659 14.956 20.5399 14.6749C20.614 14.3938 20.5764 14.0949 20.4349 13.8409C20.2935 13.5869 20.0592 13.3976 19.7813 13.3125C19.4121 13.2214 19.0357 13.1631 18.6563 13.1381C17.7253 13.0763 16.9688 13.2394 16.3969 13.6228C16.1181 13.81 15.8838 14.0561 15.7106 14.3438C15.5374 14.6316 15.4296 14.9538 15.3947 15.2878C15.2916 16.1072 15.6281 16.8131 16.3425 17.2744C16.7906 17.5641 17.3138 17.715 17.8191 17.8612C18.1003 17.9447 18.5634 18.0769 18.7453 18.1922C18.7421 18.2152 18.7355 18.2377 18.7256 18.2587C18.5972 18.4041 17.8275 18.4266 17.1891 18.2531C17.0459 18.2102 16.8956 18.1963 16.7469 18.2122C16.5983 18.228 16.4543 18.2733 16.3234 18.3455C16.1924 18.4176 16.0772 18.5151 15.9844 18.6323C15.8916 18.7495 15.823 18.884 15.7828 19.028C15.7425 19.1719 15.7314 19.3225 15.75 19.4708C15.7686 19.6191 15.8166 19.7622 15.8911 19.8918C15.9657 20.0214 16.0653 20.1348 16.1841 20.2254C16.303 20.3161 16.4388 20.3821 16.5834 20.4197C17.0791 20.5531 17.5899 20.6221 18.1031 20.625C18.7088 20.625 19.3903 20.5153 19.9528 20.1422C20.2376 19.9539 20.4773 19.7049 20.6548 19.4132C20.8323 19.1215 20.9431 18.7942 20.9794 18.4547C21.0938 17.5809 20.7497 16.8309 20.0166 16.3378H20.0184ZM3.37501 10.125V3.75C3.37501 3.25272 3.57255 2.77581 3.92418 2.42418C4.27581 2.07254 4.75273 1.875 5.25001 1.875H14.25C14.3978 1.87488 14.5441 1.90389 14.6807 1.96035C14.8173 2.01681 14.9414 2.09962 15.0459 2.20406L20.2959 7.45406C20.4004 7.55862 20.4832 7.68272 20.5397 7.81929C20.5961 7.95586 20.6251 8.10222 20.625 8.25V10.125C20.625 10.4234 20.5065 10.7095 20.2955 10.9205C20.0845 11.1315 19.7984 11.25 19.5 11.25C19.2016 11.25 18.9155 11.1315 18.7045 10.9205C18.4935 10.7095 18.375 10.4234 18.375 10.125V9.75H13.875C13.5766 9.75 13.2905 9.63147 13.0795 9.4205C12.8685 9.20952 12.75 8.92337 12.75 8.625V4.125H5.62501V10.125C5.62501 10.4234 5.50648 10.7095 5.2955 10.9205C5.08452 11.1315 4.79838 11.25 4.50001 11.25C4.20164 11.25 3.91549 11.1315 3.70451 10.9205C3.49353 10.7095 3.37501 10.4234 3.37501 10.125ZM15 7.5H17.1563L15 5.34375V7.5Z" fill="#5C5C5C"/>
</svg>
