<svg width="24" height="24" viewBox="0 0 24 24" fill="none" xmlns="http://www.w3.org/2000/svg">
<path fill-rule="evenodd" clip-rule="evenodd" d="M15.8569 16.0409C15.8881 16.0108 15.9123 15.9736 15.943 15.943C15.9736 15.9123 16.0108 15.8881 16.0409 15.8569C16.0069 15.8831 15.9741 15.9118 15.943 15.943C15.9118 15.9741 15.8831 16.0069 15.8569 16.0409Z" fill="#5C5C5C"/>
<path fill-rule="evenodd" clip-rule="evenodd" d="M18 11C18 7.134 14.866 4 11 4C7.134 4 4 7.134 4 11C4 14.866 7.134 18 11 18C12.8862 18 14.5982 17.254 15.8569 16.0409C15.8831 16.0069 15.9118 15.9741 15.943 15.943C15.9741 15.9118 16.0069 15.8831 16.0409 15.8569C17.254 14.5982 18 12.8862 18 11ZM18.0318 16.6178C19.2635 15.0781 20 13.1251 20 11C20 6.02943 15.9706 2 11 2C6.02943 2 2 6.02943 2 11C2 15.9706 6.02943 20 11 20C13.1251 20 15.0781 19.2635 16.6178 18.0318L20.2926 21.7066C20.6831 22.0972 21.3161 22.0972 21.7066 21.7066C22.0972 21.3161 22.0972 20.6831 21.7066 20.2926L18.0318 16.6178Z" fill="#5C5C5C"/>
<path fill-rule="evenodd" clip-rule="evenodd" d="M10 10V8C10 7.44772 10.4477 7 11 7C11.5523 7 12 7.44772 12 8V10H14C14.5523 10 15 10.4477 15 11C15 11.5523 14.5523 12 14 12H12V14C12 14.5523 11.5523 15 11 15C10.4477 15 10 14.5523 10 14V12H8C7.44772 12 7 11.5523 7 11C7 10.4477 7.44772 10 8 10H10Z" fill="#5C5C5C"/>
</svg>
