<svg width="24" height="24" viewBox="0 0 24 24" fill="none" xmlns="http://www.w3.org/2000/svg">
<path fill-rule="evenodd" clip-rule="evenodd" d="M16.0409 15.8569C16.0069 15.8831 15.9741 15.9118 15.943 15.943C15.9118 15.9741 15.8831 16.0069 15.8569 16.0409C15.8881 16.0108 15.9123 15.9736 15.943 15.943C15.9736 15.9123 16.0108 15.8881 16.0409 15.8569Z" fill="#5C5C5C"/>
<path d="M14 10C14.5523 10 15 10.4477 15 11C15 11.5523 14.5523 12 14 12H8C7.44772 12 7 11.5523 7 11C7 10.4477 7.44772 10 8 10H14Z" fill="#5C5C5C"/>
<path fill-rule="evenodd" clip-rule="evenodd" d="M11 4C14.866 4 18 7.134 18 11C18 12.8862 17.254 14.5982 16.0409 15.8569C16.0069 15.8831 15.9741 15.9118 15.943 15.943C15.9118 15.9741 15.8831 16.0069 15.8569 16.0409C14.5982 17.254 12.8862 18 11 18C7.134 18 4 14.866 4 11C4 7.134 7.134 4 11 4ZM16.6178 18.0318C15.0781 19.2635 13.1251 20 11 20C6.02943 20 2 15.9706 2 11C2 6.02943 6.02943 2 11 2C15.9706 2 20 6.02943 20 11C20 13.1251 19.2635 15.0781 18.0318 16.6178L21.7066 20.2926C22.0972 20.6831 22.0972 21.3161 21.7066 21.7066C21.3161 22.0972 20.6831 22.0972 20.2926 21.7066L16.6178 18.0318ZM15 11C15 10.4477 14.5523 10 14 10H8C7.44772 10 7 10.4477 7 11C7 11.5523 7.44772 12 8 12H14C14.5523 12 15 11.5523 15 11Z" fill="#5C5C5C"/>
</svg>
