<svg width="24" height="24" viewBox="0 0 24 24" fill="none" xmlns="http://www.w3.org/2000/svg">
<path d="M7.5 13.125C7.20163 13.125 6.91548 13.2435 6.7045 13.4545C6.49353 13.6655 6.375 13.9516 6.375 14.25V18.75C6.375 19.0484 6.49353 19.3345 6.7045 19.5455C6.91548 19.7565 7.20163 19.875 7.5 19.875C7.79837 19.875 8.08452 19.7565 8.2955 19.5455C8.50647 19.3345 8.625 19.0484 8.625 18.75V14.25C8.625 13.9516 8.50647 13.6655 8.2955 13.4545C8.08452 13.2435 7.79837 13.125 7.5 13.125ZM3.75 16.875C3.45163 16.875 3.16548 16.9935 2.9545 17.2045C2.74353 17.4155 2.625 17.7016 2.625 18V18.75C2.625 19.0484 2.74353 19.3345 2.9545 19.5455C3.16548 19.7565 3.45163 19.875 3.75 19.875C4.04837 19.875 4.33452 19.7565 4.5455 19.5455C4.75647 19.3345 4.875 19.0484 4.875 18.75V18C4.875 17.7016 4.75647 17.4155 4.5455 17.2045C4.33452 16.9935 4.04837 16.875 3.75 16.875Z" fill="#5C5C5C"/>
</svg>
