<svg width="24" height="24" viewBox="0 0 24 24" fill="none" xmlns="http://www.w3.org/2000/svg">
<path d="M20.2959 17.9541C20.5073 18.1654 20.626 18.4521 20.626 18.7509C20.626 19.0498 20.5073 19.3365 20.2959 19.5478C20.0846 19.7592 19.7979 19.8779 19.4991 19.8779C19.2002 19.8779 18.9135 19.7592 18.7022 19.5478L17.25 18.0938L15.7959 19.5487C15.5846 19.7601 15.2979 19.8788 14.9991 19.8788C14.7002 19.8788 14.4135 19.7601 14.2022 19.5487C13.9908 19.3374 13.8721 19.0508 13.8721 18.7519C13.8721 18.453 13.9908 18.1663 14.2022 17.955L15.6562 16.5L14.2013 15.0459C13.9899 14.8346 13.8712 14.5479 13.8712 14.2491C13.8712 13.9502 13.9899 13.6635 14.2013 13.4522C14.4126 13.2408 14.6992 13.1221 14.9981 13.1221C15.297 13.1221 15.5837 13.2408 15.795 13.4522L17.25 14.9062L18.7041 13.4513C18.9154 13.2399 19.2021 13.1212 19.5009 13.1212C19.7998 13.1212 20.0865 13.2399 20.2978 13.4513C20.5092 13.6626 20.6279 13.9492 20.6279 14.2481C20.6279 14.547 20.5092 14.8337 20.2978 15.045L18.8438 16.5L20.2959 17.9541ZM15 11.25C15.2984 11.25 15.5845 11.1315 15.7955 10.9205C16.0065 10.7095 16.125 10.4234 16.125 10.125V6.75C16.125 6.45163 16.0065 6.16548 15.7955 5.9545C15.5845 5.74353 15.2984 5.625 15 5.625C14.7016 5.625 14.4155 5.74353 14.2045 5.9545C13.9935 6.16548 13.875 6.45163 13.875 6.75V10.125C13.875 10.4234 13.9935 10.7095 14.2045 10.9205C14.4155 11.1315 14.7016 11.25 15 11.25ZM18.75 11.25C19.0484 11.25 19.3345 11.1315 19.5455 10.9205C19.7565 10.7095 19.875 10.4234 19.875 10.125V3C19.875 2.70163 19.7565 2.41548 19.5455 2.2045C19.3345 1.99353 19.0484 1.875 18.75 1.875C18.4516 1.875 18.1655 1.99353 17.9545 2.2045C17.7435 2.41548 17.625 2.70163 17.625 3V10.125C17.625 10.4234 17.7435 10.7095 17.9545 10.9205C18.1655 11.1315 18.4516 11.25 18.75 11.25ZM11.25 9.375C10.9516 9.375 10.6655 9.49353 10.4545 9.7045C10.2435 9.91548 10.125 10.2016 10.125 10.5V18.75C10.125 19.0484 10.2435 19.3345 10.4545 19.5455C10.6655 19.7565 10.9516 19.875 11.25 19.875C11.5484 19.875 11.8345 19.7565 12.0455 19.5455C12.2565 19.3345 12.375 19.0484 12.375 18.75V10.5C12.375 10.2016 12.2565 9.91548 12.0455 9.7045C11.8345 9.49353 11.5484 9.375 11.25 9.375ZM7.5 13.125C7.20163 13.125 6.91548 13.2435 6.7045 13.4545C6.49353 13.6655 6.375 13.9516 6.375 14.25V18.75C6.375 19.0484 6.49353 19.3345 6.7045 19.5455C6.91548 19.7565 7.20163 19.875 7.5 19.875C7.79837 19.875 8.08452 19.7565 8.2955 19.5455C8.50647 19.3345 8.625 19.0484 8.625 18.75V14.25C8.625 13.9516 8.50647 13.6655 8.2955 13.4545C8.08452 13.2435 7.79837 13.125 7.5 13.125ZM3.75 16.875C3.45163 16.875 3.16548 16.9935 2.9545 17.2045C2.74353 17.4155 2.625 17.7016 2.625 18V18.75C2.625 19.0484 2.74353 19.3345 2.9545 19.5455C3.16548 19.7565 3.45163 19.875 3.75 19.875C4.04837 19.875 4.33452 19.7565 4.5455 19.5455C4.75647 19.3345 4.875 19.0484 4.875 18.75V18C4.875 17.7016 4.75647 17.4155 4.5455 17.2045C4.33452 16.9935 4.04837 16.875 3.75 16.875Z" fill="#5C5C5C"/>
</svg>
