<svg width="24" height="24" viewBox="0 0 24 24" fill="none" xmlns="http://www.w3.org/2000/svg">
<path d="M8.625 14.25V18.75C8.625 19.0484 8.50647 19.3345 8.2955 19.5455C8.08452 19.7565 7.79837 19.875 7.5 19.875C7.20163 19.875 6.91548 19.7565 6.7045 19.5455C6.49353 19.3345 6.375 19.0484 6.375 18.75V14.25C6.375 13.9516 6.49353 13.6655 6.7045 13.4545C6.91548 13.2435 7.20163 13.125 7.5 13.125C7.79837 13.125 8.08452 13.2435 8.2955 13.4545C8.50647 13.6655 8.625 13.9516 8.625 14.25ZM3.75 16.875C3.45163 16.875 3.16548 16.9935 2.9545 17.2045C2.74353 17.4155 2.625 17.7016 2.625 18V18.75C2.625 19.0484 2.74353 19.3345 2.9545 19.5455C3.16548 19.7565 3.45163 19.875 3.75 19.875C4.04837 19.875 4.33452 19.7565 4.5455 19.5455C4.75647 19.3345 4.875 19.0484 4.875 18.75V18C4.875 17.7016 4.75647 17.4155 4.5455 17.2045C4.33452 16.9935 4.04837 16.875 3.75 16.875ZM20.3325 19.4934L5.3325 2.99344C5.2337 2.88207 5.11379 2.79142 4.9797 2.72674C4.84561 2.66206 4.70002 2.62464 4.55136 2.61664C4.40271 2.60864 4.25394 2.63023 4.11369 2.68015C3.97344 2.73007 3.84448 2.80733 3.73431 2.90746C3.62414 3.00758 3.53493 3.12858 3.47187 3.26343C3.4088 3.39828 3.37312 3.54431 3.36691 3.69306C3.36069 3.8418 3.38406 3.99029 3.43566 4.12994C3.48726 4.26958 3.56606 4.3976 3.6675 4.50656L10.125 11.61V18.75C10.125 19.0484 10.2435 19.3345 10.4545 19.5455C10.6655 19.7565 10.9516 19.875 11.25 19.875C11.5484 19.875 11.8345 19.7565 12.0455 19.5455C12.2565 19.3345 12.375 19.0484 12.375 18.75V14.085L13.875 15.735V18.75C13.875 19.0484 13.9935 19.3345 14.2045 19.5455C14.4155 19.7565 14.7016 19.875 15 19.875C15.2984 19.875 15.5845 19.7565 15.7955 19.5455C16.0065 19.3345 16.125 19.0484 16.125 18.75V18.21L18.6675 21.0066C18.8692 21.2232 19.1482 21.3517 19.444 21.364C19.7397 21.3764 20.0285 21.2717 20.2475 21.0726C20.4666 20.8735 20.5984 20.5961 20.6143 20.3005C20.6302 20.0048 20.529 19.7149 20.3325 19.4934ZM15 10.8506C15.2984 10.8506 15.5845 10.7321 15.7955 10.5211C16.0065 10.3101 16.125 10.024 16.125 9.72563V6.75C16.125 6.45163 16.0065 6.16548 15.7955 5.9545C15.5845 5.74353 15.2984 5.625 15 5.625C14.7016 5.625 14.4155 5.74353 14.2045 5.9545C13.9935 6.16548 13.875 6.45163 13.875 6.75V9.72563C13.875 10.024 13.9935 10.3101 14.2045 10.5211C14.4155 10.7321 14.7016 10.8506 15 10.8506ZM18.75 14.9756C19.0484 14.9756 19.3345 14.8571 19.5455 14.6461C19.7565 14.4351 19.875 14.149 19.875 13.8506V3C19.875 2.70163 19.7565 2.41548 19.5455 2.2045C19.3345 1.99353 19.0484 1.875 18.75 1.875C18.4516 1.875 18.1655 1.99353 17.9545 2.2045C17.7435 2.41548 17.625 2.70163 17.625 3V13.8506C17.625 14.149 17.7435 14.4351 17.9545 14.6461C18.1655 14.8571 18.4516 14.9756 18.75 14.9756Z" fill="#5C5C5C"/>
</svg>
