<svg width="24" height="24" viewBox="0 0 24 24" xmlns="http://www.w3.org/2000/svg">
<path fill-rule="evenodd" clip-rule="evenodd" d="M11.9967 2.12501L12 2.125C13.9531 2.12501 15.8623 2.70416 17.4863 3.78924C19.1102 4.87432 20.3759 6.41659 21.1233 8.22101C21.8707 10.0254 22.0663 12.011 21.6853 13.9265C21.3042 15.8421 20.3637 17.6016 18.9827 18.9827C17.6016 20.3637 15.8421 21.3042 13.9265 21.6853C12.011 22.0663 10.0254 21.8707 8.221 21.1233C6.41658 20.3759 4.87432 19.1102 3.78924 17.4863C2.70416 15.8623 2.125 13.9531 2.125 12C2.125 11.5168 2.51675 11.125 3 11.125C3.48325 11.125 3.875 11.5168 3.875 12C3.875 13.607 4.35152 15.1779 5.24431 16.514C6.1371 17.8502 7.40605 18.8916 8.8907 19.5065C10.3753 20.1215 12.009 20.2824 13.5851 19.9689C15.1612 19.6554 16.6089 18.8815 17.7452 17.7452C18.8815 16.6089 19.6554 15.1612 19.9689 13.5851C20.2824 12.009 20.1215 10.3754 19.5065 8.8907C18.8916 7.40605 17.8502 6.1371 16.514 5.24432C15.1783 4.35183 13.608 3.87533 12.0016 3.87501C9.7144 3.88404 7.51902 4.77577 5.87336 6.36408L3.61872 8.61872C3.27701 8.96043 2.72299 8.96043 2.38128 8.61872C2.03957 8.27702 2.03957 7.723 2.38128 7.38129L4.64128 5.12129L4.65184 5.11091C6.62315 3.20519 9.25486 2.13533 11.9967 2.12501Z"/>
<path fill-rule="evenodd" clip-rule="evenodd" d="M3 2.12501C3.48325 2.12501 3.875 2.51676 3.875 3.00001V7.12501H8C8.48325 7.12501 8.875 7.51676 8.875 8.00001C8.875 8.48326 8.48325 8.87501 8 8.87501H3C2.51675 8.87501 2.125 8.48326 2.125 8.00001V3.00001C2.125 2.51676 2.51675 2.12501 3 2.12501Z"/>
<path fill-rule="evenodd" clip-rule="evenodd" d="M12 6.12501C12.4832 6.12501 12.875 6.51676 12.875 7.00001V11.4592L16.3913 13.2174C16.8235 13.4335 16.9987 13.9591 16.7826 14.3913C16.5665 14.8235 16.0409 14.9987 15.6087 14.7826L11.6087 12.7826C11.3123 12.6344 11.125 12.3314 11.125 12V7.00001C11.125 6.51676 11.5168 6.12501 12 6.12501Z"/>
</svg>
