<svg width="95" height="20" viewBox="0 0 95 20" fill="none" xmlns="http://www.w3.org/2000/svg">
<path fill-rule="evenodd" clip-rule="evenodd" d="M18.0673 0.526291C16.9414 1.11439 15.9468 2.27532 15.6485 3.34938C15.5413 3.73548 15.4531 5.21731 15.4526 6.64223L15.4514 9.23318H17.8801H20.3087L20.4274 8.6008C20.5939 7.71291 21.5374 6.36128 22.4151 5.75302C24.4078 4.372 26.6573 4.372 28.65 5.75302C29.5277 6.36128 30.4712 7.71291 30.6378 8.6008L30.7565 9.23318H33.185H35.6137L35.6125 6.64223C35.612 5.21731 35.5238 3.73548 35.4166 3.34938C35.1183 2.27532 34.1237 1.11439 32.9979 0.526291C32.3361 0.180563 31.6006 0 30.854 0H25.5326H20.2112C19.4645 0 18.729 0.180563 18.0673 0.526291ZM43.3013 0.363862C40.3757 1.29924 38.1967 3.60716 37.3949 6.61981C37.0294 7.9931 37.0337 12.0218 37.4023 13.4365C38.0703 16.0017 39.8419 18.1784 42.1519 19.2725C43.3988 19.863 43.503 19.8796 45.9774 19.8796C48.4295 19.8796 48.5654 19.8587 49.7461 19.2981C51.4303 18.4984 52.9329 17.0746 53.751 15.5033C54.6078 13.8573 54.8338 12.7243 54.8338 10.0719V7.91415H50.4056H45.9774V9.89269V11.8712H47.6882H49.3992L49.2673 12.4836C49.0726 13.3875 48.7003 14.0276 48.0513 14.5735C46.5552 15.8326 43.9701 15.2869 43.0149 13.5102C42.6058 12.7491 42.4376 8.59872 42.7664 7.37768C43.4477 4.84723 46.2765 3.95123 48.1455 5.67407L48.9404 6.40669H51.6986C53.8788 6.40669 54.4569 6.35374 54.4569 6.15419C54.4569 5.61 53.2914 3.6113 52.4808 2.76524C50.6896 0.895618 48.5362 -0.00716042 45.9106 0.0101753C44.9705 0.0163936 43.9595 0.153384 43.3013 0.363862ZM0 7.97407C0 16.5415 0.0508766 17.0096 1.12494 18.3081C1.43868 18.6874 2.09838 19.1961 2.59075 19.4387C3.45622 19.8649 3.66632 19.8817 8.90342 19.9397L14.3208 19.9996V17.5372V15.0746H9.89269H5.46453V7.6315V0.188432H2.73227H0V7.97407ZM56.7181 10.0811V19.9738H59.4503H62.1826V10.0811V0.188432H59.4503H56.7181V10.0811ZM64.8218 8.05547C64.8224 12.8935 64.8977 16.1927 65.0178 16.6244C65.3089 17.6732 66.3082 18.8562 67.3605 19.3981C68.2882 19.876 68.3347 19.88 73.6242 19.9399L78.9531 20V17.5374V15.0746H74.6191H70.2852V7.6315V0.188432H67.5529H64.8207L64.8218 8.05547ZM80.4605 10.0811V19.9738H87.5267H94.5929V17.5242V15.0746H90.259H85.9251V13.7555V12.4365H90.259H94.5929V10.0811V7.72572H90.259H85.9251V6.31248V4.89924H90.259H94.5929V2.54383V0.188432H87.5267H80.4605V10.0811ZM15.4854 13.8027C15.5517 16.9647 15.699 17.5003 16.8162 18.6431C18.1245 19.9812 18.0765 19.9738 25.5326 19.9738C32.9886 19.9738 32.9406 19.9812 34.2489 18.6431C35.3661 17.5003 35.5134 16.9647 35.5798 13.8027L35.6402 10.9291H33.1772C31.09 10.9291 30.7144 10.9732 30.7144 11.2179C30.7144 11.377 30.51 11.9068 30.2601 12.3956C28.2601 16.309 22.805 16.309 20.805 12.3956C20.5551 11.9068 20.3507 11.377 20.3507 11.2179C20.3507 10.9732 19.9751 10.9291 17.8879 10.9291H15.4249L15.4854 13.8027Z" fill="#0A68DB"/>
</svg>
