<svg width="24" height="24" viewBox="0 0 24 24" fill="none" xmlns="http://www.w3.org/2000/svg">
<path d="M1 21.0001C0.999842 19.5446 1.35269 18.1106 2.02832 16.8214C2.70394 15.5322 3.682 14.4259 4.87891 13.5977C6.07577 12.7696 7.45588 12.2443 8.90039 12.0665C10.2548 11.8998 11.6283 12.0439 12.917 12.4854L13.1738 12.5772L13.2676 12.6183C13.7212 12.844 13.9392 13.3809 13.7568 13.8653C13.5742 14.35 13.0555 14.6098 12.5654 14.4796L12.4688 14.4483L12.0674 14.3116C11.1242 14.02 10.1285 13.9309 9.14551 14.0519C8.02209 14.1901 6.94844 14.5983 6.01758 15.2423C5.08661 15.8864 4.3253 16.7474 3.7998 17.7501C3.27438 18.7528 2.99988 19.8681 3 21.0001L2.99512 21.1017C2.94419 21.6062 2.51794 22 2 22.0001C1.48237 22.0001 1.05626 21.6067 1.00488 21.1026L1 21.0001Z" fill="#5C5C5C"/>
<path d="M20.9942 15.0125C20.9685 14.7553 20.8553 14.5133 20.6709 14.329C20.4865 14.1446 20.2446 14.0313 19.9873 14.0057L19.876 13.9999C19.6149 13.9999 19.3632 14.0906 19.1631 14.2547L19.0811 14.329L15.0713 18.3407C14.9821 18.4298 14.9103 18.5353 14.8604 18.6502L14.8184 18.7684L14.2364 20.7625L16.2315 20.1805C16.3923 20.1334 16.5387 20.047 16.6573 19.9286L20.6709 15.9188L20.7451 15.8368C20.9093 15.6367 21 15.3849 21 15.1239L20.9942 15.0125ZM22.9961 15.2791C22.9578 16.0512 22.6342 16.7836 22.085 17.3329L18.0713 21.3426C17.715 21.6988 17.2747 21.9592 16.791 22.1004L13.9209 22.9383C13.6629 23.0136 13.3893 23.0177 13.1289 22.951C12.8684 22.8843 12.6306 22.7486 12.4405 22.5584C12.2503 22.3683 12.1146 22.1304 12.0479 21.87C11.9812 21.6096 11.9853 21.336 12.0606 21.078L12.8985 18.2079L12.9571 18.0282C13.1065 17.615 13.3445 17.2384 13.6563 16.9266L17.667 12.9149L17.7793 12.8084C18.3524 12.2895 19.0992 11.9999 19.876 11.9999L20.0313 12.0038C20.8033 12.0421 21.5358 12.3657 22.085 12.9149C22.6708 13.5008 23 14.2953 23 15.1239L22.9961 15.2791Z" fill="#5C5C5C"/>
<path d="M14 8C14 5.79086 12.2091 4 10 4C7.79086 4 6 5.79086 6 8C6 10.2091 7.79086 12 10 12C12.2091 12 14 10.2091 14 8ZM16 8C16 11.3137 13.3137 14 10 14C6.68629 14 4 11.3137 4 8C4 4.68629 6.68629 2 10 2C13.3137 2 16 4.68629 16 8Z" fill="#5C5C5C"/>
</svg>
