<svg width="24" height="24" viewBox="0 0 24 24" fill="none" xmlns="http://www.w3.org/2000/svg">
<path d="M19.876 17.2473C20.3721 16.6756 20.647 15.942 20.65 15.1818C20.65 14.3379 20.3181 13.5286 19.7274 12.9319C19.1366 12.3352 18.3354 12 17.5 12C16.6646 12 15.8634 12.3352 15.2726 12.9319C14.6819 13.5286 14.35 14.3379 14.35 15.1818C14.353 15.942 14.6279 16.6756 15.124 17.2473C14.476 17.653 13.9409 18.2188 13.5693 18.8913C13.1977 19.5638 13.0018 20.3208 13 21.0909C13 21.332 13.0948 21.5632 13.2636 21.7337C13.4324 21.9042 13.6613 22 13.9 22C14.1387 22 14.3676 21.9042 14.5364 21.7337C14.7052 21.5632 14.8 21.332 14.8 21.0909C14.8 20.3676 15.0845 19.6739 15.5908 19.1624C16.0972 18.651 16.7839 18.3636 17.5 18.3636C18.2161 18.3636 18.9028 18.651 19.4092 19.1624C19.9155 19.6739 20.2 20.3676 20.2 21.0909C20.2 21.332 20.2948 21.5632 20.4636 21.7337C20.6324 21.9042 20.8613 22 21.1 22C21.3387 22 21.5676 21.9042 21.7364 21.7337C21.9052 21.5632 22 21.332 22 21.0909C21.9982 20.3208 21.8023 19.5638 21.4307 18.8913C21.0591 18.2188 20.524 17.653 19.876 17.2473ZM17.5 16.5455C17.233 16.5455 16.972 16.4655 16.75 16.3156C16.528 16.1658 16.3549 15.9528 16.2528 15.7037C16.1506 15.4545 16.1239 15.1803 16.1759 14.9158C16.228 14.6513 16.3566 14.4083 16.5454 14.2176C16.7342 14.0269 16.9748 13.897 17.2366 13.8444C17.4985 13.7918 17.7699 13.8188 18.0166 13.922C18.2633 14.0252 18.4741 14.2 18.6225 14.4242C18.7708 14.6485 18.85 14.9121 18.85 15.1818C18.8495 15.5433 18.7071 15.8899 18.4541 16.1455C18.201 16.4012 17.8579 16.545 17.5 16.5455Z" fill="#5C5C5C"/>
<path fill-rule="evenodd" clip-rule="evenodd" d="M9.65 15.1818C9.64698 15.942 9.3721 16.6756 8.876 17.2473C9.52404 17.653 10.0591 18.2188 10.4307 18.8913C10.8023 19.5638 10.9982 20.3208 11 21.0909C11 21.332 10.9052 21.5632 10.7364 21.7337C10.5676 21.9042 10.3387 22 10.1 22C9.86131 22 9.63239 21.9042 9.4636 21.7337C9.29482 21.5632 9.2 21.332 9.2 21.0909C9.2 20.3676 8.91554 19.6739 8.40919 19.1624C7.90284 18.651 7.21608 18.3636 6.5 18.3636C5.78392 18.3636 5.09716 18.651 4.59081 19.1624C4.08446 19.6739 3.8 20.3676 3.8 21.0909C3.8 21.332 3.70518 21.5632 3.5364 21.7337C3.36761 21.9042 3.13869 22 2.9 22C2.66131 22 2.43239 21.9042 2.2636 21.7337C2.09482 21.5632 2 21.332 2 21.0909C2.00177 20.3208 2.19769 19.5638 2.5693 18.8913C2.94091 18.2188 3.47596 17.653 4.124 17.2473C3.6279 16.6756 3.35302 15.942 3.35 15.1818C3.35 14.3379 3.68187 13.5286 4.27261 12.9319C4.86335 12.3352 5.66457 12 6.5 12C7.33543 12 8.13665 12.3352 8.72739 12.9319C9.31813 13.5286 9.65 14.3379 9.65 15.1818ZM6.5 16.5455C6.233 16.5455 5.97199 16.4655 5.74998 16.3156C5.52797 16.1658 5.35494 15.9528 5.25276 15.7037C5.15058 15.4545 5.12385 15.1803 5.17594 14.9158C5.22803 14.6513 5.35661 14.4083 5.54541 14.2176C5.73421 14.0269 5.97475 13.897 6.23663 13.8444C6.4985 13.7918 6.76994 13.8188 7.01662 13.922C7.2633 14.0252 7.47414 14.2 7.62248 14.4242C7.77082 14.6485 7.85 14.9121 7.85 15.1818C7.84952 15.5433 7.70714 15.8899 7.45407 16.1455C7.201 16.4011 6.8579 16.545 6.5 16.5455Z" fill="#5C5C5C"/>
<path d="M5.5 9C5.5 5.41015 8.41015 2.5 12 2.5C15.2511 2.5 17.9447 4.88681 18.4241 8.00372C18.5081 8.54959 18.0523 9 17.5 9C16.9477 9 16.5115 8.54661 16.3903 8.0078C15.9384 5.9999 14.1444 4.5 12 4.5C9.51472 4.5 7.5 6.51472 7.5 9V10C7.5 10.5523 7.05228 11 6.5 11C5.94772 11 5.5 10.5523 5.5 10V9Z" fill="#5C5C5C"/>
<path d="M20.3304 8.76874C20.7209 8.37822 20.7209 7.74505 20.3304 7.35453C19.9399 6.964 19.3067 6.964 18.9162 7.35453L17.5613 8.70936L16.2065 7.35453L16.1312 7.28617C15.7385 6.96565 15.1585 6.98835 14.7923 7.35453C14.4264 7.72072 14.4042 8.30011 14.7246 8.69278L14.7923 8.76874L16.8542 10.8307C17.2447 11.2211 17.8779 11.2209 18.2684 10.8307L20.3304 8.76874Z" fill="#5C5C5C"/>
</svg>
