<svg width="24" height="24" viewBox="0 0 24 24" fill="none" xmlns="http://www.w3.org/2000/svg">
<path d="M3 20.9996C3.00003 21.5518 2.55228 21.9995 2 21.9996C1.4479 21.9996 1.00029 21.5526 1 21.0005L3 20.9996ZM6.29688 12.7964C7.87562 12.0838 9.62701 11.8423 11.3398 12.1001C13.0526 12.358 14.6542 13.1048 15.9531 14.2505C16.3673 14.6159 16.4073 15.2475 16.042 15.6617C15.6766 16.0758 15.045 16.1149 14.6309 15.7496C13.6205 14.8584 12.3742 14.2782 11.042 14.0777C9.70979 13.8772 8.34803 14.0654 7.12012 14.6197C5.89221 15.174 4.84995 16.0709 4.11914 17.2027C3.38856 18.3343 3 19.6526 3 20.9996L1 21.0005C0.999905 19.2684 1.49989 17.5728 2.43945 16.1177C3.37903 14.6626 4.71822 13.5091 6.29688 12.7964Z" fill="#5C5C5C"/>
<path d="M14 8C14 5.79086 12.2091 4 10 4C7.79086 4 6 5.79086 6 8C6 10.2091 7.79086 12 10 12C12.2091 12 14 10.2091 14 8ZM16 8C16 11.3137 13.3137 14 10 14C6.68629 14 4 11.3137 4 8C4 4.68629 6.68629 2 10 2C13.3137 2 16 4.68629 16 8Z" fill="#5C5C5C"/>
<path d="M21.3691 16.2246C21.7619 15.9043 22.3409 15.9269 22.707 16.293C23.0731 16.6591 23.0957 17.2381 22.7754 17.6309L22.707 17.707L18.707 21.707C18.3409 22.0731 17.7619 22.0957 17.3691 21.7754L17.293 21.707L15.293 19.707L15.2246 19.6309C14.9043 19.2381 14.9269 18.6591 15.293 18.293C15.6591 17.9269 16.2381 17.9043 16.6309 18.2246L16.707 18.293L18 19.5859L21.293 16.293L21.3691 16.2246Z" fill="#5C5C5C"/>
</svg>
