<svg width="24" height="24" viewBox="0 0 24 24" fill="none" xmlns="http://www.w3.org/2000/svg">
<path d="M1 21C1 19.4341 1.40878 17.8948 2.18555 16.5351C2.96225 15.1757 4.08004 14.0423 5.42871 13.2471C6.77764 12.4518 8.31118 12.0224 9.87695 12.001C11.345 11.9809 12.7942 12.32 14.0986 12.9873L14.3574 13.125L14.4443 13.1787C14.8608 13.4676 14.9987 14.0313 14.748 14.4844C14.4973 14.9374 13.9465 15.1194 13.4805 14.9199L13.3887 14.875L12.9834 14.667C12.0229 14.2145 10.9699 13.9864 9.9043 14.001C8.68665 14.0176 7.49437 14.3513 6.44531 14.9697C5.39622 15.5882 4.52602 16.4699 3.92188 17.5273C3.31772 18.5849 3 19.7821 3 21C3 21.5523 2.55228 22 2 22C1.44772 22 1 21.5523 1 21Z" fill="#5C5C5C"/>
<path d="M14 8C14 5.79086 12.2091 4 10 4C7.79086 4 6 5.79086 6 8C6 10.2091 7.79086 12 10 12C12.2091 12 14 10.2091 14 8ZM16 8C16 11.3137 13.3137 14 10 14C6.68629 14 4 11.3137 4 8C4 4.68629 6.68629 2 10 2C13.3137 2 16 4.68629 16 8Z" fill="#5C5C5C"/>
<path d="M16.293 16.293C16.6591 15.9269 17.2381 15.9043 17.6309 16.2246L17.707 16.293L22.707 21.293L22.7754 21.3691C23.0957 21.7619 23.0731 22.3409 22.707 22.707C22.3409 23.0731 21.7619 23.0957 21.3691 22.7754L21.293 22.707L16.293 17.707L16.2246 17.6309C15.9043 17.2381 15.9269 16.6591 16.293 16.293Z" fill="#5C5C5C"/>
<path d="M21.3691 16.2246C21.7619 15.9043 22.3409 15.9269 22.707 16.293C23.0731 16.6591 23.0957 17.2381 22.7754 17.6309L22.707 17.707L17.707 22.707C17.3165 23.0976 16.6835 23.0976 16.293 22.707C15.9024 22.3165 15.9024 21.6835 16.293 21.293L21.293 16.293L21.3691 16.2246Z" fill="#5C5C5C"/>
</svg>
