<svg width="24" height="24" viewBox="0 0 24 24" fill="none" xmlns="http://www.w3.org/2000/svg">
<path d="M1 21.0001C0.999842 19.5446 1.35269 18.1106 2.02832 16.8214C2.70394 15.5322 3.682 14.4259 4.87891 13.5977C6.07577 12.7696 7.45588 12.2443 8.90039 12.0665C10.2548 11.8998 11.6283 12.0439 12.917 12.4854L13.1738 12.5772L13.2676 12.6183C13.7212 12.844 13.9392 13.3809 13.7568 13.8653C13.5742 14.35 13.0555 14.6098 12.5654 14.4796L12.4688 14.4483L12.0674 14.3116C11.1242 14.02 10.1285 13.9309 9.14551 14.0519C8.02209 14.1901 6.94844 14.5983 6.01758 15.2423C5.08661 15.8864 4.3253 16.7474 3.7998 17.7501C3.27438 18.7528 2.99988 19.8681 3 21.0001L2.99512 21.1017C2.94419 21.6062 2.51794 22 2 22.0001C1.48237 22.0001 1.05626 21.6067 1.00488 21.1026L1 21.0001Z" fill="#5C5C5C"/>
<path d="M14 8C14 5.79086 12.2091 4 10 4C7.79086 4 6 5.79086 6 8C6 10.2091 7.79086 12 10 12C12.2091 12 14 10.2091 14 8ZM16 8C16 11.3137 13.3137 14 10 14C6.68629 14 4 11.3137 4 8C4 4.68629 6.68629 2 10 2C13.3137 2 16 4.68629 16 8Z" fill="#5C5C5C"/>
<path d="M17.5 15C17.3248 15 17.1551 15.0328 17 15.0928V17.2393C17.165 17.2148 17.3319 17.2002 17.5 17.2002L17.7812 17.2109C18.4221 17.2599 18.9531 17.4653 19.3496 17.6133C19.834 17.7941 20.1426 17.9004 20.5 17.9004C20.6753 17.9004 20.8448 17.8666 21 17.8066V15.6318C20.7534 15.6791 20.5006 15.7002 20.25 15.7002C19.5782 15.7002 18.9726 15.4283 18.5977 15.2783C18.1666 15.1059 17.8539 15 17.5 15ZM23 18.2002C23 18.4217 22.9444 18.6375 22.8418 18.8291C22.7395 19.02 22.5944 19.1793 22.4238 19.2988C21.9323 19.6429 21.3537 19.8455 20.7568 19.8906L20.5 19.9004C19.7325 19.9004 19.1035 19.6565 18.6504 19.4873C18.166 19.3065 17.8574 19.2002 17.5 19.2002C17.3241 19.2002 17.1546 19.2332 17 19.293V21C17 21.5523 16.5523 22 16 22C15.4477 22 15 21.5523 15 21V14.7002C15 14.4786 15.0556 14.2629 15.1582 14.0713L15.2422 13.9336C15.3342 13.8025 15.4481 13.6903 15.5762 13.6006L15.792 13.4619C16.307 13.1587 16.899 13 17.5 13C18.271 13 18.896 13.2443 19.3398 13.4219C19.8399 13.6219 20.047 13.7002 20.25 13.7002C20.6463 13.7002 20.7949 13.6223 20.8262 13.6006L20.9854 13.5049C21.149 13.4205 21.3272 13.3697 21.5078 13.3545L21.6885 13.3516C21.809 13.357 21.929 13.3776 22.0449 13.4141L22.2158 13.4805L22.3779 13.5703C22.4818 13.637 22.5774 13.7182 22.6611 13.8125L22.7773 13.9639L22.873 14.1328C22.9555 14.3078 23 14.5012 23 14.7002V18.2002Z" fill="#5C5C5C"/>
</svg>
