<svg width="24" height="24" viewBox="0 0 24 24" fill="none" xmlns="http://www.w3.org/2000/svg">
<path d="M19.876 17.2473C20.3721 16.6756 20.647 15.942 20.65 15.1818C20.65 14.3379 20.3181 13.5286 19.7274 12.9319C19.1366 12.3352 18.3354 12 17.5 12C16.6646 12 15.8634 12.3352 15.2726 12.9319C14.6819 13.5286 14.35 14.3379 14.35 15.1818C14.353 15.942 14.6279 16.6756 15.124 17.2473C14.476 17.653 13.9409 18.2188 13.5693 18.8913C13.1977 19.5638 13.0018 20.3208 13 21.0909C13 21.332 13.0948 21.5632 13.2636 21.7337C13.4324 21.9042 13.6613 22 13.9 22C14.1387 22 14.3676 21.9042 14.5364 21.7337C14.7052 21.5632 14.8 21.332 14.8 21.0909C14.8 20.3676 15.0845 19.6739 15.5908 19.1624C16.0972 18.651 16.7839 18.3636 17.5 18.3636C18.2161 18.3636 18.9028 18.651 19.4092 19.1624C19.9155 19.6739 20.2 20.3676 20.2 21.0909C20.2 21.332 20.2948 21.5632 20.4636 21.7337C20.6324 21.9042 20.8613 22 21.1 22C21.3387 22 21.5676 21.9042 21.7364 21.7337C21.9052 21.5632 22 21.332 22 21.0909C21.9982 20.3208 21.8023 19.5638 21.4307 18.8913C21.0591 18.2188 20.524 17.653 19.876 17.2473ZM17.5 16.5455C17.233 16.5455 16.972 16.4655 16.75 16.3156C16.528 16.1658 16.3549 15.9528 16.2528 15.7037C16.1506 15.4545 16.1239 15.1803 16.1759 14.9158C16.228 14.6513 16.3566 14.4083 16.5454 14.2176C16.7342 14.0269 16.9748 13.897 17.2366 13.8444C17.4985 13.7918 17.7699 13.8188 18.0166 13.922C18.2633 14.0252 18.4741 14.2 18.6225 14.4242C18.7708 14.6485 18.85 14.9121 18.85 15.1818C18.8495 15.5433 18.7071 15.8899 18.4541 16.1455C18.201 16.4012 17.8579 16.545 17.5 16.5455Z" fill="#5C5C5C"/>
<path fill-rule="evenodd" clip-rule="evenodd" d="M9.65 5.18182C9.64698 5.94205 9.3721 6.67557 8.876 7.24727C9.52404 7.65303 10.0591 8.21882 10.4307 8.8913C10.8023 9.56377 10.9982 10.3208 11 11.0909C11 11.332 10.9052 11.5632 10.7364 11.7337C10.5676 11.9042 10.3387 12 10.1 12C9.86131 12 9.63239 11.9042 9.4636 11.7337C9.29482 11.5632 9.2 11.332 9.2 11.0909C9.2 10.3676 8.91554 9.6739 8.40919 9.16243C7.90284 8.65097 7.21608 8.36364 6.5 8.36364C5.78392 8.36364 5.09716 8.65097 4.59081 9.16243C4.08446 9.6739 3.8 10.3676 3.8 11.0909C3.8 11.332 3.70518 11.5632 3.5364 11.7337C3.36761 11.9042 3.13869 12 2.9 12C2.66131 12 2.43239 11.9042 2.2636 11.7337C2.09482 11.5632 2 11.332 2 11.0909C2.00177 10.3208 2.19769 9.56377 2.5693 8.8913C2.94091 8.21882 3.47596 7.65303 4.124 7.24727C3.6279 6.67557 3.35302 5.94205 3.35 5.18182C3.35 4.33795 3.68187 3.52864 4.27261 2.93193C4.86335 2.33523 5.66457 2 6.5 2C7.33543 2 8.13665 2.33523 8.72739 2.93193C9.31813 3.52864 9.65 4.33795 9.65 5.18182ZM6.5 6.54545C6.233 6.54545 5.97199 6.46548 5.74998 6.31564C5.52797 6.1658 5.35494 5.95283 5.25276 5.70366C5.15058 5.45449 5.12385 5.1803 5.17594 4.91578C5.22803 4.65126 5.35661 4.40829 5.54541 4.21758C5.73421 4.02687 5.97475 3.897 6.23663 3.84438C6.4985 3.79177 6.76994 3.81877 7.01662 3.92198C7.2633 4.02519 7.47414 4.19997 7.62248 4.42422C7.77082 4.64847 7.85 4.91212 7.85 5.18182C7.84952 5.54333 7.70714 5.8899 7.45407 6.14552C7.201 6.40115 6.8579 6.54497 6.5 6.54545Z" fill="#5C5C5C"/>
<path d="M3.29544 15.2921C2.90152 15.6723 2.90152 16.2886 3.29544 16.6688C3.68936 17.0489 4.32802 17.0489 4.72194 16.6688L6.08855 15.3499L7.45515 16.6688L7.53107 16.7353C7.92726 17.0473 8.51229 17.0252 8.88165 16.6688C9.25072 16.3123 9.27311 15.7483 8.94991 15.3661L8.88165 15.2921L6.8018 13.285C6.40798 12.9049 5.76924 12.9051 5.37529 13.285L3.29544 15.2921Z" fill="#5C5C5C"/>
<path d="M5.60542 17.6271C5.95993 18.2604 6.4658 18.8036 7.08137 19.2101C7.69705 19.6166 8.405 19.8755 9.14521 19.965C9.79281 20.0432 10.4493 19.99 11.0725 19.8097L11.3379 19.7243L11.4326 19.6853C11.8925 19.4698 12.1178 18.9487 11.9383 18.4754C11.7588 18.0022 11.2383 17.7447 10.7431 17.8664L10.6442 17.8959L10.4937 17.9443C10.1387 18.0471 9.76483 18.0776 9.39596 18.0331C8.97455 17.9821 8.57143 17.835 8.22091 17.6035C7.87035 17.3721 7.58207 17.0628 7.38019 16.7021C7.18045 16.3453 7.07092 15.9479 7.06048 15.5426L7.0967 13.9952C7.10908 13.4578 6.66733 13.0124 6.1104 13.0004C5.5536 12.9886 5.09194 13.4148 5.07953 13.9522L5.04331 15.5278V15.5681C5.05811 16.2878 5.25095 16.9937 5.60542 17.6271Z" fill="#5C5C5C"/>
<path d="M20.7046 8.70787C21.0985 8.32771 21.0985 7.71137 20.7046 7.33122C20.3106 6.95107 19.672 6.95107 19.2781 7.33122L17.9115 8.65006L16.5449 7.33122L16.4689 7.26467C16.0727 6.95267 15.4877 6.97477 15.1183 7.33122C14.7493 7.68768 14.7269 8.25169 15.0501 8.63393L15.1183 8.70787L17.1982 10.715C17.592 11.0951 18.2308 11.0949 18.6247 10.715L20.7046 8.70787Z" fill="#5C5C5C"/>
<path d="M18.3946 6.37293C18.0401 5.7396 17.5342 5.19642 16.9186 4.78991C16.303 4.38339 15.595 4.12451 14.8548 4.03504C14.2072 3.95679 13.5507 4.01004 12.9275 4.19032L12.6621 4.27569L12.5674 4.31467C12.1075 4.53022 11.8822 5.05134 12.0617 5.52462C12.2412 5.99777 12.7617 6.25532 13.2569 6.13363L13.3558 6.10405L13.5063 6.05565C13.8613 5.9529 14.2352 5.92236 14.604 5.96692C15.0255 6.01786 15.4286 6.16503 15.7791 6.39645C16.1296 6.62792 16.4179 6.93721 16.6198 7.29786C16.8196 7.6547 16.9291 8.05206 16.9395 8.45739L16.9033 10.0048C16.8909 10.5422 17.3327 10.9876 17.8896 10.9996C18.4464 11.0114 18.9081 10.5852 18.9205 10.0478L18.9567 8.47218V8.43185C18.9419 7.71218 18.749 7.00626 18.3946 6.37293Z" fill="#5C5C5C"/>
</svg>
