<svg width="24" height="24" viewBox="0 0 24 24" fill="none" xmlns="http://www.w3.org/2000/svg">
<path d="M14 8C14 5.79086 12.2091 4 10 4C7.79086 4 6 5.79086 6 8C6 10.2091 7.79086 12 10 12C12.2091 12 14 10.2091 14 8ZM16 8C16 11.3137 13.3137 14 10 14C6.68629 14 4 11.3137 4 8C4 4.68629 6.68629 2 10 2C13.3137 2 16 4.68629 16 8Z" fill="#5C5C5C"/>
<path d="M1 20.9998C1.00015 19.5834 1.33505 18.1873 1.97656 16.9246C2.61811 15.6618 3.54853 14.5675 4.69238 13.7322C5.83605 12.8971 7.16075 12.3438 8.55859 12.1169C9.95673 11.8902 11.389 11.9966 12.7383 12.4275L12.4336 13.3796L12.1299 14.3328C11.0805 13.9976 9.96635 13.9142 8.87891 14.0906C7.79172 14.267 6.76158 14.6979 5.87207 15.3474C4.98244 15.9971 4.25777 16.8477 3.75879 17.8298C3.25986 18.8119 3.00015 19.8982 3 20.9998L2.99512 21.1023C2.94389 21.6066 2.51775 21.9998 2 21.9998C1.48227 21.9997 1.0561 21.6065 1.00488 21.1023L1 20.9998ZM12.7383 12.4275C13.2643 12.5955 13.5547 13.1582 13.3867 13.6843C13.2187 14.2104 12.6559 14.5007 12.1299 14.3328L12.7383 12.4275Z" fill="#5C5C5C"/>
<path d="M20 18C20 16.8954 19.1046 16 18 16C16.8954 16 16 16.8954 16 18C16 19.1046 16.8954 20 18 20C19.1046 20 20 19.1046 20 18ZM22 18C22 20.2091 20.2091 22 18 22C15.7909 22 14 20.2091 14 18C14 15.7909 15.7909 14 18 14C20.2091 14 22 15.7909 22 18Z" fill="#5C5C5C"/>
<path d="M19.393 19.393C19.7591 19.0269 20.3381 19.0043 20.7309 19.3246L20.807 19.393L22.7074 21.2934L22.7758 21.3686C23.0963 21.7613 23.0736 22.3413 22.7074 22.7074C22.3413 23.0736 21.7613 23.0963 21.3686 22.7758L21.2934 22.7074L19.393 20.807L19.3246 20.7309C19.0043 20.3381 19.0269 19.7591 19.393 19.393Z" fill="#5C5C5C"/>
</svg>
